<svg xmlns="http://www.w3.org/2000/svg" xmlns:xlink="http://www.w3.org/1999/xlink" viewBox="0 0 500 500" width="500" height="500" preserveAspectRatio="xMidYMid meet" style="width: 100%; height: 100%; transform: translate3d(0px, 0px, 0px); content-visibility: visible;"><defs><clipPath id="__lottie_element_320"><rect width="500" height="500" x="0" y="0"></rect></clipPath></defs><g clip-path="url(#__lottie_element_320)"><g style="display: block;" transform="matrix(1,0,0,1,28.699996948242188,28.699996948242188)" opacity="1"><g opacity="1" transform="matrix(1,0,0,1,221.3000030517578,221.3000030517578)"><path stroke-linecap="round" stroke-linejoin="round" fill-opacity="0" stroke="rgb(32,118,255)" stroke-opacity="1" stroke-width="16" d=" M181.3000030517578,22.474000930786133 C181.3000030517578,22.474000930786133 181.3000030517578,-22.474000930786133 181.3000030517578,-22.474000930786133 C181.3000030517578,-22.474000930786133 146.5709991455078,-22.474000930786133 146.5709991455078,-22.474000930786133 C142.88600158691406,-46.60900115966797 133.35299682617188,-68.84400177001953 119.47899627685547,-87.69499969482422 C119.47899627685547,-87.69499969482422 144.08999633789062,-112.30699920654297 144.08999633789062,-112.30699920654297 C144.08999633789062,-112.30699920654297 112.30699920654297,-144.08999633789062 112.30699920654297,-144.08999633789062 C112.30699920654297,-144.08999633789062 87.69599914550781,-119.47899627685547 87.69599914550781,-119.47899627685547 C68.84400177001953,-133.35299682617188 46.61000061035156,-142.88499450683594 22.474000930786133,-146.5709991455078 C22.474000930786133,-146.5709991455078 22.474000930786133,-181.3000030517578 22.474000930786133,-181.3000030517578 C22.474000930786133,-181.3000030517578 -22.474000930786133,-181.3000030517578 -22.474000930786133,-181.3000030517578 C-22.474000930786133,-181.3000030517578 -22.474000930786133,-146.5709991455078 -22.474000930786133,-146.5709991455078 C-46.60900115966797,-142.88499450683594 -68.84300231933594,-133.35299682617188 -87.69499969482422,-119.47899627685547 C-87.69499969482422,-119.47899627685547 -112.30599975585938,-144.08999633789062 -112.30599975585938,-144.08999633789062 C-112.30599975585938,-144.08999633789062 -144.08999633789062,-112.30699920654297 -144.08999633789062,-112.30699920654297 C-144.08999633789062,-112.30699920654297 -119.47799682617188,-87.69499969482422 -119.47799682617188,-87.69499969482422 C-133.3520050048828,-68.84400177001953 -142.88499450683594,-46.60900115966797 -146.57000732421875,-22.474000930786133 C-146.57000732421875,-22.474000930786133 -181.3000030517578,-22.474000930786133 -181.3000030517578,-22.474000930786133 C-181.3000030517578,-22.474000930786133 -181.3000030517578,22.474000930786133 -181.3000030517578,22.474000930786133 C-181.3000030517578,22.474000930786133 -146.57000732421875,22.474000930786133 -146.57000732421875,22.474000930786133 C-142.88499450683594,46.60900115966797 -133.3520050048828,68.84400177001953 -119.47799682617188,87.69499969482422 C-119.47799682617188,87.69499969482422 -144.08999633789062,112.30699920654297 -144.08999633789062,112.30699920654297 C-144.08999633789062,112.30699920654297 -112.30599975585938,144.08999633789062 -112.30599975585938,144.08999633789062 C-112.30599975585938,144.08999633789062 -87.69499969482422,119.47899627685547 -87.69499969482422,119.47899627685547 C-68.84300231933594,133.35299682617188 -46.60900115966797,142.88499450683594 -22.474000930786133,146.5709991455078 C-22.474000930786133,146.5709991455078 -22.474000930786133,181.3000030517578 -22.474000930786133,181.3000030517578 C-22.474000930786133,181.3000030517578 22.474000930786133,181.3000030517578 22.474000930786133,181.3000030517578 C22.474000930786133,181.3000030517578 22.474000930786133,146.5709991455078 22.474000930786133,146.5709991455078 C46.61000061035156,142.88499450683594 68.84400177001953,133.35299682617188 87.69599914550781,119.47899627685547 C87.69599914550781,119.47899627685547 112.30699920654297,144.08999633789062 112.30699920654297,144.08999633789062 C112.30699920654297,144.08999633789062 144.08999633789062,112.30699920654297 144.08999633789062,112.30699920654297 C144.08999633789062,112.30699920654297 119.47899627685547,87.69499969482422 119.47899627685547,87.69499969482422 C133.35299682617188,68.84400177001953 142.88600158691406,46.60900115966797 146.5709991455078,22.474000930786133 C146.5709991455078,22.474000930786133 181.3000030517578,22.474000930786133 181.3000030517578,22.474000930786133z M103.13500213623047,0 C103.13500213623047,56.86899948120117 56.86899948120117,103.13500213623047 0,103.13500213623047 C-56.86800003051758,103.13500213623047 -103.13400268554688,56.86899948120117 -103.13400268554688,0 C-103.13400268554688,-56.86899948120117 -56.86800003051758,-103.13500213623047 0,-103.13500213623047 C56.86899948120117,-103.13500213623047 103.13500213623047,-56.86899948120117 103.13500213623047,0z"></path></g></g><g style="display: block;" transform="matrix(1,0,0,1,28.699996948242188,28.699996948242188)" opacity="1"><g opacity="1" transform="matrix(1,0,0,1,221.3000030517578,221.3000030517578)"><path stroke-linecap="round" stroke-linejoin="round" fill-opacity="0" stroke="rgb(0,0,0)" stroke-opacity="1" stroke-width="16" d=" M-4.802000045776367,49.09000015258789 C-4.802000045776367,49.09000015258789 24.010000228881836,0.0010000000474974513 24.010000228881836,0.0010000000474974513 C24.010000228881836,0.0010000000474974513 -24.010000228881836,0.0010000000474974513 -24.010000228881836,0.0010000000474974513 C-24.010000228881836,0.0010000000474974513 24.010000228881836,0.0010000000474974513 24.010000228881836,0.0010000000474974513 C24.010000228881836,0.0010000000474974513 -24.010000228881836,0.0010000000474974513 -24.010000228881836,0.0010000000474974513 C-24.010000228881836,0.0010000000474974513 4.802000045776367,-49.09000015258789 4.802000045776367,-49.09000015258789"></path></g></g></g></svg>