<svg xmlns="http://www.w3.org/2000/svg" xmlns:xlink="http://www.w3.org/1999/xlink" viewBox="0 0 500 500" width="500" height="500" preserveAspectRatio="xMidYMid meet" style="width: 100%; height: 100%; transform: translate3d(0px, 0px, 0px); content-visibility: visible;"><defs><clipPath id="__lottie_element_353"><rect width="500" height="500" x="0" y="0"></rect></clipPath><g id="__lottie_element_359"><g style="display: block;" transform="matrix(1,0,0,1,250,250)" opacity="1"><path fill="rgb(255,0,0)" fill-opacity="1" d=" M45.55,16.68 C45.18,40.3 25.73,59.15 2.11,58.78 C-21.51,58.41 -40.36,38.96 -39.99,15.34 C-39.62,-8.28 -20.17,-27.13 3.45,-26.76 C27.07,-26.39 45.92,-6.94 45.55,16.68z M103.96,6.27 C103.96,6.27 103.47,37.37 103.47,37.37 C103.27,50.26 92.66,60.54 79.78,60.34 C79.78,60.34 -75.74,57.9 -75.74,57.9 C-88.62,57.7 -98.91,47.09 -98.7,34.2 C-98.7,34.2 -98.22,3.1 -98.22,3.1 C-98.01,-9.78 -108.29,-20.39 -121.18,-20.59 C-121.18,-20.59 -121.18,-20.59 -121.18,-20.59 C-134.06,-20.8 -144.67,-10.52 -144.87,2.37 C-144.87,2.37 -145.36,33.47 -145.36,33.47 C-145.96,72.12 -115.12,103.95 -76.47,104.55 C-76.47,104.55 -57.03,104.86 -57.03,104.86 C-57.03,104.86 -58.14,187.79 -58.14,187.79 C-58.14,187.79 58.17,187.05 58.17,187.05 C58.17,187.05 59.61,106.69 59.61,106.69 C59.61,106.69 79.05,106.99 79.05,106.99 C117.7,107.6 149.52,76.76 150.13,38.11 C150.13,38.11 150.62,7 150.62,7 C150.82,-5.88 140.54,-16.49 127.66,-16.69 C127.66,-16.69 127.66,-16.69 127.66,-16.69 C114.77,-16.89 104.16,-6.61 103.96,6.27z"></path><g opacity="1" transform="matrix(0.9998770952224731,0.015677010640501976,-0.015677010640501976,0.9998770952224731,2.9458024501800537,0.0193634033203125)"></g></g></g><filter id="__lottie_element_365" filterUnits="objectBoundingBox" x="0%" y="0%" width="100%" height="100%"><feComponentTransfer in="SourceGraphic"><feFuncA type="table" tableValues="1.0 0.0"></feFuncA></feComponentTransfer></filter><mask id="__lottie_element_359_2" mask-type="alpha"><g filter="url(#__lottie_element_365)"><rect width="500" height="500" x="0" y="0" fill="#ffffff" opacity="0"></rect><use xlink:href="#__lottie_element_359"></use></g></mask></defs><g clip-path="url(#__lottie_element_353)"><g mask="url(#__lottie_element_359_2)" style="display: block;"><g transform="matrix(1,0,0,1,250,250)" opacity="1"><g opacity="1" transform="matrix(1,0,0,1,0,0)"><path stroke-linecap="round" stroke-linejoin="round" fill-opacity="0" stroke="rgb(32,118,255)" stroke-opacity="1" stroke-width="16" d=" M132.20899963378906,187.4250030517578 C132.20899963378906,187.4250030517578 -130.3719940185547,185.58799743652344 -132.20899963378906,187.4250030517578 C-132.20899963378906,187.4250030517578 -60.188236236572266,-47.495704650878906 -60.188236236572266,-47.495704650878906 C-60.188236236572266,-47.495704650878906 -126.7896728515625,-47.495704650878906 -126.7896728515625,-47.495704650878906 C-126.7896728515625,-47.495704650878906 -0.13232536613941193,-122.16865539550781 -0.13232536613941193,-122.16865539550781 C-0.13232536613941193,-122.16865539550781 126.4588623046875,-47.495704650878906 126.4588623046875,-47.495704650878906 C126.4588623046875,-47.495704650878906 53.51305389404297,-47.495704650878906 53.51305389404297,-47.495704650878906 C53.51305389404297,-47.495704650878906 132.20899963378906,187.4250030517578 132.20899963378906,187.4250030517578z"></path></g></g></g><g style="display: block;" transform="matrix(1,0,0,1,250,250)" opacity="1"><g opacity="1" transform="matrix(0.9998770952224731,0.015677010640501976,-0.015677010640501976,0.9998770952224731,2.9458024501800537,0.0193634033203125)"><path stroke-linecap="round" stroke-linejoin="round" fill-opacity="0" stroke="rgb(0,0,0)" stroke-opacity="1" stroke-width="16" d=" M42.85591506958008,15.989827156066895 C42.85591506958008,39.61282730102539 23.705917358398438,58.762882232666016 0.0829165130853653,58.762882232666016 C-23.540082931518555,58.762882232666016 -42.69013595581055,39.61282730102539 -42.69013595581055,15.989827156066895 C-42.69013595581055,-7.633172988891602 -23.540082931518555,-26.78411865234375 0.0829165130853653,-26.78411865234375 C23.705917358398438,-26.78411865234375 42.85591506958008,-7.633172988891602 42.85591506958008,15.989827156066895z M101.10099792480469,4.665999889373779 C101.10099792480469,4.665999889373779 101.10099792480469,35.77399826049805 101.10099792480469,35.77399826049805 C101.10099792480469,48.659000396728516 90.65499877929688,59.10499954223633 77.7699966430664,59.10499954223633 C77.7699966430664,59.10499954223633 -77.7699966430664,59.10499954223633 -77.7699966430664,59.10499954223633 C-90.65499877929688,59.10499954223633 -101.10099792480469,48.659000396728516 -101.10099792480469,35.77399826049805 C-101.10099792480469,35.77399826049805 -101.10099792480469,4.665999889373779 -101.10099792480469,4.665999889373779 C-101.10099792480469,-8.218999862670898 -111.5469970703125,-18.665000915527344 -124.43199920654297,-18.665000915527344 C-124.43199920654297,-18.665000915527344 -124.43199920654297,-18.665000915527344 -124.43199920654297,-18.665000915527344 C-137.31700134277344,-18.665000915527344 -147.76199340820312,-8.218999862670898 -147.76199340820312,4.665999889373779 C-147.76199340820312,4.665999889373779 -147.76199340820312,35.77399826049805 -147.76199340820312,35.77399826049805 C-147.76199340820312,74.43000030517578 -116.4260025024414,105.76699829101562 -77.7699966430664,105.76699829101562 C-77.7699966430664,105.76699829101562 -58.32699966430664,105.76699829101562 -58.32699966430664,105.76699829101562 C-58.32699966430664,105.76699829101562 -58.13563537597656,188.706787109375 -58.13563537597656,188.706787109375 C-58.13563537597656,188.706787109375 58.14645004272461,186.1414337158203 58.14645004272461,186.1414337158203 C58.14645004272461,186.1414337158203 58.32699966430664,105.76699829101562 58.32699966430664,105.76699829101562 C58.32699966430664,105.76699829101562 77.7699966430664,105.76699829101562 77.7699966430664,105.76699829101562 C116.4260025024414,105.76699829101562 147.76199340820312,74.43000030517578 147.76199340820312,35.77399826049805 C147.76199340820312,35.77399826049805 147.76199340820312,4.665999889373779 147.76199340820312,4.665999889373779 C147.76199340820312,-8.218999862670898 137.31700134277344,-18.665000915527344 124.43199920654297,-18.665000915527344 C124.43199920654297,-18.665000915527344 124.43199920654297,-18.665000915527344 124.43199920654297,-18.665000915527344 C111.5469970703125,-18.665000915527344 101.10099792480469,-8.218999862670898 101.10099792480469,4.665999889373779z"></path></g></g></g></svg>