<svg xmlns="http://www.w3.org/2000/svg" xmlns:xlink="http://www.w3.org/1999/xlink" viewBox="0 0 500 500" width="500" height="500" preserveAspectRatio="xMidYMid meet" style="width: 100%; height: 100%; transform: translate3d(0px, 0px, 0px); content-visibility: visible;"><defs><clipPath id="__lottie_element_411"><rect width="500" height="500" x="0" y="0"></rect></clipPath><g id="__lottie_element_417"><g style="display: block;" transform="matrix(1,0,0,1,110.614013671875,401.2330017089844)" opacity="1"><g opacity="1" transform="matrix(1,0,0,1,138.9149932861328,43.909000396728516)"><path fill="rgb(255,0,0)" fill-opacity="1" d=" M123.35900115966797,-28.35300064086914 C123.35900115966797,-28.35300064086914 -123.35900115966797,-28.35300064086914 -123.35900115966797,-28.35300064086914 C-123.35900115966797,-28.35300064086914 -123.35900115966797,28.35300064086914 -123.35900115966797,28.35300064086914 C-123.35900115966797,28.35300064086914 123.35900115966797,28.35300064086914 123.35900115966797,28.35300064086914 C123.35900115966797,28.35300064086914 123.35900115966797,-28.35300064086914 123.35900115966797,-28.35300064086914z"></path></g></g></g><g id="__lottie_element_426"><g style="display: block;" transform="matrix(1,0,0,1,110.614013671875,401.2330017089844)" opacity="1"><g opacity="1" transform="matrix(1,0,0,1,138.9149932861328,43.909000396728516)"><path fill="rgb(255,0,0)" fill-opacity="1" d=" M123.35900115966797,-28.35300064086914 C123.35900115966797,-28.35300064086914 -123.35900115966797,-28.35300064086914 -123.35900115966797,-28.35300064086914 C-123.35900115966797,-28.35300064086914 -123.35900115966797,28.35300064086914 -123.35900115966797,28.35300064086914 C-123.35900115966797,28.35300064086914 123.35900115966797,28.35300064086914 123.35900115966797,28.35300064086914 C123.35900115966797,28.35300064086914 123.35900115966797,-28.35300064086914 123.35900115966797,-28.35300064086914z"></path></g></g></g><filter id="__lottie_element_447" filterUnits="objectBoundingBox" x="0%" y="0%" width="100%" height="100%"><feComponentTransfer in="SourceGraphic"><feFuncA type="table" tableValues="1.0 0.0"></feFuncA></feComponentTransfer></filter><mask id="__lottie_element_426_2" mask-type="alpha"><g filter="url(#__lottie_element_447)"><rect width="500" height="500" x="0" y="0" fill="#ffffff" opacity="0"></rect><use xlink:href="#__lottie_element_426"></use></g></mask><filter id="__lottie_element_448" filterUnits="objectBoundingBox" x="0%" y="0%" width="100%" height="100%"><feComponentTransfer in="SourceGraphic"><feFuncA type="table" tableValues="1.0 0.0"></feFuncA></feComponentTransfer></filter><mask id="__lottie_element_417_2" mask-type="alpha"><g filter="url(#__lottie_element_448)"><rect width="500" height="500" x="0" y="0" fill="#ffffff" opacity="0"></rect><use xlink:href="#__lottie_element_417"></use></g></mask></defs><g clip-path="url(#__lottie_element_411)"><g mask="url(#__lottie_element_417_2)" style="display: block;"><g transform="matrix(1.000002145767212,0,0,1.000002145767212,-29.658308029174805,196.30064392089844)" opacity="1"><g opacity="1" transform="matrix(1,0,0,1,90.7969970703125,91.72799682617188)"><path stroke-linecap="round" stroke-linejoin="round" fill-opacity="0" stroke="rgb(0,0,0)" stroke-opacity="1" stroke-width="16" d=" M0.5715870261192322,-34.74655532836914 C0.5715870261192322,-34.74655532836914 0.5715870261192322,-34.74655532836914 0.5715870261192322,-34.74655532836914 C19.285232543945312,-36.16405487060547 35.60395431518555,-22.14311981201172 37.022457122802734,-3.4294745922088623 C37.022457122802734,-3.4294745922088623 37.17801284790039,-1.367972493171692 37.17801284790039,-1.367972493171692 C38.59651184082031,17.345672607421875 24.575578689575195,33.667144775390625 5.861933708190918,35.08464431762695 C5.861933708190918,35.08464431762695 5.861807823181152,35.08464431762695 5.861807823181152,35.08464431762695 C-12.851837158203125,36.50214385986328 -29.171308517456055,22.481210708618164 -30.588809967041016,3.7675657272338867 C-30.588809967041016,3.7675657272338867 -30.746240615844727,1.7060635089874268 -30.746240615844727,1.7060635089874268 C-32.16374206542969,-17.00758171081543 -18.142057418823242,-33.32905197143555 0.5715870261192322,-34.74655532836914z"></path></g><g opacity="1" transform="matrix(1,0,0,1,147.58900451660156,201.41299438476562)"><path stroke-linecap="round" stroke-linejoin="round" fill-opacity="0" stroke="rgb(0,0,0)" stroke-opacity="1" stroke-width="16" d=" M-31.464000701904297,-18.214000701904297 C-31.464000701904297,-18.214000701904297 8.086999893188477,16.47599983215332 8.086999893188477,16.47599983215332 C8.086999893188477,16.47599983215332 66.2020034790039,16.47599983215332 66.2020034790039,16.47599983215332 C75.75299835205078,16.47599983215332 83.49600219726562,8.732999801635742 83.49600219726562,-0.8180000185966492 C83.49600219726562,-0.8180000185966492 83.49600219726562,-0.8190000057220459 83.49600219726562,-0.8190000057220459 C83.49600219726562,-10.369999885559082 75.75299835205078,-18.113000869750977 66.2020034790039,-18.113000869750977 C66.2020034790039,-18.113000869750977 28.40999984741211,-18.113000869750977 28.40999984741211,-18.113000869750977 C28.40999984741211,-18.113000869750977 -13.609842300415039,-62.59143829345703 -13.609842300415039,-62.59143829345703 C-13.609842300415039,-62.59143829345703 -16.596792221069336,-65.57471466064453 -16.596792221069336,-65.57471466064453 C-22.810739517211914,-71.13338470458984 -30.885360717773438,-74.6127700805664 -39.7103385925293,-75.01956176757812 C-63.27112579345703,-76.10523986816406 -81.88639831542969,-55.28187942504883 -78.17757415771484,-31.990108489990234 C-78.17757415771484,-31.990108489990234 -56.79199981689453,75.77899932861328 -56.79199981689453,75.77899932861328"></path></g></g></g><g style="display: block;" transform="matrix(1.000002145767212,0,0,1.000002145767212,190.57888793945312,300.43701171875)" opacity="1"><g opacity="1" transform="matrix(1,0,0,1,24.551000595092773,54.138999938964844)"><path stroke-linecap="round" stroke-linejoin="round" fill-opacity="0" stroke="rgb(0,0,0)" stroke-opacity="1" stroke-width="16" d=" M13.550999641418457,-43.138999938964844 C13.550999641418457,-43.138999938964844 -13.550999641418457,43.138999938964844 -13.550999641418457,43.138999938964844"></path></g></g><g mask="url(#__lottie_element_426_2)" style="display: block;"><g transform="matrix(1.000002145767212,0,0,1.000002145767212,242.47918701171875,196.3007049560547)" opacity="1"><g opacity="1" transform="matrix(1,0,0,1,138.64700317382812,201.41299438476562)"><path stroke-linecap="round" stroke-linejoin="round" fill-opacity="0" stroke="rgb(0,0,0)" stroke-opacity="1" stroke-width="16" d=" M30.78700065612793,-24.972000122070312 C30.78700065612793,-24.972000122070312 -8.23799991607666,19.073999404907227 -8.23799991607666,19.073999404907227 C-8.23799991607666,19.073999404907227 -66.35399627685547,19.073999404907227 -66.35399627685547,19.073999404907227 C-75.90499877929688,19.073999404907227 -83.64700317382812,11.331000328063965 -83.64700317382812,1.7799999713897705 C-83.64700317382812,1.7799999713897705 -83.64700317382812,1.7790000438690186 -83.64700317382812,1.7790000438690186 C-83.64700317382812,-7.771999835968018 -75.90499877929688,-15.515000343322754 -66.35399627685547,-15.515000343322754 C-66.35399627685547,-15.515000343322754 -28.56100082397461,-15.515000343322754 -28.56100082397461,-15.515000343322754 C-28.56100082397461,-15.515000343322754 4.53000020980835,-59.65599822998047 4.53000020980835,-59.65599822998047 C4.53000020980835,-59.65599822998047 7.209000110626221,-62.933998107910156 7.209000110626221,-62.933998107910156 C12.847999572753906,-69.10800170898438 20.552000045776367,-73.39600372314453 29.316999435424805,-74.69300079345703 C52.715999603271484,-78.15599822998047 73.39399719238281,-59.25899887084961 72.0459976196289,-35.64400100708008 C72.0459976196289,-35.64400100708008 56.79199981689453,75.77899932861328 56.79199981689453,75.77899932861328"></path></g><g opacity="1" transform="matrix(1,0,0,1,195.43899536132812,91.72799682617188)"><path stroke-linecap="round" stroke-linejoin="round" fill-opacity="0" stroke="rgb(0,0,0)" stroke-opacity="1" stroke-width="16" d=" M-27.85700035095215,-35.696998596191406 C-27.85700035095215,-35.696998596191406 -27.85700035095215,-35.696998596191406 -27.85700035095215,-35.696998596191406 C-46.63100051879883,-34.75899887084961 -61.090999603271484,-18.780000686645508 -60.15399932861328,-0.006000000052154064 C-60.15399932861328,-0.006000000052154064 -60.05099868774414,2.062000036239624 -60.05099868774414,2.062000036239624 C-59.112998962402344,20.836000442504883 -43.13399887084961,35.29600143432617 -24.360000610351562,34.358001708984375 C-5.585000038146973,33.41999816894531 8.875,17.44099998474121 7.936999797821045,-1.3329999446868896 C7.936999797821045,-1.3329999446868896 7.834000110626221,-3.4010000228881836 7.834000110626221,-3.4010000228881836 C6.895999908447266,-22.174999237060547 -9.083000183105469,-36.6349983215332 -27.85700035095215,-35.696998596191406z"></path></g></g></g><g style="display: block;" transform="matrix(1.000002145767212,0,0,1.000002145767212,259.376220703125,300.4369201660156)" opacity="1"><g opacity="1" transform="matrix(1,0,0,1,24.551000595092773,54.138999938964844)"><path stroke-linecap="round" stroke-linejoin="round" fill-opacity="0" stroke="rgb(0,0,0)" stroke-opacity="1" stroke-width="16" d=" M-13.550999641418457,-43.138999938964844 C-13.550999641418457,-43.138999938964844 13.550999641418457,43.138999938964844 13.550999641418457,43.138999938964844"></path></g></g><g style="display: block;" transform="matrix(1.000002145767212,0,0,1.000002145767212,110.61329650878906,401.2324523925781)" opacity="1"><g opacity="1" transform="matrix(1,0,0,1,138.9149932861328,43.909000396728516)"><path stroke-linecap="round" stroke-linejoin="round" fill-opacity="0" stroke="rgb(0,0,0)" stroke-opacity="1" stroke-width="16" d=" M123.35900115966797,-28.35300064086914 C123.35900115966797,-28.35300064086914 -123.35900115966797,-28.35300064086914 -123.35900115966797,-28.35300064086914 C-123.35900115966797,-28.35300064086914 -123.35900115966797,28.35300064086914 -123.35900115966797,28.35300064086914 C-123.35900115966797,28.35300064086914 123.35900115966797,28.35300064086914 123.35900115966797,28.35300064086914 C123.35900115966797,28.35300064086914 123.35900115966797,-28.35300064086914 123.35900115966797,-28.35300064086914z"></path></g></g><g style="display: block;" transform="matrix(1.000002145767212,0,0,1.000002145767212,79.29020690917969,-27.758169174194336)" opacity="1"><g opacity="1" transform="matrix(1,0,0,1,170.23800659179688,170.23800659179688)"><path stroke-linecap="round" stroke-linejoin="round" fill-opacity="0" stroke="rgb(0,0,0)" stroke-opacity="1" stroke-width="16" d=" M115.23799896240234,0 C115.23799896240234,63.64400100708008 63.64400100708008,115.23799896240234 0,115.23799896240234 C-63.64400100708008,115.23799896240234 -115.23799896240234,63.64400100708008 -115.23799896240234,0 C-115.23799896240234,-63.64400100708008 -63.64400100708008,-115.23799896240234 0,-115.23799896240234 C63.64400100708008,-115.23799896240234 115.23799896240234,-63.64400100708008 115.23799896240234,0z"></path></g><g opacity="1" transform="matrix(1,0,0,1,0,0)"><path stroke-linecap="round" stroke-linejoin="round" fill-opacity="0" stroke="rgb(0,0,0)" stroke-opacity="1" stroke-width="16" d=" M248.60899353027344,170.32699584960938 C248.60899353027344,170.32699584960938 241.8179931640625,170.32699584960938 241.8179931640625,170.32699584960938"></path></g><g opacity="1" transform="matrix(1,0,0,1,0,0)"><path stroke-linecap="round" stroke-linejoin="round" fill-opacity="0" stroke="rgb(0,0,0)" stroke-opacity="1" stroke-width="16" d=" M91.86699676513672,170.1479949951172 C91.86699676513672,170.1479949951172 98.65799713134766,170.1479949951172 98.65799713134766,170.1479949951172"></path></g><g opacity="1" transform="matrix(1,0,0,1,0,0)"><path stroke-linecap="round" stroke-linejoin="round" fill-opacity="0" stroke="rgb(0,0,0)" stroke-opacity="1" stroke-width="16" d=" M170.1479949951172,248.60899353027344 C170.1479949951172,248.60899353027344 170.1479949951172,241.8179931640625 170.1479949951172,241.8179931640625"></path></g></g><g style="display: block;" transform="matrix(-0.7249191999435425,0.6888370513916016,-0.6888370513916016,-0.7249191999435425,376.84002685546875,195.80335998535156)" opacity="1"><g opacity="1" transform="matrix(1,0,0,1,69.31300354003906,104.15399932861328)"><path stroke-linecap="round" stroke-linejoin="round" fill-opacity="0" stroke="rgb(32,118,255)" stroke-opacity="1" stroke-width="16" d=" M14.312000274658203,49.15399932861328 C14.312000274658203,49.15399932861328 -13.697999954223633,22.42799949645996 -13.697999954223633,22.42799949645996 C-13.697999954223633,22.42799949645996 -13.710000038146973,22.42799949645996 -13.710000038146973,22.42799949645996"></path></g></g><g style="display: block;" transform="matrix(1.000002145767212,0,0,1.000002145767212,194.6184539794922,15.26391315460205)" opacity="1"><g opacity="1" transform="matrix(1,0,0,1,69.31300354003906,104.15399932861328)"><path stroke-linecap="round" stroke-linejoin="round" fill-opacity="0" stroke="rgb(32,118,255)" stroke-opacity="1" stroke-width="16" d=" M-14.300999641418457,23.062000274658203 C-14.300999641418457,23.062000274658203 -14.312000274658203,23.062000274658203 -14.312000274658203,23.062000274658203 C-14.312000274658203,23.062000274658203 -14.312000274658203,-49.15399932861328 -14.312000274658203,-49.15399932861328"></path></g></g><g style="display: block;" transform="matrix(1,0,0,1,250,257)" opacity="1"><g opacity="1" transform="matrix(1,0,0,1,-0.25,-116.25)"><path stroke-linecap="round" stroke-linejoin="round" fill-opacity="0" stroke="rgb(0,0,0)" stroke-opacity="1" stroke-width="16" d="M0 0"></path></g></g></g></svg>