<svg xmlns="http://www.w3.org/2000/svg" xmlns:xlink="http://www.w3.org/1999/xlink" viewBox="0 0 500 500" width="500" height="500" preserveAspectRatio="xMidYMid meet" style="width: 100%; height: 100%; transform: translate3d(0px, 0px, 0px); content-visibility: visible;"><defs><clipPath id="__lottie_element_274"><rect width="500" height="500" x="0" y="0"></rect></clipPath></defs><g clip-path="url(#__lottie_element_274)"><g style="display: block;" transform="matrix(1.000002145767212,0,0,1.000002145767212,222.42152404785156,11.020712852478027)" opacity="1"><g opacity="1" transform="matrix(1,0,0,1,182.91000366210938,180.12899780273438)"><path stroke-linecap="round" stroke-linejoin="round" fill-opacity="0" stroke="rgb(32,118,255)" stroke-opacity="1" stroke-width="16" d=" M-0.006115449592471123,-54.319637298583984 C-0.006115449592471123,-54.319637298583984 18.1578311920166,-19.279220581054688 18.1578311920166,-19.279220581054688 C18.1578311920166,-19.279220581054688 57.09775924682617,-12.83293342590332 57.09775924682617,-12.83293342590332 C57.09775924682617,-12.83293342590332 29.384037017822266,15.271742820739746 29.384037017822266,15.271742820739746 C29.384037017822266,15.271742820739746 35.28556442260742,54.2961311340332 35.28556442260742,54.2961311340332 C35.28556442260742,54.2961311340332 -0.006115449592471123,36.625667572021484 -0.006115449592471123,36.625667572021484 C-0.006115449592471123,36.625667572021484 -35.29877471923828,54.2961311340332 -35.29877471923828,54.2961311340332 C-35.29877471923828,54.2961311340332 -29.398237228393555,15.271742820739746 -29.398237228393555,15.271742820739746 C-29.398237228393555,15.271742820739746 -57.10997009277344,-12.83293342590332 -57.10997009277344,-12.83293342590332 C-57.10997009277344,-12.83293342590332 -18.171051025390625,-19.279220581054688 -18.171051025390625,-19.279220581054688 C-18.171051025390625,-19.279220581054688 -0.006115449592471123,-54.319637298583984 -0.006115449592471123,-54.319637298583984z"></path></g></g><g style="display: block;" transform="matrix(1.000002145767212,0,0,1.000002145767212,-88.67881774902344,11.020712852478027)" opacity="1"><g opacity="1" transform="matrix(1,0,0,1,182.91000366210938,180.12899780273438)"><path stroke-linecap="round" stroke-linejoin="round" fill-opacity="0" stroke="rgb(32,118,459)" stroke-opacity="1" stroke-width="16" d=" M-0.01619107648730278,-54.3105583190918 C-0.01619107648730278,-54.3105583190918 18.147226333618164,-19.273061752319336 18.147226333618164,-19.273061752319336 C18.147226333618164,-19.273061752319336 57.0828971862793,-12.827317237854004 57.0828971862793,-12.827317237854004 C57.0828971862793,-12.827317237854004 29.371498107910156,15.275012969970703 29.371498107910156,15.275012969970703 C29.371498107910156,15.275012969970703 35.272525787353516,54.296119689941406 35.272525787353516,54.296119689941406 C35.272525787353516,54.296119689941406 -0.01619107648730278,36.62714385986328 -0.01619107648730278,36.62714385986328 C-0.01619107648730278,36.62714385986328 -35.3049201965332,54.296119689941406 -35.3049201965332,54.296119689941406 C-35.3049201965332,54.296119689941406 -29.404870986938477,15.275012969970703 -29.404870986938477,15.275012969970703 C-29.404870986938477,15.275012969970703 -57.11427688598633,-12.827317237854004 -57.11427688598633,-12.827317237854004 C-57.11427688598633,-12.827317237854004 -18.179607391357422,-19.273061752319336 -18.179607391357422,-19.273061752319336 C-18.179607391357422,-19.273061752319336 -0.01619107648730278,-54.3105583190918 -0.01619107648730278,-54.3105583190918z"></path></g></g><g style="display: block;" transform="matrix(1.000002145767212,0,0,1.000002145767212,14.76424789428711,-88.09373474121094)" opacity="1"><g opacity="1" transform="matrix(1,0,0,1,235.01699829101562,229.68699645996094)"><path stroke-linecap="round" stroke-linejoin="round" fill-opacity="0" stroke="rgb(32,118,255)" stroke-opacity="1" stroke-width="16" d=" M-108.39845275878906,-24.262405395507812 C-108.39845275878906,-24.262405395507812 -55.79985809326172,29.080507278442383 -55.79985809326172,29.080507278442383 C-55.79985809326172,29.080507278442383 -66.99919891357422,103.15338897705078 -66.99919891357422,103.15338897705078 C-66.99919891357422,103.15338897705078 -0.013090884312987328,69.61207580566406 -0.013090884312987328,69.61207580566406 C-0.013090884312987328,69.61207580566406 66.97400665283203,103.15338897705078 66.97400665283203,103.15338897705078 C66.97400665283203,103.15338897705078 55.77366638183594,29.080507278442383 55.77366638183594,29.080507278442383 C55.77366638183594,29.080507278442383 108.37226867675781,-24.262405395507812 108.37226867675781,-24.262405395507812 C108.37226867675781,-24.262405395507812 34.46556091308594,-36.500579833984375 34.46556091308594,-36.500579833984375 C34.46556091308594,-36.500579833984375 -0.013090884312987328,-103.01004791259766 -0.013090884312987328,-103.01004791259766 C-0.013090884312987328,-103.01004791259766 -29.137357711791992,-37.69166564941406 -29.137357711791992,-37.69166564941406 C-29.137357711791992,-37.69166564941406 -108.39845275878906,-24.262405395507812 -108.39845275878906,-24.262405395507812z"></path></g></g><g style="display: block;" transform="matrix(1.000002145767212,0,0,1.000002145767212,141.003662109375,279.0793762207031)" opacity="1"><g opacity="1" transform="matrix(1,0,0,1,0,0)"><path stroke-linecap="round" stroke-linejoin="round" fill-opacity="0" stroke="rgb(0,0,0)" stroke-opacity="1" stroke-width="16" d=" M11,11 C11,11 11,80.06199645996094 11,80.06199645996094"></path></g><g opacity="1" transform="matrix(1,0,0,1,0,0)"><path stroke-linecap="round" stroke-linejoin="round" fill-opacity="0" stroke="rgb(0,0,0)" stroke-opacity="1" stroke-width="16" d=" M45.53300094604492,11 C45.53300094604492,11 45.53300094604492,80.06199645996094 45.53300094604492,80.06199645996094"></path></g><g opacity="1" transform="matrix(1,0,0,1,0,0)"><path stroke-linecap="round" stroke-linejoin="round" fill-opacity="0" stroke="rgb(0,0,0)" stroke-opacity="1" stroke-width="16" d=" M11.086999893188477,45.53099822998047 C11.086999893188477,45.53099822998047 45.5369987487793,45.53099822998047 45.5369987487793,45.53099822998047"></path></g></g><g style="display: block;" transform="matrix(1.000002145767212,0,0,1.000002145767212,205.75128173828125,279.0793762207031)" opacity="1"><g opacity="1" transform="matrix(1,0,0,1,0,0)"><path stroke-linecap="round" stroke-linejoin="round" fill-opacity="0" stroke="rgb(0,0,0)" stroke-opacity="1" stroke-width="16" d=" M11,11 C11,11 11,80.06199645996094 11,80.06199645996094"></path></g></g><g style="display: block;" transform="matrix(1.000002145767212,0,0,1.000002145767212,120.87352752685547,163.98611450195312)" opacity="1"><g opacity="1" transform="matrix(1,0,0,1,143.35800170898438,160.62399291992188)"><path stroke-linecap="round" stroke-linejoin="round" fill-opacity="0" stroke="rgb(0,0,0)" stroke-opacity="1" stroke-width="16" d=" M8.633999824523926,4.51800012588501 C8.633999824523926,4.51800012588501 17.266000747680664,4.51800012588501 17.266000747680664,4.51800012588501 C17.266000747680664,4.51800012588501 17.266000747680664,17.266000747680664 17.266000747680664,17.266000747680664 C17.266000747680664,26.761999130249023 9.496000289916992,34.53200149536133 0,34.53200149536133 C-9.496000289916992,34.53200149536133 -17.264999389648438,26.761999130249023 -17.264999389648438,17.266000747680664 C-17.264999389648438,17.266000747680664 -17.264999389648438,-17.264999389648438 -17.264999389648438,-17.264999389648438 C-17.264999389648438,-26.76099967956543 -9.496000289916992,-34.53099822998047 0,-34.53099822998047 C6.688000202178955,-34.53099822998047 12.520000457763672,-30.677000045776367 15.383999824523926,-25.08099937438965"></path></g></g><g style="display: block;" transform="matrix(1.000002145767212,0,0,1.000002145767212,300.7121276855469,279.0793762207031)" opacity="1"><g opacity="1" transform="matrix(1,0,0,1,0,0)"><path stroke-linecap="round" stroke-linejoin="round" fill-opacity="0" stroke="rgb(0,0,0)" stroke-opacity="1" stroke-width="16" d=" M11,11 C11,11 11,80.06199645996094 11,80.06199645996094"></path></g><g opacity="1" transform="matrix(1,0,0,1,0,0)"><path stroke-linecap="round" stroke-linejoin="round" fill-opacity="0" stroke="rgb(0,0,0)" stroke-opacity="1" stroke-width="16" d=" M45.53200149536133,11 C45.53200149536133,11 45.53200149536133,80.06199645996094 45.53200149536133,80.06199645996094"></path></g><g opacity="1" transform="matrix(1,0,0,1,0,0)"><path stroke-linecap="round" stroke-linejoin="round" fill-opacity="0" stroke="rgb(0,0,0)" stroke-opacity="1" stroke-width="16" d=" M11.017999649047852,45.53099822998047 C11.017999649047852,45.53099822998047 45.542999267578125,45.53099822998047 45.542999267578125,45.53099822998047"></path></g></g><g style="display: block;" transform="matrix(1.000002145767212,0,0,1.000002145767212,-59.75794219970703,267.5801696777344)" opacity="1"><g opacity="1" transform="matrix(1,0,0,1,143.35800170898438,160.62399291992188)"><path stroke-linecap="round" stroke-linejoin="round" fill-opacity="0" stroke="rgb(0,0,0)" stroke-opacity="1" stroke-width="16" d=" M0,-34.53099822998047 C0,-34.53099822998047 0,-34.53099822998047 0,-34.53099822998047 C9.496000289916992,-34.53099822998047 17.266000747680664,-26.76099967956543 17.266000747680664,-17.266000747680664 C17.266000747680664,-17.266000747680664 17.266000747680664,17.266000747680664 17.266000747680664,17.266000747680664 C17.266000747680664,26.761999130249023 9.496000289916992,34.53099822998047 0,34.53099822998047 C-9.496000289916992,34.53099822998047 -17.264999389648438,26.761999130249023 -17.264999389648438,17.266000747680664 C-17.264999389648438,17.266000747680664 -17.264999389648438,-17.266000747680664 -17.264999389648438,-17.266000747680664 C-17.264999389648438,-26.76099967956543 -9.496000289916992,-34.53099822998047 0,-34.53099822998047z"></path></g><g opacity="1" transform="matrix(1,0,0,1,156.30799865722656,190.83900451660156)"><path stroke-linecap="round" stroke-linejoin="round" fill-opacity="0" stroke="rgb(0,0,0)" stroke-opacity="1" stroke-width="16" d=" M-4.315999984741211,-4.315999984741211 C-4.315999984741211,-4.315999984741211 4.315999984741211,4.315999984741211 4.315999984741211,4.315999984741211"></path></g></g><g style="display: block;" transform="matrix(1.000002145767212,0,0,1.000002145767212,4.987622261047363,267.5801696777344)" opacity="1"><g opacity="1" transform="matrix(1,0,0,1,143.35800170898438,160.62399291992188)"><path stroke-linecap="round" stroke-linejoin="round" fill-opacity="0" stroke="rgb(0,0,0)" stroke-opacity="1" stroke-width="16" d=" M17.266000747680664,-34.53099822998047 C17.266000747680664,-34.53099822998047 17.266000747680664,17.266000747680664 17.266000747680664,17.266000747680664 C17.266000747680664,26.761999130249023 9.496000289916992,34.53099822998047 -0.0010000000474974513,34.53099822998047 C-9.496999740600586,34.53099822998047 -17.266000747680664,26.761999130249023 -17.266000747680664,17.266000747680664 C-17.266000747680664,17.266000747680664 -17.266000747680664,-34.53099822998047 -17.266000747680664,-34.53099822998047"></path></g></g><g style="display: block;" transform="matrix(1.000002145767212,0,0,1.000002145767212,69.73312377929688,267.5801696777344)" opacity="1"><g opacity="1" transform="matrix(1,0,0,1,143.35800170898438,160.62399291992188)"><path stroke-linecap="round" stroke-linejoin="round" fill-opacity="0" stroke="rgb(0,0,0)" stroke-opacity="1" stroke-width="16" d=" M17.270000457763672,8.631999969482422 C17.270000457763672,8.631999969482422 -17.2549991607666,8.631999969482422 -17.2549991607666,8.631999969482422 M-17.264999389648438,34.53099822998047 C-17.264999389648438,34.53099822998047 -17.264999389648438,-17.266000747680664 -17.264999389648438,-17.266000747680664 C-17.264999389648438,-26.761999130249023 -9.494999885559082,-34.53099822998047 0.0010000000474974513,-34.53099822998047 C9.496999740600586,-34.53099822998047 17.266000747680664,-26.761999130249023 17.266000747680664,-17.266000747680664 C17.266000747680664,-17.266000747680664 17.266000747680664,34.53099822998047 17.266000747680664,34.53099822998047"></path></g></g><g style="display: block;" transform="matrix(1.0000032186508179,0,0,1.0000032186508179,134.4793243408203,267.58001708984375)" opacity="1"><g opacity="1" transform="matrix(1,0,0,1,141.1999969482422,160.62399291992188)"><path stroke-linecap="round" stroke-linejoin="round" fill-opacity="0" stroke="rgb(0,0,0)" stroke-opacity="1" stroke-width="16" d=" M-15.107000350952148,-34.53099822998047 C-15.107000350952148,-34.53099822998047 -15.107000350952148,34.53099822998047 -15.107000350952148,34.53099822998047 C-15.107000350952148,34.53099822998047 15.107000350952148,34.53099822998047 15.107000350952148,34.53099822998047"></path></g></g><g style="display: block;" transform="matrix(1.000002145767212,0,0,1.000002145767212,305.685546875,382.6734313964844)" opacity="1"><g opacity="1" transform="matrix(1,0,0,1,0,0)"><path stroke-linecap="round" stroke-linejoin="round" fill-opacity="0" stroke="rgb(0,0,0)" stroke-opacity="1" stroke-width="16" d=" M11,11 C11,11 11,80.06199645996094 11,80.06199645996094"></path></g></g><g style="display: block;" transform="matrix(1.000002145767212,0,0,1.000002145767212,331.5842590332031,382.6734313964844)" opacity="1"><g opacity="1" transform="matrix(1,0,0,1,0,0)"><path stroke-linecap="round" stroke-linejoin="round" fill-opacity="0" stroke="rgb(0,0,0)" stroke-opacity="1" stroke-width="16" d=" M26.10700035095215,11.001999855041504 C26.10700035095215,11.001999855041504 26.10700035095215,80.06199645996094 26.10700035095215,80.06199645996094"></path></g><g opacity="1" transform="matrix(1,0,0,1,0,0)"><path stroke-linecap="round" stroke-linejoin="round" fill-opacity="0" stroke="rgb(0,0,0)" stroke-opacity="1" stroke-width="16" d=" M11,11 C11,11 41.21500015258789,11 41.21500015258789,11"></path></g></g><g style="display: block;" transform="matrix(1.000002145767212,0,0,1.000002145767212,272.60479736328125,267.5806884765625)" opacity="1"><g opacity="1" transform="matrix(1,0,0,1,143.35800170898438,147.6739959716797)"><path stroke-linecap="round" stroke-linejoin="round" fill-opacity="0" stroke="rgb(0,0,0)" stroke-opacity="1" stroke-width="16" d=" M17.266000747680664,-21.582000732421875 C17.266000747680664,-21.582000732421875 17.266000747680664,4.315999984741211 17.266000747680664,4.315999984741211 C17.266000747680664,13.810999870300293 9.496000289916992,21.58099937438965 -0.0010000000474974513,21.58099937438965 C-9.496999740600586,21.58099937438965 -17.266000747680664,13.812000274658203 -17.266000747680664,4.315999984741211 C-17.266000747680664,4.315999984741211 -17.266000747680664,-21.582000732421875 -17.266000747680664,-21.582000732421875"></path></g><g opacity="1" transform="matrix(1,0,0,1,0,0)"><path stroke-linecap="round" stroke-linejoin="round" fill-opacity="0" stroke="rgb(0,0,0)" stroke-opacity="1" stroke-width="16" d=" M143.35899353027344,169.2779998779297 C143.35899353027344,169.2779998779297 143.35899353027344,195.156005859375 143.35899353027344,195.156005859375"></path></g></g><g style="display: none;" transform="matrix(0.9023612141609192,0,0,0.9023612141609192,-45.76031494140625,283.263671875)" opacity="1"><g opacity="1" transform="matrix(1,0,0,1,143.35800170898438,160.62399291992188)"><path stroke-linecap="round" stroke-linejoin="round" fill-opacity="0" stroke="rgb(32,118,255)" stroke-opacity="1" stroke-width="18" d=" M0,-34.53099822998047 C0,-34.53099822998047 0,-34.53099822998047 0,-34.53099822998047 C9.496000289916992,-34.53099822998047 17.266000747680664,-26.76099967956543 17.266000747680664,-17.266000747680664 C17.266000747680664,-17.266000747680664 17.266000747680664,17.266000747680664 17.266000747680664,17.266000747680664 C17.266000747680664,26.761999130249023 9.496000289916992,34.53099822998047 0,34.53099822998047 C-9.496000289916992,34.53099822998047 -17.264999389648438,26.761999130249023 -17.264999389648438,17.266000747680664 C-17.264999389648438,17.266000747680664 -17.264999389648438,-17.266000747680664 -17.264999389648438,-17.266000747680664 C-17.264999389648438,-26.76099967956543 -9.496000289916992,-34.53099822998047 0,-34.53099822998047z"></path></g><g opacity="1" transform="matrix(1,0,0,1,156.30799865722656,190.83900451660156)"><path stroke-linecap="round" stroke-linejoin="round" fill-opacity="0" stroke="rgb(32,118,255)" stroke-opacity="1" stroke-width="18" d=" M-4.315999984741211,-4.315999984741211 C-4.315999984741211,-4.315999984741211 4.315999984741211,4.315999984741211 4.315999984741211,4.315999984741211"></path></g></g><g style="display: none;" transform="matrix(0.9189487099647522,0,0,0.9189487099647522,16.60728645324707,280.59930419921875)" opacity="1"><g opacity="1" transform="matrix(1,0,0,1,143.35800170898438,160.62399291992188)"><path stroke-linecap="round" stroke-linejoin="round" fill-opacity="0" stroke="rgb(32,118,255)" stroke-opacity="1" stroke-width="18" d=" M17.266000747680664,-34.53099822998047 C17.266000747680664,-34.53099822998047 17.266000747680664,17.266000747680664 17.266000747680664,17.266000747680664 C17.266000747680664,26.761999130249023 9.496000289916992,34.53099822998047 -0.0010000000474974513,34.53099822998047 C-9.496999740600586,34.53099822998047 -17.266000747680664,26.761999130249023 -17.266000747680664,17.266000747680664 C-17.266000747680664,17.266000747680664 -17.266000747680664,-34.53099822998047 -17.266000747680664,-34.53099822998047"></path></g></g><g style="display: none;" transform="matrix(0.9282612800598145,0,0,0.9282612800598145,80.01789855957031,279.1034851074219)" opacity="1"><g opacity="1" transform="matrix(1,0,0,1,143.35800170898438,160.62399291992188)"><path stroke-linecap="round" stroke-linejoin="round" fill-opacity="0" stroke="rgb(32,118,255)" stroke-opacity="1" stroke-width="18" d=" M17.270000457763672,8.631999969482422 C17.270000457763672,8.631999969482422 -17.2549991607666,8.631999969482422 -17.2549991607666,8.631999969482422 M-17.264999389648438,34.53099822998047 C-17.264999389648438,34.53099822998047 -17.264999389648438,-17.266000747680664 -17.264999389648438,-17.266000747680664 C-17.264999389648438,-26.761999130249023 -9.494999885559082,-34.53099822998047 0.0010000000474974513,-34.53099822998047 C9.496999740600586,-34.53099822998047 17.266000747680664,-26.761999130249023 17.266000747680664,-17.266000747680664 C17.266000747680664,-17.266000747680664 17.266000747680664,34.53099822998047 17.266000747680664,34.53099822998047"></path></g></g><g style="display: none;" transform="matrix(0.9584441781044006,0,0,0.9584441781044006,140.3474578857422,274.2554016113281)" opacity="1"><g opacity="1" transform="matrix(1,0,0,1,141.1999969482422,160.62399291992188)"><path stroke-linecap="round" stroke-linejoin="round" fill-opacity="0" stroke="rgb(32,118,255)" stroke-opacity="1" stroke-width="18" d=" M-15.107000350952148,-34.53099822998047 C-15.107000350952148,-34.53099822998047 -15.107000350952148,34.53099822998047 -15.107000350952148,34.53099822998047 C-15.107000350952148,34.53099822998047 15.107000350952148,34.53099822998047 15.107000350952148,34.53099822998047"></path></g></g><g style="display: none;" transform="matrix(0.9708170890808105,0,0,0.9708170890808105,306.006591796875,384.00225830078125)" opacity="1"><g opacity="1" transform="matrix(1,0,0,1,0,0)"><path stroke-linecap="round" stroke-linejoin="round" fill-opacity="0" stroke="rgb(32,118,255)" stroke-opacity="1" stroke-width="18" d=" M11,11 C11,11 11,80.06199645996094 11,80.06199645996094"></path></g></g><g style="display: none;" transform="matrix(1.0035185813903809,0,0,1.0035185813903809,331.4924621582031,382.5133056640625)" opacity="1"><g opacity="1" transform="matrix(1,0,0,1,0,0)"><path stroke-linecap="round" stroke-linejoin="round" fill-opacity="0" stroke="rgb(32,118,255)" stroke-opacity="1" stroke-width="18" d=" M26.10700035095215,11.001999855041504 C26.10700035095215,11.001999855041504 26.10700035095215,80.06199645996094 26.10700035095215,80.06199645996094"></path></g><g opacity="1" transform="matrix(1,0,0,1,0,0)"><path stroke-linecap="round" stroke-linejoin="round" fill-opacity="0" stroke="rgb(32,118,255)" stroke-opacity="1" stroke-width="18" d=" M11,11 C11,11 41.21500015258789,11 41.21500015258789,11"></path></g></g><g style="display: none;" transform="matrix(1.0310521125793457,0,0,1.0310521125793457,268.153564453125,262.9954528808594)" opacity="1"><g opacity="1" transform="matrix(1,0,0,1,143.35800170898438,147.6739959716797)"><path stroke-linecap="round" stroke-linejoin="round" fill-opacity="0" stroke="rgb(32,118,255)" stroke-opacity="1" stroke-width="18" d=" M17.266000747680664,-21.582000732421875 C17.266000747680664,-21.582000732421875 17.266000747680664,4.315999984741211 17.266000747680664,4.315999984741211 C17.266000747680664,13.810999870300293 9.496000289916992,21.58099937438965 -0.0010000000474974513,21.58099937438965 C-9.496999740600586,21.58099937438965 -17.266000747680664,13.812000274658203 -17.266000747680664,4.315999984741211 C-17.266000747680664,4.315999984741211 -17.266000747680664,-21.582000732421875 -17.266000747680664,-21.582000732421875"></path></g><g opacity="1" transform="matrix(1,0,0,1,0,0)"><path stroke-linecap="round" stroke-linejoin="round" fill-opacity="0" stroke="rgb(32,118,255)" stroke-opacity="1" stroke-width="18" d=" M143.35899353027344,169.2779998779297 C143.35899353027344,169.2779998779297 143.35899353027344,195.156005859375 143.35899353027344,195.156005859375"></path></g></g></g></svg>