<svg xmlns="http://www.w3.org/2000/svg" xmlns:xlink="http://www.w3.org/1999/xlink" viewBox="0 0 500 500" width="500" height="500" preserveAspectRatio="xMidYMid meet" style="width: 100%; height: 100%; transform: translate3d(0px, 0px, 0px); content-visibility: visible;"><defs><clipPath id="__lottie_element_1216"><rect width="500" height="500" x="0" y="0"></rect></clipPath><g id="__lottie_element_1222"><g transform="matrix(1,0,0,1,249.75,250.07000732421875)" opacity="1" style="display: block;"><path fill="rgb(255,0,0)" fill-opacity="1" d=" M136.1300048828125,-35.30799865722656 C136.1300048828125,-110.52400207519531 75.18199920654297,-171.5 0,-171.5 C-74.75700378417969,-171.5 -135.23399353027344,-111.74400329589844 -136.1199951171875,-36.95899963378906 C-136.90199279785156,29.08300018310547 -90.69300079345703,84.46600341796875 -28.85300064086914,97.81800079345703 C-24.017000198364258,98.86199951171875 -19.868999481201172,101.94599914550781 -17.586999893188477,106.33799743652344 C-17.586999893188477,106.33799743652344 0,140.17999267578125 0,140.17999267578125 C0,140.17999267578125 17.586999893188477,106.33799743652344 17.586999893188477,106.33799743652344 C19.82699966430664,102.0270004272461 23.849000930786133,98.88899993896484 28.597999572753906,97.87300109863281 C90.04900360107422,84.72899627685547 136.1300048828125,30.0939998626709 136.1300048828125,-35.30799865722656z"></path><g opacity="1" transform="matrix(1,0,0,1,0,0)"><path stroke-linecap="round" stroke-linejoin="round" fill-opacity="0" stroke="rgb(32,118,255)" stroke-opacity="1" stroke-width="16" d=" M136.1300048828125,-35.30799865722656 C136.1300048828125,-110.52400207519531 75.18199920654297,-171.5 0,-171.5 C-74.75700378417969,-171.5 -135.23399353027344,-111.74400329589844 -136.1199951171875,-36.95899963378906 C-136.90199279785156,29.08300018310547 -90.69300079345703,84.46600341796875 -28.85300064086914,97.81800079345703 C-24.017000198364258,98.86199951171875 -19.868999481201172,101.94599914550781 -17.586999893188477,106.33799743652344 C-17.586999893188477,106.33799743652344 0,140.17999267578125 0,140.17999267578125 C0,140.17999267578125 17.586999893188477,106.33799743652344 17.586999893188477,106.33799743652344 C19.82699966430664,102.0270004272461 23.849000930786133,98.88899993896484 28.597999572753906,97.87300109863281 C90.04900360107422,84.72899627685547 136.1300048828125,30.0939998626709 136.1300048828125,-35.30799865722656z"></path></g></g></g><g id="__lottie_element_1228"><g transform="matrix(1,0,0,1,249.75,250.07000732421875)" opacity="1" style="display: block;"><path fill="rgb(255,0,0)" fill-opacity="1" d=" M136.1300048828125,-35.30799865722656 C136.1300048828125,-110.52400207519531 75.18199920654297,-171.5 0,-171.5 C-74.75700378417969,-171.5 -135.23399353027344,-111.74400329589844 -136.1199951171875,-36.95899963378906 C-136.90199279785156,29.08300018310547 -90.69300079345703,84.46600341796875 -28.85300064086914,97.81800079345703 C-24.017000198364258,98.86199951171875 -19.868999481201172,101.94599914550781 -17.586999893188477,106.33799743652344 C-17.586999893188477,106.33799743652344 0,140.17999267578125 0,140.17999267578125 C0,140.17999267578125 17.586999893188477,106.33799743652344 17.586999893188477,106.33799743652344 C19.82699966430664,102.0270004272461 23.849000930786133,98.88899993896484 28.597999572753906,97.87300109863281 C90.04900360107422,84.72899627685547 136.1300048828125,30.0939998626709 136.1300048828125,-35.30799865722656z"></path><g opacity="1" transform="matrix(1,0,0,1,0,0)"><path stroke-linecap="round" stroke-linejoin="round" fill-opacity="0" stroke="rgb(32,118,255)" stroke-opacity="1" stroke-width="16" d=" M136.1300048828125,-35.30799865722656 C136.1300048828125,-110.52400207519531 75.18199920654297,-171.5 0,-171.5 C-74.75700378417969,-171.5 -135.23399353027344,-111.74400329589844 -136.1199951171875,-36.95899963378906 C-136.90199279785156,29.08300018310547 -90.69300079345703,84.46600341796875 -28.85300064086914,97.81800079345703 C-24.017000198364258,98.86199951171875 -19.868999481201172,101.94599914550781 -17.586999893188477,106.33799743652344 C-17.586999893188477,106.33799743652344 0,140.17999267578125 0,140.17999267578125 C0,140.17999267578125 17.586999893188477,106.33799743652344 17.586999893188477,106.33799743652344 C19.82699966430664,102.0270004272461 23.849000930786133,98.88899993896484 28.597999572753906,97.87300109863281 C90.04900360107422,84.72899627685547 136.1300048828125,30.0939998626709 136.1300048828125,-35.30799865722656z"></path></g></g></g><g id="__lottie_element_1231"><g transform="matrix(1,0,0,1,249.75,250.07000732421875)" opacity="1" style="display: block;"><path fill="rgb(255,0,0)" fill-opacity="1" d=" M136.1300048828125,-35.30799865722656 C136.1300048828125,-110.52400207519531 75.18199920654297,-171.5 0,-171.5 C-74.75700378417969,-171.5 -135.23399353027344,-111.74400329589844 -136.1199951171875,-36.95899963378906 C-136.90199279785156,29.08300018310547 -90.69300079345703,84.46600341796875 -28.85300064086914,97.81800079345703 C-24.017000198364258,98.86199951171875 -19.868999481201172,101.94599914550781 -17.586999893188477,106.33799743652344 C-17.586999893188477,106.33799743652344 0,140.17999267578125 0,140.17999267578125 C0,140.17999267578125 17.586999893188477,106.33799743652344 17.586999893188477,106.33799743652344 C19.82699966430664,102.0270004272461 23.849000930786133,98.88899993896484 28.597999572753906,97.87300109863281 C90.04900360107422,84.72899627685547 136.1300048828125,30.0939998626709 136.1300048828125,-35.30799865722656z"></path><g opacity="1" transform="matrix(1,0,0,1,0,0)"><path stroke-linecap="round" stroke-linejoin="round" fill-opacity="0" stroke="rgb(32,118,255)" stroke-opacity="1" stroke-width="16" d=" M136.1300048828125,-35.30799865722656 C136.1300048828125,-110.52400207519531 75.18199920654297,-171.5 0,-171.5 C-74.75700378417969,-171.5 -135.23399353027344,-111.74400329589844 -136.1199951171875,-36.95899963378906 C-136.90199279785156,29.08300018310547 -90.69300079345703,84.46600341796875 -28.85300064086914,97.81800079345703 C-24.017000198364258,98.86199951171875 -19.868999481201172,101.94599914550781 -17.586999893188477,106.33799743652344 C-17.586999893188477,106.33799743652344 0,140.17999267578125 0,140.17999267578125 C0,140.17999267578125 17.586999893188477,106.33799743652344 17.586999893188477,106.33799743652344 C19.82699966430664,102.0270004272461 23.849000930786133,98.88899993896484 28.597999572753906,97.87300109863281 C90.04900360107422,84.72899627685547 136.1300048828125,30.0939998626709 136.1300048828125,-35.30799865722656z"></path></g></g></g><filter id="__lottie_element_1237" filterUnits="objectBoundingBox" x="0%" y="0%" width="100%" height="100%"><feComponentTransfer in="SourceGraphic"><feFuncA type="table" tableValues="1.0 0.0"></feFuncA></feComponentTransfer></filter><mask id="__lottie_element_1228_2" mask-type="alpha"><g filter="url(#__lottie_element_1237)"><rect width="500" height="500" x="0" y="0" fill="#ffffff" opacity="0"></rect><use xlink:href="#__lottie_element_1228"></use></g></mask><filter id="__lottie_element_1238" filterUnits="objectBoundingBox" x="0%" y="0%" width="100%" height="100%"><feComponentTransfer in="SourceGraphic"><feFuncA type="table" tableValues="1.0 0.0"></feFuncA></feComponentTransfer></filter><mask id="__lottie_element_1222_2" mask-type="alpha"><g filter="url(#__lottie_element_1238)"><rect width="500" height="500" x="0" y="0" fill="#ffffff" opacity="0"></rect><use xlink:href="#__lottie_element_1222"></use></g></mask><filter id="__lottie_element_1293" filterUnits="objectBoundingBox" x="0%" y="0%" width="100%" height="100%"><feComponentTransfer in="SourceGraphic"><feFuncA type="table" tableValues="1.0 0.0"></feFuncA></feComponentTransfer></filter><mask id="__lottie_element_1231_2" mask-type="alpha"><g filter="url(#__lottie_element_1293)"><rect width="500" height="500" x="0" y="0" fill="#ffffff" opacity="0"></rect><use xlink:href="#__lottie_element_1231"></use></g></mask></defs><g clip-path="url(#__lottie_element_1216)"><g mask="url(#__lottie_element_1222_2)" style="display: block;"><g transform="matrix(1,0,0,1,250,250)" opacity="1"><g opacity="1" transform="matrix(1,0,0,1,0,0)"><path stroke-linecap="round" stroke-linejoin="round" fill-opacity="0" stroke="rgb(0,0,0)" stroke-opacity="1" stroke-width="16" d=" M47.61000061035156,147.375 C47.61000061035156,160.69900512695312 26.29400062561035,171.5 0,171.5 C-26.29400062561035,171.5 -47.61000061035156,160.69900512695312 -47.61000061035156,147.375 C-47.61000061035156,134.05099487304688 -26.29400062561035,123.25 0,123.25 C26.29400062561035,123.25 47.61000061035156,134.05099487304688 47.61000061035156,147.375z"></path></g><g opacity="1" transform="matrix(1,0,0,1,24,-64)"><path stroke-linecap="butt" stroke-linejoin="miter" fill-opacity="0" stroke-miterlimit="4" stroke="rgb(0,0,0)" stroke-opacity="0" stroke-width="16" d=" M690,-574 C690,-574 690,574 690,574 C690,574 -690,574 -690,574 C-690,574 -690,-574 -690,-574 C-690,-574 690,-574 690,-574z"></path></g></g></g><g mask="url(#__lottie_element_1228_2)" style="display: none;"><g transform="matrix(1,0,0,1,250,250)" opacity="0.006854774128396599"><g opacity="1" transform="matrix(1,0,0,1,24,-64)"><path stroke-linecap="butt" stroke-linejoin="miter" fill-opacity="0" stroke-miterlimit="4" stroke="rgb(0,0,0)" stroke-opacity="0" stroke-width="16" d=" M690,-574 C690,-574 690,574 690,574 C690,574 -690,574 -690,574 C-690,574 -690,-574 -690,-574 C-690,-574 690,-574 690,-574z"></path></g><g opacity="1" transform="matrix(1,0,0,1,0,0)"><path stroke-linecap="round" stroke-linejoin="round" fill-opacity="0" stroke="rgb(0,0,0)" stroke-opacity="1" stroke-width="16" d=" M146.62998962402344,147.375 C146.62998962402344,188.4098663330078 80.98180389404297,221.67550659179688 0,221.67550659179688 C-80.98180389404297,221.67550659179688 -146.62998962402344,188.4098663330078 -146.62998962402344,147.375 C-146.62998962402344,106.34014129638672 -80.98180389404297,73.07449340820312 0,73.07449340820312 C80.98180389404297,73.07449340820312 146.62998962402344,106.34014129638672 146.62998962402344,147.375z"></path></g></g></g><g mask="url(#__lottie_element_1231_2)" style="display: none;"><g transform="matrix(1,0,0,1,250,250)" opacity="0.0068264694466395786"><g opacity="1" transform="matrix(1,0,0,1,24,-64)"><path stroke-linecap="butt" stroke-linejoin="miter" fill-opacity="0" stroke-miterlimit="4" stroke="rgb(0,0,0)" stroke-opacity="0" stroke-width="16" d=" M690,-574 C690,-574 690,574 690,574 C690,574 -690,574 -690,574 C-690,574 -690,-574 -690,-574 C-690,-574 690,-574 690,-574z"></path></g><g opacity="1" transform="matrix(1,0,0,1,0,0)"><path stroke-linecap="round" stroke-linejoin="round" fill-opacity="0" stroke="rgb(0,0,0)" stroke-opacity="1" stroke-width="16" d=" M146.63059997558594,147.375 C146.63059997558594,188.4100341796875 80.98214721679688,221.67581176757812 0,221.67581176757812 C-80.98214721679688,221.67581176757812 -146.63059997558594,188.4100341796875 -146.63059997558594,147.375 C-146.63059997558594,106.3399658203125 -80.98214721679688,73.07418060302734 0,73.07418060302734 C80.98214721679688,73.07418060302734 146.63059997558594,106.3399658203125 146.63059997558594,147.375z"></path></g></g></g><g transform="matrix(1,0,0,1,249.75,250.07000732421875)" opacity="1" style="display: block;"><g opacity="1" transform="matrix(1,0,0,1,0,0)"><g opacity="1" transform="matrix(1,0,0,1,0,0)"><path stroke-linecap="round" stroke-linejoin="round" fill-opacity="0" stroke="rgb(0,0,0)" stroke-opacity="1" stroke-width="16" d=" M-32.70500183105469,-94.02899932861328 C-32.70500183105469,-94.02899932861328 -32.70500183105469,-124.24099731445312 -32.70500183105469,-124.24099731445312 C-32.70500183105469,-124.24099731445312 32.70500183105469,-124.24099731445312 32.70500183105469,-124.24099731445312 C32.70500183105469,-124.24099731445312 32.70500183105469,-94.08899688720703 32.70500183105469,-94.08899688720703"></path></g><g opacity="1" transform="matrix(1,0,0,1,0,0)"><path stroke-linecap="round" stroke-linejoin="round" fill-opacity="0" stroke="rgb(0,0,0)" stroke-opacity="1" stroke-width="16" d=" M74.43800354003906,-14.232000350952148 C74.43800354003906,-14.232000350952148 74.43800354003906,30.368999481201172 74.43800354003906,30.368999481201172 C74.43800354003906,38.736000061035156 67.65499877929688,45.51900100708008 59.28799819946289,45.51900100708008 C59.28799819946289,45.51900100708008 -59.28799819946289,45.51900100708008 -59.28799819946289,45.51900100708008 C-67.65499877929688,45.51900100708008 -74.43800354003906,38.736000061035156 -74.43800354003906,30.368999481201172 C-74.43800354003906,30.368999481201172 -74.43800354003906,-12.600000381469727 -74.43800354003906,-12.600000381469727"></path></g><g opacity="1" transform="matrix(1,0,0,1,0,0)"><path stroke-linecap="round" stroke-linejoin="round" fill-opacity="0" stroke="rgb(0,0,0)" stroke-opacity="1" stroke-width="16" d=" M70.91999816894531,-14.232000350952148 C70.91999816894531,-14.232000350952148 -70.91999816894531,-14.232000350952148 -70.91999816894531,-14.232000350952148 C-82.8219985961914,-14.232000350952148 -86.72799682617188,-23.889999389648438 -86.72799682617188,-35.80400085449219 C-86.72799682617188,-35.80400085449219 -86.72799682617188,-79.87000274658203 -86.72799682617188,-79.87000274658203 C-86.72799682617188,-87.68099975585938 -80.4020004272461,-94.01200103759766 -72.5989990234375,-94.01200103759766 C-72.5989990234375,-94.01200103759766 72.5989990234375,-94.01200103759766 72.5989990234375,-94.01200103759766 C80.4020004272461,-94.01200103759766 86.72799682617188,-87.68099975585938 86.72799682617188,-79.87000274658203 C86.72799682617188,-79.87000274658203 86.72799682617188,-35.80400085449219 86.72799682617188,-35.80400085449219 C86.72799682617188,-23.889999389648438 82.8219985961914,-14.232000350952148 70.91999816894531,-14.232000350952148z"></path></g><g opacity="1" transform="matrix(1,0,0,1,0,0)"><g opacity="1" transform="matrix(1,0,0,1,0,0)"><path stroke-linecap="round" stroke-linejoin="round" fill-opacity="0" stroke="rgb(0,0,0)" stroke-opacity="1" stroke-width="16" d=" M33.87799835205078,-29.738000869750977 C33.87799835205078,-29.738000869750977 33.87799835205078,-1.562999963760376 33.87799835205078,-1.562999963760376"></path></g><g opacity="1" transform="matrix(1,0,0,1,0,0)"><path stroke-linecap="round" stroke-linejoin="round" fill-opacity="0" stroke="rgb(0,0,0)" stroke-opacity="1" stroke-width="16" d=" M-33.87799835205078,-29.738000869750977 C-33.87799835205078,-29.738000869750977 -33.87799835205078,-1.562999963760376 -33.87799835205078,-1.562999963760376"></path></g></g></g><g opacity="1" transform="matrix(1,0,0,1,0,0)"><path stroke-linecap="round" stroke-linejoin="round" fill-opacity="0" stroke="rgb(32,118,255)" stroke-opacity="1" stroke-width="16" d=" M136.1300048828125,-35.30799865722656 C136.1300048828125,-110.52400207519531 75.18199920654297,-171.5 0,-171.5 C-74.75700378417969,-171.5 -135.23399353027344,-111.74400329589844 -136.1199951171875,-36.95899963378906 C-136.90199279785156,29.08300018310547 -90.69300079345703,84.46600341796875 -28.85300064086914,97.81800079345703 C-24.017000198364258,98.86199951171875 -19.868999481201172,101.94599914550781 -17.586999893188477,106.33799743652344 C-17.586999893188477,106.33799743652344 0,140.17999267578125 0,140.17999267578125 C0,140.17999267578125 17.586999893188477,106.33799743652344 17.586999893188477,106.33799743652344 C19.82699966430664,102.0270004272461 23.849000930786133,98.88899993896484 28.597999572753906,97.87300109863281 C90.04900360107422,84.72899627685547 136.1300048828125,30.0939998626709 136.1300048828125,-35.30799865722656z"></path></g></g></g></svg>