<svg xmlns="http://www.w3.org/2000/svg" xmlns:xlink="http://www.w3.org/1999/xlink" viewBox="0 0 500 500" width="500" height="500" preserveAspectRatio="xMidYMid meet" style="width: 100%; height: 100%; transform: translate3d(0px, 0px, 0px); content-visibility: visible;"><defs><clipPath id="__lottie_element_1162"><rect width="500" height="500" x="0" y="0"></rect></clipPath></defs><g clip-path="url(#__lottie_element_1162)"><g style="display: block;" transform="matrix(0.9999959468841553,0,0,0.9999959468841553,42.00093078613281,123.25399780273438)" opacity="1"><g opacity="1" transform="matrix(1,0,0,1,207.5290069580078,188.2449951171875)"><path stroke-linecap="round" stroke-linejoin="round" fill-opacity="0" stroke="rgb(0,0,0)" stroke-opacity="1" stroke-width="16" d=" M152.5570068359375,-115.03060150146484 C152.5570068359375,-115.03060150146484 152.5570068359375,-89.97460174560547 152.5570068359375,-89.97460174560547 C152.5570068359375,-37.839603424072266 126.63700103759766,18.172000885009766 86.947998046875,46.132999420166016 C86.947998046875,46.132999420166016 86.947998046875,133.2449951171875 86.947998046875,133.2449951171875 C86.947998046875,133.2449951171875 -88.51399993896484,133.2449951171875 -88.51399993896484,133.2449951171875 C-88.51399993896484,133.2449951171875 -88.51399993896484,45.40399932861328 -88.51399993896484,45.40399932861328 C-127.26200103759766,17.749000549316406 -152.5,-37.086605072021484 -152.5,-88.32760620117188 C-152.5,-88.32760620117188 -152.5,-115.03060150146484 -152.5,-115.03060150146484 C-152.5,-130.33460998535156 -140.08999633789062,-142.74459838867188 -124.7979965209961,-142.74459838867188 C-109.50700378417969,-142.74459838867188 -97.08399963378906,-130.3466033935547 -97.08399963378906,-115.03060150146484 C-97.08399963378906,-115.03060150146484 -97.08399963378906,-87.82260131835938 -97.08399963378906,-87.82260131835938 C-97.08399963378906,-34.207603454589844 -53.625999450683594,18.784000396728516 0.006000000052154064,18.784000396728516 C53.63399887084961,18.784000396728516 97.13999938964844,-34.207603454589844 97.13999938964844,-87.82260131835938 C97.13999938964844,-87.82260131835938 97.13999938964844,-115.03060150146484 97.13999938964844,-115.03060150146484 C97.13999938964844,-130.33460998535156 109.55000305175781,-142.74459838867188 124.84300231933594,-142.74459838867188 C124.84300231933594,-142.74459838867188 124.85399627685547,-142.74459838867188 124.85399627685547,-142.74459838867188 C140.14700317382812,-142.74459838867188 152.5570068359375,-130.33460998535156 152.5570068359375,-115.03060150146484z"></path></g></g><g style="display: block;" transform="matrix(0.9999959468841553,0,0,0.9999959468841553,146.4945068359375,129.97927856445312)" opacity="1"><g opacity="1" transform="matrix(1,0,0,1,102.29100036621094,102.29100036621094)"><path stroke-linecap="round" stroke-linejoin="round" fill-opacity="0" stroke="rgb(0,0,0)" stroke-opacity="1" stroke-width="16" d=" M47.29199981689453,0 C47.29199981689453,26.118000030517578 26.118999481201172,47.29100036621094 0.0010000000474974513,47.29100036621094 C-26.117000579833984,47.29100036621094 -47.29199981689453,26.118000030517578 -47.29199981689453,0 C-47.29199981689453,-26.118000030517578 -26.117000579833984,-47.29100036621094 0.0010000000474974513,-47.29100036621094 C26.118999481201172,-47.29100036621094 47.29199981689453,-26.118000030517578 47.29199981689453,0z"></path></g></g><g style="display: block;" transform="matrix(0.9999959468841553,0,0,0.9999959468841553,-71.60928344726562,-74.81634521484375)" opacity="1"><g opacity="1" transform="matrix(1,0,0,1,36.40599822998047,36.40599822998047)"><path stroke-linecap="round" stroke-linejoin="round" fill-opacity="0" stroke="rgb(0,0,0)" stroke-opacity="1" stroke-width="16" d=" M-25.4060001373291,-25.4060001373291 C-25.4060001373291,-25.4060001373291 25.4060001373291,25.4060001373291 25.4060001373291,25.4060001373291"></path></g></g><g style="display: block;" transform="matrix(0.9999959468841553,0,0,0.9999959468841553,498.0298767089844,-72.81739807128906)" opacity="1"><g opacity="1" transform="matrix(1,0,0,1,36.404998779296875,36.40599822998047)"><path stroke-linecap="round" stroke-linejoin="round" fill-opacity="0" stroke="rgb(0,0,0)" stroke-opacity="1" stroke-width="16" d=" M-25.405000686645508,25.405000686645508 C-25.405000686645508,25.405000686645508 25.405000686645508,-25.405000686645508 25.405000686645508,-25.405000686645508"></path></g></g><g style="display: none;" transform="matrix(0.9999959468841553,0,0,0.9999959468841553,-71.60928344726562,-74.81634521484375)" opacity="1"><g opacity="1" transform="matrix(1,0,0,1,36.40599822998047,36.40599822998047)"><path stroke-linecap="round" stroke-linejoin="round" fill-opacity="0" stroke="rgb(0,0,0)" stroke-opacity="1" stroke-width="16" d=" M-25.4060001373291,-25.4060001373291 C-25.4060001373291,-25.4060001373291 25.4060001373291,25.4060001373291 25.4060001373291,25.4060001373291"></path></g></g><g style="display: none;" transform="matrix(0.9999959468841553,0,0,0.9999959468841553,498.0298767089844,-72.81739807128906)" opacity="1"><g opacity="1" transform="matrix(1,0,0,1,36.404998779296875,36.40599822998047)"><path stroke-linecap="round" stroke-linejoin="round" fill-opacity="0" stroke="rgb(0,0,0)" stroke-opacity="1" stroke-width="16" d=" M-25.405000686645508,25.405000686645508 C-25.405000686645508,25.405000686645508 25.405000686645508,-25.405000686645508 25.405000686645508,-25.405000686645508"></path></g></g><g style="display: block;" transform="matrix(0.9999959468841553,0,0,0.9999959468841553,93.39022827148438,83.18377685546875)" opacity="1"><g opacity="1" transform="matrix(1,0,0,1,36.40599822998047,36.40599822998047)"><path stroke-linecap="round" stroke-linejoin="round" fill-opacity="0" stroke="rgb(0,0,0)" stroke-opacity="1" stroke-width="16" d=" M0.14019449055194855,0.26654118299484253 C0.14019449055194855,0.26654118299484253 25.4060001373291,25.4060001373291 25.4060001373291,25.4060001373291"></path></g></g><g style="display: block;" transform="matrix(0.9999959468841553,0,0,0.9999959468841553,336.0298767089844,83.18278503417969)" opacity="1"><g opacity="1" transform="matrix(1,0,0,1,36.404998779296875,36.40599822998047)"><path stroke-linecap="round" stroke-linejoin="round" fill-opacity="0" stroke="rgb(0,0,0)" stroke-opacity="1" stroke-width="16" d=" M-25.405000686645508,25.405000686645508 C-25.405000686645508,25.405000686645508 -0.2670378088951111,0.2670378088951111 -0.2670378088951111,0.2670378088951111"></path></g></g><g style="display: none;" transform="matrix(0.9999959468841553,0,0,0.9999959468841553,93.39022827148438,83.18377685546875)" opacity="1"><g opacity="1" transform="matrix(1,0,0,1,36.40599822998047,36.40599822998047)"><path stroke-linecap="round" stroke-linejoin="round" fill-opacity="0" stroke="rgb(0,0,0)" stroke-opacity="1" stroke-width="16" d=" M-23.98302459716797,-23.975988388061523 C-23.98302459716797,-23.975988388061523 25.4060001373291,25.4060001373291 25.4060001373291,25.4060001373291"></path></g></g><g style="display: none;" transform="matrix(0.9999959468841553,0,0,0.9999959468841553,336.0298767089844,83.18278503417969)" opacity="1"><g opacity="1" transform="matrix(1,0,0,1,36.404998779296875,36.40599822998047)"><path stroke-linecap="round" stroke-linejoin="round" fill-opacity="0" stroke="rgb(0,0,0)" stroke-opacity="1" stroke-width="16" d=" M-25.405000686645508,25.405000686645508 C-25.405000686645508,25.405000686645508 23.97501564025879,-23.97501564025879 23.97501564025879,-23.97501564025879"></path></g></g><g style="display: block;" transform="matrix(0.9469005465507507,0.0006689855945296586,-0.0006689855945296586,0.9469005465507507,133.45361328125,-11.694419860839844)" opacity="1"><g opacity="1" transform="matrix(1,0,0,1,122.66899871826172,119.35700225830078)"><path stroke-linecap="round" stroke-linejoin="round" fill-opacity="0" stroke="rgb(32,118,255)" stroke-opacity="1" stroke-width="16" d=" M0,-64.35700225830078 C0,-64.35700225830078 24.395999908447266,-27.350000381469727 24.395999908447266,-27.350000381469727 C24.395999908447266,-27.350000381469727 67.66899871826172,-15.192999839782715 67.66899871826172,-15.192999839782715 C67.66899871826172,-15.192999839782715 39.4739990234375,19.05500030517578 39.4739990234375,19.05500030517578 C39.4739990234375,19.05500030517578 41.821998596191406,64.35700225830078 41.821998596191406,64.35700225830078 C41.821998596191406,64.35700225830078 0,47.733001708984375 0,47.733001708984375 C0,47.733001708984375 -41.821998596191406,64.35700225830078 -41.821998596191406,64.35700225830078 C-41.821998596191406,64.35700225830078 -39.4739990234375,19.05500030517578 -39.4739990234375,19.05500030517578 C-39.4739990234375,19.05500030517578 -67.66899871826172,-15.192999839782715 -67.66899871826172,-15.192999839782715 C-67.66899871826172,-15.192999839782715 -24.395999908447266,-27.350000381469727 -24.395999908447266,-27.350000381469727 C-24.395999908447266,-27.350000381469727 0,-64.35700225830078 0,-64.35700225830078z"></path></g></g></g></svg>