<svg xmlns="http://www.w3.org/2000/svg" xmlns:xlink="http://www.w3.org/1999/xlink" viewBox="0 0 500 500" width="500" height="500" preserveAspectRatio="xMidYMid meet" style="width: 100%; height: 100%; transform: translate3d(0px, 0px, 0px); content-visibility: visible;"><defs><clipPath id="__lottie_element_1192"><rect width="500" height="500" x="0" y="0"></rect></clipPath></defs><g clip-path="url(#__lottie_element_1192)"><g transform="matrix(1,0,0,1,250,250)" opacity="1" style="display: block;"><g opacity="1" transform="matrix(1,0,0,1,0,0)"><path stroke-linecap="round" stroke-linejoin="round" fill-opacity="0" stroke="rgb(0,0,0)" stroke-opacity="1" stroke-width="16" d=" M-105.77899932861328,-115.53700256347656 C-105.77899932861328,-101.89099884033203 -116.83999633789062,-90.83000183105469 -130.48599243164062,-90.83000183105469 C-144.1320037841797,-90.83000183105469 -155.19400024414062,-101.89099884033203 -155.19400024414062,-115.53700256347656 C-155.19400024414062,-129.18299865722656 -144.1320037841797,-140.2449951171875 -130.48599243164062,-140.2449951171875 C-116.83999633789062,-140.2449951171875 -105.77899932861328,-129.18299865722656 -105.77899932861328,-115.53700256347656z"></path></g><g opacity="1" transform="matrix(1,0,0,1,0,0)"><path stroke-linecap="round" stroke-linejoin="round" fill-opacity="0" stroke="rgb(0,0,0)" stroke-opacity="1" stroke-width="16" d=" M-87.24800109863281,-35.237998962402344 C-87.24800109863281,-35.237998962402344 -173.7239990234375,-35.237998962402344 -173.7239990234375,-35.237998962402344 C-173.7239990234375,-35.237998962402344 -173.7239990234375,-60.45000076293945 -173.7239990234375,-60.45000076293945 C-173.7239990234375,-77.22799682617188 -160.1219940185547,-90.83000183105469 -143.343994140625,-90.83000183105469 C-143.343994140625,-90.83000183105469 -117.62799835205078,-90.83000183105469 -117.62799835205078,-90.83000183105469 C-100.8499984741211,-90.83000183105469 -87.24800109863281,-77.22799682617188 -87.24800109863281,-60.45000076293945 C-87.24800109863281,-60.45000076293945 -87.24800109863281,-35.237998962402344 -87.24800109863281,-35.237998962402344z"></path></g></g><g transform="matrix(1,0,0,1,250,250)" opacity="1" style="display: block;"><g opacity="1" transform="matrix(1,0,0,1,0,0)"><path stroke-linecap="round" stroke-linejoin="round" fill-opacity="0" stroke="rgb(32,118,255)" stroke-opacity="1" stroke-width="16" d=" M24.707000732421875,-115.53700256347656 C24.707000732421875,-101.89099884033203 13.645999908447266,-90.83000183105469 0,-90.83000183105469 C-13.645999908447266,-90.83000183105469 -24.707000732421875,-101.89099884033203 -24.707000732421875,-115.53700256347656 C-24.707000732421875,-129.18299865722656 -13.645999908447266,-140.2449951171875 0,-140.2449951171875 C13.645999908447266,-140.2449951171875 24.707000732421875,-129.18299865722656 24.707000732421875,-115.53700256347656z"></path></g><g opacity="1" transform="matrix(1,0,0,1,0,0)"><path stroke-linecap="round" stroke-linejoin="round" fill-opacity="0" stroke="rgb(32,118,255)" stroke-opacity="1" stroke-width="16" d=" M43.237998962402344,-35.237998962402344 C43.237998962402344,-35.237998962402344 -43.237998962402344,-35.237998962402344 -43.237998962402344,-35.237998962402344 C-43.237998962402344,-35.237998962402344 -43.237998962402344,-60.45000076293945 -43.237998962402344,-60.45000076293945 C-43.237998962402344,-77.22799682617188 -29.63599967956543,-90.83000183105469 -12.857999801635742,-90.83000183105469 C-12.857999801635742,-90.83000183105469 12.857999801635742,-90.83000183105469 12.857999801635742,-90.83000183105469 C29.63599967956543,-90.83000183105469 43.237998962402344,-77.22799682617188 43.237998962402344,-60.45000076293945 C43.237998962402344,-60.45000076293945 43.237998962402344,-35.237998962402344 43.237998962402344,-35.237998962402344z"></path></g></g><g transform="matrix(1,0,0,1,250,250)" opacity="1" style="display: block;"><g opacity="1" transform="matrix(1,0,0,1,0,0)"><path stroke-linecap="round" stroke-linejoin="round" fill-opacity="0" stroke="rgb(0,0,0)" stroke-opacity="1" stroke-width="16" d=" M154.4219970703125,-115.53700256347656 C154.4219970703125,-101.89099884033203 143.36000061035156,-90.83000183105469 129.71400451660156,-90.83000183105469 C116.06800079345703,-90.83000183105469 105.00700378417969,-101.89099884033203 105.00700378417969,-115.53700256347656 C105.00700378417969,-129.18299865722656 116.06800079345703,-140.2449951171875 129.71400451660156,-140.2449951171875 C143.36000061035156,-140.2449951171875 154.4219970703125,-129.18299865722656 154.4219970703125,-115.53700256347656z"></path></g><g opacity="1" transform="matrix(1,0,0,1,0,0)"><path stroke-linecap="round" stroke-linejoin="round" fill-opacity="0" stroke="rgb(0,0,0)" stroke-opacity="1" stroke-width="16" d=" M172.95199584960938,-35.237998962402344 C172.95199584960938,-35.237998962402344 86.47599792480469,-35.237998962402344 86.47599792480469,-35.237998962402344 C86.47599792480469,-35.237998962402344 86.47599792480469,-60.45000076293945 86.47599792480469,-60.45000076293945 C86.47599792480469,-77.22799682617188 100.0780029296875,-90.83000183105469 116.85600280761719,-90.83000183105469 C116.85600280761719,-90.83000183105469 142.57200622558594,-90.83000183105469 142.57200622558594,-90.83000183105469 C159.35000610351562,-90.83000183105469 172.95199584960938,-77.22799682617188 172.95199584960938,-60.45000076293945 C172.95199584960938,-60.45000076293945 172.95199584960938,-35.237998962402344 172.95199584960938,-35.237998962402344z"></path></g></g><g transform="matrix(1,0,0,1,250,250)" opacity="1" style="display: block;"><g opacity="1" transform="matrix(1,0,0,1,0,0)"><path stroke-linecap="round" stroke-linejoin="round" fill-opacity="0" stroke="rgb(32,118,255)" stroke-opacity="1" stroke-width="16" d=" M-105.77899932861328,75.94599914550781 C-105.77899932861328,89.59200286865234 -116.83999633789062,100.65299987792969 -130.48599243164062,100.65299987792969 C-144.1320037841797,100.65299987792969 -155.19400024414062,89.59200286865234 -155.19400024414062,75.94599914550781 C-155.19400024414062,62.29999923706055 -144.1320037841797,51.237998962402344 -130.48599243164062,51.237998962402344 C-116.83999633789062,51.237998962402344 -105.77899932861328,62.29999923706055 -105.77899932861328,75.94599914550781z"></path></g><g opacity="1" transform="matrix(1,0,0,1,0,0)"><path stroke-linecap="round" stroke-linejoin="round" fill-opacity="0" stroke="rgb(32,118,255)" stroke-opacity="1" stroke-width="16" d=" M-87.24800109863281,156.2449951171875 C-87.24800109863281,156.2449951171875 -173.7239990234375,156.2449951171875 -173.7239990234375,156.2449951171875 C-173.7239990234375,156.2449951171875 -173.7239990234375,131.0330047607422 -173.7239990234375,131.0330047607422 C-173.7239990234375,114.25499725341797 -160.1219940185547,100.65299987792969 -143.343994140625,100.65299987792969 C-143.343994140625,100.65299987792969 -117.62799835205078,100.65299987792969 -117.62799835205078,100.65299987792969 C-100.8499984741211,100.65299987792969 -87.24800109863281,114.25499725341797 -87.24800109863281,131.0330047607422 C-87.24800109863281,131.0330047607422 -87.24800109863281,156.2449951171875 -87.24800109863281,156.2449951171875z"></path></g></g><g transform="matrix(1,0,0,1,250,250)" opacity="1" style="display: block;"><g opacity="1" transform="matrix(1,0,0,1,0,0)"><path stroke-linecap="round" stroke-linejoin="round" fill-opacity="0" stroke="rgb(0,0,0)" stroke-opacity="1" stroke-width="16" d=" M24.707000732421875,75.94599914550781 C24.707000732421875,89.59200286865234 13.645999908447266,100.65299987792969 0,100.65299987792969 C-13.645999908447266,100.65299987792969 -24.707000732421875,89.59200286865234 -24.707000732421875,75.94599914550781 C-24.707000732421875,62.29999923706055 -13.645999908447266,51.237998962402344 0,51.237998962402344 C13.645999908447266,51.237998962402344 24.707000732421875,62.29999923706055 24.707000732421875,75.94599914550781z"></path></g><g opacity="1" transform="matrix(1,0,0,1,0,0)"><path stroke-linecap="round" stroke-linejoin="round" fill-opacity="0" stroke="rgb(0,0,0)" stroke-opacity="1" stroke-width="16" d=" M43.237998962402344,156.2449951171875 C43.237998962402344,156.2449951171875 -43.237998962402344,156.2449951171875 -43.237998962402344,156.2449951171875 C-43.237998962402344,156.2449951171875 -43.237998962402344,131.0330047607422 -43.237998962402344,131.0330047607422 C-43.237998962402344,114.25499725341797 -29.63599967956543,100.65299987792969 -12.857999801635742,100.65299987792969 C-12.857999801635742,100.65299987792969 12.857999801635742,100.65299987792969 12.857999801635742,100.65299987792969 C29.63599967956543,100.65299987792969 43.237998962402344,114.25499725341797 43.237998962402344,131.0330047607422 C43.237998962402344,131.0330047607422 43.237998962402344,156.2449951171875 43.237998962402344,156.2449951171875z"></path></g></g><g transform="matrix(1,0,0,1,250,250)" opacity="1" style="display: block;"><g opacity="1" transform="matrix(1,0,0,1,0,0)"><path stroke-linecap="round" stroke-linejoin="round" fill-opacity="0" stroke="rgb(32,118,255)" stroke-opacity="1" stroke-width="16" d=" M154.4219970703125,75.94599914550781 C154.4219970703125,89.59200286865234 143.36000061035156,100.65299987792969 129.71400451660156,100.65299987792969 C116.06800079345703,100.65299987792969 105.00700378417969,89.59200286865234 105.00700378417969,75.94599914550781 C105.00700378417969,62.29999923706055 116.06800079345703,51.237998962402344 129.71400451660156,51.237998962402344 C143.36000061035156,51.237998962402344 154.4219970703125,62.29999923706055 154.4219970703125,75.94599914550781z"></path></g><g opacity="1" transform="matrix(1,0,0,1,0,0)"><path stroke-linecap="round" stroke-linejoin="round" fill-opacity="0" stroke="rgb(32,118,255)" stroke-opacity="1" stroke-width="16" d=" M172.95199584960938,156.2449951171875 C172.95199584960938,156.2449951171875 86.47599792480469,156.2449951171875 86.47599792480469,156.2449951171875 C86.47599792480469,156.2449951171875 86.47599792480469,131.0330047607422 86.47599792480469,131.0330047607422 C86.47599792480469,114.25499725341797 100.0780029296875,100.65299987792969 116.85600280761719,100.65299987792969 C116.85600280761719,100.65299987792969 142.57200622558594,100.65299987792969 142.57200622558594,100.65299987792969 C159.35000610351562,100.65299987792969 172.95199584960938,114.25499725341797 172.95199584960938,131.0330047607422 C172.95199584960938,131.0330047607422 172.95199584960938,156.2449951171875 172.95199584960938,156.2449951171875z"></path></g></g><g transform="matrix(1,0,0,1,250,250)" opacity="1" style="display: block;"><g opacity="1" transform="matrix(1,0,0,1,0,0)"><path stroke-linecap="round" stroke-linejoin="round" fill-opacity="0" stroke="rgb(0,0,0)" stroke-opacity="1" stroke-width="16" d=" M-186.0780029296875,8 C-186.0780029296875,8 186.0780029296875,8 186.0780029296875,8"></path></g></g></g></svg>