<svg xmlns="http://www.w3.org/2000/svg" xmlns:xlink="http://www.w3.org/1999/xlink" viewBox="0 0 500 500" width="500" height="500" preserveAspectRatio="xMidYMid meet" style="width: 100%; height: 100%; transform: translate3d(0px, 0px, 0px); content-visibility: visible;"><defs><clipPath id="__lottie_element_1180"><rect width="500" height="500" x="0" y="0"></rect></clipPath></defs><g clip-path="url(#__lottie_element_1180)"><g transform="matrix(1,0,0,1,250,157.2270050048828)" opacity="1" style="display: block;"><g opacity="1" transform="matrix(1,0,0,1,0,0)"><path stroke-linecap="round" stroke-linejoin="round" fill-opacity="0" stroke="rgb(0,0,0)" stroke-opacity="1" stroke-width="16" d=" M5.739999771118164,-34.78799819946289 C5.739999771118164,-34.78799819946289 13.1850004196167,-19.701000213623047 13.1850004196167,-19.701000213623047 C14.116999626159668,-17.812000274658203 15.920000076293945,-16.503000259399414 18.0049991607666,-16.200000762939453 C18.0049991607666,-16.200000762939453 34.65399932861328,-13.781000137329102 34.65399932861328,-13.781000137329102 C39.90399932861328,-13.017999649047852 42,-6.565999984741211 38.20100021362305,-2.86299991607666 C38.20100021362305,-2.86299991607666 26.15399932861328,8.880000114440918 26.15399932861328,8.880000114440918 C24.645000457763672,10.350000381469727 23.957000732421875,12.470000267028809 24.312999725341797,14.545999526977539 C24.312999725341797,14.545999526977539 27.156999588012695,31.128000259399414 27.156999588012695,31.128000259399414 C28.054000854492188,36.356998443603516 22.56599998474121,40.34400177001953 17.8700008392334,37.875 C17.8700008392334,37.875 2.9779999256134033,30.04599952697754 2.9779999256134033,30.04599952697754 C1.1130000352859497,29.06599998474121 -1.1130000352859497,29.06599998474121 -2.9779999256134033,30.04599952697754 C-2.9779999256134033,30.04599952697754 -17.8700008392334,37.875 -17.8700008392334,37.875 C-22.56599998474121,40.34400177001953 -28.054000854492188,36.356998443603516 -27.156999588012695,31.128000259399414 C-27.156999588012695,31.128000259399414 -24.312999725341797,14.545999526977539 -24.312999725341797,14.545999526977539 C-23.957000732421875,12.470000267028809 -24.645000457763672,10.350000381469727 -26.15399932861328,8.880000114440918 C-26.15399932861328,8.880000114440918 -38.20100021362305,-2.86299991607666 -38.20100021362305,-2.86299991607666 C-42,-6.565999984741211 -39.90399932861328,-13.017999649047852 -34.65399932861328,-13.781000137329102 C-34.65399932861328,-13.781000137329102 -18.0049991607666,-16.200000762939453 -18.0049991607666,-16.200000762939453 C-15.920000076293945,-16.503000259399414 -14.116999626159668,-17.812000274658203 -13.1850004196167,-19.701000213623047 C-13.1850004196167,-19.701000213623047 -5.739999771118164,-34.78799819946289 -5.739999771118164,-34.78799819946289 C-3.3919999599456787,-39.54499816894531 3.3919999599456787,-39.54499816894531 5.739999771118164,-34.78799819946289z"></path></g></g><g transform="matrix(1,0,0,1,0,0)" opacity="1" style="display: block;"><g opacity="1" transform="matrix(1,0,0,1,128.23500061035156,93.44499969482422)"><g opacity="1" transform="matrix(1,0,0,1,0,0)"><path stroke-linecap="round" stroke-linejoin="round" fill-opacity="0" stroke="rgb(32,118,255)" stroke-opacity="1" stroke-width="16" d=" M27.99799919128418,39.19499969482422 C25.030000686645508,39.19499969482422 22.062000274658203,38.0629997253418 19.79800033569336,35.79800033569336 C19.79800033569336,35.79800033569336 1.2844314575195312,17.455480575561523 1.2844314575195312,17.455480575561523 C-3.2445685863494873,12.926481246948242 -3.2445685863494873,5.584481239318848 1.2844314575195312,1.055481195449829 C5.813431262969971,-3.4735188484191895 13.154858589172363,-3.4735188484191895 17.68385887145996,1.055481195449829 C17.68385887145996,1.055481195449829 36.198001861572266,19.39900016784668 36.198001861572266,19.39900016784668 C40.72700119018555,23.92799949645996 40.72700119018555,31.268999099731445 36.198001861572266,35.79800033569336 C33.933998107910156,38.0629997253418 30.965999603271484,39.19499969482422 27.99799919128418,39.19499969482422z"></path></g></g><g opacity="1" transform="matrix(1,0,0,1,371.7650146484375,93.44499969482422)"><g opacity="1" transform="matrix(1,0,0,1,0,0)"><path stroke-linecap="round" stroke-linejoin="round" fill-opacity="0" stroke="rgb(32,118,255)" stroke-opacity="1" stroke-width="16" d=" M-28.097999572753906,40.095001220703125 C-25.1299991607666,40.095001220703125 -22.16200065612793,38.9630012512207 -19.898000717163086,36.698001861572266 C-19.898000717163086,36.698001861572266 -0.7692933082580566,17.398242950439453 -0.7692933082580566,17.398242950439453 C3.759706735610962,12.869243621826172 3.759706735610962,5.527243614196777 -0.7692933082580566,0.9982435703277588 C-5.298293113708496,-3.5307564735412598 -12.64029312133789,-3.5307564735412598 -17.169292449951172,0.9982435703277588 C-17.169292449951172,0.9982435703277588 -36.29800033569336,20.29800033569336 -36.29800033569336,20.29800033569336 C-40.82699966430664,24.82699966430664 -40.82699966430664,32.16899871826172 -36.29800033569336,36.698001861572266 C-34.034000396728516,38.9630012512207 -31.06599998474121,40.095001220703125 -28.097999572753906,40.095001220703125z"></path></g></g><g opacity="1" transform="matrix(1,0,0,1,371.7650146484375,290.5880126953125)"><g opacity="1" transform="matrix(1,0,0,1,0,0)"><path stroke-linecap="round" stroke-linejoin="round" fill-opacity="0" stroke="rgb(32,118,255)" stroke-opacity="1" stroke-width="16" d=" M-29.597999572753906,-41.595001220703125 C-26.6299991607666,-41.595001220703125 -23.663000106811523,-40.4630012512207 -21.39900016784668,-38.198001861572266 C-21.39900016784668,-38.198001861572266 -1.341668963432312,-17.970619201660156 -1.341668963432312,-17.970619201660156 C3.187330961227417,-13.441618919372559 3.187330961227417,-6.099619388580322 -1.341668963432312,-1.5706193447113037 C-5.870668888092041,2.958380699157715 -13.212669372558594,2.958380699157715 -17.741668701171875,-1.5706193447113037 C-17.741668701171875,-1.5706193447113037 -37.79800033569336,-21.79800033569336 -37.79800033569336,-21.79800033569336 C-42.32699966430664,-26.32699966430664 -42.32699966430664,-33.66899871826172 -37.79800033569336,-38.198001861572266 C-35.534000396728516,-40.4630012512207 -32.566001892089844,-41.595001220703125 -29.597999572753906,-41.595001220703125z"></path></g></g><g opacity="1" transform="matrix(1,0,0,1,128.23500061035156,290.5880126953125)"><g opacity="1" transform="matrix(1,0,0,1,0,0)"><path stroke-linecap="round" stroke-linejoin="round" fill-opacity="0" stroke="rgb(32,118,255)" stroke-opacity="1" stroke-width="16" d=" M31.49799919128418,-42.69499969482422 C28.530000686645508,-42.69499969482422 25.562000274658203,-41.5629997253418 23.29800033569336,-39.29800033569336 C23.29800033569336,-39.29800033569336 4.146309852600098,-20.317359924316406 4.146309852600098,-20.317359924316406 C-0.3826900124549866,-15.788359642028809 -0.3826900124549866,-8.446359634399414 4.146309852600098,-3.9173595905303955 C8.675310134887695,0.6116402745246887 16.01673698425293,0.6116402745246887 20.545738220214844,-3.9173595905303955 C20.545738220214844,-3.9173595905303955 39.698001861572266,-22.89900016784668 39.698001861572266,-22.89900016784668 C44.22700119018555,-27.42799949645996 44.22700119018555,-34.76900100708008 39.698001861572266,-39.29800033569336 C37.433998107910156,-41.5629997253418 34.465999603271484,-42.69499969482422 31.49799919128418,-42.69499969482422z"></path></g></g><g opacity="1" transform="matrix(1,0,0,1,105.04100036621094,192.01699829101562)"><g opacity="1" transform="matrix(1,0,0,1,0,0)"><path stroke-linecap="round" stroke-linejoin="round" fill-opacity="0" stroke="rgb(32,118,255)" stroke-opacity="1" stroke-width="16" d=" M35.79800033569336,11.192999839782715 C35.79800033569336,11.192999839782715 13.090398788452148,11.36575984954834 13.090398788452148,11.36575984954834 C6.685398578643799,11.36575984954834 1.4933984279632568,6.174332618713379 1.4933984279632568,-0.23066741228103638 C1.4933984279632568,-6.635667324066162 6.685398578643799,-11.827667236328125 13.090398788452148,-11.827667236328125 C13.090398788452148,-11.827667236328125 35.79800033569336,-12 35.79800033569336,-12 C42.202999114990234,-12 47.39500045776367,-6.808000087738037 47.39500045776367,-0.40299999713897705 C47.39500045776367,6.001999855041504 42.202999114990234,11.192999839782715 35.79800033569336,11.192999839782715z"></path></g></g><g opacity="1" transform="matrix(1,0,0,1,394.9580078125,192.01699829101562)"><g opacity="1" transform="matrix(1,0,0,1,0,0)"><path stroke-linecap="round" stroke-linejoin="round" fill-opacity="0" stroke="rgb(32,118,255)" stroke-opacity="1" stroke-width="16" d=" M-10.228519439697266,11.36575984954834 C-10.228519439697266,11.36575984954834 -37.79800033569336,11.192999839782715 -37.79800033569336,11.192999839782715 C-44.202999114990234,11.192999839782715 -49.39500045776367,6.001999855041504 -49.39500045776367,-0.40299999713897705 C-49.39500045776367,-6.808000087738037 -44.202999114990234,-12 -37.79800033569336,-12 C-37.79800033569336,-12 -10.228519439697266,-11.827667236328125 -10.228519439697266,-11.827667236328125 C-3.8235199451446533,-11.827667236328125 1.3684800863265991,-6.635667324066162 1.3684800863265991,-0.23066741228103638 C1.3684800863265991,6.174332618713379 -3.8235199451446533,11.36575984954834 -10.228519439697266,11.36575984954834z"></path></g></g></g><g transform="matrix(1,0,0,1,0,0)" opacity="1" style="display: none;"><g opacity="1" transform="matrix(1,0,0,1,128.23500061035156,93.44499969482422)"><g opacity="1" transform="matrix(1,0,0,1,0,0)"><path stroke-linecap="round" stroke-linejoin="round" fill-opacity="0" stroke="rgb(32,118,255)" stroke-opacity="1" stroke-width="16" d=" M5.797999858856201,17.395000457763672 C2.8299999237060547,17.395000457763672 -0.1379999965429306,16.26300048828125 -2.4019999504089355,13.998000144958496 C-2.4019999504089355,13.998000144958496 -13.998000144958496,2.4019999504089355 -13.998000144958496,2.4019999504089355 C-18.527000427246094,-2.127000093460083 -18.527000427246094,-9.468999862670898 -13.998000144958496,-13.998000144958496 C-9.468999862670898,-18.527000427246094 -2.127000093460083,-18.527000427246094 2.4019999504089355,-13.998000144958496 C2.4019999504089355,-13.998000144958496 13.998000144958496,-2.4010000228881836 13.998000144958496,-2.4010000228881836 C18.527000427246094,2.128000020980835 18.527000427246094,9.468999862670898 13.998000144958496,13.998000144958496 C11.734000205993652,16.26300048828125 8.765999794006348,17.395000457763672 5.797999858856201,17.395000457763672z"></path></g></g><g opacity="1" transform="matrix(1,0,0,1,371.7650146484375,93.44499969482422)"><g opacity="1" transform="matrix(1,0,0,1,0,0)"><path stroke-linecap="round" stroke-linejoin="round" fill-opacity="0" stroke="rgb(32,118,255)" stroke-opacity="1" stroke-width="16" d=" M-5.797999858856201,17.395000457763672 C-2.8299999237060547,17.395000457763672 0.1379999965429306,16.26300048828125 2.4019999504089355,13.998000144958496 C2.4019999504089355,13.998000144958496 13.998000144958496,2.4019999504089355 13.998000144958496,2.4019999504089355 C18.527000427246094,-2.127000093460083 18.527000427246094,-9.468999862670898 13.998000144958496,-13.998000144958496 C9.468999862670898,-18.527000427246094 2.127000093460083,-18.527000427246094 -2.4019999504089355,-13.998000144958496 C-2.4019999504089355,-13.998000144958496 -13.998000144958496,-2.4010000228881836 -13.998000144958496,-2.4010000228881836 C-18.527000427246094,2.128000020980835 -18.527000427246094,9.468999862670898 -13.998000144958496,13.998000144958496 C-11.734000205993652,16.26300048828125 -8.765999794006348,17.395000457763672 -5.797999858856201,17.395000457763672z"></path></g></g><g opacity="1" transform="matrix(1,0,0,1,371.7650146484375,290.5880126953125)"><g opacity="1" transform="matrix(1,0,0,1,0,0)"><path stroke-linecap="round" stroke-linejoin="round" fill-opacity="0" stroke="rgb(32,118,255)" stroke-opacity="1" stroke-width="16" d=" M-5.797999858856201,-17.395000457763672 C-2.8299999237060547,-17.395000457763672 0.1379999965429306,-16.26300048828125 2.4019999504089355,-13.998000144958496 C2.4019999504089355,-13.998000144958496 13.998000144958496,-2.4019999504089355 13.998000144958496,-2.4019999504089355 C18.527000427246094,2.127000093460083 18.527000427246094,9.468999862670898 13.998000144958496,13.998000144958496 C9.468999862670898,18.527000427246094 2.127000093460083,18.527000427246094 -2.4019999504089355,13.998000144958496 C-2.4019999504089355,13.998000144958496 -13.998000144958496,2.4019999504089355 -13.998000144958496,2.4019999504089355 C-18.527000427246094,-2.127000093460083 -18.527000427246094,-9.468999862670898 -13.998000144958496,-13.998000144958496 C-11.734000205993652,-16.26300048828125 -8.765999794006348,-17.395000457763672 -5.797999858856201,-17.395000457763672z"></path></g></g><g opacity="1" transform="matrix(1,0,0,1,128.23500061035156,290.5880126953125)"><g opacity="1" transform="matrix(1,0,0,1,0,0)"><path stroke-linecap="round" stroke-linejoin="round" fill-opacity="0" stroke="rgb(32,118,255)" stroke-opacity="1" stroke-width="16" d=" M5.797999858856201,-17.395000457763672 C2.8299999237060547,-17.395000457763672 -0.1379999965429306,-16.26300048828125 -2.4019999504089355,-13.998000144958496 C-2.4019999504089355,-13.998000144958496 -13.998000144958496,-2.4019999504089355 -13.998000144958496,-2.4019999504089355 C-18.527000427246094,2.127000093460083 -18.527000427246094,9.468999862670898 -13.998000144958496,13.998000144958496 C-9.468999862670898,18.527000427246094 -2.127000093460083,18.527000427246094 2.4019999504089355,13.998000144958496 C2.4019999504089355,13.998000144958496 13.998000144958496,2.4019999504089355 13.998000144958496,2.4019999504089355 C18.527000427246094,-2.127000093460083 18.527000427246094,-9.468999862670898 13.998000144958496,-13.998000144958496 C11.734000205993652,-16.26300048828125 8.765999794006348,-17.395000457763672 5.797999858856201,-17.395000457763672z"></path></g></g><g opacity="1" transform="matrix(1,0,0,1,105.04100036621094,192.01699829101562)"><g opacity="1" transform="matrix(1,0,0,1,0,0)"><path stroke-linecap="round" stroke-linejoin="round" fill-opacity="0" stroke="rgb(32,118,255)" stroke-opacity="1" stroke-width="16" d=" M5.797999858856201,11.597000122070312 C5.797999858856201,11.597000122070312 -5.797999858856201,11.597000122070312 -5.797999858856201,11.597000122070312 C-12.20300006866455,11.597000122070312 -17.395000457763672,6.40500020980835 -17.395000457763672,0 C-17.395000457763672,-6.40500020980835 -12.20300006866455,-11.597000122070312 -5.797999858856201,-11.597000122070312 C-5.797999858856201,-11.597000122070312 5.797999858856201,-11.597000122070312 5.797999858856201,-11.597000122070312 C12.20300006866455,-11.597000122070312 17.395000457763672,-6.40500020980835 17.395000457763672,0 C17.395000457763672,6.40500020980835 12.20300006866455,11.597000122070312 5.797999858856201,11.597000122070312z"></path></g></g><g opacity="1" transform="matrix(1,0,0,1,394.9580078125,192.01699829101562)"><g opacity="1" transform="matrix(1,0,0,1,0,0)"><path stroke-linecap="round" stroke-linejoin="round" fill-opacity="0" stroke="rgb(32,118,255)" stroke-opacity="1" stroke-width="16" d=" M5.797999858856201,11.597000122070312 C5.797999858856201,11.597000122070312 -5.797999858856201,11.597000122070312 -5.797999858856201,11.597000122070312 C-12.20300006866455,11.597000122070312 -17.395000457763672,6.40500020980835 -17.395000457763672,0 C-17.395000457763672,-6.40500020980835 -12.20300006866455,-11.597000122070312 -5.797999858856201,-11.597000122070312 C-5.797999858856201,-11.597000122070312 5.797999858856201,-11.597000122070312 5.797999858856201,-11.597000122070312 C12.20300006866455,-11.597000122070312 17.395000457763672,-6.40500020980835 17.395000457763672,0 C17.395000457763672,6.40500020980835 12.20300006866455,11.597000122070312 5.797999858856201,11.597000122070312z"></path></g></g></g><g transform="matrix(1,0,0,1,0,62.874786376953125)" opacity="1" style="display: block;"><g opacity="1" transform="matrix(1,0,0,1,273.1929931640625,270.29400634765625)"><path stroke-linecap="round" stroke-linejoin="round" fill-opacity="0" stroke="rgb(0,0,0)" stroke-opacity="1" stroke-width="16" d=" M14.496000289916992,-17.395000457763672 C14.496000289916992,-25.400999069213867 8.005999565124512,-31.891000747680664 0,-31.891000747680664 C-8.005999565124512,-31.891000747680664 -14.496000289916992,-25.400999069213867 -14.496000289916992,-17.395000457763672 C-14.496000289916992,-14.126999855041504 -14.496000289916992,14.126999855041504 -14.496000289916992,17.395000457763672 C-14.496000289916992,25.400999069213867 -8.005999565124512,31.891000747680664 0,31.891000747680664 C8.005999565124512,31.891000747680664 14.496000289916992,25.400999069213867 14.496000289916992,17.395000457763672 C14.496000289916992,14.126999855041504 14.496000289916992,-14.126999855041504 14.496000289916992,-17.395000457763672z"></path></g><g opacity="1" transform="matrix(1,0,0,1,302.18499755859375,278.99200439453125)"><path stroke-linecap="round" stroke-linejoin="round" fill-opacity="0" stroke="rgb(0,0,0)" stroke-opacity="1" stroke-width="16" d=" M14.496000289916992,-8.697999954223633 C14.496000289916992,-16.70400047302246 8.005999565124512,-23.19300079345703 0,-23.19300079345703 C-8.005999565124512,-23.19300079345703 -14.496000289916992,-16.70400047302246 -14.496000289916992,-8.697999954223633 C-14.496000289916992,-5.429999828338623 -14.496000289916992,5.428999900817871 -14.496000289916992,8.696999549865723 C-14.496000289916992,16.702999114990234 -8.005999565124512,23.19300079345703 0,23.19300079345703 C8.005999565124512,23.19300079345703 14.496000289916992,16.702999114990234 14.496000289916992,8.696999549865723 C14.496000289916992,5.428999900817871 14.496000289916992,-5.429999828338623 14.496000289916992,-8.697999954223633z"></path></g><g opacity="1" transform="matrix(1,0,0,1,250,351.47100830078125)"><path stroke-linecap="round" stroke-linejoin="round" fill-opacity="0" stroke="rgb(0,0,0)" stroke-opacity="1" stroke-width="16" d=" M-31.891000747680664,-37.68899917602539 C-31.891000747680664,-37.68899917602539 -14.262999534606934,-40.207000732421875 -14.262999534606934,-40.207000732421875 C-1.0889999866485596,-42.0890007019043 8.696999549865723,-53.37300109863281 8.696999549865723,-66.68099975585938 C8.696999549865723,-66.68099975585938 8.696999549865723,-66.68099975585938 8.696999549865723,-66.68099975585938 C8.696999549865723,-69.88300323486328 6.10099983215332,-72.47899627685547 2.8989999294281006,-72.47899627685547 C2.8989999294281006,-72.47899627685547 -39.38199996948242,-72.47899627685547 -39.38199996948242,-72.47899627685547 C-48.86600112915039,-72.47899627685547 -57.39400100708008,-66.70600128173828 -60.91600036621094,-57.900001525878906 C-60.91600036621094,-57.900001525878906 -62.36899948120117,-54.268001556396484 -62.36899948120117,-54.268001556396484 C-65.21800231933594,-47.145999908447266 -66.68099975585938,-39.54600143432617 -66.68099975585938,-31.875999450683594 C-66.68099975585938,-31.875999450683594 -66.68099975585938,-31.875999450683594 -66.68099975585938,-31.875999450683594 C-66.68099975585938,-27.06100082397461 -66.13700103759766,-22.305999755859375 -64.99700164794922,-17.725000381469727 C-61.74399948120117,-4.6529998779296875 -55.61399841308594,6.46999979019165 -44.053001403808594,15.20300006866455 C-44.053001403808594,15.20300006866455 -42.04100036621094,16.812000274658203 -42.04100036621094,16.812000274658203 C-39.290000915527344,19.01300048828125 -37.68899917602539,22.344999313354492 -37.68899917602539,25.868000030517578 C-37.68899917602539,25.868000030517578 -37.68899917602539,66.68099975585938 -37.68899917602539,66.68099975585938 C-37.68899917602539,69.88300323486328 -35.09299850463867,72.47899627685547 -31.891000747680664,72.47899627685547 C-31.891000747680664,72.47899627685547 31.891000747680664,72.47899627685547 31.891000747680664,72.47899627685547 C35.09299850463867,72.47899627685547 37.68899917602539,69.88300323486328 37.68899917602539,66.68099975585938 C37.68899917602539,66.68099975585938 37.68899917602539,31.666000366210938 37.68899917602539,31.666000366210938 C37.68899917602539,28.14299964904785 39.29100036621094,24.812000274658203 42.04199981689453,22.611000061035156 C42.04199981689453,22.611000061035156 42.04199981689453,22.611000061035156 42.04199981689453,22.611000061035156 C57.61600112915039,10.152000427246094 66.68099975585938,-8.710000038146973 66.68099975585938,-28.65399932861328 C66.68099975585938,-28.65399932861328 66.68099975585938,-66.68099975585938 66.68099975585938,-66.68099975585938"></path></g><g opacity="1" transform="matrix(1,0,0,1,246.60800170898438,330.0039978027344)"><path stroke-linecap="round" stroke-linejoin="round" fill-opacity="0" stroke="rgb(0,0,0)" stroke-opacity="1" stroke-width="16" d=" M-12.08899974822998,-18.566999435424805 C2.1530001163482666,-12.263999938964844 12.08899974822998,1.9910000562667847 12.08899974822998,18.566999435424805"></path></g><g opacity="1" transform="matrix(1,0,0,1,0,0)"><g opacity="1" transform="matrix(1,0,0,1,244.20199584960938,261.59698486328125)"><path stroke-linecap="round" stroke-linejoin="round" fill-opacity="0" stroke="rgb(0,0,0)" stroke-opacity="1" stroke-width="16" d=" M14.496000289916992,23.19300079345703 C14.496000289916992,19.924999237060547 14.496000289916992,-5.429999828338623 14.496000289916992,-8.697999954223633 C14.496000289916992,-16.70400047302246 8.005999565124512,-23.19300079345703 0,-23.19300079345703 C-8.005999565124512,-23.19300079345703 -14.496000289916992,-16.70400047302246 -14.496000289916992,-8.697999954223633 C-14.496000289916992,-5.429999828338623 -14.496000289916992,14.126999855041504 -14.496000289916992,17.395000457763672"></path></g><g opacity="1" transform="matrix(1,0,0,1,215.2100067138672,261.9620056152344)"><path stroke-linecap="round" stroke-linejoin="round" fill-opacity="0" stroke="rgb(0,0,0)" stroke-opacity="1" stroke-width="16" d=" M14.496000289916992,17.030000686645508 C14.496000289916992,13.76200008392334 14.496000289916992,0.004000000189989805 14.496000289916992,-3.2639999389648438 C14.496000289916992,-11.270000457763672 8.005999565124512,-17.760000228881836 0,-17.760000228881836 C-8.005999565124512,-17.760000228881836 -14.496000289916992,-11.270000457763672 -14.496000289916992,-3.2639999389648438 C-14.496000289916992,0.004000000189989805 -14.496000289916992,14.491999626159668 -14.496000289916992,17.760000228881836"></path></g></g></g></g></svg>