<svg xmlns="http://www.w3.org/2000/svg" xmlns:xlink="http://www.w3.org/1999/xlink" viewBox="0 0 500 500" width="500" height="500" preserveAspectRatio="xMidYMid meet" style="width: 100%; height: 100%; transform: translate3d(0px, 0px, 0px); content-visibility: visible;"><defs><clipPath id="__lottie_element_609"><rect width="500" height="500" x="0" y="0"></rect></clipPath></defs><g clip-path="url(#__lottie_element_609)"><g style="display: block;" transform="matrix(1,0,0,1,296.6549987792969,379.1300048828125)" opacity="1"><g opacity="1" transform="matrix(1,0,0,1,0,0)"><path stroke-linecap="round" stroke-linejoin="round" fill-opacity="0" stroke="rgb(32,118,255)" stroke-opacity="1" stroke-width="16" d=" M8,8 C8,8 81.23300170898438,8 81.23300170898438,8"></path></g></g><g style="display: block;" transform="matrix(1,0,0,1,296.6549987792969,342.4830017089844)" opacity="1"><g opacity="1" transform="matrix(1,0,0,1,0,0)"><path stroke-linecap="round" stroke-linejoin="round" fill-opacity="0" stroke="rgb(0,0,0)" stroke-opacity="1" stroke-width="16" d=" M8,8 C8,8 81.23300170898438,8 81.23300170898438,8"></path></g></g><g style="display: block;" transform="matrix(1,0,0,1,296.6549987792969,305.8370056152344)" opacity="1"><g opacity="1" transform="matrix(1,0,0,1,0,0)"><path stroke-linecap="round" stroke-linejoin="round" fill-opacity="0" stroke="rgb(32,118,255)" stroke-opacity="1" stroke-width="16" d=" M8,8 C8,8 81.23300170898438,8 81.23300170898438,8"></path></g></g><g style="display: block;" transform="matrix(1,0,0,1,278.97698974609375,164.1219940185547)" opacity="1"><g opacity="1" transform="matrix(1,0,0,1,59.01499938964844,56.84700012207031)"><path stroke-linecap="round" stroke-linejoin="round" fill-opacity="0" stroke="rgb(0,0,0)" stroke-opacity="1" stroke-width="16" d=" M19.014999389648438,-0.03799999877810478 C19.014999389648438,9.246000289916992 11.48799991607666,16.77199935913086 2.2049999237060547,16.77199935913086 C-2.3989999294281006,16.77199935913086 -19.014999389648438,16.84600067138672 -19.014999389648438,16.84600067138672 C-19.014999389648438,16.84600067138672 -19.014999389648438,-0.03799999877810478 -19.014999389648438,-0.03799999877810478 C-19.014999389648438,-0.03799999877810478 -19.014999389648438,-16.84600067138672 -19.014999389648438,-16.84600067138672 C-19.014999389648438,-16.84600067138672 2.2049999237060547,-16.84600067138672 2.2049999237060547,-16.84600067138672 C11.48799991607666,-16.84600067138672 19.014999389648438,-9.321999549865723 19.014999389648438,-0.03799999877810478z"></path></g><g opacity="1" transform="matrix(1,0,0,1,62.29399871826172,93.34500122070312)"><path stroke-linecap="round" stroke-linejoin="round" fill-opacity="0" stroke="rgb(0,0,0)" stroke-opacity="1" stroke-width="16" d=" M22.295000076293945,-0.04399999976158142 C22.295000076293945,10.815999984741211 13.489999771118164,19.6200008392334 2.63100004196167,19.6200008392334 C-2.755000114440918,19.6200008392334 -22.295000076293945,19.70599937438965 -22.295000076293945,19.70599937438965 C-22.295000076293945,19.70599937438965 -22.295000076293945,-0.04399999976158142 -22.295000076293945,-0.04399999976158142 C-22.295000076293945,-0.04399999976158142 -22.295000076293945,-19.70599937438965 -22.295000076293945,-19.70599937438965 C-22.295000076293945,-19.70599937438965 2.63100004196167,-19.70599937438965 2.63100004196167,-19.70599937438965 C13.489999771118164,-19.70599937438965 22.295000076293945,-10.904000282287598 22.295000076293945,-0.04399999976158142z"></path></g></g><g style="display: block;" transform="matrix(1,0,0,1,114.11199951171875,379.1300048828125)" opacity="1"><g opacity="1" transform="matrix(1,0,0,1,0,0)"><path stroke-linecap="round" stroke-linejoin="round" fill-opacity="0" stroke="rgb(0,0,0)" stroke-opacity="1" stroke-width="16" d=" M8,8 C8,8 81.23300170898438,8 81.23300170898438,8"></path></g></g><g style="display: block;" transform="matrix(1,0,0,1,114.11199951171875,342.4830017089844)" opacity="1"><g opacity="1" transform="matrix(1,0,0,1,0,0)"><path stroke-linecap="round" stroke-linejoin="round" fill-opacity="0" stroke="rgb(32,118,255)" stroke-opacity="1" stroke-width="16" d=" M8,8 C8,8 81.23300170898438,8 81.23300170898438,8"></path></g></g><g style="display: block;" transform="matrix(1,0,0,1,114.11199951171875,305.8370056152344)" opacity="1"><g opacity="1" transform="matrix(1,0,0,1,0,0)"><path stroke-linecap="round" stroke-linejoin="round" fill-opacity="0" stroke="rgb(0,0,0)" stroke-opacity="1" stroke-width="16" d=" M8,8 C8,8 81.15081024169922,7.999628067016602 81.15081024169922,7.999628067016602"></path></g></g><g style="display: block;" transform="matrix(1,0,0,1,89.927001953125,163.79135131835938)" opacity="1"><g opacity="1" transform="matrix(1,0,0,1,68.802001953125,76.6520004272461)"><path stroke-linecap="round" stroke-linejoin="round" fill-opacity="0" stroke="rgb(32,118,255)" stroke-opacity="1" stroke-width="16" d=" M-28.802000045776367,36.652000427246094 C-28.802000045776367,36.652000427246094 -1.406000018119812,-35.28099822998047 -1.406000018119812,-35.28099822998047 C-0.8460000157356262,-36.650001525878906 1.0920000076293945,-36.6510009765625 1.6540000438690186,-35.28300094604492 C1.6540000438690186,-35.28300094604492 28.802000045776367,36.652000427246094 28.802000045776367,36.652000427246094"></path></g><g opacity="1" transform="matrix(1,0,0,1,0,0)"><path stroke-linecap="round" stroke-linejoin="round" fill-opacity="0" stroke="rgb(32,118,255)" stroke-opacity="1" stroke-width="16" d=" M46.77799987792969,95.38800048828125 C46.77799987792969,95.38800048828125 90.9530029296875,95.38800048828125 90.9530029296875,95.38800048828125"></path></g></g><g style="display: block;" transform="matrix(1,0,0,1,28.699996948242188,28.699996948242188)" opacity="1"><g opacity="1" transform="matrix(1,0,0,1,221.3000030517578,221.3000030517578)"><path stroke-linecap="round" stroke-linejoin="round" fill-opacity="0" stroke="rgb(0,0,0)" stroke-opacity="1" stroke-width="16" d=" M-158.73199462890625,181.3000030517578 C-171.1959991455078,181.3000030517578 -181.3000030517578,171.1959991455078 -181.3000030517578,158.73199462890625 C-181.3000030517578,158.73199462890625 -181.3000030517578,-158.73199462890625 -181.3000030517578,-158.73199462890625 C-181.3000030517578,-171.1959991455078 -171.1959991455078,-181.3000030517578 -158.73199462890625,-181.3000030517578 C-158.73199462890625,-181.3000030517578 158.7310028076172,-181.3000030517578 158.7310028076172,-181.3000030517578 C171.19500732421875,-181.3000030517578 181.3000030517578,-171.1959991455078 181.3000030517578,-158.73199462890625 C181.3000030517578,-158.73199462890625 181.3000030517578,158.73199462890625 181.3000030517578,158.73199462890625 C181.3000030517578,171.1959991455078 171.19500732421875,181.3000030517578 158.7310028076172,181.3000030517578 C158.7310028076172,181.3000030517578 -158.73199462890625,181.3000030517578 -158.73199462890625,181.3000030517578z"></path></g><g opacity="1" transform="matrix(1,0,0,1,0,0)"><path stroke-linecap="round" stroke-linejoin="round" fill-opacity="0" stroke="rgb(0,0,0)" stroke-opacity="1" stroke-width="16" d=" M40,130.2740020751953 C40,130.2740020751953 402.6000061035156,130.2740020751953 402.6000061035156,130.2740020751953"></path></g><g opacity="1" transform="matrix(1,0,0,1,0,0)"><path stroke-linecap="round" stroke-linejoin="round" fill-opacity="0" stroke="rgb(0,0,0)" stroke-opacity="1" stroke-width="16" d=" M222.052001953125,85.13700103759766 C222.052001953125,85.13700103759766 357.4630126953125,85.13700103759766 357.4630126953125,85.13700103759766"></path></g><g opacity="1" transform="matrix(1,0,0,1,0,0)"><path stroke-linecap="round" stroke-linejoin="round" fill-opacity="0" stroke="rgb(0,0,0)" stroke-opacity="1" stroke-width="16" d=" M221.28399658203125,131.7779998779297 C221.28399658203125,131.7779998779297 221.28399658203125,402.6000061035156 221.28399658203125,402.6000061035156"></path></g></g><g style="display: block;" transform="matrix(1,0,0,1,107.08499908447266,105.98480224609375)" opacity="1"><g opacity="1" transform="matrix(1,0,0,1,0,0)"><path stroke-linecap="round" stroke-linejoin="round" fill-opacity="0" stroke="rgb(0,0,0)" stroke-opacity="1" stroke-width="16" d=" M8,8 C8,8 8,8 8,8z"></path></g></g><g style="display: block;" transform="matrix(1,0,0,1,152.2220001220703,106.1259994506836)" opacity="1"><g opacity="1" transform="matrix(1,0,0,1,0,0)"><path stroke-linecap="round" stroke-linejoin="round" fill-opacity="0" stroke="rgb(0,0,0)" stroke-opacity="1" stroke-width="16" d=" M8,8 C8,8 8,8 8,8z"></path></g></g><g style="display: block;" transform="matrix(1,0,0,1,197.35800170898438,106.1259994506836)" opacity="1"><g opacity="1" transform="matrix(1,0,0,1,0,0)"><path stroke-linecap="round" stroke-linejoin="round" fill-opacity="0" stroke="rgb(0,0,0)" stroke-opacity="1" stroke-width="16" d=" M8,8 C8,8 8,8 8,8z"></path></g></g></g></svg>