<svg xmlns="http://www.w3.org/2000/svg" xmlns:xlink="http://www.w3.org/1999/xlink" viewBox="0 0 500 500" width="500" height="500" preserveAspectRatio="xMidYMid meet" style="width: 100%; height: 100%; transform: translate3d(0px, 0px, 0px); content-visibility: visible;"><defs><clipPath id="__lottie_element_650"><rect width="500" height="500" x="0" y="0"></rect></clipPath></defs><g clip-path="url(#__lottie_element_650)"><g style="display: block;" transform="matrix(1,0,0,1,0,0)" opacity="1"><g opacity="1" transform="matrix(1,0,0,1,251.09800720214844,410.97601318359375)"><path stroke-linecap="round" stroke-linejoin="round" fill-opacity="0" stroke="rgb(0,0,0)" stroke-opacity="1" stroke-width="16" d=" M178.90199279785156,-51.21900177001953 C178.90199279785156,-51.21900177001953 -181.09800720214844,-51.21900177001953 -181.09800720214844,-51.21900177001953 C-181.09800720214844,-51.21900177001953 -181.09800720214844,-321.95098876953125 -181.09800720214844,-321.95098876953125 C-181.09800720214844,-321.95098876953125 178.90199279785156,-321.95098876953125 178.90199279785156,-321.95098876953125 C178.90199279785156,-321.95098876953125 178.90199279785156,-51.21900177001953 178.90199279785156,-51.21900177001953z M149.63400268554688,-51.21900177001953 C149.63400268554688,-51.21900177001953 72.80500030517578,-51.21900177001953 72.80500030517578,-51.21900177001953 C72.80500030517578,-51.21900177001953 39.87799835205078,-51.21900177001953 39.87799835205078,-51.21900177001953 C39.87799835205078,-51.21900177001953 -41.340999603271484,-51.21900177001953 -41.340999603271484,-51.21900177001953 C-41.340999603271484,-51.21900177001953 -151.82899475097656,-51.21900177001953 -151.82899475097656,-51.21900177001953 C-151.82899475097656,-51.21900177001953 -151.82899475097656,-292.6830139160156 -151.82899475097656,-292.6830139160156 C-151.82899475097656,-292.6830139160156 149.63400268554688,-292.6830139160156 149.63400268554688,-292.6830139160156 C149.63400268554688,-292.6830139160156 149.63400268554688,-230.48800659179688 149.63400268554688,-230.48800659179688 M-41.340999603271484,-292.6830139160156 C-41.340999603271484,-292.6830139160156 -19.389999389648438,-234.14599609375 -19.389999389648438,-234.14599609375 M-33.292999267578125,-157.31700134277344 C-33.292999267578125,-215.91299438476562 14.208999633789062,-263.4150085449219 72.80500030517578,-263.4150085449219 C131.4010009765625,-263.4150085449219 178.90199279785156,-215.91299438476562 178.90199279785156,-157.31700134277344 C178.90199279785156,-98.72100067138672 131.4010009765625,-51.21900177001953 72.80500030517578,-51.21900177001953 C14.208999633789062,-51.21900177001953 -33.292999267578125,-98.72100067138672 -33.292999267578125,-157.31700134277344z M-151.82899475097656,-234.14599609375 C-151.82899475097656,-234.14599609375 -0.22599999606609344,-234.14599609375 -0.22599999606609344,-234.14599609375 M-121.8290023803711,-197.56100463867188 C-121.8290023803711,-197.56100463867188 -80.58554077148438,-197.61373901367188 -80.58554077148438,-197.61373901367188 M-121.8290023803711,-139.0240020751953 C-121.8290023803711,-139.0240020751953 -78.42929077148438,-139.07015991210938 -78.42929077148438,-139.07015991210938 M-121.8290023803711,-80.48799896240234 C-121.8290023803711,-80.48799896240234 -70.03228759765625,-80.57735443115234 -70.03228759765625,-80.57735443115234 M39.87799835205078,0 C39.87799835205078,0 -41.340999603271484,0 -41.340999603271484,0 C-41.340999603271484,0 -41.340999603271484,-51.21900177001953 -41.340999603271484,-51.21900177001953 C-41.340999603271484,-51.21900177001953 39.87799835205078,-51.21900177001953 39.87799835205078,-51.21900177001953 C39.87799835205078,-51.21900177001953 39.87799835205078,0 39.87799835205078,0z M-83.78099822998047,0 C-83.78099822998047,0 83.78099822998047,0 83.78099822998047,0"></path></g><g opacity="1" transform="matrix(1,0,0,1,323.9020080566406,253.6580047607422)"><path stroke-linecap="round" stroke-linejoin="round" fill-opacity="0" stroke="rgb(32,118,255)" stroke-opacity="1" stroke-width="16" d=" M-194.628173828125,-113.70822143554688 C-194.628173828125,-113.70822143554688 -194.60699462890625,-110.32598876953125 -194.60699462890625,-110.32598876953125 M-165.344970703125,-114.1845932006836 C-165.344970703125,-114.1845932006836 -165.33799743652344,-112.8338851928711 -165.33799743652344,-112.8338851928711 M-136.0688934326172,-114.31981658935547 C-136.0688934326172,-114.31981658935547 -136.07000732421875,-114.20309448242188 -136.07000732421875,-114.20309448242188 M-194.63400268554688,-10.975000381469727 C-194.63400268554688,-10.975000381469727 -158.57154846191406,-10.956074714660645 -158.57154846191406,-10.956074714660645 M-194.63400268554688,47.56100082397461 C-194.63400268554688,47.56100082397461 -151.32315063476562,47.61100387573242 -151.32315063476562,47.61100387573242 M-32.926998138427734,0 C-32.926998138427734,-18.184999465942383 -18.184999465942383,-32.926998138427734 0,-32.926998138427734 C18.184999465942383,-32.926998138427734 32.926998138427734,-18.184999465942383 32.926998138427734,0 C32.926998138427734,18.184999465942383 18.184999465942383,32.926998138427734 0,32.926998138427734 C-18.184999465942383,32.926998138427734 -32.926998138427734,18.184999465942383 -32.926998138427734,0z"></path></g><g opacity="1" transform="matrix(-0.1833801120519638,0.9830420613288879,-0.9830420613288879,-0.1833801120519638,323.9020080566406,253.65899658203125)"><path stroke-linecap="round" stroke-linejoin="round" fill-opacity="0" stroke="rgb(32,118,255)" stroke-opacity="1" stroke-width="16" d=" M76.8290023803711,18.292999267578125 C76.8290023803711,18.292999267578125 76.8290023803711,-18.292999267578125 76.8290023803711,-18.292999267578125 C76.8290023803711,-18.292999267578125 59.45600128173828,-18.292999267578125 59.45600128173828,-18.292999267578125 C58.29800033569336,-22.062000274658203 56.7859992980957,-25.67300033569336 54.96900177001953,-29.099000930786133 C54.96900177001953,-29.099000930786133 67.26100158691406,-41.39099884033203 67.26100158691406,-41.39099884033203 C67.26100158691406,-41.39099884033203 41.39099884033203,-67.26100158691406 41.39099884033203,-67.26100158691406 C41.39099884033203,-67.26100158691406 29.099000930786133,-54.96900177001953 29.099000930786133,-54.96900177001953 C25.67300033569336,-56.7859992980957 22.06100082397461,-58.29800033569336 18.292999267578125,-59.45600128173828 C18.292999267578125,-59.45600128173828 18.292999267578125,-76.8290023803711 18.292999267578125,-76.8290023803711 C18.292999267578125,-76.8290023803711 -18.292999267578125,-76.8290023803711 -18.292999267578125,-76.8290023803711 C-18.292999267578125,-76.8290023803711 -18.292999267578125,-59.45600128173828 -18.292999267578125,-59.45600128173828 C-22.062000274658203,-58.29800033569336 -25.67300033569336,-56.7859992980957 -29.099000930786133,-54.96900177001953 C-29.099000930786133,-54.96900177001953 -41.391998291015625,-67.26100158691406 -41.391998291015625,-67.26100158691406 C-41.391998291015625,-67.26100158691406 -67.26100158691406,-41.39099884033203 -67.26100158691406,-41.39099884033203 C-67.26100158691406,-41.39099884033203 -54.96900177001953,-29.099000930786133 -54.96900177001953,-29.099000930786133 C-56.7859992980957,-25.67300033569336 -58.29800033569336,-22.062000274658203 -59.45600128173828,-18.292999267578125 C-59.45600128173828,-18.292999267578125 -76.8290023803711,-18.292999267578125 -76.8290023803711,-18.292999267578125 C-76.8290023803711,-18.292999267578125 -76.8290023803711,18.292999267578125 -76.8290023803711,18.292999267578125 C-76.8290023803711,18.292999267578125 -59.45600128173828,18.292999267578125 -59.45600128173828,18.292999267578125 C-58.29800033569336,22.062000274658203 -56.7859992980957,25.67300033569336 -54.96900177001953,29.099000930786133 C-54.96900177001953,29.099000930786133 -67.26100158691406,41.39099884033203 -67.26100158691406,41.39099884033203 C-67.26100158691406,41.39099884033203 -41.391998291015625,67.26100158691406 -41.391998291015625,67.26100158691406 C-41.391998291015625,67.26100158691406 -29.099000930786133,54.96900177001953 -29.099000930786133,54.96900177001953 C-25.67300033569336,56.7859992980957 -22.062000274658203,58.29800033569336 -18.292999267578125,59.45600128173828 C-18.292999267578125,59.45600128173828 -18.292999267578125,76.8290023803711 -18.292999267578125,76.8290023803711 C-18.292999267578125,76.8290023803711 18.292999267578125,76.8290023803711 18.292999267578125,76.8290023803711 C18.292999267578125,76.8290023803711 18.292999267578125,59.45600128173828 18.292999267578125,59.45600128173828 C22.06100082397461,58.29800033569336 25.67300033569336,56.7859992980957 29.099000930786133,54.96900177001953 C29.099000930786133,54.96900177001953 41.39099884033203,67.26100158691406 41.39099884033203,67.26100158691406 C41.39099884033203,67.26100158691406 67.26100158691406,41.39099884033203 67.26100158691406,41.39099884033203 C67.26100158691406,41.39099884033203 54.96900177001953,29.099000930786133 54.96900177001953,29.099000930786133 C56.7859992980957,25.67300033569336 58.29800033569336,22.062000274658203 59.45600128173828,18.292999267578125 C59.45600128173828,18.292999267578125 76.8290023803711,18.292999267578125 76.8290023803711,18.292999267578125z"></path></g></g></g></svg>