<svg xmlns="http://www.w3.org/2000/svg" xmlns:xlink="http://www.w3.org/1999/xlink" viewBox="0 0 500 500" width="500" height="500" preserveAspectRatio="xMidYMid meet" style="width: 100%; height: 100%; transform: translate3d(0px, 0px, 0px); content-visibility: visible;"><defs><clipPath id="__lottie_element_149"><rect width="500" height="500" x="0" y="0"></rect></clipPath><g id="__lottie_element_164"><g transform="matrix(0.9964865446090698,-0.08375313878059387,0.08375313878059387,0.9964865446090698,250,226.3090362548828)" opacity="1" style="display: block;"><path fill="rgb(255,0,0)" fill-opacity="1" d=" M77.72799682617188,174.9720001220703 C77.72799682617188,174.9720001220703 -76.68299865722656,174.9720001220703 -76.68299865722656,174.9720001220703 C-88.83100128173828,174.9720001220703 -98.6780014038086,165.125 -98.6780014038086,152.9770050048828 C-98.6780014038086,152.9770050048828 -98.6780014038086,-153.1320037841797 -98.6780014038086,-153.1320037841797 C-98.6780014038086,-165.27999877929688 -88.83100128173828,-175.1269989013672 -76.68299865722656,-175.1269989013672 C-76.68299865722656,-175.1269989013672 77.72799682617188,-175.1269989013672 77.72799682617188,-175.1269989013672 C89.8759994506836,-175.1269989013672 99.7229995727539,-165.27999877929688 99.7229995727539,-153.1320037841797 C99.7229995727539,-153.1320037841797 99.7229995727539,152.9770050048828 99.7229995727539,152.9770050048828 C99.7229995727539,165.125 89.8759994506836,174.9720001220703 77.72799682617188,174.9720001220703z"></path><g opacity="1" transform="matrix(1,0,0,1,0,0)"><path stroke-linecap="round" stroke-linejoin="miter" fill-opacity="0" stroke-miterlimit="10" stroke="rgb(0,0,0)" stroke-opacity="1" stroke-width="16" d=" M77.72799682617188,174.9720001220703 C77.72799682617188,174.9720001220703 -76.68299865722656,174.9720001220703 -76.68299865722656,174.9720001220703 C-88.83100128173828,174.9720001220703 -98.6780014038086,165.125 -98.6780014038086,152.9770050048828 C-98.6780014038086,152.9770050048828 -98.6780014038086,-153.1320037841797 -98.6780014038086,-153.1320037841797 C-98.6780014038086,-165.27999877929688 -88.83100128173828,-175.1269989013672 -76.68299865722656,-175.1269989013672 C-76.68299865722656,-175.1269989013672 77.72799682617188,-175.1269989013672 77.72799682617188,-175.1269989013672 C89.8759994506836,-175.1269989013672 99.7229995727539,-165.27999877929688 99.7229995727539,-153.1320037841797 C99.7229995727539,-153.1320037841797 99.7229995727539,152.9770050048828 99.7229995727539,152.9770050048828 C99.7229995727539,165.125 89.8759994506836,174.9720001220703 77.72799682617188,174.9720001220703z"></path></g></g></g><g id="__lottie_element_170"><g transform="matrix(0.9964865446090698,-0.08375313878059387,0.08375313878059387,0.9964865446090698,250,226.3090362548828)" opacity="1" style="display: block;"><path fill="rgb(255,0,0)" fill-opacity="1" d=" M77.72799682617188,174.9720001220703 C77.72799682617188,174.9720001220703 -76.68299865722656,174.9720001220703 -76.68299865722656,174.9720001220703 C-88.83100128173828,174.9720001220703 -98.6780014038086,165.125 -98.6780014038086,152.9770050048828 C-98.6780014038086,152.9770050048828 -98.6780014038086,-153.1320037841797 -98.6780014038086,-153.1320037841797 C-98.6780014038086,-165.27999877929688 -88.83100128173828,-175.1269989013672 -76.68299865722656,-175.1269989013672 C-76.68299865722656,-175.1269989013672 77.72799682617188,-175.1269989013672 77.72799682617188,-175.1269989013672 C89.8759994506836,-175.1269989013672 99.7229995727539,-165.27999877929688 99.7229995727539,-153.1320037841797 C99.7229995727539,-153.1320037841797 99.7229995727539,152.9770050048828 99.7229995727539,152.9770050048828 C99.7229995727539,165.125 89.8759994506836,174.9720001220703 77.72799682617188,174.9720001220703z"></path><g opacity="1" transform="matrix(1,0,0,1,0,0)"><path stroke-linecap="round" stroke-linejoin="miter" fill-opacity="0" stroke-miterlimit="10" stroke="rgb(0,0,0)" stroke-opacity="1" stroke-width="16" d=" M77.72799682617188,174.9720001220703 C77.72799682617188,174.9720001220703 -76.68299865722656,174.9720001220703 -76.68299865722656,174.9720001220703 C-88.83100128173828,174.9720001220703 -98.6780014038086,165.125 -98.6780014038086,152.9770050048828 C-98.6780014038086,152.9770050048828 -98.6780014038086,-153.1320037841797 -98.6780014038086,-153.1320037841797 C-98.6780014038086,-165.27999877929688 -88.83100128173828,-175.1269989013672 -76.68299865722656,-175.1269989013672 C-76.68299865722656,-175.1269989013672 77.72799682617188,-175.1269989013672 77.72799682617188,-175.1269989013672 C89.8759994506836,-175.1269989013672 99.7229995727539,-165.27999877929688 99.7229995727539,-153.1320037841797 C99.7229995727539,-153.1320037841797 99.7229995727539,152.9770050048828 99.7229995727539,152.9770050048828 C99.7229995727539,165.125 89.8759994506836,174.9720001220703 77.72799682617188,174.9720001220703z"></path></g></g></g><mask id="__lottie_element_170_1" mask-type="alpha"><use xlink:href="#__lottie_element_170"></use></mask><mask id="__lottie_element_164_1" mask-type="alpha"><use xlink:href="#__lottie_element_164"></use></mask></defs><g clip-path="url(#__lottie_element_149)"><g transform="matrix(0.9964865446090698,-0.08375313878059387,0.08375313878059387,0.9964865446090698,250,226.3090362548828)" opacity="1" style="display: block;"><g opacity="1" transform="matrix(1,0,0,1,0,0)"><path fill="rgb(0,0,0)" fill-opacity="1" d=" M11.248000144958496,131.4810028076172 C11.248000144958496,137.5399932861328 6.335999965667725,142.45199584960938 0.2770000100135803,142.45199584960938 C-5.7820000648498535,142.45199584960938 -10.694999694824219,137.5399932861328 -10.694999694824219,131.4810028076172 C-10.694999694824219,125.4219970703125 -5.7820000648498535,120.50900268554688 0.2770000100135803,120.50900268554688 C6.335999965667725,120.50900268554688 11.248000144958496,125.4219970703125 11.248000144958496,131.4810028076172z"></path></g></g><g transform="matrix(0.9964865446090698,-0.08375313878059387,0.08375313878059387,0.9964865446090698,250,226.3090362548828)" opacity="1" style="display: block;"><g opacity="1" transform="matrix(1,0,0,1,0,0)"><path stroke-linecap="round" stroke-linejoin="miter" fill-opacity="0" stroke-miterlimit="10" stroke="rgb(0,0,0)" stroke-opacity="1" stroke-width="16" d=" M-18.023000717163086,-132.11700439453125 C-18.023000717163086,-132.11700439453125 18.57699966430664,-132.11700439453125 18.57699966430664,-132.11700439453125"></path></g></g><g mask="url(#__lottie_element_164_1)" style="display: block;"><g transform="matrix(0.9964865446090698,-0.08375313878059387,0.08375313878059387,0.9964865446090698,234.23330688476562,227.6958465576172)" opacity="1"><g opacity="1" transform="matrix(1,0,0,1,0,0)"><path fill="rgb(0,0,0)" fill-opacity="1" d=" M-8.064000129699707,35.46900177001953 C-8.064000129699707,41.340999603271484 -12.824000358581543,46.10100173950195 -18.695999145507812,46.10100173950195 C-24.56800079345703,46.10100173950195 -29.327999114990234,41.340999603271484 -29.327999114990234,35.46900177001953 C-29.327999114990234,29.597000122070312 -24.56800079345703,24.836999893188477 -18.695999145507812,24.836999893188477 C-12.824000358581543,24.836999893188477 -8.064000129699707,29.597000122070312 -8.064000129699707,35.46900177001953z"></path></g><g opacity="1" transform="matrix(1,0,0,1,0,0)"><path fill="rgb(0,0,0)" fill-opacity="1" d=" M34.80500030517578,35.46900177001953 C34.80500030517578,41.340999603271484 30.045000076293945,46.10100173950195 24.17300033569336,46.10100173950195 C18.301000595092773,46.10100173950195 13.541000366210938,41.340999603271484 13.541000366210938,35.46900177001953 C13.541000366210938,29.597000122070312 18.301000595092773,24.836999893188477 24.17300033569336,24.836999893188477 C30.045000076293945,24.836999893188477 34.80500030517578,29.597000122070312 34.80500030517578,35.46900177001953z"></path></g><g opacity="1" transform="matrix(1,0,0,1,0,0)"><path stroke-linecap="round" stroke-linejoin="round" fill-opacity="0" stroke="rgb(32,118,255)" stroke-opacity="1" stroke-width="16" d=" M-56.8390007019043,-51.16999816894531 C-56.8390007019043,-51.16999816894531 -45.75899887084961,-51.16999816894531 -45.75899887084961,-51.16999816894531 C-43.893001556396484,-51.16999816894531 -42.257999420166016,-49.91899871826172 -41.77000045776367,-48.117000579833984 C-41.77000045776367,-48.117000579833984 -26.87299919128418,6.90500020980835 -26.87299919128418,6.90500020980835 C-26.341999053955078,8.866000175476074 -24.562999725341797,10.227999687194824 -22.5310001373291,10.227999687194824 C-22.5310001373291,10.227999687194824 26.99799919128418,10.227999687194824 26.99799919128418,10.227999687194824 C29.0310001373291,10.227999687194824 30.795000076293945,8.824000358581543 31.253000259399414,6.8429999351501465 C31.253000259399414,6.8429999351501465 38.33700180053711,-23.83300018310547 38.33700180053711,-23.83300018310547 C38.766998291015625,-25.69300079345703 37.358001708984375,-27.47100067138672 35.44900131225586,-27.479000091552734 C35.44900131225586,-27.479000091552734 -36.22600173950195,-27.76799964904785 -36.22600173950195,-27.76799964904785"></path></g></g></g><g mask="url(#__lottie_element_170_1)" style="display: block;"><g transform="matrix(0.9964865446090698,-0.08375313878059387,0.08375313878059387,0.9964865446090698,84.59518432617188,240.2110595703125)" opacity="1"><g opacity="1" transform="matrix(1,0,0,1,0,0)"><path fill="rgb(0,0,0)" fill-opacity="1" d=" M-8.064000129699707,35.46900177001953 C-8.064000129699707,41.340999603271484 -12.824000358581543,46.10100173950195 -18.695999145507812,46.10100173950195 C-24.56800079345703,46.10100173950195 -29.327999114990234,41.340999603271484 -29.327999114990234,35.46900177001953 C-29.327999114990234,29.597000122070312 -24.56800079345703,24.836999893188477 -18.695999145507812,24.836999893188477 C-12.824000358581543,24.836999893188477 -8.064000129699707,29.597000122070312 -8.064000129699707,35.46900177001953z"></path></g><g opacity="1" transform="matrix(1,0,0,1,0,0)"><path fill="rgb(0,0,0)" fill-opacity="1" d=" M34.80500030517578,35.46900177001953 C34.80500030517578,41.340999603271484 30.045000076293945,46.10100173950195 24.17300033569336,46.10100173950195 C18.301000595092773,46.10100173950195 13.541000366210938,41.340999603271484 13.541000366210938,35.46900177001953 C13.541000366210938,29.597000122070312 18.301000595092773,24.836999893188477 24.17300033569336,24.836999893188477 C30.045000076293945,24.836999893188477 34.80500030517578,29.597000122070312 34.80500030517578,35.46900177001953z"></path></g><g opacity="1" transform="matrix(1,0,0,1,0,0)"><path stroke-linecap="round" stroke-linejoin="round" fill-opacity="0" stroke="rgb(32,118,255)" stroke-opacity="1" stroke-width="16" d=" M-56.8390007019043,-51.16999816894531 C-56.8390007019043,-51.16999816894531 -45.75899887084961,-51.16999816894531 -45.75899887084961,-51.16999816894531 C-43.893001556396484,-51.16999816894531 -42.257999420166016,-49.91899871826172 -41.77000045776367,-48.117000579833984 C-41.77000045776367,-48.117000579833984 -26.87299919128418,6.90500020980835 -26.87299919128418,6.90500020980835 C-26.341999053955078,8.866000175476074 -24.562999725341797,10.227999687194824 -22.5310001373291,10.227999687194824 C-22.5310001373291,10.227999687194824 26.99799919128418,10.227999687194824 26.99799919128418,10.227999687194824 C29.0310001373291,10.227999687194824 30.795000076293945,8.824000358581543 31.253000259399414,6.8429999351501465 C31.253000259399414,6.8429999351501465 38.33700180053711,-23.83300018310547 38.33700180053711,-23.83300018310547 C38.766998291015625,-25.69300079345703 37.358001708984375,-27.47100067138672 35.44900131225586,-27.479000091552734 C35.44900131225586,-27.479000091552734 -36.22600173950195,-27.76799964904785 -36.22600173950195,-27.76799964904785"></path></g></g></g><g transform="matrix(0.9964865446090698,-0.08375313878059387,0.08375313878059387,0.9964865446090698,262.93316650390625,337.63299560546875)" opacity="1" style="display: block;"><g opacity="1" transform="matrix(1,0,0,1,0,0)"><path fill="rgb(255,0,0)" fill-opacity="1" d=" M-68.73699951171875,-37.16899871826172 C-68.73699951171875,-37.16899871826172 -61.32400131225586,-37.16899871826172 -50.03499984741211,-37.16899871826172"></path><path stroke-linecap="round" stroke-linejoin="miter" fill-opacity="0" stroke-miterlimit="4" stroke="rgb(0,0,0)" stroke-opacity="1" stroke-width="16" d=" M-68.73699951171875,-37.16899871826172 C-68.73699951171875,-37.16899871826172 -61.32400131225586,-37.16899871826172 -50.03499984741211,-37.16899871826172"></path></g></g><g transform="matrix(0.9964865446090698,-0.08375313878059387,0.08375313878059387,0.9964865446090698,262.93316650390625,337.63299560546875)" opacity="1" style="display: block;"><g opacity="1" transform="matrix(1,0,0,1,0,0)"><path fill="rgb(255,0,0)" fill-opacity="1" d=" M-68.73699951171875,-37.16899871826172 C-68.73699951171875,-37.16899871826172 -66.01200103759766,-37.16899871826172 -61.3489990234375,-37.16899871826172"></path><path stroke-linecap="round" stroke-linejoin="miter" fill-opacity="0" stroke-miterlimit="4" stroke="rgb(32,118,255)" stroke-opacity="1" stroke-width="16" d=" M-68.73699951171875,-37.16899871826172 C-68.73699951171875,-37.16899871826172 -66.01200103759766,-37.16899871826172 -61.3489990234375,-37.16899871826172"></path></g></g><g transform="matrix(0.9964865446090698,-0.08375313878059387,0.08375313878059387,0.9964865446090698,250,226.3090362548828)" opacity="1" style="display: block;"><g opacity="1" transform="matrix(1,0,0,1,0,0)"><path stroke-linecap="round" stroke-linejoin="miter" fill-opacity="0" stroke-miterlimit="10" stroke="rgb(0,0,0)" stroke-opacity="1" stroke-width="16" d=" M77.72799682617188,174.9720001220703 C77.72799682617188,174.9720001220703 -76.68299865722656,174.9720001220703 -76.68299865722656,174.9720001220703 C-88.83100128173828,174.9720001220703 -98.6780014038086,165.125 -98.6780014038086,152.9770050048828 C-98.6780014038086,152.9770050048828 -98.6780014038086,-153.1320037841797 -98.6780014038086,-153.1320037841797 C-98.6780014038086,-165.27999877929688 -88.83100128173828,-175.1269989013672 -76.68299865722656,-175.1269989013672 C-76.68299865722656,-175.1269989013672 77.72799682617188,-175.1269989013672 77.72799682617188,-175.1269989013672 C89.8759994506836,-175.1269989013672 99.7229995727539,-165.27999877929688 99.7229995727539,-153.1320037841797 C99.7229995727539,-153.1320037841797 99.7229995727539,152.9770050048828 99.7229995727539,152.9770050048828 C99.7229995727539,165.125 89.8759994506836,174.9720001220703 77.72799682617188,174.9720001220703z"></path></g></g><g transform="matrix(0.9964865446090698,-0.08375313878059387,0.08375313878059387,0.9964865446090698,233.00115966796875,224.6719970703125)" opacity="1" style="display: block;"><g opacity="1" transform="matrix(1,0,0,1,0,0)"><path stroke-linecap="round" stroke-linejoin="round" fill-opacity="0" stroke="rgb(0,0,0)" stroke-opacity="1" stroke-width="16" d="M0 0"></path></g></g></g></svg>