<svg xmlns="http://www.w3.org/2000/svg" xmlns:xlink="http://www.w3.org/1999/xlink" viewBox="0 0 500 500" width="500" height="500" preserveAspectRatio="xMidYMid meet" style="width: 100%; height: 100%; transform: translate3d(0px, 0px, 0px); content-visibility: visible;"><defs><clipPath id="__lottie_element_197"><rect width="500" height="500" x="0" y="0"></rect></clipPath></defs><g clip-path="url(#__lottie_element_197)"><g style="display: block;" transform="matrix(0.9670552611351013,0.254566490650177,-0.254566490650177,0.9670552611351013,250,279.7950134277344)" opacity="1"><g opacity="1" transform="matrix(1,0,0,1,0,0)"><path stroke-linecap="round" stroke-linejoin="round" fill-opacity="0" stroke="rgb(32,118,255)" stroke-opacity="1" stroke-width="16" d=" M-18.292999267578125,-150.52699279785156 C-18.292999267578125,-150.52699279785156 -18.292999267578125,-119.88099670410156 -18.292999267578125,-119.88099670410156 C-37.97800064086914,-116.88899993896484 -56.09600067138672,-109.13899993896484 -71.44999694824219,-97.84700012207031 C-71.44999694824219,-97.84700012207031 -93.13099670410156,-119.52799987792969 -93.13099670410156,-119.52799987792969 C-93.13099670410156,-119.52799987792969 -119.0009994506836,-93.65799713134766 -119.0009994506836,-93.65799713134766 C-119.0009994506836,-93.65799713134766 -97.31999969482422,-71.97699737548828 -97.31999969482422,-71.97699737548828 C-108.61100006103516,-56.62200164794922 -116.36100006103516,-38.505001068115234 -119.35399627685547,-18.81999969482422 C-119.35399627685547,-18.81999969482422 -150,-18.81999969482422 -150,-18.81999969482422 C-150,-18.81999969482422 -150,17.766000747680664 -150,17.766000747680664 C-150,17.766000747680664 -119.35399627685547,17.766000747680664 -119.35399627685547,17.766000747680664 C-116.36100006103516,37.45100021362305 -108.61100006103516,55.569000244140625 -97.31999969482422,70.9229965209961 C-97.31999969482422,70.9229965209961 -119.0009994506836,92.60399627685547 -119.0009994506836,92.60399627685547 C-119.0009994506836,92.60399627685547 -93.13099670410156,118.4739990234375 -93.13099670410156,118.4739990234375 C-93.13099670410156,118.4739990234375 -71.44999694824219,96.79299926757812 -71.44999694824219,96.79299926757812 C-56.09600067138672,108.08399963378906 -37.97800064086914,115.83499908447266 -18.292999267578125,118.8270034790039 C-18.292999267578125,118.8270034790039 -18.292999267578125,150.22300720214844 -18.292999267578125,150.22300720214844 C-18.292999267578125,150.22300720214844 18.292999267578125,150.27699279785156 18.292999267578125,150.27699279785156 C18.292999267578125,150.27699279785156 18.292999267578125,118.8270034790039 18.292999267578125,118.8270034790039 C37.97800064086914,115.83499908447266 56.09600067138672,108.08399963378906 71.44999694824219,96.79299926757812 C71.44999694824219,96.79299926757812 93.13099670410156,118.4739990234375 93.13099670410156,118.4739990234375 C93.13099670410156,118.4739990234375 119.0009994506836,92.60399627685547 119.0009994506836,92.60399627685547 C119.0009994506836,92.60399627685547 97.31999969482422,70.9229965209961 97.31999969482422,70.9229965209961 C108.61100006103516,55.569000244140625 116.36100006103516,37.45100021362305 119.35399627685547,17.766000747680664 C119.35399627685547,17.766000747680664 150,17.766000747680664 150,17.766000747680664 C150,17.766000747680664 150,-18.81999969482422 150,-18.81999969482422 C150,-18.81999969482422 119.35399627685547,-18.81999969482422 119.35399627685547,-18.81999969482422 C116.36100006103516,-38.505001068115234 108.61100006103516,-56.62200164794922 97.31999969482422,-71.97699737548828 C97.31999969482422,-71.97699737548828 119.0009994506836,-93.65799713134766 119.0009994506836,-93.65799713134766 C119.0009994506836,-93.65799713134766 93.13099670410156,-119.52799987792969 93.13099670410156,-119.52799987792969 C93.13099670410156,-119.52799987792969 71.44999694824219,-97.84700012207031 71.44999694824219,-97.84700012207031 C56.09600067138672,-109.13899993896484 37.97800064086914,-116.88899993896484 18.292999267578125,-119.88099670410156 C18.292999267578125,-119.88099670410156 18.292999267578125,-150.9080047607422 18.292999267578125,-150.9080047607422 C18.292999267578125,-150.9080047607422 -18.229999542236328,-150.83999633789062 -18.229999542236328,-150.83999633789062"></path></g></g><g style="display: block;" transform="matrix(1,0,0,1,250,279.26800537109375)" opacity="1"><g opacity="1" transform="matrix(1,0,0,1,0,0)"><path stroke-linecap="round" stroke-linejoin="round" fill-opacity="0" stroke="rgb(32,118,255)" stroke-opacity="1" stroke-width="16" d=" M7.316999912261963,-25.610000610351562 C7.316999912261963,-25.610000610351562 -7.316999912261963,25.610000610351562 -7.316999912261963,25.610000610351562"></path></g></g><g style="display: block;" transform="matrix(1,0,0,1,201.27447509765625,279.26800537109375)" opacity="1"><g opacity="1" transform="matrix(1,0,0,1,0,0)"><path stroke-linecap="round" stroke-linejoin="round" fill-opacity="0" stroke="rgb(32,118,255)" stroke-opacity="1" stroke-width="16" d=" M7.316999912261963,-14.633999824523926 C7.316999912261963,-14.633999824523926 -7.316999912261963,0 -7.316999912261963,0 C-7.316999912261963,0 7.316999912261963,14.633999824523926 7.316999912261963,14.633999824523926"></path></g></g><g style="display: block;" transform="matrix(1,0,0,1,298.72552490234375,279.26800537109375)" opacity="1"><g opacity="1" transform="matrix(1,0,0,1,0,0)"><path stroke-linecap="round" stroke-linejoin="round" fill-opacity="0" stroke="rgb(32,118,255)" stroke-opacity="1" stroke-width="16" d=" M-7.316999912261963,-14.633999824523926 C-7.316999912261963,-14.633999824523926 7.316999912261963,0 7.316999912261963,0 C7.316999912261963,0 -7.316999912261963,14.633999824523926 -7.316999912261963,14.633999824523926"></path></g></g><g style="display: block;" transform="matrix(1,0,0,1,250,279.26800537109375)" opacity="1"><g opacity="1" transform="matrix(1,0,0,1,0,0)"><path stroke-linecap="round" stroke-linejoin="round" fill-opacity="0" stroke="rgb(0,0,0)" stroke-opacity="1" stroke-width="16" d=" M-84.14600372314453,0 C-84.14600372314453,-46.472999572753906 -46.472999572753906,-84.14600372314453 0,-84.14600372314453 C46.472999572753906,-84.14600372314453 84.14600372314453,-46.472999572753906 84.14600372314453,0 C84.14600372314453,46.472999572753906 46.472999572753906,84.14600372314453 0,84.14600372314453 C-46.472999572753906,84.14600372314453 -84.14600372314453,46.472999572753906 -84.14600372314453,0z"></path></g></g><g style="display: block;" transform="matrix(1,0,0,1,0,0)" opacity="1"><g opacity="1" transform="matrix(1,0,0,1,250,279.26800537109375)"><path stroke-linecap="round" stroke-linejoin="round" fill-opacity="0" stroke="rgb(0,0,0)" stroke-opacity="1" stroke-width="16" d=" M180,150.73199462890625 C180,150.73199462890625 -180,150.73199462890625 -180,150.73199462890625 C-180,150.73199462890625 -180,-150.73199462890625 -180,-150.73199462890625 C-180,-150.73199462890625 180,-150.73199462890625 180,-150.73199462890625 C180,-150.73199462890625 180,150.73199462890625 180,150.73199462890625z"></path></g><g opacity="1" transform="matrix(1,0,0,1,158.53700256347656,99.26799774169922)"><path stroke-linecap="round" stroke-linejoin="round" fill-opacity="0" stroke="rgb(32,118,255)" stroke-opacity="1" stroke-width="16" d=" M-58.55984115600586,-9.93610954284668 C-58.55984115600586,-9.93610954284668 -58.556583404541016,-9.100221633911133 -58.556583404541016,-9.100221633911133 M-29.287578582763672,-10.605320930480957 C-29.287578582763672,-10.605320930480957 -29.287288665771484,-10.44858455657959 -29.287288665771484,-10.44858455657959 M-0.017954571172595024,-10.746845245361328 C-0.017954571172595024,-10.746845245361328 -0.017954571172595024,-10.722868919372559 -0.017954571172595024,-10.722868919372559"></path></g><g opacity="1" transform="matrix(1,0,0,1,249.63400268554688,293.864013671875)"><path stroke-linecap="round" stroke-linejoin="round" fill-opacity="0" stroke="rgb(0,0,0)" stroke-opacity="1" stroke-width="16" d=" M-179.63400268554688,-223.86399841308594 C-179.63400268554688,-223.86399841308594 -179.63400268554688,-165.32699584960938 -179.63400268554688,-165.32699584960938 C-179.63400268554688,-165.32699584960938 -39.87799835205078,-165.32699584960938 -39.87799835205078,-165.32699584960938 C-39.87799835205078,-165.32699584960938 -69.14600372314453,-223.86399841308594 -69.14600372314453,-223.86399841308594 C-69.14600372314453,-223.86399841308594 -179.63400268554688,-223.86399841308594 -179.63400268554688,-223.86399841308594z M180.36599731445312,-223.86399841308594 C180.36599731445312,-223.86399841308594 -69.14600372314453,-223.86399841308594 -69.14600372314453,-223.86399841308594 C-69.14600372314453,-223.86399841308594 -39.87799835205078,-165.32699584960938 -39.87799835205078,-165.32699584960938 C-39.87799835205078,-165.32699584960938 180.36599731445312,-165.32699584960938 180.36599731445312,-165.32699584960938 C180.36599731445312,-165.32699584960938 180.36599731445312,-223.86399841308594 180.36599731445312,-223.86399841308594z"></path></g></g></g></svg>