<svg xmlns="http://www.w3.org/2000/svg" xmlns:xlink="http://www.w3.org/1999/xlink" viewBox="0 0 500 500" width="500" height="500" preserveAspectRatio="xMidYMid meet" style="width: 100%; height: 100%; transform: translate3d(0px, 0px, 0px); content-visibility: visible;"><defs><clipPath id="__lottie_element_218"><rect width="500" height="500" x="0" y="0"></rect></clipPath><clipPath id="__lottie_element_225"><path d="M0,0 L500,0 L500,500 L0,500z"></path></clipPath><g id="__lottie_element_228"><g transform="matrix(1,0,0,1,250,250)" opacity="1" style="display: block;"><path fill="rgb(255,0,0)" fill-opacity="1" d=" M-61.507999420166016,-63.064998626708984 C-61.507999420166016,-131.86500549316406 -5.735000133514404,-187.63800048828125 63.064998626708984,-187.63800048828125 C131.86500549316406,-187.63800048828125 187.63800048828125,-131.86500549316406 187.63800048828125,-63.064998626708984 C187.63800048828125,5.735000133514404 131.86500549316406,61.507999420166016 63.064998626708984,61.507999420166016 C-5.735000133514404,61.507999420166016 -61.507999420166016,5.735000133514404 -61.507999420166016,-63.064998626708984z"></path><g opacity="1" transform="matrix(1,0,0,1,0,0)"><path stroke-linecap="round" stroke-linejoin="round" fill-opacity="0" stroke="rgb(32,118,255)" stroke-opacity="1" stroke-width="16" d=" M-61.507999420166016,-63.064998626708984 C-61.507999420166016,-131.86500549316406 -5.735000133514404,-187.63800048828125 63.064998626708984,-187.63800048828125 C131.86500549316406,-187.63800048828125 187.63800048828125,-131.86500549316406 187.63800048828125,-63.064998626708984 C187.63800048828125,5.735000133514404 131.86500549316406,61.507999420166016 63.064998626708984,61.507999420166016 C-5.735000133514404,61.507999420166016 -61.507999420166016,5.735000133514404 -61.507999420166016,-63.064998626708984z"></path></g></g></g><clipPath id="__lottie_element_232"><path d="M0,0 L500,0 L500,500 L0,500z"></path></clipPath><g id="__lottie_element_235"><g transform="matrix(1,0,0,1,250,250)" opacity="1" style="display: block;"><path fill="rgb(255,0,0)" fill-opacity="1" d=" M-61.507999420166016,-63.064998626708984 C-61.507999420166016,-131.86500549316406 -5.735000133514404,-187.63800048828125 63.064998626708984,-187.63800048828125 C131.86500549316406,-187.63800048828125 187.63800048828125,-131.86500549316406 187.63800048828125,-63.064998626708984 C187.63800048828125,5.735000133514404 131.86500549316406,61.507999420166016 63.064998626708984,61.507999420166016 C-5.735000133514404,61.507999420166016 -61.507999420166016,5.735000133514404 -61.507999420166016,-63.064998626708984z"></path><g opacity="1" transform="matrix(1,0,0,1,0,0)"><path stroke-linecap="round" stroke-linejoin="round" fill-opacity="0" stroke="rgb(32,118,255)" stroke-opacity="1" stroke-width="16" d=" M-61.507999420166016,-63.064998626708984 C-61.507999420166016,-131.86500549316406 -5.735000133514404,-187.63800048828125 63.064998626708984,-187.63800048828125 C131.86500549316406,-187.63800048828125 187.63800048828125,-131.86500549316406 187.63800048828125,-63.064998626708984 C187.63800048828125,5.735000133514404 131.86500549316406,61.507999420166016 63.064998626708984,61.507999420166016 C-5.735000133514404,61.507999420166016 -61.507999420166016,5.735000133514404 -61.507999420166016,-63.064998626708984z"></path></g></g></g><mask id="__lottie_element_235_1" mask-type="alpha"><use xlink:href="#__lottie_element_235"></use></mask><mask id="__lottie_element_228_1" mask-type="alpha"><use xlink:href="#__lottie_element_228"></use></mask></defs><g clip-path="url(#__lottie_element_218)"><g mask="url(#__lottie_element_228_1)" style="display: block;"><g clip-path="url(#__lottie_element_225)" transform="matrix(0.7816511392593384,0.623715877532959,-0.623715877532959,0.7816511392593384,340.64300537109375,-309.15301513671875)" opacity="1"><g transform="matrix(1,0,0,1,250,250)" opacity="1" style="display: block;"><g opacity="1" transform="matrix(1,0,0,1,0,0)"><path stroke-linecap="round" stroke-linejoin="round" fill-opacity="0" stroke="rgb(0,0,0)" stroke-opacity="1" stroke-width="16" d=" M31.667999267578125,-98.10099792480469 C31.667999267578125,-98.10099792480469 94.46299743652344,-98.10099792480469 94.46299743652344,-98.10099792480469 C102.9229965209961,-98.10099792480469 109.77999877929688,-91.24400329589844 109.77999877929688,-82.78399658203125 C109.77999877929688,-82.78399658203125 109.77999877929688,-35.051998138427734 109.77999877929688,-35.051998138427734 C109.77999877929688,-9.67300033569336 89.20700073242188,10.899999618530273 63.827999114990234,10.899999618530273 C63.827999114990234,10.899999618530273 62.301998138427734,10.899999618530273 62.301998138427734,10.899999618530273 C36.92300033569336,10.899999618530273 16.350000381469727,-9.67300033569336 16.350000381469727,-35.051998138427734 C16.350000381469727,-35.051998138427734 16.350000381469727,-82.78399658203125 16.350000381469727,-82.78399658203125 C16.350000381469727,-91.24400329589844 23.20800018310547,-98.10099792480469 31.667999267578125,-98.10099792480469z"></path></g></g><g transform="matrix(1,0,0,1,250,250)" opacity="1" style="display: block;"><g opacity="1" transform="matrix(1,0,0,1,0,0)"><path stroke-linecap="round" stroke-linejoin="round" fill-opacity="0" stroke="rgb(0,0,0)" stroke-opacity="1" stroke-width="16" d=" M140.92300415039062,-90.31600189208984 C140.92300415039062,-90.31600189208984 133.13800048828125,-74.74400329589844 133.13800048828125,-74.74400329589844 C133.13800048828125,-74.74400329589844 109.77999877929688,-74.74400329589844 109.77999877929688,-74.74400329589844"></path></g></g><g transform="matrix(1,0,0,1,250,250)" opacity="1" style="display: block;"><g opacity="1" transform="matrix(1,0,0,1,0,0)"><path stroke-linecap="round" stroke-linejoin="round" fill-opacity="0" stroke="rgb(0,0,0)" stroke-opacity="1" stroke-width="16" d=" M140.92300415039062,-12.456999778747559 C140.92300415039062,-12.456999778747559 133.13800048828125,-28.02899932861328 133.13800048828125,-28.02899932861328 C133.13800048828125,-28.02899932861328 109.12200164794922,-28.02899932861328 109.12200164794922,-28.02899932861328"></path></g></g><g transform="matrix(1,0,0,1,250,250)" opacity="1" style="display: block;"><g opacity="1" transform="matrix(1,0,0,1,0,0)"><path stroke-linecap="round" stroke-linejoin="round" fill-opacity="0" stroke="rgb(0,0,0)" stroke-opacity="1" stroke-width="16" d=" M17.007999420166016,-28.02899932861328 C17.007999420166016,-28.02899932861328 -7.006999969482422,-28.02899932861328 -7.006999969482422,-28.02899932861328 C-7.006999969482422,-28.02899932861328 -14.793000221252441,-12.456999778747559 -14.793000221252441,-12.456999778747559"></path></g></g><g transform="matrix(1,0,0,1,250,250)" opacity="1" style="display: block;"><g opacity="1" transform="matrix(1,0,0,1,0,0)"><path stroke-linecap="round" stroke-linejoin="round" fill-opacity="0" stroke="rgb(0,0,0)" stroke-opacity="1" stroke-width="16" d=" M16.350000381469727,-74.74400329589844 C16.350000381469727,-74.74400329589844 -7.006999969482422,-74.74400329589844 -7.006999969482422,-74.74400329589844 C-7.006999969482422,-74.74400329589844 -14.793000221252441,-90.31600189208984 -14.793000221252441,-90.31600189208984"></path></g></g><g transform="matrix(1,0,0,1,250,250)" opacity="1" style="display: block;"><g opacity="1" transform="matrix(1,0,0,1,0,0)"><path stroke-linecap="butt" stroke-linejoin="round" fill-opacity="0" stroke="rgb(0,0,0)" stroke-opacity="1" stroke-width="16" d=" M94.20800018310547,-98.10099792480469 C94.20800018310547,-98.10099792480469 94.20800018310547,-113.6729965209961 94.20800018310547,-113.6729965209961 C94.20800018310547,-130.8730010986328 80.26499938964844,-144.8159942626953 63.064998626708984,-144.8159942626953 C63.064998626708984,-144.8159942626953 63.064998626708984,-144.8159942626953 63.064998626708984,-144.8159942626953 C45.8650016784668,-144.8159942626953 31.922000885009766,-130.8730010986328 31.922000885009766,-113.6729965209961 C31.922000885009766,-113.6729965209961 31.922000885009766,-98.10099792480469 31.922000885009766,-98.10099792480469"></path></g></g></g></g><g mask="url(#__lottie_element_235_1)" style="display: block;"><g clip-path="url(#__lottie_element_232)" transform="matrix(1,0,0,1,0,0)" opacity="1"><g transform="matrix(1,0,0,1,250,250)" opacity="1" style="display: block;"><g opacity="1" transform="matrix(1,0,0,1,0,0)"><path stroke-linecap="round" stroke-linejoin="round" fill-opacity="0" stroke="rgb(0,0,0)" stroke-opacity="1" stroke-width="16" d=" M31.667999267578125,-98.10099792480469 C31.667999267578125,-98.10099792480469 94.46299743652344,-98.10099792480469 94.46299743652344,-98.10099792480469 C102.9229965209961,-98.10099792480469 109.77999877929688,-91.24400329589844 109.77999877929688,-82.78399658203125 C109.77999877929688,-82.78399658203125 109.77999877929688,-35.051998138427734 109.77999877929688,-35.051998138427734 C109.77999877929688,-9.67300033569336 89.20700073242188,10.899999618530273 63.827999114990234,10.899999618530273 C63.827999114990234,10.899999618530273 62.301998138427734,10.899999618530273 62.301998138427734,10.899999618530273 C36.92300033569336,10.899999618530273 16.350000381469727,-9.67300033569336 16.350000381469727,-35.051998138427734 C16.350000381469727,-35.051998138427734 16.350000381469727,-82.78399658203125 16.350000381469727,-82.78399658203125 C16.350000381469727,-91.24400329589844 23.20800018310547,-98.10099792480469 31.667999267578125,-98.10099792480469z"></path></g></g><g transform="matrix(1,0,0,1,250,250)" opacity="1" style="display: block;"><g opacity="1" transform="matrix(1,0,0,1,0,0)"><path stroke-linecap="round" stroke-linejoin="round" fill-opacity="0" stroke="rgb(0,0,0)" stroke-opacity="1" stroke-width="16" d=" M140.92300415039062,-90.31600189208984 C140.92300415039062,-90.31600189208984 133.13800048828125,-74.74400329589844 133.13800048828125,-74.74400329589844 C133.13800048828125,-74.74400329589844 109.77999877929688,-74.74400329589844 109.77999877929688,-74.74400329589844"></path></g></g><g transform="matrix(1,0,0,1,250,250)" opacity="1" style="display: block;"><g opacity="1" transform="matrix(1,0,0,1,0,0)"><path stroke-linecap="round" stroke-linejoin="round" fill-opacity="0" stroke="rgb(0,0,0)" stroke-opacity="1" stroke-width="16" d=" M140.92300415039062,-12.456999778747559 C140.92300415039062,-12.456999778747559 133.13800048828125,-28.02899932861328 133.13800048828125,-28.02899932861328 C133.13800048828125,-28.02899932861328 109.12200164794922,-28.02899932861328 109.12200164794922,-28.02899932861328"></path></g></g><g transform="matrix(1,0,0,1,250,250)" opacity="1" style="display: block;"><g opacity="1" transform="matrix(1,0,0,1,0,0)"><path stroke-linecap="round" stroke-linejoin="round" fill-opacity="0" stroke="rgb(0,0,0)" stroke-opacity="1" stroke-width="16" d=" M17.007999420166016,-28.02899932861328 C17.007999420166016,-28.02899932861328 -7.006999969482422,-28.02899932861328 -7.006999969482422,-28.02899932861328 C-7.006999969482422,-28.02899932861328 -14.793000221252441,-12.456999778747559 -14.793000221252441,-12.456999778747559"></path></g></g><g transform="matrix(1,0,0,1,250,250)" opacity="1" style="display: block;"><g opacity="1" transform="matrix(1,0,0,1,0,0)"><path stroke-linecap="round" stroke-linejoin="round" fill-opacity="0" stroke="rgb(0,0,0)" stroke-opacity="1" stroke-width="16" d=" M16.350000381469727,-74.74400329589844 C16.350000381469727,-74.74400329589844 -7.006999969482422,-74.74400329589844 -7.006999969482422,-74.74400329589844 C-7.006999969482422,-74.74400329589844 -14.793000221252441,-90.31600189208984 -14.793000221252441,-90.31600189208984"></path></g></g><g transform="matrix(1,0,0,1,250,250)" opacity="1" style="display: block;"><g opacity="1" transform="matrix(1,0,0,1,0,0)"><path stroke-linecap="butt" stroke-linejoin="round" fill-opacity="0" stroke="rgb(0,0,0)" stroke-opacity="1" stroke-width="16" d=" M94.20800018310547,-98.10099792480469 C94.20800018310547,-98.10099792480469 94.20800018310547,-113.6729965209961 94.20800018310547,-113.6729965209961 C94.20800018310547,-130.8730010986328 80.26499938964844,-144.8159942626953 63.064998626708984,-144.8159942626953 C63.064998626708984,-144.8159942626953 63.064998626708984,-144.8159942626953 63.064998626708984,-144.8159942626953 C45.8650016784668,-144.8159942626953 31.922000885009766,-130.8730010986328 31.922000885009766,-113.6729965209961 C31.922000885009766,-113.6729965209961 31.922000885009766,-98.10099792480469 31.922000885009766,-98.10099792480469"></path></g></g></g></g><g transform="matrix(1,0,0,1,250,250)" opacity="1" style="display: block;"><g opacity="1" transform="matrix(1,0,0,1,0,0)"><path stroke-linecap="round" stroke-linejoin="round" fill-opacity="0" stroke="rgb(0,0,0)" stroke-opacity="1" stroke-width="16" d=" M-67.1240005493164,44.124000549316406 C-67.1240005493164,44.124000549316406 -44.124000549316406,67.1240005493164 -44.124000549316406,67.1240005493164 C-38.23699951171875,73.01100158691406 -38.02199935913086,82.48600006103516 -43.6349983215332,88.63400268554688 C-43.6349983215332,88.63400268554688 -122.96700286865234,175.52099609375 -122.96700286865234,175.52099609375 C-137.26699829101562,191.18299865722656 -161.7469940185547,191.73899841308594 -176.7429962158203,176.7429962158203 C-176.7429962158203,176.7429962158203 -176.7429962158203,176.7429962158203 -176.7429962158203,176.7429962158203 C-191.73899841308594,161.7469940185547 -191.18299865722656,137.26699829101562 -175.52099609375,122.96700286865234 C-175.52099609375,122.96700286865234 -88.63400268554688,43.6349983215332 -88.63400268554688,43.6349983215332 C-82.48600006103516,38.02199935913086 -73.01100158691406,38.23699951171875 -67.1240005493164,44.124000549316406z"></path></g><g opacity="1" transform="matrix(1,0,0,1,0,0)"><path stroke-linecap="butt" stroke-linejoin="round" fill-opacity="0" stroke="rgb(0,0,0)" stroke-opacity="1" stroke-width="16" d=" M-39.98099899291992,6.947999954223633 C-39.98099899291992,6.947999954223633 -73.35199737548828,40.319000244140625 -73.35199737548828,40.319000244140625"></path></g><g opacity="1" transform="matrix(1,0,0,1,0,0)"><path stroke-linecap="butt" stroke-linejoin="round" fill-opacity="0" stroke="rgb(0,0,0)" stroke-opacity="1" stroke-width="16" d=" M-40.319000244140625,73.35199737548828 C-40.319000244140625,73.35199737548828 -6.947999954223633,39.98099899291992 -6.947999954223633,39.98099899291992"></path></g><g opacity="1" transform="matrix(1,0,0,1,0,0)"><path stroke-linecap="round" stroke-linejoin="round" fill-opacity="0" stroke="rgb(32,118,255)" stroke-opacity="1" stroke-width="16" d=" M-61.507999420166016,-63.064998626708984 C-61.507999420166016,-131.86500549316406 -5.735000133514404,-187.63800048828125 63.064998626708984,-187.63800048828125 C131.86500549316406,-187.63800048828125 187.63800048828125,-131.86500549316406 187.63800048828125,-63.064998626708984 C187.63800048828125,5.735000133514404 131.86500549316406,61.507999420166016 63.064998626708984,61.507999420166016 C-5.735000133514404,61.507999420166016 -61.507999420166016,5.735000133514404 -61.507999420166016,-63.064998626708984z"></path></g></g></g></svg>