<svg xmlns="http://www.w3.org/2000/svg" xmlns:xlink="http://www.w3.org/1999/xlink" viewBox="0 0 500 500" width="500" height="500" preserveAspectRatio="xMidYMid meet" style="width: 100%; height: 100%; transform: translate3d(0px, 0px, 0px); content-visibility: visible;"><defs><clipPath id="__lottie_element_124"><rect width="500" height="500" x="0" y="0"></rect></clipPath><g id="__lottie_element_133"><g transform="matrix(1,0,0,1,250,250)" opacity="1" style="display: block;"><path fill="rgb(255,0,0)" fill-opacity="1" d=" M-34.67,3.33 C-34.67,3.33 -19.65,20.07 -19.65,20.07 C-19.65,20.07 10.4,-13.4 10.4,-13.4 M-75.88,-67.68 C-33.38,-88.71 9.12,-88.71 51.61,-67.68 C51.61,-67.68 51.61,-19.15 51.61,-19.15 C51.61,28.11 26.63,70.92 -12.13,90.12 C-12.13,90.12 -12.13,90.12 -12.13,90.12 C-12.13,90.12 -12.13,90.12 -12.13,90.12 C-50.9,70.92 -75.88,28.11 -75.88,-19.15 C-75.88,-19.15 -75.88,-67.68 -75.88,-67.68z M-97.68700408935547,-190.61700439453125 C-97.68700408935547,-190.61700439453125 73.42183685302734,-190.61700439453125 73.42183685302734,-190.61700439453125 C84.99420928955078,-190.61700439453125 94.3758316040039,-180.16700744628906 94.3758316040039,-167.2760009765625 C94.3758316040039,-167.2760009765625 94.3758316040039,167.2760009765625 94.3758316040039,167.2760009765625 C94.3758316040039,180.16700744628906 84.99420928955078,190.61700439453125 73.42183685302734,190.61700439453125 C73.42183685302734,190.61700439453125 -97.68700408935547,190.61700439453125 -97.68700408935547,190.61700439453125 C-109.2593765258789,190.61700439453125 -118.64099884033203,180.16700744628906 -118.64099884033203,167.2760009765625 C-118.64099884033203,167.2760009765625 -118.64099884033203,-167.2760009765625 -118.64099884033203,-167.2760009765625 C-118.64099884033203,-180.16700744628906 -109.2593765258789,-190.61700439453125 -97.68700408935547,-190.61700439453125z M-118.64099884033203,143.16099548339844 C-118.64099884033203,143.16099548339844 94.3758316040039,143.16099548339844 94.3758316040039,143.16099548339844 M-33.43484115600586,-143.16099548339844 C-33.43484115600586,-143.16099548339844 9.16889762878418,-143.16099548339844 9.16889762878418,-143.16099548339844"></path><g opacity="1" transform="matrix(1,0,0,1,0,27)"><path stroke-linecap="round" stroke-linejoin="round" fill-opacity="0" stroke="rgb(32,118,255)" stroke-opacity="1" stroke-width="16" d=" M-34.669837951660156,-23.66900062561035 C-34.669837951660156,-23.66900062561035 -19.645261764526367,-6.932000160217285 -19.645261764526367,-6.932000160217285 C-19.645261764526367,-6.932000160217285 10.40389347076416,-40.404998779296875 10.40389347076416,-40.404998779296875"></path></g><g opacity="1" transform="matrix(1,0,0,1,0,27)"><path stroke-linecap="round" stroke-linejoin="round" fill-opacity="0" stroke="rgb(32,118,255)" stroke-opacity="1" stroke-width="16" d=" M-75.87762451171875,-94.67500305175781 C-33.38126754760742,-115.71399688720703 9.115321159362793,-115.71399688720703 51.6116828918457,-94.67500305175781 C51.6116828918457,-94.67500305175781 51.6116828918457,-46.14500045776367 51.6116828918457,-46.14500045776367 C51.6116828918457,1.1059999465942383 26.630340576171875,43.92499923706055 -12.132584571838379,63.11600112915039 C-12.132584571838379,63.11600112915039 -12.132584571838379,63.117000579833984 -12.132584571838379,63.117000579833984 C-12.132584571838379,63.117000579833984 -12.132584571838379,63.11600112915039 -12.132584571838379,63.11600112915039 C-50.895511627197266,43.92499923706055 -75.87762451171875,1.1059999465942383 -75.87762451171875,-46.14500045776367 C-75.87762451171875,-46.14500045776367 -75.87762451171875,-94.67500305175781 -75.87762451171875,-94.67500305175781z"></path></g><g opacity="1" transform="matrix(1,0,0,1,0,0)"><path stroke-linecap="round" stroke-linejoin="round" fill-opacity="0" stroke="rgb(0,0,0)" stroke-opacity="1" stroke-width="16" d=" M-97.68700408935547,-190.61700439453125 C-97.68700408935547,-190.61700439453125 73.42183685302734,-190.61700439453125 73.42183685302734,-190.61700439453125 C84.99420928955078,-190.61700439453125 94.3758316040039,-180.16700744628906 94.3758316040039,-167.2760009765625 C94.3758316040039,-167.2760009765625 94.3758316040039,167.2760009765625 94.3758316040039,167.2760009765625 C94.3758316040039,180.16700744628906 84.99420928955078,190.61700439453125 73.42183685302734,190.61700439453125 C73.42183685302734,190.61700439453125 -97.68700408935547,190.61700439453125 -97.68700408935547,190.61700439453125 C-109.2593765258789,190.61700439453125 -118.64099884033203,180.16700744628906 -118.64099884033203,167.2760009765625 C-118.64099884033203,167.2760009765625 -118.64099884033203,-167.2760009765625 -118.64099884033203,-167.2760009765625 C-118.64099884033203,-180.16700744628906 -109.2593765258789,-190.61700439453125 -97.68700408935547,-190.61700439453125z"></path></g><g opacity="1" transform="matrix(1,0,0,1,0,0)"><path stroke-linecap="butt" stroke-linejoin="round" fill-opacity="0" stroke="rgb(0,0,0)" stroke-opacity="1" stroke-width="16" d=" M-118.64099884033203,143.16099548339844 C-118.64099884033203,143.16099548339844 94.3758316040039,143.16099548339844 94.3758316040039,143.16099548339844"></path></g><g opacity="1" transform="matrix(1,0,0,1,0,0)"><path stroke-linecap="round" stroke-linejoin="round" fill-opacity="0" stroke="rgb(0,0,0)" stroke-opacity="1" stroke-width="16" d=" M-33.43484115600586,-143.16099548339844 C-33.43484115600586,-143.16099548339844 9.16889762878418,-143.16099548339844 9.16889762878418,-143.16099548339844"></path></g></g></g><filter id="__lottie_element_139" filterUnits="objectBoundingBox" x="0%" y="0%" width="100%" height="100%"><feComponentTransfer in="SourceGraphic"><feFuncA type="table" tableValues="1.0 0.0"></feFuncA></feComponentTransfer></filter><mask id="__lottie_element_133_2" mask-type="alpha"><g filter="url(#__lottie_element_139)"><rect width="500" height="500" x="0" y="0" fill="#ffffff" opacity="0"></rect><use xlink:href="#__lottie_element_133"></use></g></mask></defs><g clip-path="url(#__lottie_element_124)"><g transform="matrix(1,0,0,1,250,250)" opacity="1" style="display: block;"><g opacity="1" transform="matrix(1,0,0,1,0,27)"><path stroke-linecap="round" stroke-linejoin="round" fill-opacity="0" stroke="rgb(32,118,255)" stroke-opacity="1" stroke-width="16" d=" M-54.184627532958984,-94.84699249267578 C-20.82644271850586,-106.63858032226562 13.853692054748535,-109.73757934570312 51.6116828918457,-94.67500305175781 C51.6116828918457,-94.67500305175781 51.6116828918457,-46.14500045776367 51.6116828918457,-46.14500045776367 C51.6116828918457,1.1059999465942383 35.92734146118164,43.15024948120117 -2.835585117340088,62.341251373291016 C-2.835585117340088,62.341251373291016 -2.835585117340088,62.34225082397461 -2.835585117340088,62.34225082397461 C-2.835585117340088,62.34225082397461 -2.835585117340088,62.341251373291016 -2.835585117340088,62.341251373291016 C-36.067569732666016,48.63160705566406 -54.184627532958984,0.9340054988861084 -54.184627532958984,-46.316993713378906 C-54.184627532958984,-46.316993713378906 -54.184627532958984,-94.84699249267578 -54.184627532958984,-94.84699249267578z"></path></g><g opacity="1" transform="matrix(1,0,0,1,0,0)"><path stroke-linecap="round" stroke-linejoin="round" fill-opacity="0" stroke="rgb(0,0,0)" stroke-opacity="1" stroke-width="16" d=" M-75.99400329589844,-190.78900146484375 C-75.99400329589844,-190.78900146484375 73.42183685302734,-190.61700439453125 73.42183685302734,-190.61700439453125 C84.99420928955078,-190.61700439453125 94.3758316040039,-180.16700744628906 94.3758316040039,-167.2760009765625 C94.3758316040039,-167.2760009765625 94.3758316040039,167.2760009765625 94.3758316040039,167.2760009765625 C94.3758316040039,180.16700744628906 84.99420928955078,190.61700439453125 73.42183685302734,190.61700439453125 C73.42183685302734,190.61700439453125 -75.99400329589844,190.44500732421875 -75.99400329589844,190.44500732421875 C-87.5663833618164,190.44500732421875 -96.947998046875,179.99501037597656 -96.947998046875,167.10400390625 C-96.947998046875,167.10400390625 -96.947998046875,-167.4487762451172 -96.947998046875,-167.4487762451172 C-96.947998046875,-180.3397674560547 -87.5663833618164,-190.78900146484375 -75.99400329589844,-190.78900146484375z"></path></g><g opacity="1" transform="matrix(1,0,0,1,0,0)"><path stroke-linecap="butt" stroke-linejoin="round" fill-opacity="0" stroke="rgb(0,0,0)" stroke-opacity="1" stroke-width="16" d=" M-96.947998046875,142.9882354736328 C-96.947998046875,142.9882354736328 94.3758316040039,143.16099548339844 94.3758316040039,143.16099548339844"></path></g><g opacity="1" transform="matrix(1,0,0,1,0,0)"><path stroke-linecap="round" stroke-linejoin="round" fill-opacity="0" stroke="rgb(0,0,0)" stroke-opacity="1" stroke-width="16" d=" M-21.8135929107666,-143.53366088867188 C-21.8135929107666,-143.53366088867188 17.69114875793457,-143.7823486328125 17.69114875793457,-143.7823486328125"></path></g></g><g transform="matrix(0.5405927896499634,-0.8412843942642212,0.8412843942642212,0.5405927896499634,277.0108337402344,267.49578857421875)" opacity="1" style="display: block;"><g opacity="1" transform="matrix(1,0,0,1,0,0)"><path stroke-linecap="round" stroke-linejoin="miter" fill-opacity="0" stroke-miterlimit="4" stroke="rgb(32,118,255)" stroke-opacity="1" stroke-width="16" d="M0 0"></path></g></g><g transform="matrix(-0.03394013270735741,-0.9994238615036011,0.9994238615036011,-0.03394013270735741,292.59393310546875,211.9400634765625)" opacity="1" style="display: block;"><g opacity="1" transform="matrix(1,0,0,1,0,0)"><path stroke-linecap="round" stroke-linejoin="miter" fill-opacity="0" stroke-miterlimit="4" stroke="rgb(32,118,255)" stroke-opacity="1" stroke-width="16" d="M0 0"></path></g></g><g transform="matrix(-0.339246928691864,-0.9406973719596863,0.9406973719596863,-0.339246928691864,280.3822937011719,201.59788513183594)" opacity="1" style="display: block;"><g opacity="1" transform="matrix(1,0,0,1,0,0)"><path stroke-linecap="round" stroke-linejoin="miter" fill-opacity="0" stroke-miterlimit="4" stroke="rgb(32,118,255)" stroke-opacity="1" stroke-width="16" d="M0 0"></path></g></g><g mask="url(#__lottie_element_133_2)" style="display: block;"><g transform="matrix(1,0,0,1,250,250)" opacity="1"><g opacity="1" transform="matrix(1,0,0,1,0,0)"><path stroke-linecap="butt" stroke-linejoin="miter" fill-opacity="0" stroke-miterlimit="4" stroke="rgb(0,0,0)" stroke-opacity="1" stroke-width="16" d=" M85,-191 C63,-191 29,-191 29,-191 C29,-191 36,191 36,191 C36,191 84,191 84,191 C84,191 111,195 111,159 C111,97 111,-170 111,-170 C111,-170 107,-191 85,-191z"></path></g><g opacity="1" transform="matrix(1,0,0,1,0,0)"><path stroke-linecap="butt" stroke-linejoin="miter" fill-opacity="0" stroke-miterlimit="4" stroke="rgb(0,0,0)" stroke-opacity="1" stroke-width="16" d=" M24.5,144.5 C24.5,144.5 106,144.5 106,144.5"></path></g></g></g><g transform="matrix(1,0,0,1,250,250)" opacity="1" style="display: block;"><g opacity="1" transform="matrix(1,0,0,1,0,27)"><path stroke-linecap="round" stroke-linejoin="round" fill-opacity="0" stroke="rgb(32,118,255)" stroke-opacity="1" stroke-width="16" d=" M-24.866926193237305,-23.616317749023438 C-24.866926193237305,-23.616317749023438 -11.55377197265625,-6.880091667175293 -11.55377197265625,-6.880091667175293 C-11.55377197265625,-6.880091667175293 15.072537422180176,-40.352317810058594 15.072537422180176,-40.352317810058594"></path></g></g></g></svg>