<svg xmlns="http://www.w3.org/2000/svg" xmlns:xlink="http://www.w3.org/1999/xlink" viewBox="0 0 500 500" width="500" height="500" preserveAspectRatio="xMidYMid meet" style="width: 100%; height: 100%; transform: translate3d(0px, 0px, 0px); content-visibility: visible;"><defs><clipPath id="__lottie_element_182"><rect width="500" height="500" x="0" y="0"></rect></clipPath><g id="__lottie_element_187"><g transform="matrix(0.999597430229187,0.028373027220368385,-0.028373027220368385,0.999597430229187,367.32843017578125,374.990478515625)" opacity="1" style="display: block;"><path fill="rgb(255,0,0)" fill-opacity="1" d=" M-71.00599670410156,-94.67500305175781 C-23.66900062561035,-115.71399688720703 23.66900062561035,-115.71399688720703 71.00599670410156,-94.67500305175781 C71.00599670410156,-94.67500305175781 71.00599670410156,-46.14500045776367 71.00599670410156,-46.14500045776367 C71.00599670410156,1.1059999465942383 43.17900085449219,43.92499923706055 0,63.11600112915039 C0,63.11600112915039 0,63.117000579833984 0,63.117000579833984 C0,63.117000579833984 0,63.11600112915039 0,63.11600112915039 C-43.17900085449219,43.92499923706055 -71.00599670410156,1.1059999465942383 -71.00599670410156,-46.14500045776367 C-71.00599670410156,-46.14500045776367 -71.00599670410156,-94.67500305175781 -71.00599670410156,-94.67500305175781z"></path><g opacity="1" transform="matrix(1,0,0,1,0,0)"><path stroke-linecap="round" stroke-linejoin="round" fill-opacity="0" stroke="rgb(32,118,255)" stroke-opacity="1" stroke-width="16" d=" M-71.00599670410156,-94.67500305175781 C-23.66900062561035,-115.71399688720703 23.66900062561035,-115.71399688720703 71.00599670410156,-94.67500305175781 C71.00599670410156,-94.67500305175781 71.00599670410156,-46.14500045776367 71.00599670410156,-46.14500045776367 C71.00599670410156,1.1059999465942383 43.17900085449219,43.92499923706055 0,63.11600112915039 C0,63.11600112915039 0,63.117000579833984 0,63.117000579833984 C0,63.117000579833984 0,63.11600112915039 0,63.11600112915039 C-43.17900085449219,43.92499923706055 -71.00599670410156,1.1059999465942383 -71.00599670410156,-46.14500045776367 C-71.00599670410156,-46.14500045776367 -71.00599670410156,-94.67500305175781 -71.00599670410156,-94.67500305175781z"></path></g></g></g><filter id="__lottie_element_196" filterUnits="objectBoundingBox" x="0%" y="0%" width="100%" height="100%"><feComponentTransfer in="SourceGraphic"><feFuncA type="table" tableValues="1.0 0.0"></feFuncA></feComponentTransfer></filter><mask id="__lottie_element_187_2" mask-type="alpha"><g filter="url(#__lottie_element_196)"><rect width="500" height="500" x="0" y="0" fill="#ffffff" opacity="0"></rect><use xlink:href="#__lottie_element_187"></use></g></mask></defs><g clip-path="url(#__lottie_element_182)"><g mask="url(#__lottie_element_187_2)" style="display: block;"><g transform="matrix(1,-0.0000063043689806363545,0.0000063043689806363545,1,250,250)" opacity="1"><g opacity="1" transform="matrix(1,0,0,1,0,0)"><path stroke-linecap="butt" stroke-linejoin="round" fill-opacity="0" stroke="rgb(0,0,0)" stroke-opacity="1" stroke-width="16" d=" M-171.10400390625,-104.44000244140625 C-171.10400390625,-104.44000244140625 135.85400390625,-104.44400024414062 135.85400390625,-104.44400024414062"></path></g><g opacity="1" transform="matrix(1,0,0,1,0,0)"><path stroke-linecap="butt" stroke-linejoin="round" fill-opacity="0" stroke="rgb(0,0,0)" stroke-opacity="1" stroke-width="16" d=" M-16.91699981689453,160.33099365234375 C-16.91699981689453,160.33099365234375 -16.92099952697754,-194.1699981689453 -16.92099952697754,-194.1699981689453"></path></g><g opacity="1" transform="matrix(1,0,0,1,0,0)"><path stroke-linecap="butt" stroke-linejoin="round" fill-opacity="0" stroke="rgb(0,0,0)" stroke-opacity="1" stroke-width="16" d=" M160.33099365234375,-16.92099952697754 C160.33099365234375,-16.92099952697754 -194.1699981689453,-16.91699981689453 -194.1699981689453,-16.91699981689453"></path></g><g opacity="1" transform="matrix(1,0,0,1,0,0)"><path stroke-linecap="butt" stroke-linejoin="round" fill-opacity="0" stroke="rgb(0,0,0)" stroke-opacity="1" stroke-width="16" d=" M137.14700317382812,72.61599731445312 C137.14700317382812,72.61599731445312 -171.1020050048828,72.80999755859375 -171.1020050048828,72.80999755859375"></path></g><g opacity="1" transform="matrix(1,0,0,1,0,0)"><path stroke-linecap="butt" stroke-linejoin="round" fill-opacity="0" stroke="rgb(0,0,0)" stroke-opacity="1" stroke-width="16" d=" M-16.92099952697754,-194.1699981689453 C-114.81400299072266,-194.16900634765625 -194.17100524902344,-114.80999755859375 -194.1699981689453,-16.91699981689453 C-194.16900634765625,80.97599792480469 -114.80999755859375,160.33200073242188 -16.91699981689453,160.33099365234375 C12.215999603271484,160.33099365234375 35.90700149536133,157.69200134277344 68.9540023803711,135.8459930419922 C102,114 147,78 156.3350067138672,20.618000030517578 C161.8090057373047,-13.031999588012695 160.33099365234375,-4.039000034332275 160.33099365234375,-16.92099952697754 C160.3300018310547,-114.81400299072266 80.97200012207031,-194.17100524902344 -16.92099952697754,-194.1699981689453z"></path></g><g opacity="1" transform="matrix(1,0,0,1,0,0)"><path stroke-linecap="round" stroke-linejoin="round" fill-opacity="0" stroke="rgb(0,0,0)" stroke-opacity="1" stroke-width="16" d=" M-16.92099952697754,-194.1699981689453 C-65.86699676513672,-194.16900634765625 -105.5459976196289,-114.81099700927734 -105.54499816894531,-16.917999267578125 C-105.54399871826172,80.9749984741211 -65.86299896240234,160.33200073242188 -16.91699981689453,160.33099365234375 C9.928999900817871,160.33099365234375 33.98400115966797,136.4550018310547 50.236000061035156,98.74500274658203 C50.236000061035156,98.74500274658203 65,63 68.16000366210938,33.38100051879883 C70.23799896240234,13.902999877929688 71.70600128173828,-2.3399999141693115 71.70600128173828,-16.920000076293945 C71.70500183105469,-114.81300354003906 32.025001525878906,-194.17100524902344 -16.92099952697754,-194.1699981689453z"></path></g></g></g><g transform="matrix(0.999597430229187,0.028373027220368385,-0.028373027220368385,0.999597430229187,367.32843017578125,374.990478515625)" opacity="1" style="display: block;"><g opacity="1" transform="matrix(1,0,0,1,0,0)"><path stroke-linecap="round" stroke-linejoin="round" fill-opacity="0" stroke="rgb(32,118,255)" stroke-opacity="1" stroke-width="16" d=" M-71.00599670410156,-94.67500305175781 C-23.66900062561035,-115.71399688720703 23.66900062561035,-115.71399688720703 71.00599670410156,-94.67500305175781 C71.00599670410156,-94.67500305175781 71.00599670410156,-46.14500045776367 71.00599670410156,-46.14500045776367 C71.00599670410156,1.1059999465942383 43.17900085449219,43.92499923706055 0,63.11600112915039 C0,63.11600112915039 0,63.117000579833984 0,63.117000579833984 C0,63.117000579833984 0,63.11600112915039 0,63.11600112915039 C-43.17900085449219,43.92499923706055 -71.00599670410156,1.1059999465942383 -71.00599670410156,-46.14500045776367 C-71.00599670410156,-46.14500045776367 -71.00599670410156,-94.67500305175781 -71.00599670410156,-94.67500305175781z"></path></g></g><g transform="matrix(0.999597430229187,0.028373027220368385,-0.028373027220368385,0.999597430229187,367.38519287109375,372.99127197265625)" opacity="1" style="display: block;"><g opacity="1" transform="matrix(1,0,0,1,0,0)"><path stroke-linecap="round" stroke-linejoin="round" fill-opacity="0" stroke="rgb(32,118,255)" stroke-opacity="1" stroke-width="16" d=" M-25.104000091552734,-23.66900062561035 C-25.104000091552734,-23.66900062561035 -8.368000030517578,-6.932000160217285 -8.368000030517578,-6.932000160217285 C-8.368000030517578,-6.932000160217285 24.638999938964844,-39.939998626708984 25.099000930786133,-40.400001525878906"></path></g></g></g></svg>