<svg xmlns="http://www.w3.org/2000/svg" xmlns:xlink="http://www.w3.org/1999/xlink" viewBox="0 0 500 500" width="500" height="500" preserveAspectRatio="xMidYMid meet" style="width: 100%; height: 100%; transform: translate3d(0px, 0px, 0px); content-visibility: visible;"><defs><clipPath id="__lottie_element_161"><rect width="500" height="500" x="0" y="0"></rect></clipPath><g id="__lottie_element_167"><g transform="matrix(0.9991652369499207,-0.04085146263241768,0.04085146263241768,0.9991652369499207,231.5741424560547,246.19418334960938)" opacity="1" style="display: block;"><path fill="rgb(255,0,0)" fill-opacity="1" d=" M-72.20500183105469,-139.41600036621094 C-72.20500183105469,-139.41600036621094 -72.20500183105469,-88.01599884033203 -72.20500183105469,-88.01599884033203 C-72.20500183105469,-88.01599884033203 -89.63400268554688,-96.7300033569336 -89.63400268554688,-96.7300033569336 C-89.63400268554688,-96.7300033569336 -107.06300354003906,-88.01599884033203 -107.06300354003906,-88.01599884033203 C-107.06300354003906,-88.01599884033203 -107.06300354003906,-139.41600036621094 -107.06300354003906,-139.41600036621094 M-148.76499938964844,-31.187999725341797 C-148.76499938964844,-31.187999725341797 -148.76499938964844,-139.43099975585938 -148.76499938964844,-139.43099975585938 C-148.76499938964844,-139.43099975585938 -30.503000259399414,-139.43099975585938 -30.503000259399414,-139.43099975585938 C-30.503000259399414,-139.43099975585938 -30.503000259399414,-30.586999893188477 -30.503000259399414,-30.586999893188477 M-135.3280029296875,4.396999835968018 C-135.3280029296875,4.396999835968018 -148.66200256347656,29.358999252319336 -148.66200256347656,29.358999252319336 C-148.66200256347656,29.358999252319336 -148.66200256347656,46.59299850463867 -148.66200256347656,46.59299850463867 M59.92599868774414,-66.69100189208984 C59.92599868774414,-66.69100189208984 115.33699798583984,-63.1619987487793 115.33699798583984,-63.1619987487793 C115.33699798583984,-63.1619987487793 115.33699798583984,-104.68499755859375 115.33699798583984,-104.68499755859375 C115.33699798583984,-104.68499755859375 63.435001373291016,-101.2239990234375 63.435001373291016,-101.2239990234375 C63.435001373291016,-101.2239990234375 59.9739990234375,-66.62300109863281 59.9739990234375,-66.62300109863281 C75.04900360107422,-10.362000465393066 85.79199981689453,12.510000228881836 38.361000061035156,70.22699737548828 C26.59600067138672,70.22699737548828 0.9909999966621399,70.22699737548828 -10.77400016784668,70.22699737548828 C-21.020999908447266,52.47800064086914 -30.503000259399414,33.72100067138672 -30.503000259399414,3.447000026702881 C-30.503000259399414,3.447000026702881 -148.76499938964844,3.447000026702881 -148.76499938964844,3.447000026702881 C-157.32899475097656,3.447000026702881 -164.33599853515625,-3.559999942779541 -164.33599853515625,-12.12399959564209 C-164.33599853515625,-20.687999725341797 -157.32899475097656,-27.69499969482422 -148.76499938964844,-27.69499969482422 C-148.76499938964844,-27.69499969482422 -30.503000259399414,-27.69499969482422 -30.503000259399414,-27.69499969482422 C-21.93899917602539,-27.69499969482422 -14.932000160217285,-20.687000274658203 -14.932000160217285,-12.12399959564209 C-14.932000160217285,-3.559999942779541 -21.93899917602539,3.447000026702881 -30.503000259399414,3.447000026702881 M71.83699798583984,-78.01499938964844 C71.83699798583984,-78.01499938964844 45.75699996948242,-68.98400115966797 45.75699996948242,-68.98400115966797 M102.61699676513672,41.75199890136719 C112.24600219726562,29.350000381469727 112.24500274658203,18.11400032043457 106.81099700927734,-2.1679999828338623 C101.86000061035156,-20.648000717163086 94.55799865722656,-44.59000015258789 88.6719970703125,-64.94000244140625 M-33.13999938964844,97.88400268554688 C-33.13999938964844,56.108001708984375 -65.07099914550781,28.704999923706055 -102.2959976196289,28.704999923706055 C-140.51600646972656,28.704999923706055 -171.5,59.68899917602539 -171.5,97.90899658203125 C-101.49700164794922,97.90899658203125 57.45600128173828,97.90899658203125 127.45899963378906,97.90899658203125 C127.45899963378906,97.90899658203125 171.5,53.86800003051758 171.5,53.86800003051758 C159.82000732421875,42.1879997253418 143.97799682617188,35.625999450683594 127.45899963378906,35.625999450683594 C94.3479995727539,35.625999450683594 72.23600006103516,62.944000244140625 72.23600006103516,97.95500183105469 M-118.38600158691406,70.22699737548828 C-118.38600158691406,70.22699737548828 -86.20700073242188,70.22699737548828 -86.20700073242188,70.22699737548828 M127,-5.9 C127,-5.9 127,86.1 127,86.1 C127,86.1 -157,86.1 -157,86.1 C-157,86.1 -157,-5.9 -157,-5.9 C-157,-5.9 127,-5.9 127,-5.9z"></path><g opacity="1" transform="matrix(1,0,0,1,0,0)"><path stroke-linecap="round" stroke-linejoin="round" fill-opacity="0" stroke="rgb(32,118,255)" stroke-opacity="1" stroke-width="16" d=" M-72.20500183105469,-139.41600036621094 C-72.20500183105469,-139.41600036621094 -72.20500183105469,-88.01599884033203 -72.20500183105469,-88.01599884033203 C-72.20500183105469,-88.01599884033203 -89.63400268554688,-96.7300033569336 -89.63400268554688,-96.7300033569336 C-89.63400268554688,-96.7300033569336 -107.06300354003906,-88.01599884033203 -107.06300354003906,-88.01599884033203 C-107.06300354003906,-88.01599884033203 -107.06300354003906,-139.41600036621094 -107.06300354003906,-139.41600036621094"></path></g><g opacity="1" transform="matrix(1,0,0,1,0,0)"><path stroke-linecap="round" stroke-linejoin="round" fill-opacity="0" stroke="rgb(0,0,0)" stroke-opacity="1" stroke-width="16" d=" M-148.76499938964844,-31.187999725341797 C-148.76499938964844,-31.187999725341797 -148.76499938964844,-139.43099975585938 -148.76499938964844,-139.43099975585938 C-148.76499938964844,-139.43099975585938 -30.503000259399414,-139.43099975585938 -30.503000259399414,-139.43099975585938 C-30.503000259399414,-139.43099975585938 -30.503000259399414,-30.586999893188477 -30.503000259399414,-30.586999893188477"></path></g><g opacity="1" transform="matrix(1,0,0,1,0,0)"><path stroke-linecap="round" stroke-linejoin="round" fill-opacity="0" stroke="rgb(32,118,255)" stroke-opacity="1" stroke-width="16" d=" M-135.3280029296875,4.396999835968018 C-135.3280029296875,4.396999835968018 -148.66200256347656,29.358999252319336 -148.66200256347656,29.358999252319336 C-148.66200256347656,29.358999252319336 -148.66200256347656,46.59299850463867 -148.66200256347656,46.59299850463867"></path></g><g opacity="1" transform="matrix(1,0,0,1,0,0)"><path stroke-linecap="round" stroke-linejoin="round" fill-opacity="0" stroke="rgb(32,118,255)" stroke-opacity="1" stroke-width="16" d=" M59.92599868774414,-66.69100189208984 C59.92599868774414,-66.69100189208984 115.33699798583984,-63.1619987487793 115.33699798583984,-63.1619987487793 C115.33699798583984,-63.1619987487793 115.33699798583984,-104.68499755859375 115.33699798583984,-104.68499755859375 C115.33699798583984,-104.68499755859375 63.435001373291016,-101.2239990234375 63.435001373291016,-101.2239990234375 C63.435001373291016,-101.2239990234375 59.9739990234375,-66.62300109863281 59.9739990234375,-66.62300109863281 C75.04900360107422,-10.362000465393066 85.79199981689453,12.510000228881836 38.361000061035156,70.22699737548828 C26.59600067138672,70.22699737548828 0.9909999966621399,70.22699737548828 -10.77400016784668,70.22699737548828 C-21.020999908447266,52.47800064086914 -30.503000259399414,33.72100067138672 -30.503000259399414,3.447000026702881 C-30.503000259399414,3.447000026702881 -148.76499938964844,3.447000026702881 -148.76499938964844,3.447000026702881 C-157.32899475097656,3.447000026702881 -164.33599853515625,-3.559999942779541 -164.33599853515625,-12.12399959564209 C-164.33599853515625,-20.687999725341797 -157.32899475097656,-27.69499969482422 -148.76499938964844,-27.69499969482422 C-148.76499938964844,-27.69499969482422 -30.503000259399414,-27.69499969482422 -30.503000259399414,-27.69499969482422 C-21.93899917602539,-27.69499969482422 -14.932000160217285,-20.687000274658203 -14.932000160217285,-12.12399959564209 C-14.932000160217285,-3.559999942779541 -21.93899917602539,3.447000026702881 -30.503000259399414,3.447000026702881"></path></g><g opacity="1" transform="matrix(1,0,0,1,0,0)"><path stroke-linecap="round" stroke-linejoin="round" fill-opacity="0" stroke="rgb(32,118,255)" stroke-opacity="1" stroke-width="16" d=" M71.83699798583984,-78.01499938964844 C71.83699798583984,-78.01499938964844 45.75699996948242,-68.98400115966797 45.75699996948242,-68.98400115966797"></path></g><g opacity="1" transform="matrix(1,0,0,1,0,0)"><path stroke-linecap="round" stroke-linejoin="round" fill-opacity="0" stroke="rgb(32,118,255)" stroke-opacity="1" stroke-width="16" d=" M102.61699676513672,41.75199890136719 C112.24600219726562,29.350000381469727 112.24500274658203,18.11400032043457 106.81099700927734,-2.1679999828338623 C101.86000061035156,-20.648000717163086 94.55799865722656,-44.59000015258789 88.6719970703125,-64.94000244140625"></path></g><g opacity="1" transform="matrix(1,0,0,1,0,0)"><path stroke-linecap="round" stroke-linejoin="round" fill-opacity="0" stroke="rgb(32,118,255)" stroke-opacity="1" stroke-width="16" d=" M-33.13999938964844,97.88400268554688 C-33.13999938964844,56.108001708984375 -65.07099914550781,28.704999923706055 -102.2959976196289,28.704999923706055 C-140.51600646972656,28.704999923706055 -171.5,59.68899917602539 -171.5,97.90899658203125 C-101.49700164794922,97.90899658203125 57.45600128173828,97.90899658203125 127.45899963378906,97.90899658203125 C127.45899963378906,97.90899658203125 171.5,53.86800003051758 171.5,53.86800003051758 C159.82000732421875,42.1879997253418 143.97799682617188,35.625999450683594 127.45899963378906,35.625999450683594 C94.3479995727539,35.625999450683594 72.23600006103516,62.944000244140625 72.23600006103516,97.95500183105469"></path></g><g opacity="1" transform="matrix(1,0,0,1,0,0)"><path stroke-linecap="round" stroke-linejoin="round" fill-opacity="0" stroke="rgb(32,118,255)" stroke-opacity="1" stroke-width="16" d=" M-118.38600158691406,70.22699737548828 C-118.38600158691406,70.22699737548828 -86.20700073242188,70.22699737548828 -86.20700073242188,70.22699737548828"></path></g><g opacity="1" transform="matrix(1,0,0,1,-14.99899959564209,40.09700012207031)"><path fill="rgb(255,0,0)" fill-opacity="1" d=" M142,-46 C142,-46 142,46 142,46 C142,46 -142,46 -142,46 C-142,46 -142,-46 -142,-46 C-142,-46 142,-46 142,-46z"></path><path stroke-linecap="butt" stroke-linejoin="miter" fill-opacity="0" stroke-miterlimit="4" stroke="rgb(0,0,0)" stroke-opacity="1" stroke-width="16" d=" M142,-46 C142,-46 142,46 142,46 C142,46 -142,46 -142,46 C-142,46 -142,-46 -142,-46 C-142,-46 142,-46 142,-46z"></path></g></g></g><filter id="__lottie_element_173" filterUnits="objectBoundingBox" x="0%" y="0%" width="100%" height="100%"><feComponentTransfer in="SourceGraphic"><feFuncA type="table" tableValues="1.0 0.0"></feFuncA></feComponentTransfer></filter><mask id="__lottie_element_167_2" mask-type="alpha"><g filter="url(#__lottie_element_173)"><rect width="500" height="500" x="0" y="0" fill="#ffffff" opacity="0"></rect><use xlink:href="#__lottie_element_167"></use></g></mask></defs><g clip-path="url(#__lottie_element_161)"><g mask="url(#__lottie_element_167_2)" style="display: block;"><g transform="matrix(1,0,0,1,234.96517944335938,249.5889892578125)" opacity="1"><g opacity="1" transform="matrix(1,0,0,1,0,0)"><path stroke-linecap="round" stroke-linejoin="round" fill-opacity="0" stroke="rgb(0,0,0)" stroke-opacity="1" stroke-width="16" d=" M-60.78099822998047,98.16100311279297 C-60.78099822998047,121.08999633789062 -79.36799621582031,139.677001953125 -102.2969970703125,139.677001953125 C-125.22599792480469,139.677001953125 -143.81199645996094,121.08999633789062 -143.81199645996094,98.16100311279297 C-143.81199645996094,75.23200225830078 -125.22599792480469,56.64500045776367 -102.2969970703125,56.64500045776367 C-79.36799621582031,56.64500045776367 -60.78099822998047,75.23200225830078 -60.78099822998047,98.16100311279297z"></path></g><g opacity="1" transform="matrix(1,0,0,1,0,0)"><path stroke-linecap="round" stroke-linejoin="round" fill-opacity="0" stroke="rgb(0,0,0)" stroke-opacity="1" stroke-width="16" d=" M169.0189971923828,98.16100311279297 C169.0189971923828,121.08999633789062 150.4320068359375,139.677001953125 127.50299835205078,139.677001953125 C104.5739974975586,139.677001953125 85.98799896240234,121.08999633789062 85.98799896240234,98.16100311279297 C85.98799896240234,75.23200225830078 104.5739974975586,56.64500045776367 127.50299835205078,56.64500045776367 C150.4320068359375,56.64500045776367 169.0189971923828,75.23200225830078 169.0189971923828,98.16100311279297z"></path></g><g opacity="1" transform="matrix(1,0,0,1,-4.396999835968018,109.91100311279297)"><path stroke-linecap="butt" stroke-linejoin="miter" fill-opacity="0" stroke-miterlimit="4" stroke="rgb(0,0,0)" stroke-opacity="0" stroke-width="16" d=" M254,-137.5 C254,-137.5 254,137.5 254,137.5 C254,137.5 -254,137.5 -254,137.5 C-254,137.5 -254,-137.5 -254,-137.5 C-254,-137.5 254,-137.5 254,-137.5z"></path></g></g></g><g transform="matrix(0.9991652369499207,-0.04085146263241768,0.04085146263241768,0.9991652369499207,231.5741424560547,246.19418334960938)" opacity="1" style="display: block;"><g opacity="1" transform="matrix(1,0,0,1,0,0)"><path stroke-linecap="round" stroke-linejoin="round" fill-opacity="0" stroke="rgb(32,118,255)" stroke-opacity="1" stroke-width="16" d=" M-72.20500183105469,-139.41600036621094 C-72.20500183105469,-139.41600036621094 -72.20500183105469,-88.01599884033203 -72.20500183105469,-88.01599884033203 C-72.20500183105469,-88.01599884033203 -89.63400268554688,-96.7300033569336 -89.63400268554688,-96.7300033569336 C-89.63400268554688,-96.7300033569336 -107.06300354003906,-88.01599884033203 -107.06300354003906,-88.01599884033203 C-107.06300354003906,-88.01599884033203 -107.06300354003906,-139.41600036621094 -107.06300354003906,-139.41600036621094"></path></g><g opacity="1" transform="matrix(1,0,0,1,0,0)"><path stroke-linecap="round" stroke-linejoin="round" fill-opacity="0" stroke="rgb(0,0,0)" stroke-opacity="1" stroke-width="16" d=" M-148.76499938964844,-31.187999725341797 C-148.76499938964844,-31.187999725341797 -148.76499938964844,-139.43099975585938 -148.76499938964844,-139.43099975585938 C-148.76499938964844,-139.43099975585938 -30.503000259399414,-139.43099975585938 -30.503000259399414,-139.43099975585938 C-30.503000259399414,-139.43099975585938 -30.503000259399414,-30.586999893188477 -30.503000259399414,-30.586999893188477"></path></g><g opacity="1" transform="matrix(1,0,0,1,0,0)"><path stroke-linecap="round" stroke-linejoin="round" fill-opacity="0" stroke="rgb(32,118,255)" stroke-opacity="1" stroke-width="16" d=" M-135.3280029296875,4.396999835968018 C-135.3280029296875,4.396999835968018 -148.66200256347656,29.358999252319336 -148.66200256347656,29.358999252319336 C-148.66200256347656,29.358999252319336 -148.66200256347656,46.59299850463867 -148.66200256347656,46.59299850463867"></path></g><g opacity="1" transform="matrix(1,0,0,1,0,0)"><path stroke-linecap="round" stroke-linejoin="round" fill-opacity="0" stroke="rgb(32,118,255)" stroke-opacity="1" stroke-width="16" d=" M59.92599868774414,-66.69100189208984 C59.92599868774414,-66.69100189208984 115.33699798583984,-63.1619987487793 115.33699798583984,-63.1619987487793 C115.33699798583984,-63.1619987487793 115.33699798583984,-104.68499755859375 115.33699798583984,-104.68499755859375 C115.33699798583984,-104.68499755859375 63.435001373291016,-101.2239990234375 63.435001373291016,-101.2239990234375 C63.435001373291016,-101.2239990234375 59.9739990234375,-66.62300109863281 59.9739990234375,-66.62300109863281 C75.04900360107422,-10.362000465393066 85.79199981689453,12.510000228881836 38.361000061035156,70.22699737548828 C26.59600067138672,70.22699737548828 0.9909999966621399,70.22699737548828 -10.77400016784668,70.22699737548828 C-21.020999908447266,52.47800064086914 -30.503000259399414,33.72100067138672 -30.503000259399414,3.447000026702881 C-30.503000259399414,3.447000026702881 -148.76499938964844,3.447000026702881 -148.76499938964844,3.447000026702881 C-157.32899475097656,3.447000026702881 -164.33599853515625,-3.559999942779541 -164.33599853515625,-12.12399959564209 C-164.33599853515625,-20.687999725341797 -157.32899475097656,-27.69499969482422 -148.76499938964844,-27.69499969482422 C-148.76499938964844,-27.69499969482422 -30.503000259399414,-27.69499969482422 -30.503000259399414,-27.69499969482422 C-21.93899917602539,-27.69499969482422 -14.932000160217285,-20.687000274658203 -14.932000160217285,-12.12399959564209 C-14.932000160217285,-3.559999942779541 -21.93899917602539,3.447000026702881 -30.503000259399414,3.447000026702881"></path></g><g opacity="1" transform="matrix(1,0,0,1,0,0)"><path stroke-linecap="round" stroke-linejoin="round" fill-opacity="0" stroke="rgb(32,118,255)" stroke-opacity="1" stroke-width="16" d=" M71.83699798583984,-78.01499938964844 C71.83699798583984,-78.01499938964844 45.75699996948242,-68.98400115966797 45.75699996948242,-68.98400115966797"></path></g><g opacity="1" transform="matrix(1,0,0,1,0,0)"><path stroke-linecap="round" stroke-linejoin="round" fill-opacity="0" stroke="rgb(32,118,255)" stroke-opacity="1" stroke-width="16" d=" M102.61699676513672,41.75199890136719 C112.24600219726562,29.350000381469727 112.24500274658203,18.11400032043457 106.81099700927734,-2.1679999828338623 C101.86000061035156,-20.648000717163086 94.55799865722656,-44.59000015258789 88.6719970703125,-64.94000244140625"></path></g><g opacity="1" transform="matrix(1,0,0,1,0,0)"><path stroke-linecap="round" stroke-linejoin="round" fill-opacity="0" stroke="rgb(32,118,255)" stroke-opacity="1" stroke-width="16" d=" M-33.13999938964844,97.88400268554688 C-33.13999938964844,56.108001708984375 -65.07099914550781,28.704999923706055 -102.2959976196289,28.704999923706055 C-140.51600646972656,28.704999923706055 -171.5,59.68899917602539 -171.5,97.90899658203125 C-101.49700164794922,97.90899658203125 57.45600128173828,97.90899658203125 127.45899963378906,97.90899658203125 C127.45899963378906,97.90899658203125 171.5,53.86800003051758 171.5,53.86800003051758 C159.82000732421875,42.1879997253418 143.97799682617188,35.625999450683594 127.45899963378906,35.625999450683594 C94.3479995727539,35.625999450683594 72.23600006103516,62.944000244140625 72.23600006103516,97.95500183105469"></path></g><g opacity="1" transform="matrix(1,0,0,1,0,0)"><path stroke-linecap="round" stroke-linejoin="round" fill-opacity="0" stroke="rgb(32,118,255)" stroke-opacity="1" stroke-width="16" d=" M-118.38600158691406,70.22699737548828 C-118.38600158691406,70.22699737548828 -86.20700073242188,70.22699737548828 -86.20700073242188,70.22699737548828"></path></g></g><g transform="matrix(1,0,0,1,284,238)" opacity="1" style="display: block;"><g opacity="1" transform="matrix(1,0,0,1,0,0)"><path stroke-linecap="round" stroke-linejoin="miter" fill-opacity="0" stroke-miterlimit="4" stroke="rgb(0,0,0)" stroke-opacity="1" stroke-width="16" d=" M37.64799880981445,-140 C12.954000473022461,-140 -6,-140 -6,-140"></path></g></g><g transform="matrix(1,0,0,1,158,447)" opacity="1" style="display: block;"><g opacity="1" transform="matrix(1,0,0,1,0,0)"><path stroke-linecap="round" stroke-linejoin="miter" fill-opacity="0" stroke-miterlimit="4" stroke="rgb(0,0,0)" stroke-opacity="1" stroke-width="16" d=" M150,-140 C150,-140 75.99099731445312,-140 29.924999237060547,-140"></path></g></g><g transform="matrix(1,0,0,1,52,386)" opacity="1" style="display: block;"><g opacity="1" transform="matrix(1,0,0,1,0,0)"><path stroke-linecap="round" stroke-linejoin="miter" fill-opacity="0" stroke-miterlimit="4" stroke="rgb(0,0,0)" stroke-opacity="1" stroke-width="16" d=" M92.98200225830078,-140 C48.42499923706055,-140 -6,-140 -6,-140"></path></g></g><g transform="matrix(1,0,0,1,328,317)" opacity="1" style="display: block;"><g opacity="1" transform="matrix(1,0,0,1,0,0)"><path stroke-linecap="round" stroke-linejoin="miter" fill-opacity="0" stroke-miterlimit="4" stroke="rgb(0,0,0)" stroke-opacity="1" stroke-width="16" d=" M150,-140 C150,-140 115.072998046875,-140 78.27100372314453,-140"></path></g></g><g transform="matrix(1,0,0,1,144,194)" opacity="1" style="display: none;"><g opacity="1" transform="matrix(1,0,0,1,0,0)"><path stroke-linecap="round" stroke-linejoin="miter" fill-opacity="0" stroke-miterlimit="4" stroke="rgb(0,0,0)" stroke-opacity="1" stroke-width="16" d="M0 0"></path></g></g><g transform="matrix(1,0,0,1,218,338)" opacity="1" style="display: none;"><g opacity="1" transform="matrix(1,0,0,1,0,0)"><path stroke-linecap="round" stroke-linejoin="miter" fill-opacity="0" stroke-miterlimit="4" stroke="rgb(0,0,0)" stroke-opacity="1" stroke-width="16" d="M0 0"></path></g></g><g transform="matrix(1,0,0,1.0704200267791748,288,408)" opacity="1" style="display: none;"><g opacity="1" transform="matrix(1,0,0,1,0,0)"><path stroke-linecap="round" stroke-linejoin="miter" fill-opacity="0" stroke-miterlimit="4" stroke="rgb(0,0,0)" stroke-opacity="1" stroke-width="16" d="M0 0"></path></g></g><g transform="matrix(1,0,0,1.225350022315979,61,454)" opacity="1" style="display: none;"><g opacity="1" transform="matrix(1,0,0,1,0,0)"><path stroke-linecap="round" stroke-linejoin="miter" fill-opacity="0" stroke-miterlimit="4" stroke="rgb(0,0,0)" stroke-opacity="1" stroke-width="16" d="M0 0"></path></g></g></g></svg>