<svg xmlns="http://www.w3.org/2000/svg" xmlns:xlink="http://www.w3.org/1999/xlink" viewBox="0 0 500 500" width="500" height="500" preserveAspectRatio="xMidYMid meet" style="width: 100%; height: 100%; transform: translate3d(0px, 0px, 0px); content-visibility: visible;"><defs><clipPath id="__lottie_element_112"><rect width="500" height="500" x="0" y="0"></rect></clipPath><g id="__lottie_element_118"><g transform="matrix(0.5617513060569763,-0.8273061513900757,0.8273061513900757,0.5617513060569763,547.1044311523438,469.12249755859375)" opacity="1" style="display: block;"><path fill="rgb(255,0,0)" fill-opacity="1" d=" M120.36499786376953,-123.42900085449219 C120.36499786376953,-123.42900085449219 77.06400299072266,-48.42900085449219 77.06400299072266,-48.42900085449219 C77.06400299072266,-48.42900085449219 163.66600036621094,-48.42900085449219 163.66600036621094,-48.42900085449219 C163.66600036621094,-48.42900085449219 120.36499786376953,-123.42900085449219 120.36499786376953,-123.42900085449219z M120.36499786376953,-48.42900085449219 C120.36499786376953,-48.42900085449219 120.36499786376953,0 120.36499786376953,0"></path><g opacity="1" transform="matrix(1,0,0,1,0,0)"><path stroke-linecap="round" stroke-linejoin="round" fill-opacity="0" stroke="rgb(0,0,0)" stroke-opacity="1" stroke-width="16" d=" M120.36499786376953,-123.42900085449219 C120.36499786376953,-123.42900085449219 77.06400299072266,-48.42900085449219 77.06400299072266,-48.42900085449219 C77.06400299072266,-48.42900085449219 163.66600036621094,-48.42900085449219 163.66600036621094,-48.42900085449219 C163.66600036621094,-48.42900085449219 120.36499786376953,-123.42900085449219 120.36499786376953,-123.42900085449219z"></path></g><g opacity="1" transform="matrix(1,0,0,1,0,0)"><path stroke-linecap="round" stroke-linejoin="round" fill-opacity="0" stroke="rgb(0,0,0)" stroke-opacity="1" stroke-width="16" d=" M120.36499786376953,-48.42900085449219 C120.36499786376953,-48.42900085449219 120.36499786376953,0 120.36499786376953,0"></path></g></g></g><g id="__lottie_element_124"><g transform="matrix(0.5617513060569763,-0.8273061513900757,0.8273061513900757,0.5617513060569763,547.1044311523438,469.12249755859375)" opacity="1" style="display: block;"><path fill="rgb(255,0,0)" fill-opacity="1" d=" M120.36499786376953,-123.42900085449219 C120.36499786376953,-123.42900085449219 77.06400299072266,-48.42900085449219 77.06400299072266,-48.42900085449219 C77.06400299072266,-48.42900085449219 163.66600036621094,-48.42900085449219 163.66600036621094,-48.42900085449219 C163.66600036621094,-48.42900085449219 120.36499786376953,-123.42900085449219 120.36499786376953,-123.42900085449219z M120.36499786376953,-48.42900085449219 C120.36499786376953,-48.42900085449219 120.36499786376953,0 120.36499786376953,0"></path><g opacity="1" transform="matrix(1,0,0,1,0,0)"><path stroke-linecap="round" stroke-linejoin="round" fill-opacity="0" stroke="rgb(0,0,0)" stroke-opacity="1" stroke-width="16" d=" M120.36499786376953,-123.42900085449219 C120.36499786376953,-123.42900085449219 77.06400299072266,-48.42900085449219 77.06400299072266,-48.42900085449219 C77.06400299072266,-48.42900085449219 163.66600036621094,-48.42900085449219 163.66600036621094,-48.42900085449219 C163.66600036621094,-48.42900085449219 120.36499786376953,-123.42900085449219 120.36499786376953,-123.42900085449219z"></path></g><g opacity="1" transform="matrix(1,0,0,1,0,0)"><path stroke-linecap="round" stroke-linejoin="round" fill-opacity="0" stroke="rgb(0,0,0)" stroke-opacity="1" stroke-width="16" d=" M120.36499786376953,-48.42900085449219 C120.36499786376953,-48.42900085449219 120.36499786376953,0 120.36499786376953,0"></path></g></g></g><filter id="__lottie_element_130" filterUnits="objectBoundingBox" x="0%" y="0%" width="100%" height="100%"><feComponentTransfer in="SourceGraphic"><feFuncA type="table" tableValues="1.0 0.0"></feFuncA></feComponentTransfer></filter><mask id="__lottie_element_124_2" mask-type="alpha"><g filter="url(#__lottie_element_130)"><rect width="500" height="500" x="0" y="0" fill="#ffffff" opacity="0"></rect><use xlink:href="#__lottie_element_124"></use></g></mask><filter id="__lottie_element_131" filterUnits="objectBoundingBox" x="0%" y="0%" width="100%" height="100%"><feComponentTransfer in="SourceGraphic"><feFuncA type="table" tableValues="1.0 0.0"></feFuncA></feComponentTransfer></filter><mask id="__lottie_element_118_2" mask-type="alpha"><g filter="url(#__lottie_element_131)"><rect width="500" height="500" x="0" y="0" fill="#ffffff" opacity="0"></rect><use xlink:href="#__lottie_element_118"></use></g></mask></defs><g clip-path="url(#__lottie_element_112)"><g mask="url(#__lottie_element_118_2)" style="display: block;"><g transform="matrix(1,0,0,1,250,250)" opacity="1"><g opacity="1" transform="matrix(1,0,0,1,0,0)"><path stroke-linecap="round" stroke-linejoin="round" fill-opacity="0" stroke="rgb(0,0,0)" stroke-opacity="1" stroke-width="16" d=" M181.3000030517578,181.3000030517578 C181.3000030517578,181.3000030517578 -181.3000030517578,181.3000030517578 -181.3000030517578,181.3000030517578 C-181.3000030517578,181.3000030517578 -181.3000030517578,-181.3000030517578 -181.3000030517578,-181.3000030517578 C-181.3000030517578,-181.3000030517578 181.3000030517578,-181.3000030517578 181.3000030517578,-181.3000030517578 C181.3000030517578,-181.3000030517578 181.3000030517578,181.3000030517578 181.3000030517578,181.3000030517578z"></path></g><g opacity="1" transform="matrix(1,0,0,1,0,0)"><path stroke-linecap="round" stroke-linejoin="round" fill-opacity="0" stroke="rgb(0,0,0)" stroke-opacity="1" stroke-width="16" d=" M-181.3000030517578,-90.27400207519531 C-181.3000030517578,-90.27400207519531 181.3000030517578,-90.27400207519531 181.3000030517578,-90.27400207519531"></path></g><g opacity="1" transform="matrix(1,0,0,1,0,0)"><path stroke-linecap="round" stroke-linejoin="round" fill-opacity="0" stroke="rgb(32,118,255)" stroke-opacity="1" stroke-width="16" d=" M-135.41099548339844,-30.090999603271484 C-135.41099548339844,-30.090999603271484 -60.18299865722656,-30.090999603271484 -60.18299865722656,-30.090999603271484"></path></g><g opacity="1" transform="matrix(1,0,0,1,0,0)"><path stroke-linecap="round" stroke-linejoin="round" fill-opacity="0" stroke="rgb(32,118,255)" stroke-opacity="1" stroke-width="16" d=" M-60.18299865722656,30.090999603271484 C-60.18299865722656,30.090999603271484 -135.41099548339844,30.090999603271484 -135.41099548339844,30.090999603271484"></path></g><g opacity="1" transform="matrix(1,0,0,1,0,0)"><path stroke-linecap="round" stroke-linejoin="round" fill-opacity="0" stroke="rgb(32,118,255)" stroke-opacity="1" stroke-width="16" d=" M-135.41099548339844,75.22799682617188 C-135.41099548339844,75.22799682617188 -135.41099548339844,120.36499786376953 -135.41099548339844,120.36499786376953 C-135.41099548339844,120.36499786376953 -60.18299865722656,120.36499786376953 -60.18299865722656,120.36499786376953 C-60.18299865722656,120.36499786376953 -60.18299865722656,75.22799682617188 -60.18299865722656,75.22799682617188 C-60.18299865722656,75.22799682617188 -135.41099548339844,75.22799682617188 -135.41099548339844,75.22799682617188z"></path></g><g opacity="1" transform="matrix(1,0,0,1,0,0)"><path stroke-linecap="round" stroke-linejoin="round" fill-opacity="0" stroke="rgb(32,118,255)" stroke-opacity="1" stroke-width="16" d=" M-90.4489974975586,-135.7480010986328 C-90.4489974975586,-135.7480010986328 -90.29900360107422,-135.7480010986328 -90.29900360107422,-135.7480010986328"></path></g><g opacity="1" transform="matrix(1,0,0,1,0,0)"><path stroke-linecap="round" stroke-linejoin="round" fill-opacity="0" stroke="rgb(32,118,255)" stroke-opacity="1" stroke-width="16" d=" M-45.43299865722656,-135.7480010986328 C-45.43299865722656,-135.7480010986328 -45.28300094604492,-135.7480010986328 -45.28300094604492,-135.7480010986328"></path></g><g opacity="1" transform="matrix(1,0,0,1,0,0)"><path stroke-linecap="round" stroke-linejoin="round" fill-opacity="0" stroke="rgb(32,118,255)" stroke-opacity="1" stroke-width="16" d=" M-135.58099365234375,-135.7480010986328 C-135.58099365234375,-135.7480010986328 -135.4320068359375,-135.7480010986328 -135.4320068359375,-135.7480010986328"></path></g></g></g><g mask="url(#__lottie_element_124_2)" style="display: block;"><g transform="matrix(1,0,0,1,250,250)" opacity="1"><g opacity="1" transform="matrix(1,0,0,1,0,0)"><g opacity="1" transform="matrix(1,0,0,1,0,0)"><path stroke-linecap="round" stroke-linejoin="round" fill-opacity="0" stroke="rgb(0,0,0)" stroke-opacity="1" stroke-width="16" d=" M105.31900024414062,67.70500183105469 C105.31900024414062,67.70500183105469 7.5229997634887695,67.70500183105469 7.5229997634887695,67.70500183105469 C7.5229997634887695,67.70500183105469 7.5229997634887695,-15.045999526977539 7.5229997634887695,-15.045999526977539 C7.5229997634887695,-15.045999526977539 135.41099548339844,-15.045999526977539 135.41099548339844,-15.045999526977539 C135.41099548339844,-15.045999526977539 105.31900024414062,67.70500183105469 105.31900024414062,67.70500183105469z"></path></g><g opacity="1" transform="matrix(1,0,0,1,0,0)"><path stroke-linecap="round" stroke-linejoin="round" fill-opacity="0" stroke="rgb(0,0,0)" stroke-opacity="1" stroke-width="16" d=" M60.18299865722656,67.70500183105469 C60.18299865722656,67.70500183105469 71.46700286865234,-15.045999526977539 71.46700286865234,-15.045999526977539"></path></g><g opacity="1" transform="matrix(1,0,0,1,0,0)"><path stroke-linecap="round" stroke-linejoin="round" fill-opacity="0" stroke="rgb(0,0,0)" stroke-opacity="1" stroke-width="16" d=" M105.31900024414062,67.70500183105469 C105.31900024414062,67.70500183105469 7.5229997634887695,67.70500183105469 7.5229997634887695,67.70500183105469 C-4.940999984741211,67.70500183105469 -15.045999526977539,77.80999755859375 -15.045999526977539,90.27400207519531 C-15.045999526977539,90.27400207519531 -15.045999526977539,90.27400207519531 -15.045999526977539,90.27400207519531 C-15.045999526977539,102.73799896240234 -4.940999984741211,112.84200286865234 7.5229997634887695,112.84200286865234 C7.5229997634887695,112.84200286865234 135.41099548339844,112.84200286865234 135.41099548339844,112.84200286865234"></path></g><g opacity="1" transform="matrix(1,0,0,1,0,0)"><path stroke-linecap="round" stroke-linejoin="round" fill-opacity="0" stroke="rgb(0,0,0)" stroke-opacity="1" stroke-width="16" d=" M120.36499786376953,25.577999114990234 C120.36499786376953,25.577999114990234 7.5229997634887695,25.577999114990234 7.5229997634887695,25.577999114990234"></path></g><g opacity="1" transform="matrix(1,0,0,1,0,0)"><path stroke-linecap="round" stroke-linejoin="round" fill-opacity="0" stroke="rgb(0,0,0)" stroke-opacity="1" stroke-width="16" d=" M15.045999526977539,112.84200286865234 C15.045999526977539,112.84200286865234 15.045999526977539,135.41099548339844 15.045999526977539,135.41099548339844"></path></g><g opacity="1" transform="matrix(1,0,0,1,0,0)"><path stroke-linecap="round" stroke-linejoin="round" fill-opacity="0" stroke="rgb(0,0,0)" stroke-opacity="1" stroke-width="16" d=" M105.31900024414062,112.84200286865234 C105.31900024414062,112.84200286865234 105.31900024414062,135.41099548339844 105.31900024414062,135.41099548339844"></path></g></g><g opacity="1" transform="matrix(1,0,0,1,0,0)"><path stroke-linecap="round" stroke-linejoin="round" fill-opacity="0" stroke="rgb(0,0,0)" stroke-opacity="1" stroke-width="16" d=" M-15.045999526977539,-45.137001037597656 C-15.045999526977539,-45.137001037597656 7.5229997634887695,-45.137001037597656 7.5229997634887695,-45.137001037597656 C7.5229997634887695,-45.137001037597656 7.5229997634887695,-15.045999526977539 7.5229997634887695,-15.045999526977539"></path></g></g></g><g transform="matrix(0.5617513060569763,-0.8273061513900757,0.8273061513900757,0.5617513060569763,547.1044311523438,469.12249755859375)" opacity="1" style="display: block;"><g opacity="1" transform="matrix(1,0,0,1,0,0)"><path stroke-linecap="round" stroke-linejoin="round" fill-opacity="0" stroke="rgb(0,0,0)" stroke-opacity="1" stroke-width="16" d=" M120.36499786376953,-123.42900085449219 C120.36499786376953,-123.42900085449219 77.06400299072266,-48.42900085449219 77.06400299072266,-48.42900085449219 C77.06400299072266,-48.42900085449219 163.66600036621094,-48.42900085449219 163.66600036621094,-48.42900085449219 C163.66600036621094,-48.42900085449219 120.36499786376953,-123.42900085449219 120.36499786376953,-123.42900085449219z"></path></g><g opacity="1" transform="matrix(1,0,0,1,0,0)"><path stroke-linecap="round" stroke-linejoin="round" fill-opacity="0" stroke="rgb(0,0,0)" stroke-opacity="1" stroke-width="16" d=" M120.36499786376953,-48.42900085449219 C120.36499786376953,-48.42900085449219 120.36499786376953,0 120.36499786376953,0"></path></g></g><g transform="matrix(1,0,0,1,220,262)" opacity="1" style="display: none;"><g opacity="1" transform="matrix(1,0,0,1,0,0)"><path stroke-linecap="round" stroke-linejoin="miter" fill-opacity="0" stroke-miterlimit="4" stroke="rgb(32,118,255)" stroke-opacity="1" stroke-width="16" d="M0 0"></path></g></g><g transform="matrix(-0.450269877910614,-0.8928925395011902,0.8928925395011902,-0.450269877910614,353.9884033203125,350.22467041015625)" opacity="1" style="display: none;"><g opacity="1" transform="matrix(1,0,0,1,0,0)"><path stroke-linecap="round" stroke-linejoin="miter" fill-opacity="0" stroke-miterlimit="4" stroke="rgb(32,118,255)" stroke-opacity="1" stroke-width="16" d="M0 0"></path></g></g><g transform="matrix(-0.999999463558197,0.0010122908279299736,-0.0010122908279299736,-0.999999463558197,416.9634704589844,285.833984375)" opacity="1" style="display: none;"><g opacity="1" transform="matrix(1,0,0,1,0,0)"><path stroke-linecap="round" stroke-linejoin="miter" fill-opacity="0" stroke-miterlimit="4" stroke="rgb(32,118,255)" stroke-opacity="1" stroke-width="16" d="M0 0"></path></g></g><g transform="matrix(0.34709933400154114,0.9378283619880676,-0.9378283619880676,0.34709933400154114,277.31390380859375,184.6917266845703)" opacity="1" style="display: none;"><g opacity="1" transform="matrix(1,0,0,1,0,0)"><path stroke-linecap="round" stroke-linejoin="miter" fill-opacity="0" stroke-miterlimit="4" stroke="rgb(32,118,255)" stroke-opacity="1" stroke-width="16" d="M0 0"></path></g></g></g></svg>