<svg xmlns="http://www.w3.org/2000/svg" xmlns:xlink="http://www.w3.org/1999/xlink" viewBox="0 0 500 500" width="500" height="500" preserveAspectRatio="xMidYMid meet" style="width: 100%; height: 100%; transform: translate3d(0px, 0px, 0px); content-visibility: visible;"><defs><clipPath id="__lottie_element_253"><rect width="500" height="500" x="0" y="0"></rect></clipPath><g id="__lottie_element_258"><g transform="matrix(0.999988317489624,-0.004830571822822094,0.004830571822822094,0.999988317489624,246.73818969726562,250.95205688476562)" opacity="1" style="display: block;"><g opacity="1" transform="matrix(1.1917999982833862,0,0,1.1917999982833862,112.34200286865234,-13.342000007629395)"><path fill="rgb(255,188,188)" fill-opacity="1" d=" M0,-58.34199905395508 C32.19894790649414,-58.34199905395508 58.34199905395508,-32.19894790649414 58.34199905395508,0 C58.34199905395508,32.19894790649414 32.19894790649414,58.34199905395508 0,58.34199905395508 C-32.19894790649414,58.34199905395508 -58.34199905395508,32.19894790649414 -58.34199905395508,0 C-58.34199905395508,-32.19894790649414 -32.19894790649414,-58.34199905395508 0,-58.34199905395508z"></path></g><g opacity="1" transform="matrix(1,0,0,1,113.1719970703125,133.63699340820312)"><path fill="rgb(255,188,188)" fill-opacity="1" d=" M26.172000885009766,-46.63650131225586 C26.172000885009766,-46.63650131225586 26.172000885009766,46.63650131225586 26.172000885009766,46.63650131225586 C26.172000885009766,46.63650131225586 -26.172000885009766,46.63650131225586 -26.172000885009766,46.63650131225586 C-26.172000885009766,46.63650131225586 -26.172000885009766,-46.63650131225586 -26.172000885009766,-46.63650131225586 C-26.172000885009766,-46.63650131225586 26.172000885009766,-46.63650131225586 26.172000885009766,-46.63650131225586z"></path></g></g></g><filter id="__lottie_element_277" filterUnits="objectBoundingBox" x="0%" y="0%" width="100%" height="100%"><feComponentTransfer in="SourceGraphic"><feFuncA type="table" tableValues="1.0 0.0"></feFuncA></feComponentTransfer></filter><mask id="__lottie_element_258_2" mask-type="alpha"><g filter="url(#__lottie_element_277)"><rect width="500" height="500" x="0" y="0" fill="#ffffff" opacity="0"></rect><use xlink:href="#__lottie_element_258"></use></g></mask></defs><g clip-path="url(#__lottie_element_253)"><g mask="url(#__lottie_element_258_2)" style="display: block;"><g transform="matrix(1,0,0,1,44.501007080078125,44.501007080078125)" opacity="1"><g opacity="1" transform="matrix(1,0,0,1,0,0)"><path stroke-linecap="round" stroke-linejoin="round" fill-opacity="0" stroke="rgb(0,0,0)" stroke-opacity="1" stroke-width="16" d=" M39.999000549316406,82.8740005493164 C39.999000549316406,82.8740005493164 382.9989929199219,82.8740005493164 382.9989929199219,82.8740005493164"></path></g><g opacity="1" transform="matrix(1,0,0,1,0,0)"><path stroke-linecap="round" stroke-linejoin="round" fill-opacity="0" stroke="rgb(0,0,0)" stroke-opacity="1" stroke-width="16" d=" M340.1239929199219,39.999000549316406 C340.1239929199219,39.999000549316406 340.1239929199219,82.8740005493164 340.1239929199219,82.8740005493164"></path></g><g opacity="1" transform="matrix(1,0,0,1,0,0)"><path stroke-linecap="round" stroke-linejoin="round" fill-opacity="0" stroke="rgb(0,0,0)" stroke-opacity="1" stroke-width="16" d=" M297.2489929199219,39.999000549316406 C297.2489929199219,39.999000549316406 297.2489929199219,82.8740005493164 297.2489929199219,82.8740005493164"></path></g><g opacity="1" transform="matrix(1,0,0,1,0,0)"><path stroke-linecap="round" stroke-linejoin="round" fill-opacity="0" stroke="rgb(0,0,0)" stroke-opacity="1" stroke-width="16" d=" M254.37399291992188,39.999000549316406 C254.37399291992188,39.999000549316406 254.37399291992188,82.8740005493164 254.37399291992188,82.8740005493164"></path></g><g opacity="1" transform="matrix(1,0,0,1,211.49899291992188,192.74099731445312)"><path stroke-linecap="round" stroke-linejoin="round" fill-opacity="0" stroke="rgb(0,0,0)" stroke-opacity="1" stroke-width="16" d=" M171.49899291992188,-7.631999969482422 C171.49899291992188,-7.631999969482422 171.49899291992188,-107.48799896240234 171.49899291992188,-107.48799896240234 C171.49899291992188,-107.48799896240234 171.49899291992188,-152.74099731445312 171.49899291992188,-152.74099731445312 C171.49899291992188,-152.74099731445312 -171.49899291992188,-152.74099731445312 -171.49899291992188,-152.74099731445312 C-171.49899291992188,-152.74099731445312 -171.49899291992188,-107.48799896240234 -171.49899291992188,-107.48799896240234 C-171.49899291992188,-107.48799896240234 -171.49899291992188,152.74200439453125 -171.49899291992188,152.74200439453125 C-171.49899291992188,152.74200439453125 171.49899291992188,152.74200439453125 171.49899291992188,152.74200439453125 C171.49899291992188,152.74200439453125 171.49899291992188,3.5439999103546143 171.49899291992188,3.5439999103546143 C171.49899291992188,3.5439999103546143 171.49899291992188,-7.631999969482422 171.49899291992188,-7.631999969482422z"></path></g></g></g><g transform="matrix(1,0,0,1,337.51397705078125,205.12399291992188)" opacity="1" style="display: block;"><g opacity="1" transform="matrix(1,0,0,1,0,0)"><path stroke-linecap="round" stroke-linejoin="round" fill-opacity="0" stroke="rgb(0,0,0)" stroke-opacity="1" stroke-width="16" d=" M8,8 C8,8 43.3489990234375,8 43.3489990234375,8"></path></g><g opacity="1" transform="matrix(1,0,0,1,0,0)"><path stroke-linecap="round" stroke-linejoin="round" fill-opacity="0" stroke="rgb(0,0,0)" stroke-opacity="1" stroke-width="16" d=" M8,50.875 C8,50.875 43.3489990234375,50.875 43.3489990234375,50.875"></path></g></g><g transform="matrix(1,0,0,1,337.51397705078125,205.12399291992188)" opacity="1" style="display: block;"><g opacity="1" transform="matrix(1,0,0,1,0,0)"><path stroke-linecap="round" stroke-linejoin="round" fill-opacity="0" stroke="rgb(32,118,255)" stroke-opacity="1" stroke-width="18" d="M0 0"></path></g><g opacity="1" transform="matrix(1,0,0,1,0,0)"><path stroke-linecap="round" stroke-linejoin="round" fill-opacity="0" stroke="rgb(32,118,255)" stroke-opacity="1" stroke-width="18" d="M0 0"></path></g></g><g transform="matrix(1,0,0,1,87.37499237060547,130.25)" opacity="1" style="display: block;"><g opacity="1" transform="matrix(1,0,0,1,109.6719970703125,64.11699676513672)"><path stroke-linecap="round" stroke-linejoin="round" fill-opacity="0" stroke="rgb(32,118,255)" stroke-opacity="1" stroke-width="16" d=" M0,-24.117000579833984 C0,-24.117000579833984 -69.6719970703125,2.680000066757202 -69.6719970703125,2.680000066757202 C-69.6719970703125,2.680000066757202 0,24.117000579833984 0,24.117000579833984 C0,24.117000579833984 69.6719970703125,2.680000066757202 69.6719970703125,2.680000066757202 C69.6719970703125,2.680000066757202 0,-24.117000579833984 0,-24.117000579833984z"></path></g><g opacity="1" transform="matrix(1,0,0,1,109.6719970703125,103.28399658203125)"><path stroke-linecap="round" stroke-linejoin="round" fill-opacity="0" stroke="rgb(32,118,255)" stroke-opacity="1" stroke-width="16" d=" M48.23500061035156,-29.961000442504883 C48.23500061035156,-29.961000442504883 48.23500061035156,14.229999542236328 48.23500061035156,14.229999542236328 C48.23500061035156,14.229999542236328 0.003000000026077032,29.961000442504883 0.003000000026077032,29.961000442504883 C0.003000000026077032,29.961000442504883 -48.23500061035156,14.229999542236328 -48.23500061035156,14.229999542236328 C-48.23500061035156,14.229999542236328 -48.23500061035156,-29.961000442504883 -48.23500061035156,-29.961000442504883"></path></g></g><g transform="matrix(1,0,0,1,119.37500762939453,296.2340087890625)" opacity="1" style="display: block;"><g opacity="1" transform="matrix(1,0,0,1,0,0)"><path stroke-linecap="round" stroke-linejoin="round" fill-opacity="0" stroke="rgb(32,118,255)" stroke-opacity="1" stroke-width="16" d=" M8,8 C8,8 104.91400146484375,8 104.91400146484375,8"></path></g><g opacity="1" transform="matrix(1,0,0,1,0,0)"><path stroke-linecap="round" stroke-linejoin="round" fill-opacity="0" stroke="rgb(0,0,0)" stroke-opacity="1" stroke-width="16" d=" M141.93600463867188,8 C141.93600463867188,8 163.3730010986328,8 163.3730010986328,8"></path></g><g opacity="1" transform="matrix(1,0,0,1,0,0)"><path stroke-linecap="round" stroke-linejoin="round" fill-opacity="0" stroke="rgb(32,118,255)" stroke-opacity="1" stroke-width="16" d=" M141.93600463867188,50.875 C141.93600463867188,50.875 163.3730010986328,50.875 163.3730010986328,50.875"></path></g><g opacity="1" transform="matrix(1,0,0,1,0,0)"><path stroke-linecap="round" stroke-linejoin="round" fill-opacity="0" stroke="rgb(0,0,0)" stroke-opacity="1" stroke-width="16" d=" M8,50.875 C8,50.875 104.91400146484375,50.875 104.91400146484375,50.875"></path></g></g><g transform="matrix(0.999988317489624,-0.004830571822822094,0.004830571822822094,0.999988317489624,251.50509643554688,132.9256591796875)" opacity="1" style="display: block;"><g opacity="1" transform="matrix(1,0,0,1,105.66300201416016,105.66300201416016)"><path stroke-linecap="round" stroke-linejoin="round" fill-opacity="0" stroke="rgb(32,118,255)" stroke-opacity="1" stroke-width="16" d=" M65.66300201416016,0 C65.66300201416016,36.26499938964844 36.26499938964844,65.66300201416016 0,65.66300201416016 C-36.26499938964844,65.66300201416016 -65.66300201416016,36.26499938964844 -65.66300201416016,0 C-65.66300201416016,-36.26499938964844 -36.26499938964844,-65.66300201416016 0,-65.66300201416016 C36.26499938964844,-65.66300201416016 65.66300201416016,-36.26499938964844 65.66300201416016,0z"></path></g><g opacity="1" transform="matrix(1,0,0,1,0,0)"><path stroke-linecap="round" stroke-linejoin="round" fill-opacity="0" stroke="rgb(32,118,255)" stroke-opacity="1" stroke-width="16" d=" M107.06300354003906,175.16299438476562 C107.06300354003906,175.16299438476562 107.06300354003906,209.0919952392578 107.06300354003906,209.0919952392578"></path></g><g opacity="1" transform="matrix(1,0,0,1,107.06300354003906,253.8159942626953)"><path stroke-linecap="round" stroke-linejoin="round" fill-opacity="0" stroke="rgb(0,0,0)" stroke-opacity="1" stroke-width="16" d=" M21.437999725341797,42.875 C21.437999725341797,42.875 -21.437999725341797,42.875 -21.437999725341797,42.875 C-21.437999725341797,42.875 -21.437999725341797,-42.875 -21.437999725341797,-42.875 C-21.437999725341797,-42.875 21.437999725341797,-42.875 21.437999725341797,-42.875 C21.437999725341797,-42.875 21.437999725341797,42.875 21.437999725341797,42.875z"></path></g></g></g></svg>