<svg xmlns="http://www.w3.org/2000/svg" xmlns:xlink="http://www.w3.org/1999/xlink" viewBox="0 0 500 500" width="500" height="500" preserveAspectRatio="xMidYMid meet" style="width: 100%; height: 100%; transform: translate3d(0px, 0px, 0px); content-visibility: visible;"><defs><clipPath id="__lottie_element_53"><rect width="500" height="500" x="0" y="0"></rect></clipPath><g id="__lottie_element_60"><g style="display: block;" transform="matrix(1,0,0,1,17.38775634765625,0)" opacity="1"><path fill="rgb(255,0,0)" fill-opacity="1" d=" M407.67,363.24 C386.44,400.62 349.92,424.01 310.34,429.88 C310.34,429.88 289.91,298.17 289.91,298.17 C289.91,298.17 407.67,363.24 407.67,363.24z M433.27,319.41 C433.27,319.41 300.38,245.97 300.38,245.97 C300.38,245.97 374.7,111.47 374.7,111.47 C448.23,152.11 475.3,245.27 433.27,319.41z M232.69,161.48 C292.61,161.48 341.26,210.13 341.26,270.05 C341.26,329.96 292.61,378.61 232.69,378.61 C172.78,378.61 124.13,329.96 124.13,270.05 C124.13,210.13 172.78,161.48 232.69,161.48z"></path><g opacity="1" transform="matrix(0.8752529621124268,0.4836653769016266,-0.4836653769016266,0.8752529621124268,157.35043334960938,-80.12637329101562)"><g opacity="1" transform="matrix(1,0,0,1,366.2619934082031,319.68701171875)"></g><g opacity="1" transform="matrix(1,0,0,1,358.82598876953125,139.4080047607422)"></g></g><g opacity="1" transform="matrix(1,0,0,1,232.6929931640625,270.0450134277344)"><path stroke-linecap="butt" stroke-linejoin="miter" fill-opacity="0" stroke-miterlimit="4" stroke="rgb(196,204,51)" stroke-opacity="1" stroke-width="0" d=" M0,-108.56449890136719 C59.916748046875,-108.56449890136719 108.56449890136719,-59.916748046875 108.56449890136719,0 C108.56449890136719,59.916748046875 59.916748046875,108.56449890136719 0,108.56449890136719 C-59.916748046875,108.56449890136719 -108.56449890136719,59.916748046875 -108.56449890136719,0 C-108.56449890136719,-59.916748046875 -59.916748046875,-108.56449890136719 0,-108.56449890136719z"></path></g></g></g><g id="__lottie_element_66"><g style="display: block;" transform="matrix(1,0,0,1,17.38775634765625,0)" opacity="1"><path fill="rgb(255,0,0)" fill-opacity="1" d=" M407.67,363.24 C386.44,400.62 349.92,424.01 310.34,429.88 C310.34,429.88 289.91,298.17 289.91,298.17 C289.91,298.17 407.67,363.24 407.67,363.24z M433.27,319.41 C433.27,319.41 300.38,245.97 300.38,245.97 C300.38,245.97 374.7,111.47 374.7,111.47 C448.23,152.11 475.3,245.27 433.27,319.41z"></path><g opacity="1" transform="matrix(0.8752529621124268,0.4836653769016266,-0.4836653769016266,0.8752529621124268,157.35043334960938,-80.12637329101562)"><g opacity="1" transform="matrix(1,0,0,1,366.2619934082031,319.68701171875)"></g><g opacity="1" transform="matrix(1,0,0,1,358.82598876953125,139.4080047607422)"></g></g></g></g><filter id="__lottie_element_72" filterUnits="objectBoundingBox" x="0%" y="0%" width="100%" height="100%"><feComponentTransfer in="SourceGraphic"><feFuncA type="table" tableValues="1.0 0.0"></feFuncA></feComponentTransfer></filter><mask id="__lottie_element_66_2" mask-type="alpha"><g filter="url(#__lottie_element_72)"><rect width="500" height="500" x="0" y="0" fill="#ffffff" opacity="0"></rect><use xlink:href="#__lottie_element_66"></use></g></mask><filter id="__lottie_element_73" filterUnits="objectBoundingBox" x="0%" y="0%" width="100%" height="100%"><feComponentTransfer in="SourceGraphic"><feFuncA type="table" tableValues="1.0 0.0"></feFuncA></feComponentTransfer></filter><mask id="__lottie_element_60_2" mask-type="alpha"><g filter="url(#__lottie_element_73)"><rect width="500" height="500" x="0" y="0" fill="#ffffff" opacity="0"></rect><use xlink:href="#__lottie_element_60"></use></g></mask></defs><g clip-path="url(#__lottie_element_53)"><g mask="url(#__lottie_element_60_2)" style="display: block;"><g transform="matrix(1,0,0,1,217.2217559814453,269.86798095703125)" opacity="1"><g opacity="1" transform="matrix(0.9020345211029053,-0.4316639304161072,0.4316639304161072,0.9020345211029053,6.435308456420898,13.73780632019043)"><path stroke-linecap="round" stroke-linejoin="round" fill-opacity="0" stroke="rgb(32,118,255)" stroke-opacity="1" stroke-width="16" d=" M32.981998443603516,-167.5570068359375 C-59.555999755859375,-167.5570068359375 -134.57899475097656,-92.54199981689453 -134.57899475097656,-0.004000000189989805 C-134.57899475097656,92.53399658203125 -59.555999755859375,167.5570068359375 32.981998443603516,167.5570068359375 C71.18900299072266,167.5570068359375 106.39600372314453,154.77200317382812 134.57899475097656,133.25100708007812 C134.57899475097656,133.25100708007812 100.7040023803711,89.49400329589844 100.7040023803711,89.49400329589844 C100.7040023803711,89.49400329589844 32.981998443603516,-112.23500061035156 32.981998443603516,-112.23500061035156 C32.981998443603516,-112.23500061035156 32.981998443603516,-167.5570068359375 32.981998443603516,-167.5570068359375z"></path></g></g></g><g mask="url(#__lottie_element_66_2)" style="display: block;"><g transform="matrix(1,0,0,1,17.38775634765625,0)" opacity="1"><g opacity="1" transform="matrix(0.8752529621124268,0.4836653769016266,-0.4836653769016266,0.8752529621124268,159.7578125,-79.49822998046875)"><g opacity="1" transform="matrix(1,0,0,1,339.35198974609375,241.58099365234375)"><path stroke-linecap="round" stroke-linejoin="round" fill-opacity="0" stroke="rgb(0,0,0)" stroke-opacity="1" stroke-width="16" d=" M-3.3519999980926514,74.91899871826172 C-3.3519999980926514,74.91899871826172 7.5229997634887695,38.7400016784668 6.548999786376953,22.25200080871582 C5.574999809265137,5.763999938964844 0.7860000133514404,-8.437000274658203 -6.548999786376953,-22.25200080871582"></path></g><g opacity="1" transform="matrix(1,0,0,1,228.33799743652344,269.8659973144531)"><path stroke-linecap="round" stroke-linejoin="round" fill-opacity="0" stroke="rgb(0,0,0)" stroke-opacity="1" stroke-width="16" d=" M104.66200256347656,-50.61600112915039 C104.66200256347656,-50.61600112915039 67.18800354003906,-94.11699676513672 52.10900115966797,-101.6510009765625 C37.029998779296875,-109.18499755859375 22.479000091552734,-112.23300170898438 4.4770002365112305,-112.23300170898438 C-57.50699996948242,-112.23300170898438 -107.75599670410156,-61.98400115966797 -107.75599670410156,0 C-107.75599670410156,61.98400115966797 -57.50699996948242,112.23300170898438 4.4770002365112305,112.23300170898438 C49.393001556396484,112.23300170898438 89.81900024414062,86.34100341796875 107.75599670410156,48.224998474121094"></path></g></g><g opacity="1" transform="matrix(1,0,0,1,232.81399536132812,269.8659973144531)"><g opacity="1" transform="matrix(1,0,0,1,0,0)"><path stroke-linecap="round" stroke-linejoin="round" fill-opacity="0" stroke="rgb(0,0,0)" stroke-opacity="1" stroke-width="16" d=" M-23.53529930114746,33.159183502197266 C-18.96430015563965,36.33018493652344 -13.500300407409668,38.29222106933594 -7.823299884796143,38.33422088623047 C-7.823299884796143,38.33422088623047 8.202400207519531,38.46046447753906 8.202400207519531,38.46046447753906 C20.744400024414062,38.553466796875 30.961400985717773,28.41146469116211 30.961400985717773,15.868465423583984 C30.961400985717773,15.868465423583984 30.961400985717773,15.868465423583984 30.961400985717773,15.868465423583984 C30.961400985717773,3.390465497970581 20.847400665283203,-6.724534511566162 8.369400024414062,-6.724534511566162 C8.369400024414062,-6.724534511566162 -6.478300094604492,-6.849815368652344 -6.478300094604492,-6.849815368652344 C-18.956300735473633,-6.849815368652344 -29.071300506591797,-16.964815139770508 -29.071300506591797,-29.44281578063965 C-29.071300506591797,-29.44281578063965 -29.071300506591797,-29.44281578063965 -29.071300506591797,-29.44281578063965 C-29.071300506591797,-41.985816955566406 -18.853300094604492,-52.12781524658203 -6.311300277709961,-52.03481674194336 C-6.311300277709961,-52.03481674194336 7.518400192260742,-51.9085693359375 7.518400192260742,-51.9085693359375 C15.23840045928955,-51.85157012939453 22.507400512695312,-48.429534912109375 27.686399459838867,-42.903533935546875"></path></g></g><g opacity="1" transform="matrix(1,0,0,1,0,0)"><g opacity="1" transform="matrix(1,0,0,1,232.81399536132812,213.7220001220703)"><path stroke-linecap="round" stroke-linejoin="round" fill-opacity="0" stroke="rgb(0,0,0)" stroke-opacity="1" stroke-width="16" d=" M0,-23.828723907470703 C0,-23.828723907470703 0,4.171824932098389 0,4.171824932098389"></path></g><g opacity="1" transform="matrix(1,0,0,1,232.81399536132812,326.010986328125)"><path stroke-linecap="round" stroke-linejoin="round" fill-opacity="0" stroke="rgb(0,0,0)" stroke-opacity="1" stroke-width="16" d=" M0,-17.74617576599121 C0,-17.74617576599121 0,-2.7473747730255127 0,-2.7473747730255127"></path></g></g></g></g><g style="display: block;" transform="matrix(1,0,0,1,17.38775634765625,0)" opacity="1"><g opacity="1" transform="matrix(0.8752529621124268,0.4836653769016266,-0.4836653769016266,0.8752529621124268,157.35043334960938,-80.12637329101562)"><g opacity="1" transform="matrix(1,0,0,1,366.2619934082031,319.68701171875)"><path stroke-linecap="round" stroke-linejoin="round" fill-opacity="0" stroke="rgb(32,118,255)" stroke-opacity="1" stroke-width="16" d=" M67.2750015258789,-52.69900131225586 C66.77100372314453,-9.718000411987305 46.12099838256836,28.41699981689453 14.317999839782715,52.69900131225586 C14.317999839782715,52.69900131225586 -67.2750015258789,-52.69900131225586 -67.2750015258789,-52.69900131225586 C-67.2750015258789,-52.69900131225586 67.2750015258789,-52.69900131225586 67.2750015258789,-52.69900131225586z"></path></g><g opacity="1" transform="matrix(1,0,0,1,358.82598876953125,139.4080047607422)"><path stroke-linecap="round" stroke-linejoin="round" fill-opacity="0" stroke="rgb(32,118,255)" stroke-opacity="1" stroke-width="16" d=" M75.90899658203125,76.83300018310547 C75.90899658203125,76.83300018310547 -75.91899871826172,76.83300018310547 -75.91899871826172,76.83300018310547 C-75.91899871826172,76.83300018310547 -75.91899871826172,-76.83300018310547 -75.91899871826172,-76.83300018310547 C8.093000411987305,-76.83300018310547 76.84700012207031,-8.38700008392334 75.90899658203125,76.83300018310547z"></path></g></g></g></g></svg>