<svg xmlns="http://www.w3.org/2000/svg" xmlns:xlink="http://www.w3.org/1999/xlink" viewBox="0 0 500 500" width="500" height="500" preserveAspectRatio="xMidYMid meet" style="width: 100%; height: 100%; transform: translate3d(0px, 0px, 0px); content-visibility: visible;"><defs><clipPath id="__lottie_element_132"><rect width="500" height="500" x="0" y="0"></rect></clipPath></defs><g clip-path="url(#__lottie_element_132)"><g transform="matrix(1,0,0,1,250,250)" opacity="1" style="display: block;"><g opacity="1" transform="matrix(1,0,0,1,0,0)"><path stroke-linecap="round" stroke-linejoin="round" fill-opacity="0" stroke="rgb(0,0,0)" stroke-opacity="1" stroke-width="16" d=" M200.8489990234375,0.07999999821186066 C200.8489990234375,110.96199798583984 110.96199798583984,200.8489990234375 0.07999999821186066,200.8489990234375 C-110.802001953125,200.8489990234375 -200.68899536132812,110.96199798583984 -200.68899536132812,0.07999999821186066 C-200.68899536132812,-110.802001953125 -110.802001953125,-200.68899536132812 0.07999999821186066,-200.68899536132812 C110.96199798583984,-200.68899536132812 200.8489990234375,-110.802001953125 200.8489990234375,0.07999999821186066z"></path></g><g opacity="1" transform="matrix(1,0,0,1,0,0)"><path stroke-linecap="round" stroke-linejoin="round" fill-opacity="0" stroke="rgb(32,118,255)" stroke-opacity="1" stroke-width="16" d=" M132.37478637695312,-47.430946350097656 C132.37478637695312,-47.430946350097656 47.83078384399414,-47.430946350097656 47.83078384399414,-47.430946350097656 C47.83078384399414,-47.430946350097656 47.83078384399414,-131.97494506835938 47.83078384399414,-131.97494506835938 C47.83078384399414,-131.97494506835938 -46.899784088134766,-131.97494506835938 -46.899784088134766,-131.97494506835938 C-46.899784088134766,-131.97494506835938 -46.899784088134766,-47.430946350097656 -46.899784088134766,-47.430946350097656 C-46.899784088134766,-47.430946350097656 -131.4429473876953,-47.430946350097656 -131.4429473876953,-47.430946350097656 C-131.4429473876953,-47.430946350097656 -131.4429473876953,47.298946380615234 -131.4429473876953,47.298946380615234 C-131.4429473876953,47.298946380615234 -46.899784088134766,47.298946380615234 -46.899784088134766,47.298946380615234 C-46.899784088134766,47.298946380615234 -46.899784088134766,131.84295654296875 -46.899784088134766,131.84295654296875 C-46.899784088134766,131.84295654296875 47.83078384399414,131.84295654296875 47.83078384399414,131.84295654296875 C47.83078384399414,131.84295654296875 47.83078384399414,47.298946380615234 47.83078384399414,47.298946380615234 C47.83078384399414,47.298946380615234 132.37478637695312,47.298946380615234 132.37478637695312,47.298946380615234 C132.37478637695312,47.298946380615234 132.37478637695312,-47.430946350097656 132.37478637695312,-47.430946350097656z"></path></g></g><g transform="matrix(0.9999836683273315,0.005711727775633335,-0.005711727775633335,0.9999836683273315,250,250)" opacity="1" style="display: block;"><g opacity="1" transform="matrix(1,0,0,1,0,0)"><path stroke-linecap="round" stroke-linejoin="round" fill-opacity="0" stroke="rgb(32,118,255)" stroke-opacity="1" stroke-width="16" d="M0 0"></path></g></g></g></svg>