<svg xmlns="http://www.w3.org/2000/svg" xmlns:xlink="http://www.w3.org/1999/xlink" viewBox="0 0 500 500" width="500" height="500" preserveAspectRatio="xMidYMid meet" style="width: 100%; height: 100%; transform: translate3d(0px, 0px, 0px); content-visibility: visible;"><defs><clipPath id="__lottie_element_1173"><rect width="500" height="500" x="0" y="0"></rect></clipPath><g id="__lottie_element_1179"><g transform="matrix(1,0,0,1,242.03933715820312,258.1446838378906)" opacity="1" style="display: block;"><path fill="rgb(255,0,0)" fill-opacity="1" d=" M-106.38200378417969,-45.2869987487793 C-106.38200378417969,-45.2869987487793 -83.73799896240234,-67.93099975585938 -83.73799896240234,-67.93099975585938 C-83.73799896240234,-67.93099975585938 -0.7120000123977661,-30.19099998474121 -0.7120000123977661,-30.19099998474121 C-0.7120000123977661,-30.19099998474121 29.479999542236328,-60.382999420166016 29.479999542236328,-60.382999420166016 C37.81700134277344,-68.72000122070312 51.33399963378906,-68.72000122070312 59.67100143432617,-60.382999420166016 C68.00800323486328,-52.04600143432617 68.00800323486328,-38.52799987792969 59.67100143432617,-30.19099998474121 C59.67100143432617,-30.19099998474121 29.479999542236328,0 29.479999542236328,0 C29.479999542236328,0 67.21900177001953,83.0260009765625 67.21900177001953,83.0260009765625 C67.21900177001953,83.0260009765625 44.57500076293945,105.66999816894531 44.57500076293945,105.66999816894531 C44.57500076293945,105.66999816894531 -15.807000160217285,45.2869987487793 -15.807000160217285,45.2869987487793 C-15.807000160217285,45.2869987487793 -42.224998474121094,71.70500183105469 -42.224998474121094,71.70500183105469 C-42.224998474121094,71.70500183105469 -38.45100021362305,98.12200164794922 -38.45100021362305,98.12200164794922 C-38.45100021362305,98.12200164794922 -61.09400177001953,120.76599884033203 -61.09400177001953,120.76599884033203 C-61.09400177001953,120.76599884033203 -83.73799896240234,83.0260009765625 -83.73799896240234,83.0260009765625 C-83.73799896240234,83.0260009765625 -121.47699737548828,60.382999420166016 -121.47699737548828,60.382999420166016 C-121.47699737548828,60.382999420166016 -98.83399963378906,37.73899841308594 -98.83399963378906,37.73899841308594 C-98.83399963378906,37.73899841308594 -72.41600036621094,41.51300048828125 -72.41600036621094,41.51300048828125 C-72.41600036621094,41.51300048828125 -45.999000549316406,15.095999717712402 -45.999000549316406,15.095999717712402 C-45.999000549316406,15.095999717712402 -106.38200378417969,-45.2869987487793 -106.38200378417969,-45.2869987487793z"></path><g opacity="1" transform="matrix(1,0,0,1,0,0)"><path stroke-linecap="round" stroke-linejoin="round" fill-opacity="0" stroke="rgb(32,118,255)" stroke-opacity="1" stroke-width="16" d=" M-106.38200378417969,-45.2869987487793 C-106.38200378417969,-45.2869987487793 -83.73799896240234,-67.93099975585938 -83.73799896240234,-67.93099975585938 C-83.73799896240234,-67.93099975585938 -0.7120000123977661,-30.19099998474121 -0.7120000123977661,-30.19099998474121 C-0.7120000123977661,-30.19099998474121 29.479999542236328,-60.382999420166016 29.479999542236328,-60.382999420166016 C37.81700134277344,-68.72000122070312 51.33399963378906,-68.72000122070312 59.67100143432617,-60.382999420166016 C68.00800323486328,-52.04600143432617 68.00800323486328,-38.52799987792969 59.67100143432617,-30.19099998474121 C59.67100143432617,-30.19099998474121 29.479999542236328,0 29.479999542236328,0 C29.479999542236328,0 67.21900177001953,83.0260009765625 67.21900177001953,83.0260009765625 C67.21900177001953,83.0260009765625 44.57500076293945,105.66999816894531 44.57500076293945,105.66999816894531 C44.57500076293945,105.66999816894531 -15.807000160217285,45.2869987487793 -15.807000160217285,45.2869987487793 C-15.807000160217285,45.2869987487793 -42.224998474121094,71.70500183105469 -42.224998474121094,71.70500183105469 C-42.224998474121094,71.70500183105469 -38.45100021362305,98.12200164794922 -38.45100021362305,98.12200164794922 C-38.45100021362305,98.12200164794922 -61.09400177001953,120.76599884033203 -61.09400177001953,120.76599884033203 C-61.09400177001953,120.76599884033203 -83.73799896240234,83.0260009765625 -83.73799896240234,83.0260009765625 C-83.73799896240234,83.0260009765625 -121.47699737548828,60.382999420166016 -121.47699737548828,60.382999420166016 C-121.47699737548828,60.382999420166016 -98.83399963378906,37.73899841308594 -98.83399963378906,37.73899841308594 C-98.83399963378906,37.73899841308594 -72.41600036621094,41.51300048828125 -72.41600036621094,41.51300048828125 C-72.41600036621094,41.51300048828125 -45.999000549316406,15.095999717712402 -45.999000549316406,15.095999717712402 C-45.999000549316406,15.095999717712402 -106.38200378417969,-45.2869987487793 -106.38200378417969,-45.2869987487793z"></path></g></g></g><g id="__lottie_element_1182"><g transform="matrix(1,0,0,1,51,451)" opacity="1" style="display: block;"><path fill="rgb(255,0,0)" fill-opacity="1" d=" M-106.38200378417969,-45.2869987487793 C-106.38200378417969,-45.2869987487793 -83.73799896240234,-67.93099975585938 -83.73799896240234,-67.93099975585938 C-83.73799896240234,-67.93099975585938 -0.7120000123977661,-30.19099998474121 -0.7120000123977661,-30.19099998474121 C-0.7120000123977661,-30.19099998474121 29.479999542236328,-60.382999420166016 29.479999542236328,-60.382999420166016 C37.81700134277344,-68.72000122070312 51.33399963378906,-68.72000122070312 59.67100143432617,-60.382999420166016 C68.00800323486328,-52.04600143432617 68.00800323486328,-38.52799987792969 59.67100143432617,-30.19099998474121 C59.67100143432617,-30.19099998474121 29.479999542236328,0 29.479999542236328,0 C29.479999542236328,0 67.21900177001953,83.0260009765625 67.21900177001953,83.0260009765625 C67.21900177001953,83.0260009765625 44.57500076293945,105.66999816894531 44.57500076293945,105.66999816894531 C44.57500076293945,105.66999816894531 -15.807000160217285,45.2869987487793 -15.807000160217285,45.2869987487793 C-15.807000160217285,45.2869987487793 -42.224998474121094,71.70500183105469 -42.224998474121094,71.70500183105469 C-42.224998474121094,71.70500183105469 -38.45100021362305,98.12200164794922 -38.45100021362305,98.12200164794922 C-38.45100021362305,98.12200164794922 -61.09400177001953,120.76599884033203 -61.09400177001953,120.76599884033203 C-61.09400177001953,120.76599884033203 -83.73799896240234,83.0260009765625 -83.73799896240234,83.0260009765625 C-83.73799896240234,83.0260009765625 -121.47699737548828,60.382999420166016 -121.47699737548828,60.382999420166016 C-121.47699737548828,60.382999420166016 -98.83399963378906,37.73899841308594 -98.83399963378906,37.73899841308594 C-98.83399963378906,37.73899841308594 -72.41600036621094,41.51300048828125 -72.41600036621094,41.51300048828125 C-72.41600036621094,41.51300048828125 -45.999000549316406,15.095999717712402 -45.999000549316406,15.095999717712402 C-45.999000549316406,15.095999717712402 -106.38200378417969,-45.2869987487793 -106.38200378417969,-45.2869987487793z"></path><g opacity="1" transform="matrix(1,0,0,1,0,0)"><path stroke-linecap="round" stroke-linejoin="round" fill-opacity="0" stroke="rgb(32,118,255)" stroke-opacity="1" stroke-width="16" d=" M-106.38200378417969,-45.2869987487793 C-106.38200378417969,-45.2869987487793 -83.73799896240234,-67.93099975585938 -83.73799896240234,-67.93099975585938 C-83.73799896240234,-67.93099975585938 -0.7120000123977661,-30.19099998474121 -0.7120000123977661,-30.19099998474121 C-0.7120000123977661,-30.19099998474121 29.479999542236328,-60.382999420166016 29.479999542236328,-60.382999420166016 C37.81700134277344,-68.72000122070312 51.33399963378906,-68.72000122070312 59.67100143432617,-60.382999420166016 C68.00800323486328,-52.04600143432617 68.00800323486328,-38.52799987792969 59.67100143432617,-30.19099998474121 C59.67100143432617,-30.19099998474121 29.479999542236328,0 29.479999542236328,0 C29.479999542236328,0 67.21900177001953,83.0260009765625 67.21900177001953,83.0260009765625 C67.21900177001953,83.0260009765625 44.57500076293945,105.66999816894531 44.57500076293945,105.66999816894531 C44.57500076293945,105.66999816894531 -15.807000160217285,45.2869987487793 -15.807000160217285,45.2869987487793 C-15.807000160217285,45.2869987487793 -42.224998474121094,71.70500183105469 -42.224998474121094,71.70500183105469 C-42.224998474121094,71.70500183105469 -38.45100021362305,98.12200164794922 -38.45100021362305,98.12200164794922 C-38.45100021362305,98.12200164794922 -61.09400177001953,120.76599884033203 -61.09400177001953,120.76599884033203 C-61.09400177001953,120.76599884033203 -83.73799896240234,83.0260009765625 -83.73799896240234,83.0260009765625 C-83.73799896240234,83.0260009765625 -121.47699737548828,60.382999420166016 -121.47699737548828,60.382999420166016 C-121.47699737548828,60.382999420166016 -98.83399963378906,37.73899841308594 -98.83399963378906,37.73899841308594 C-98.83399963378906,37.73899841308594 -72.41600036621094,41.51300048828125 -72.41600036621094,41.51300048828125 C-72.41600036621094,41.51300048828125 -45.999000549316406,15.095999717712402 -45.999000549316406,15.095999717712402 C-45.999000549316406,15.095999717712402 -106.38200378417969,-45.2869987487793 -106.38200378417969,-45.2869987487793z"></path></g></g></g><g id="__lottie_element_1188"><g transform="matrix(1,0,0,1,242.03933715820312,258.1446838378906)" opacity="1" style="display: block;"><path fill="rgb(255,0,0)" fill-opacity="1" d=" M-106.38200378417969,-45.2869987487793 C-106.38200378417969,-45.2869987487793 -83.73799896240234,-67.93099975585938 -83.73799896240234,-67.93099975585938 C-83.73799896240234,-67.93099975585938 -0.7120000123977661,-30.19099998474121 -0.7120000123977661,-30.19099998474121 C-0.7120000123977661,-30.19099998474121 29.479999542236328,-60.382999420166016 29.479999542236328,-60.382999420166016 C37.81700134277344,-68.72000122070312 51.33399963378906,-68.72000122070312 59.67100143432617,-60.382999420166016 C68.00800323486328,-52.04600143432617 68.00800323486328,-38.52799987792969 59.67100143432617,-30.19099998474121 C59.67100143432617,-30.19099998474121 29.479999542236328,0 29.479999542236328,0 C29.479999542236328,0 67.21900177001953,83.0260009765625 67.21900177001953,83.0260009765625 C67.21900177001953,83.0260009765625 44.57500076293945,105.66999816894531 44.57500076293945,105.66999816894531 C44.57500076293945,105.66999816894531 -15.807000160217285,45.2869987487793 -15.807000160217285,45.2869987487793 C-15.807000160217285,45.2869987487793 -42.224998474121094,71.70500183105469 -42.224998474121094,71.70500183105469 C-42.224998474121094,71.70500183105469 -38.45100021362305,98.12200164794922 -38.45100021362305,98.12200164794922 C-38.45100021362305,98.12200164794922 -61.09400177001953,120.76599884033203 -61.09400177001953,120.76599884033203 C-61.09400177001953,120.76599884033203 -83.73799896240234,83.0260009765625 -83.73799896240234,83.0260009765625 C-83.73799896240234,83.0260009765625 -121.47699737548828,60.382999420166016 -121.47699737548828,60.382999420166016 C-121.47699737548828,60.382999420166016 -98.83399963378906,37.73899841308594 -98.83399963378906,37.73899841308594 C-98.83399963378906,37.73899841308594 -72.41600036621094,41.51300048828125 -72.41600036621094,41.51300048828125 C-72.41600036621094,41.51300048828125 -45.999000549316406,15.095999717712402 -45.999000549316406,15.095999717712402 C-45.999000549316406,15.095999717712402 -106.38200378417969,-45.2869987487793 -106.38200378417969,-45.2869987487793z"></path><g opacity="1" transform="matrix(1,0,0,1,0,0)"><path stroke-linecap="round" stroke-linejoin="round" fill-opacity="0" stroke="rgb(32,118,255)" stroke-opacity="1" stroke-width="16" d=" M-106.38200378417969,-45.2869987487793 C-106.38200378417969,-45.2869987487793 -83.73799896240234,-67.93099975585938 -83.73799896240234,-67.93099975585938 C-83.73799896240234,-67.93099975585938 -0.7120000123977661,-30.19099998474121 -0.7120000123977661,-30.19099998474121 C-0.7120000123977661,-30.19099998474121 29.479999542236328,-60.382999420166016 29.479999542236328,-60.382999420166016 C37.81700134277344,-68.72000122070312 51.33399963378906,-68.72000122070312 59.67100143432617,-60.382999420166016 C68.00800323486328,-52.04600143432617 68.00800323486328,-38.52799987792969 59.67100143432617,-30.19099998474121 C59.67100143432617,-30.19099998474121 29.479999542236328,0 29.479999542236328,0 C29.479999542236328,0 67.21900177001953,83.0260009765625 67.21900177001953,83.0260009765625 C67.21900177001953,83.0260009765625 44.57500076293945,105.66999816894531 44.57500076293945,105.66999816894531 C44.57500076293945,105.66999816894531 -15.807000160217285,45.2869987487793 -15.807000160217285,45.2869987487793 C-15.807000160217285,45.2869987487793 -42.224998474121094,71.70500183105469 -42.224998474121094,71.70500183105469 C-42.224998474121094,71.70500183105469 -38.45100021362305,98.12200164794922 -38.45100021362305,98.12200164794922 C-38.45100021362305,98.12200164794922 -61.09400177001953,120.76599884033203 -61.09400177001953,120.76599884033203 C-61.09400177001953,120.76599884033203 -83.73799896240234,83.0260009765625 -83.73799896240234,83.0260009765625 C-83.73799896240234,83.0260009765625 -121.47699737548828,60.382999420166016 -121.47699737548828,60.382999420166016 C-121.47699737548828,60.382999420166016 -98.83399963378906,37.73899841308594 -98.83399963378906,37.73899841308594 C-98.83399963378906,37.73899841308594 -72.41600036621094,41.51300048828125 -72.41600036621094,41.51300048828125 C-72.41600036621094,41.51300048828125 -45.999000549316406,15.095999717712402 -45.999000549316406,15.095999717712402 C-45.999000549316406,15.095999717712402 -106.38200378417969,-45.2869987487793 -106.38200378417969,-45.2869987487793z"></path></g></g></g><g id="__lottie_element_1197"><g transform="matrix(1,0,0,1,250,250)" opacity="1" style="display: block;"><path fill="rgb(255,0,0)" fill-opacity="1" d=" M120.76599884033203,120.76599884033203 C53.119998931884766,188.41200256347656 -53.83100128173828,188.41200256347656 -121.47699737548828,120.76599884033203 C-188.1739959716797,54.069000244140625 -188.1739959716797,-54.779998779296875 -121.47699737548828,-121.47699737548828 C-54.779998779296875,-188.1739959716797 54.069000244140625,-188.1739959716797 120.76599884033203,-121.47699737548828 C188.41200256347656,-53.83100128173828 188.41200256347656,53.119998931884766 120.76599884033203,120.76599884033203z"></path><g opacity="1" transform="matrix(1,0,0,1,0,0)"><path stroke-linecap="round" stroke-linejoin="round" fill-opacity="0" stroke="rgb(0,0,0)" stroke-opacity="1" stroke-width="16" d=" M120.76599884033203,120.76599884033203 C53.119998931884766,188.41200256347656 -53.83100128173828,188.41200256347656 -121.47699737548828,120.76599884033203 C-188.1739959716797,54.069000244140625 -188.1739959716797,-54.779998779296875 -121.47699737548828,-121.47699737548828 C-54.779998779296875,-188.1739959716797 54.069000244140625,-188.1739959716797 120.76599884033203,-121.47699737548828 C188.41200256347656,-53.83100128173828 188.41200256347656,53.119998931884766 120.76599884033203,120.76599884033203z"></path></g></g></g><g id="__lottie_element_1203"><g transform="matrix(1,0,0,1,250,250)" opacity="1" style="display: block;"><path fill="rgb(255,0,0)" fill-opacity="1" d=" M120.76599884033203,120.76599884033203 C53.119998931884766,188.41200256347656 -53.83100128173828,188.41200256347656 -121.47699737548828,120.76599884033203 C-188.1739959716797,54.069000244140625 -188.1739959716797,-54.779998779296875 -121.47699737548828,-121.47699737548828 C-54.779998779296875,-188.1739959716797 54.069000244140625,-188.1739959716797 120.76599884033203,-121.47699737548828 C188.41200256347656,-53.83100128173828 188.41200256347656,53.119998931884766 120.76599884033203,120.76599884033203z"></path><g opacity="1" transform="matrix(1,0,0,1,0,0)"><path stroke-linecap="round" stroke-linejoin="round" fill-opacity="0" stroke="rgb(0,0,0)" stroke-opacity="1" stroke-width="16" d=" M120.76599884033203,120.76599884033203 C53.119998931884766,188.41200256347656 -53.83100128173828,188.41200256347656 -121.47699737548828,120.76599884033203 C-188.1739959716797,54.069000244140625 -188.1739959716797,-54.779998779296875 -121.47699737548828,-121.47699737548828 C-54.779998779296875,-188.1739959716797 54.069000244140625,-188.1739959716797 120.76599884033203,-121.47699737548828 C188.41200256347656,-53.83100128173828 188.41200256347656,53.119998931884766 120.76599884033203,120.76599884033203z"></path></g></g></g><mask id="__lottie_element_1203_1" mask-type="alpha"><use xlink:href="#__lottie_element_1203"></use></mask><mask id="__lottie_element_1197_1" mask-type="alpha"><use xlink:href="#__lottie_element_1197"></use></mask><filter id="__lottie_element_1209" filterUnits="objectBoundingBox" x="0%" y="0%" width="100%" height="100%"><feComponentTransfer in="SourceGraphic"><feFuncA type="table" tableValues="1.0 0.0"></feFuncA></feComponentTransfer></filter><mask id="__lottie_element_1188_2" mask-type="alpha"><g filter="url(#__lottie_element_1209)"><rect width="500" height="500" x="0" y="0" fill="#ffffff" opacity="0"></rect><use xlink:href="#__lottie_element_1188"></use></g></mask><filter id="__lottie_element_1210" filterUnits="objectBoundingBox" x="0%" y="0%" width="100%" height="100%"><feComponentTransfer in="SourceGraphic"><feFuncA type="table" tableValues="1.0 0.0"></feFuncA></feComponentTransfer></filter><mask id="__lottie_element_1179_2" mask-type="alpha"><g filter="url(#__lottie_element_1210)"><rect width="500" height="500" x="0" y="0" fill="#ffffff" opacity="0"></rect><use xlink:href="#__lottie_element_1179"></use></g></mask><filter id="__lottie_element_2167" filterUnits="objectBoundingBox" x="0%" y="0%" width="100%" height="100%"><feComponentTransfer in="SourceGraphic"><feFuncA type="table" tableValues="1.0 0.0"></feFuncA></feComponentTransfer></filter><mask id="__lottie_element_1182_2" mask-type="alpha"><g filter="url(#__lottie_element_2167)"><rect width="500" height="500" x="0" y="0" fill="#ffffff" opacity="0"></rect><use xlink:href="#__lottie_element_1182"></use></g></mask></defs><g clip-path="url(#__lottie_element_1173)"><g mask="url(#__lottie_element_1179_2)" style="display: block;"><g transform="matrix(1,0,0,1,250,250)" opacity="1"><g opacity="1" transform="matrix(1,0,0,1,0,0)"><path stroke-linecap="round" stroke-linejoin="round" fill-opacity="0" stroke="rgb(0,0,0)" stroke-opacity="1" stroke-width="16" d=" M75.4209976196289,-153.99600219726562 C74.71800231933594,-143.27099609375 66.88400268554688,-133.94500732421875 56.577999114990234,-130.50999450683594 C56.577999114990234,-130.50999450683594 35.4370002746582,-123.46299743652344 35.4370002746582,-123.46299743652344 C31.518999099731445,-122.15699768066406 27.958999633789062,-119.95700073242188 25.038999557495117,-117.03700256347656 C25.038999557495117,-117.03700256347656 18.097999572753906,-110.09600067138672 18.097999572753906,-110.09600067138672 C7.710000038146973,-99.70800018310547 -9.133000373840332,-99.70800018310547 -19.520999908447266,-110.09600067138672 C-19.520999908447266,-110.09600067138672 -23.11199951171875,-113.68599700927734 -23.11199951171875,-113.68599700927734 C-28.10099983215332,-118.67500305175781 -34.867000579833984,-121.47699737548828 -41.922000885009766,-121.47699737548828 C-41.922000885009766,-121.47699737548828 -53.040000915527344,-121.47699737548828 -53.040000915527344,-121.47699737548828 C-58.29199981689453,-121.47699737548828 -63.42599868774414,-123.03199768066406 -67.7959976196289,-125.94499969482422 C-67.7959976196289,-125.94499969482422 -94.3010025024414,-143.61500549316406 -94.3010025024414,-143.61500549316406"></path></g><g opacity="1" transform="matrix(1,0,0,1,0,0)"><path stroke-linecap="round" stroke-linejoin="round" fill-opacity="0" stroke="rgb(0,0,0)" stroke-opacity="1" stroke-width="16" d=" M20.010000228881836,170.24600219726562 C20.010000228881836,170.24600219726562 9.020000457763672,147.55499267578125 9.020000457763672,147.55499267578125 C3.2079999446868896,135.9320068359375 5.486000061035156,121.89299774169922 14.675000190734863,112.7040023803711 C14.675000190734863,112.7040023803711 20.636999130249023,106.74299621582031 20.636999130249023,106.74299621582031 C25.308000564575195,102.0719985961914 28.79599952697754,96.3219985961914 29.097999572753906,90.19300079345703 C30.14299964904785,69 -11.039999961853027,14.571999549865723 29.479999542236328,0 C29.479999542236328,0 72.88800048828125,0 72.88800048828125,0 C80.8949966430664,0 88.57499694824219,-3.180999994277954 94.23699951171875,-8.843000411987305 C94.23699951171875,-8.843000411987305 97.9000015258789,-12.505999565124512 97.9000015258789,-12.505999565124512 C103.56199645996094,-18.167999267578125 106.74299621582031,-25.847000122070312 106.74299621582031,-33.854000091552734 C106.74299621582031,-33.854000091552734 106.74299621582031,-39.29499816894531 106.74299621582031,-39.29499816894531 C106.74299621582031,-53.6870002746582 117.61299896240234,-66.0780029296875 131.72500610351562,-68.9000015258789 C131.72500610351562,-68.9000015258789 154.90899658203125,-73.53700256347656 154.90899658203125,-73.53700256347656"></path></g></g></g><g mask="url(#__lottie_element_1182_2)" style="display: none;"><g transform="matrix(1,0,0,1,250,250)" opacity="1"><g opacity="1" transform="matrix(1,0,0,1,0,0)"><path stroke-linecap="round" stroke-linejoin="round" fill-opacity="0" stroke="rgb(0,0,0)" stroke-opacity="1" stroke-width="16" d=" M75.4209976196289,-153.99600219726562 C74.71800231933594,-143.27099609375 66.88400268554688,-133.94500732421875 56.577999114990234,-130.50999450683594 C56.577999114990234,-130.50999450683594 35.4370002746582,-123.46299743652344 35.4370002746582,-123.46299743652344 C31.518999099731445,-122.15699768066406 27.958999633789062,-119.95700073242188 25.038999557495117,-117.03700256347656 C25.038999557495117,-117.03700256347656 18.097999572753906,-110.09600067138672 18.097999572753906,-110.09600067138672 C7.710000038146973,-99.70800018310547 -9.133000373840332,-99.70800018310547 -19.520999908447266,-110.09600067138672 C-19.520999908447266,-110.09600067138672 -23.11199951171875,-113.68599700927734 -23.11199951171875,-113.68599700927734 C-28.10099983215332,-118.67500305175781 -34.867000579833984,-121.47699737548828 -41.922000885009766,-121.47699737548828 C-41.922000885009766,-121.47699737548828 -53.040000915527344,-121.47699737548828 -53.040000915527344,-121.47699737548828 C-58.29199981689453,-121.47699737548828 -63.42599868774414,-123.03199768066406 -67.7959976196289,-125.94499969482422 C-67.7959976196289,-125.94499969482422 -94.3010025024414,-143.61500549316406 -94.3010025024414,-143.61500549316406"></path></g><g opacity="1" transform="matrix(1,0,0,1,0,0)"><path stroke-linecap="round" stroke-linejoin="round" fill-opacity="0" stroke="rgb(0,0,0)" stroke-opacity="1" stroke-width="16" d=" M20.010000228881836,170.24600219726562 C20.010000228881836,170.24600219726562 9.020000457763672,147.55499267578125 9.020000457763672,147.55499267578125 C3.2079999446868896,135.9320068359375 5.486000061035156,121.89299774169922 14.675000190734863,112.7040023803711 C14.675000190734863,112.7040023803711 20.636999130249023,106.74299621582031 20.636999130249023,106.74299621582031 C25.308000564575195,102.0719985961914 28.79599952697754,96.3219985961914 29.097999572753906,90.19300079345703 C30.14299964904785,69 -11.039999961853027,14.571999549865723 29.479999542236328,0 C29.479999542236328,0 72.88800048828125,0 72.88800048828125,0 C80.8949966430664,0 88.57499694824219,-3.180999994277954 94.23699951171875,-8.843000411987305 C94.23699951171875,-8.843000411987305 97.9000015258789,-12.505999565124512 97.9000015258789,-12.505999565124512 C103.56199645996094,-18.167999267578125 106.74299621582031,-25.847000122070312 106.74299621582031,-33.854000091552734 C106.74299621582031,-33.854000091552734 106.74299621582031,-39.29499816894531 106.74299621582031,-39.29499816894531 C106.74299621582031,-53.6870002746582 117.61299896240234,-66.0780029296875 131.72500610351562,-68.9000015258789 C131.72500610351562,-68.9000015258789 154.90899658203125,-73.53700256347656 154.90899658203125,-73.53700256347656"></path></g></g></g><g mask="url(#__lottie_element_1188_2)" style="display: block;"><g transform="matrix(1,0,0,1,250,250)" opacity="1"><g opacity="1" transform="matrix(1,0,0,1,0,0)"><path stroke-linecap="round" stroke-linejoin="round" fill-opacity="0" stroke="rgb(0,0,0)" stroke-opacity="1" stroke-width="16" d=" M-95.89900207519531,155.43099975585938 C-100.74400329589844,160.1959991455078 -105.87999725341797,165.2469940185547 -105.87999725341797,165.2469940185547 C-114.21700286865234,173.58399963378906 -127.73400115966797,173.58399963378906 -136.0709991455078,165.2469940185547 C-144.4080047607422,156.91000366210938 -144.4080047607422,143.39300537109375 -136.0709991455078,135.05599975585938 C-136.0709991455078,135.05599975585938 -49.79899978637695,48.88600158691406 22.743000030517578,-23.56999969482422"></path></g><g opacity="1" transform="matrix(1,0,0,1,-13.5,-4)"><path stroke-linecap="butt" stroke-linejoin="miter" fill-opacity="0" stroke-miterlimit="4" stroke="rgb(0,0,0)" stroke-opacity="0" stroke-width="16" d=" M204.5,-215 C204.5,-215 204.5,215 204.5,215 C204.5,215 -204.5,215 -204.5,215 C-204.5,215 -204.5,-215 -204.5,-215 C-204.5,-215 204.5,-215 204.5,-215z"></path></g></g></g><g transform="matrix(1,0,0,1,250,250)" opacity="1" style="display: block;"><g opacity="1" transform="matrix(1,0,0,1,0,0)"><path stroke-linecap="round" stroke-linejoin="round" fill-opacity="0" stroke="rgb(0,0,0)" stroke-opacity="1" stroke-width="16" d="M0 0"></path></g></g><g mask="url(#__lottie_element_1197_1)" style="display: block;"><g transform="matrix(1,0,0,1,242.03933715820312,258.1446838378906)" opacity="1"><g opacity="1" transform="matrix(1,0,0,1,0,0)"><path stroke-linecap="round" stroke-linejoin="round" fill-opacity="0" stroke="rgb(32,118,255)" stroke-opacity="1" stroke-width="16" d=" M-106.38200378417969,-45.2869987487793 C-106.38200378417969,-45.2869987487793 -83.73799896240234,-67.93099975585938 -83.73799896240234,-67.93099975585938 C-83.73799896240234,-67.93099975585938 -0.7120000123977661,-30.19099998474121 -0.7120000123977661,-30.19099998474121 C-0.7120000123977661,-30.19099998474121 29.479999542236328,-60.382999420166016 29.479999542236328,-60.382999420166016 C37.81700134277344,-68.72000122070312 51.33399963378906,-68.72000122070312 59.67100143432617,-60.382999420166016 C68.00800323486328,-52.04600143432617 68.00800323486328,-38.52799987792969 59.67100143432617,-30.19099998474121 C59.67100143432617,-30.19099998474121 29.479999542236328,0 29.479999542236328,0 C29.479999542236328,0 67.21900177001953,83.0260009765625 67.21900177001953,83.0260009765625 C67.21900177001953,83.0260009765625 44.57500076293945,105.66999816894531 44.57500076293945,105.66999816894531 C44.57500076293945,105.66999816894531 -15.807000160217285,45.2869987487793 -15.807000160217285,45.2869987487793 C-15.807000160217285,45.2869987487793 -42.224998474121094,71.70500183105469 -42.224998474121094,71.70500183105469 C-42.224998474121094,71.70500183105469 -38.45100021362305,98.12200164794922 -38.45100021362305,98.12200164794922 C-38.45100021362305,98.12200164794922 -61.09400177001953,120.76599884033203 -61.09400177001953,120.76599884033203 C-61.09400177001953,120.76599884033203 -83.73799896240234,83.0260009765625 -83.73799896240234,83.0260009765625 C-83.73799896240234,83.0260009765625 -121.47699737548828,60.382999420166016 -121.47699737548828,60.382999420166016 C-121.47699737548828,60.382999420166016 -98.83399963378906,37.73899841308594 -98.83399963378906,37.73899841308594 C-98.83399963378906,37.73899841308594 -72.41600036621094,41.51300048828125 -72.41600036621094,41.51300048828125 C-72.41600036621094,41.51300048828125 -45.999000549316406,15.095999717712402 -45.999000549316406,15.095999717712402 C-45.999000549316406,15.095999717712402 -106.38200378417969,-45.2869987487793 -106.38200378417969,-45.2869987487793z"></path></g></g></g><g mask="url(#__lottie_element_1203_1)" style="display: block;"><g transform="matrix(1,0,0,1,51,451)" opacity="1"><g opacity="1" transform="matrix(1,0,0,1,0,0)"><path stroke-linecap="round" stroke-linejoin="round" fill-opacity="0" stroke="rgb(32,118,255)" stroke-opacity="1" stroke-width="16" d=" M-106.38200378417969,-45.2869987487793 C-106.38200378417969,-45.2869987487793 -83.73799896240234,-67.93099975585938 -83.73799896240234,-67.93099975585938 C-83.73799896240234,-67.93099975585938 -0.7120000123977661,-30.19099998474121 -0.7120000123977661,-30.19099998474121 C-0.7120000123977661,-30.19099998474121 29.479999542236328,-60.382999420166016 29.479999542236328,-60.382999420166016 C37.81700134277344,-68.72000122070312 51.33399963378906,-68.72000122070312 59.67100143432617,-60.382999420166016 C68.00800323486328,-52.04600143432617 68.00800323486328,-38.52799987792969 59.67100143432617,-30.19099998474121 C59.67100143432617,-30.19099998474121 29.479999542236328,0 29.479999542236328,0 C29.479999542236328,0 67.21900177001953,83.0260009765625 67.21900177001953,83.0260009765625 C67.21900177001953,83.0260009765625 44.57500076293945,105.66999816894531 44.57500076293945,105.66999816894531 C44.57500076293945,105.66999816894531 -15.807000160217285,45.2869987487793 -15.807000160217285,45.2869987487793 C-15.807000160217285,45.2869987487793 -42.224998474121094,71.70500183105469 -42.224998474121094,71.70500183105469 C-42.224998474121094,71.70500183105469 -38.45100021362305,98.12200164794922 -38.45100021362305,98.12200164794922 C-38.45100021362305,98.12200164794922 -61.09400177001953,120.76599884033203 -61.09400177001953,120.76599884033203 C-61.09400177001953,120.76599884033203 -83.73799896240234,83.0260009765625 -83.73799896240234,83.0260009765625 C-83.73799896240234,83.0260009765625 -121.47699737548828,60.382999420166016 -121.47699737548828,60.382999420166016 C-121.47699737548828,60.382999420166016 -98.83399963378906,37.73899841308594 -98.83399963378906,37.73899841308594 C-98.83399963378906,37.73899841308594 -72.41600036621094,41.51300048828125 -72.41600036621094,41.51300048828125 C-72.41600036621094,41.51300048828125 -45.999000549316406,15.095999717712402 -45.999000549316406,15.095999717712402 C-45.999000549316406,15.095999717712402 -106.38200378417969,-45.2869987487793 -106.38200378417969,-45.2869987487793z"></path></g></g></g><g transform="matrix(1,0,0,1,250,250)" opacity="1" style="display: block;"><g opacity="1" transform="matrix(1,0,0,1,0,0)"><path stroke-linecap="round" stroke-linejoin="round" fill-opacity="0" stroke="rgb(0,0,0)" stroke-opacity="1" stroke-width="16" d=" M120.76599884033203,120.76599884033203 C53.119998931884766,188.41200256347656 -53.83100128173828,188.41200256347656 -121.47699737548828,120.76599884033203 C-188.1739959716797,54.069000244140625 -188.1739959716797,-54.779998779296875 -121.47699737548828,-121.47699737548828 C-54.779998779296875,-188.1739959716797 54.069000244140625,-188.1739959716797 120.76599884033203,-121.47699737548828 C188.41200256347656,-53.83100128173828 188.41200256347656,53.119998931884766 120.76599884033203,120.76599884033203z"></path></g></g></g></svg>