<svg xmlns="http://www.w3.org/2000/svg" xmlns:xlink="http://www.w3.org/1999/xlink" viewBox="0 0 500 500" width="500" height="500" preserveAspectRatio="xMidYMid meet" style="width: 100%; height: 100%; transform: translate3d(0px, 0px, 0px); content-visibility: visible;"><defs><clipPath id="__lottie_element_141"><rect width="500" height="500" x="0" y="0"></rect></clipPath><g id="__lottie_element_146"><g style="display: block;" transform="matrix(0.9988136291503906,-0.04869680851697922,0.04869680851697922,0.9988136291503906,58.08099365234375,56.01112365722656)" opacity="1"><path fill="rgb(255,0,0)" fill-opacity="1" d=" M77.47,358.96 C77.47,358.96 77.27,358.84 77.27,358.84 C70.34,354.84 67.96,345.98 71.96,339.05 C71.96,339.05 86.69,313.54 86.69,313.54 C90.69,306.6 99.56,304.23 106.49,308.23 C106.49,308.23 106.69,308.35 106.69,308.35 C113.62,312.35 116,321.22 112,328.15 C112,328.15 97.27,353.66 97.27,353.66 C93.27,360.59 84.4,362.96 77.47,358.96z M103.21,373.01 C103.21,373.01 103,372.89 103,372.89 C96.07,368.89 93.7,360.03 97.7,353.09 C97.7,353.09 112.43,327.58 112.43,327.58 C116.43,320.65 125.29,318.28 132.23,322.28 C132.23,322.28 132.43,322.4 132.43,322.4 C139.36,326.4 141.74,335.26 137.74,342.19 C137.74,342.19 123.01,367.7 123.01,367.7 C119,374.64 110.14,377.01 103.21,373.01z M129.92,385.77 C129.92,385.77 129.72,385.65 129.72,385.65 C122.79,381.65 120.41,372.79 124.41,365.86 C124.41,365.86 139.14,340.35 139.14,340.35 C143.15,333.41 152.01,331.04 158.94,335.04 C158.94,335.04 159.14,335.16 159.14,335.16 C166.08,339.16 168.45,348.02 164.45,354.96 C164.45,354.96 149.72,380.47 149.72,380.47 C145.72,387.4 136.86,389.77 129.92,385.77z M153.08,373.99 C153.08,373.99 160.09,361.84 160.09,361.84 C164.13,354.85 173.06,352.46 180.05,356.49 C187.04,360.53 189.43,369.46 185.4,376.45 C185.4,376.45 178.38,388.6 178.38,388.6 C174.35,395.59 165.41,397.99 158.43,393.95 C151.44,389.92 149.04,380.98 153.08,373.99z M212.67,372.94 C220.45,377.43 223.12,387.38 218.62,395.16 C214.13,402.94 204.18,405.61 196.41,401.11 C196.41,401.11 177.5,389.96 177.5,389.96 M241.68,352.13 C249.46,356.62 252.12,366.56 247.63,374.34 C243.14,382.12 233.19,384.79 225.41,380.3 C225.41,380.3 201.86,366.71 201.86,366.71 M255.98,322.81 C263.76,327.3 266.42,337.25 261.93,345.03 C257.44,352.8 247.49,355.47 239.71,350.98 C239.71,350.98 211.54,334.71 211.54,334.71 M243.59,278.11 C243.59,278.11 271.1,293.96 271.1,293.96 C278.87,298.46 281.54,308.4 277.05,316.18 C272.56,323.96 262.61,326.63 254.83,322.14 C254.83,322.14 253.19,321.19 253.19,321.19 C253.19,321.19 226.6,305.84 226.6,305.84 M313.35,187.61 C313.35,187.61 291.71,195.83 291.71,195.83 C291.71,195.83 251.84,213 198.61,202.36 C187.27,199.87 174.59,203.84 168.89,207.13 C168.89,207.13 118.15,236.42 118.15,236.42 C109.15,241.62 106.07,253.13 111.26,262.13 C116.46,271.13 127.97,274.21 136.97,269.02 C136.97,269.02 171.19,249.26 171.19,249.26 C190.41,270.1 209.69,280.93 243.59,278.11 C253.68,283.94 281.73,300.13 281.73,300.13 C301.53,297.77 301.19,297.57 315.9,286.12 M47.28,286.51 C47.28,286.51 61.59,293.49 64.87,300.76 C68.33,308.51 71.32,326.15 76.9,330.49 M52.28,273.01 C52.28,273.01 139.28,359.01 139.28,359.01 C139.28,359.01 291.28,284.01 291.28,284.01 C291.28,284.01 226.28,250.01 226.28,250.01 C226.28,250.01 177.18,231.83 158.62,213.06 C140.06,194.28 110.15,210.4 90.63,203.76 C90.63,203.76 70.77,197.34 70.77,197.34 C70.77,197.34 48.13,190.3 48.13,190.3 M317.26,300.65 C317.26,300.65 351.25,300.65 351.25,300.65 C351.25,300.65 351.25,176.01 351.25,176.01 C351.25,176.01 317.26,176.01 317.26,176.01 C317.26,176.01 317.26,300.65 317.26,300.65z M11.31,176.01 C11.31,176.01 45.31,176.01 45.31,176.01 C45.31,176.01 45.31,300.65 45.31,300.65 C45.31,300.65 11.31,300.65 11.31,300.65 C11.31,300.65 11.31,176.01 11.31,176.01z"></path><g opacity="1" transform="matrix(1,0,0,1,91.9739990234375,333.6059875488281)"><path stroke-linecap="round" stroke-linejoin="round" fill-opacity="0" stroke="rgb(0,0,0)" stroke-opacity="1" stroke-width="16" d=" M-14.50102424621582,25.356843948364258 C-14.50102424621582,25.356843948364258 -14.706024169921875,25.237844467163086 -14.706024169921875,25.237844467163086 C-21.638023376464844,21.235843658447266 -24.013023376464844,12.372843742370605 -20.011024475097656,5.4418439865112305 C-20.011024475097656,5.4418439865112305 -5.282024383544922,-20.069156646728516 -5.282024383544922,-20.069156646728516 C-1.2800241708755493,-27.001155853271484 7.5829758644104,-29.376155853271484 14.514975547790527,-25.374155044555664 C14.514975547790527,-25.374155044555664 14.718976020812988,-25.256155014038086 14.718976020812988,-25.256155014038086 C21.650976181030273,-21.2541561126709 24.026975631713867,-12.390155792236328 20.02497673034668,-5.458155632019043 C20.02497673034668,-5.458155632019043 5.295975685119629,20.051843643188477 5.295975685119629,20.051843643188477 C1.292975902557373,26.983844757080078 -7.569024085998535,29.358844757080078 -14.50102424621582,25.356843948364258z"></path></g><g opacity="1" transform="matrix(1,0,0,1,117.28099822998047,348.2170104980469)"><path stroke-linecap="round" stroke-linejoin="round" fill-opacity="0" stroke="rgb(0,0,0)" stroke-opacity="1" stroke-width="16" d=" M-14.07138442993164,24.79294204711914 C-14.07138442993164,24.79294204711914 -14.276384353637695,24.67394256591797 -14.276384353637695,24.67394256591797 C-21.208385467529297,20.67194175720215 -23.583385467529297,11.808942794799805 -19.581384658813477,4.8779425621032715 C-19.581384658813477,4.8779425621032715 -4.852384567260742,-20.633058547973633 -4.852384567260742,-20.633058547973633 C-0.8503846526145935,-27.5650577545166 8.012615203857422,-29.9400577545166 14.944615364074707,-25.93805694580078 C14.944615364074707,-25.93805694580078 15.148614883422852,-25.820056915283203 15.148614883422852,-25.820056915283203 C22.080615997314453,-21.818058013916016 24.456615447998047,-12.954057693481445 20.454614639282227,-6.02205753326416 C20.454614639282227,-6.02205753326416 5.725615501403809,19.48794174194336 5.725615501403809,19.48794174194336 C1.722615361213684,26.41994285583496 -7.139384746551514,28.79494285583496 -14.07138442993164,24.79294204711914z"></path></g><g opacity="1" transform="matrix(1,0,0,1,142.58700561523438,362.8269958496094)"><path stroke-linecap="round" stroke-linejoin="round" fill-opacity="0" stroke="rgb(0,0,0)" stroke-opacity="1" stroke-width="16" d=" M-12.66279411315918,22.944168090820312 C-12.66279411315918,22.944168090820312 -12.867794036865234,22.825166702270508 -12.867794036865234,22.825166702270508 C-19.799793243408203,18.82316780090332 -22.174793243408203,9.960166931152344 -18.172794342041016,3.029167413711548 C-18.172794342041016,3.029167413711548 -3.4437942504882812,-22.48183250427246 -3.4437942504882812,-22.48183250427246 C0.5582058429718018,-29.413833618164062 9.421205520629883,-31.788833618164062 16.353206634521484,-27.786832809448242 C16.353206634521484,-27.786832809448242 16.557205200195312,-27.668832778930664 16.557205200195312,-27.668832778930664 C23.489206314086914,-23.666831970214844 25.865205764770508,-14.80283260345459 21.863204956054688,-7.870832443237305 C21.863204956054688,-7.870832443237305 7.133205890655518,17.63916778564453 7.133205890655518,17.63916778564453 C3.1312057971954346,24.5711669921875 -5.7307939529418945,26.9461669921875 -12.66279411315918,22.944168090820312z"></path></g><g opacity="1" transform="matrix(1,0,0,1,169.23800659179688,375.2229919433594)"><path stroke-linecap="round" stroke-linejoin="round" fill-opacity="0" stroke="rgb(0,0,0)" stroke-opacity="1" stroke-width="16" d=" M-16.160999298095703,-1.2300000190734863 C-16.160999298095703,-1.2300000190734863 -9.145000457763672,-13.381999969482422 -9.145000457763672,-13.381999969482422 C-5.111000061035156,-20.3700008392334 3.825000047683716,-22.763999938964844 10.812999725341797,-18.729000091552734 C17.801000595092773,-14.694999694824219 20.195999145507812,-5.758999824523926 16.160999298095703,1.2289999723434448 C16.160999298095703,1.2289999723434448 9.145000457763672,13.380999565124512 9.145000457763672,13.380999565124512 C5.111000061035156,20.368999481201172 -3.825000047683716,22.76300048828125 -10.812999725341797,18.72800064086914 C-17.801000595092773,14.694000244140625 -20.195999145507812,5.757999897003174 -16.160999298095703,-1.2300000190734863z"></path></g><g opacity="1" transform="matrix(1,0,0,1,200.31900024414062,389.2869873046875)"><path stroke-linecap="round" stroke-linejoin="round" fill-opacity="0" stroke="rgb(0,0,0)" stroke-opacity="1" stroke-width="16" d=" M12.352198600769043,-16.34464454650879 C20.13119888305664,-11.853643417358398 22.796199798583984,-1.9056437015533447 18.304201126098633,5.873356342315674 C13.813199996948242,13.653356552124023 3.8652005195617676,16.318355560302734 -3.913799524307251,11.827356338500977 C-3.913799524307251,11.827356338500977 -22.81800079345703,0.6690000295639038 -22.81800079345703,0.6690000295639038"></path></g><g opacity="1" transform="matrix(1,0,0,1,228.35800170898438,369.24798583984375)"><path stroke-linecap="round" stroke-linejoin="round" fill-opacity="0" stroke="rgb(0,0,0)" stroke-opacity="1" stroke-width="16" d=" M13.320576667785645,-17.122365951538086 C21.099576950073242,-12.631365776062012 23.764577865600586,-2.6833653450012207 19.2725772857666,5.095634460449219 C14.781577110290527,12.875635147094727 4.8345770835876465,15.540635108947754 -2.944422960281372,11.04963493347168 C-2.944422960281372,11.04963493347168 -26.494422912597656,-2.53436541557312 -26.494422912597656,-2.53436541557312"></path></g><g opacity="1" transform="matrix(1,0,0,1,244.7469940185547,342.4830017089844)"><path stroke-linecap="round" stroke-linejoin="round" fill-opacity="0" stroke="rgb(0,0,0)" stroke-opacity="1" stroke-width="16" d=" M11.229731559753418,-19.676435470581055 C19.008731842041016,-15.18543529510498 21.673730850219727,-5.236435413360596 17.181732177734375,2.5425643920898438 C12.6907320022583,10.321564674377441 2.742731809616089,12.987564086914062 -5.03626823425293,8.495564460754395 C-5.03626823425293,8.495564460754395 -33.206268310546875,-7.768435478210449 -33.206268310546875,-7.768435478210449"></path></g><g opacity="1" transform="matrix(1,0,0,1,264.7090148925781,305.45599365234375)"><path stroke-linecap="round" stroke-linejoin="round" fill-opacity="0" stroke="rgb(0,0,0)" stroke-opacity="1" stroke-width="16" d=" M-21.117000579833984,-27.340999603271484 C-21.117000579833984,-27.340999603271484 6.386072635650635,-11.490997314453125 6.386072635650635,-11.490997314453125 C14.165072441101074,-6.998997688293457 16.8300724029541,2.948002338409424 12.339073181152344,10.728002548217773 C7.8480730056762695,18.507001876831055 -2.0999271869659424,21.1720027923584 -9.878927230834961,16.681001663208008 C-9.878927230834961,16.681001663208008 -11.516926765441895,15.735002517700195 -11.516926765441895,15.735002517700195 C-11.516926765441895,15.735002517700195 -38.105926513671875,0.3840022385120392 -38.105926513671875,0.3840022385120392"></path></g><g opacity="1" transform="matrix(1,0,0,1,210.98300170898438,243.8719940185547)"><path stroke-linecap="round" stroke-linejoin="round" fill-opacity="0" stroke="rgb(0,0,0)" stroke-opacity="1" stroke-width="0" d=" M102.36799621582031,-56.262001037597656 C102.36799621582031,-56.262001037597656 80.7229995727539,-48.04399871826172 80.7229995727539,-48.04399871826172 C80.7229995727539,-48.04399871826172 40.85200119018555,-30.875999450683594 -12.376999855041504,-41.507999420166016 C-23.714000701904297,-44 -36.38999938964844,-40.0359992980957 -42.0890007019043,-36.74599838256836 C-42.0890007019043,-36.74599838256836 -92.83300018310547,-7.448999881744385 -92.83300018310547,-7.448999881744385 C-101.83300018310547,-2.253000020980835 -104.91699981689453,9.255999565124512 -99.72100067138672,18.256000518798828 C-94.5250015258789,27.256000518798828 -83.01599884033203,30.34000015258789 -74.01599884033203,25.143999099731445 C-74.01599884033203,25.143999099731445 -39.79199981689453,5.383999824523926 -39.79199981689453,5.383999824523926 C-20.57200050354004,26.229000091552734 -1.2979999780654907,37.05699920654297 32.60900115966797,34.24300003051758 C42.70000076293945,40.06800079345703 70.7490005493164,56.26300048828125 70.7490005493164,56.26300048828125 C90.5459976196289,53.895999908447266 90.20600128173828,53.702999114990234 104.91699981689453,42.250999450683594"></path></g><g opacity="1" transform="matrix(1,0,0,1,62.09400177001953,308.5)"><path stroke-linecap="round" stroke-linejoin="round" fill-opacity="0" stroke="rgb(0,0,0)" stroke-opacity="1" stroke-width="16" d=" M-14.8100004196167,-21.98900032043457 C-14.8100004196167,-21.98900032043457 -0.5059999823570251,-15.010000228881836 2.7739999294281006,-7.743000030517578 C6.23799991607666,0.008999999612569809 9.222999572753906,17.652000427246094 14.8100004196167,21.98900032043457"></path></g><g opacity="1" transform="matrix(1,0,0,1,103.37699890136719,201.677001953125)"><path stroke-linecap="round" stroke-linejoin="round" fill-opacity="0" stroke="rgb(0,0,0)" stroke-opacity="1" stroke-width="0" d=" M-51.09299850463867,71.33200073242188 C-51.09299850463867,71.33200073242188 35.90700149536133,157.33200073242188 35.90700149536133,157.33200073242188 C35.90700149536133,157.33200073242188 187.90699768066406,82.33200073242188 187.90699768066406,82.33200073242188 C187.90699768066406,82.33200073242188 122.90699768066406,48.332000732421875 122.90699768066406,48.332000732421875 C122.90699768066406,48.332000732421875 73.80500030517578,30.1560001373291 55.24599838256836,11.378000259399414 C36.6870002746582,-7.400000095367432 6.77400016784668,8.723999977111816 -12.741999626159668,2.0840001106262207 C-12.741999626159668,2.0840001106262207 -32.608001708984375,-4.3420000076293945 -32.608001708984375,-4.3420000076293945 C-32.608001708984375,-4.3420000076293945 -55.24599838256836,-11.378000259399414 -55.24599838256836,-11.378000259399414"></path></g><g opacity="1" transform="matrix(1,0,0,1,334.2569885253906,238.33099365234375)"><path stroke-linecap="round" stroke-linejoin="round" fill-opacity="0" stroke="rgb(32,118,255)" stroke-opacity="1" stroke-width="16" d=" M-16.996999740600586,62.321998596191406 C-16.996999740600586,62.321998596191406 16.996999740600586,62.321998596191406 16.996999740600586,62.321998596191406 C16.996999740600586,62.321998596191406 16.996999740600586,-62.321998596191406 16.996999740600586,-62.321998596191406 C16.996999740600586,-62.321998596191406 -16.996999740600586,-62.321998596191406 -16.996999740600586,-62.321998596191406 C-16.996999740600586,-62.321998596191406 -16.996999740600586,62.321998596191406 -16.996999740600586,62.321998596191406z"></path></g><g opacity="1" transform="matrix(1,0,0,1,28.312999725341797,238.3300018310547)"><path stroke-linecap="round" stroke-linejoin="round" fill-opacity="0" stroke="rgb(32,118,255)" stroke-opacity="1" stroke-width="16" d=" M-16.999000549316406,-62.32099914550781 C-16.999000549316406,-62.32099914550781 16.999000549316406,-62.32099914550781 16.999000549316406,-62.32099914550781 C16.999000549316406,-62.32099914550781 16.999000549316406,62.32099914550781 16.999000549316406,62.32099914550781 C16.999000549316406,62.32099914550781 -16.999000549316406,62.32099914550781 -16.999000549316406,62.32099914550781 C-16.999000549316406,62.32099914550781 -16.999000549316406,-62.32099914550781 -16.999000549316406,-62.32099914550781z"></path></g></g></g><g id="__lottie_element_155"><g style="display: block;" transform="matrix(0.9988136291503906,-0.04869680851697922,0.04869680851697922,0.9988136291503906,58.08099365234375,56.01112365722656)" opacity="1"><path fill="rgb(255,0,0)" fill-opacity="1" d=" M77.47,358.96 C77.47,358.96 77.27,358.84 77.27,358.84 C70.34,354.84 67.96,345.98 71.96,339.05 C71.96,339.05 86.69,313.54 86.69,313.54 C90.69,306.6 99.56,304.23 106.49,308.23 C106.49,308.23 106.69,308.35 106.69,308.35 C113.62,312.35 116,321.22 112,328.15 C112,328.15 97.27,353.66 97.27,353.66 C93.27,360.59 84.4,362.96 77.47,358.96z M103.21,373.01 C103.21,373.01 103,372.89 103,372.89 C96.07,368.89 93.7,360.03 97.7,353.09 C97.7,353.09 112.43,327.58 112.43,327.58 C116.43,320.65 125.29,318.28 132.23,322.28 C132.23,322.28 132.43,322.4 132.43,322.4 C139.36,326.4 141.74,335.26 137.74,342.19 C137.74,342.19 123.01,367.7 123.01,367.7 C119,374.64 110.14,377.01 103.21,373.01z M129.92,385.77 C129.92,385.77 129.72,385.65 129.72,385.65 C122.79,381.65 120.41,372.79 124.41,365.86 C124.41,365.86 139.14,340.35 139.14,340.35 C143.15,333.41 152.01,331.04 158.94,335.04 C158.94,335.04 159.14,335.16 159.14,335.16 C166.08,339.16 168.45,348.02 164.45,354.96 C164.45,354.96 149.72,380.47 149.72,380.47 C145.72,387.4 136.86,389.77 129.92,385.77z M153.08,373.99 C153.08,373.99 160.09,361.84 160.09,361.84 C164.13,354.85 173.06,352.46 180.05,356.49 C187.04,360.53 189.43,369.46 185.4,376.45 C185.4,376.45 178.38,388.6 178.38,388.6 C174.35,395.59 165.41,397.99 158.43,393.95 C151.44,389.92 149.04,380.98 153.08,373.99z M313.35,187.61 C313.35,187.61 291.71,195.83 291.71,195.83 C291.71,195.83 251.84,213 198.61,202.36 C187.27,199.87 174.59,203.84 168.89,207.13 C168.89,207.13 118.15,236.42 118.15,236.42 C109.15,241.62 106.07,253.13 111.26,262.13 C116.46,271.13 127.97,274.21 136.97,269.02 C136.97,269.02 171.19,249.26 171.19,249.26 C190.41,270.1 209.69,280.93 243.59,278.11 C253.68,283.94 281.73,300.13 281.73,300.13 C301.53,297.77 301.19,297.57 315.9,286.12"></path><g opacity="1" transform="matrix(1,0,0,1,91.9739990234375,333.6059875488281)"><path stroke-linecap="round" stroke-linejoin="round" fill-opacity="0" stroke="rgb(0,0,0)" stroke-opacity="1" stroke-width="0" d=" M-14.50102424621582,25.356843948364258 C-14.50102424621582,25.356843948364258 -14.706024169921875,25.237844467163086 -14.706024169921875,25.237844467163086 C-21.638023376464844,21.235843658447266 -24.013023376464844,12.372843742370605 -20.011024475097656,5.4418439865112305 C-20.011024475097656,5.4418439865112305 -5.282024383544922,-20.069156646728516 -5.282024383544922,-20.069156646728516 C-1.2800241708755493,-27.001155853271484 7.5829758644104,-29.376155853271484 14.514975547790527,-25.374155044555664 C14.514975547790527,-25.374155044555664 14.718976020812988,-25.256155014038086 14.718976020812988,-25.256155014038086 C21.650976181030273,-21.2541561126709 24.026975631713867,-12.390155792236328 20.02497673034668,-5.458155632019043 C20.02497673034668,-5.458155632019043 5.295975685119629,20.051843643188477 5.295975685119629,20.051843643188477 C1.292975902557373,26.983844757080078 -7.569024085998535,29.358844757080078 -14.50102424621582,25.356843948364258z"></path></g><g opacity="1" transform="matrix(1,0,0,1,117.28099822998047,348.2170104980469)"><path stroke-linecap="round" stroke-linejoin="round" fill-opacity="0" stroke="rgb(0,0,0)" stroke-opacity="1" stroke-width="16" d=" M-14.07138442993164,24.79294204711914 C-14.07138442993164,24.79294204711914 -14.276384353637695,24.67394256591797 -14.276384353637695,24.67394256591797 C-21.208385467529297,20.67194175720215 -23.583385467529297,11.808942794799805 -19.581384658813477,4.8779425621032715 C-19.581384658813477,4.8779425621032715 -4.852384567260742,-20.633058547973633 -4.852384567260742,-20.633058547973633 C-0.8503846526145935,-27.5650577545166 8.012615203857422,-29.9400577545166 14.944615364074707,-25.93805694580078 C14.944615364074707,-25.93805694580078 15.148614883422852,-25.820056915283203 15.148614883422852,-25.820056915283203 C22.080615997314453,-21.818058013916016 24.456615447998047,-12.954057693481445 20.454614639282227,-6.02205753326416 C20.454614639282227,-6.02205753326416 5.725615501403809,19.48794174194336 5.725615501403809,19.48794174194336 C1.722615361213684,26.41994285583496 -7.139384746551514,28.79494285583496 -14.07138442993164,24.79294204711914z"></path></g><g opacity="1" transform="matrix(1,0,0,1,142.58700561523438,362.8269958496094)"><path stroke-linecap="round" stroke-linejoin="round" fill-opacity="0" stroke="rgb(0,0,0)" stroke-opacity="1" stroke-width="16" d=" M-12.66279411315918,22.944168090820312 C-12.66279411315918,22.944168090820312 -12.867794036865234,22.825166702270508 -12.867794036865234,22.825166702270508 C-19.799793243408203,18.82316780090332 -22.174793243408203,9.960166931152344 -18.172794342041016,3.029167413711548 C-18.172794342041016,3.029167413711548 -3.4437942504882812,-22.48183250427246 -3.4437942504882812,-22.48183250427246 C0.5582058429718018,-29.413833618164062 9.421205520629883,-31.788833618164062 16.353206634521484,-27.786832809448242 C16.353206634521484,-27.786832809448242 16.557205200195312,-27.668832778930664 16.557205200195312,-27.668832778930664 C23.489206314086914,-23.666831970214844 25.865205764770508,-14.80283260345459 21.863204956054688,-7.870832443237305 C21.863204956054688,-7.870832443237305 7.133205890655518,17.63916778564453 7.133205890655518,17.63916778564453 C3.1312057971954346,24.5711669921875 -5.7307939529418945,26.9461669921875 -12.66279411315918,22.944168090820312z"></path></g><g opacity="1" transform="matrix(1,0,0,1,169.23800659179688,375.2229919433594)"><path stroke-linecap="round" stroke-linejoin="round" fill-opacity="0" stroke="rgb(0,0,0)" stroke-opacity="1" stroke-width="0" d=" M-16.160999298095703,-1.2300000190734863 C-16.160999298095703,-1.2300000190734863 -9.145000457763672,-13.381999969482422 -9.145000457763672,-13.381999969482422 C-5.111000061035156,-20.3700008392334 3.825000047683716,-22.763999938964844 10.812999725341797,-18.729000091552734 C17.801000595092773,-14.694999694824219 20.195999145507812,-5.758999824523926 16.160999298095703,1.2289999723434448 C16.160999298095703,1.2289999723434448 9.145000457763672,13.380999565124512 9.145000457763672,13.380999565124512 C5.111000061035156,20.368999481201172 -3.825000047683716,22.76300048828125 -10.812999725341797,18.72800064086914 C-17.801000595092773,14.694000244140625 -20.195999145507812,5.757999897003174 -16.160999298095703,-1.2300000190734863z"></path></g><g opacity="1" transform="matrix(1,0,0,1,210.98300170898438,243.8719940185547)"><path stroke-linecap="round" stroke-linejoin="round" fill-opacity="0" stroke="rgb(0,0,0)" stroke-opacity="1" stroke-width="0" d=" M102.36799621582031,-56.262001037597656 C102.36799621582031,-56.262001037597656 80.7229995727539,-48.04399871826172 80.7229995727539,-48.04399871826172 C80.7229995727539,-48.04399871826172 40.85200119018555,-30.875999450683594 -12.376999855041504,-41.507999420166016 C-23.714000701904297,-44 -36.38999938964844,-40.0359992980957 -42.0890007019043,-36.74599838256836 C-42.0890007019043,-36.74599838256836 -92.83300018310547,-7.448999881744385 -92.83300018310547,-7.448999881744385 C-101.83300018310547,-2.253000020980835 -104.91699981689453,9.255999565124512 -99.72100067138672,18.256000518798828 C-94.5250015258789,27.256000518798828 -83.01599884033203,30.34000015258789 -74.01599884033203,25.143999099731445 C-74.01599884033203,25.143999099731445 -39.79199981689453,5.383999824523926 -39.79199981689453,5.383999824523926 C-20.57200050354004,26.229000091552734 -1.2979999780654907,37.05699920654297 32.60900115966797,34.24300003051758 C42.70000076293945,40.06800079345703 70.7490005493164,56.26300048828125 70.7490005493164,56.26300048828125 C90.5459976196289,53.895999908447266 90.20600128173828,53.702999114990234 104.91699981689453,42.250999450683594"></path></g></g></g><filter id="__lottie_element_159" filterUnits="objectBoundingBox" x="0%" y="0%" width="100%" height="100%"><feComponentTransfer in="SourceGraphic"><feFuncA type="table" tableValues="1.0 0.0"></feFuncA></feComponentTransfer></filter><mask id="__lottie_element_155_2" mask-type="alpha"><g filter="url(#__lottie_element_159)"><rect width="500" height="500" x="0" y="0" fill="#ffffff" opacity="0"></rect><use xlink:href="#__lottie_element_155"></use></g></mask><filter id="__lottie_element_160" filterUnits="objectBoundingBox" x="0%" y="0%" width="100%" height="100%"><feComponentTransfer in="SourceGraphic"><feFuncA type="table" tableValues="1.0 0.0"></feFuncA></feComponentTransfer></filter><mask id="__lottie_element_146_2" mask-type="alpha"><g filter="url(#__lottie_element_160)"><rect width="500" height="500" x="0" y="0" fill="#ffffff" opacity="0"></rect><use xlink:href="#__lottie_element_146"></use></g></mask></defs><g clip-path="url(#__lottie_element_141)"><g mask="url(#__lottie_element_146_2)" style="display: block;"><g transform="matrix(1,0,0,1,68.71600341796875,43.28364562988281)" opacity="1"><g opacity="1" transform="matrix(1,0,0,1,0,0)"><path stroke-linecap="round" stroke-linejoin="round" fill-opacity="0" stroke="rgb(0,0,0)" stroke-opacity="1" stroke-width="16" d=" M113.3499984741211,240.9080047607422 C113.3499984741211,240.9080047607422 113.29499816894531,86.41600036621094 113.29499816894531,86.41600036621094"></path></g><g opacity="1" transform="matrix(1,0,0,1,0,0)"><path stroke-linecap="round" stroke-linejoin="round" fill-opacity="0" stroke="rgb(0,0,0)" stroke-opacity="1" stroke-width="16" d=" M249.3300018310547,241.0449981689453 C249.3300018310547,241.0449981689453 249.27499389648438,86.6050033569336 249.27499389648438,86.6050033569336"></path></g><g opacity="1" transform="matrix(1,0,0,1,181.28500366210938,69.74500274658203)"><path stroke-linecap="round" stroke-linejoin="round" fill-opacity="0" stroke="rgb(0,0,0)" stroke-opacity="1" stroke-width="16" d=" M-85.9520034790039,29.7450008392334 C-85.9520034790039,29.7450008392334 -6.638999938964844,-26.906999588012695 -6.638999938964844,-26.906999588012695 C-2.6700000762939453,-29.7450008392334 2.6700000762939453,-29.7450008392334 6.638999938964844,-26.906999588012695 C6.638999938964844,-26.906999588012695 85.9520034790039,29.7450008392334 85.9520034790039,29.7450008392334"></path></g><g opacity="1" transform="matrix(1,0,0,1,181.28500366210938,183.4149932861328)"><path stroke-linecap="round" stroke-linejoin="round" fill-opacity="0" stroke="rgb(32,118,255)" stroke-opacity="1" stroke-width="16" d=" M-22.606000900268555,65.64199829101562 C-22.606000900268555,65.64199829101562 -22.660999298095703,-29.642000198364258 -22.660999298095703,-29.642000198364258 C-22.660999298095703,-29.642000198364258 22.660999298095703,-29.642000198364258 22.660999298095703,-29.642000198364258 C22.660999298095703,-29.642000198364258 22.715999603271484,55.930999755859375 22.715999603271484,55.930999755859375"></path></g><g opacity="1" transform="matrix(1,0,0,1,181.32899475097656,103.33399963378906)"><path stroke-linecap="round" stroke-linejoin="round" fill-opacity="0" stroke="rgb(32,118,255)" stroke-opacity="1" stroke-width="16" d=" M0.08399999886751175,-22.663000106811523 C0.08399999886751175,-22.663000106811523 -33.99300003051758,0.0010000000474974513 -33.99300003051758,0.0010000000474974513 C-33.99300003051758,0.0010000000474974513 -33.99300003051758,22.663000106811523 -33.99300003051758,22.663000106811523 C-33.99300003051758,22.663000106811523 33.99300003051758,22.663000106811523 33.99300003051758,22.663000106811523 C33.99300003051758,22.663000106811523 33.99300003051758,0.0010000000474974513 33.99300003051758,0.0010000000474974513 C33.99300003051758,0.0010000000474974513 0.08399999886751175,-22.663000106811523 0.08399999886751175,-22.663000106811523z"></path></g></g></g><g style="display: block;" transform="matrix(0.9988136291503906,-0.04869680851697922,0.04869680851697922,0.9988136291503906,58.08099365234375,56.01112365722656)" opacity="1"><g opacity="1" transform="matrix(1,0,0,1,91.9739990234375,333.6059875488281)"><path stroke-linecap="round" stroke-linejoin="round" fill-opacity="0" stroke="rgb(0,0,0)" stroke-opacity="1" stroke-width="16" d=" M-14.50102424621582,25.356843948364258 C-14.50102424621582,25.356843948364258 -14.706024169921875,25.237844467163086 -14.706024169921875,25.237844467163086 C-21.638023376464844,21.235843658447266 -24.013023376464844,12.372843742370605 -20.011024475097656,5.4418439865112305 C-20.011024475097656,5.4418439865112305 -5.282024383544922,-20.069156646728516 -5.282024383544922,-20.069156646728516 C-1.2800241708755493,-27.001155853271484 7.5829758644104,-29.376155853271484 14.514975547790527,-25.374155044555664 C14.514975547790527,-25.374155044555664 14.718976020812988,-25.256155014038086 14.718976020812988,-25.256155014038086 C21.650976181030273,-21.2541561126709 24.026975631713867,-12.390155792236328 20.02497673034668,-5.458155632019043 C20.02497673034668,-5.458155632019043 5.295975685119629,20.051843643188477 5.295975685119629,20.051843643188477 C1.292975902557373,26.983844757080078 -7.569024085998535,29.358844757080078 -14.50102424621582,25.356843948364258z"></path></g><g opacity="1" transform="matrix(1,0,0,1,117.28099822998047,348.2170104980469)"><path stroke-linecap="round" stroke-linejoin="round" fill-opacity="0" stroke="rgb(0,0,0)" stroke-opacity="1" stroke-width="16" d=" M-14.07138442993164,24.79294204711914 C-14.07138442993164,24.79294204711914 -14.276384353637695,24.67394256591797 -14.276384353637695,24.67394256591797 C-21.208385467529297,20.67194175720215 -23.583385467529297,11.808942794799805 -19.581384658813477,4.8779425621032715 C-19.581384658813477,4.8779425621032715 -4.852384567260742,-20.633058547973633 -4.852384567260742,-20.633058547973633 C-0.8503846526145935,-27.5650577545166 8.012615203857422,-29.9400577545166 14.944615364074707,-25.93805694580078 C14.944615364074707,-25.93805694580078 15.148614883422852,-25.820056915283203 15.148614883422852,-25.820056915283203 C22.080615997314453,-21.818058013916016 24.456615447998047,-12.954057693481445 20.454614639282227,-6.02205753326416 C20.454614639282227,-6.02205753326416 5.725615501403809,19.48794174194336 5.725615501403809,19.48794174194336 C1.722615361213684,26.41994285583496 -7.139384746551514,28.79494285583496 -14.07138442993164,24.79294204711914z"></path></g><g opacity="1" transform="matrix(1,0,0,1,142.58700561523438,362.8269958496094)"><path stroke-linecap="round" stroke-linejoin="round" fill-opacity="0" stroke="rgb(0,0,0)" stroke-opacity="1" stroke-width="16" d=" M-12.66279411315918,22.944168090820312 C-12.66279411315918,22.944168090820312 -12.867794036865234,22.825166702270508 -12.867794036865234,22.825166702270508 C-19.799793243408203,18.82316780090332 -22.174793243408203,9.960166931152344 -18.172794342041016,3.029167413711548 C-18.172794342041016,3.029167413711548 -3.4437942504882812,-22.48183250427246 -3.4437942504882812,-22.48183250427246 C0.5582058429718018,-29.413833618164062 9.421205520629883,-31.788833618164062 16.353206634521484,-27.786832809448242 C16.353206634521484,-27.786832809448242 16.557205200195312,-27.668832778930664 16.557205200195312,-27.668832778930664 C23.489206314086914,-23.666831970214844 25.865205764770508,-14.80283260345459 21.863204956054688,-7.870832443237305 C21.863204956054688,-7.870832443237305 7.133205890655518,17.63916778564453 7.133205890655518,17.63916778564453 C3.1312057971954346,24.5711669921875 -5.7307939529418945,26.9461669921875 -12.66279411315918,22.944168090820312z"></path></g><g opacity="1" transform="matrix(1,0,0,1,169.23800659179688,375.2229919433594)"><path stroke-linecap="round" stroke-linejoin="round" fill-opacity="0" stroke="rgb(0,0,0)" stroke-opacity="1" stroke-width="16" d=" M-16.160999298095703,-1.2300000190734863 C-16.160999298095703,-1.2300000190734863 -9.145000457763672,-13.381999969482422 -9.145000457763672,-13.381999969482422 C-5.111000061035156,-20.3700008392334 3.825000047683716,-22.763999938964844 10.812999725341797,-18.729000091552734 C17.801000595092773,-14.694999694824219 20.195999145507812,-5.758999824523926 16.160999298095703,1.2289999723434448 C16.160999298095703,1.2289999723434448 9.145000457763672,13.380999565124512 9.145000457763672,13.380999565124512 C5.111000061035156,20.368999481201172 -3.825000047683716,22.76300048828125 -10.812999725341797,18.72800064086914 C-17.801000595092773,14.694000244140625 -20.195999145507812,5.757999897003174 -16.160999298095703,-1.2300000190734863z"></path></g><g opacity="1" transform="matrix(1,0,0,1,210.98300170898438,243.8719940185547)"><path stroke-linecap="round" stroke-linejoin="round" fill-opacity="0" stroke="rgb(0,0,0)" stroke-opacity="1" stroke-width="16" d=" M98.82012176513672,-57.42698669433594 C98.82012176513672,-57.42698669433594 80.7229995727539,-48.04399871826172 80.7229995727539,-48.04399871826172 C80.7229995727539,-48.04399871826172 40.85200119018555,-30.875999450683594 -12.376999855041504,-41.507999420166016 C-23.714000701904297,-44 -36.38999938964844,-40.0359992980957 -42.0890007019043,-36.74599838256836 C-42.0890007019043,-36.74599838256836 -92.83300018310547,-7.448999881744385 -92.83300018310547,-7.448999881744385 C-101.83300018310547,-2.253000020980835 -104.91699981689453,9.255999565124512 -99.72100067138672,18.256000518798828 C-94.5250015258789,27.256000518798828 -83.01599884033203,30.34000015258789 -74.01599884033203,25.143999099731445 C-74.01599884033203,25.143999099731445 -39.79199981689453,5.383999824523926 -39.79199981689453,5.383999824523926 C-20.57200050354004,26.229000091552734 -8.303707122802734,42.150455474853516 25.60329246520996,39.336456298828125 C28.644956588745117,41.10395812988281 54.29621887207031,59.81551742553711 54.29621887207031,59.81551742553711 C80.41757202148438,56.42277145385742 100.05966186523438,53.13953399658203 113.26870727539062,39.998069763183594"></path></g><g opacity="1" transform="matrix(1,0,0,1,334.2569885253906,238.33099365234375)"><path stroke-linecap="round" stroke-linejoin="round" fill-opacity="0" stroke="rgb(32,118,255)" stroke-opacity="1" stroke-width="16" d=" M-6.898273468017578,59.7896614074707 C-6.898273468017578,59.7896614074707 26.826526641845703,55.677391052246094 26.826526641845703,55.677391052246094 C26.826526641845703,55.677391052246094 11.746665000915527,-67.97985076904297 11.746665000915527,-67.97985076904297 C11.746665000915527,-67.97985076904297 -21.978134155273438,-63.86758041381836 -21.978134155273438,-63.86758041381836 C-21.978134155273438,-63.86758041381836 -6.898273468017578,59.7896614074707 -6.898273468017578,59.7896614074707z"></path></g></g><g mask="url(#__lottie_element_155_2)" style="display: block;"><g transform="matrix(0.9988136291503906,0.04869680851697922,-0.04869680851697922,0.9988136291503906,79.78115844726562,38.355224609375)" opacity="1"><g opacity="1" transform="matrix(1,0,0,1,200.31900024414062,389.2869873046875)"><path stroke-linecap="round" stroke-linejoin="round" fill-opacity="0" stroke="rgb(0,0,0)" stroke-opacity="1" stroke-width="16" d=" M12.352198600769043,-16.34464454650879 C20.13119888305664,-11.853643417358398 22.796199798583984,-1.9056437015533447 18.304201126098633,5.873356342315674 C13.813199996948242,13.653356552124023 3.8652005195617676,16.318355560302734 -3.913799524307251,11.827356338500977 C-3.913799524307251,11.827356338500977 -22.81800079345703,0.6690000295639038 -22.81800079345703,0.6690000295639038"></path></g><g opacity="1" transform="matrix(1,0,0,1,228.35800170898438,369.24798583984375)"><path stroke-linecap="round" stroke-linejoin="round" fill-opacity="0" stroke="rgb(0,0,0)" stroke-opacity="1" stroke-width="16" d=" M13.320576667785645,-17.122365951538086 C21.099576950073242,-12.631365776062012 23.764577865600586,-2.6833653450012207 19.2725772857666,5.095634460449219 C14.781577110290527,12.875635147094727 4.8345770835876465,15.540635108947754 -2.944422960281372,11.04963493347168 C-2.944422960281372,11.04963493347168 -26.494422912597656,-2.53436541557312 -26.494422912597656,-2.53436541557312"></path></g><g opacity="1" transform="matrix(1,0,0,1,244.7469940185547,342.4830017089844)"><path stroke-linecap="round" stroke-linejoin="round" fill-opacity="0" stroke="rgb(0,0,0)" stroke-opacity="1" stroke-width="16" d=" M11.229731559753418,-19.676435470581055 C19.008731842041016,-15.18543529510498 21.673730850219727,-5.236435413360596 17.181732177734375,2.5425643920898438 C12.6907320022583,10.321564674377441 2.742731809616089,12.987564086914062 -5.03626823425293,8.495564460754395 C-5.03626823425293,8.495564460754395 -33.206268310546875,-7.768435478210449 -33.206268310546875,-7.768435478210449"></path></g><g opacity="1" transform="matrix(1,0,0,1,264.7090148925781,305.45599365234375)"><path stroke-linecap="round" stroke-linejoin="round" fill-opacity="0" stroke="rgb(0,0,0)" stroke-opacity="1" stroke-width="16" d=" M-21.117000579833984,-27.340999603271484 C-21.117000579833984,-27.340999603271484 6.386072635650635,-11.490997314453125 6.386072635650635,-11.490997314453125 C14.165072441101074,-6.998997688293457 16.8300724029541,2.948002338409424 12.339073181152344,10.728002548217773 C7.8480730056762695,18.507001876831055 -2.0999271869659424,21.1720027923584 -9.878927230834961,16.681001663208008 C-9.878927230834961,16.681001663208008 -11.516926765441895,15.735002517700195 -11.516926765441895,15.735002517700195 C-11.516926765441895,15.735002517700195 -38.105926513671875,0.3840022385120392 -38.105926513671875,0.3840022385120392"></path></g><g opacity="1" transform="matrix(1,0,0,1,62.09400177001953,308.5)"><path stroke-linecap="round" stroke-linejoin="round" fill-opacity="0" stroke="rgb(0,0,0)" stroke-opacity="1" stroke-width="16" d=" M-26.6130428314209,-22.238706588745117 C-26.6130428314209,-22.238706588745117 -0.5059999823570251,-15.010000228881836 2.7739999294281006,-7.743000030517578 C6.23799991607666,0.008999999612569809 11.797112464904785,22.89212417602539 26.066287994384766,28.37090492248535"></path></g><g opacity="1" transform="matrix(1,0,0,1,103.37699890136719,201.677001953125)"><path stroke-linecap="round" stroke-linejoin="round" fill-opacity="0" stroke="rgb(0,0,0)" stroke-opacity="1" stroke-width="16" d=" M55.24599838256836,11.378000259399414 C36.6870002746582,-7.400000095367432 6.77400016784668,8.723999977111816 -12.741999626159668,2.0840001106262207 C-12.741999626159668,2.0840001106262207 -32.608001708984375,-4.3420000076293945 -32.608001708984375,-4.3420000076293945 C-32.608001708984375,-4.3420000076293945 -55.12718200683594,-10.721708297729492 -55.12718200683594,-10.721708297729492"></path></g><g opacity="1" transform="matrix(1,0,0,1,28.312999725341797,238.3300018310547)"><path stroke-linecap="round" stroke-linejoin="round" fill-opacity="0" stroke="rgb(32,118,255)" stroke-opacity="1" stroke-width="16" d=" M-14.802696228027344,-66.11115264892578 C-14.802696228027344,-66.11115264892578 18.91310691833496,-61.89584732055664 18.91310691833496,-61.89584732055664 C18.91310691833496,-61.89584732055664 3.459150552749634,61.709266662597656 3.459150552749634,61.709266662597656 C3.459150552749634,61.709266662597656 -30.25665283203125,57.49395751953125 -30.25665283203125,57.49395751953125 C-30.25665283203125,57.49395751953125 -14.802696228027344,-66.11115264892578 -14.802696228027344,-66.11115264892578z"></path></g></g></g></g></svg>