<svg xmlns:xlink="http://www.w3.org/1999/xlink" xmlns="http://www.w3.org/2000/svg" viewBox="0 0 24 24" width="1em">
  <path class="uim-quaternary" fill="#81ABEC" d="M6,23H2a.99974.99974,0,0,1-1-1V16a.99974.99974,0,0,1,1-1H6a.99974.99974,0,0,1,1,1v6A.99974.99974,0,0,1,6,23Z"></path>
  <path class="uim-tertiary" fill="#4A90E2" d="M14,23H10a.99974.99974,0,0,1-1-1V10a.99974.99974,0,0,1,1-1h4a.99974.99974,0,0,1,1,1V22A.99974.99974,0,0,1,14,23Z"></path>
  <path class="uim-primary" fill="#0765DA" d="M22,23H18a.99974.99974,0,0,1-1-1V2a.99974.99974,0,0,1,1-1h4a.99974.99974,0,0,1,1,1V22A.99974.99974,0,0,1,22,23Z"></path>
</svg>
