<svg xmlns="http://www.w3.org/2000/svg" xmlns:xlink="http://www.w3.org/1999/xlink" viewBox="0 0 500 500" width="500" height="500" preserveAspectRatio="xMidYMid meet" style="width: 100%; height: 100%; transform: translate3d(0px, 0px, 0px); content-visibility: visible;"><defs><clipPath id="__lottie_element_1561"><rect width="500" height="500" x="0" y="0"></rect></clipPath><clipPath id="__lottie_element_1564"><path d="M0,0 L500,0 L500,909 L0,909z"></path></clipPath><g id="__lottie_element_1567"><g style="display: block;" transform="matrix(1,0,0,1,80.70599365234375,57.38600158691406)" opacity="1"><path fill="rgb(255,0,0)" fill-opacity="1" d=" M327.27,373.91 C327.27,373.91 11.31,373.91 11.31,373.91 C11.31,373.91 11,148.31 11,148.31 C11,148.31 326.96,148.31 326.96,148.31 C326.96,148.31 327.27,373.91 327.27,373.91z"></path><g opacity="1" transform="matrix(1,0,0,1,169.29299926757812,192.61399841308594)"><path stroke-linecap="round" stroke-linejoin="round" fill-opacity="0" stroke="rgb(0,0,0)" stroke-opacity="1" stroke-width="16" d=" M157.97999572753906,181.3000030517578 C157.97999572753906,181.3000030517578 -157.97999572753906,181.3000030517578 -157.97999572753906,181.3000030517578 C-157.97999572753906,181.3000030517578 -158.29400634765625,-44.29999923706055 -158.29400634765625,-44.29999923706055 C-158.29400634765625,-44.29999923706055 157.6649932861328,-44.29999923706055 157.6649932861328,-44.29999923706055 C157.6649932861328,-44.29999923706055 157.97999572753906,181.3000030517578 157.97999572753906,181.3000030517578z"></path></g></g></g><mask id="__lottie_element_1567_1" mask-type="alpha"><use xlink:href="#__lottie_element_1567"></use></mask></defs><g clip-path="url(#__lottie_element_1561)"><g mask="url(#__lottie_element_1567_1)" style="display: block;"><g clip-path="url(#__lottie_element_1564)" transform="matrix(1,0,0,1,0,-216.8499298095703)" opacity="1"><g style="display: none;" transform="matrix(1,0,0,1,125.843994140625,809.2119750976562)" opacity="1"><g opacity="1" transform="matrix(1,0,0,1,33.88199996948242,33.88199996948242)"><path stroke-linecap="round" stroke-linejoin="round" fill-opacity="0" stroke="rgb(0,0,0)" stroke-opacity="1" stroke-width="16" d=" M22.569000244140625,22.56800079345703 C22.569000244140625,22.56800079345703 -22.569000244140625,22.56800079345703 -22.569000244140625,22.56800079345703 C-22.569000244140625,22.56800079345703 -22.569000244140625,-22.56800079345703 -22.569000244140625,-22.56800079345703 C-22.569000244140625,-22.56800079345703 22.569000244140625,-22.56800079345703 22.569000244140625,-22.56800079345703 C22.569000244140625,-22.56800079345703 22.569000244140625,22.56800079345703 22.569000244140625,22.56800079345703z"></path></g></g><g style="display: none;" transform="matrix(1,0,0,1,216.1169891357422,809.2119750976562)" opacity="1"><g opacity="1" transform="matrix(1,0,0,1,33.88199996948242,33.88199996948242)"><path stroke-linecap="round" stroke-linejoin="round" fill-opacity="0" stroke="rgb(0,0,0)" stroke-opacity="1" stroke-width="16" d=" M22.56800079345703,22.56800079345703 C22.56800079345703,22.56800079345703 -22.56800079345703,22.56800079345703 -22.56800079345703,22.56800079345703 C-22.56800079345703,22.56800079345703 -22.56800079345703,-22.56800079345703 -22.56800079345703,-22.56800079345703 C-22.56800079345703,-22.56800079345703 22.56800079345703,-22.56800079345703 22.56800079345703,-22.56800079345703 C22.56800079345703,-22.56800079345703 22.56800079345703,22.56800079345703 22.56800079345703,22.56800079345703z"></path></g></g><g style="display: none;" transform="matrix(1,0,0,1,306.3919982910156,809.2119750976562)" opacity="1"><g opacity="1" transform="matrix(1,0,0,1,33.88199996948242,33.88199996948242)"><path stroke-linecap="round" stroke-linejoin="round" fill-opacity="0" stroke="rgb(0,0,0)" stroke-opacity="1" stroke-width="16" d=" M22.56800079345703,22.56800079345703 C22.56800079345703,22.56800079345703 -22.56800079345703,22.56800079345703 -22.56800079345703,22.56800079345703 C-22.56800079345703,22.56800079345703 -22.56800079345703,-22.56800079345703 -22.56800079345703,-22.56800079345703 C-22.56800079345703,-22.56800079345703 22.56800079345703,-22.56800079345703 22.56800079345703,-22.56800079345703 C22.56800079345703,-22.56800079345703 22.56800079345703,22.56800079345703 22.56800079345703,22.56800079345703z"></path></g></g><g style="display: none;" transform="matrix(1,0,0,1,125.84400177001953,718.93896484375)" opacity="1"><g opacity="1" transform="matrix(1,0,0,1,124.15599822998047,33.88199996948242)"><path stroke-linecap="round" stroke-linejoin="round" fill-opacity="0" stroke="rgb(32,118,255)" stroke-opacity="1" stroke-width="16" d=" M112.84200286865234,22.56800079345703 C112.84200286865234,22.56800079345703 -112.84200286865234,22.56800079345703 -112.84200286865234,22.56800079345703 C-112.84200286865234,22.56800079345703 -112.84200286865234,-22.56800079345703 -112.84200286865234,-22.56800079345703 C-112.84200286865234,-22.56800079345703 112.84200286865234,-22.56800079345703 112.84200286865234,-22.56800079345703 C112.84200286865234,-22.56800079345703 112.84200286865234,22.56800079345703 112.84200286865234,22.56800079345703z"></path></g></g><g style="display: none;" transform="matrix(1,0,0,1,125.843994140625,626.2119750976562)" opacity="1"><g opacity="1" transform="matrix(1,0,0,1,33.88199996948242,33.88199996948242)"><path stroke-linecap="round" stroke-linejoin="round" fill-opacity="0" stroke="rgb(0,0,0)" stroke-opacity="1" stroke-width="16" d=" M22.569000244140625,22.56800079345703 C22.569000244140625,22.56800079345703 -22.569000244140625,22.56800079345703 -22.569000244140625,22.56800079345703 C-22.569000244140625,22.56800079345703 -22.569000244140625,-22.56800079345703 -22.569000244140625,-22.56800079345703 C-22.569000244140625,-22.56800079345703 22.569000244140625,-22.56800079345703 22.569000244140625,-22.56800079345703 C22.569000244140625,-22.56800079345703 22.569000244140625,22.56800079345703 22.569000244140625,22.56800079345703z"></path></g></g><g style="display: none;" transform="matrix(1,0,0,1,216.1169891357422,626.2120361328125)" opacity="1"><g opacity="1" transform="matrix(1,0,0,1,33.88199996948242,33.88199996948242)"><path stroke-linecap="round" stroke-linejoin="round" fill-opacity="0" stroke="rgb(0,0,0)" stroke-opacity="1" stroke-width="16" d=" M-22.56800079345703,-22.56800079345703 C-22.56800079345703,-22.56800079345703 112.56800079345703,-22.424999237060547 112.56800079345703,-22.424999237060547 C112.56800079345703,-22.424999237060547 -22.56800079345703,-22.56800079345703 -22.56800079345703,-22.56800079345703z"></path></g></g><g style="display: none;" transform="matrix(1,0,0,1,216.1169891357422,672.2120361328125)" opacity="1"><g opacity="1" transform="matrix(1,0,0,1,33.88199996948242,33.88199996948242)"><path stroke-linecap="round" stroke-linejoin="round" fill-opacity="0" stroke="rgb(0,0,0)" stroke-opacity="1" stroke-width="16" d=" M-22.56800079345703,-22.56800079345703 C-22.56800079345703,-22.56800079345703 112.56800079345703,-22.424999237060547 112.56800079345703,-22.424999237060547 C112.56800079345703,-22.424999237060547 -22.56800079345703,-22.56800079345703 -22.56800079345703,-22.56800079345703z"></path></g></g><g style="display: block;" transform="matrix(1,0,0,1,125.843994140625,534.2119750976562)" opacity="1"><g opacity="1" transform="matrix(1,0,0,1,33.88199996948242,33.88199996948242)"><path stroke-linecap="round" stroke-linejoin="round" fill-opacity="0" stroke="rgb(0,0,0)" stroke-opacity="1" stroke-width="16" d=" M22.569000244140625,22.56800079345703 C22.569000244140625,22.56800079345703 -22.569000244140625,22.56800079345703 -22.569000244140625,22.56800079345703 C-22.569000244140625,22.56800079345703 -22.569000244140625,-22.56800079345703 -22.569000244140625,-22.56800079345703 C-22.569000244140625,-22.56800079345703 22.569000244140625,-22.56800079345703 22.569000244140625,-22.56800079345703 C22.569000244140625,-22.56800079345703 22.569000244140625,22.56800079345703 22.569000244140625,22.56800079345703z"></path></g></g><g style="display: block;" transform="matrix(1,0,0,1,216.1169891357422,534.2119750976562)" opacity="1"><g opacity="1" transform="matrix(1,0,0,1,33.88199996948242,33.88199996948242)"><path stroke-linecap="round" stroke-linejoin="round" fill-opacity="0" stroke="rgb(0,0,0)" stroke-opacity="1" stroke-width="16" d=" M22.56800079345703,22.56800079345703 C22.56800079345703,22.56800079345703 -22.56800079345703,22.56800079345703 -22.56800079345703,22.56800079345703 C-22.56800079345703,22.56800079345703 -22.56800079345703,-22.56800079345703 -22.56800079345703,-22.56800079345703 C-22.56800079345703,-22.56800079345703 22.56800079345703,-22.56800079345703 22.56800079345703,-22.56800079345703 C22.56800079345703,-22.56800079345703 22.56800079345703,22.56800079345703 22.56800079345703,22.56800079345703z"></path></g></g><g style="display: block;" transform="matrix(1,0,0,1,306.3919982910156,534.2119750976562)" opacity="1"><g opacity="1" transform="matrix(1,0,0,1,33.88199996948242,33.88199996948242)"><path stroke-linecap="round" stroke-linejoin="round" fill-opacity="0" stroke="rgb(0,0,0)" stroke-opacity="1" stroke-width="16" d=" M22.56800079345703,22.56800079345703 C22.56800079345703,22.56800079345703 -22.56800079345703,22.56800079345703 -22.56800079345703,22.56800079345703 C-22.56800079345703,22.56800079345703 -22.56800079345703,-22.56800079345703 -22.56800079345703,-22.56800079345703 C-22.56800079345703,-22.56800079345703 22.56800079345703,-22.56800079345703 22.56800079345703,-22.56800079345703 C22.56800079345703,-22.56800079345703 22.56800079345703,22.56800079345703 22.56800079345703,22.56800079345703z"></path></g></g><g style="display: block;" transform="matrix(1,0,0,1,125.84400177001953,443.93902587890625)" opacity="1"><g opacity="1" transform="matrix(1,0,0,1,124.15599822998047,33.88199996948242)"><path stroke-linecap="round" stroke-linejoin="round" fill-opacity="0" stroke="rgb(32,118,255)" stroke-opacity="1" stroke-width="16" d=" M112.84200286865234,22.56800079345703 C112.84200286865234,22.56800079345703 -112.84200286865234,22.56800079345703 -112.84200286865234,22.56800079345703 C-112.84200286865234,22.56800079345703 -112.84200286865234,-22.56800079345703 -112.84200286865234,-22.56800079345703 C-112.84200286865234,-22.56800079345703 112.84200286865234,-22.56800079345703 112.84200286865234,-22.56800079345703 C112.84200286865234,-22.56800079345703 112.84200286865234,22.56800079345703 112.84200286865234,22.56800079345703z"></path></g></g></g></g><g style="display: block;" transform="matrix(1,0,0,1,74.58900451660156,75.34099578857422)" opacity="1"><g opacity="1" transform="matrix(1,0,0,1,175.41099548339844,85.13700103759766)"><path stroke-linecap="round" stroke-linejoin="round" fill-opacity="0" stroke="rgb(32,118,255)" stroke-opacity="1" stroke-width="16" d=" M-135.41099548339844,45.137001037597656 C-135.41099548339844,45.137001037597656 -45.137001037597656,-45.137001037597656 -45.137001037597656,-45.137001037597656 C-45.137001037597656,-45.137001037597656 22.56800079345703,22.569000244140625 22.56800079345703,22.569000244140625 C22.56800079345703,22.569000244140625 67.70500183105469,-22.56800079345703 67.70500183105469,-22.56800079345703 C67.70500183105469,-22.56800079345703 135.41099548339844,45.137001037597656 135.41099548339844,45.137001037597656"></path></g></g><g style="display: block;" transform="matrix(1,0,0,1,80.70599365234375,57.38600158691406)" opacity="1"><g opacity="1" transform="matrix(1,0,0,1,169.29299926757812,192.61399841308594)"><path stroke-linecap="round" stroke-linejoin="round" fill-opacity="0" stroke="rgb(0,0,0)" stroke-opacity="1" stroke-width="16" d=" M157.97999572753906,181.3000030517578 C157.97999572753906,181.3000030517578 -157.97999572753906,181.3000030517578 -157.97999572753906,181.3000030517578 C-157.97999572753906,181.3000030517578 -157.97999572753906,-181.3000030517578 -157.97999572753906,-181.3000030517578 C-157.97999572753906,-181.3000030517578 157.97999572753906,-181.3000030517578 157.97999572753906,-181.3000030517578 C157.97999572753906,-181.3000030517578 157.97999572753906,181.3000030517578 157.97999572753906,181.3000030517578z"></path></g><g opacity="1" transform="matrix(1,0,0,1,0,0)"><path stroke-linecap="round" stroke-linejoin="round" fill-opacity="0" stroke="rgb(0,0,0)" stroke-opacity="1" stroke-width="16" d=" M11.314000129699707,148.22900390625 C11.314000129699707,148.22900390625 327.27301025390625,148.22900390625 327.27301025390625,148.22900390625"></path></g></g></g></svg>