<svg xmlns="http://www.w3.org/2000/svg" xmlns:xlink="http://www.w3.org/1999/xlink" viewBox="0 0 500 500" width="500" height="500" preserveAspectRatio="xMidYMid meet" style="width: 100%; height: 100%; transform: translate3d(0px, 0px, 0px); content-visibility: visible;"><defs><clipPath id="__lottie_element_1602"><rect width="500" height="500" x="0" y="0"></rect></clipPath><g id="__lottie_element_1607"><g style="display: block;" transform="matrix(1,0,0,1,28.699996948242188,52.87300109863281)" opacity="1"><path fill="rgb(255,0,0)" fill-opacity="1" d=" M354.25,64.17 C354.25,64.17 402.6,64.17 402.6,64.17 C402.6,64.17 402.6,15.83 402.6,15.83 C402.6,15.83 354.25,15.83 354.25,15.83 C354.25,15.83 354.25,64.17 354.25,64.17z M354.25,64.17 C354.25,64.17 402.6,64.17 402.6,64.17 C402.6,64.17 402.6,15.83 402.6,15.83 C402.6,15.83 354.25,15.83 354.25,15.83 C354.25,15.83 354.25,64.17 354.25,64.17z M354.25,378.43 C354.25,378.43 402.6,378.43 402.6,378.43 C402.6,378.43 402.6,330.08 402.6,330.08 C402.6,330.08 354.25,330.08 354.25,330.08 C354.25,330.08 354.25,378.43 354.25,378.43z M354.25,221.3 C354.25,221.3 402.6,221.3 402.6,221.3 C402.6,221.3 402.6,172.95 402.6,172.95 C402.6,172.95 354.25,172.95 354.25,172.95 C354.25,172.95 354.25,221.3 354.25,221.3z"></path><g opacity="1" transform="matrix(1,0,0,1,378.4259948730469,40.000999450683594)"><path stroke-linecap="round" stroke-linejoin="round" fill-opacity="0" stroke="rgb(0,0,0)" stroke-opacity="1" stroke-width="0" d=" M-24.17300033569336,24.17300033569336 C-24.17300033569336,24.17300033569336 24.17300033569336,24.17300033569336 24.17300033569336,24.17300033569336 C24.17300033569336,24.17300033569336 24.17300033569336,-24.17300033569336 24.17300033569336,-24.17300033569336 C24.17300033569336,-24.17300033569336 -24.17300033569336,-24.17300033569336 -24.17300033569336,-24.17300033569336 C-24.17300033569336,-24.17300033569336 -24.17300033569336,24.17300033569336 -24.17300033569336,24.17300033569336z"></path></g><g opacity="1" transform="matrix(1,0,0,1,378.4259948730469,40.000999450683594)"><path stroke-linecap="round" stroke-linejoin="round" fill-opacity="0" stroke="rgb(0,0,0)" stroke-opacity="1" stroke-width="0" d=" M-24.17300033569336,24.17300033569336 C-24.17300033569336,24.17300033569336 24.17300033569336,24.17300033569336 24.17300033569336,24.17300033569336 C24.17300033569336,24.17300033569336 24.17300033569336,-24.17300033569336 24.17300033569336,-24.17300033569336 C24.17300033569336,-24.17300033569336 -24.17300033569336,-24.17300033569336 -24.17300033569336,-24.17300033569336 C-24.17300033569336,-24.17300033569336 -24.17300033569336,24.17300033569336 -24.17300033569336,24.17300033569336z"></path></g><g opacity="1" transform="matrix(1,0,0,1,378.4259948730469,354.2539978027344)"><path stroke-linecap="round" stroke-linejoin="round" fill-opacity="0" stroke="rgb(0,0,0)" stroke-opacity="1" stroke-width="0" d=" M-24.17300033569336,24.17300033569336 C-24.17300033569336,24.17300033569336 24.17300033569336,24.17300033569336 24.17300033569336,24.17300033569336 C24.17300033569336,24.17300033569336 24.17300033569336,-24.17300033569336 24.17300033569336,-24.17300033569336 C24.17300033569336,-24.17300033569336 -24.17300033569336,-24.17300033569336 -24.17300033569336,-24.17300033569336 C-24.17300033569336,-24.17300033569336 -24.17300033569336,24.17300033569336 -24.17300033569336,24.17300033569336z"></path></g><g opacity="1" transform="matrix(1,0,0,1,378.4259948730469,197.12600708007812)"><path stroke-linecap="round" stroke-linejoin="round" fill-opacity="0" stroke="rgb(0,0,0)" stroke-opacity="1" stroke-width="0" d=" M-24.17300033569336,24.173999786376953 C-24.17300033569336,24.173999786376953 24.17300033569336,24.173999786376953 24.17300033569336,24.173999786376953 C24.17300033569336,24.173999786376953 24.17300033569336,-24.173999786376953 24.17300033569336,-24.173999786376953 C24.17300033569336,-24.173999786376953 -24.17300033569336,-24.173999786376953 -24.17300033569336,-24.173999786376953 C-24.17300033569336,-24.173999786376953 -24.17300033569336,24.173999786376953 -24.17300033569336,24.173999786376953z"></path></g></g></g><g id="__lottie_element_1616"><g style="display: block;" transform="matrix(1,0,0,1,28.699996948242188,52.87300109863281)" opacity="1"><path fill="rgb(255,0,0)" fill-opacity="1" d=" M354.25,64.17 C354.25,64.17 402.6,64.17 402.6,64.17 C402.6,64.17 402.6,15.83 402.6,15.83 C402.6,15.83 354.25,15.83 354.25,15.83 C354.25,15.83 354.25,64.17 354.25,64.17z M354.25,64.17 C354.25,64.17 402.6,64.17 402.6,64.17 C402.6,64.17 402.6,15.83 402.6,15.83 C402.6,15.83 354.25,15.83 354.25,15.83 C354.25,15.83 354.25,64.17 354.25,64.17z M354.25,378.43 C354.25,378.43 402.6,378.43 402.6,378.43 C402.6,378.43 402.6,330.08 402.6,330.08 C402.6,330.08 354.25,330.08 354.25,330.08 C354.25,330.08 354.25,378.43 354.25,378.43z M354.25,221.3 C354.25,221.3 402.6,221.3 402.6,221.3 C402.6,221.3 402.6,172.95 402.6,172.95 C402.6,172.95 354.25,172.95 354.25,172.95 C354.25,172.95 354.25,221.3 354.25,221.3z"></path><g opacity="1" transform="matrix(1,0,0,1,378.4259948730469,40.000999450683594)"><path stroke-linecap="round" stroke-linejoin="round" fill-opacity="0" stroke="rgb(0,0,0)" stroke-opacity="1" stroke-width="0" d=" M-24.17300033569336,24.17300033569336 C-24.17300033569336,24.17300033569336 24.17300033569336,24.17300033569336 24.17300033569336,24.17300033569336 C24.17300033569336,24.17300033569336 24.17300033569336,-24.17300033569336 24.17300033569336,-24.17300033569336 C24.17300033569336,-24.17300033569336 -24.17300033569336,-24.17300033569336 -24.17300033569336,-24.17300033569336 C-24.17300033569336,-24.17300033569336 -24.17300033569336,24.17300033569336 -24.17300033569336,24.17300033569336z"></path></g><g opacity="1" transform="matrix(1,0,0,1,378.4259948730469,40.000999450683594)"><path stroke-linecap="round" stroke-linejoin="round" fill-opacity="0" stroke="rgb(0,0,0)" stroke-opacity="1" stroke-width="0" d=" M-24.17300033569336,24.17300033569336 C-24.17300033569336,24.17300033569336 24.17300033569336,24.17300033569336 24.17300033569336,24.17300033569336 C24.17300033569336,24.17300033569336 24.17300033569336,-24.17300033569336 24.17300033569336,-24.17300033569336 C24.17300033569336,-24.17300033569336 -24.17300033569336,-24.17300033569336 -24.17300033569336,-24.17300033569336 C-24.17300033569336,-24.17300033569336 -24.17300033569336,24.17300033569336 -24.17300033569336,24.17300033569336z"></path></g><g opacity="1" transform="matrix(1,0,0,1,378.4259948730469,354.2539978027344)"><path stroke-linecap="round" stroke-linejoin="round" fill-opacity="0" stroke="rgb(0,0,0)" stroke-opacity="1" stroke-width="0" d=" M-24.17300033569336,24.17300033569336 C-24.17300033569336,24.17300033569336 24.17300033569336,24.17300033569336 24.17300033569336,24.17300033569336 C24.17300033569336,24.17300033569336 24.17300033569336,-24.17300033569336 24.17300033569336,-24.17300033569336 C24.17300033569336,-24.17300033569336 -24.17300033569336,-24.17300033569336 -24.17300033569336,-24.17300033569336 C-24.17300033569336,-24.17300033569336 -24.17300033569336,24.17300033569336 -24.17300033569336,24.17300033569336z"></path></g><g opacity="1" transform="matrix(1,0,0,1,378.4259948730469,197.12600708007812)"><path stroke-linecap="round" stroke-linejoin="round" fill-opacity="0" stroke="rgb(0,0,0)" stroke-opacity="1" stroke-width="0" d=" M-24.17300033569336,24.173999786376953 C-24.17300033569336,24.173999786376953 24.17300033569336,24.173999786376953 24.17300033569336,24.173999786376953 C24.17300033569336,24.173999786376953 24.17300033569336,-24.173999786376953 24.17300033569336,-24.173999786376953 C24.17300033569336,-24.173999786376953 -24.17300033569336,-24.173999786376953 -24.17300033569336,-24.173999786376953 C-24.17300033569336,-24.173999786376953 -24.17300033569336,24.173999786376953 -24.17300033569336,24.173999786376953z"></path></g></g></g><filter id="__lottie_element_1626" filterUnits="objectBoundingBox" x="0%" y="0%" width="100%" height="100%"><feComponentTransfer in="SourceGraphic"><feFuncA type="table" tableValues="1.0 0.0"></feFuncA></feComponentTransfer></filter><mask id="__lottie_element_1616_2" mask-type="alpha"><g filter="url(#__lottie_element_1626)"><rect width="500" height="500" x="0" y="0" fill="#ffffff" opacity="0"></rect><use xlink:href="#__lottie_element_1616"></use></g></mask><filter id="__lottie_element_1627" filterUnits="objectBoundingBox" x="0%" y="0%" width="100%" height="100%"><feComponentTransfer in="SourceGraphic"><feFuncA type="table" tableValues="1.0 0.0"></feFuncA></feComponentTransfer></filter><mask id="__lottie_element_1607_2" mask-type="alpha"><g filter="url(#__lottie_element_1627)"><rect width="500" height="500" x="0" y="0" fill="#ffffff" opacity="0"></rect><use xlink:href="#__lottie_element_1607"></use></g></mask></defs><g clip-path="url(#__lottie_element_1602)"><g mask="url(#__lottie_element_1607_2)" style="display: block;"><g transform="matrix(1,0,0,1,28.699996948242188,52.87300109863281)" opacity="1"><g opacity="1" transform="matrix(1,0,0,1,305.906005859375,100.43399810791016)"><path stroke-linecap="round" stroke-linejoin="round" fill-opacity="0" stroke="rgb(0,0,0)" stroke-opacity="1" stroke-width="16" d=" M-48.34600067138672,60.43299865722656 C-48.34600067138672,60.43299865722656 0,12.086999893188477 0,12.086999893188477 C0,12.086999893188477 0,-60.43299865722656 0,-60.43299865722656 C0,-60.43299865722656 48.34600067138672,-60.43299865722656 48.34600067138672,-60.43299865722656"></path></g><g opacity="1" transform="matrix(1,0,0,1,305.906005859375,293.82000732421875)"><path stroke-linecap="round" stroke-linejoin="round" fill-opacity="0" stroke="rgb(0,0,0)" stroke-opacity="1" stroke-width="16" d=" M-48.34600067138672,-60.433998107910156 C-48.34600067138672,-60.433998107910156 0,-12.086000442504883 0,-12.086000442504883 C0,-12.086000442504883 0,60.433998107910156 0,60.433998107910156 C0,60.433998107910156 48.34600067138672,60.433998107910156 48.34600067138672,60.433998107910156"></path></g><g opacity="1" transform="matrix(1,0,0,1,0,0)"><path stroke-linecap="round" stroke-linejoin="round" fill-opacity="0" stroke="rgb(0,0,0)" stroke-opacity="1" stroke-width="16" d=" M257.55999755859375,197.1269989013672 C257.55999755859375,197.1269989013672 354.25299072265625,197.1269989013672 354.25299072265625,197.1269989013672"></path></g><g opacity="0" transform="matrix(1,0,0,1,221.3000030517578,196.6269989013672)"><path fill="rgb(255,0,0)" fill-opacity="1" d=" M257,-255.5 C257,-255.5 257,255.5 257,255.5 C257,255.5 -257,255.5 -257,255.5 C-257,255.5 -257,-255.5 -257,-255.5 C-257,-255.5 257,-255.5 257,-255.5z"></path><path stroke-linecap="butt" stroke-linejoin="miter" fill-opacity="0" stroke-miterlimit="4" stroke="rgb(0,0,0)" stroke-opacity="1" stroke-width="16" d=" M257,-255.5 C257,-255.5 257,255.5 257,255.5 C257,255.5 -257,255.5 -257,255.5 C-257,255.5 -257,-255.5 -257,-255.5 C-257,-255.5 257,-255.5 257,-255.5z"></path></g></g></g><g mask="url(#__lottie_element_1616_2)" style="display: block;"><g transform="matrix(1,0,0,1,28.699996948242188,52.87300109863281)" opacity="1"><g opacity="1" transform="matrix(1,0,0,1,305.906005859375,100.43399810791016)"><path stroke-linecap="round" stroke-linejoin="round" fill-opacity="0" stroke="rgb(32,118,255)" stroke-opacity="1" stroke-width="18" d="M0 0"></path></g><g opacity="1" transform="matrix(1,0,0,1,305.906005859375,293.82000732421875)"><path stroke-linecap="round" stroke-linejoin="round" fill-opacity="0" stroke="rgb(32,118,255)" stroke-opacity="1" stroke-width="18" d=" M39.707000732421875,60.433998107910156 C43.856998443603516,60.433998107910156 46.59600067138672,60.433998107910156 46.59600067138672,60.433998107910156"></path></g><g opacity="1" transform="matrix(1,0,0,1,0,0)"><path stroke-linecap="round" stroke-linejoin="round" fill-opacity="0" stroke="rgb(32,118,255)" stroke-opacity="1" stroke-width="18" d="M0 0"></path></g><g opacity="0" transform="matrix(1,0,0,1,221.3000030517578,197.6269989013672)"><path fill="rgb(255,0,0)" fill-opacity="1" d=" M256,-256.5 C256,-256.5 256,256.5 256,256.5 C256,256.5 -256,256.5 -256,256.5 C-256,256.5 -256,-256.5 -256,-256.5 C-256,-256.5 256,-256.5 256,-256.5z"></path><path stroke-linecap="butt" stroke-linejoin="miter" fill-opacity="0" stroke-miterlimit="4" stroke="rgb(32,118,255)" stroke-opacity="1" stroke-width="18" d=" M256,-256.5 C256,-256.5 256,256.5 256,256.5 C256,256.5 -256,256.5 -256,256.5 C-256,256.5 -256,-256.5 -256,-256.5 C-256,-256.5 256,-256.5 256,-256.5z"></path></g></g></g><g style="display: block;" transform="matrix(1,0,0,1,28.699996948242188,52.87300109863281)" opacity="1"><g opacity="1" transform="matrix(1,0,0,1,378.4259948730469,40.000999450683594)"><path stroke-linecap="round" stroke-linejoin="round" fill-opacity="0" stroke="rgb(0,0,0)" stroke-opacity="1" stroke-width="16" d=" M-24.17300033569336,24.17300033569336 C-24.17300033569336,24.17300033569336 24.17300033569336,24.17300033569336 24.17300033569336,24.17300033569336 C24.17300033569336,24.17300033569336 24.17300033569336,-24.17300033569336 24.17300033569336,-24.17300033569336 C24.17300033569336,-24.17300033569336 -24.17300033569336,-24.17300033569336 -24.17300033569336,-24.17300033569336 C-24.17300033569336,-24.17300033569336 -24.17300033569336,24.17300033569336 -24.17300033569336,24.17300033569336z"></path></g><g opacity="1" transform="matrix(1,0,0,1,378.4259948730469,354.2539978027344)"><path stroke-linecap="round" stroke-linejoin="round" fill-opacity="0" stroke="rgb(0,0,0)" stroke-opacity="1" stroke-width="16" d=" M-24.17300033569336,24.17300033569336 C-24.17300033569336,24.17300033569336 24.17300033569336,24.17300033569336 24.17300033569336,24.17300033569336 C24.17300033569336,24.17300033569336 24.17300033569336,-24.17300033569336 24.17300033569336,-24.17300033569336 C24.17300033569336,-24.17300033569336 -24.17300033569336,-24.17300033569336 -24.17300033569336,-24.17300033569336 C-24.17300033569336,-24.17300033569336 -24.17300033569336,24.17300033569336 -24.17300033569336,24.17300033569336z"></path></g><g opacity="1" transform="matrix(1,0,0,1,378.4259948730469,197.12600708007812)"><path stroke-linecap="round" stroke-linejoin="round" fill-opacity="0" stroke="rgb(0,0,0)" stroke-opacity="1" stroke-width="16" d=" M-24.17300033569336,24.173999786376953 C-24.17300033569336,24.173999786376953 24.17300033569336,24.173999786376953 24.17300033569336,24.173999786376953 C24.17300033569336,24.173999786376953 24.17300033569336,-24.173999786376953 24.17300033569336,-24.173999786376953 C24.17300033569336,-24.173999786376953 -24.17300033569336,-24.173999786376953 -24.17300033569336,-24.173999786376953 C-24.17300033569336,-24.173999786376953 -24.17300033569336,24.173999786376953 -24.17300033569336,24.173999786376953z"></path></g></g><g style="display: block;" transform="matrix(1,0,0,1,28.699996948242188,52.797882080078125)" opacity="1"><g opacity="1" transform="matrix(1,0,0,1,148.77999877929688,197.1269989013672)"><path stroke-linecap="round" stroke-linejoin="round" fill-opacity="0" stroke="rgb(0,0,0)" stroke-opacity="1" stroke-width="16" d=" M50.73973846435547,-86.99974060058594 C50.73973846435547,-86.99974060058594 50.73973846435547,-145.0399932861328 50.73973846435547,-145.0399932861328 C50.73973846435547,-145.0399932861328 -108.77999877929688,-145.0399932861328 -108.77999877929688,-145.0399932861328 C-108.77999877929688,-145.0399932861328 -108.77999877929688,145.0399932861328 -108.77999877929688,145.0399932861328 C-108.77999877929688,145.0399932861328 108.77999877929688,145.0399932861328 108.77999877929688,145.0399932861328 C108.77999877929688,145.0399932861328 108.77999877929688,-86.99974060058594 108.77999877929688,-86.99974060058594 C108.77999877929688,-86.99974060058594 50.73973846435547,-86.99974060058594 50.73973846435547,-86.99974060058594z"></path></g><g opacity="1" transform="matrix(1,0,0,1,221.3000030517578,88.34700012207031)"><path stroke-linecap="round" stroke-linejoin="round" fill-opacity="0" stroke="rgb(0,0,0)" stroke-opacity="1" stroke-width="16" d=" M36.2599983215332,21.780261993408203 C36.2599983215332,21.780261993408203 -21.780261993408203,-36.2599983215332 -21.780261993408203,-36.2599983215332 C-21.780261993408203,-36.2599983215332 -21.780261993408203,21.780261993408203 -21.780261993408203,21.780261993408203 C-21.780261993408203,21.780261993408203 36.2599983215332,21.780261993408203 36.2599983215332,21.780261993408203z"></path></g><g opacity="1" transform="matrix(1,0,0,1,0,0)"><path stroke-linecap="round" stroke-linejoin="round" fill-opacity="0" stroke="rgb(0,0,0)" stroke-opacity="1" stroke-width="16" d=" M88.34700012207031,100.43399810791016 C88.34700012207031,100.43399810791016 124.60700225830078,100.43399810791016 124.60700225830078,100.43399810791016"></path></g></g><g style="display: block;" transform="matrix(1,0,0,1,28.699996948242188,36.398193359375)" opacity="1"><g opacity="1" transform="matrix(1,0,0,1,148.77999877929688,216.6929931640625)"><path stroke-linecap="round" stroke-linejoin="round" fill-opacity="0" stroke="rgb(32,118,255)" stroke-opacity="1" stroke-width="16" d=" M-6.651736259460449,-56.839324951171875 C-6.651736259460449,-56.839324951171875 48.34033966064453,-34.58805465698242 48.34033966064453,-34.58805465698242 C48.34033966064453,-34.58805465698242 48.34033966064453,21.237947463989258 48.34033966064453,21.237947463989258 C48.34033966064453,21.237947463989258 6.90673303604126,56.580997467041016 6.90673303604126,56.580997467041016 C6.90673303604126,56.580997467041016 -49.320350646972656,31.856372833251953 -49.320350646972656,31.856372833251953 C-49.320350646972656,31.856372833251953 -49.320350646972656,-23.969627380371094 -49.320350646972656,-23.969627380371094 C-49.320350646972656,-23.969627380371094 -6.651736259460449,-56.839324951171875 -6.651736259460449,-56.839324951171875z"></path></g><g opacity="1" transform="matrix(1,0,0,1,148.77999877929688,188.77999877929688)"><path stroke-linecap="round" stroke-linejoin="round" fill-opacity="0" stroke="rgb(32,118,255)" stroke-opacity="1" stroke-width="16" d=" M-6.651736259460449,-28.92632293701172 C-6.651736259460449,-28.92632293701172 48.34033966064453,-6.675053119659424 48.34033966064453,-6.675053119659424 C48.34033966064453,-6.675053119659424 6.90673303604126,28.667997360229492 6.90673303604126,28.667997360229492 C6.90673303604126,28.667997360229492 -49.320350646972656,3.943373441696167 -49.320350646972656,3.943373441696167 C-49.320350646972656,3.943373441696167 -6.651736259460449,-28.92632293701172 -6.651736259460449,-28.92632293701172z"></path></g><g opacity="1" transform="matrix(1,0,0,1,0,0)"><path stroke-linecap="round" stroke-linejoin="round" fill-opacity="0" stroke="rgb(32,118,255)" stroke-opacity="1" stroke-width="16" d=" M155.68673706054688,217.447998046875 C155.68673706054688,217.447998046875 155.68673706054688,273.27398681640625 155.68673706054688,273.27398681640625"></path></g></g></g></svg>