<svg xmlns="http://www.w3.org/2000/svg" xmlns:xlink="http://www.w3.org/1999/xlink" viewBox="0 0 500 500" width="500" height="500" preserveAspectRatio="xMidYMid meet" style="width: 100%; height: 100%; transform: translate3d(0px, 0px, 0px); content-visibility: visible;"><defs><clipPath id="__lottie_element_1628"><rect width="500" height="500" x="0" y="0"></rect></clipPath><g id="__lottie_element_1636"><g style="display: block;" transform="matrix(1,0,0,1,250.00001525878906,250)" opacity="1"><g opacity="1" transform="matrix(1,0,0,1,0,0)"><path fill="rgb(255,0,0)" fill-opacity="1" d=" M96.32499694824219,171.5 C15.187000274658203,130.64100646972656 21.253000259399414,42.597999572753906 21.253000259399414,42.597999572753906 C21.253000259399414,42.597999572753906 96.32499694824219,-4.539000034332275 96.32499694824219,-4.539000034332275 C96.32499694824219,-4.539000034332275 171.39700317382812,42.597999572753906 171.39700317382812,42.597999572753906 C171.39700317382812,42.597999572753906 177.46299743652344,130.64100646972656 96.32499694824219,171.5z"></path><path stroke-linecap="round" stroke-linejoin="round" fill-opacity="0" stroke="rgb(32,118,255)" stroke-opacity="1" stroke-width="16" d=" M96.32499694824219,171.5 C15.187000274658203,130.64100646972656 21.253000259399414,42.597999572753906 21.253000259399414,42.597999572753906 C21.253000259399414,42.597999572753906 96.32499694824219,-4.539000034332275 96.32499694824219,-4.539000034332275 C96.32499694824219,-4.539000034332275 171.39700317382812,42.597999572753906 171.39700317382812,42.597999572753906 C171.39700317382812,42.597999572753906 177.46299743652344,130.64100646972656 96.32499694824219,171.5z"></path></g></g></g><g id="__lottie_element_1642"><g style="display: block;" transform="matrix(1,0,0,1,250.00001525878906,250)" opacity="1"><g opacity="1" transform="matrix(1,0,0,1,0,0)"><path fill="rgb(255,0,0)" fill-opacity="1" d=" M96.32499694824219,171.5 C15.187000274658203,130.64100646972656 21.253000259399414,42.597999572753906 21.253000259399414,42.597999572753906 C21.253000259399414,42.597999572753906 96.32499694824219,-4.539000034332275 96.32499694824219,-4.539000034332275 C96.32499694824219,-4.539000034332275 171.39700317382812,42.597999572753906 171.39700317382812,42.597999572753906 C171.39700317382812,42.597999572753906 177.46299743652344,130.64100646972656 96.32499694824219,171.5z"></path><path stroke-linecap="round" stroke-linejoin="round" fill-opacity="0" stroke="rgb(32,118,255)" stroke-opacity="1" stroke-width="16" d=" M96.32499694824219,171.5 C15.187000274658203,130.64100646972656 21.253000259399414,42.597999572753906 21.253000259399414,42.597999572753906 C21.253000259399414,42.597999572753906 96.32499694824219,-4.539000034332275 96.32499694824219,-4.539000034332275 C96.32499694824219,-4.539000034332275 171.39700317382812,42.597999572753906 171.39700317382812,42.597999572753906 C171.39700317382812,42.597999572753906 177.46299743652344,130.64100646972656 96.32499694824219,171.5z"></path></g></g></g><filter id="__lottie_element_1646" filterUnits="objectBoundingBox" x="0%" y="0%" width="100%" height="100%"><feComponentTransfer in="SourceGraphic"><feFuncA type="table" tableValues="1.0 0.0"></feFuncA></feComponentTransfer></filter><mask id="__lottie_element_1642_2" mask-type="alpha"><g filter="url(#__lottie_element_1646)"><rect width="500" height="500" x="0" y="0" fill="#ffffff" opacity="0"></rect><use xlink:href="#__lottie_element_1642"></use></g></mask><filter id="__lottie_element_1647" filterUnits="objectBoundingBox" x="0%" y="0%" width="100%" height="100%"><feComponentTransfer in="SourceGraphic"><feFuncA type="table" tableValues="1.0 0.0"></feFuncA></feComponentTransfer></filter><mask id="__lottie_element_1636_2" mask-type="alpha"><g filter="url(#__lottie_element_1647)"><rect width="500" height="500" x="0" y="0" fill="#ffffff" opacity="0"></rect><use xlink:href="#__lottie_element_1636"></use></g></mask></defs><g clip-path="url(#__lottie_element_1628)"><g style="display: block;" transform="matrix(1,0,0,1,250.00001525878906,250)" opacity="1"><g opacity="1" transform="matrix(1,0,0,1,0,0)"><path stroke-linecap="round" stroke-linejoin="round" fill-opacity="0" stroke="rgb(32,118,255)" stroke-opacity="1" stroke-width="16" d=" M96.32499694824219,171.5 C15.187000274658203,130.64100646972656 21.253000259399414,42.597999572753906 21.253000259399414,42.597999572753906 C21.253000259399414,42.597999572753906 96.32499694824219,-4.539000034332275 96.32499694824219,-4.539000034332275 C96.32499694824219,-4.539000034332275 171.39700317382812,42.597999572753906 171.39700317382812,42.597999572753906 C171.39700317382812,42.597999572753906 177.46299743652344,130.64100646972656 96.32499694824219,171.5z"></path></g><g opacity="1" transform="matrix(1,0,0,1,0,0)"><path stroke-linecap="round" stroke-linejoin="round" fill-opacity="0" stroke="rgb(0,0,0)" stroke-opacity="1" stroke-width="16" d=" M74.64199829101562,80.91400146484375 C74.64199829101562,80.91400146484375 90.80799865722656,97.08100128173828 90.80799865722656,97.08100128173828 C90.80799865722656,97.08100128173828 118.00900268554688,69.87999725341797 118.00900268554688,69.87999725341797"></path></g></g><g mask="url(#__lottie_element_1636_2)" style="display: block;"><g transform="matrix(1,0,0,1,250.49664306640625,250.49664306640625)" opacity="1"><g opacity="1" transform="matrix(1,0,0,1,0,0)"><g opacity="1" transform="matrix(1,0,0,1,0,0)"><path stroke-linecap="round" stroke-linejoin="round" fill-opacity="0" stroke="rgb(32,118,255)" stroke-opacity="1" stroke-width="16" d=" M-3.8980000019073486,-62.72200012207031 C15.763999938964844,-43.060001373291016 18.375999450683594,-13.793000221252441 1.9359999895095825,2.6470000743865967 C-14.503999710083008,19.086999893188477 -43.770999908447266,16.47599983215332 -63.43299865722656,-3.186000108718872 C-83.09500122070312,-22.847999572753906 -85.70700073242188,-52.1150016784668 -69.26699829101562,-68.55500030517578 C-52.82699966430664,-84.99500274658203 -23.559999465942383,-82.38400268554688 -3.8980000019073486,-62.72200012207031z"></path></g><g opacity="1" transform="matrix(1,0,0,1,0,0)"><path stroke-linecap="round" stroke-linejoin="round" fill-opacity="0" stroke="rgb(32,118,255)" stroke-opacity="1" stroke-width="16" d=" M-112.07499694824219,-77.5250015258789 C-112.07499694824219,-77.5250015258789 -98.22200012207031,-60.03900146484375 -69.26699829101562,-68.55500030517578"></path></g><g opacity="1" transform="matrix(1,0,0,1,0,0)"><path stroke-linecap="round" stroke-linejoin="round" fill-opacity="0" stroke="rgb(32,118,255)" stroke-opacity="1" stroke-width="16" d=" M-78.23699951171875,-111.36299896240234 C-78.23699951171875,-111.36299896240234 -60.750999450683594,-97.51000213623047 -69.26699829101562,-68.55500030517578"></path></g></g><g opacity="1" transform="matrix(1,0,0,1,0,0)"><path stroke-linecap="round" stroke-linejoin="round" fill-opacity="0" stroke="rgb(32,118,255)" stroke-opacity="1" stroke-width="16" d=" M-43.013999938964844,10.135000228881836 C-43.013999938964844,10.135000228881836 -48.95500183105469,28.895999908447266 -33.66600036621094,44.426998138427734"></path></g><g opacity="1" transform="matrix(1,0,0,1,0,0)"><path stroke-linecap="round" stroke-linejoin="round" fill-opacity="0" stroke="rgb(32,118,255)" stroke-opacity="1" stroke-width="16" d=" M9.423999786376953,-42.301998138427734 C9.423999786376953,-42.301998138427734 28.184999465942383,-48.24300003051758 43.715999603271484,-32.95399856567383"></path></g><g opacity="1" transform="matrix(1,0,0,1,0,0)"><path stroke-linecap="round" stroke-linejoin="round" fill-opacity="0" stroke="rgb(32,118,255)" stroke-opacity="1" stroke-width="16" d=" M-76.75499725341797,-23.606000900268555 C-76.75499725341797,-23.606000900268555 -95.51599884033203,-17.665000915527344 -111.0469970703125,-32.95399856567383"></path></g><g opacity="1" transform="matrix(1,0,0,1,0,0)"><path stroke-linecap="round" stroke-linejoin="round" fill-opacity="0" stroke="rgb(32,118,255)" stroke-opacity="1" stroke-width="16" d=" M-24.316999435424805,-76.04299926757812 C-24.316999435424805,-76.04299926757812 -18.37700080871582,-94.80400085449219 -33.66600036621094,-110.33499908447266"></path></g></g></g><g mask="url(#__lottie_element_1642_2)" style="display: block;"><g transform="matrix(0.9999669194221497,0.008132903836667538,-0.008132903836667538,0.9999669194221497,255.5288543701172,258.2048645019531)" opacity="1"><g opacity="1" transform="matrix(1,0,0,1,0,0)"><path stroke-linecap="round" stroke-linejoin="round" fill-opacity="0" stroke="rgb(0,0,0)" stroke-opacity="1" stroke-width="16" d=" M92.0260009765625,-1.843000054359436 C95.12899780273438,-13.157999992370605 96.77999877929688,-25.062999725341797 96.77999877929688,-37.36000061035156 C96.77999877929688,-111.4469985961914 36.72700119018555,-171.5 -37.36000061035156,-171.5 C-111.4469985961914,-171.5 -171.5,-111.4469985961914 -171.5,-37.36000061035156 C-171.5,36.72700119018555 -111.4469985961914,96.77999877929688 -37.36000061035156,96.77999877929688 C-16.756000518798828,96.77999877929688 2.755000114440918,92.13400268554688 20.19099998474121,83.83899688720703"></path></g><g opacity="1" transform="matrix(1,0,0,1,0,0)"><path stroke-linecap="round" stroke-linejoin="round" fill-opacity="0" stroke="rgb(0,0,0)" stroke-opacity="1" stroke-width="16" d=" M57.49300003051758,-132.21099853515625 C57.49300003051758,-132.21099853515625 -112.81099700927734,38.09299850463867 -130.69700622558594,55.979000091552734"></path></g></g></g></g></svg>