<svg width="27" height="27" viewBox="0 0 27 27" fill="none" xmlns="http://www.w3.org/2000/svg">
<g clip-path="url(#clip0_1440_17889)">
<path d="M19.125 3.75738C20.8218 4.73709 22.2333 6.14297 23.2198 7.83584C24.2063 9.52871 24.7335 11.4499 24.7494 13.4091C24.7652 15.3684 24.269 17.2978 23.31 19.0064C22.351 20.715 20.9624 22.1435 19.2816 23.1505C17.6009 24.1575 15.6863 24.7081 13.7274 24.7477C11.7684 24.7873 9.83312 24.3147 8.113 23.3765C6.39288 22.4384 4.9476 21.0672 3.92025 19.3988C2.89289 17.7304 2.31909 15.8227 2.25563 13.8644L2.25 13.4999L2.25563 13.1354C2.31863 11.1925 2.88399 9.29908 3.89659 7.63975C4.9092 5.98041 6.33449 4.61176 8.0335 3.66725C9.73252 2.72273 11.6473 2.23458 13.5911 2.25037C15.535 2.26617 17.4416 2.78538 19.125 3.75738ZM17.6704 10.4545C17.4767 10.2608 17.2189 10.1444 16.9455 10.1273C16.6721 10.1101 16.4018 10.1932 16.1854 10.3611L16.0796 10.4545L12.375 14.158L10.9204 12.7045L10.8146 12.6111C10.5982 12.4433 10.3279 12.3603 10.0546 12.3775C9.78124 12.3948 9.52358 12.5111 9.32992 12.7048C9.13626 12.8985 9.01989 13.1561 9.00265 13.4295C8.9854 13.7028 9.06846 13.973 9.23625 14.1895L9.32963 14.2953L11.5796 16.5453L11.6854 16.6386C11.8827 16.7917 12.1253 16.8748 12.375 16.8748C12.6247 16.8748 12.8673 16.7917 13.0646 16.6386L13.1704 16.5453L17.6704 12.0453L17.7638 11.9395C17.9317 11.723 18.0148 11.4528 17.9976 11.1794C17.9804 10.906 17.8641 10.6482 17.6704 10.4545Z" fill="white"/>
</g>
<defs>
<clipPath id="clip0_1440_17889">
<rect width="27" height="27" fill="white"/>
</clipPath>
</defs>
</svg>
