<svg width="60" height="60" viewBox="0 0 60 60" fill="none" xmlns="http://www.w3.org/2000/svg">
<g clip-path="url(#clip0_654_3327)">
<path d="M27.3867 1.06535L1.06147 27.369C-0.353823 28.7831 -0.353823 31.0672 1.06147 32.4813L27.3867 58.7849C28.802 60.199 31.088 60.199 32.5033 58.7849L43.5411 47.7562C44.8086 46.4897 44.8086 44.4364 43.5411 43.1699C42.2736 41.9035 40.2185 41.9035 38.951 43.1699L30.5834 51.5307C30.2311 51.8827 29.6965 51.8827 29.3442 51.5307L8.32161 30.5254C7.96935 30.1734 7.96935 29.6392 8.32161 29.2873L29.3442 8.28195C29.6965 7.92997 30.2311 7.92997 30.5834 8.28195L38.951 16.6427C40.2185 17.9092 42.2736 17.9092 43.5411 16.6427C44.8086 15.3763 44.8086 13.323 43.5411 12.0565L32.5045 1.02897C31.0834 -0.354552 28.7966 -0.343352 27.3867 1.06535Z" fill="url(#paint0_linear_654_3327)"/>
<path d="M27.3867 1.06535L1.06147 27.369C-0.353823 28.7831 -0.353823 31.0672 1.06147 32.4813L27.3867 58.7849C28.802 60.199 31.088 60.199 32.5033 58.7849L43.5411 47.7562C44.8086 46.4897 44.8086 44.4364 43.5411 43.1699C42.2736 41.9035 40.2185 41.9035 38.951 43.1699L30.5834 51.5307C30.2311 51.8827 29.6965 51.8827 29.3442 51.5307L8.32161 30.5254C7.96935 30.1734 7.96935 29.6392 8.32161 29.2873L29.3442 8.28195C30.2213 7.52578 31.6525 5.99419 33.7541 5.63598C35.316 5.36976 37.0235 5.9557 38.8768 7.39379C37.6377 6.1558 35.5137 4.0342 32.5045 1.02897C31.0834 -0.354552 28.7966 -0.343352 27.3867 1.06535Z" fill="url(#paint1_linear_654_3327)"/>
<path d="M46.0891 40.7237C47.3566 41.9902 49.4116 41.9902 50.6791 40.7237L58.8211 32.5884C60.2364 31.1743 60.2364 28.8902 58.8213 27.4762L50.6083 19.2991C49.3378 18.0341 47.2821 18.036 46.0139 19.3032C44.7464 20.5696 44.7464 22.6229 46.0139 23.8894L51.561 29.4319C51.9132 29.7839 51.9132 30.3181 51.561 30.6701L46.0891 36.1375C44.8216 37.4039 44.8216 39.4573 46.0891 40.7237Z" fill="url(#paint2_linear_654_3327)"/>
<path d="M30.0766 37.1587C34.0022 37.1587 37.1845 33.979 37.1845 30.0567C37.1845 26.1344 34.0022 22.9547 30.0766 22.9547C26.1511 22.9547 22.9688 26.1344 22.9688 30.0567C22.9688 33.979 26.1511 37.1587 30.0766 37.1587Z" fill="url(#paint3_linear_654_3327)"/>
</g>
<defs>
<linearGradient id="paint0_linear_654_3327" x1="2763.04" y1="0.00014795" x2="5264.7" y2="1527.73" gradientUnits="userSpaceOnUse">
<stop stop-color="#4285EB"/>
<stop offset="1" stop-color="#2EC7FF"/>
</linearGradient>
<linearGradient id="paint1_linear_654_3327" x1="3098.58" y1="-3.4087e-05" x2="1862.99" y2="6385.88" gradientUnits="userSpaceOnUse">
<stop stop-color="#29CDFF"/>
<stop offset="0.378601" stop-color="#148EFF"/>
<stop offset="1" stop-color="#0A60FF"/>
</linearGradient>
<linearGradient id="paint2_linear_654_3327" x1="1077.84" y1="-284.236" x2="-529.86" y2="2230.07" gradientUnits="userSpaceOnUse">
<stop stop-color="#FA816E"/>
<stop offset="0.414726" stop-color="#F74A5C"/>
<stop offset="1" stop-color="#F51D2C"/>
</linearGradient>
<linearGradient id="paint3_linear_654_3327" x1="991.452" y1="-483.993" x2="456.523" y2="1655.8" gradientUnits="userSpaceOnUse">
<stop stop-color="#FA8E7D"/>
<stop offset="0.512635" stop-color="#F74A5C"/>
<stop offset="1" stop-color="#F51D2C"/>
</linearGradient>
<clipPath id="clip0_654_3327">
<rect width="60" height="60" fill="white"/>
</clipPath>
</defs>
</svg>
