<svg width="60" height="59" viewBox="0 0 60 59" fill="none" xmlns="http://www.w3.org/2000/svg">
<g clip-path="url(#clip0_3552_519)">
<path d="M39.3459 10.872L33.7959 14.576L28.0781 6.00776L33.6281 2.30347L39.3457 10.872H39.3459Z" fill="url(#paint0_linear_3552_519)"/>
<path d="M43.8593 36.6137L53.3421 50.8239L42.0457 58.3626L32.5629 44.1519L30.9082 41.6732L42.2051 34.1345L43.8593 36.6137Z" fill="url(#paint1_linear_3552_519)"/>
<path d="M29.6297 46.1081L31.7175 49.2368L23.1192 54.9748L19.377 49.3671L21.2555 48.1137L27.9755 43.6292L29.6297 46.1081Z" fill="url(#paint2_linear_3552_519)"/>
<path d="M48.555 29.8958L50.9667 28.2864L54.7087 33.894L49.158 37.5983L47.0702 34.4694L50.2092 32.3748L48.555 29.8958ZM47.0702 34.4697L45.416 31.9907L48.555 29.8958L50.2092 32.3748L47.0702 34.4697Z" fill="url(#paint3_linear_3552_519)"/>
<path d="M9.63563 30.6998L7.75711 31.9532L2.03906 23.3847L10.6376 17.6467L14.6454 23.6531L7.92562 28.1376L14.6456 23.6528L16.3556 26.2152L9.63539 30.6995L9.63563 30.6998Z" fill="url(#paint4_linear_3552_519)"/>
<path d="M30.5825 16.7203L19.2856 24.2589L17.5759 21.6965L8.18164 7.619L19.4785 0.0805664L28.8725 14.1578L30.5825 16.7203Z" fill="url(#paint5_linear_3552_519)"/>
<path d="M36.9352 12.4819L33.7962 14.5765L32.0859 12.0141L28.0781 6.008L33.6288 2.30347L39.3469 10.8722L36.9352 12.4819Z" fill="url(#paint6_linear_3552_519)"/>
<path d="M22.9102 50.5927L21.256 48.1137L27.976 43.6292L29.6302 46.1081L22.9102 50.5927Z" fill="#714896"/>
<path d="M47.0702 34.4696L45.416 31.9906L48.555 29.8958L50.2092 32.3747L47.0702 34.4696Z" fill="#6F4795"/>
<path d="M9.63578 30.6998L7.92578 28.1376L14.6455 23.6528L16.3558 26.2153L9.63555 30.6996L9.63578 30.6998Z" fill="#88519F"/>
<path d="M33.7962 14.5767L32.0859 12.0143L35.2254 9.91943L36.9352 12.4821L33.7962 14.5767Z" fill="#85509E"/>
<path d="M43.8591 36.6137L32.5624 44.1519L30.9082 41.6732L42.2048 34.1345L43.8591 36.6137Z" fill="#8D166A"/>
<path d="M28.8728 14.1582L30.5828 16.7204L19.2859 24.2591L17.5762 21.6966L28.873 14.158L28.8728 14.1582Z" fill="#A70D6F"/>
<path d="M6.43156 12.1104L8.56367 15.3056L5.36844 17.4377L3.23633 14.2425L6.43156 12.1104Z" fill="#9E61AD"/>
<path d="M17.9452 50.4146L20.0773 53.6098L16.8823 55.7419L14.75 52.5469L17.9452 50.4146Z" fill="#8053A3"/>
<path d="M9.53998 53.6325L0.185608 39.5006L50.1771 6.06421L59.9861 19.9704L9.53998 53.6325Z" fill="url(#paint7_linear_3552_519)"/>
</g>
<defs>
<linearGradient id="paint0_linear_3552_519" x1="-4345.5" y1="-1392.82" x2="3146.99" y2="3930.92" gradientUnits="userSpaceOnUse">
<stop stop-color="#C06FBB"/>
<stop offset="1" stop-color="#6E4D9B"/>
</linearGradient>
<linearGradient id="paint1_linear_3552_519" x1="1667.35" y1="1960.63" x2="-2489.08" y2="-2545" gradientUnits="userSpaceOnUse">
<stop stop-color="#6E4D9B"/>
<stop offset="0.14" stop-color="#77327A"/>
<stop offset="0.29" stop-color="#B31777"/>
<stop offset="0.84" stop-color="#CD0F7E"/>
<stop offset="1" stop-color="#ED2C89"/>
</linearGradient>
<linearGradient id="paint2_linear_3552_519" x1="-2846.25" y1="-7825.7" x2="2410.96" y2="1590.18" gradientUnits="userSpaceOnUse">
<stop stop-color="#C06FBB"/>
<stop offset="1" stop-color="#6E4D9B"/>
</linearGradient>
<linearGradient id="paint3_linear_3552_519" x1="-7585.64" y1="-4319.74" x2="1007.32" y2="2685.88" gradientUnits="userSpaceOnUse">
<stop stop-color="#C06FBB"/>
<stop offset="1" stop-color="#6E4D9B"/>
</linearGradient>
<linearGradient id="paint4_linear_3552_519" x1="-2003.64" y1="-3286.09" x2="5988.57" y2="3771.2" gradientUnits="userSpaceOnUse">
<stop stop-color="#C06FBB"/>
<stop offset="1" stop-color="#6E4D9B"/>
</linearGradient>
<linearGradient id="paint5_linear_3552_519" x1="4288.63" y1="5441.83" x2="122.192" y2="909.136" gradientUnits="userSpaceOnUse">
<stop stop-color="#6E4D9B"/>
<stop offset="0.14" stop-color="#77327A"/>
<stop offset="0.29" stop-color="#B31777"/>
<stop offset="0.84" stop-color="#CD0F7E"/>
<stop offset="1" stop-color="#ED2C89"/>
</linearGradient>
<linearGradient id="paint6_linear_3552_519" x1="-4345.26" y1="-1700.31" x2="3262.39" y2="4820.05" gradientUnits="userSpaceOnUse">
<stop stop-color="#C06FBB"/>
<stop offset="1" stop-color="#6E4D9B"/>
</linearGradient>
<linearGradient id="paint7_linear_3552_519" x1="688.071" y1="4270.7" x2="4320.47" y2="-281.778" gradientUnits="userSpaceOnUse">
<stop stop-color="#6E4D9B"/>
<stop offset="0.14" stop-color="#77327A"/>
<stop offset="0.53" stop-color="#B31777"/>
<stop offset="0.79" stop-color="#CD0F7E"/>
<stop offset="1" stop-color="#ED2C89"/>
</linearGradient>
<clipPath id="clip0_3552_519">
<rect width="60" height="58.368" fill="white"/>
</clipPath>
</defs>
</svg>
