<svg width="60" height="60" viewBox="0 0 60 60" fill="none" xmlns="http://www.w3.org/2000/svg">
<path d="M37.7355 59.8964H38.4638L50.3519 53.9516L50.5497 53.672V6.2209L50.3519 5.93979L38.4638 0H37.7266L37.7355 59.8964Z" fill="#5294CF"/>
<path d="M22.2649 59.8964H21.5264L9.64848 53.9516L9.40744 53.537L9.28516 6.46256L9.64848 5.93979L21.5264 0H22.274L22.2649 59.8964Z" fill="#1F5B98"/>
<path d="M21.5474 0H38.4524V59.8964H21.5474V0Z" fill="#2D72B8"/>
<path d="M56.5746 28.6025L56.1728 28.5134L50.4369 27.9786L50.3518 28.0209L38.4531 27.5451H21.5472L9.64834 28.0209V18.9474L9.63589 18.9541L9.64834 18.9275L21.5472 16.1704H38.4531L50.3518 18.9275L54.726 21.2526V19.7578L56.5746 19.5555L56.3832 19.1823L50.5301 14.997L50.3518 15.0549L38.4531 11.3679H21.5472L9.64834 15.0549V5.9397L3.42578 13.2296V19.5962L3.47395 19.5614L5.27436 19.7578V21.2833L3.42578 22.2726V28.6074L3.47395 28.6025L5.27436 28.629V31.2879L3.72101 31.3112L3.42578 31.2829V37.6203L5.27436 38.6144V40.1576L3.50322 40.3531L3.42578 40.295V46.6606L9.64834 53.9515V44.8371L21.5472 48.5241H38.4531L50.3869 44.8263L50.5455 44.8959L56.3215 40.7723L56.5746 40.3614L54.726 40.1576V38.6453L54.4837 38.5486L50.5301 40.6797L50.3869 40.9787L38.4531 43.7198V43.7231H21.5472V43.7198L9.64834 40.967V31.8603L21.5472 32.3345V32.3461H38.4531L50.3518 31.8603L50.6227 31.9849L56.1824 31.5061L56.5746 31.3145L54.726 31.2879V28.629L56.5746 28.6025Z" fill="#1A476F"/>
<path d="M50.3516 44.8373V53.9517L56.5743 46.6608V40.3367L50.3875 44.8265L50.3516 44.8373Z" fill="#2D72B8"/>
<path d="M50.3516 40.9871L50.3875 40.9788L56.5743 37.6512V31.2881L50.3516 31.8605V40.9871Z" fill="#2D72B8"/>
<path d="M50.3875 18.936L50.3516 18.9277V28.0212L56.5743 28.6027V22.2427L50.3875 18.936Z" fill="#2D72B8"/>
<path d="M50.3875 15.0906L56.5743 19.5555V13.2313L50.3516 5.9397V15.0549L50.3875 15.0674V15.0906Z" fill="#2D72B8"/>
</svg>
