<svg width="54" height="60" viewBox="0 0 54 60" fill="none" xmlns="http://www.w3.org/2000/svg">
<g clip-path="url(#clip0_30_861)">
<path d="M53.2435 17.5942C53.2431 16.588 53.0279 15.6988 52.5927 14.9357C52.1652 14.1853 51.525 13.5563 50.6663 13.059C43.5777 8.97175 36.4823 4.89695 29.396 0.805495C27.4856 -0.297422 25.6333 -0.257213 23.7371 0.861537C20.9156 2.5255 6.78958 10.6186 2.58021 13.0567C0.846667 14.0603 0.003125 15.5961 0.00270833 17.5924C0 25.8122 0.00270833 34.0317 0 42.2517C0 43.2359 0.206458 44.1078 0.6225 44.8595C1.05021 45.6326 1.69938 46.2788 2.57792 46.7874C6.7875 49.2255 20.9154 57.318 23.7362 58.9824C25.6333 60.1017 27.4856 60.1417 29.3967 59.0384C36.4831 54.9467 43.579 50.8722 50.6685 46.7849C51.5471 46.2765 52.1963 45.6299 52.624 44.8574C53.0394 44.1057 53.2463 43.2338 53.2463 42.2495C53.2463 42.2495 53.2463 25.8142 53.2435 17.5942Z" fill="#A179DC"/>
<path d="M26.7046 29.842L0.622499 44.8595C1.05021 45.6326 1.69937 46.2789 2.57792 46.7874C6.7875 49.2255 20.9154 57.318 23.7362 58.9824C25.6333 60.1018 27.4856 60.1418 29.3967 59.0384C36.4831 54.9468 43.579 50.8722 50.6685 46.7849C51.5471 46.2766 52.1962 45.6299 52.624 44.8574L26.7046 29.842Z" fill="#280068"/>
<path d="M53.2435 17.5943C53.2431 16.588 53.0279 15.6989 52.5927 14.9357L26.7046 29.842L52.624 44.8574C53.0394 44.1057 53.2458 43.2339 53.2463 42.2495C53.2463 42.2495 53.2463 25.8143 53.2435 17.5943Z" fill="#390091"/>
<path d="M42.0609 24.2279V27.0349H44.8679V24.2279H46.2714V27.0349H49.0784V28.4384H46.2714V31.2454H49.0784V32.649H46.2714V35.456H44.8679V32.649H42.0609V35.456H40.6574V32.649H37.8504V31.2454H40.6574V28.4384H37.8504V27.0349H40.6574V24.2279H42.0609ZM44.8679 28.4384H42.0609V31.2454H44.8679V28.4384Z" fill="white"/>
<path d="M26.7618 10.1304C34.0834 10.1304 40.4758 14.1067 43.8997 20.0171L43.8663 19.9602L35.252 24.9202C33.5548 22.0466 30.4434 20.1073 26.8742 20.0673L26.7618 20.0667C21.319 20.0667 16.9064 24.4791 16.9064 29.9219C16.9064 31.7018 17.3809 33.3703 18.2062 34.8114C19.9049 37.7771 23.0984 39.7774 26.7618 39.7774C30.4478 39.7774 33.6595 37.7517 35.3496 34.7543L35.3086 34.8262L43.9099 39.8091C40.5236 45.6695 34.2188 49.6335 26.9823 49.7125L26.7618 49.7137C19.4171 49.7137 13.0066 45.7129 9.5913 39.7713C7.92401 36.8707 6.97004 33.5079 6.97004 29.9219C6.97004 18.9915 15.8309 10.1304 26.7618 10.1304Z" fill="white"/>
</g>
<defs>
<clipPath id="clip0_30_861">
<rect width="53.3333" height="60" fill="white"/>
</clipPath>
</defs>
</svg>
