<svg width="60" height="67" viewBox="0 0 60 67" fill="none" xmlns="http://www.w3.org/2000/svg">
<path d="M54.6085 16.2064L34.5907 4.64415C33.7153 4.13169 32.653 3.82208 31.516 3.82208C30.379 3.82208 29.3167 4.13703 28.4092 4.6655L28.4306 4.64415L8.41281 16.2064C6.56583 17.2901 5.34875 19.2705 5.33807 21.5338V44.6477C5.33807 46.9217 6.56583 48.9022 8.39145 49.9644L8.41281 49.9858L28.4306 61.5374C29.3167 62.0605 30.379 62.3701 31.516 62.3701C32.653 62.3701 33.7153 62.0552 34.6228 61.5267L34.5907 61.5374L54.6085 49.9858C56.4662 48.9021 57.6833 46.9217 57.6939 44.6477V21.5445C57.6833 19.2705 56.4662 17.2901 54.6406 16.2171L54.6085 16.2064ZM53.589 44.6477C53.589 45.411 53.1833 46.0676 52.5694 46.4199L52.5587 46.4306L32.5409 57.9822C32.2473 58.1584 31.895 58.2651 31.5213 58.2651C31.137 58.2651 30.7794 58.1584 30.4804 57.9822H30.4911L10.4733 46.4306C9.85943 46.0676 9.45373 45.411 9.45373 44.6477V21.5445C9.45373 20.7812 9.85943 20.1246 10.4626 19.7723L10.4733 19.7616L30.4911 8.20999C30.7847 8.03383 31.137 7.92706 31.5213 7.92706C31.895 7.92706 32.2527 8.03383 32.5516 8.20999H32.5409L52.5587 19.7616C53.1833 20.1246 53.589 20.7812 53.589 21.5445V44.6477Z" fill="black"/>
<path d="M43.3292 39.79H41.8612C41.4982 39.79 41.1619 39.8861 40.8576 40.0516L40.8683 40.0409L32.0071 44.9092L21.758 39V27.2082L31.9964 21.2989L40.879 26.1459C41.1619 26.3007 41.5035 26.3968 41.8612 26.3968H43.3292C43.8897 26.3968 44.3594 25.9377 44.3594 25.3772V23.9786C44.3594 23.5943 44.1406 23.258 43.8256 23.0818L33.9715 17.6904C33.4003 17.3754 32.7224 17.1886 32.0018 17.1886C31.2384 17.1886 30.5338 17.3861 29.9253 17.7438L29.9466 17.7331L19.6975 23.653C18.4697 24.3736 17.653 25.6975 17.6423 27.1975V39C17.6423 40.5107 18.4644 41.8238 19.6868 42.5445L19.6975 42.5551L29.9466 48.4644C30.5285 48.806 31.2384 49.0089 31.9911 49.0089C32.7224 49.0089 33.4003 48.822 33.9929 48.4964L33.9715 48.5071L43.8149 43.105C44.1406 42.9288 44.3487 42.5818 44.3487 42.1975V40.8096C44.3487 40.2491 43.8897 39.79 43.3292 39.79Z" fill="black"/>
</svg>
