<svg width="60" height="40" viewBox="0 0 60 40" fill="none" xmlns="http://www.w3.org/2000/svg">
<g clip-path="url(#clip0_3583_2087)">
<path d="M48.7498 26.2544C48.7498 28.7409 47.4401 29.9594 44.9998 30.0025V30.0042H15.0002V30.0025C12.5599 29.9594 11.2502 28.7409 11.2502 26.2542C11.2502 23.7681 12.5599 22.5492 15.0002 22.5065V22.5042H44.9998V22.5065C47.4401 22.5492 48.7498 23.7684 48.7498 26.2544ZM44.9998 31.8815V31.8794H15.0002V31.8817C12.5599 31.9244 11.2502 33.1434 11.2502 35.6301C11.2502 38.1168 12.5599 39.3346 15.0002 39.3778V39.3794H44.9998V39.3771C47.4401 39.3346 48.7498 38.1161 48.7498 35.6294C48.7498 33.1427 47.4401 31.9242 44.9998 31.8815ZM54.3748 11.2586V11.2565C51.9349 11.2996 50.6248 12.5181 50.6248 15.0049V35.6294C50.6248 38.1161 51.9349 39.3339 54.3748 39.3771V39.3733C58.035 39.2446 60 35.5888 60 28.1294V18.7544C60 13.7817 58.035 11.3449 54.375 11.2584M5.625 11.2563V11.2586C1.96523 11.3446 0 13.7814 0 18.7544V28.1294C0 35.5888 1.965 39.2442 5.625 39.3731V39.3771C8.06531 39.3344 9.375 38.1159 9.375 35.6294V15.0044C9.375 12.5179 8.06531 11.2994 5.625 11.2563ZM54.375 9.37939C54.375 3.16307 51.1001 0.116895 45 0.00931641V0.00439453H15V0.00931641C8.90039 0.117129 5.625 3.16307 5.625 9.37963V9.38268C9.28523 9.44713 11.2502 11.2748 11.2502 15.0046C11.2502 18.7342 13.2152 20.5617 16.8752 20.6263V20.6294H43.1252V20.6266C46.7848 20.5621 48.7498 18.7345 48.7498 15.0049C48.7498 11.275 50.7148 9.44736 54.3748 9.38291L54.375 9.37939Z" fill="#E42528"/>
</g>
<defs>
<clipPath id="clip0_3583_2087">
<rect width="60" height="39.384" fill="white"/>
</clipPath>
</defs>
</svg>
