<svg width="60" height="57" viewBox="0 0 60 57" fill="none" xmlns="http://www.w3.org/2000/svg">
<g clip-path="url(#clip0_654_2935)">
<path d="M59.8863 41.1599C59.9133 40.8986 59.9325 40.635 59.9475 40.3699C59.9658 40.0561 41.0661 22.1241 41.0661 22.1241H40.6143C40.6143 22.1241 59.7708 42.3304 59.8863 41.1597V41.1599Z" fill="url(#paint0_linear_654_2935)"/>
<path d="M19.5634 34.9393C19.5383 34.9944 19.5135 35.0494 19.4877 35.1043C19.461 35.1619 19.4333 35.2194 19.4059 35.2763C18.8035 36.5325 27.8402 45.3667 28.5669 44.2935C28.6 44.2461 28.6333 44.196 28.6663 44.1486C28.7031 44.0924 28.7394 44.0385 28.7758 43.9822C29.357 43.0998 19.8214 34.3655 19.5634 34.9393Z" fill="url(#paint1_linear_654_2935)"/>
<path d="M32.333 47.3623C32.3075 47.4186 32.1256 47.726 31.9594 47.8885C31.9313 47.9447 40.7811 56.7214 40.7811 56.7214H41.578C41.5784 56.7214 33.2705 47.7333 32.333 47.3623Z" fill="url(#paint2_linear_654_2935)"/>
<path d="M59.9601 40.2105C59.5462 49.3854 51.9559 56.7214 42.6824 56.7214H41.4285L32.1676 47.5978C32.9293 46.5235 33.6375 45.4104 34.268 44.2498H42.6824C45.3434 44.2498 47.509 42.0854 47.509 39.423C47.509 36.7617 45.3434 34.5961 42.6824 34.5961H37.7029C38.0824 32.5906 38.2898 30.5225 38.2898 28.4069C38.2898 26.2589 38.0786 24.1615 37.6856 22.1239H40.7786L59.9055 40.9705C59.9283 40.7179 59.9463 40.4655 59.9601 40.2105ZM5.03123 0H0V12.4716H5.03123C13.8185 12.4716 20.9684 19.6196 20.9684 28.4069C20.9684 30.7974 20.4352 33.0668 19.4877 35.1042L28.6663 44.1486C31.6801 39.6393 33.4418 34.2256 33.4418 28.4069C33.4418 12.7434 20.6965 0 5.03123 0Z" fill="url(#paint3_linear_654_2935)"/>
<path d="M42.6823 0H22.309C27.2851 3.03814 31.4056 7.34611 34.2131 12.4716H42.6823C45.3434 12.4716 47.5089 14.636 47.5089 17.2984C47.5089 19.9602 45.3434 22.1246 42.6823 22.1246H40.7792L59.9062 40.971C59.9512 40.4598 59.9793 39.9454 59.9793 39.423C59.9793 35.2186 58.4707 31.3618 55.9657 28.36C58.4707 25.3596 59.9793 21.5021 59.9793 17.2984C59.9793 7.76047 52.2207 0 42.6823 0Z" fill="url(#paint4_linear_654_2935)"/>
<path d="M41.4285 56.7214H22.4546C26.2739 54.3627 29.5757 51.2488 32.1676 47.5978L41.4285 56.7214ZM28.6663 44.1486L19.4884 35.1042C16.9527 40.5536 11.4272 44.3436 5.03123 44.3436H0V56.814H5.03123C14.8771 56.814 23.5676 51.7778 28.6663 44.1486Z" fill="url(#paint5_linear_654_2935)"/>
</g>
<defs>
<linearGradient id="paint0_linear_654_2935" x1="-1557.03" y1="-1749.3" x2="1997.14" y2="2091.81" gradientUnits="userSpaceOnUse">
<stop stop-color="#F9A03C"/>
<stop offset="1" stop-color="#F7974E"/>
</linearGradient>
<linearGradient id="paint1_linear_654_2935" x1="-2420.78" y1="-2323.19" x2="955.736" y2="953.52" gradientUnits="userSpaceOnUse">
<stop stop-color="#F9A03C"/>
<stop offset="1" stop-color="#F7974E"/>
</linearGradient>
<linearGradient id="paint2_linear_654_2935" x1="-2114.56" y1="-2404.43" x2="841.971" y2="1079.22" gradientUnits="userSpaceOnUse">
<stop stop-color="#F9A03C"/>
<stop offset="1" stop-color="#F7974E"/>
</linearGradient>
<linearGradient id="paint3_linear_654_2935" x1="679.888" y1="-103.346" x2="4650.17" y2="5436.78" gradientUnits="userSpaceOnUse">
<stop stop-color="#F26D58"/>
<stop offset="1" stop-color="#F9A03C"/>
</linearGradient>
<linearGradient id="paint4_linear_654_2935" x1="619.158" y1="158.066" x2="4739.64" y2="2647.45" gradientUnits="userSpaceOnUse">
<stop stop-color="#B84E51"/>
<stop offset="1" stop-color="#F68E48"/>
</linearGradient>
<linearGradient id="paint5_linear_654_2935" x1="1946.48" y1="544.545" x2="2002.25" y2="3237.97" gradientUnits="userSpaceOnUse">
<stop stop-color="#F9A03C"/>
<stop offset="1" stop-color="#F7974E"/>
</linearGradient>
<clipPath id="clip0_654_2935">
<rect width="60" height="56.952" fill="white"/>
</clipPath>
</defs>
</svg>
