<svg width="60" height="38" viewBox="0 0 60 38" fill="none" xmlns="http://www.w3.org/2000/svg">
<g clip-path="url(#clip0_3582_794)">
<path d="M3.04741 19.2472C2.89439 19.0846 2.70789 18.9555 2.50227 18.8647C2.29665 18.7738 2.07668 18.7308 1.85193 18.7308C1.62718 18.726 1.40721 18.7738 1.20159 18.8599C0.995966 18.9507 0.809471 19.0799 0.65645 19.2424C0.498647 19.4002 0.374317 19.5867 0.293024 19.7924C0.211731 20.0028 0.168694 20.2227 0.168694 20.4427C0.163912 20.6674 0.20695 20.8874 0.293024 21.093C0.379099 21.2987 0.503428 21.4852 0.661232 21.643C0.814298 21.8056 0.999786 21.9343 1.20571 22.0208C1.41163 22.1073 1.63341 22.1496 1.85671 22.1451C2.07954 22.1463 2.30031 22.1024 2.50575 22.0162C2.71119 21.9299 2.89707 21.8029 3.05219 21.643C3.21478 21.4899 3.33911 21.3034 3.42518 21.0978C3.51126 20.8922 3.55429 20.6722 3.55429 20.4475C3.55429 20.2227 3.51126 20.0028 3.42518 19.7971C3.33432 19.5867 3.20999 19.4002 3.04741 19.2472ZM23.0597 15.3643C23.0358 16.4355 23.0884 17.5114 23.2128 18.5778H23.1554C23.0215 18.3147 22.725 17.827 22.2707 17.1145L11.3679 0H8.05886V21.8486H10.6028V6.05391C10.6315 5.05449 10.5885 4.05507 10.4833 3.05565H10.5789C10.7606 3.53384 10.995 3.9929 11.2723 4.42327L22.4716 21.8486H25.6037V0H23.0597V15.3643ZM42.8521 19.4481H33.8621V11.8783H41.7283V9.5734H33.8621V2.31445H42.3022V0H31.2559V21.8486H42.8378L42.8521 19.4481ZM44.7983 0V2.31445H51.0627V21.8486H53.6066V2.31445H59.9427V0H44.7983ZM19.8654 27.2808C19.23 27.5344 18.6561 27.9208 18.1822 28.4142C17.6944 28.9354 17.3119 29.5475 17.0632 30.2217C16.8146 30.896 16.7046 31.6085 16.7333 32.321C16.6854 33.6408 17.1445 34.9319 18.0244 35.917C18.4643 36.3808 18.9999 36.7395 19.5928 36.9786C20.1858 37.2177 20.8218 37.3229 21.4578 37.2942C22.4142 37.3277 23.3658 37.1268 24.2313 36.706L24.2409 35.5918C23.4471 36.0557 22.5433 36.2852 21.6252 36.2613C21.1326 36.2804 20.6401 36.1943 20.1858 36.0078C19.7315 35.8214 19.3203 35.5344 18.9855 35.171C18.2856 34.3579 17.9259 33.3064 17.9813 32.2349C17.924 31.1016 18.3113 29.9922 19.0573 29.141C19.4111 28.7489 19.8463 28.4429 20.3293 28.2324C20.8141 28.0262 21.3376 27.9268 21.8643 27.9407C22.7011 27.9264 23.5236 28.132 24.2552 28.5385V27.3382C23.4964 27.0323 22.6819 26.8889 21.8643 26.9174C21.1804 26.9079 20.4966 27.0274 19.8654 27.2808ZM31.7867 30.7047C31.4671 30.3686 31.0785 30.1056 30.6476 29.9339C30.2167 29.7622 29.7538 29.6858 29.2906 29.7101C28.798 29.6861 28.3103 29.7674 27.8512 29.9444C27.3922 30.1213 26.9761 30.3891 26.6223 30.7286C26.278 31.1112 26.015 31.5559 25.8428 32.0436C25.6707 32.5314 25.5989 33.0431 25.6324 33.5595C25.5846 34.5398 25.9241 35.501 26.5744 36.2326C26.8996 36.5817 27.2917 36.859 27.7317 37.0455C28.1716 37.2272 28.645 37.3181 29.1184 37.299C29.6014 37.3133 30.0844 37.2225 30.5339 37.036C30.9834 36.8495 31.3851 36.5673 31.715 36.2087C32.3856 35.4527 32.7325 34.4636 32.681 33.4543C32.7383 32.4501 32.418 31.4698 31.7867 30.7047ZM30.9116 35.6157C30.7013 35.8586 30.438 36.05 30.142 36.1752C29.846 36.3004 29.5253 36.356 29.2045 36.3378C28.8746 36.3521 28.5494 36.29 28.2481 36.1656C27.9469 36.0365 27.6791 35.8453 27.4591 35.5966C27.0008 35.0293 26.7706 34.3114 26.8135 33.5834C26.7705 32.8327 27 32.0915 27.4591 31.4985C27.6743 31.2498 27.9421 31.0538 28.2433 30.9199C28.5446 30.7908 28.8745 30.7286 29.1997 30.743C29.5249 30.7238 29.8453 30.786 30.1418 30.9151C30.4382 31.0442 30.7012 31.2403 30.9116 31.4889C31.3462 32.0901 31.5576 32.824 31.5094 33.5643C31.5572 34.2911 31.3468 35.0228 30.9116 35.6157ZM36.4539 30.2361C36.0952 30.5565 35.8322 30.9725 35.7031 31.4363V29.9348H34.5076V37.1268H35.7031V33.4591C35.6649 32.7944 35.837 32.1297 36.1909 31.5654C36.32 31.3598 36.4921 31.1877 36.7025 31.0681C36.913 30.9486 37.1473 30.8768 37.3864 30.8721C37.6924 30.8482 37.9985 30.9294 38.2567 31.1016V29.9157C38.0367 29.844 37.8072 29.8105 37.5776 29.82C37.1664 29.8153 36.7695 29.9635 36.4539 30.2361ZM45.2526 33.2056C45.31 32.2923 45.0374 31.3933 44.4875 30.6664C44.2149 30.3604 43.8802 30.1165 43.5024 29.9587C43.1247 29.8009 42.7182 29.7292 42.3117 29.7531C41.8622 29.7388 41.4127 29.8296 40.9967 30.0113C40.5855 30.193 40.2173 30.4656 39.9208 30.8099C39.2715 31.5674 38.9347 32.5436 38.9787 33.5404C38.9166 34.535 39.2274 35.5201 39.8491 36.2948C40.1503 36.6247 40.5233 36.8829 40.9345 37.0551C41.3458 37.2272 41.7953 37.299 42.24 37.2798C43.1247 37.3229 43.9998 37.0838 44.7362 36.596V35.5153C44.107 36.0265 43.3232 36.3097 42.5126 36.3187C42.2018 36.3378 41.8861 36.29 41.5945 36.1752C41.3028 36.0604 41.035 35.8931 40.815 35.6683C40.3878 35.1513 40.1709 34.4922 40.2077 33.8225H45.2622L45.2526 33.2056ZM40.1981 32.8709C40.2603 32.3019 40.509 31.7663 40.9011 31.3503C41.0768 31.1614 41.2901 31.0115 41.5273 30.9102C41.7645 30.8089 42.0204 30.7585 42.2783 30.7621C42.5269 30.7477 42.7708 30.7908 43.0003 30.8864C43.2299 30.982 43.4307 31.1255 43.5933 31.312C43.928 31.7567 44.0954 32.3019 44.0715 32.8566L40.1981 32.8709Z" fill="#621EE5"/>
</g>
<defs>
<clipPath id="clip0_3582_794">
<rect width="60" height="37.8" fill="white"/>
</clipPath>
</defs>
</svg>
