<svg width="60" height="60" viewBox="0 0 60 60" fill="none" xmlns="http://www.w3.org/2000/svg">
<g clip-path="url(#clip0_30_786)">
<path fill-rule="evenodd" clip-rule="evenodd" d="M31.9066 0.151367C27.5475 1.69649 23.3395 6.20631 19.2827 13.6808C13.1974 24.8925 5.33795 40.8246 16.1604 53.439C21.1673 59.2748 29.4341 62.719 40.2832 57.2641C48.9987 52.8819 51.4226 40.3061 48.2936 34.3965C41.8391 22.2063 35.2907 19.1996 33.5372 11.6397C32.3682 6.59979 31.8246 2.77035 31.9066 0.151367Z" fill="url(#paint0_linear_30_786)"/>
<path fill-rule="evenodd" clip-rule="evenodd" d="M31.9081 0C27.5269 1.56106 23.3189 6.07087 19.2841 13.5294C13.232 24.7173 5.33943 40.6733 16.1619 53.2876C21.1688 59.1234 29.3292 61.0092 33.8573 57.5481C36.8092 55.2917 38.8169 53.141 39.9736 48.6093C41.2616 43.5634 40.2734 36.7701 39.5963 33.6493C38.7394 29.7003 38.459 25.366 38.7549 20.6464C38.6506 20.5194 38.5727 20.4243 38.5212 20.3612C36.1638 17.4762 34.3447 14.9633 33.5387 11.4883C32.3697 6.44843 31.8261 2.61898 31.9081 0Z" fill="url(#paint1_linear_30_786)"/>
<path fill-rule="evenodd" clip-rule="evenodd" d="M28.278 1.96289C24.1973 5.18804 21.1631 10.5977 19.1756 18.1919C16.1943 29.5833 15.8713 40.0879 16.9227 46.1979C18.961 58.0426 29.5282 62.5387 40.3672 57.0254C47.0376 53.6325 49.8159 46.3496 49.6687 38.4444C49.5163 30.2591 33.6987 20.9824 30.8975 14.1512C29.0299 9.59709 28.1568 5.53432 28.278 1.96289Z" fill="url(#paint2_linear_30_786)"/>
<path fill-rule="evenodd" clip-rule="evenodd" d="M38.6282 23.3196C43.5223 29.5962 44.5891 33.9654 41.8287 36.4273C37.688 40.1202 27.5623 42.5296 21.2631 38.0625C17.0636 35.0844 15.4747 28.6957 16.4963 18.8965C14.7627 22.5168 13.297 26.1843 12.0991 29.8988C10.9012 33.6134 10.5514 37.5006 11.0497 41.5605C12.5509 44.5977 16.201 46.6261 22 47.6459C30.6985 49.1755 38.9314 48.4197 44.4557 45.6349C48.1386 43.7784 49.8805 41.9302 49.6816 40.0905C49.8145 37.3738 48.9768 34.7876 47.1683 32.332C45.3599 29.8764 42.5132 26.8723 38.6282 23.3196Z" fill="url(#paint3_linear_30_786)"/>
<path fill-rule="evenodd" clip-rule="evenodd" d="M19.5009 17.0532C19.46 21.5862 20.6255 25.8952 22.9975 29.9805C26.5555 36.1084 30.7086 42.1635 36.9235 47.1826C41.0667 50.5287 44.3773 51.6098 46.8553 50.4258C44.82 54.0684 42.6558 55.8532 40.3629 55.7804C36.9235 55.6713 32.7297 54.1681 26.0101 46.0932C21.5304 40.7099 18.4658 35.6177 16.8164 30.8166C17.078 28.9119 17.3553 27.0147 17.6485 25.1252C17.9417 23.2356 18.5591 20.5449 19.5009 17.0532Z" fill="url(#paint4_linear_30_786)"/>
<path fill-rule="evenodd" clip-rule="evenodd" d="M30.0132 23.2721C30.3934 26.9647 31.8303 32.8716 30.0132 36.8045C28.1961 40.7373 19.8032 47.8421 22.12 54.1008C24.4368 60.3595 30.0828 58.9544 33.6244 56.0701C37.166 53.1858 39.0617 48.4957 39.4819 45.1974C39.9021 41.8991 38.4766 35.5527 38.0129 30.0325C37.7038 26.3523 37.9136 23.197 38.6421 20.5665L37.5568 19.2008L31.1692 17.3096C30.1451 18.8228 29.7598 20.8103 30.0132 23.2721Z" fill="url(#paint5_linear_30_786)"/>
<path fill-rule="evenodd" clip-rule="evenodd" d="M32.2936 4.98291C30.2262 5.85649 28.2674 7.58747 26.4173 10.1758C23.6421 14.0584 22.2286 16.3858 23.2749 24.082C23.9724 29.2128 24.4716 33.933 24.7726 38.2427L33.7192 12.2486C33.3903 10.9241 33.1167 9.72792 32.8985 8.66002C32.6803 7.59212 32.4786 6.36642 32.2936 4.98291Z" fill="url(#paint6_linear_30_786)"/>
<path fill-rule="evenodd" clip-rule="evenodd" d="M33.6964 12.1973C31.4253 13.5229 29.6655 16.2387 28.4169 20.3449C27.1684 24.451 26.0262 30.1912 24.9902 37.5656C26.3719 32.8752 27.2885 29.478 27.7399 27.3739C28.4169 24.2178 28.6482 19.7547 30.446 16.7247C31.6446 14.7047 32.728 13.1955 33.6964 12.1973Z" fill="#330A4C" fill-opacity="0.316321"/>
<path fill-rule="evenodd" clip-rule="evenodd" d="M23.1836 56.1914C26.9211 56.7254 28.8754 57.2001 29.0467 57.6155C29.3035 58.2387 28.5735 58.8088 26.4989 58.4257C25.1158 58.1703 24.0107 57.4256 23.1836 56.1914Z" fill="white"/>
<path fill-rule="evenodd" clip-rule="evenodd" d="M25.0592 4.98291C23.0035 7.43877 21.2221 10.0424 19.7152 12.7937C18.2083 15.5451 17.1316 17.5976 16.485 18.9515C16.2846 19.9613 16.1868 21.4512 16.1916 23.4213C16.1964 25.3914 16.3668 27.582 16.7028 29.993C16.997 25.2718 17.8976 20.6891 19.4047 16.2449C20.9118 11.8006 22.7966 8.04665 25.0592 4.98291Z" fill="#EDEDED" fill-opacity="0.603261"/>
</g>
<defs>
<linearGradient id="paint0_linear_30_786" x1="31.0669" y1="4.57362" x2="28.9855" y2="59.9551" gradientUnits="userSpaceOnUse">
<stop stop-color="#D9D8DC"/>
<stop offset="1" stop-color="white" stop-opacity="0.385275"/>
</linearGradient>
<linearGradient id="paint1_linear_30_786" x1="32.0092" y1="4.55928" x2="10.2566" y2="52.2347" gradientUnits="userSpaceOnUse">
<stop stop-color="#8D67AF" stop-opacity="0.671932"/>
<stop offset="1" stop-color="#9F8DAF"/>
</linearGradient>
<linearGradient id="paint2_linear_30_786" x1="34.4351" y1="20.0061" x2="34.4351" y2="58.3447" gradientUnits="userSpaceOnUse">
<stop stop-color="#26053D" stop-opacity="0.761634"/>
<stop offset="1" stop-color="#B7B4B4" stop-opacity="0.277683"/>
</linearGradient>
<linearGradient id="paint3_linear_30_786" x1="14.7684" y1="22.5989" x2="24.5286" y2="48.4531" gradientUnits="userSpaceOnUse">
<stop stop-color="#91739F" stop-opacity="0.45955"/>
<stop offset="1" stop-color="#32054F" stop-opacity="0.539912"/>
</linearGradient>
<linearGradient id="paint4_linear_30_786" x1="40.8543" y1="54.3923" x2="14.0147" y2="32.153" gradientUnits="userSpaceOnUse">
<stop stop-color="#463D49" stop-opacity="0.331182"/>
<stop offset="1" stop-color="#340A50" stop-opacity="0.821388"/>
</linearGradient>
<linearGradient id="paint5_linear_30_786" x1="35.3388" y1="20.3666" x2="16.4091" y2="49.1637" gradientUnits="userSpaceOnUse">
<stop stop-color="#715383" stop-opacity="0.145239"/>
<stop offset="1" stop-color="#F4F4F4" stop-opacity="0.233639"/>
</linearGradient>
<linearGradient id="paint6_linear_30_786" x1="37.1494" y1="29.1512" x2="23.7438" y2="28.3328" gradientUnits="userSpaceOnUse">
<stop stop-color="#A5A1A8" stop-opacity="0.356091"/>
<stop offset="1" stop-color="#370C50" stop-opacity="0.581975"/>
</linearGradient>
<clipPath id="clip0_30_786">
<rect width="60" height="60" fill="white"/>
</clipPath>
</defs>
</svg>
