<svg width="60" height="60" viewBox="0 0 60 60" fill="none" xmlns="http://www.w3.org/2000/svg">
<g clip-path="url(#clip0_580_919)">
<path d="M13.5469 45.3867C13.5938 45.2695 13.6406 45.1523 13.6875 45.0352L13.7109 44.9883C13.8281 44.707 13.9453 44.4023 14.0625 44.1211C14.2031 43.7461 14.3437 43.3477 14.4844 42.9727C14.5781 42.7617 14.6484 42.5508 14.7188 42.3164C14.9063 41.8008 15.1641 41.1211 15.4687 40.4648C15.6562 40.0664 15.7969 39.7852 15.9609 39.5273C16.1484 39.2227 16.3359 38.9414 16.5469 38.6602L16.7109 38.4258L16.9687 38.2617C16.9922 38.2383 17.0391 38.2148 17.0859 38.1914C17.2031 38.1211 17.3437 38.0742 17.4375 38.0273C17.6016 37.957 17.8125 37.8867 18.0469 37.8164C18.375 37.7227 18.75 37.6289 19.1953 37.5352C19.8516 37.3945 20.5547 37.2539 21.4453 37.1133C22.7812 36.9023 24.2109 36.7148 25.9219 36.5273C28.9453 36.1992 31.9687 35.9648 34.875 35.8242C36.4219 35.7539 37.5937 35.7305 38.6953 35.7305C38.9297 35.7305 39.1641 35.7305 39.3984 35.7305C40.125 35.7539 40.9687 35.7773 41.7422 35.8945C42.0234 35.9414 42.2813 35.9883 42.4688 36.0586C42.5391 36.082 42.6094 36.1055 42.6328 36.1289L42.8672 36.2227L43.0547 36.3867C43.125 36.457 43.1953 36.5273 43.2656 36.5977C43.5234 36.8555 43.8047 37.1602 44.0859 37.5117C44.9766 38.6367 45.7734 39.9961 46.4766 41.543C47.1563 43.043 47.5781 44.3789 47.8359 45.6914L48.1875 47.543H43.875L43.6172 46.3008C43.3359 44.9883 39.7969 41.5195 38.0391 40.8398C37.8516 40.7695 37.1016 40.5586 34.7812 40.5586C30 40.5586 23.25 41.4023 22.2891 41.6133C21.1406 42.1523 19.3828 44.4023 18.375 46.6523L17.9531 47.5664" fill="white"/>
<path d="M42.8437 38.543C42.6328 38.2617 42.3984 38.0039 42.1406 37.7695C42.0937 37.7227 42.0234 37.6523 41.9766 37.6055C41.9766 37.6055 41.9531 37.6055 41.9297 37.582C41.8125 37.5351 41.6484 37.5117 41.4844 37.4883C40.8047 37.3945 40.0781 37.3711 39.3516 37.3476C37.875 37.3242 36.3984 37.3711 34.9219 37.4414C31.9688 37.582 28.9922 37.8164 26.0625 38.1445C24.5859 38.3086 23.1094 38.4961 21.6562 38.7305C20.9297 38.8476 20.2031 38.9648 19.5 39.1289C19.1484 39.1992 18.7969 39.293 18.4688 39.3867C18.3047 39.4336 18.1406 39.4805 18 39.5508C17.9297 39.5742 17.8594 39.5977 17.8359 39.6445C17.8359 39.6445 17.8125 39.6445 17.8125 39.668C17.6484 39.9023 17.4844 40.1367 17.3203 40.3945C17.1563 40.6523 17.0391 40.9336 16.8984 41.2148C16.6406 41.7773 16.4062 42.3633 16.1953 42.9492C15.9844 43.5351 15.75 44.1445 15.5391 44.7539C15.4219 45.0586 15.3047 45.3633 15.1641 45.668C15.1172 45.8086 15.0469 45.9492 14.9766 46.0898H16.9688C18.0469 43.6758 20.0859 40.9102 21.7734 40.2305C22.2422 40.043 29.7891 39.1055 34.7812 39.1055C36.6328 39.1055 37.8984 39.2461 38.6016 39.5039C40.6406 40.3008 44.7187 44.0742 45.1406 46.1133H46.2891C46.0547 44.8242 45.5859 43.5586 45.0469 42.3398C44.4375 40.9336 43.7109 39.6445 42.8437 38.543Z" fill="#BA8449"/>
<path d="M45 47.5664L44.7656 46.3008C44.5547 45.2461 44.2031 44.1211 43.6406 42.8789C43.0312 41.5664 42.375 40.418 41.625 39.5039C41.4844 39.3164 41.3437 39.1523 41.2031 39.0117C40.6172 38.918 39.9375 38.918 39.3281 38.8945C39.1172 38.8945 38.9062 38.8945 38.6719 38.8945C37.6172 38.8945 36.4922 38.918 34.9922 38.9883C32.1328 39.1289 29.2031 39.3633 26.2265 39.6914C24.5625 39.8789 23.1797 40.0664 21.914 40.2539C21.0937 40.3711 20.4375 40.5117 19.8515 40.6289C19.4765 40.7227 19.1953 40.793 18.9375 40.8633C18.8906 40.8633 18.8672 40.8867 18.8437 40.8867C18.7969 40.9805 18.7265 41.0508 18.6797 41.1445C18.5625 41.332 18.4687 41.543 18.3047 41.8242C18.0469 42.3633 17.8359 42.9258 17.6484 43.418C17.5547 43.6289 17.4844 43.8398 17.414 44.0508C17.2734 44.4492 17.1328 44.8477 16.9687 45.2461C16.8515 45.5508 16.7109 45.8555 16.5937 46.1836L16.5703 46.2305C16.5234 46.3711 16.4531 46.5117 16.4062 46.6289L15.9844 47.5664H13.2422L12.8437 47.3789L12.7969 47.3555C11.8594 46.8164 11.8594 46.0195 11.8828 45.6914V45.6211L11.9297 45.4102L12 45.1523C12.0469 44.9883 12.0937 44.8008 12.1406 44.6367C12.2344 44.2852 12.3515 43.957 12.4687 43.6289C12.6797 43.0195 12.9375 42.3633 13.2422 41.6602C13.5703 40.9336 13.875 40.3008 14.2265 39.7148C14.3906 39.4102 14.5781 39.1055 14.8125 38.7539C15.0234 38.4258 15.2578 38.0977 15.4922 37.793C15.7031 37.5352 15.8906 37.3711 16.0312 37.2773H16.0547C16.1953 37.1602 16.3359 37.0898 16.4062 37.0664C16.6172 36.9492 16.7812 36.8789 16.8984 36.832C17.1797 36.7148 17.4375 36.6445 17.6484 36.5742C18.1172 36.4336 18.5625 36.3398 18.8906 36.2695C19.5703 36.1289 20.2969 35.9883 21.2109 35.8477C22.5703 35.6367 24 35.4727 25.7578 35.2852C28.8047 34.9805 31.8515 34.7461 34.8047 34.6289C36.2109 34.582 37.3125 34.5352 38.3203 34.5352C38.6953 34.5352 39.0469 34.5352 39.3984 34.5352C40.1484 34.5586 40.9922 34.582 41.9062 34.7227H41.9297C42.1406 34.7695 42.4687 34.8164 42.8437 34.9336H42.8672C42.9609 34.9805 43.1015 35.0273 43.2656 35.0977C43.3828 35.168 43.4765 35.2148 43.5469 35.2617L43.664 35.3555L43.7578 35.4258L43.8515 35.5195C43.9453 35.6133 44.0156 35.6836 44.1094 35.7773C44.414 36.082 44.6953 36.4102 45 36.8086C45.9375 38.0273 46.7578 39.4336 47.5078 41.0977C47.8594 41.8711 48.164 42.6445 48.3984 43.3945C48.6562 44.2148 48.8437 44.9883 48.9844 45.7383L49.2656 47.543H45V47.5664Z" fill="white"/>
<path d="M15.0469 47.5664L16.0781 45.3398C16.9453 43.4883 19.0312 40.0898 21.3516 39.1289L21.3984 39.1055C22.1719 38.8242 30 37.9102 34.7812 37.9102C37.4531 37.9102 38.4609 38.168 38.9766 38.3789C41.3906 39.3164 45.5859 43.2773 46.1484 45.6211L46.6172 47.543H15.0469V47.5664Z" fill="white"/>
<path d="M43.4297 47.5664L43.1484 46.3711C42.8906 45.2695 39.5859 41.9648 37.875 41.2852C37.7109 41.2148 37.0312 41.0273 34.7812 41.0273C30.1875 41.0273 23.5313 41.8477 22.4531 42.0586C21.5625 42.5039 19.9453 44.4023 18.8906 46.6523L18.4688 47.543H14.5781L15.5625 45.3633C16.7109 42.7852 18.9844 39.5977 21.2109 38.707C22.0781 38.3555 30 37.4648 34.8047 37.4648C36.8906 37.4648 38.2969 37.6289 39.1641 37.957C41.5781 38.8945 46.1016 42.9727 46.6641 45.6914L47.0391 47.5664H43.4297Z" fill="white"/>
<path d="M45.2344 47.5664L44.7891 47.1445C43.1016 45.5742 42.6329 42.3164 43.1485 40.9805C43.5001 40.0898 44.2501 39.7852 44.8126 39.7852C44.9766 39.7852 45.1172 39.8086 45.2579 39.8555C45.5626 39.832 46.2657 39.2461 46.4766 38.918C46.8047 38.3086 47.4376 37.9336 48.211 37.9336C49.3594 37.9336 51.2344 38.8477 51.8438 39.7148C52.1954 40.207 52.2891 40.793 52.1016 41.3086C52.0782 41.3555 52.0547 41.4492 52.0079 41.5664C51.3751 43.4648 50.5547 45.7852 49.8985 46.8633L49.4532 47.5898L45.2344 47.5664Z" fill="white"/>
<path d="M45.0938 47.5664L46.5469 45.1992C47.25 44.0508 47.7422 43.1133 48.0703 42.3867C47.25 42.9727 46.1016 43.3242 44.3906 43.418L44.3438 43.3711L44.3203 43.5352C43.3125 43.5352 42.4922 42.7148 42.4453 41.707C42.4219 41.2148 42.6094 40.7227 42.9375 40.3477C43.2656 39.9727 43.7344 39.7617 44.2266 39.7383C45.9141 39.668 46.125 39.2695 46.4297 38.6836C46.8516 37.8867 47.7656 37.418 48.961 37.418C49.2656 37.418 49.5703 37.4414 49.8516 37.5117C51.3281 37.8398 52.2891 38.9648 52.3594 40.418C52.4297 41.8945 51.6094 44.0508 49.9688 46.8164L49.5234 47.5664H45.0938Z" fill="white"/>
<path d="M51.2578 42.9492C49.3594 42.9492 47.2969 41.707 46.2422 40.4883C45.2813 39.3867 45.1875 38.4023 45.2813 37.7695C45.3985 36.9961 46.0313 36.2227 47.1797 36.2227C47.3907 36.2227 47.6016 36.2461 47.7891 36.2695C47.9766 35.4258 48.4219 33.668 50.2266 33.668C50.3203 33.668 50.3907 33.668 50.4844 33.668C51.3516 33.7617 52.0079 34.3008 52.2657 35.1211C52.5469 34.9805 52.875 34.8633 53.25 34.8633C53.8125 34.8633 54.3516 35.0977 54.75 35.5195C55.3828 36.1992 55.5235 37.1367 55.125 38.0273C55.5469 38.2852 55.875 38.6836 56.0157 39.1992C56.2032 39.8555 56.086 40.5586 55.6641 41.1211C54.8438 42.2695 52.9454 42.8086 51.4454 42.8555C51.3516 42.9492 51.3047 42.9492 51.2578 42.9492Z" fill="white"/>
<path d="M49.3828 4.34766C47.6719 5.42578 45.7969 7.88672 43.5 11.2617C43.1485 11.8008 42.5625 12.082 41.9063 12.082C41.0625 12.082 39.9844 11.5664 38.7422 10.5586C36.7735 8.96484 36.7266 8.07422 36.7031 7.72266C36.6563 6.78516 37.3594 5.98828 38.3438 5.89453C40.2422 5.73047 41.8125 4.58203 43.336 3.48047C44.8594 2.37891 46.2656 1.37109 47.9531 1.37109C48.2813 1.37109 48.6328 1.41797 48.961 1.48828" fill="white"/>
<path d="M38.4844 7.46486C43.0782 7.04298 45.7735 2.28517 48.5625 3.01173C46.6875 4.18361 44.836 6.52736 42.2344 10.3711C41.6016 11.2852 37.2188 7.58205 38.4844 7.46486Z" fill="#FFF8EE"/>
<path d="M8.71875 5.28516C9.86719 4.23047 11.4141 3.69141 13.3125 3.69141C14.9531 3.69141 16.8984 4.08984 19.0781 4.88672C19.6641 5.09766 20.4375 5.14453 21.0234 5.14453C21.1875 5.14453 21.3516 5.14453 21.4922 5.14453C21.6328 5.14453 21.7734 5.14453 21.8906 5.14453C22.4297 5.14453 23.5781 5.14453 24.0703 6.19922C24.2344 6.59766 24.4453 7.41797 23.8125 8.37891C23.0391 9.57422 21 10.8398 19.0313 10.8398C19.0078 10.8398 18.9609 10.8398 18.9375 10.8398C17.8828 10.8164 16.8984 10.2539 15.75 9.62109C14.3203 8.82422 12.7031 7.91016 10.7812 7.91016C10.5234 7.91016 10.2422 7.93359 9.98438 7.95703" fill="white"/>
<path d="M44.0625 16.6523C43.2188 16.6523 41.625 16.3008 40.6172 13.9102C40.0547 12.6445 39.8672 11.2148 39.8672 10.418C39.8672 8.77734 40.7344 8.33203 41.2734 8.21484C41.6484 7.83984 42.3516 6.87891 42.8672 6.15234C45 3.24609 46.5469 1.34766 48.3516 1.34766C48.6562 1.34766 48.9375 1.39453 49.2188 1.51172C51.6328 2.47266 52.8047 4.51172 52.4062 7.08984C52.125 8.98828 50.9297 11.2383 49.1719 13.3008C48.3516 14.2617 46.2188 16.5117 44.3203 16.6523C44.2266 16.6523 44.1563 16.6523 44.0625 16.6523Z" fill="white"/>
<path d="M16.3594 17.543C16.1484 17.543 15.9375 17.543 15.75 17.4961C12.75 17.0039 8.99998 13.9805 7.59373 10.8633C6.63279 8.73047 7.05466 7.27734 7.59373 6.43359C8.46091 5.05078 9.74998 4.32422 11.3437 4.32422C13.2656 4.32422 15.1875 5.37891 16.875 6.29297C17.5312 6.64453 18.4687 7.16016 18.8672 7.25391C19.0078 7.20703 19.1484 7.18359 19.3125 7.18359C19.9219 7.18359 20.4844 7.51172 20.8125 8.07422C21.5859 9.43359 21.1172 13.0898 19.8984 15.1992C19.0547 16.7461 17.789 17.543 16.3594 17.543Z" fill="white"/>
<path d="M26.8125 43.6992C19.7812 43.6992 12.8203 40.2539 10.5 37.7461C8.08593 35.1445 7.21874 32.1914 7.87499 28.957C8.43749 26.3086 9.91406 23.9414 11.2031 21.832C12.0937 20.3789 12.9375 19.0195 13.1719 18.0352C16.0312 5.40234 23.2031 3.78516 29.1328 3.78516C29.5078 3.78516 29.9062 3.78516 30.3516 3.80859C42.9844 4.18359 44.25 10.2773 45 13.9336C45.1406 14.6133 45.2812 15.2461 45.4453 15.668C49.6875 26.0742 50.3906 32.3086 47.7891 36.5273C45.2344 40.6758 39.6328 42.7148 28.4766 43.6289C27.9375 43.6758 27.375 43.6992 26.8125 43.6992Z" fill="white"/>
<path d="M26.5547 43.7227C19.3828 43.7227 12.75 40.1602 10.5234 37.7461C8.10937 35.1445 7.24218 32.1914 7.89843 28.957C8.46093 26.3086 9.93749 23.9414 11.2266 21.832C12.1172 20.3789 12.9609 19.0195 13.1953 18.0352C16.0547 5.40234 23.2266 3.78516 29.1562 3.78516C29.5312 3.78516 29.9297 3.78516 30.375 3.80859C43.0078 4.18359 44.2734 10.2773 45.0234 13.9336C45.1641 14.6133 45.3047 15.2461 45.4687 15.668C49.6406 25.9102 50.3203 32.0977 47.7656 36.3164C44.8359 41.168 37.9453 42.7383 28.5234 43.6289C27.8672 43.6992 27.2109 43.7227 26.5547 43.7227Z" fill="white"/>
<path d="M44.8125 34.9102C44.9063 34.6992 45 34.4648 45.0938 34.2539C46.0547 31.957 46.7813 29.9414 45.6328 28.6523C44.2735 27.1523 38.5313 24.4336 33.4219 22.043C23.6485 17.4258 17.6016 14.4492 16.7344 11.4961C16.5235 10.7461 16.6172 9.97266 17.0157 9.31641C18.7032 6.66797 23.4141 3.83203 29.8594 3.83203C29.9297 3.83203 29.9766 3.83203 30.0469 3.83203C36.1172 3.87891 40.5235 5.63672 43.1719 9.01172C45.4219 11.8711 45.9141 15.2227 46.2891 17.6602C46.4063 18.4805 46.5703 19.5352 46.7344 19.8164C51.3282 27.7148 49.2188 33.5508 47.5547 36.293L44.8125 34.9102Z" fill="white"/>
<path d="M40.0078 25.8164C37.6406 25.8164 33.6797 25.2305 32.3203 23.918C31.2422 22.8867 30.8437 21.1758 30.4219 19.5117C30.2578 18.8086 29.9766 17.6836 29.7188 17.168H29.6953C29.6016 17.4258 29.4844 17.7539 29.3906 18.0117C28.7578 19.793 27.8672 22.2539 26.0156 23.5898C25.2187 24.1758 22.3359 24.6914 20.1094 24.6914C17.8828 24.6914 16.1953 24.2227 15.0703 23.2617C13.4531 21.9023 12.2344 19.3945 11.4141 15.8086C11.3672 15.7852 11.3437 15.7617 11.2969 15.7383C10.9219 15.4805 10.4297 15.1758 10.1719 14.6367C9.75 13.793 9.91406 12.293 10.3594 11.4961C10.6875 10.9102 11.25 10.5352 11.8594 10.4883C11.9297 10.4883 11.9766 10.4883 12.0703 10.4883C12.3984 10.4883 12.7266 10.5352 13.1016 10.6055C13.4766 10.6758 13.9219 10.7461 14.2969 10.7461C14.3906 10.7461 14.4609 10.7461 14.5078 10.7461C16.7344 10.418 18.8203 10.2773 20.7187 10.2773C25.3359 10.2773 27.7734 11.2148 28.6875 11.5898C28.7578 11.6133 28.8281 11.6367 28.875 11.6602C29.1328 11.7305 29.625 11.8242 30.1406 11.8242C30.3281 11.8242 30.5156 11.8242 30.6797 11.7773C32.7656 11.4492 34.7578 11.3086 36.5859 11.3086C41.4609 11.3086 44.0391 12.4102 45.1641 12.9023C45.2578 12.9492 45.3516 12.9961 45.4219 12.9961C45.4219 12.9961 45.4688 12.9961 45.5156 12.9961C45.8203 12.9961 46.2656 12.9023 46.6406 12.832C46.9219 12.7617 47.2031 12.7148 47.4609 12.668C47.5313 12.668 47.6016 12.668 47.6719 12.668C48.3984 12.668 49.0547 13.0898 49.4531 13.793C49.8984 14.6133 50.2031 16.3242 49.5703 17.3086C49.1484 17.9648 48.4687 18.2695 47.9062 18.5273C47.8359 18.5508 47.7422 18.5977 47.6719 18.6445C47.4844 18.9727 47.1563 19.6289 46.875 20.168C46.0547 21.7617 45.1406 23.5898 44.2969 24.5742C43.5469 25.418 42.1406 25.8164 40.0078 25.8164Z" fill="white"/>
<mask id="mask0_580_919" style="mask-type:luminance" maskUnits="userSpaceOnUse" x="9" y="11" width="41" height="15">
<path d="M49.6641 11.5664H9.9375V25.4414H49.6641V11.5664Z" fill="white"/>
</mask>
<g mask="url(#mask0_580_919)">
<g opacity="0.3">
<path d="M39.065 25.437C37.19 25.437 34.5416 25.1558 32.6431 23.8198C31.565 23.0464 31.0728 21.4995 30.3931 19.0151C30.2056 18.312 29.9244 17.3276 29.7135 16.8355C29.5963 17.1167 29.4556 17.4917 29.3385 17.7964C28.6353 19.6948 27.6744 22.273 25.9166 23.3511C25.0025 23.9136 22.1666 24.4292 19.9635 24.4292C17.5963 24.4292 15.8853 23.8901 14.901 22.8589C12.3932 20.2339 11.901 17.7261 11.5963 16.2495C11.5494 16.0386 11.5025 15.7573 11.4556 15.5933C9.97909 14.8198 9.88534 13.6714 9.90877 13.1792C9.97909 12.2651 10.6822 11.5854 11.5494 11.5854C12.1353 11.5854 12.5103 11.8667 12.7916 12.0542C12.815 12.0776 12.8385 12.1011 12.8853 12.1011C12.9088 12.1011 12.9791 12.1245 13.0025 12.148C13.3775 12.2651 14.4791 12.5698 14.7135 13.9995C14.7603 14.2573 15.1353 15.7573 15.7447 17.3276C16.7056 19.8354 17.3853 20.2573 17.4557 20.2808C18.2525 20.562 19.19 20.7026 20.2447 20.7026C21.9791 20.7026 23.4322 20.3276 24.0182 20.1401C24.3697 19.6011 25.0728 18.1948 25.565 17.2339C27.0416 14.3042 27.2994 13.8589 27.9322 13.5308C28.2838 13.3433 28.7056 13.2495 29.2447 13.2495C29.9478 13.2495 30.9557 13.4136 31.4244 13.6245C32.5025 14.0933 33.065 15.4995 34.3307 19.1323C34.565 19.7886 34.8463 20.6323 35.0338 21.0542C35.9713 21.4995 38.1041 21.8042 40.3307 21.8042C40.9635 21.8042 41.4322 21.7808 41.7369 21.7573C41.9478 21.312 42.2525 20.6792 42.5103 20.1401C44.2916 16.3433 44.5728 15.898 45.0181 15.5464C45.7916 14.9605 47.151 14.562 47.9244 14.562C48.9557 14.562 49.5182 15.2417 49.6588 15.898C49.9166 17.2573 48.5807 17.773 48.1353 17.937C48.0182 17.9839 47.8541 18.0542 47.7369 18.1011C47.5728 18.3823 47.2682 18.9917 47.0338 19.4839C45.1119 23.2339 44.4791 24.2651 43.7525 24.7105C42.8619 25.2026 40.7056 25.437 39.065 25.437Z" fill="white"/>
</g>
</g>
<mask id="mask1_580_919" style="mask-type:luminance" maskUnits="userSpaceOnUse" x="10" y="10" width="9" height="5">
<path d="M18.3516 10.5586H10.5234V14.3555H18.3516V10.5586Z" fill="white"/>
</mask>
<g mask="url(#mask1_580_919)">
<g opacity="0.3">
<path d="M14.3644 14.3358C14.0831 14.3358 13.5441 14.2889 12.4659 13.9374C12.1847 13.8436 11.9269 13.7499 11.7628 13.6796C11.4113 13.5389 10.4972 13.1874 10.4972 12.1093V10.5389H12.0441C12.255 10.5389 12.3956 10.5858 12.5128 10.6093C12.8409 10.6561 13.8956 10.7264 14.2472 10.7499L14.4581 10.7733C14.7394 10.7733 15.6066 10.6561 15.9816 10.6093C16.4503 10.5389 16.5909 10.5155 16.7784 10.5155H18.1144L18.3253 11.828C18.4191 12.4843 18.0675 13.3046 17.2003 13.5624C17.1534 13.5858 16.9894 13.6327 16.8488 13.6796C16.0284 13.9843 15.2081 14.2655 14.505 14.2889C14.4581 14.3358 14.4113 14.3358 14.3644 14.3358Z" fill="white"/>
</g>
</g>
<mask id="mask2_580_919" style="mask-type:luminance" maskUnits="userSpaceOnUse" x="42" y="12" width="7" height="5">
<path d="M48.3516 12.5742H42.3984V16.6055H48.3516V12.5742Z" fill="white"/>
</mask>
<g mask="url(#mask2_580_919)">
<g opacity="0.3">
<path d="M45.3253 16.5845C44.8097 16.5845 44.2941 16.3735 43.5909 15.8813C42.9112 15.4126 42.3956 14.9438 42.3956 14.1235V12.5532H43.9191C44.13 12.5532 44.3409 12.6001 44.5519 12.6938C44.7159 12.7642 45.3488 12.9751 45.63 13.0454C45.7238 13.0454 45.9112 12.9985 46.2862 12.9282C46.4737 12.8813 46.5909 12.8813 46.755 12.8813H48.0909L48.3019 14.1938C48.3956 14.8267 48.1144 15.6235 47.2472 15.9282C47.2003 15.9517 47.0597 16.022 46.9659 16.0688C46.5441 16.2798 46.0519 16.5142 45.5597 16.6079C45.5128 16.5845 45.4191 16.5845 45.3253 16.5845Z" fill="white"/>
</g>
</g>
<path d="M40.2187 51.0117H34.4531V46.0195H40.2187V51.0117Z" fill="white"/>
<path d="M42.8437 38.543C42.6328 38.2617 42.3984 38.0039 42.1406 37.7695C42.0937 37.7227 42.0234 37.6523 41.9766 37.6055C41.9766 37.6055 41.9531 37.6055 41.9297 37.582C41.8125 37.5351 41.6484 37.5117 41.4844 37.4883C40.8047 37.3945 40.0781 37.3711 39.3516 37.3476C37.875 37.3242 36.3984 37.3711 34.9219 37.4414C31.9688 37.582 28.9922 37.8164 26.0625 38.1445C24.5859 38.3086 23.1094 38.4961 21.6562 38.7305C20.9297 38.8476 20.2031 38.9648 19.5 39.1289C19.1484 39.1992 18.7969 39.293 18.4688 39.3867C18.3047 39.4336 18.1406 39.4805 18 39.5508C17.9297 39.5742 17.8594 39.5977 17.8359 39.6445C17.8359 39.6445 17.8125 39.6445 17.8125 39.668C17.6484 39.9023 17.4844 40.1367 17.3203 40.3945C17.1563 40.6523 17.0391 40.9336 16.8984 41.2148C16.6406 41.7773 16.4062 42.3633 16.1953 42.9492C15.9844 43.5351 15.75 44.1445 15.5391 44.7539C15.4219 45.0586 15.3047 45.3633 15.1641 45.668C15.1172 45.8086 15.0469 45.9492 14.9766 46.0898H16.9688C18.0469 43.6758 20.0859 40.9102 21.7734 40.2305C22.2422 40.043 29.7891 39.1055 34.7812 39.1055C36.6328 39.1055 37.8984 39.2461 38.6016 39.5039C40.6406 40.3008 44.7187 44.0742 45.1406 46.1133H46.2891C46.0547 44.8242 45.5859 43.5586 45.0469 42.3398C44.4375 40.9336 43.7109 39.6445 42.8437 38.543Z" fill="#BA8449"/>
<path d="M46.125 41.7539C45.4922 40.3477 44.7656 39.0117 43.8047 37.793C43.5703 37.4883 43.3125 37.1836 43.0313 36.9023C42.9609 36.832 42.8906 36.7617 42.8203 36.6914L42.7734 36.6445L42.75 36.6211L42.7031 36.5742C42.6563 36.5508 42.6094 36.5273 42.5859 36.5039C42.5156 36.457 42.4453 36.4336 42.375 36.4102C42.1172 36.3164 41.9297 36.293 41.7188 36.2461C40.9219 36.1289 40.1719 36.1055 39.4219 36.082C37.8984 36.0586 36.4219 36.082 34.9219 36.1523C31.9219 36.2695 28.9453 36.5039 25.9688 36.8086C24.4922 36.9727 22.9922 37.1367 21.4922 37.3711C20.7422 37.4883 20.0156 37.6055 19.2656 37.7695C18.8906 37.8633 18.5156 37.9336 18.1406 38.0508C17.9531 38.0977 17.7656 38.168 17.5547 38.2617C17.4609 38.3086 17.3437 38.3555 17.2266 38.4258C17.1797 38.4727 17.1094 38.4961 17.0391 38.543C16.9688 38.5898 16.8984 38.6602 16.8047 38.7773C16.5938 39.0352 16.3828 39.3398 16.1953 39.6211C16.0078 39.9023 15.8203 40.207 15.6563 40.5117C15.3281 41.0977 15.0234 41.707 14.7422 42.3164C14.4844 42.9258 14.2266 43.5352 14.0156 44.168C13.8984 44.4727 13.8047 44.7773 13.7344 45.1055C13.6875 45.2695 13.6406 45.4102 13.5937 45.5742L13.5234 45.8086L13.5 45.9258C13.5 45.9492 13.5469 45.9727 13.6406 46.043H13.6641H15.0234C15.0937 45.9023 15.1406 45.7617 15.2109 45.6211C15.3281 45.3164 15.4687 45.0117 15.5859 44.7305C15.8203 44.1211 16.0313 43.5352 16.2422 42.9258C16.4531 42.3398 16.6875 41.7305 16.9453 41.1914C17.0859 40.9102 17.2266 40.6523 17.3672 40.3711C17.5312 40.1133 17.6719 39.8789 17.8594 39.6445C17.8594 39.6445 17.8828 39.6445 17.8828 39.6211C17.9297 39.5977 18 39.5742 18.0469 39.5273C18.1875 39.4805 18.3516 39.4102 18.5156 39.3633C18.8437 39.2695 19.1953 39.1758 19.5469 39.1055C20.25 38.9414 20.9766 38.8242 21.7031 38.707C23.1562 38.4727 24.6328 38.2852 26.1094 38.1211C29.0625 37.793 32.0156 37.5586 34.9688 37.418C36.4453 37.3477 37.9219 37.3008 39.3984 37.3242C40.125 37.3477 40.875 37.3711 41.5313 37.4648C41.6953 37.4883 41.8594 37.5352 41.9766 37.5586C42 37.5586 42.0234 37.5586 42.0234 37.582C42.0703 37.6289 42.1406 37.6992 42.1875 37.7461C42.4453 38.0039 42.6563 38.2617 42.8906 38.5195C43.7578 39.6211 44.4844 40.9102 45.0938 42.2227C45.6328 43.4414 46.1016 44.707 46.3359 45.9961H47.5078C47.3906 45.2695 47.2031 44.5664 46.9922 43.8867C46.7109 43.1602 46.4297 42.457 46.125 41.7539Z" fill="#895B2E"/>
<path d="M38.4375 39.8555C37.8281 39.6211 36.5859 39.4805 34.8047 39.4805C29.7891 39.4805 22.3828 40.418 21.9844 40.582C20.4609 41.1914 18.5625 43.7695 17.5078 46.0195H44.6719C44.2266 44.2617 40.4531 40.6523 38.4375 39.8555Z" fill="#FFF8EE"/>
<path d="M38.6016 39.4102C37.9219 39.1523 36.6328 39.0117 34.7812 39.0117C29.7891 39.0117 22.2422 39.9492 21.7734 40.1367C20.0625 40.8398 18.0469 43.582 16.9688 45.9961H17.4844C18.5391 43.7695 20.4375 41.1914 21.9609 40.5586C22.3594 40.3945 29.7656 39.457 34.7812 39.457C36.5625 39.457 37.8047 39.5742 38.4141 39.832C40.4297 40.6055 44.2031 44.2383 44.6484 45.9961H45.1172C44.7188 43.9805 40.6406 40.207 38.6016 39.4102Z" fill="#E5D0AE"/>
<path d="M47.8828 39.6211C47.6016 40.207 46.125 41.707 44.8829 41.3554C44.2266 41.1679 44.3438 44.6367 45.8438 46.0195H48.5625C49.3125 44.8242 50.4844 41.1679 50.625 40.7929C50.7891 40.3476 48.1641 39.0351 47.8828 39.6211Z" fill="#BA8449"/>
<path d="M50.7656 40.4883C50.7187 39.7383 50.2734 39.1992 49.4766 39.0117C48.8437 38.8711 48 38.9883 47.7891 39.3867C47.3672 40.1836 46.8516 41.1445 44.2969 41.2851C44.1328 41.2851 43.9922 41.4492 43.9922 41.6133C43.9922 41.7773 44.1562 41.918 44.3203 41.918C46.9922 41.8008 47.7656 40.7695 48.3281 39.7148C48.4453 39.6211 49.0781 39.5039 49.5937 39.7148C49.9687 39.8789 50.1328 40.1367 50.1563 40.5352C50.2266 41.9883 48.7031 44.6836 47.8828 46.043H48.6094C49.5234 44.4492 50.8359 41.9883 50.7656 40.4883Z" fill="#895B2E"/>
<mask id="mask3_580_919" style="mask-type:luminance" maskUnits="userSpaceOnUse" x="45" y="40" width="6" height="7">
<path d="M50.8359 40.043H45.3281V46.4414H50.8359V40.043Z" fill="white"/>
</mask>
<g mask="url(#mask3_580_919)">
<g opacity="0.15">
<path d="M45.5004 46.0899C47.1645 45.6914 48.6411 44.0274 48.7582 41.6602C48.7817 41.2149 47.8676 40.3711 47.8676 40.1367C47.8676 39.9024 50.6567 40.1836 50.7973 40.8399C50.9145 41.4961 49.0629 45.4571 48.4301 46.1133C47.8207 46.7461 44.5161 46.3242 45.5004 46.0899Z" fill="#E3AB5E"/>
</g>
</g>
<path d="M46.8047 38.0039C46.5938 39.4571 49.4297 41.4492 51.3516 41.4024C52.9453 41.3555 54.75 40.6055 54.4922 39.7149C54.2344 38.8008 52.6875 39.8789 52.5469 39.2461C52.4297 38.6367 54.3516 37.4883 53.5781 36.6446C52.8516 35.8711 52.0078 37.8633 51.1641 37.5821C50.3203 37.3008 51.3281 35.3555 50.2735 35.2383C49.0313 35.1211 49.5 37.8867 48.5625 37.9336C47.9063 38.0039 46.875 37.5352 46.8047 38.0039Z" fill="#FCD4C3"/>
<path d="M46.8047 38.0039C46.5938 39.4571 49.4297 41.4492 51.3516 41.4024C52.9453 41.3555 54.75 40.6055 54.4922 39.7149C54.2344 38.8008 52.6875 39.8789 52.5469 39.2461C52.4297 38.6367 54.3516 37.4883 53.5781 36.6446C52.8516 35.8711 52.0078 37.8633 51.1641 37.5821C50.3203 37.3008 51.3281 35.3555 50.2735 35.2383C49.0313 35.1211 49.5 37.8867 48.5625 37.9336C47.9063 38.0039 46.875 37.5352 46.8047 38.0039Z" stroke="#F8A38F" stroke-width="6.25" stroke-miterlimit="10"/>
<mask id="mask4_580_919" style="mask-type:luminance" maskUnits="userSpaceOnUse" x="47" y="36" width="3" height="3">
<path d="M49.4297 36.832H47.6016V38.332H49.4297V36.832Z" fill="white"/>
</mask>
<g mask="url(#mask4_580_919)">
<g opacity="0.5">
<path d="M47.6106 37.9903C47.9153 38.2247 49.0168 38.5294 49.1809 38.1309C49.3684 37.7325 49.509 36.9356 49.3918 36.8184C49.2981 37.1934 49.1809 37.8965 48.7825 38.0606C48.4778 38.1778 47.8215 38.0372 47.6106 37.9903Z" fill="#FCD4C3"/>
</g>
</g>
<mask id="mask5_580_919" style="mask-type:luminance" maskUnits="userSpaceOnUse" x="50" y="36" width="3" height="3">
<path d="M52.3828 36.457H50.5781V38.1445H52.3828V36.457Z" fill="white"/>
</mask>
<g mask="url(#mask5_580_919)">
<g opacity="0.5">
<path d="M50.6389 36.4434C50.592 36.7012 50.381 37.92 51.0139 38.084C51.5529 38.2247 51.9514 37.8965 52.3732 37.2169C52.1389 37.4278 51.5529 37.9434 51.1076 37.7559C50.6623 37.545 50.6154 37.0762 50.6389 36.4434Z" fill="#FCD4C3"/>
</g>
</g>
<mask id="mask6_580_919" style="mask-type:luminance" maskUnits="userSpaceOnUse" x="47" y="39" width="5" height="3">
<path d="M51.6094 39.2227H47.9062V41.2383H51.6094V39.2227Z" fill="white"/>
</mask>
<g mask="url(#mask6_580_919)">
<g opacity="0.25">
<path d="M47.9241 39.7284C51.1116 38.1581 51.7678 40.7128 51.6038 41.2284C50.3381 41.4394 48.1116 40.1269 47.9241 39.7284Z" fill="#FCD4C3"/>
</g>
</g>
<mask id="mask7_580_919" style="mask-type:luminance" maskUnits="userSpaceOnUse" x="52" y="38" width="2" height="2">
<path d="M53.5781 38.7305H52.2422V39.9023H53.5781V38.7305Z" fill="white"/>
</mask>
<g mask="url(#mask7_580_919)">
<g opacity="0.5">
<path d="M52.5588 38.7294C52.0197 39.3388 52.2776 39.831 52.6291 39.9013C53.0744 39.9951 53.6604 39.5263 53.5666 39.5263C53.4494 39.5263 52.5822 39.8076 52.4182 39.3857C52.301 39.0576 52.4885 38.8701 52.5588 38.7294Z" fill="#FCD4C3"/>
</g>
</g>
<mask id="mask8_580_919" style="mask-type:luminance" maskUnits="userSpaceOnUse" x="15" y="36" width="31" height="10">
<path d="M45.6797 36.7852H15.4688V45.3398H45.6797V36.7852Z" fill="white"/>
</mask>
<g mask="url(#mask8_580_919)">
<g opacity="0.15">
<path d="M16.1565 42.8006C26.3986 48.6834 46.719 42.7068 45.6408 40.785C44.2111 38.2303 43.6486 36.6365 40.508 36.7772C37.3908 36.9412 17.3283 38.535 16.508 39.1443C15.7111 39.7772 14.8205 42.0272 16.1565 42.8006Z" fill="#E3AB5E"/>
</g>
</g>
<path d="M38.4844 7.46486C43.0782 7.04298 45.7735 2.28517 48.5625 3.01173C46.6875 4.18361 44.836 6.52736 42.2344 10.3711C41.6016 11.2852 37.2188 7.58205 38.4844 7.46486Z" fill="#FFF8EE"/>
<path d="M38.4844 7.46486C43.0782 7.04298 45.7735 2.28517 48.5625 3.01173C46.6875 4.18361 44.836 6.52736 42.2344 10.3711C41.6016 11.2852 37.2188 7.58205 38.4844 7.46486Z" stroke="#E5D0AE" stroke-width="9.375" stroke-miterlimit="10" stroke-linecap="round" stroke-linejoin="round"/>
<path d="M9.77344 6.43357C11.8359 4.51169 15.5625 5.26169 18.5625 6.33982C20.2734 6.94919 22.5 6.45701 22.6406 6.80857C23.0156 7.62888 20.7891 9.31638 18.9609 9.26951C17.1563 9.24607 14.1328 5.84763 9.77344 6.43357Z" fill="#BA8449"/>
<path d="M9.77344 6.43357C11.8359 4.51169 15.5625 5.26169 18.5625 6.33982C20.2734 6.94919 22.5 6.45701 22.6406 6.80857C23.0156 7.62888 20.7891 9.31638 18.9609 9.26951C17.1563 9.24607 14.1328 5.84763 9.77344 6.43357Z" stroke="#895B2E" stroke-width="6.25" stroke-miterlimit="10" stroke-linecap="round" stroke-linejoin="round"/>
<path d="M41.625 9.73827C42.6797 10.043 46.6875 2.1914 48.6328 2.96483C54.8203 5.42577 46.7578 14.8945 44.2031 15.1055C41.625 15.293 41.039 9.55077 41.625 9.73827Z" fill="#FCD4C3"/>
<path d="M41.625 9.73827C42.6797 10.043 46.6875 2.1914 48.6328 2.96483C54.8203 5.42577 46.7578 14.8945 44.2031 15.1055C41.625 15.293 41.039 9.55077 41.625 9.73827Z" stroke="#F8A38F" stroke-width="6.25" stroke-miterlimit="10"/>
<path d="M19.2656 8.80081C17.5547 9.55081 11.4843 3.19924 8.92965 7.27737C7.24215 9.97268 12.3515 15.4102 16.0078 15.9961C19.664 16.5821 20.1562 8.40237 19.2656 8.80081Z" fill="#FCD4C3"/>
<path d="M19.2656 8.80081C17.5547 9.55081 11.4843 3.19924 8.92965 7.27737C7.24215 9.97268 12.3515 15.4102 16.0078 15.9961C19.664 16.5821 20.1562 8.40237 19.2656 8.80081Z" stroke="#F8A38F" stroke-width="6.25" stroke-miterlimit="10"/>
<mask id="mask9_580_919" style="mask-type:luminance" maskUnits="userSpaceOnUse" x="42" y="4" width="5" height="11">
<path d="M46.5 4.48828H42.2812V14.9414H46.5V4.48828Z" fill="white"/>
</mask>
<g mask="url(#mask9_580_919)">
<path d="M46.3985 4.4884C46.0704 5.56653 43.3048 8.35559 43.6798 10.7462C43.8204 11.6368 44.7579 14.2618 45.1563 14.1681C45.5548 14.0743 46.5626 13.4415 46.4689 13.5822C46.3751 13.7228 45.0626 14.6837 44.5704 14.9415C44.0782 14.6837 41.9923 9.83216 42.297 9.57434C43.211 8.75403 46.0001 4.53528 46.3985 4.4884Z" fill="#FCD4C3"/>
</g>
<mask id="mask10_580_919" style="mask-type:luminance" maskUnits="userSpaceOnUse" x="9" y="6" width="11" height="8">
<path d="M19.3828 6.05859H9.02344V13.4648H19.3828V6.05859Z" fill="white"/>
</mask>
<g mask="url(#mask10_580_919)">
<path d="M9.00769 7.44152C10.8827 6.29308 14.3046 6.78527 16.2968 8.73058C16.9999 9.43371 17.2108 11.7775 15.6171 13.3712C14.9843 14.004 19.3671 11.1212 19.3905 10.2775C19.3905 9.43371 19.1093 9.19933 18.453 8.96496C16.0389 8.07433 13.5077 6.01183 11.3046 6.05871C9.87488 6.08215 9.21863 7.06652 9.00769 7.44152Z" fill="#FCD4C3"/>
</g>
<mask id="mask11_580_919" style="mask-type:luminance" maskUnits="userSpaceOnUse" x="42" y="3" width="7" height="12">
<path d="M48.5625 3.87891H42.4219V14.2383H48.5625V3.87891Z" fill="white"/>
</mask>
<g mask="url(#mask11_580_919)">
<g opacity="0.25">
<path d="M47.1562 3.87307C51.4218 6.21682 44.5546 9.77932 45.0703 14.209C44.1796 14.1153 41.9765 9.8262 42.5156 9.4512C43.2656 8.93557 46.4296 3.68557 47.1562 3.87307Z" fill="#FCD4C3"/>
</g>
</g>
<path d="M14.25 18.2695C14.3203 17.9648 14.3672 17.6367 14.3672 17.332C14.3906 17.0039 14.4141 16.6758 14.4844 16.3711C14.5078 16.207 14.5547 16.043 14.625 15.9023C14.6953 15.7617 14.7422 15.5977 14.7891 15.457C14.9063 15.1523 15.0235 14.8477 15.1641 14.5664C15.7031 13.3711 16.3125 12.2461 17.0625 11.1914C17.8125 10.1367 18.6328 9.15235 19.5703 8.3086C20.5078 7.44141 21.6094 6.73829 22.7813 6.26954C23.9531 5.77735 25.2188 5.47266 26.4844 5.33204C27.75 5.16798 29.0156 5.14454 30.2813 5.16798C31.5469 5.19141 32.8125 5.26173 34.0781 5.42579C35.3438 5.58985 36.6094 5.8711 37.8281 6.31641C38.4375 6.55079 39.0234 6.8086 39.5859 7.13673C40.1484 7.46485 40.6875 7.86329 41.1797 8.33204C41.6719 8.77735 42.0938 9.31641 42.4453 9.87891C42.7969 10.4414 43.0547 11.0508 43.2891 11.6836C43.5 12.293 43.6641 12.9258 43.8047 13.5586C43.9453 14.1914 44.0391 14.8008 44.1797 15.3867C44.25 15.668 44.3438 15.9492 44.4375 16.2305C44.5547 16.5117 44.6719 16.8164 44.7656 17.1211C44.9766 17.707 45.2109 18.3164 45.4219 18.9024C46.2422 21.293 46.9688 23.7305 47.4141 26.2148C47.625 27.457 47.7891 28.7227 47.8125 29.9883C47.8359 31.2539 47.7188 32.5195 47.3672 33.7383C47.2734 34.043 47.1797 34.3477 47.0625 34.6289C46.9453 34.9102 46.7813 35.1914 46.6875 35.4961C46.6406 35.6602 46.5938 35.8008 46.5234 35.9414C46.4531 36.082 46.3594 36.2227 46.2656 36.3633C46.1016 36.6211 45.8906 36.9023 45.6797 37.1367C44.8594 38.1211 43.8047 38.918 42.6797 39.5273C41.5547 40.1367 40.3359 40.6055 39.1172 40.957C37.875 41.3086 36.6563 41.5898 35.3906 41.8242C34.125 42.0586 32.8828 42.2227 31.6406 42.3867C31.0078 42.457 30.375 42.5273 29.7422 42.5977L28.8047 42.6914C28.5 42.7148 28.1719 42.7383 27.8438 42.7617C25.2656 42.9023 22.6875 42.5273 20.2266 41.8477C18.9844 41.4961 17.7891 41.0742 16.6172 40.5586C15.4453 40.043 14.2969 39.457 13.2188 38.7539C12.6797 38.4023 12.1406 38.0039 11.6484 37.5586C11.5313 37.4414 11.3906 37.3242 11.2735 37.207C11.1563 37.0898 11.0625 36.9492 10.9453 36.832C10.7344 36.5742 10.5235 36.3164 10.336 36.0586C9.60939 34.9805 9.02345 33.7148 8.83595 32.4023C8.62501 31.0664 8.81251 29.707 9.18751 28.4649C9.56251 27.1992 10.1485 26.0508 10.7578 24.9258C11.3906 23.8242 12.0703 22.7461 12.7266 21.6914C13.0547 21.1523 13.3594 20.6133 13.6406 20.0742C13.8984 19.3711 14.1328 18.832 14.25 18.2695ZM15.1875 18.4805C15.0235 19.1367 14.7422 19.7461 14.4375 20.332C14.1328 20.918 13.8047 21.457 13.4766 21.9961C12.8203 23.0742 12.1406 24.1289 11.5547 25.207C10.9688 26.2852 10.4297 27.4102 10.1016 28.5586C9.77345 29.707 9.63283 30.9023 9.82033 32.0742C10.0078 33.2227 10.5 34.3242 11.2031 35.2852C11.3672 35.5195 11.5781 35.7539 11.7656 35.9883C11.8594 36.1055 11.9766 36.2227 12.0703 36.3164C12.1641 36.4336 12.2813 36.5273 12.375 36.6211C12.7969 37.0195 13.2891 37.3711 13.8047 37.7227C14.8359 38.3789 15.9141 38.9648 17.0625 39.457C18.1875 39.9492 19.3594 40.3711 20.5547 40.6992C21.75 41.0273 22.9453 41.2852 24.1641 41.4492C25.3828 41.6133 26.6016 41.6602 27.8203 41.6133C28.125 41.5898 28.4297 41.5664 28.7344 41.543L29.6719 41.4492C30.2813 41.4023 30.9141 41.332 31.5469 41.2617C32.7891 41.1445 34.0313 40.9805 35.25 40.7695C36.4922 40.5586 37.6875 40.3242 38.8828 39.9961C40.0781 39.668 41.25 39.293 42.375 38.8008C43.4766 38.2852 44.5547 37.6523 45.4219 36.7852C45.6328 36.5742 45.8438 36.3398 46.0313 36.1055C46.125 35.9883 46.2188 35.8477 46.3125 35.7305C46.4063 35.6133 46.5234 35.4961 46.6172 35.3555C46.8281 35.0977 46.9219 34.8164 47.0625 34.5352C47.1797 34.2539 47.2734 33.9492 47.3438 33.6445C47.6484 32.4258 47.7188 31.1602 47.6484 29.918C47.5547 28.6758 47.3438 27.4336 47.0391 26.2148C46.4531 23.7773 45.5859 21.4336 44.6719 19.1133C44.4375 18.5273 44.2031 17.9414 43.9688 17.3789L43.5938 16.5117C43.4766 16.207 43.3594 15.8789 43.2656 15.5742C43.1016 14.9414 42.9844 14.332 42.8438 13.7227C42.7266 13.1133 42.5625 12.5273 42.375 11.9648C41.9766 10.8164 41.3906 9.78516 40.5234 8.96485C39.6797 8.14454 38.625 7.51173 37.5 7.04298C36.375 6.57423 35.1563 6.26954 33.9375 6.0586C32.7188 5.84766 31.4766 5.73048 30.2344 5.66016C28.9922 5.61329 27.7266 5.58985 26.4844 5.73048C25.2422 5.8711 24.0234 6.12891 22.875 6.6211C21.7266 7.08985 20.6719 7.76954 19.7813 8.61329C18.8672 9.45704 18.1406 10.4883 17.6016 11.5664C17.0391 12.668 16.6406 13.8398 16.2891 15.0117C16.1953 15.293 16.125 15.5977 16.0547 15.9023C16.0078 16.043 15.9844 16.207 15.9375 16.3477C15.9141 16.418 15.9141 16.5117 15.8906 16.582C15.8672 16.6523 15.8438 16.7227 15.7969 16.793C15.6797 17.0742 15.5391 17.3555 15.3985 17.6367C15.3516 17.8945 15.2578 18.1758 15.1875 18.4805Z" fill="#E5D0AE"/>
<path d="M14.7188 18.3867C13.7344 22.7461 5.13283 29.6367 11.6719 36.6914C13.8985 39.082 21.1172 42.7617 28.3594 42.082C47.2031 40.3008 51.961 35.7539 44.0156 16.2539C42.7266 13.0898 44.1797 5.77734 30.3281 5.35547C24.5156 5.19141 17.5313 5.98828 14.7188 18.3867Z" fill="#FFF8EE"/>
<path d="M17.9766 9.85544C18.5859 8.91794 19.3828 8.1445 20.2734 7.51169C21.1641 6.87888 22.1719 6.41013 23.1797 6.03513C25.2422 5.28513 27.3984 5.00388 29.5547 4.93357C31.7109 4.88669 33.8906 5.05075 36 5.58982C37.0547 5.87107 38.0859 6.24606 39.0703 6.78513C40.0547 7.32419 40.9687 7.98044 41.7422 8.80075C42.5156 9.62107 43.1484 10.5351 43.6406 11.5429C44.1328 12.5508 44.4844 13.6054 44.7422 14.6601C45 15.7383 45.1641 16.7929 45.3047 17.8476C45.375 18.3867 45.4453 18.9023 45.5625 19.3945C45.6094 19.6523 45.6797 19.8867 45.75 20.0742C45.7734 20.1211 45.7969 20.1679 45.8203 20.2148L45.8437 20.2383L45.8672 20.2617L45.9141 20.3554L46.125 20.707C47.1562 22.6054 47.9297 24.6914 48.2109 26.8711C48.3516 27.9492 48.375 29.0508 48.2578 30.1523C48.1406 31.2304 47.8594 32.3086 47.4375 33.3164C47.2266 33.8086 46.9922 34.3008 46.7109 34.7929C46.6406 34.9101 46.5703 35.0273 46.5 35.1445C46.4297 35.2617 46.3594 35.3554 46.2656 35.4961C46.2422 35.5195 46.2422 35.5429 46.2187 35.5664C46.1484 35.5195 46.3125 35.7304 45.8437 35.5664C45.7266 35.3554 45.7969 35.4023 45.7734 35.3554C45.7734 35.2851 45.7969 35.2617 45.7969 35.2148L45.8672 35.0039L45.9844 34.6289C46.3125 33.6211 46.5937 32.6133 46.7109 31.5586C46.7578 31.0429 46.7812 30.5273 46.7109 29.9883C46.6406 29.4726 46.5 28.9804 46.2422 28.5586C46.1719 28.4414 46.1016 28.3476 46.0078 28.2539C45.9141 28.1601 45.8437 28.0664 45.75 27.9726C45.5625 27.7851 45.375 27.6211 45.1641 27.457C44.7422 27.1289 44.2969 26.8711 43.8281 26.6367C42.8672 26.2148 41.8125 26.0508 40.7812 26.0976C39.7266 26.1445 38.6953 26.3554 37.6875 26.6367C37.1719 26.7773 36.6797 26.9414 36.1641 27.1054C35.9062 27.1992 35.6484 27.2695 35.3906 27.3398C35.25 27.3867 35.1328 27.4101 34.9687 27.4336C34.8281 27.457 34.7109 27.4804 34.5703 27.4804C33.4922 27.5976 32.4375 27.6679 31.3359 27.6445C30.2578 27.6211 29.1797 27.5039 28.1016 27.2695C27.0469 27.0351 25.9922 26.6836 25.0078 26.2383C24.0234 25.7695 23.0859 25.207 22.2422 24.5039C21.3984 23.8008 20.6484 23.0039 19.9922 22.1367C18.6797 20.3789 17.8125 18.3398 17.3906 16.207C17.1797 15.1289 17.0859 14.0508 17.1328 12.9492C17.1562 12.4101 17.2266 11.8476 17.3437 11.3086C17.4844 10.8867 17.6719 10.3476 17.9766 9.85544ZM18.4453 10.1601C18.1875 10.582 18.0234 11.0508 17.9062 11.5664C17.7891 12.0586 17.7422 12.5742 17.6953 13.0898C17.6484 14.1211 17.7656 15.1758 17.9766 16.1836C18.4219 18.2226 19.2891 20.1679 20.5547 21.8086C21.1875 22.6289 21.9141 23.3789 22.7109 24.0351C23.5078 24.6914 24.3984 25.2539 25.3359 25.6992C26.2734 26.1445 27.2578 26.4726 28.2891 26.707C29.2969 26.9414 30.3516 27.082 31.3828 27.1054C32.4375 27.1523 33.4687 27.1054 34.5234 26.9883L34.9219 26.9414C35.0391 26.9179 35.1562 26.8945 35.2969 26.8711C35.5547 26.8008 35.7891 26.7304 36.0469 26.6601C36.5625 26.5195 37.0781 26.3554 37.5937 26.2383C38.625 25.9804 39.7031 25.7929 40.8047 25.7929C41.8828 25.7929 42.9844 25.9804 43.9687 26.4492C44.4609 26.6836 44.9297 26.9648 45.3516 27.2929C45.5625 27.457 45.7734 27.6445 45.9609 27.832C46.0547 27.9258 46.1484 28.0195 46.2422 28.1133C46.3359 28.207 46.4297 28.3242 46.5 28.4414C46.8047 28.9101 46.9687 29.4492 47.0391 30.0117C47.1094 30.5742 47.1094 31.1133 47.0625 31.6523C46.9687 32.7304 46.7344 33.7851 46.4297 34.8164L46.3125 35.1914L46.2656 35.3789C46.2656 35.4023 46.2422 35.4492 46.2656 35.4492C46.2422 35.4258 46.3125 35.4961 46.2187 35.2851C45.7734 35.1211 45.9375 35.332 45.8906 35.2617C45.9375 35.1679 46.0078 35.0508 46.0781 34.9336C46.1484 34.8164 46.1953 34.6992 46.2656 34.582C46.5 34.1133 46.7109 33.6445 46.8984 33.1523C47.6016 31.207 47.7422 29.0742 47.3906 27.0351C47.2266 26.0039 46.9219 25.0195 46.5469 24.0586C46.1719 23.0976 45.7266 22.1601 45.2109 21.2461L45.0234 20.9179L44.9766 20.8242L44.9531 20.7773L44.9297 20.7304C44.8828 20.6601 44.8594 20.5898 44.8359 20.5195C44.7187 20.2383 44.6484 19.9336 44.5781 19.6758C44.4609 19.1367 44.3672 18.5976 44.2969 18.082C44.1328 17.0273 43.9922 15.9961 43.7344 14.9883C43.5 13.9804 43.1719 12.9961 42.7266 12.082C42.2812 11.1679 41.7422 10.3242 41.0391 9.57419C39.6797 8.09763 37.8047 7.11325 35.8125 6.52732C33.8203 5.94138 31.7109 5.75388 29.6016 5.75388C27.5156 5.75388 25.4062 6.01169 23.4375 6.66794C22.4531 6.99606 21.5156 7.44138 20.6484 8.02732C19.7578 8.58982 19.0078 9.29294 18.4453 10.1601Z" fill="#E5BFA1"/>
<path d="M17.6953 9.7383C18.0469 9.1758 18.4687 8.73048 18.8906 8.30861C19.3359 7.88673 19.8047 7.53517 20.2969 7.20705C21.2812 6.5508 22.3359 6.03517 23.4375 5.63673C25.6406 4.8633 27.9609 4.55861 30.2578 4.60548C32.5312 4.6758 34.8281 4.95705 37.0313 5.75392C38.1328 6.15236 39.1875 6.66798 40.1484 7.37111C41.1094 8.0508 41.9531 8.89455 42.6563 9.85548C43.3359 10.8164 43.8516 11.8711 44.25 12.9727C44.625 14.0742 44.8828 15.1992 45.0703 16.3008C45.1641 16.8633 45.2344 17.4024 45.3281 17.9649C45.4219 18.5039 45.4922 19.0664 45.5859 19.5586C45.6328 19.8164 45.7031 20.0508 45.7969 20.2383L45.8203 20.2852L45.8437 20.332L45.8906 20.4258L45.9844 20.6133L46.1953 20.9883C46.4531 21.4805 46.7109 21.9961 46.9453 22.5117C47.3906 23.543 47.7656 24.6445 48.0234 25.7695C48.2812 26.8711 48.3984 28.0195 48.3984 29.168C48.375 31.4649 47.7422 33.7383 46.5469 35.6836C46.4531 35.8242 46.2656 35.8945 46.125 35.8008C45.9844 35.707 45.9375 35.543 45.9844 35.4258C46.3125 34.582 46.6641 33.7852 46.9219 32.9649C47.2031 32.1445 47.3906 31.3008 47.3906 30.4805C47.3906 29.6602 47.1797 28.8633 46.6875 28.2305C46.6641 28.1836 46.6172 28.1367 46.5937 28.1133L46.5469 28.0664L46.5 27.9961C46.4297 27.9258 46.3594 27.8555 46.2891 27.7852C46.1484 27.6445 45.9844 27.5039 45.8203 27.3867C45.4922 27.1289 45.1172 26.8945 44.7656 26.6602C43.2891 25.7461 41.7188 24.9492 40.125 24.1524C38.5312 23.3789 36.9141 22.6289 35.3203 21.9024C32.0859 20.4258 28.8516 18.9492 25.6641 17.3555C24.0703 16.5352 22.5 15.7149 20.9531 14.7305C20.1328 14.1445 19.3828 13.6289 18.6562 12.9727C18.3047 12.6445 17.9531 12.2695 17.6719 11.7539C17.5312 11.4961 17.4141 11.1914 17.3906 10.8164C17.3906 10.6289 17.3906 10.4414 17.4375 10.2539C17.4609 10.1602 17.4844 10.0664 17.5312 9.97267C17.5547 9.90236 17.625 9.76173 17.6484 9.7383H17.6953ZM19.0078 10.5352C18.9609 10.6055 18.9844 10.582 18.9609 10.6055C18.9609 10.6289 18.9609 10.6289 18.9375 10.6524C18.9375 10.6758 18.9375 10.6992 18.9375 10.7461C18.9375 10.8164 18.9844 10.9336 19.0312 11.0742C19.1719 11.3555 19.4297 11.6602 19.7109 11.918C20.2969 12.4805 20.9766 12.9961 21.7031 13.4649C23.1328 14.4258 24.6797 15.2695 26.25 16.1133C29.3672 17.7539 32.5781 19.2774 35.7656 20.8242C37.3594 21.5977 38.9531 22.3945 40.5469 23.1914C42.1406 24.0117 43.7109 24.832 45.2344 25.8399C45.6094 26.0977 45.9844 26.3555 46.3359 26.6602C46.5234 26.8008 46.6875 26.9649 46.875 27.1289C46.9688 27.2227 47.0391 27.293 47.1328 27.4102L47.1797 27.4805L47.25 27.5508C47.2969 27.5977 47.3203 27.6445 47.3672 27.6914C47.6484 28.0899 47.8594 28.5352 48 29.0039C48.1406 29.4727 48.1641 29.9649 48.1641 30.4336C48.1406 31.3711 47.8828 32.2852 47.5781 33.1524C47.2734 34.0195 46.8984 34.8164 46.5469 35.6367L45.9844 35.3555C47.0859 33.4805 47.6016 31.3242 47.5781 29.168C47.5313 27.0117 46.9688 24.8789 46.0547 22.9102C45.8203 22.418 45.5859 21.9258 45.3047 21.457L44.8828 20.707C44.7188 20.4024 44.6484 20.0977 44.5781 19.8164C44.4375 19.2305 44.3437 18.6914 44.25 18.1289C44.1562 17.5664 44.0625 17.0274 43.9687 16.5117C43.7578 15.4336 43.5 14.4024 43.125 13.3945C42.75 12.4102 42.2578 11.4492 41.6484 10.6289C41.0391 9.78517 40.2656 9.05861 39.4219 8.47267C38.5547 7.88673 37.6172 7.41798 36.6094 7.08986C34.5937 6.41017 32.4375 6.1758 30.2812 6.15236C29.2031 6.15236 28.1484 6.19923 27.0937 6.38673C26.0391 6.5508 25.0078 6.80861 24.0234 7.16017C23.0391 7.51173 22.0781 7.95705 21.2109 8.51955C20.7656 8.8008 20.3672 9.10548 19.9922 9.45705C19.6172 9.80861 19.2656 10.1602 19.0078 10.5352Z" fill="#895B2E"/>
<path d="M18.2109 9.99611C15.6328 13.9805 18.7031 29.2852 34.8984 27.2227C36.6093 27.0117 42.3046 23.9649 46.1484 28.2305C48.2343 30.5742 45.4218 36.5039 46.1484 35.2617C46.9687 33.9024 50.1093 28.6524 45.3984 20.5664C43.8984 17.9649 46.3828 5.47267 30.164 5.30861C23.9531 5.28517 19.9218 7.34767 18.2109 9.99611Z" fill="#BA8449"/>
<mask id="mask12_580_919" style="mask-type:luminance" maskUnits="userSpaceOnUse" x="14" y="9" width="28" height="27">
<path d="M41.9297 9.12891H14.4375V35.3555H41.9297V9.12891Z" fill="white"/>
</mask>
<g mask="url(#mask12_580_919)">
<g opacity="0.15">
<path d="M17.7816 10.9648C22.4456 7.96476 36.555 8.1757 41.055 15.371C44.055 20.1523 38.5706 31.9648 36.5316 33.4648C34.516 34.9648 31.7035 36.2773 24.2972 34.496C18.016 32.996 27.4613 27.1601 20.1019 26.3163C13.3753 25.5429 12.6956 14.246 17.7816 10.9648Z" fill="#E3AB5E"/>
</g>
</g>
<mask id="mask13_580_919" style="mask-type:luminance" maskUnits="userSpaceOnUse" x="27" y="21" width="4" height="3">
<path d="M30.8203 21.9258H27.75V23.2148H30.8203V21.9258Z" fill="white"/>
</mask>
<g mask="url(#mask13_580_919)">
<g opacity="0.25">
<path d="M30.8203 22.574C30.8203 22.9256 30.1406 23.2303 29.2969 23.2303C28.4531 23.2303 27.7734 22.949 27.7734 22.574C27.7734 22.2225 28.4531 21.9178 29.2969 21.9178C30.1406 21.9412 30.8203 22.2225 30.8203 22.574Z" fill="#E3AB5E"/>
</g>
</g>
<path d="M28.125 20.6602C28.4766 20.4258 30.3516 20.4961 30.586 20.7539C30.8203 20.9883 31.336 21.9727 30.75 22.3945C30.5391 22.5352 30.5391 21.9492 30.0703 22.043C29.5078 22.1602 29.8125 22.8867 29.3672 22.8867C28.6875 22.8633 29.3438 22.0898 28.7578 21.9961C28.3125 21.9023 28.2188 22.3477 28.0078 22.3008C27.3282 22.1602 27.6328 20.9883 28.125 20.6602Z" fill="#F8A38F"/>
<mask id="mask14_580_919" style="mask-type:luminance" maskUnits="userSpaceOnUse" x="27" y="20" width="5" height="3">
<path d="M31.0078 20.5195H27.6094V22.8398H31.0078V20.5195Z" fill="white"/>
</mask>
<g mask="url(#mask14_580_919)">
<path d="M29.1376 20.5208C28.6923 20.5208 28.2704 20.5676 28.1298 20.6614C27.6376 20.9895 27.3329 22.1614 27.9892 22.2786H28.0126C28.1767 22.2786 28.2704 21.9504 28.622 21.9504C28.6689 21.9504 28.6923 21.9504 28.7392 21.9504C29.3251 22.0442 28.6923 22.8411 29.3486 22.8411C29.7704 22.8411 29.4657 22.1379 30.0517 22.0208C30.0986 22.0208 30.122 22.0208 30.1454 22.0208C30.4736 22.0208 30.5204 22.3958 30.6611 22.3958C30.6845 22.3958 30.7079 22.3958 30.7314 22.3723C31.3407 21.9504 30.8251 20.9661 30.5673 20.7317C30.4501 20.6145 29.7704 20.5208 29.1376 20.5208ZM29.1376 20.6848C29.8407 20.6848 30.3798 20.7786 30.4736 20.8489C30.6142 20.9895 30.8954 21.5051 30.8486 21.8801C30.8251 22.0208 30.7782 22.1379 30.6845 22.2083C30.6845 22.1848 30.6611 22.1848 30.6376 22.1614C30.5439 22.0442 30.4032 21.8567 30.1454 21.8567C30.0986 21.8567 30.0517 21.8567 30.0282 21.8801C29.6298 21.9739 29.5595 22.2786 29.4892 22.4895C29.4423 22.7004 29.4189 22.7004 29.3486 22.7004C29.1611 22.7004 29.1611 22.6536 29.1611 22.4426C29.1611 22.2317 29.1611 21.9036 28.7392 21.8333C28.6923 21.8333 28.6454 21.8333 28.5986 21.8333C28.3407 21.8333 28.1767 21.9973 28.0595 22.0911C28.0361 22.1145 27.9892 22.1614 27.9657 22.1614C27.872 22.1379 27.7782 22.0911 27.7314 21.9036C27.6611 21.5754 27.8954 21.0129 28.1532 20.8254C28.2939 20.7317 28.622 20.6848 29.1376 20.6848Z" fill="#F8A38F"/>
</g>
<mask id="mask15_580_919" style="mask-type:luminance" maskUnits="userSpaceOnUse" x="17" y="23" width="27" height="16">
<path d="M43.8047 23.2617H17.3438V38.2852H43.8047V23.2617Z" fill="white"/>
</mask>
<g mask="url(#mask15_580_919)">
<g opacity="0.25">
<path d="M43.7575 26.8125C44.4606 31.3125 38.8356 36.961 31.2653 38.1328C23.695 39.2813 18.1168 32.5313 17.4137 28.0078C16.7106 23.5078 21.3512 25.2188 28.9215 24.0703C36.4918 22.9219 43.0543 22.3125 43.7575 26.8125Z" fill="#F7E8D0"/>
</g>
</g>
<mask id="mask16_580_919" style="mask-type:luminance" maskUnits="userSpaceOnUse" x="18" y="23" width="23" height="12">
<path d="M40.6641 23.4961H18.7266V34.6289H40.6641V23.4961Z" fill="white"/>
</mask>
<g mask="url(#mask16_580_919)">
<g opacity="0.5">
<path d="M24.0035 33.6625C23.7926 33.3344 23.6754 32.9359 23.5582 32.5609C23.441 32.1859 23.3238 31.8109 23.2066 31.4359C22.9723 30.6859 22.7144 29.9359 22.3629 29.2328C22.0113 28.5297 21.566 27.8734 21.0035 27.3812C20.441 26.889 19.7613 26.5609 19.0348 26.4203C18.7769 26.3265 18.6598 26.0687 18.7535 25.8344C18.8473 25.6 19.0816 25.4828 19.2926 25.5297C20.9801 25.9281 22.7379 26.1156 24.4723 26.139C26.2066 26.1625 27.9879 26.0687 29.7457 25.8578C31.5035 25.6469 33.2379 25.3422 34.9488 24.9437C36.6598 24.5453 38.3707 24.0765 40.0348 23.514C40.2926 23.4203 40.5504 23.5609 40.6207 23.7953C40.691 23.9828 40.6207 24.1703 40.4801 24.2875C40.4332 24.3344 40.3394 24.4047 40.2691 24.475C40.1988 24.5453 40.1285 24.639 40.0582 24.7094C39.9176 24.8734 39.7769 25.0609 39.6363 25.2484C39.3551 25.6234 39.0973 25.9984 38.8629 26.3969C38.3473 27.1703 37.8785 27.9672 37.4332 28.7875C36.9879 29.6078 36.5426 30.4281 36.1441 31.2484C35.9332 31.6703 35.7457 32.0922 35.5816 32.514C35.4879 32.725 35.4176 32.9359 35.3238 33.1703C35.2769 33.2875 35.2535 33.3812 35.2301 33.4984C35.2301 33.4984 35.2301 33.5219 35.2301 33.5453C35.2301 33.5687 35.2301 33.5687 35.2066 33.5922C35.2066 33.6156 35.1832 33.639 35.1598 33.639C35.1363 33.6625 35.1129 33.6859 35.066 33.7094C35.0191 33.7562 34.9488 33.7797 34.9019 33.8031C34.4566 33.9906 33.9879 34.0844 33.5426 34.1781C33.0973 34.2719 32.6285 34.3422 32.1598 34.389C31.2223 34.5062 30.3082 34.6 29.3707 34.6234C28.4332 34.6703 27.4957 34.6703 26.5816 34.5765C26.1129 34.5297 25.6441 34.4594 25.1988 34.3422C24.9644 34.2719 24.7535 34.2015 24.5426 34.0844C24.3316 33.9906 24.1441 33.85 24.0035 33.6625ZM24.0269 33.639C24.1441 33.8265 24.3551 33.9672 24.566 34.0609C24.7769 34.1547 24.9879 34.225 25.2223 34.2953C25.6676 34.4125 26.1363 34.4828 26.6051 34.5062C27.5426 34.5765 28.4566 34.5765 29.3941 34.5297C30.3316 34.4828 31.2457 34.3656 32.1598 34.2484C32.6051 34.1781 33.0738 34.1078 33.5191 33.9906C33.9644 33.8734 34.4332 33.7797 34.8316 33.5922C34.8785 33.5687 34.9254 33.5453 34.9723 33.4984C35.0191 33.475 35.0426 33.4515 35.0426 33.4281C35.066 33.3109 35.0894 33.1937 35.1363 33.0765C35.2066 32.8422 35.2769 32.6312 35.3473 32.3969C35.5113 31.9515 35.6754 31.5297 35.8629 31.0844C36.2379 30.2172 36.6129 29.3734 37.0113 28.5297C37.4098 27.6859 37.8316 26.8422 38.2769 26.0219C38.4879 25.6 38.7223 25.2015 38.9801 24.7797C39.0973 24.5687 39.2379 24.3578 39.3785 24.1703C39.4488 24.0765 39.5191 23.9594 39.5894 23.8656C39.6832 23.7719 39.7535 23.6547 39.8707 23.5609L40.316 24.3578C38.6051 24.9437 36.8941 25.4125 35.1363 25.8109C33.3785 26.2094 31.6207 26.5375 29.8394 26.7484C28.0582 26.9594 26.2535 27.0765 24.4488 27.0297C22.6441 26.9828 20.8394 26.7719 19.0582 26.35L19.316 25.4125C20.0894 25.8812 20.7926 26.3265 21.3316 26.9594C21.8707 27.5922 22.2457 28.3187 22.5504 29.0687C22.8316 29.8187 23.066 30.5922 23.2535 31.3422C23.3473 31.7172 23.4644 32.1156 23.5582 32.4906C23.6988 32.9359 23.816 33.3109 24.0269 33.639Z" fill="#D8CAB2"/>
</g>
</g>
<mask id="mask17_580_919" style="mask-type:luminance" maskUnits="userSpaceOnUse" x="18" y="23" width="23" height="12">
<path d="M40.4297 23.7305H18.9609V34.6289H40.4297V23.7305Z" fill="white"/>
</mask>
<g mask="url(#mask17_580_919)">
<g opacity="0.5">
<path d="M24.0076 33.6653C23.7967 33.3371 23.6795 32.9621 23.5623 32.5871C23.4451 32.2121 23.3514 31.8371 23.2342 31.4621C22.9998 30.7121 22.7654 29.9621 22.4139 29.2356C22.0857 28.5324 21.6404 27.8762 21.1014 27.3606C20.5389 26.8215 19.8592 26.4465 19.1326 26.2824V26.259C19.0154 26.2121 18.9451 26.0715 18.992 25.9543C19.0389 25.8371 19.156 25.7668 19.2732 25.7903C20.9842 26.1887 22.742 26.3762 24.5232 26.3996C26.3045 26.4231 28.0623 26.3293 29.8201 26.1184C31.5779 25.9074 33.3123 25.5793 35.0467 25.2043C36.781 24.8059 38.492 24.3371 40.156 23.7746C40.2732 23.7278 40.4139 23.7981 40.4607 23.9153C40.4842 24.009 40.4607 24.1028 40.3904 24.1731C40.2498 24.2903 40.0857 24.4778 39.9451 24.6418C39.8045 24.8059 39.6639 25.0168 39.5232 25.1809C39.2654 25.5559 39.0076 25.9543 38.7732 26.3528C38.281 27.1262 37.8123 27.9465 37.367 28.7668C36.9217 29.5871 36.4998 30.4074 36.1248 31.2512C35.9373 31.6731 35.7498 32.0949 35.5623 32.5168C35.4685 32.7278 35.3982 32.9387 35.3279 33.1731C35.281 33.2903 35.2576 33.384 35.2342 33.5012C35.2107 33.5949 35.1404 33.6184 35.0935 33.6653C35.0467 33.7121 34.9764 33.7356 34.9295 33.759C34.4842 33.9465 34.0154 34.0403 33.5701 34.134C33.1248 34.2278 32.656 34.2981 32.1873 34.3684C31.2732 34.4856 30.3357 34.5793 29.3982 34.6262C28.4607 34.6731 27.5232 34.6731 26.6092 34.5793C26.1404 34.5324 25.6717 34.4621 25.2264 34.3449C24.992 34.2746 24.781 34.2043 24.5701 34.1106C24.3357 33.9934 24.1248 33.8528 24.0076 33.6653ZM24.0076 33.6418C24.1248 33.8293 24.3357 33.9699 24.5467 34.0871C24.7576 34.1809 24.9685 34.2512 25.2029 34.3215C25.6482 34.4387 26.117 34.509 26.5857 34.5324C27.5232 34.6262 28.4373 34.6028 29.3748 34.5559C30.3123 34.509 31.2264 34.4153 32.1639 34.2746C32.6092 34.2043 33.0779 34.134 33.5467 34.0168C33.992 33.9231 34.4607 33.8059 34.8592 33.6184C34.906 33.5949 34.9529 33.5715 34.9998 33.5246C35.0467 33.5012 35.0935 33.4543 35.0935 33.4309C35.117 33.3137 35.1404 33.1965 35.1873 33.0793C35.2576 32.8449 35.3279 32.634 35.4217 32.4231C35.5857 31.9778 35.7732 31.5559 35.9607 31.134C36.3357 30.2668 36.7342 29.4465 37.156 28.6028C37.5779 27.759 37.9998 26.9387 38.4685 26.1184C38.7029 25.6965 38.9373 25.2981 39.1951 24.9231C39.3123 24.7121 39.4529 24.5246 39.5935 24.3371C39.7342 24.1496 39.8748 23.9621 40.0857 23.7746L40.3201 24.1965C38.6326 24.7824 36.8982 25.2512 35.1639 25.6496C33.4295 26.0481 31.6717 26.3528 29.8904 26.5871C28.1092 26.7981 26.3279 26.9153 24.5232 26.8684C22.742 26.8215 20.9373 26.634 19.1795 26.2356L19.2967 25.7903C20.0701 26.0949 20.7732 26.5637 21.3123 27.1731C21.8514 27.7824 22.2498 28.4856 22.5545 29.2121C22.8592 29.9387 23.0935 30.6887 23.3045 31.4621C23.3982 31.8371 23.5154 32.2121 23.6326 32.6106C23.6795 32.9387 23.7967 33.3137 24.0076 33.6418Z" fill="#D8CAB2"/>
</g>
</g>
<path d="M24.0234 33.6445C25.2187 35.5195 34.9922 34.2305 35.1563 33.4805C35.5781 31.582 39.0937 24.8789 40.2187 23.9414C38.2031 24.6445 27.7266 27.9961 19.2188 25.957C23.0391 27.2461 23.0859 32.1914 24.0234 33.6445Z" fill="#333333"/>
<mask id="mask18_580_919" style="mask-type:luminance" maskUnits="userSpaceOnUse" x="19" y="23" width="22" height="12">
<path d="M40.1953 23.9648H19.1953V34.6055H40.1953V23.9648Z" fill="white"/>
</mask>
<g mask="url(#mask18_580_919)">
<path d="M40.1836 23.9766C38.6133 24.5156 32.0039 26.6484 25.1602 26.6484C23.1445 26.6484 21.1289 26.4609 19.1836 26.0156C23.0273 27.2578 23.0742 32.2266 24.0117 33.6797C24.457 34.3828 26.168 34.6406 28.1133 34.6406C31.2539 34.6406 35.0273 33.9844 35.1445 33.5156C35.5664 31.5937 39.0586 24.8906 40.1836 23.9766ZM38.8711 24.8906C37.3477 27.1875 35.1445 31.6172 34.6992 33.2812C34.1133 33.6094 31.0898 34.1719 28.1133 34.1719C25.7227 34.1719 24.6445 33.7734 24.4102 33.4219C24.1758 33.0703 23.9883 32.4141 23.8008 31.6641C23.4023 30.2344 22.8398 28.2656 21.5039 26.9062C22.6758 27.0469 23.8945 27.1172 25.1836 27.1172C30.7617 27.0938 36.2227 25.6875 38.8711 24.8906Z" fill="#333333"/>
</g>
<path d="M28.0312 34.6289C26.0156 34.6289 24.7031 34.3477 24.1875 33.7852C24.1406 33.7383 24.1406 33.457 24.375 32.918C24.9375 31.6289 26.6718 29.4258 29.6718 29.2383C29.8828 29.2383 30.0703 29.2148 30.2578 29.2148C33.7734 29.2148 35.8828 30.9961 35.8828 31.3008C35.8359 31.3945 35.789 31.5352 35.7187 31.7227C35.5312 32.168 35.25 32.8711 34.9921 33.6211C34.6875 33.9258 31.1718 34.6289 28.0312 34.6289Z" fill="#FCD4C3"/>
<path d="M30.2578 29.0976C30.0469 29.0976 29.8594 29.0976 29.6484 29.1211C25.5469 29.3789 23.6484 33.4336 24.0703 33.9257C24.6797 34.582 26.25 34.8164 28.0312 34.8164C31.1953 34.8164 35.0156 34.0898 35.1328 33.7383C35.4844 32.6836 35.8828 31.8164 36.0469 31.3945C36.1875 30.9726 33.8203 29.0742 30.2578 29.0976ZM30.2578 29.4023C33.3984 29.4023 35.5078 30.9023 35.7187 31.3476C35.6719 31.4414 35.625 31.5586 35.5781 31.6992C35.3906 32.1445 35.1094 32.8008 34.8516 33.5508C34.3594 33.832 31.0781 34.4648 28.0312 34.4648C26.1328 34.4648 24.8203 34.1836 24.3281 33.6914C24.3047 33.5273 24.4687 32.8711 25.0547 32.0508C25.5703 31.3008 27.0703 29.5429 29.6719 29.4023C29.8594 29.4023 30.0703 29.4023 30.2578 29.4023Z" fill="#F8A38F"/>
<mask id="mask19_580_919" style="mask-type:luminance" maskUnits="userSpaceOnUse" x="24" y="29" width="12" height="5">
<path d="M35.9063 29.0039H24.1406V33.8555H35.9063V29.0039Z" fill="white"/>
</mask>
<g mask="url(#mask19_580_919)">
<path d="M24.1368 33.6719C23.8556 34.9376 31.6134 28.7266 35.7853 31.7032C36.6525 30.5547 32.0353 28.6094 29.34 29.0547C27.0665 29.4532 24.7228 30.9063 24.1368 33.6719Z" fill="#FCD4C3"/>
</g>
<path d="M25.7109 26.9883C26.1094 27.6914 26.8359 31.1133 27.1406 31.1836C27.4453 31.2539 29.3672 31.793 29.625 31.6758C29.9062 31.5586 29.8828 30.9023 30.1641 31.0898C30.3984 31.2539 30.5156 31.5586 30.75 31.4414C31.1719 31.2305 32.4141 30.457 32.625 30.1289C32.8125 29.7773 32.7891 27.832 32.625 26.2852C31.8281 26.6602 27.1172 27.1523 25.7109 26.9883Z" fill="#FFF7E3"/>
<mask id="mask20_580_919" style="mask-type:luminance" maskUnits="userSpaceOnUse" x="25" y="26" width="8" height="6">
<path d="M32.7656 26.3086H25.7109V31.7461H32.7656V26.3086Z" fill="white"/>
</mask>
<g mask="url(#mask20_580_919)">
<path d="M32.6367 26.2969C31.9336 26.6016 28.2539 27.0234 26.4023 27.0234C26.1211 27.0234 25.9102 27.0234 25.7227 27C26.1211 27.7031 26.8477 31.125 27.1523 31.1953C27.4336 31.2656 29.0273 31.7109 29.5195 31.7109C29.5664 31.7109 29.6133 31.7109 29.6367 31.6875C29.8711 31.5937 29.8945 31.0781 30.082 31.0781C30.1055 31.0781 30.1523 31.0781 30.1758 31.125C30.3867 31.2422 30.4805 31.5 30.668 31.5C30.6914 31.5 30.7383 31.5 30.7617 31.4766C31.1836 31.2656 32.4258 30.4922 32.6367 30.1641C32.8477 29.8125 32.8008 27.8672 32.6367 26.2969ZM32.5195 26.5078C32.6602 28.1016 32.6602 29.7891 32.5195 30.0703C32.3555 30.3516 31.2305 31.0781 30.7148 31.3359H30.6914C30.6445 31.3359 30.5742 31.2656 30.5273 31.1953C30.457 31.125 30.3867 31.0547 30.293 30.9844C30.2227 30.9375 30.1758 30.9141 30.1055 30.9141C29.8945 30.9141 29.8242 31.125 29.7539 31.2891C29.707 31.3828 29.6602 31.5234 29.5898 31.5469C29.5898 31.5469 29.5664 31.5469 29.5195 31.5469C29.1211 31.5469 27.9258 31.2187 27.4336 31.1016C27.3398 31.0781 27.2695 31.0547 27.2227 31.0547C27.082 30.8906 26.7773 29.7891 26.543 28.9922C26.332 28.2656 26.1445 27.5859 25.9805 27.1875C26.0977 27.1875 26.2617 27.1875 26.4258 27.1875C28.1836 27.1875 31.4648 26.8125 32.5195 26.5078Z" fill="#FFDC99"/>
</g>
<mask id="mask21_580_919" style="mask-type:luminance" maskUnits="userSpaceOnUse" x="25" y="26" width="8" height="3">
<path d="M32.6953 26.2148H25.7344V28.6289H32.6953V26.2148Z" fill="white"/>
</mask>
<g mask="url(#mask21_580_919)">
<path d="M26.262 28.6406C26.1448 27.375 31.9807 26.9531 32.7073 27.0703C32.7073 26.7656 32.6604 26.5781 32.6604 26.2266C31.6995 26.7187 26.4495 27.2344 25.7463 27.0234C25.8167 27.1641 26.0745 27.8672 26.262 28.6406Z" fill="#EADCBE"/>
</g>
<mask id="mask22_580_919" style="mask-type:luminance" maskUnits="userSpaceOnUse" x="29" y="27" width="2" height="5">
<path d="M30.3281 27.6914H29.0391V31.1367H30.3281V27.6914Z" fill="white"/>
</mask>
<g mask="url(#mask22_580_919)">
<path d="M29.1698 27.684C29.287 27.9652 29.4042 28.223 29.4979 28.5043C29.5917 28.7855 29.6854 29.0668 29.7792 29.348L30.037 30.1918L30.2948 31.0355L29.8964 31.1527L29.7089 30.2855L29.4979 29.4183C29.4276 29.1371 29.3573 28.8558 29.287 28.5746C29.1932 28.2933 29.1229 28.0121 29.0292 27.7543L29.1698 27.684Z" fill="#FFDC99"/>
</g>
<mask id="mask23_580_919" style="mask-type:luminance" maskUnits="userSpaceOnUse" x="9" y="6" width="10" height="9">
<path d="M18.375 6.05859H9.14062V14.4258H18.375V6.05859Z" fill="white"/>
</mask>
<g mask="url(#mask23_580_919)">
<g opacity="0.4">
<path d="M9.44154 7.84369C12.5353 8.64056 12.0431 13.9843 13.8712 14.4062C15.7228 14.8281 18.1368 9.99993 18.3712 8.94524C14.8087 7.42181 13.1447 5.64056 10.59 6.15618C9.74622 6.32025 8.57435 7.60931 9.44154 7.84369Z" fill="#FCD4C3"/>
</g>
</g>
<mask id="mask24_580_919" style="mask-type:luminance" maskUnits="userSpaceOnUse" x="14" y="14" width="32" height="11">
<path d="M45.3516 14.7773H14.0156V24.7383H45.3516V14.7773Z" fill="white"/>
</mask>
<g mask="url(#mask24_580_919)">
<g opacity="0.5">
<path d="M18.0157 23.4804C21.9063 23.7851 25.1173 23.9492 26.2657 22.7538C27.4141 21.5585 27.836 16.2617 29.711 16.4023C31.3048 16.5195 31.8438 23.4101 32.8751 23.5976C33.9063 23.8085 41.1954 25.8007 43.0235 23.9257C44.8282 22.0507 45.672 20.8789 45.2501 19.7539C44.8282 18.6289 34.1641 14.996 31.9844 14.7851C29.8048 14.5742 15.086 16.4257 14.711 17.3398C14.336 18.2773 13.9376 18.1367 14.0079 19.121C14.1485 21.0195 14.1251 23.1757 18.0157 23.4804Z" fill="#E3AB5E"/>
</g>
</g>
<path d="M28.9219 15.6445C29.2032 15.6445 30.3047 15.5508 30.5625 15.7617C31.9688 16.8633 31.9219 21.3867 33.3985 22.793C34.711 24.0586 41.8828 24.9727 43.125 23.543C44.3672 22.1133 46.1953 17.7539 46.6172 17.4258C47.0391 17.1211 47.9766 16.8867 48.2578 16.4414C48.5391 16.0195 48.3047 14.0977 47.6485 14.1914C46.9922 14.2852 45.75 14.6836 44.9766 14.4727C44.2032 14.2383 40.4297 11.8711 30.9375 13.3008C30.0235 13.4414 29.1094 13.3008 28.4766 13.1367C27.8438 12.9727 24.2813 10.9102 14.7422 12.2695C13.8047 12.4102 12.4922 11.9883 12.0235 12.0352C11.5547 12.082 11.4141 13.5586 11.6016 13.9336C11.7891 14.3086 12.7735 14.6367 12.8907 15.1055C13.0078 15.5742 13.875 20.168 16.125 22.0664C18.5157 24.082 24.6094 22.6758 25.1485 22.3008C27.5625 20.5899 28.1016 15.6445 28.9219 15.6445Z" fill="#333333"/>
<mask id="mask25_580_919" style="mask-type:luminance" maskUnits="userSpaceOnUse" x="11" y="11" width="38" height="14">
<path d="M48.3516 11.8242H11.4844V24.2695H48.3516V11.8242Z" fill="white"/>
</mask>
<g mask="url(#mask25_580_919)">
<path d="M20.7043 11.8297C19.0402 11.8297 17.048 11.9468 14.7043 12.2984C14.5636 12.3218 14.423 12.3218 14.2824 12.3218C13.4621 12.3218 12.5011 12.064 12.0558 12.064C12.0324 12.064 12.0089 12.064 11.9855 12.064C11.5168 12.1109 11.3761 13.5875 11.5636 13.9625C11.7511 14.3609 12.7355 14.6656 12.8527 15.1343C12.9699 15.6031 13.8371 20.1968 16.0871 22.0953C17.0246 22.8922 18.5714 23.15 20.1183 23.15C22.4621 23.15 24.7824 22.564 25.1105 22.3297C27.548 20.5953 28.1105 15.65 28.9308 15.65C29.048 15.65 29.3527 15.6265 29.6339 15.6265C30.0089 15.6265 30.4074 15.65 30.548 15.7437C31.9543 16.8453 31.9074 21.3687 33.3839 22.775C34.2277 23.5718 37.4621 24.2515 39.9933 24.2515C41.423 24.2515 42.6418 24.0406 43.0871 23.525C44.3293 22.0953 46.1574 17.7359 46.5793 17.4078C47.0011 17.0797 47.9386 16.8687 48.2199 16.4234C48.4777 16.0015 48.2668 14.1734 47.6339 14.1734C47.6339 14.1734 47.6105 14.1734 47.5871 14.1734C47.0714 14.2437 46.1808 14.5015 45.4543 14.5015C45.2668 14.5015 45.0793 14.4781 44.9152 14.4312C44.3058 14.2437 41.9386 12.814 36.548 12.814C34.9308 12.814 33.0558 12.9312 30.8761 13.2593C30.6183 13.3062 30.3371 13.3062 30.1027 13.3062C29.4699 13.3062 28.8839 13.2125 28.4386 13.0953C27.9699 13.0484 25.8136 11.8297 20.7043 11.8297ZM20.7043 12.2984C24.9464 12.2984 27.1261 13.1422 27.923 13.4703C28.0871 13.5406 28.2043 13.5875 28.3214 13.6109C28.7433 13.7047 29.3761 13.8453 30.1027 13.8453C30.3839 13.8453 30.6886 13.8218 30.9464 13.775C32.9386 13.4703 34.8136 13.3296 36.548 13.3296C41.0011 13.3296 43.3214 14.314 44.3293 14.7593C44.5402 14.8531 44.6808 14.9 44.798 14.9468C45.0089 15.0172 45.2199 15.0406 45.4777 15.0406C45.9933 15.0406 46.5558 14.9234 47.0246 14.8297C47.2355 14.7828 47.4464 14.7359 47.6105 14.7125C47.8214 14.9468 47.9621 15.9781 47.8449 16.2593C47.7511 16.4 47.3527 16.5875 47.0714 16.7047C46.7902 16.8218 46.5324 16.939 46.3449 17.0796C46.0871 17.2671 45.8293 17.7593 45.0793 19.2593C44.3527 20.689 43.4621 22.4703 42.7824 23.2437C42.548 23.525 41.7043 23.8062 40.0168 23.8062C37.5558 23.8062 34.4152 23.15 33.7121 22.4703C33.0558 21.8609 32.7277 20.4312 32.3996 19.0484C32.0246 17.5015 31.673 16.0484 30.8527 15.3922C30.6418 15.2281 30.3136 15.1578 29.6574 15.1578C29.4699 15.1578 29.2824 15.1578 29.1418 15.1578C29.048 15.1578 28.9777 15.1578 28.9308 15.1578C28.2746 15.1578 27.9933 15.9312 27.5011 17.3375C26.9621 18.8843 26.1886 20.9703 24.8527 21.9312C24.548 22.1187 22.3449 22.6812 20.1183 22.6812C18.4074 22.6812 17.1183 22.3531 16.3918 21.7437C15.5011 20.9937 14.2589 19.2359 13.3683 15.2281C13.3449 15.1343 13.3214 15.064 13.3214 15.0172C13.2043 14.5718 12.7824 14.314 12.4308 14.0797C12.2902 13.9859 12.0558 13.8218 12.0089 13.7515C11.9152 13.5406 12.0089 12.7671 12.1496 12.5093C12.3136 12.5093 12.548 12.5562 12.8058 12.6031C13.2511 12.6734 13.8136 12.7672 14.3293 12.7672C14.4933 12.7672 14.6808 12.7672 14.8214 12.7203C16.9074 12.4625 18.8996 12.2984 20.7043 12.2984Z" fill="#1A1A1A"/>
</g>
<mask id="mask26_580_919" style="mask-type:luminance" maskUnits="userSpaceOnUse" x="15" y="13" width="12" height="9">
<path d="M26.9062 13.5352H15.0703V21.5508H26.9062V13.5352Z" fill="white"/>
</mask>
<g mask="url(#mask26_580_919)">
<g opacity="0.5">
<path d="M15.4921 15.1875C15.2812 15.4687 15.1406 19.6172 16.8984 20.7422C18.0468 21.4922 22.9218 21.3281 23.9062 20.789C25.4296 19.9219 26.9296 15.9844 26.5078 15.4219C25.8046 14.4844 20.7421 13.2422 16.9453 14.2265C16.4765 14.3203 15.7499 14.8359 15.4921 15.1875Z" stroke="#333333" stroke-width="12.5" stroke-miterlimit="10"/>
</g>
</g>
<path d="M15.4921 15.1758C15.2812 15.457 15.1406 19.6054 16.8984 20.7304C18.0468 21.4804 22.9218 21.3164 23.9062 20.7773C25.4296 19.9101 26.9296 15.9726 26.5078 15.4101C25.8046 14.4726 20.7421 13.2304 16.9453 14.2148C16.4765 14.332 15.7499 14.8242 15.4921 15.1758Z" fill="white"/>
<mask id="mask27_580_919" style="mask-type:luminance" maskUnits="userSpaceOnUse" x="32" y="14" width="13" height="9">
<path d="M44.4844 14.6367H32.7422V22.8398H44.4844V14.6367Z" fill="white"/>
</mask>
<g mask="url(#mask27_580_919)">
<g opacity="0.5">
<path d="M44.1314 16.9952C44.3189 17.2999 43.897 21.4249 42.022 22.339C40.7798 22.9249 35.9751 22.1281 35.0845 21.4718C33.6782 20.4171 32.6939 16.3156 33.186 15.7999C34.0064 14.9562 39.186 14.3937 42.8189 15.8468C43.2642 16.0109 43.9204 16.6202 44.1314 16.9952Z" stroke="#333333" stroke-width="12.5" stroke-miterlimit="10"/>
</g>
</g>
<path d="M44.1328 17.0039C44.3203 17.3086 43.8984 21.4336 42.0234 22.3477C40.7813 22.9336 35.9766 22.1367 35.0859 21.4805C33.6797 20.4258 32.6953 16.3242 33.1875 15.8086C34.0078 14.9648 39.1875 14.4023 42.8203 15.8555C43.2656 16.0195 43.8984 16.6055 44.1328 17.0039Z" fill="white"/>
<path d="M21.0468 17.707C20.9296 18.6211 20.4609 19.3008 20.0156 19.2305C19.5703 19.1601 19.3359 18.3867 19.4531 17.4726C19.5703 16.5586 20.039 15.8789 20.4843 15.9492C20.9296 16.0195 21.164 16.793 21.0468 17.707Z" fill="black"/>
<path d="M39.7266 18.7383C39.8203 19.6524 39.5391 20.4258 39.1172 20.4727C38.6719 20.5196 38.25 19.8164 38.1562 18.9024C38.0625 17.9883 38.3437 17.2149 38.7656 17.168C39.1875 17.1446 39.6094 17.8477 39.7266 18.7383Z" fill="black"/>
<mask id="mask28_580_919" style="mask-type:luminance" maskUnits="userSpaceOnUse" x="11" y="13" width="38" height="11">
<path d="M48.1172 13.1133H11.4844V23.8945H48.1172V13.1133Z" fill="white"/>
</mask>
<g mask="url(#mask28_580_919)">
<g opacity="0.3">
<path d="M12.041 13.3828C12.5801 13.7343 13.0723 13.5234 13.1895 14.2265C13.3066 14.9297 14.9238 21.0234 16.9395 21.7265C20.2441 22.875 24.416 21.75 24.9785 21.3984C25.541 21.0468 28.1895 15.1172 28.6348 14.8828C29.0801 14.6484 30.4863 14.9062 30.791 15.0468C31.7051 15.4453 33.3926 21.8672 33.8379 22.1953C35.877 23.625 42.416 23.5078 42.7207 23.1328C43.0488 22.7343 45.4863 17.1328 45.9316 16.8047C46.5645 16.3125 48.041 15.9843 48.0879 16.1953C48.1348 16.4062 46.8926 16.6172 46.5176 17.0625C46.1426 17.5312 43.6816 22.8984 42.9082 23.3672C42.1348 23.8359 36.416 24.6093 33.5098 22.5703C32.127 21.5859 31.5879 15.75 30.4863 15.4218C29.7832 15.2109 29.2441 15.2343 28.7285 15.375C28.0488 15.8203 27.0879 20.789 25.0488 22.0312C24.2285 22.5234 17.877 23.7656 15.9785 21.7734C12.4395 18.0703 13.5176 14.7656 12.3691 14.2968C11.5957 13.9687 11.4316 13.5468 11.4316 13.2656C11.502 12.9609 11.7598 13.1953 12.041 13.3828Z" fill="#333333"/>
</g>
</g>
<mask id="mask29_580_919" style="mask-type:luminance" maskUnits="userSpaceOnUse" x="12" y="12" width="5" height="1">
<path d="M16.8047 12.082H12.0703V12.7852H16.8047V12.082Z" fill="white"/>
</mask>
<g mask="url(#mask29_580_919)">
<g opacity="0.3">
<path d="M12.1055 12.1406C11.7305 12 13.6992 12.8203 14.4258 12.7735C15.1524 12.7266 16.3711 12.211 16.7696 12.0938C17.1211 11.9766 14.9414 12.375 14.4024 12.3516C13.8633 12.3281 12.3164 12.211 12.1055 12.1406Z" fill="#333333"/>
</g>
</g>
<mask id="mask30_580_919" style="mask-type:luminance" maskUnits="userSpaceOnUse" x="27" y="13" width="6" height="2">
<path d="M32.3906 13.2305H27.3047V14.4727H32.3906V13.2305Z" fill="white"/>
</mask>
<g mask="url(#mask30_580_919)">
<g opacity="0.3">
<path d="M27.3047 13.2422C27.9844 13.5469 28.2891 14.3203 28.9453 14.3906C29.6016 14.4609 30.3984 14.5781 30.7734 14.3672C31.1484 14.1563 32.0859 13.6641 32.3438 13.6172C32.625 13.5703 30.3047 13.9219 29.4375 13.8516C28.5703 13.7578 27.5625 13.2656 27.3047 13.2422Z" fill="#333333"/>
</g>
</g>
<mask id="mask31_580_919" style="mask-type:luminance" maskUnits="userSpaceOnUse" x="43" y="14" width="4" height="2">
<path d="M46.7813 14.1445H43.8984V15.0586H46.7813V14.1445Z" fill="white"/>
</mask>
<g mask="url(#mask31_580_919)">
<g opacity="0.3">
<path d="M43.9394 14.1387C43.6582 14.0215 44.9707 15.0762 45.3691 15.0293C45.7675 14.9824 46.4707 14.5371 46.7754 14.4199C47.0097 14.3262 45.8379 14.6543 45.4863 14.584C45.1347 14.5605 44.2207 14.2559 43.9394 14.1387Z" fill="#333333"/>
</g>
</g>
<mask id="mask32_580_919" style="mask-type:luminance" maskUnits="userSpaceOnUse" x="14" y="13" width="8" height="8">
<path d="M21.3516 13.3945H14.5781V20.0977H21.3516V13.3945Z" fill="white"/>
</mask>
<g mask="url(#mask32_580_919)">
<g opacity="0.3">
<path d="M14.7539 14.5722C16.4882 12.8613 20.6132 13.4472 21.3632 13.5879C16.4179 13.9394 16.3242 14.3144 15.457 15.1816C15.3398 15.8613 15.1757 18.1113 15.9492 20.0801C15.082 19.6113 14.1679 15.1582 14.7539 14.5722Z" fill="#333333"/>
</g>
</g>
<mask id="mask33_580_919" style="mask-type:luminance" maskUnits="userSpaceOnUse" x="38" y="14" width="8" height="8">
<path d="M45.1875 14.5664H38.6719V21.7148H45.1875V14.5664Z" fill="white"/>
</mask>
<g mask="url(#mask33_580_919)">
<g opacity="0.3">
<path d="M45.0845 16.4175C43.5845 14.4956 39.436 14.5191 38.6626 14.5894C43.5142 15.5972 43.561 15.9722 44.311 16.9566C44.3579 17.6362 44.2173 19.8862 43.2095 21.7378C44.1001 21.3628 45.5767 17.0503 45.0845 16.4175Z" fill="#333333"/>
</g>
</g>
<mask id="mask34_580_919" style="mask-type:luminance" maskUnits="userSpaceOnUse" x="15" y="13" width="12" height="8">
<path d="M26.6016 13.8633H15.3984V20.3086H26.6016V13.8633Z" fill="white"/>
</mask>
<g mask="url(#mask34_580_919)">
<path d="M15.5419 18.0293C15.706 16.0136 15.8935 14.373 19.9013 14.2558C23.1123 14.1621 25.6669 14.9121 26.0185 15.6855C26.2529 16.1777 26.0654 18.334 24.4716 20.3027C25.5029 19.3886 27.1435 15.7558 26.4404 15.3105C23.8388 13.6465 18.6591 13.5996 16.7373 14.2793C16.3857 14.3965 15.8232 14.7949 15.4482 15.2168C15.3779 15.7324 15.3779 17.748 15.5419 18.0293Z" fill="#D0DDDC"/>
</g>
<mask id="mask35_580_919" style="mask-type:luminance" maskUnits="userSpaceOnUse" x="15" y="18" width="9" height="4">
<path d="M23.8828 18.1289H15.6328V21.3867H23.8828V18.1289Z" fill="white"/>
</mask>
<g mask="url(#mask35_580_919)">
<path d="M15.6525 18.1758C16.2618 22.1133 23.4571 20.918 23.879 20.7539C23.8556 20.9649 20.1056 22.0196 16.965 20.8008C15.6993 20.3321 15.6056 17.7305 15.6525 18.1758Z" fill="#D0DDDC"/>
</g>
<mask id="mask36_580_919" style="mask-type:luminance" maskUnits="userSpaceOnUse" x="33" y="14" width="12" height="7">
<path d="M44.25 14.9648H33.0703V20.9414H44.25V14.9648Z" fill="white"/>
</mask>
<g mask="url(#mask36_580_919)">
<path d="M43.7946 19.7899C43.8883 17.7509 43.8883 16.1337 39.9508 15.5243C36.7868 15.0321 34.1618 15.454 33.693 16.1806C33.4118 16.6259 33.318 18.8055 34.6774 20.9618C33.7633 19.9071 32.568 16.1337 33.3415 15.7587C36.1305 14.4227 41.2868 15.0087 43.0915 15.9227C43.4196 16.0868 43.9587 16.5321 44.2633 17.0243C44.2399 17.5165 44.0055 19.5321 43.7946 19.7899Z" fill="#D0DDDC"/>
</g>
<mask id="mask37_580_919" style="mask-type:luminance" maskUnits="userSpaceOnUse" x="35" y="19" width="9" height="4">
<path d="M43.6875 19.8633H35.1797V22.6055H43.6875V19.8633Z" fill="white"/>
</mask>
<g mask="url(#mask37_580_919)">
<path d="M43.66 19.9133C42.5819 23.7336 35.5741 21.6711 35.1757 21.4602C35.1757 21.6711 38.7616 23.1711 42.0428 22.3742C43.3553 22.0461 43.8007 19.468 43.66 19.9133Z" fill="#D0DDDC"/>
</g>
<mask id="mask38_580_919" style="mask-type:luminance" maskUnits="userSpaceOnUse" x="20" y="16" width="1" height="1">
<path d="M20.9062 16.3008H20.4375V16.7695H20.9062V16.3008Z" fill="white"/>
</mask>
<g mask="url(#mask38_580_919)">
<g opacity="0.25">
<path d="M20.9238 16.5352C20.9238 16.418 20.8301 16.3008 20.6895 16.3008C20.5488 16.3008 20.4551 16.3945 20.4551 16.5352C20.4551 16.6758 20.5488 16.7695 20.6895 16.7695C20.8301 16.7695 20.9238 16.6758 20.9238 16.5352Z" fill="white"/>
</g>
</g>
<mask id="mask39_580_919" style="mask-type:luminance" maskUnits="userSpaceOnUse" x="38" y="17" width="2" height="1">
<path d="M39.4219 17.4023H38.9531V17.8711H39.4219V17.4023Z" fill="white"/>
</mask>
<g mask="url(#mask39_580_919)">
<g opacity="0.25">
<path d="M39.4395 17.6367C39.4395 17.5195 39.3457 17.4023 39.2051 17.4023C39.0879 17.4023 38.9707 17.4961 38.9707 17.6367C38.9707 17.7773 39.0645 17.8711 39.2051 17.8711C39.3223 17.8711 39.4395 17.7539 39.4395 17.6367Z" fill="white"/>
</g>
</g>
<mask id="mask40_580_919" style="mask-type:luminance" maskUnits="userSpaceOnUse" x="12" y="12" width="16" height="3">
<path d="M27.3516 12.5273H12.1641V14.7539H27.3516V12.5273Z" fill="white"/>
</mask>
<g mask="url(#mask40_580_919)">
<g opacity="0.1">
<path d="M12.1699 13.1308C12.7324 13.7637 13.084 13.834 13.834 13.7402C21.123 12.8027 25.1543 12.8262 27.1465 14.6777C27.5684 15.0762 27.334 13.4824 26.5371 13.2715C20.3965 11.6543 15.9434 13.1074 15.0059 13.2246C14.0449 13.3652 13.3652 13.1543 12.1699 13.1308Z" fill="#D0DDDC"/>
</g>
</g>
<mask id="mask41_580_919" style="mask-type:luminance" maskUnits="userSpaceOnUse" x="32" y="13" width="12" height="3">
<path d="M43.4766 13.2773H32.25V15.4336H43.4766V13.2773Z" fill="white"/>
</mask>
<g mask="url(#mask41_580_919)">
<g opacity="0.1">
<path d="M32.3262 14.0684C32.1622 14.2324 32.2325 15.9199 33.0293 15.2871C35.3262 13.459 40.1309 13.8809 43.4825 15.0059C42.9434 13.9512 39.0294 13.2246 36.8262 13.248C35.7715 13.2949 32.7715 13.5996 32.3262 14.0684Z" fill="#D0DDDC"/>
</g>
</g>
<path d="M46.1953 15.4102C46.1953 15.4805 45.8203 15.5273 45.375 15.5273C44.9297 15.5273 44.5547 15.4805 44.5547 15.4102C44.5547 15.3398 44.9297 15.293 45.375 15.293C45.8438 15.293 46.1953 15.3633 46.1953 15.4102Z" fill="#D0DDDC"/>
<path d="M14.6016 13.3945C14.6016 13.4648 14.2266 13.4648 13.7813 13.3945C13.3359 13.3242 12.9844 13.207 13.0078 13.1367C13.0313 13.0664 13.3828 13.0664 13.8281 13.1367C14.2734 13.1836 14.625 13.3008 14.6016 13.3945Z" fill="#D0DDDC"/>
<path d="M59.986 50.9498C59.8454 49.5201 58.7907 48.8873 57.8298 48.8873C57.3845 48.8873 57.0329 49.0045 56.8923 49.0748L56.7048 49.1686L56.5407 49.2858C56.3063 49.4498 55.9079 49.7076 55.5563 49.8248C55.5329 49.5436 55.5563 49.1686 55.6032 48.8405V48.7936C55.861 46.2858 55.3454 44.8092 54.0329 44.4342C53.822 44.3639 53.5876 44.3405 53.3532 44.3405C52.5563 44.3405 51.8532 44.7155 51.4079 45.0436C51.0329 44.5514 50.3766 44.2936 49.5798 44.2936C48.3845 44.2936 47.4235 44.8561 47.072 45.7467C47.0251 45.8405 46.9782 45.9811 46.9313 46.1686C46.2282 44.6217 44.7985 44.0358 43.4626 44.0358C42.197 44.0358 40.9782 44.528 40.5329 44.8795C40.5095 44.903 40.486 44.903 40.4626 44.9264C39.2673 45.7701 38.3298 46.8483 37.6735 48.1373C37.3454 47.0358 36.6423 45.9811 35.4001 45.2076L35.3766 45.1842C35.3298 45.1608 35.3063 45.1373 35.2829 45.1373C36.5251 42.9576 37.6032 40.0514 36.947 37.2858C36.2438 34.3326 34.5095 33.9108 33.5485 33.9108C33.1501 33.9108 32.7282 33.9811 32.3063 34.1217H32.2829H32.2595C30.4313 34.8483 29.6345 35.9264 29.447 36.1842C29.2595 36.4655 27.2673 39.5123 26.7751 43.9655C26.7282 44.4576 26.6579 44.9733 26.611 45.4889C26.3298 45.0905 25.861 44.7155 25.1345 44.5045C24.9001 44.4342 24.6657 44.4108 24.4313 44.4108C23.4235 44.4108 22.6032 45.0201 22.1579 45.442C21.7829 44.8795 21.1735 44.528 20.4938 44.5045C20.447 44.5045 20.3766 44.5045 20.3298 44.5045C19.2516 44.5045 18.4079 44.9733 17.7751 45.5123C17.3766 44.8092 16.6266 44.3639 15.7595 44.3639C15.6891 44.3639 15.6188 44.3639 15.5485 44.3639C15.5016 44.3639 15.4548 44.3639 15.4079 44.3639C14.2126 44.3639 13.2751 44.9264 12.9001 45.8639C12.8766 45.9342 12.8298 46.028 12.8063 46.1451C11.8688 44.9733 10.6735 44.4342 9.05633 44.4342C9.00945 44.4342 8.96257 44.4342 8.89226 44.4342C7.88445 44.4576 5.40007 44.8795 3.8532 48.3248C3.61882 48.8639 3.43133 49.403 3.29071 49.9186C2.96258 49.7545 2.63446 49.7311 2.42352 49.7311C1.62664 49.7311 1.01726 50.1764 0.736015 50.6217C0.50164 50.9733 -0.248355 52.192 0.126645 53.4108C0.337583 54.067 0.78289 54.5592 1.43914 54.817C2.02508 55.0514 2.75165 55.2623 3.29071 55.4264C3.61883 56.1998 4.2282 57.067 5.30633 57.8873C6.05633 58.4733 7.0407 58.7545 8.1657 58.7545C10.0876 58.7545 11.9391 57.9342 12.1266 57.8405L12.197 57.7936L12.2204 57.7701C12.5954 58.1451 13.0641 58.4264 13.6735 58.5436C13.861 58.5905 14.0954 58.6139 14.3766 58.6139C15.4079 58.6139 16.1345 58.0748 16.8141 57.0905C17.3532 57.9576 18.361 58.4264 19.5329 58.4264C19.6032 58.4264 19.6501 58.4733 19.7438 58.4733C20.3532 58.4733 21.1501 58.2623 21.7829 57.2076C22.322 58.1686 23.3063 58.7311 24.4782 58.7311C25.5095 58.7311 26.4235 58.3092 26.5876 58.2155L26.6345 58.192C26.986 58.0045 27.2673 57.8405 27.5016 57.7233C28.2751 58.1451 29.447 58.5905 30.9001 58.5905C31.1579 58.5905 31.3923 58.5905 31.6501 58.5436H31.7204H31.7907C34.8376 57.9342 36.8298 57.2076 38.0251 56.6451C38.8454 57.5826 40.1813 58.4733 42.0563 58.6139C42.2673 58.6373 42.4782 58.6373 42.6891 58.6373C44.236 58.6373 45.4782 58.192 46.3923 57.7233C46.6735 58.028 47.0485 58.3092 47.5173 58.4967C47.7985 58.6139 48.1032 58.6608 48.3845 58.6608C50.2829 58.6608 51.1735 56.4108 51.4079 55.6373L51.8532 54.4186C52.2516 54.8405 52.7673 55.192 53.4235 55.3795C53.7751 55.4733 54.1735 55.5436 54.5485 55.5436C56.6345 55.5436 58.6501 54.067 58.9548 53.8092C59.4938 53.2701 60.1032 52.2858 59.986 50.9498Z" fill="white"/>
<path d="M40.8398 51.5772C40.8398 51.5772 40.582 50.6397 41.5664 48.8584C42.5508 47.0772 43.3008 48.0381 43.3008 48.0381C43.3008 48.0381 44.1445 48.9522 43.1836 50.3115C42.2226 51.6709 40.8398 51.5772 40.8398 51.5772ZM33.3164 52.8662C32.1914 55.7959 29.4726 54.6006 29.4726 54.6006C29.4726 54.6006 29.168 53.5459 30.0586 50.6162C30.9492 47.6865 33.0117 48.835 33.0117 48.835C33.0117 48.835 34.4414 49.9365 33.3164 52.8662ZM31.2773 40.5615C31.2773 40.5615 32.9648 36.1319 33.3867 38.2881C33.8086 40.4444 29.8242 46.8428 29.8242 46.8428C29.8711 45.4131 31.2773 40.5615 31.2773 40.5615ZM7.01952 51.5772C7.08983 48.7412 8.9414 47.499 9.59765 48.1084C10.2539 48.7178 10.0195 50.0772 8.77733 50.8975C7.58202 51.7412 7.01952 51.5772 7.01952 51.5772ZM58.418 51.1084C58.3242 50.1475 57.457 50.499 57.457 50.499C57.457 50.499 56.0742 51.5772 54.8555 51.46C53.6367 51.3428 54.0351 48.624 54.0351 48.624C54.0351 48.624 54.293 46.1162 53.5898 45.9053C52.8633 45.6944 51.9961 46.5615 51.9961 46.5615C51.9961 46.5615 50.8945 47.7803 50.3789 49.3272L50.2383 49.374C50.2383 49.374 50.4023 46.6553 50.2148 46.0225C50.0742 45.7178 48.7617 45.7412 48.5508 46.2803C48.3398 46.8194 47.2851 50.6397 47.2148 52.2569C47.2148 52.2569 45.1523 53.9912 43.3711 54.2959C41.5664 54.5772 41.1445 53.4522 41.1445 53.4522C41.1445 53.4522 46.0195 52.0928 45.8555 48.2022C45.6914 44.3115 41.918 45.7412 41.4961 46.0694C41.0742 46.374 38.8945 47.71 38.2383 51.3662C38.2148 51.4834 38.168 52.0459 38.168 52.0459C38.168 52.0459 36.2695 53.3115 35.2383 53.6397C35.2383 53.6397 38.168 48.6944 34.582 46.4444C32.9648 45.46 31.6523 47.5225 31.6523 47.5225C31.6523 47.5225 36.5039 42.1319 35.4258 37.5615C34.9101 35.3819 33.832 35.1475 32.8242 35.499C31.3008 36.1084 30.7383 36.9756 30.7383 36.9756C30.7383 36.9756 28.7695 39.8115 28.3242 44.0537C27.8789 48.2959 27.1992 53.3819 27.1992 53.3819C27.1992 53.3819 26.2617 54.2959 25.418 54.3428C24.5508 54.3897 24.9492 51.7881 24.9492 51.7881C24.9492 51.7881 25.6055 47.8272 25.5586 47.1475C25.5117 46.4678 25.4648 46.1162 24.668 45.8819C23.8945 45.6475 23.0273 46.6553 23.0273 46.6553C23.0273 46.6553 20.7539 50.1006 20.5664 50.6162L20.4492 50.8272L20.332 50.6865C20.332 50.6865 21.9258 45.999 20.4023 45.9287C18.8789 45.8584 17.8711 47.5928 17.8711 47.5928C17.8711 47.5928 16.1367 50.5225 16.0664 50.8506L15.9492 50.71C15.9492 50.71 16.6758 47.3115 16.5351 46.4678C16.3945 45.624 15.5976 45.8115 15.5976 45.8115C15.5976 45.8115 14.5898 45.6944 14.332 46.3506C14.0742 47.0069 13.1133 51.2725 12.9961 52.6319C12.9961 52.6319 10.4883 54.4365 8.84764 54.4365C7.20702 54.46 7.37108 53.3819 7.37108 53.3819C7.37108 53.3819 13.418 51.3194 11.7773 47.2178C11.0273 46.1631 10.1836 45.835 8.96483 45.8584C7.74608 45.8819 6.31639 46.6319 5.33202 48.8115C4.86327 49.8662 4.67577 50.8506 4.67577 51.6006C4.67577 51.6006 3.55077 51.8115 2.96483 51.3428C2.37889 50.874 2.05077 51.3428 2.05077 51.3428C2.05077 51.3428 1.04296 52.7725 2.02733 53.1475C3.01171 53.5225 4.51171 53.8975 4.51171 53.8975C4.65233 54.5069 5.05077 55.5381 6.24608 56.4287C8.02733 57.7881 11.4726 56.2178 11.4726 56.2178L12.8789 55.374C12.8789 55.374 12.9258 56.6397 13.957 56.8272C14.9883 57.0147 15.4101 56.8037 17.2148 52.4678C18.2695 50.2412 18.3398 50.3584 18.3398 50.3584L18.457 50.335C18.457 50.335 17.6367 54.5772 17.9648 55.7256C18.293 56.874 19.6289 56.7569 19.6289 56.7569C19.6289 56.7569 20.3789 57.0147 20.9648 54.9053C21.5742 52.7959 22.6992 50.5928 22.6992 50.5928H22.8398C22.8398 50.5928 22.3476 54.835 23.0976 56.2178C23.8711 57.6006 25.8398 56.6397 25.8398 56.6397C25.8398 56.6397 27.2226 55.9131 27.4336 55.7022C27.4336 55.7022 29.0742 57.085 31.3945 56.8272C36.5742 55.7959 38.4258 54.4131 38.4258 54.4131C38.4258 54.4131 39.3164 56.6631 42.082 56.874C45.2461 57.1084 46.957 55.1162 46.957 55.1162C46.957 55.1162 46.9336 56.4053 48.0351 56.8506C49.1367 57.2959 49.8867 54.9053 49.8867 54.9053L51.7383 49.96H51.9023C51.9023 49.96 51.9961 53.124 53.8242 53.6397C55.6523 54.1553 58.0195 52.3272 58.0195 52.3272C58.0195 52.3272 58.5351 52.0694 58.418 51.1084Z" fill="#E24B31"/>
</g>
<defs>
<clipPath id="clip0_580_919">
<rect width="60" height="60" fill="white"/>
</clipPath>
</defs>
</svg>
