<svg width="60" height="60" viewBox="0 0 60 60" fill="none" xmlns="http://www.w3.org/2000/svg">
<g clip-path="url(#clip0_2249_125)">
<path d="M36.7876 21.6713L30.782 27.2588L25.2095 16.0182L28.0932 9.55322C28.8432 8.24072 30.0132 8.25572 30.7445 9.55322L36.7876 21.6713Z" fill="#FFA000"/>
<path d="M25.2094 16.0181L30.7819 27.2587L8.33813 48.1368L25.2094 16.0181Z" fill="#F57F17"/>
<path d="M43.3556 13.1306C44.4281 12.0993 45.5381 12.4518 45.8213 13.9125L51.6638 47.8593L32.2988 59.4843C31.6238 59.8593 29.8238 60.0206 29.8238 60.0206C29.8238 60.0206 28.185 59.8256 27.5606 59.4581L8.33813 48.1368L43.3556 13.1306Z" fill="#FFCA28"/>
<path d="M25.2095 16.0181L8.34009 48.1369L15.8532 1.19624C16.1307 -0.266257 16.9632 -0.406882 17.7057 0.883118L25.2095 16.0181Z" fill="#FFA000"/>
</g>
<defs>
<clipPath id="clip0_2249_125">
<rect width="60" height="60" fill="white"/>
</clipPath>
</defs>
</svg>
