<svg width="60" height="60" viewBox="0 0 60 60" fill="none" xmlns="http://www.w3.org/2000/svg">
<g clip-path="url(#clip0_3550_95)">
<path d="M30 0C13.4304 0 0 13.4304 0 30C0 46.5696 13.4304 60 30 60C46.5696 60 60 46.5696 60 30C60 13.4304 46.5696 0 30 0ZM6.4464 30.312L29.688 53.5536C16.9248 53.388 6.612 43.0752 6.4464 30.312ZM35.2728 52.9656L7.0344 24.7272C9.4296 14.256 18.8016 6.4416 30 6.4416C37.8264 6.4416 44.7624 10.26 49.0464 16.1352L45.7848 19.0128C42.3096 14.0304 36.5352 10.7688 30 10.7688C21.6792 10.7688 14.592 16.0536 11.9136 23.4504L36.5496 48.084C42.5328 45.9168 47.1336 40.8672 48.6744 34.6128H38.4648V30H53.5608C53.5584 41.1984 45.744 50.5704 35.2728 52.9656Z" fill="#744C9E"/>
</g>
<defs>
<clipPath id="clip0_3550_95">
<rect width="60" height="60" fill="white"/>
</clipPath>
</defs>
</svg>
