<svg width="60" height="60" viewBox="0 0 60 60" fill="none" xmlns="http://www.w3.org/2000/svg">
<path d="M4.5 25.5937C4.40625 25.5937 4.3125 25.4999 4.40625 25.4062L5.0625 24.6562C5.15625 24.5624 5.25 24.4687 5.34375 24.4687H15.75C15.8437 24.4687 15.9375 24.5624 15.8438 24.6562L15.375 25.4062C15.2812 25.4999 15.1875 25.5937 15.0938 25.5937H4.5ZM0.09375 28.3124C0 28.3124 0 28.2187 0 28.1249L0.65625 27.3749C0.65625 27.2812 0.84375 27.1874 0.9375 27.1874H14.25C14.3438 27.1874 14.4375 27.2812 14.4375 27.3749L14.25 28.0312C14.25 28.1249 14.0625 28.2187 13.9688 28.2187L0.09375 28.3124ZM7.21875 30.9374C7.125 30.9374 7.03125 30.8437 7.125 30.7499L7.5 30.0937C7.59375 29.9999 7.6875 29.9062 7.78125 29.9062H13.5938C13.6875 29.9062 13.7812 29.9999 13.7812 30.0937L13.6875 30.7499C13.6875 30.8437 13.5938 30.9374 13.5 30.9374H7.21875ZM37.5 25.0312L32.625 26.3437C32.1562 26.4374 32.1562 26.5312 31.7813 26.0624C31.3125 25.5937 31.0313 25.2187 30.375 24.9374C28.5 23.9999 26.7188 24.2812 25.125 25.4062C23.1562 26.7187 22.125 28.5937 22.125 30.9374C22.125 33.2812 23.7188 35.1562 26.0625 35.5312C28.0312 35.8124 29.7187 35.0624 31.0312 33.5624C31.3125 33.2812 31.5 32.9062 31.7813 32.4374H26.1562C25.5 32.4374 25.4062 32.0624 25.5938 31.5937C25.9688 30.6562 26.7188 29.1562 27.0938 28.4062C27.1875 28.2187 27.375 27.9374 27.8438 27.9374H38.4375C38.3438 28.6874 38.3438 29.5312 38.25 30.2812C37.9688 32.3437 37.125 34.3124 35.8125 35.9999C33.75 38.8124 30.9375 40.4999 27.4688 40.9687C24.5625 41.3437 21.9375 40.7812 19.5938 38.9999C17.4375 37.4062 16.2188 35.1562 15.8438 32.5312C15.4688 29.3437 16.4062 26.5312 18.2812 23.9999C20.3438 21.2812 23.0625 19.5937 26.4375 18.9374C29.1562 18.4687 31.7812 18.7499 34.2188 20.3437C35.8125 21.3749 36.8438 22.7812 37.5938 24.4687C37.9688 24.8437 37.875 24.9374 37.5 25.0312Z" fill="#00ACD7"/>
<path d="M47.1562 41.2499C44.5312 41.1562 42.0938 40.4062 40.0313 38.7187C38.3438 37.2187 37.2187 35.3437 36.8437 33.0937C36.2812 29.8124 37.2187 26.9062 39.1875 24.2812C41.3437 21.4687 43.875 20.0624 47.3438 19.4062C50.3438 18.8437 53.1562 19.2187 55.6875 20.9062C58.0312 22.4999 59.4375 24.6562 59.8125 27.3749C60.2812 31.3124 59.1562 34.4999 56.4375 37.3124C54.4688 39.2812 52.125 40.4999 49.4063 41.0624C48.75 41.0624 47.9062 41.1562 47.1562 41.2499ZM54.0938 29.4374C54.0938 29.0624 54.0937 28.7812 54 28.4999C53.4375 25.5937 50.8125 23.9999 48 24.6562C45.2813 25.3124 43.5 26.9999 42.8438 29.7187C42.2813 31.9687 43.4062 34.3124 45.5625 35.2499C47.1562 35.9062 48.75 35.9062 50.3438 35.0624C52.6875 33.7499 54 31.8749 54.0938 29.4374Z" fill="#00ACD7"/>
</svg>
