<svg width="60" height="60" viewBox="0 0 60 60" fill="none" xmlns="http://www.w3.org/2000/svg">
<path d="M8.16094 45.728L5.96094 44.456L30.4969 1.96002L32.6969 3.23202L8.16094 45.728Z" fill="#E10098"/>
<path d="M5.45312 41.06H54.5291V43.604H5.45312V41.06Z" fill="#E10098"/>
<path d="M30.9718 56.664L6.42578 42.492L7.69778 40.292L32.2438 54.464L30.9718 56.664ZM52.2958 19.724L27.7478 5.554L29.0198 3.354L53.5658 17.526L52.2958 19.724Z" fill="#E10098"/>
<path d="M7.70559 19.716L6.43359 17.516L31.0016 3.34003L32.2736 5.54003L7.70559 19.716Z" fill="#E10098"/>
<path d="M51.8463 45.728L27.3063 3.22799L29.5063 1.95599L54.0463 44.456L51.8463 45.728ZM7.40234 15.828H9.94634V44.172H7.40234V15.828ZM50.0583 15.828H52.6023V44.172H50.0583V15.828Z" fill="#E10098"/>
<path d="M30.5397 55.586L29.4297 53.662L50.7797 41.336L51.8897 43.26L30.5397 55.586Z" fill="#E10098"/>
<path d="M55.9697 45C55.259 46.2273 54.0908 47.123 52.7211 47.4907C51.3513 47.8585 49.8916 47.6684 48.6617 46.962C47.4344 46.2513 46.5387 45.0831 46.171 43.7133C45.8032 42.3435 45.9934 40.8838 46.6997 39.654C47.4104 38.4266 48.5786 37.531 49.9484 37.1632C51.3182 36.7955 52.7779 36.9856 54.0077 37.692C56.5817 39.178 57.4557 42.442 55.9677 45M13.2837 20.348C12.573 21.5753 11.4048 22.471 10.0351 22.8387C8.66529 23.2065 7.20559 23.0163 5.97573 22.31C4.74783 21.5993 3.85179 20.4307 3.48402 19.0605C3.11624 17.6902 3.30673 16.23 4.01373 15C4.72444 13.7726 5.89263 12.877 7.2624 12.5092C8.63218 12.1415 10.0919 12.3316 11.3217 13.038C12.5491 13.7487 13.4447 14.9169 13.8125 16.2866C14.1802 17.6564 13.9901 19.1181 13.2837 20.348ZM4.02973 45C3.32336 43.7701 3.13323 42.3104 3.50097 40.9406C3.86872 39.5709 4.76437 38.4027 5.99173 37.692C7.2216 36.9856 8.68129 36.7955 10.0511 37.1632C11.4208 37.531 12.589 38.4266 13.2997 39.654C14.0061 40.8838 14.1962 42.3435 13.8285 43.7133C13.4607 45.0831 12.5651 46.2513 11.3377 46.962C8.76373 48.432 5.49773 47.56 4.02973 45ZM46.7157 20.35C46.0094 19.1201 45.8192 17.6604 46.187 16.2906C46.5547 14.9209 47.4504 13.7527 48.6777 13.042C49.9076 12.3356 51.3673 12.1455 52.7371 12.5132C54.1068 12.881 55.275 13.7766 55.9857 15.004C56.6921 16.2338 56.8822 17.6935 56.5145 19.0633C56.1468 20.4331 55.2511 21.6013 54.0237 22.312C52.7939 23.0183 51.3342 23.2085 49.9644 22.8407C48.5946 22.473 47.4264 21.5773 46.7157 20.35ZM29.9997 60C28.9419 60 27.9079 59.6863 27.0283 59.0985C26.1488 58.5108 25.4634 57.6754 25.0586 56.6981C24.6539 55.7208 24.5481 54.6454 24.7546 53.6079C24.9612 52.5704 25.4707 51.6175 26.2188 50.8697C26.967 50.1218 27.9201 49.6126 28.9576 49.4065C29.9952 49.2004 31.0705 49.3066 32.0477 49.7116C33.0249 50.1167 33.86 50.8025 34.4474 51.6822C35.0348 52.562 35.3481 53.5962 35.3477 54.654C35.344 56.071 34.7793 57.429 33.7771 58.4308C32.7749 59.4326 31.4168 59.9968 29.9997 60ZM29.9997 10.696C29.2971 10.697 28.6012 10.5594 27.9519 10.291C27.3026 10.0226 26.7126 9.62875 26.2158 9.13193C25.719 8.63511 25.3251 8.04514 25.0567 7.39581C24.7883 6.74649 24.6507 6.05058 24.6517 5.34798C24.6517 3.92986 25.2151 2.56983 26.2178 1.56708C27.2206 0.564319 28.5806 0.000976563 29.9987 0.000976562C31.4168 0.000976563 32.7769 0.564319 33.7796 1.56708C34.7824 2.56983 35.3457 3.92986 35.3457 5.34798C35.3465 6.05025 35.2088 6.74577 34.9404 7.39474C34.672 8.0437 34.2783 8.63335 33.7817 9.12993C33.2851 9.62651 32.6955 10.0203 32.0465 10.2886C31.3975 10.557 30.702 10.6968 29.9997 10.696Z" fill="#E10098"/>
</svg>
