<svg width="60" height="60" viewBox="0 0 60 60" fill="none" xmlns="http://www.w3.org/2000/svg">
<g clip-path="url(#clip0_3583_2091)">
<path d="M60.0002 10.9431C60.0002 23.7544 60.0002 36.5391 60.0002 49.3505C58.7457 52.7402 56.1034 54.6886 52.9272 56.0765C49.1639 57.7313 45.187 58.5854 41.1567 59.226C39.3418 59.5196 37.4735 59.4128 35.7119 60C31.7884 60 27.8916 60 23.9681 60C23.8347 59.653 23.5411 59.7598 23.3009 59.7331C20.2582 59.4395 17.2155 59.1459 14.2528 58.3719C8.59446 56.9306 2.85603 55.5427 -0.0532227 49.5907C-0.0532227 36.5125 -0.0532227 23.4609 -0.0532227 10.3826C1.41475 7.20641 3.95034 5.23132 7.07311 3.87011C10.8898 2.26868 14.8133 1.3879 18.8436 0.774021C20.7386 0.480427 22.687 0.560498 24.5286 0C28.3454 0 32.1621 0 36.0055 0C36.9663 0.480427 38.034 0.373665 39.0749 0.507117C44.0927 1.121 49.0304 2.05516 53.6478 4.27046C56.5838 5.68505 59.066 7.58007 60.0002 10.9431ZM30.5073 5.95196C25.2226 6.05872 20.3382 6.32562 15.5607 7.47331C12.4913 8.19395 9.44856 8.96797 6.88628 10.9431C5.76528 11.8238 5.76528 12.2242 6.91297 13.0783C8.83468 14.573 11.1034 15.347 13.3987 15.9875C20.8987 18.0427 28.5322 18.3096 36.219 17.7491C40.0624 17.4822 43.8792 16.8683 47.5624 15.6939C49.5108 15.0801 51.4058 14.3594 53.034 13.0783C54.2083 12.1708 54.2083 11.7972 53.034 10.8363C52.0197 10.0356 50.872 9.47509 49.671 8.99466C43.372 6.59253 36.7528 6.13879 30.5073 5.95196ZM29.7333 54.048C34.8845 53.968 39.7955 53.6744 44.5998 52.5267C47.4824 51.8594 50.3382 51.032 52.8204 49.2971C53.4343 48.8701 54.0482 48.4164 54.0482 47.5089C54.0215 46.4947 54.0482 45.4537 54.0482 44.4395C54.0482 43.879 53.9681 43.6121 53.3009 43.9057C48.4699 46.0676 43.372 47.0018 38.1407 47.5623C31.9219 48.2295 25.7297 48.0961 19.5642 47.2954C15.1603 46.7082 10.8631 45.7473 6.77952 43.9591C6.43254 43.7989 6.08557 43.452 5.95212 44.226C5.31155 47.6423 5.95212 48.9502 9.15496 50.4448C9.71546 50.7117 10.276 50.9786 10.8631 51.1922C17.0286 53.4075 23.461 53.9146 29.7333 54.048ZM30.8809 30.0534C32.6692 29.9466 35.445 29.8665 38.1674 29.573C42.5713 29.1192 46.9219 28.2651 51.0055 26.3968C53.114 25.4359 54.6087 24.1548 54.0749 21.5391C53.9948 21.1922 54.0482 20.8185 54.0749 20.4715C54.1283 19.7509 53.9147 19.6441 53.2208 19.9644C46.8685 22.7669 40.1158 23.7011 33.2831 23.9413C24.235 24.2616 15.2938 23.5676 6.80621 19.9911C6.45923 19.8577 6.11226 19.4306 5.95212 20.2046C5.25816 23.3541 6.0055 24.9288 8.88806 26.3434C9.52863 26.6637 10.1692 26.9306 10.8365 27.1708C17.0019 29.4128 23.4343 29.9199 30.8809 30.0534ZM30.8276 42.0641C32.6692 41.9573 35.4183 41.8505 38.1407 41.5836C42.5446 41.1299 46.8952 40.2758 50.9788 38.4342C53.0873 37.4733 54.6087 36.2189 54.0749 33.5765C53.9948 33.2295 54.0482 32.8559 54.0749 32.5089C54.1016 31.8683 54.0215 31.6281 53.2742 31.9484C48.5233 34.0569 43.5055 35.0445 38.3809 35.5516C27.5713 36.5658 16.9486 36.1121 6.75283 31.9217C6.29909 31.7349 6.08557 31.6281 5.97881 32.2954C5.49838 35.8719 6.16564 37.1263 9.50194 38.621C9.98236 38.8345 10.4895 39.0214 10.9699 39.2082C17.0553 41.4235 23.461 41.9039 30.8276 42.0641Z" fill="#025AA1"/>
</g>
<defs>
<clipPath id="clip0_3583_2091">
<rect width="60" height="60" fill="white"/>
</clipPath>
</defs>
</svg>
