<svg width="116" height="22" viewBox="0 0 116 22" fill="none" xmlns="http://www.w3.org/2000/svg">
<g clip-path="url(#clip0_3583_1500)">
<path d="M97.4182 6.78381H89.918L97.1653 14.0312L89.918 21.2785H97.4182L104.666 14.0312L97.4182 6.78381Z" fill="black"/>
<path d="M108.753 6.78381H101.252L108.5 14.0312L101.252 21.2785H108.753L116 14.0312L108.753 6.78381Z" fill="black"/>
<path d="M2.52815 6.44679H6.86814L4.33999 20.8572H0L2.52815 6.44679ZM2.78097 2.61242C3.03378 1.22194 4.33999 0 5.77261 0C7.20523 0 8.17436 1.1798 7.96368 2.61242C7.753 4.04504 6.40465 5.22485 4.92989 5.22485C3.45514 5.22485 2.57029 3.96077 2.78097 2.61242ZM22.8798 12.0087L21.3207 20.8572H17.0229L18.4555 12.6408C18.7926 10.7868 17.7813 10.0283 16.3908 10.0283C14.9582 10.0283 13.652 10.871 13.2307 12.8093L11.798 20.8572H7.50018L10.0283 6.44679H14.3683L14.1576 7.79513C15.1268 6.6996 16.7701 6.02543 18.4134 6.02543C21.3207 6.06756 23.5539 8.17436 22.8798 12.0087ZM39.8184 13.652C39.7762 13.9891 39.6077 14.7897 39.3549 15.3796H29.0316C29.2844 16.9807 30.6328 17.4021 31.9811 17.4021C33.2031 17.4021 34.1722 17.065 35.0149 16.2644L38.0487 18.7505C36.3632 20.4359 34.3829 21.2786 31.7283 21.2786C26.7563 21.2786 24.1438 17.6971 24.8602 13.3992C25.1912 11.3488 26.2431 9.48391 27.8266 8.13991C29.41 6.79592 31.4211 6.06107 33.498 6.06756C37.6273 6.06756 40.619 9.26989 39.8184 13.652ZM35.7312 12.093C35.6048 10.4918 34.4671 9.85979 33.1188 9.85979C32.3808 9.84652 31.6552 10.0514 31.0331 10.4486C30.411 10.8459 29.92 11.4179 29.6215 12.093H35.7312ZM52.2063 6.15183L51.3636 11.0396C49.6782 10.7868 46.9393 11.3767 46.4337 14.3262L46.4758 14.1576L45.296 20.8572H40.9982L43.5263 6.44679H47.8663L47.4028 9.05921C48.2877 7.07882 50.1838 6.15183 52.2063 6.15183ZM58.0632 15.7167C57.8525 17.0229 58.9059 17.1072 60.8442 16.9386L60.17 20.8572C54.9873 21.4471 53.049 19.7196 53.7654 15.7167L54.6502 10.6182H52.3327L53.0912 6.44679H55.3665L55.8721 3.70796L60.4228 2.40174L59.7065 6.44679H62.6982L61.9397 10.6182H58.9902L58.0632 15.7167ZM65.437 6.44679H69.777L67.2488 20.8572H62.9088L65.437 6.44679ZM65.6898 2.61242C65.9005 1.22194 67.2488 0 68.6814 0C70.1141 0 71.0832 1.1798 70.8725 2.61242C70.6618 4.04504 69.3135 5.22485 67.8387 5.22485C66.364 5.22485 65.437 3.96077 65.6898 2.61242ZM87.6847 6.44679L85.1566 20.8572H80.8166L80.9851 19.8881C79.7523 20.8577 78.2118 21.3513 76.6451 21.2786C71.968 21.2786 70.1983 17.2336 70.9568 13.3149C71.631 9.60697 74.5805 6.06756 79.0469 6.06756C80.943 6.06756 82.2913 6.82601 83.0919 8.00581L83.3447 6.48892H87.6847V6.44679ZM82.1228 13.6942C82.502 11.5031 81.3222 10.1547 79.3418 10.1547C78.3622 10.1469 77.4138 10.4985 76.6761 11.1431C75.9384 11.7876 75.4626 12.6803 75.3389 13.652C74.9597 15.8009 76.0974 17.1493 78.1199 17.1493C80.0581 17.1914 81.7436 15.8431 82.1228 13.6942Z" fill="black"/>
</g>
<defs>
<clipPath id="clip0_3583_1500">
<rect width="116" height="21.2786" fill="white"/>
</clipPath>
</defs>
</svg>
