<svg width="60" height="60" viewBox="0 0 60 60" fill="none" xmlns="http://www.w3.org/2000/svg">
<g clip-path="url(#clip0_30_831)">
<path d="M21.7904 46.3871C21.7904 46.3871 19.4841 47.7896 23.3935 48.1909C28.0997 48.7909 30.6066 48.6915 35.8154 47.6902C36.8622 48.3313 37.9694 48.8683 39.121 49.2934C27.4022 54.3034 12.571 48.9934 21.7885 46.3871H21.7904ZM20.2904 39.8752C20.2904 39.8752 17.7854 41.7784 21.6929 42.1815C26.8022 42.6821 30.8091 42.7815 37.7241 41.3809C38.3966 42.0629 39.22 42.5774 40.1279 42.8827C26.0016 47.0902 10.1729 43.284 20.2904 39.8771V39.8752ZM47.941 51.294C47.941 51.294 49.6435 52.6965 46.0379 53.799C39.3254 55.8052 17.8866 56.4052 11.8754 53.799C9.77162 52.899 13.7785 51.5959 15.0629 51.3952C16.366 51.0952 17.0691 51.0952 17.0691 51.0952C14.7629 49.4921 1.74099 54.4009 10.4579 55.8015C34.4016 59.709 54.1379 54.099 47.926 51.294H47.941ZM22.8741 33.0615C22.8741 33.0615 11.9541 35.6677 18.9666 36.5677C21.9722 36.969 27.8822 36.8677 33.3929 36.4684C37.9004 36.0671 42.4116 35.2684 42.4116 35.2684C42.4116 35.2684 40.8085 35.9696 39.706 36.6709C28.5872 39.5771 7.24599 38.274 13.3585 35.2684C18.5672 32.7634 22.876 33.0652 22.876 33.0652L22.8741 33.0615ZM42.4116 43.9815C53.6316 38.169 48.4229 32.5627 44.8154 33.2621C43.9154 33.4627 43.5122 33.6634 43.5122 33.6634C43.5122 33.6634 43.8122 33.0634 44.5135 32.8627C51.6272 30.3577 57.2372 40.3759 42.2072 44.2815C42.2072 44.2815 42.3066 44.1821 42.4079 43.9815H42.4116ZM23.9804 59.8102C34.7991 60.5115 51.331 59.409 51.7304 54.2977C51.7304 54.2977 50.9297 56.304 42.8147 57.804C33.5972 59.5065 22.1766 59.304 15.4641 58.2052C15.4641 58.2052 16.8666 59.4052 23.9804 59.8084V59.8102Z" fill="#4E7896"/>
<path d="M35.612 0.00244141C35.612 0.00244141 41.8239 6.31369 29.702 15.8312C19.9839 23.5449 27.4989 27.9531 29.702 32.9631C23.9908 27.8537 19.8845 23.3443 22.6895 19.1387C26.7958 12.9249 38.117 9.93807 35.612 0.00244141ZM32.4245 28.7556C35.3308 32.0612 31.6239 35.0668 31.6239 35.0668C31.6239 35.0668 39.0376 31.2606 35.6308 26.5506C32.5258 22.0431 30.1183 19.8381 43.1439 12.3249C43.1439 12.3249 22.607 17.4343 32.4245 28.7556Z" fill="#F58219"/>
</g>
<defs>
<clipPath id="clip0_30_831">
<rect width="60" height="60" fill="white"/>
</clipPath>
</defs>
</svg>
