<svg width="60" height="60" viewBox="0 0 60 60" fill="none" xmlns="http://www.w3.org/2000/svg">
<path fill-rule="evenodd" clip-rule="evenodd" d="M58.6071 44.1234L58.3385 44.8195C53.7623 53.7314 45.6527 59.1988 34.0859 59.44C28.6787 59.5515 23.5266 58.164 20.1609 56.6555C12.8977 53.392 6.78834 47.3401 3.45204 40.8739C-1.33394 31.6046 -2.19707 18.7103 7.75435 9.07959C7.90801 9.07959 6.54717 11.1679 6.70082 11.1679L6.42692 12.0591C-0.744043 34.51 21.3494 53.7501 42.8262 51.5495C47.9876 51.0204 54.5693 48.1938 58.6071 44.1234Z" fill="#21609B"/>
<path fill-rule="evenodd" clip-rule="evenodd" d="M45.6104 34.8398C51.0137 34.8765 56.6574 32.3512 59.9998 28.8058C57.0757 36.228 48.6093 40.9986 37.2563 39.4815C27.7498 38.2095 18.6943 28.6435 17.7617 19.0582C17.0796 12.0823 19.5106 7.91894 23.517 2.86841C22.1248 5.50992 21.6043 7.54683 21.4747 8.84621C19.9529 23.9364 33.5292 34.7603 45.6104 34.8398Z" fill="#21609B"/>
<path fill-rule="evenodd" clip-rule="evenodd" d="M59.4574 16.0969C58.6176 18.0236 53.7815 21.6619 51.6457 22.1168C43.1888 23.9186 37.7728 19.9082 34.9355 15.3447C34.514 14.6633 33.7344 12.802 33.5948 12.3284C32.4945 8.58725 33.0002 2.92878 36.2824 0C35.2936 2.78514 35.1493 6.01989 35.6697 8.12294C35.9851 9.39426 36.9457 11.6142 37.9071 13.0105C39.6561 15.5538 40.7657 16.1717 43.0124 17.5226C44.0245 18.1305 45.1101 18.6182 45.5791 18.7518C47.7095 19.3791 52.2069 21.0312 59.4574 16.0969Z" fill="#21609B"/>
</svg>
