<svg width="60" height="55" viewBox="0 0 60 55" fill="none" xmlns="http://www.w3.org/2000/svg">
<g clip-path="url(#clip0_654_2943)">
<path fill-rule="evenodd" clip-rule="evenodd" d="M0.0909326 0H5.66623V36.9998H27.7141V41.5614H0.0906982V0H0.0909326ZM42.9194 10.8973C46.7207 10.3904 50.7757 11.1506 53.8166 13.6849C57.1114 15.9657 58.8853 20.0204 59.1384 23.8218C59.6455 28.3833 59.1384 32.9451 56.6043 36.7465C54.3235 39.7875 50.7757 41.8149 46.7207 42.0682C42.9194 42.5751 38.6114 41.8149 35.3168 39.2806C32.2756 36.7465 30.755 32.9451 30.2482 29.1437C29.7415 25.0888 30.2482 20.5273 32.7825 16.9794C34.81 13.4316 38.8647 11.1506 42.9194 10.8973ZM43.6798 15.2055C46.2139 14.952 49.0015 15.7121 51.029 17.4863C52.8029 19.5135 53.8166 22.0479 54.0702 24.5819C54.3235 27.3698 54.0702 30.4108 52.8029 32.9451C51.5359 35.4792 49.2551 37.2534 46.4674 37.76C43.9331 38.2669 41.1457 37.5067 39.3715 35.9861C37.3441 34.4655 36.077 32.1847 35.5702 29.9039C35.0633 26.6094 35.3168 23.3149 36.5839 20.2739C37.8509 17.4863 40.6386 15.4588 43.6795 15.2053L43.6798 15.2055Z" fill="black"/>
<path fill-rule="evenodd" clip-rule="evenodd" d="M0.0909424 48.1504H59.8988V54.4861H0.0909424V48.1504Z" fill="#3492FF"/>
</g>
<defs>
<clipPath id="clip0_654_2943">
<rect width="60" height="54.6" fill="white"/>
</clipPath>
</defs>
</svg>
