<svg width="60" height="59" viewBox="0 0 60 59" fill="none" xmlns="http://www.w3.org/2000/svg">
<g clip-path="url(#clip0_3552_537)">
<path d="M0.103516 0.102539L51.3955 54.4334C51.3955 54.4334 53.1431 55.6659 54.4792 54.2279C55.8155 52.7901 54.7876 51.3523 54.7876 51.3523L0.10375 0.102773L0.103516 0.102539ZM16.3443 5.2378L55.4044 47.3466C55.4044 47.3466 57.1518 48.5794 58.4881 47.1414C59.8244 45.7036 58.7965 44.2658 58.7965 44.2658L16.3443 5.2378ZM4.93458 16.2273L43.9944 58.3362C43.9944 58.3362 45.7418 59.5687 47.0781 58.1307C48.4144 56.6929 47.3865 55.2551 47.3865 55.2551L4.93458 16.2273ZM30.0735 9.65406L57.3627 39.0731C57.3627 39.0731 58.5837 39.9341 59.5172 38.9297C60.4506 37.925 59.7325 36.9205 59.7325 36.9205L30.0735 9.65406ZM8.69346 28.9626L35.9824 58.3817C35.9824 58.3817 37.2034 59.2427 38.1369 58.238C39.0703 57.2335 38.3522 56.2291 38.3522 56.2291L8.69346 28.9626ZM44.0975 16.0218L56.4658 29.396C56.4658 29.396 57.0698 29.7995 57.5314 29.3287C57.9931 28.8581 57.6381 28.3873 57.6381 28.3873L44.0975 16.0218ZM15.522 42.5196L27.8902 55.8937C27.8902 55.8937 28.4942 56.2973 28.9559 55.8267C29.4176 55.3559 29.0625 54.8853 29.0625 54.8853L15.522 42.5196Z" fill="#DF4F4F"/>
</g>
<defs>
<clipPath id="clip0_3552_537">
<rect width="60" height="58.824" fill="white"/>
</clipPath>
</defs>
</svg>
