<svg width="60" height="60" viewBox="0 0 60 60" fill="none" xmlns="http://www.w3.org/2000/svg">
<path d="M36.524 28.5122L25.5797 32.0859L16.0584 36.2882L13.3946 36.9914C12.7162 37.6367 12.0049 38.2903 11.2356 38.952C10.3918 39.6799 9.60593 40.3418 9.00195 40.8215C8.33194 41.351 7.33925 42.3437 6.83469 42.9722C6.08186 43.9153 5.48628 44.9162 5.22982 45.6856C4.7748 47.0754 4.99827 48.4816 5.87511 49.7805C7.00013 51.4349 9.24197 53.1224 11.8559 54.2722C13.1879 54.8597 15.4296 55.6124 17.1171 56.0342C19.9214 56.7457 25.3481 57.515 28.3343 57.6309C28.9381 57.6557 29.7488 57.6557 29.7818 57.6309C29.8481 57.5894 30.3114 56.7044 30.8492 55.6042C32.6856 51.8568 34.0091 48.341 34.7288 45.3382C35.1589 43.5184 35.498 41.0946 35.7213 38.2242C35.7793 37.4217 35.8041 34.7332 35.7544 33.8232C35.6799 32.3342 35.5476 31.1266 35.3409 29.9436C35.3078 29.7698 35.2994 29.6126 35.316 29.6044C35.349 29.5796 35.4483 29.5465 36.7967 29.1576L36.5238 28.5125V28.5123H36.524V28.5122ZM34.0258 29.9765C34.125 29.9765 34.3897 32.516 34.4558 34.121C34.4724 34.4601 34.464 34.6835 34.4476 34.6835C34.3815 34.6835 33.0495 33.8977 32.0984 33.3021C31.2711 32.7809 29.6994 31.7385 29.4513 31.54C29.3684 31.4822 29.3766 31.4739 30.0551 31.2422C31.2048 30.8533 33.9348 29.9765 34.0258 29.9765ZM28.4502 31.813C28.5247 31.813 28.7148 31.9204 29.1699 32.2018C30.8739 33.2689 33.1902 34.5594 34.1829 34.9896C34.4889 35.122 34.5219 35.0722 33.8189 35.5521C32.3133 36.5779 30.4354 37.587 28.1357 38.6046C27.7304 38.7865 27.3913 38.9271 27.3831 38.9271C27.3666 38.9271 27.4161 38.7204 27.4822 38.4722C28.0364 36.4123 28.3508 34.3277 28.3675 32.6567C28.3757 31.8294 28.3757 31.8294 28.4502 31.8047C28.4336 31.813 28.4418 31.813 28.4502 31.813ZM27.3004 32.2514C27.3499 32.3009 27.3169 34.154 27.2507 34.6586C27.1018 35.8664 26.8701 36.9914 26.4897 38.2572C26.3987 38.563 26.3159 38.8196 26.2995 38.8361C26.2662 38.8774 25.1329 37.769 24.7607 37.3388C24.1154 36.5943 23.6109 35.8498 23.2387 35.1218C23.0484 34.7496 22.7507 34.0217 22.7754 33.9968C22.9077 33.9058 27.2673 32.2183 27.3004 32.2514ZM21.8902 34.3773C21.8985 34.3773 21.9067 34.3773 21.9151 34.3856C21.9316 34.4021 21.9896 34.5345 22.0392 34.6834C22.3038 35.4031 22.8993 36.4619 23.4124 37.1403C23.9749 37.8848 24.7112 38.6789 25.3232 39.2001C25.5218 39.3655 25.7037 39.5226 25.7285 39.5475C25.7782 39.5972 25.7947 39.5888 24.4463 40.1018C22.883 40.6974 21.1788 41.2929 19.2265 41.9216C18.7601 42.072 18.2942 42.2236 17.8287 42.3766C17.7541 42.4015 17.779 42.3601 17.994 42.021C18.9619 40.5071 20.4343 37.5374 21.2616 35.4362C21.4022 35.0722 21.5428 34.7083 21.5677 34.6255C21.6008 34.5096 21.6421 34.4683 21.7496 34.4104C21.8075 34.394 21.8655 34.3773 21.8902 34.3773ZM20.2359 35.0639C20.2607 35.0806 19.8388 35.9656 19.4251 36.7763C18.6227 38.3397 17.7459 39.8785 16.5712 41.748C16.3727 42.0706 16.1825 42.3684 16.1576 42.4015C16.1163 42.4595 16.0997 42.4428 15.9673 42.1864C15.6861 41.6322 15.4544 40.9207 15.3303 40.2672C15.2062 39.6219 15.2311 38.4969 15.3718 37.8021C15.4792 37.2893 15.471 37.2975 15.7192 37.1734C16.778 36.6357 20.2028 35.0309 20.2359 35.0639ZM34.5055 35.6431V35.9905C34.5055 37.8352 34.307 40.3665 34.0174 42.2113C33.9678 42.5339 33.9263 42.7985 33.9181 42.8069C33.9181 42.8069 33.6783 42.7408 33.397 42.6579C32.1562 42.2691 30.8078 41.6983 29.5917 41.0284C28.7892 40.5899 27.6229 39.8701 27.656 39.837C27.6642 39.8288 28.0117 39.6468 28.417 39.4317C30.0385 38.588 31.5936 37.678 32.942 36.7764C33.4466 36.4372 34.2075 35.8913 34.3732 35.7423L34.5055 35.6431ZM13.9902 38.0915C14.0233 38.0915 14.015 38.1577 13.9654 38.4555C13.9323 38.6707 13.8909 39.0677 13.8745 39.3406C13.8082 40.5484 14.0068 41.4419 14.6024 42.6661C14.7679 43.0053 14.9003 43.2866 14.8919 43.2948C14.834 43.3445 9.35782 44.9494 7.63706 45.4208C7.12422 45.5614 6.6776 45.6855 6.64433 45.6937C6.58654 45.7103 6.57823 45.7021 6.60302 45.5613C6.79326 44.3454 7.7198 42.7571 9.01023 41.4169C9.87059 40.5236 10.5572 40.0024 11.7319 39.3323C12.5756 38.8526 13.8744 38.133 13.9736 38.0998C13.9737 38.0915 13.982 38.0915 13.9902 38.0915ZM26.895 40.3995C26.9033 40.3913 27.1018 40.4989 27.3416 40.6394C29.112 41.6652 31.5771 42.6166 33.6781 43.1046L33.8685 43.146L33.6037 43.2948C32.5036 43.907 28.8886 45.4125 25.1909 46.794C24.6531 46.9925 24.1238 47.1911 24.0244 47.2324C23.9251 47.2737 23.8341 47.2986 23.8341 47.2904C23.8341 47.282 23.9831 46.9925 24.1732 46.6368C25.2073 44.7011 26.2497 42.3435 26.7791 40.7056C26.8454 40.5484 26.8866 40.4079 26.895 40.3995ZM25.5797 40.8297C25.5881 40.8382 25.5219 41.0117 25.4391 41.2102C24.7194 42.9557 23.7763 44.8584 22.5686 46.9926C22.2626 47.5387 22.0061 47.9771 21.9977 47.9771C21.9895 47.9771 21.7413 47.8281 21.4435 47.6462C19.6897 46.5707 18.1346 45.2472 17.1172 43.965L16.9682 43.783L17.7209 43.5761C20.4177 42.84 22.709 42.0458 24.984 41.0697C25.3067 40.9373 25.5715 40.8297 25.5797 40.8297ZM33.7528 43.6837C33.761 43.8739 33.3391 45.5781 32.9916 46.8105C32.7021 47.8446 32.4538 48.6553 31.999 50.0863C31.8005 50.7152 31.6268 51.2362 31.6185 51.2362C31.6102 51.2362 31.5606 51.2279 31.511 51.2115C29.0541 50.7646 26.8537 50.1443 24.7856 49.3171C24.2064 49.0854 23.3793 48.7131 23.3296 48.6718C23.3132 48.6551 23.8095 48.4236 24.4382 48.1506C28.2021 46.5044 32.1066 44.6349 33.4466 43.8326C33.6038 43.7333 33.7279 43.6837 33.7528 43.6837ZM14.8837 44.329C14.9002 44.3454 13.8496 45.8593 12.3771 47.9191C11.8642 48.6388 11.2687 49.4825 11.0454 49.7969C10.822 50.1112 10.4828 50.6076 10.2926 50.9054L9.94497 51.4431L9.5727 51.1288C9.13424 50.7647 8.37329 49.9872 8.03413 49.557C7.32266 48.672 6.84296 47.7372 6.65269 46.8852C6.56167 46.4881 6.56167 46.2894 6.64429 46.2647C6.76835 46.2317 8.97708 45.7105 11.0453 45.2306C12.1951 44.966 13.5269 44.6516 14.0067 44.5358C14.4865 44.4198 14.8754 44.329 14.8837 44.329ZM15.9425 44.7343L16.2071 45.0321C17.3984 46.3639 18.6144 47.3485 20.0869 48.2086C20.3517 48.3576 20.5502 48.4899 20.5335 48.4983C20.4758 48.5396 15.4213 50.3345 13.0802 51.1453C11.765 51.6085 10.6813 51.9807 10.6731 51.9807C10.6649 51.9807 10.5904 51.9312 10.5075 51.8732L10.3587 51.7656L10.5986 51.4183C11.3761 50.2932 12.3524 49.0607 14.4784 46.4963L15.9425 44.7343ZM22.5439 49.4577C22.552 49.4495 22.916 49.5817 23.3626 49.7474C24.4382 50.1527 25.2901 50.409 26.4318 50.6986C27.8381 51.0544 29.873 51.4018 31.0726 51.501C31.2546 51.5175 31.3538 51.5341 31.3207 51.559C31.2627 51.5921 30.0468 51.9974 29.1534 52.2787C27.7304 52.7253 23.3876 54.0075 19.847 55.025C19.1935 55.2153 18.631 55.3725 18.5979 55.3807C18.5153 55.3973 18.2422 55.3227 18.2422 55.2897C18.2422 55.2732 18.4407 55.0168 18.6806 54.7355C19.8718 53.3126 21.0548 51.7244 22.0392 50.2188C22.3121 49.8051 22.5439 49.466 22.5439 49.4577ZM21.0878 49.4992C21.096 49.5074 20.5088 50.4504 19.4831 52.0717C19.0446 52.7583 18.5565 53.5359 18.3827 53.8089C18.2173 54.0736 17.9692 54.4873 17.8286 54.7189L17.5886 55.1408L17.4646 55.1077C17.1667 55.025 15.0739 54.2887 14.5196 54.0654C13.833 53.7923 13.1216 53.4615 12.5921 53.1803C11.9304 52.8245 11.1032 52.295 11.1693 52.2786C11.1858 52.2704 12.3192 51.9642 13.684 51.592C17.3074 50.6075 19.3175 50.0368 20.6329 49.6232C20.8728 49.5487 21.0796 49.4908 21.0878 49.4992ZM31.3868 51.9145H31.3951C31.4282 51.9973 30.0882 55.7199 29.5999 56.8945C29.4925 57.1592 29.4513 57.2255 29.3932 57.217C29.2526 57.2089 27.3087 56.9359 26.1256 56.7621C24.0659 56.4478 20.608 55.8438 19.7395 55.6454L19.541 55.6041L20.7734 55.3226C23.4206 54.727 24.6945 54.4045 25.985 54.0074C27.6147 53.5111 29.2278 52.8906 30.8574 52.1296C31.1138 52.0138 31.3289 51.9228 31.3868 51.9145Z" fill="url(#paint0_linear_3583_2111)"/>
<path d="M25.2406 3.00042C25.0586 2.97574 22.1219 4.03458 20.2276 4.80381C17.6714 5.84624 15.6861 6.83897 14.4618 7.6991C14.0069 8.02186 13.436 8.59257 13.3451 8.81588C13.312 8.89862 13.2954 8.99788 13.2954 9.09714L14.404 10.1477L17.0427 10.9915L23.3215 12.1166L30.5017 13.3492L30.5762 12.7287C30.5515 12.7287 30.5348 12.7205 30.5102 12.7205L29.5669 12.5715L29.3768 12.2324C28.4006 10.5117 27.3253 8.37746 26.6966 6.93807C26.2086 5.82129 25.7453 4.53094 25.4888 3.6044C25.3482 3.04189 25.3317 3.00882 25.2408 3.00058V3.00039H25.2406V3.00042ZM25.1081 3.42244H25.1166C25.1247 3.4306 25.1578 3.66238 25.191 3.93521C25.3315 5.09349 25.5881 6.21008 25.9934 7.41788C26.2994 8.32787 26.2994 8.27828 25.9438 8.17067C25.1 7.93912 21.3196 7.28559 18.5815 6.90508C18.143 6.84713 17.7707 6.78926 17.7707 6.78102C17.7377 6.74795 19.7478 5.69728 20.6329 5.28377C21.7662 4.76249 24.8766 3.46375 25.1081 3.42244ZM17.1336 7.12839L17.4564 7.23581C19.21 7.83151 23.619 8.67531 26.0512 8.87383C26.3241 8.89866 26.5559 8.92353 26.564 8.92353C26.5722 8.93177 26.3408 9.05586 26.0429 9.19643C24.8683 9.78378 23.5778 10.5035 22.6844 11.0578C22.4197 11.2231 22.1797 11.3556 22.1467 11.3556C22.1136 11.3556 21.94 11.3225 21.758 11.2976L21.4271 11.2479L20.6 10.4372C19.144 9.02271 18.0024 7.9308 17.5639 7.5171L17.1336 7.12839ZM16.8029 7.38477L17.9693 8.84075C18.6061 9.64317 19.2514 10.429 19.3922 10.6026C19.5327 10.7765 19.6485 10.9172 19.6403 10.9254C19.6072 10.9502 17.9529 10.6275 17.0759 10.4291C16.1742 10.2222 15.802 10.1229 15.2477 9.94929L14.7927 9.80033V9.68444C14.8009 9.13017 15.5042 8.303 16.6953 7.45931L16.8029 7.38477ZM26.713 9.37015C26.7462 9.37015 26.7874 9.44458 26.8867 9.66793C27.1679 10.2883 28.045 11.9594 28.2598 12.282C28.3262 12.3896 28.4418 12.3979 27.2756 12.2076C24.4713 11.7525 23.5696 11.6038 23.5696 11.5872C23.5696 11.579 23.6523 11.521 23.7598 11.4631C24.6285 10.9834 25.5053 10.3712 26.2829 9.71763C26.4732 9.56043 26.6469 9.41154 26.6799 9.38667C26.6882 9.37015 26.7048 9.36191 26.713 9.37015Z" fill="url(#paint1_linear_3583_2111)"/>
<path d="M13.403 8.69995C13.403 8.69995 13.2211 8.9896 13.3948 9.41978C13.5024 9.6844 13.8167 10.007 14.1723 10.3379C14.1723 10.3379 17.8535 13.9281 18.3002 14.441C20.3351 16.7903 21.2203 19.1066 21.3031 22.2997C21.3527 24.3512 20.9638 26.1546 19.996 28.2475C18.2754 32.0031 14.6438 36.1476 9.04346 40.747L9.86254 40.474C10.3919 40.0768 11.1117 39.6551 12.7991 38.7285C16.6953 36.5942 21.0797 34.6336 26.4567 32.6152C34.1994 29.7033 46.9306 26.2951 54.177 25.1867L54.9299 25.0708L54.814 24.8888C54.1523 23.863 53.6972 23.2261 53.1512 22.5478C51.563 20.579 49.6357 18.9825 47.278 17.6589C44.0352 15.8473 39.841 14.4328 34.5304 13.3822C33.5294 13.1836 31.329 12.8031 29.5422 12.5301C25.7534 11.9429 23.3049 11.5375 20.6081 11.0742C19.6404 10.9087 18.1926 10.6606 17.233 10.4539C16.7367 10.3462 15.7855 10.1229 15.0409 9.86648C14.4454 9.63473 13.585 9.40311 13.403 8.69995ZM15.5374 10.7681C15.5455 10.7599 15.6778 10.8094 15.8517 10.8674C16.166 10.9748 16.5713 11.0989 17.0512 11.2314C17.4143 11.3312 17.7783 11.4277 18.1432 11.5209C18.6395 11.6449 19.053 11.7607 19.0613 11.7607C19.1193 11.8187 19.9548 14.4904 20.2361 15.5162C20.3434 15.9051 20.4263 16.2359 20.4181 16.2359C20.4096 16.2443 20.3187 16.1036 20.2112 15.9134C19.2433 14.2092 17.7129 12.4804 15.9426 11.0906C15.7111 10.9253 15.5374 10.7764 15.5374 10.7681ZM19.6073 11.8931C19.6487 11.8931 19.8307 11.918 20.0539 11.9676C21.4602 12.2819 23.9833 12.7617 25.5964 13.0347C25.8694 13.076 26.0845 13.1258 26.0845 13.1422C26.0845 13.1588 25.9852 13.2166 25.861 13.2829C25.5882 13.4235 24.4879 14.0769 24.124 14.3251C23.2057 14.9373 22.3785 15.599 21.7829 16.1946C21.543 16.4346 21.3361 16.6331 21.3361 16.6331C21.3361 16.6331 21.2866 16.4925 21.2451 16.3187C20.9475 15.1688 20.3269 13.4647 19.7644 12.2653C19.6734 12.0751 19.5989 11.9013 19.5989 11.8849C19.5989 11.9014 19.5989 11.8931 19.6073 11.8931ZM26.771 13.2581C26.8207 13.2745 26.9034 13.5558 27.0688 14.1762C27.3749 15.3758 27.5156 16.7159 27.466 17.965C27.4493 18.3124 27.4329 18.635 27.4162 18.6764L27.3915 18.7591L26.9613 18.6185C26.0762 18.3372 24.6369 17.9153 23.4043 17.5679C22.7011 17.3776 22.1304 17.2039 22.1304 17.1874C22.1304 17.1377 23.1562 16.112 23.5946 15.7232C24.4299 14.9869 26.6965 13.2332 26.771 13.2581ZM27.3418 13.3407C27.3667 13.316 30.7666 13.9032 32.3135 14.201C33.4635 14.4244 35.1344 14.7718 35.2336 14.8133C35.2832 14.8297 35.1095 14.929 34.5552 15.1771C32.3714 16.1616 30.7499 17.0466 29.137 18.1221C28.7151 18.4034 28.3594 18.635 28.3511 18.635C28.3429 18.635 28.3346 18.3952 28.3346 18.1056C28.3346 16.5339 28.0202 14.9456 27.4411 13.6055C27.3832 13.4731 27.3336 13.3491 27.3418 13.3407ZM36.1353 15.078C36.1601 15.1028 36.0525 15.7729 35.9533 16.1699C35.6555 17.4025 34.8531 19.2308 33.8688 20.9513C33.6949 21.2574 33.5378 21.5056 33.5211 21.5138C33.5048 21.522 33.2814 21.3979 33.0249 21.249C32.0653 20.6865 30.9734 20.1571 29.7822 19.6607C29.4514 19.5201 29.1618 19.4042 29.1535 19.3878C29.0955 19.3381 31.7592 17.5761 33.1655 16.7324C34.2823 16.0541 36.1021 15.0448 36.1353 15.078ZM36.7639 15.1772C36.8384 15.1772 38.344 15.5908 39.1297 15.8225C41.0738 16.4016 43.3072 17.2205 44.7632 17.8822L45.367 18.1553L44.9452 18.2545C41.3882 19.0734 38.344 20.0166 35.4073 21.2077C35.1674 21.307 34.9522 21.3897 34.9359 21.3897C34.9192 21.3897 35.002 21.1995 35.1095 20.9678C35.9947 19.09 36.5655 17.1295 36.706 15.4584C36.7144 15.3012 36.739 15.1772 36.7639 15.1772ZM21.7746 18.6185C21.7994 18.5936 22.9493 18.8667 23.5697 19.0403C24.5127 19.3051 26.5145 19.975 26.5145 20.0247C26.5145 20.033 26.2913 20.2233 26.0267 20.455C24.943 21.3566 23.9006 22.3078 22.6514 23.5156C22.2791 23.8714 21.9649 24.1609 21.9484 24.1609C21.9318 24.1609 21.9236 24.1112 21.9318 24.0451C22.122 22.6553 22.0808 20.8685 21.816 19.0569C21.7911 18.8252 21.7664 18.6267 21.7746 18.6185ZM45.938 18.6434C45.9543 18.6598 45.4085 19.5201 45.0611 20.0081C44.5648 20.7195 43.8366 21.6628 42.1905 23.7308C41.3221 24.8226 40.3458 26.0553 40.0233 26.4689C39.6922 26.8825 39.4194 27.2298 39.411 27.2298C39.4027 27.2298 39.2954 27.081 39.1795 26.8991C38.2529 25.5093 37.1444 24.2932 35.8291 23.2013C35.5809 22.9945 35.3081 22.7711 35.2171 22.7049C35.126 22.6388 35.0515 22.5726 35.0515 22.5644C35.0515 22.5396 36.4577 21.9356 37.525 21.5055C39.3946 20.7444 41.9422 19.8345 43.8532 19.2471C44.8542 18.9328 45.9214 18.6267 45.938 18.6434ZM46.5749 18.8087C46.6079 18.8005 46.8065 18.8998 47.0464 19.0403C49.0566 20.1901 51.0253 21.6709 52.5806 23.193C53.019 23.6233 54.1027 24.7483 54.086 24.7565C54.086 24.7565 53.7055 24.7896 53.2589 24.8226C49.7763 25.0875 45.3176 25.8236 41.0325 26.8576C40.743 26.9237 40.4866 26.9816 40.47 26.9816C40.4536 26.9816 40.7761 26.6591 41.1815 26.2703C43.6962 23.8465 44.8461 22.3162 46.2027 19.5862C46.3929 19.181 46.5584 18.8336 46.5749 18.8087C46.5666 18.8087 46.5666 18.8087 46.5749 18.8087ZM28.1525 20.6949C28.2684 20.7196 29.3438 21.2244 30.1544 21.6296C30.8989 22.0017 32.0158 22.5975 32.0736 22.647C32.0819 22.6553 31.6847 22.8621 31.1969 23.102C29.6415 23.8796 28.3098 24.6158 26.9199 25.4596C26.5229 25.6995 26.192 25.8981 26.1838 25.8981C26.1507 25.8981 26.1589 25.8649 26.3823 25.4596C27.1268 24.103 27.7223 22.4817 28.0616 20.9016C28.0946 20.7775 28.1277 20.6949 28.1525 20.6949ZM27.0771 20.8933C27.1019 20.9182 26.8207 21.9356 26.647 22.4899C26.3078 23.5405 25.737 24.8557 25.1828 25.8484C25.0503 26.08 24.8519 26.4191 24.7443 26.6094L24.5376 26.9403L24.0743 26.4937C23.5367 25.9725 23.0981 25.6499 22.5357 25.3603C22.3122 25.2446 22.1386 25.1452 22.1386 25.1288C22.1386 25.0626 23.5531 23.7804 24.6368 22.8539C25.4144 22.1838 27.0523 20.8685 27.0771 20.8933ZM33.6537 23.5984L34.0591 23.8631C34.9854 24.467 36.0773 25.2694 36.9129 25.9725C37.3843 26.3612 38.2942 27.1803 38.4764 27.3788L38.5755 27.4865L37.9056 27.6767C34.1168 28.7271 31.1885 29.6619 27.772 30.9194C27.3915 31.06 27.0688 31.1758 27.0439 31.1758C26.9945 31.1758 26.953 31.2171 27.8051 30.4312C29.9891 28.4212 31.9247 26.2041 33.3641 24.045L33.6537 23.5984ZM31.9247 24.0286C31.9412 24.0451 30.808 25.6416 30.1296 26.5433C29.3189 27.6187 27.8795 29.422 26.8868 30.5966C26.4733 31.0848 26.1177 31.4901 26.101 31.4984C26.0762 31.5066 26.0679 31.3826 26.0679 31.1923C26.0679 30.1912 25.8115 29.1241 25.3648 28.2143C25.1745 27.8337 25.1414 27.7427 25.1829 27.7014C25.34 27.5607 27.7472 26.1875 29.2693 25.3686C30.295 24.8227 31.8997 24.012 31.9247 24.0286ZM21.4685 26.593C21.4933 26.593 21.6836 26.6922 21.8987 26.8081C22.4281 27.0975 22.8997 27.4202 23.3215 27.7677C23.338 27.7842 23.123 27.9579 22.8418 28.1646C22.0559 28.7271 20.8647 29.6289 20.1699 30.1832C19.4418 30.7622 19.4171 30.7787 19.4998 30.6547C20.0458 29.8192 20.3187 29.3476 20.6083 28.7438C20.8647 28.2062 21.1211 27.5692 21.3031 27.0149C21.3692 26.775 21.452 26.593 21.4685 26.593ZM24.2563 28.7768C24.2976 28.7686 24.3474 28.843 24.5706 29.1739C25.0421 29.877 25.4061 30.8201 25.4973 31.5812L25.5136 31.7467L24.3805 32.1851C22.3536 32.9709 20.4842 33.7486 19.2184 34.3275C18.8628 34.493 18.2423 34.7908 17.8371 34.9894C17.4317 35.1961 17.1008 35.3533 17.1008 35.3451C17.1008 35.3368 17.3572 35.1466 17.6715 34.9149C20.1451 33.1199 22.2875 31.151 23.8923 29.1822C24.0661 28.9754 24.2233 28.7851 24.2397 28.7768L24.2563 28.7768ZM22.9742 29.0912C23.0073 29.1243 22.0642 30.1914 21.419 30.8448C19.8224 32.4746 18.2424 33.7486 16.2818 34.9894C16.0337 35.1466 15.8104 35.2871 15.7855 35.3038C15.7276 35.3368 15.802 35.2541 16.6623 34.3193C17.2084 33.7319 17.6219 33.2356 18.0934 32.6236C18.4078 32.2183 18.4657 32.1603 18.9208 31.8376C20.1368 30.9607 22.941 29.0581 22.9742 29.0912Z" fill="url(#paint2_radial_3583_2111)"/>
<defs>
<linearGradient id="paint0_linear_3583_2111" x1="13.2338" y1="52.2436" x2="17.1912" y2="49.9052" gradientUnits="userSpaceOnUse">
<stop stop-color="#909CA9"/>
<stop offset="1" stop-color="#EDEDEE"/>
</linearGradient>
<linearGradient id="paint1_linear_3583_2111" x1="13.3244" y1="8.15861" x2="16.5087" y2="8.15861" gradientUnits="userSpaceOnUse">
<stop stop-color="#939FAB"/>
<stop offset="1" stop-color="#DCDEE1"/>
</linearGradient>
<radialGradient id="paint2_radial_3583_2111" cx="0" cy="0" r="1" gradientUnits="userSpaceOnUse" gradientTransform="translate(29.3923 22.7625) rotate(-171.457) scale(4.10539 8.21281)">
<stop stop-color="#EE352C"/>
<stop offset="1" stop-color="#A91D22"/>
</radialGradient>
</defs>
</svg>
