<svg width="60" height="60" viewBox="0 0 60 60" fill="none" xmlns="http://www.w3.org/2000/svg">
<g clip-path="url(#clip0_654_3335)">
<path d="M60 55.4048V4.59534C60 2.51081 58.6118 0.751587 56.7101 0.189087L54.5504 1.48143L30.582 27.037L29.8306 29.3856L29.3916 31.6403L36.8658 59.5731L38.022 59.9997H55.4049C57.9427 59.9997 60 57.9426 60 55.4048Z" fill="#EA6618"/>
<path d="M0 4.59516V55.4046C0 56.9761 0.789141 58.3624 1.99219 59.1909L3.4657 58.4855L28.8359 31.3228L29.8305 29.3857L29.8678 27.513L22.9631 1.24359L21.9171 0H4.59516C2.05734 0 0 2.05734 0 4.59516Z" fill="#D65813"/>
<path d="M29.8306 29.3859L56.7101 0.188897C56.2863 0.0633589 55.8466 -0.000344896 55.4046 -0.000244021H21.9176L29.8308 29.3857L29.8306 29.3859Z" fill="#E05E11"/>
<path d="M4.59515 60H38.0222L29.8305 29.3857L1.99194 59.1912C2.75727 59.7192 3.66536 60.0013 4.59515 60Z" fill="#DE5C16"/>
<path d="M22.2464 22.7414H25.5803C26.9088 27.7537 28.4207 32.152 30.1075 36.1207C32.0182 31.6559 33.4185 27.2543 34.604 22.7412H37.7545C36.3435 28.3488 34.0354 34.0005 31.3954 39.8341H28.6087C26.0728 34.3062 23.9142 28.6226 22.2464 22.7414ZM11.2495 14.0566H18.6628V45.8466H11.2167V43.3959H15.7804V16.4419H11.2495V14.0566ZM48.7891 16.4419H44.2582V43.3959H48.8214V45.8466H41.3756V14.0566H48.7889V16.4419H48.7891Z" fill="white"/>
</g>
<defs>
<clipPath id="clip0_654_3335">
<rect width="60" height="60" fill="white"/>
</clipPath>
</defs>
</svg>
