<svg width="60" height="60" viewBox="0 0 60 60" fill="none" xmlns="http://www.w3.org/2000/svg">
<g clip-path="url(#clip0_823_964)">
<path d="M30 60C46.5685 60 60 46.5685 60 30C60 13.4315 46.5685 0 30 0C13.4315 0 0 13.4315 0 30C0 46.5685 13.4315 60 30 60Z" fill="#13AA52"/>
<path d="M38.0196 26.3344C36.1247 17.9713 31.6464 15.2215 31.1641 14.1709C30.6368 13.4297 30.1024 12.1113 30.1024 12.1113C30.0936 12.0891 30.0796 12.0498 30.0631 12.0117C30.0087 12.7529 29.9805 13.0389 29.2798 13.7865C28.1946 14.635 22.627 19.3066 22.1741 28.8082C21.7516 37.6699 28.5755 42.9504 29.4983 43.6236L29.6032 43.698V43.6916C29.609 43.7361 29.8962 45.801 30.0977 47.9889H30.8208C30.9904 46.4423 31.2447 44.9062 31.5825 43.3875L31.6411 43.3494C32.0539 43.0534 32.4475 42.7315 32.8194 42.3855L32.8616 42.3475C34.8233 40.5352 38.3501 36.3434 38.3155 29.6602C38.3082 28.5453 38.2092 27.433 38.0196 26.3344ZM30.021 38.6203C30.021 38.6203 30.021 26.1914 30.4311 26.1938C30.751 26.1938 31.1653 42.2256 31.1653 42.2256C30.5958 42.157 30.021 39.5871 30.021 38.6203Z" fill="white"/>
</g>
<defs>
<clipPath id="clip0_823_964">
<rect width="60" height="60" fill="white"/>
</clipPath>
</defs>
</svg>
