<svg width="60" height="60" viewBox="0 0 60 60" fill="none" xmlns="http://www.w3.org/2000/svg">
<path fill-rule="evenodd" clip-rule="evenodd" d="M13.6548 10.1002C12.9723 10.0875 12.4894 10.1742 11.9792 10.2862V10.3788H12.0725C12.3986 11.0477 12.9736 11.4785 13.3759 12.0547C13.6852 12.7066 13.9954 13.3574 14.3057 14.0083C14.3373 13.9773 14.3686 13.9466 14.399 13.9156C14.9762 13.5099 15.2393 12.8603 15.2368 11.8684C15.0053 11.6249 14.9708 11.3207 14.7709 11.0307C14.5059 10.6439 13.9904 10.4253 13.6548 10.1002ZM58.6967 57.8423C59.136 58.1646 59.4304 58.6643 60 58.8667V58.7734C59.7002 58.3933 59.624 57.8686 59.3488 57.4701C58.9465 57.0678 58.5411 56.6639 58.1388 56.26C56.9553 54.6898 55.4546 53.3115 53.8581 52.166C52.5864 51.2516 49.7362 50.0182 49.2048 48.5371C49.1745 48.5055 49.1429 48.4742 49.1112 48.4425C50.0135 48.3413 51.0708 48.0149 51.9036 47.7913C53.3027 47.4163 54.5536 47.5137 55.9976 47.1402C56.6501 46.9532 57.301 46.7666 57.9522 46.5823V46.2087C57.2219 45.4592 56.7013 44.4674 55.9056 43.789C53.8208 42.0154 51.5471 40.2417 49.2045 38.7641C47.9066 37.9437 46.3003 37.4115 44.9235 36.7163C44.4605 36.4829 43.6477 36.3611 43.3413 35.9718C42.6192 35.0496 42.2248 33.881 41.6669 32.8072C40.4993 30.5576 39.3509 28.1009 38.3158 25.7339C37.6108 24.1203 37.1494 22.5289 36.2692 21.0807C32.0436 14.1332 27.494 9.93953 20.4486 5.81762C18.9482 4.94124 17.1436 4.59524 15.2368 4.14298C14.2137 4.08131 13.1886 4.01837 12.1655 3.9567C11.5409 3.69578 10.8913 2.93168 10.3046 2.5607C7.96992 1.08626 1.98203 -2.12164 0.253943 2.09578C-0.837811 4.75717 1.88462 7.35436 2.85904 8.70356C3.54312 9.64951 4.4176 10.7106 4.90718 11.7742C5.2282 12.4735 5.28291 13.1753 5.55964 13.915C6.23582 15.738 6.82345 17.721 7.69824 19.406C8.14133 20.2581 8.62933 21.1566 9.18849 21.9185C9.53164 22.3862 10.118 22.5921 10.21 23.3145C9.63665 24.1187 9.60375 25.3667 9.28148 26.3854C7.82665 30.9719 8.37537 36.6717 10.4915 40.0665C11.1399 41.108 12.6693 43.3437 14.7709 42.4856C16.6094 41.7367 16.1995 39.4153 16.7255 37.3675C16.8437 36.9023 16.7716 36.561 17.0044 36.2508V36.3434C17.5636 37.4602 18.1221 38.5769 18.68 39.6933C19.9204 41.6899 22.1207 43.7779 23.9854 45.185C24.9509 45.9149 25.7122 47.1775 26.963 47.6048V47.5102H26.8697C26.6262 47.1341 26.2473 46.9763 25.9399 46.6737C25.2112 45.9592 24.4013 45.0718 23.7985 44.2536C22.102 41.9515 20.6038 39.4315 19.2388 36.809C18.5864 35.5562 18.0196 34.1745 17.4696 32.9002C17.2581 32.4084 17.2606 31.6655 16.8184 31.4109C16.2163 32.3445 15.3298 33.1004 14.8639 34.2029C14.1194 35.9658 14.0236 38.1155 13.7475 40.3448C13.5843 40.4037 13.6567 40.3635 13.5606 40.4375C12.2639 40.1257 11.8088 38.791 11.3274 37.6461C10.1095 34.7516 9.88333 30.0902 10.9552 26.7577C11.2325 25.8958 12.4875 23.1801 11.9783 22.3837C11.736 21.5886 10.9378 21.1297 10.4909 20.5221C9.93552 19.7713 9.38332 18.7836 8.99937 17.9161C8.00376 15.6592 7.53821 13.1256 6.48852 10.8437C5.98629 9.75356 5.13774 8.64916 4.44069 7.67917C3.669 6.60512 2.80464 5.81445 2.20721 4.5146C1.99436 4.05316 1.70498 3.31468 2.02061 2.83996C2.12024 2.51958 2.26256 2.38612 2.57977 2.28143C3.12027 1.86522 4.62223 2.41996 5.18487 2.65368C6.67638 3.27325 7.92311 3.86372 9.18723 4.70088C9.79351 5.10317 10.4074 5.88182 11.1402 6.0972H11.978C13.2892 6.39797 14.757 6.19113 15.98 6.56274C18.1436 7.22026 20.0823 8.24307 21.843 9.35507C27.2066 12.7413 31.5926 17.5632 34.5927 23.3145C35.0753 24.2405 35.2847 25.1242 35.7091 26.1068C36.5665 28.0876 37.6478 30.1253 38.5011 32.0627C39.3522 33.9945 40.1821 35.9449 41.3855 37.5535C42.018 38.3985 44.4627 38.8521 45.5744 39.322C46.3531 39.6506 47.6286 39.9941 48.3652 40.4375C49.7751 41.2879 51.1391 42.2994 52.4605 43.2305C53.1209 43.6963 55.1516 44.7166 55.2516 45.556C51.9791 45.4693 49.4791 45.7732 47.3417 46.674C46.7342 46.9292 45.7661 46.9368 45.6661 47.6968C46.0001 48.0466 46.0529 48.5703 46.3186 49.0001C46.8275 49.8262 47.689 50.9322 48.4585 51.5135C49.2988 52.1476 50.1644 52.826 51.0639 53.3747C52.6658 54.352 54.4546 54.9096 55.9961 55.8878C56.9082 56.4653 57.8105 57.1911 58.6967 57.8423Z" fill="#00758F"/>
</svg>
