<svg width="60" height="60" viewBox="0 0 60 60" fill="none" xmlns="http://www.w3.org/2000/svg">
<g clip-path="url(#clip0_3552_541)">
<path d="M28.0363 0.046893C27.9074 0.0586106 27.4973 0.0996222 27.1282 0.128916C18.6154 0.896419 10.6415 5.48972 5.59125 12.5496C2.77903 16.475 0.980376 20.9277 0.300755 25.644C0.060544 27.2903 0.03125 27.7766 0.03125 30.0088C0.03125 32.241 0.060544 32.7273 0.300755 34.3736C1.9295 45.6284 9.93849 55.0845 20.8007 58.5881C22.7458 59.2149 24.7964 59.6426 27.1282 59.9004C28.0363 60 31.9617 60 32.8698 59.9004C36.8948 59.4552 40.3047 58.4592 43.6676 56.7425C44.1832 56.4789 44.2828 56.4086 44.2125 56.35C44.1656 56.3148 41.9686 53.3679 39.3321 49.8057L34.5396 43.3317L28.5343 34.4439C25.23 29.5577 22.5115 25.562 22.488 25.562C22.4646 25.5561 22.4412 29.505 22.4295 34.3268C22.4119 42.7693 22.406 43.1091 22.3006 43.3083C22.1482 43.5954 22.0311 43.7126 21.785 43.8414C21.5975 43.9352 21.4335 43.9528 20.5488 43.9528H19.5352L19.2657 43.7829C19.0899 43.6715 18.961 43.5251 18.8732 43.3552L18.7501 43.0915L18.7618 31.3446L18.7794 19.5919L18.961 19.3634C19.0548 19.2403 19.254 19.0821 19.3946 19.006C19.6348 18.8888 19.7285 18.8771 20.7421 18.8771C21.9373 18.8771 22.1365 18.924 22.447 19.2638C22.5349 19.3575 25.7865 24.2555 29.6768 30.1553C33.567 36.0551 38.8868 44.111 41.4999 48.0656L46.2455 55.2544L46.4857 55.0962C48.6124 53.7135 50.8622 51.745 52.6433 49.6944C56.4339 45.3413 58.8771 40.0332 59.6973 34.3736C59.9375 32.7273 59.9668 32.241 59.9668 30.0088C59.9668 27.7766 59.9375 27.2903 59.6973 25.644C58.0686 14.3892 50.0596 4.93313 39.1973 1.42957C37.2815 0.808537 35.2427 0.380845 32.9577 0.123057C32.3953 0.0644694 28.5226 2.2538e-05 28.0363 0.046893ZM40.3047 18.174C40.5859 18.3146 40.8144 18.5841 40.8964 18.8654C40.9433 19.0177 40.955 22.2752 40.9433 29.6163L40.9257 40.1504L39.0685 37.303L37.2054 34.4556V26.7982C37.2054 21.8475 37.2288 19.0646 37.2639 18.9298C37.3577 18.6017 37.5627 18.3439 37.844 18.1916C38.0842 18.0686 38.1721 18.0569 39.0919 18.0569C39.959 18.0569 40.1113 18.0686 40.3047 18.174Z" fill="black"/>
<path d="M45.9541 55.3833C45.749 55.5122 45.6846 55.6001 45.8662 55.5005C45.9951 55.4243 46.206 55.2661 46.1708 55.2603C46.1533 55.2603 46.0537 55.3188 45.9541 55.3833ZM45.5498 55.6469C45.4443 55.729 45.4443 55.7348 45.5732 55.6704C45.6435 55.6352 45.7021 55.5942 45.7021 55.5825C45.7021 55.5356 45.6728 55.5473 45.5498 55.6469ZM45.2569 55.8227C45.1514 55.9047 45.1514 55.9106 45.2803 55.8461C45.3506 55.811 45.4092 55.77 45.4092 55.7583C45.4092 55.7114 45.3799 55.7231 45.2569 55.8227ZM44.9639 55.9985C44.8585 56.0805 44.8585 56.0863 44.9874 56.0219C45.0577 55.9867 45.1163 55.9457 45.1163 55.934C45.1163 55.8871 45.087 55.8989 44.9639 55.9985ZM44.5187 56.2328C44.296 56.35 44.3077 56.3969 44.5304 56.2855C44.63 56.2328 44.7061 56.1801 44.7061 56.1684C44.7061 56.1274 44.7003 56.1332 44.5187 56.2328Z" fill="black"/>
</g>
<defs>
<clipPath id="clip0_3552_541">
<rect width="60" height="60" fill="white"/>
</clipPath>
</defs>
</svg>
