<svg width="60" height="60" viewBox="0 0 60 60" fill="none" xmlns="http://www.w3.org/2000/svg">
<path d="M27.554 0.761609C29.0353 -0.0862635 30.9647 -0.0900933 32.4447 0.761609C39.8904 4.96884 47.3385 9.16948 54.783 13.3793C56.1832 14.168 57.1198 15.7263 57.1055 17.3397V42.652C57.116 44.3322 56.0868 45.9278 54.6096 46.6986C47.1883 50.8827 39.7709 55.0718 32.3509 59.2559C30.8389 60.1203 28.8709 60.0537 27.4062 59.1184C25.1813 57.8286 22.9526 56.5452 20.7274 55.2567C20.2728 54.9857 19.7602 54.7699 19.4392 54.3291C19.723 53.9465 20.2304 53.8988 20.6428 53.7318C21.5715 53.4365 22.4245 52.9625 23.2777 52.5025C23.4934 52.3548 23.7568 52.4114 23.9636 52.5435C25.8662 53.6344 27.7519 54.7569 29.6609 55.8374C30.0681 56.0725 30.4804 55.7603 30.8285 55.5663C38.1111 51.4503 45.4026 47.3499 52.6838 43.2327C52.9536 43.1029 53.1028 42.8165 53.0809 42.521C53.086 34.171 53.0821 25.8195 53.0834 17.4695C53.1143 17.1342 52.9202 16.8259 52.617 16.6886C45.2215 12.5237 37.8298 8.35246 30.4355 4.1865C30.3074 4.09843 30.1557 4.05117 30.0002 4.05094C29.8447 4.05072 29.6928 4.09753 29.5645 4.18523C22.1702 8.35246 14.7798 12.5276 7.38553 16.6922C7.08341 16.8297 6.88064 17.1329 6.9166 17.4695C6.91787 25.8195 6.9166 34.171 6.9166 42.5222C6.90378 42.6664 6.93545 42.8111 7.00734 42.9368C7.07924 43.0624 7.18791 43.163 7.31873 43.225C9.29192 44.3439 11.2677 45.455 13.2421 46.5701C14.3545 47.1688 15.7202 47.5246 16.9457 47.0659C18.0272 46.678 18.7853 45.5744 18.7647 44.4261C18.7749 36.1248 18.7596 27.8222 18.7723 19.5222C18.7453 19.1537 19.0949 18.8493 19.4532 18.8839C20.4013 18.8776 21.3506 18.8712 22.2987 18.8865C22.6945 18.8776 22.9668 19.2744 22.9179 19.6457C22.914 27.9995 22.9281 36.3535 22.9115 44.7074C22.914 46.9337 21.9994 49.3563 19.94 50.4457C17.403 51.7599 14.2672 51.4812 11.7609 50.221C9.59107 49.138 7.52043 47.8599 5.38915 46.6997C3.90809 45.9331 2.88404 44.3312 2.89447 42.6522V17.3397C2.87894 15.6929 3.85277 14.1063 5.2966 13.3291C12.7166 9.14161 20.1353 4.95097 27.554 0.761609Z" fill="#8CC84B"/>
<path d="M34.0272 18.2956C37.2634 18.0873 40.7279 18.1722 43.64 19.7665C45.8947 20.9882 47.1447 23.5522 47.1845 26.0571C47.1215 26.395 46.7683 26.5814 46.4457 26.5582C45.5068 26.5569 44.5676 26.571 43.6287 26.5518C43.2304 26.5671 42.9989 26.1999 42.9489 25.8478C42.6791 24.6493 42.0255 23.4622 40.8974 22.8842C39.1657 22.0171 37.1579 22.0607 35.2696 22.0788C33.8911 22.152 32.4087 22.2714 31.2408 23.082C30.3442 23.6961 30.0719 24.9356 30.3919 25.9339C30.6936 26.6507 31.5211 26.882 32.1981 27.0952C36.0981 28.1152 40.2308 28.0137 44.0564 29.3561C45.6402 29.9033 47.1896 30.9671 47.7317 32.6254C48.4408 34.848 48.13 37.5046 46.5487 39.2888C45.2664 40.7571 43.3987 41.5563 41.5359 41.9903C39.0579 42.5429 36.4862 42.5569 33.9696 42.3116C31.6032 42.0418 29.1406 41.4201 27.3138 39.8078C25.7517 38.4514 24.9887 36.338 25.0645 34.2982C25.0825 33.9537 25.4255 33.7135 25.7555 33.7418C26.7011 33.7342 27.6466 33.7316 28.5921 33.7431C28.9698 33.7161 29.2498 34.0424 29.2691 34.3984C29.4436 35.5403 29.8728 36.7388 30.8685 37.4159C32.7902 38.6556 35.2015 38.5707 37.4019 38.6054C39.2249 38.5246 41.2713 38.5001 42.7589 37.2952C43.5438 36.608 43.7764 35.4582 43.5642 34.469C43.3345 33.6339 42.4608 33.2448 41.7106 32.9903C37.8606 31.7724 33.6817 32.2144 29.8689 30.8371C28.3211 30.2901 26.8242 29.2559 26.2296 27.6656C25.3998 25.415 25.78 22.6312 27.527 20.9071C29.2304 19.1922 31.6894 18.532 34.0272 18.2956Z" fill="#8CC84B"/>
</svg>
