<svg width="60" height="60" viewBox="0 0 60 60" fill="none" xmlns="http://www.w3.org/2000/svg">
<path d="M18.4127 50.184C18.3692 50.1071 18.3304 50.0276 18.2965 49.946C18.0626 49.4044 17.9908 48.8067 18.0896 48.2251H4.23973L24.8223 12.0031L31.5797 23.8821L33.5386 20.4155L27.6481 10.0387C27.3658 9.5072 26.9549 9.05498 26.4527 8.72332C25.9506 8.39166 25.3734 8.19116 24.7738 8.14014C24.1754 8.16734 23.5967 8.36192 23.1034 8.70176C22.6102 9.04159 22.2222 9.51303 21.9837 10.0625L1.13198 46.7238C0.820298 47.2415 0.64059 47.8277 0.608666 48.4311C0.576743 49.0345 0.693581 49.6364 0.948903 50.184C1.26957 50.6897 1.72536 51.0956 2.26471 51.3557C2.80405 51.6159 3.40543 51.7199 4.00082 51.656H21.4656C20.8701 51.7208 20.2683 51.6173 19.7288 51.357C19.1893 51.0968 18.7327 50.6904 18.4127 50.184Z" fill="#00C492"/>
<path d="M58.5658 46.7229L41.4306 16.5398C41.1495 16.0027 40.7377 15.545 40.2331 15.2091C39.7285 14.8731 39.1475 14.6696 38.5435 14.6174C37.9459 14.6433 37.3676 14.8367 36.8746 15.1755C36.3816 15.5142 35.9937 15.9848 35.7552 16.5333L33.5391 20.4146L35.5108 23.8821L38.5618 18.4804L55.5139 48.2242H49.0677C49.1501 48.7158 49.1038 49.2204 48.9332 49.6888C48.8973 49.7923 48.8522 49.8925 48.7986 49.9881L48.7437 50.098C48.3935 50.5926 47.9269 50.9933 47.385 51.2648C46.8431 51.5362 46.2427 51.6699 45.6369 51.6541H55.7208C56.3267 51.6704 56.9273 51.5369 57.4692 51.2654C58.0112 50.994 58.4778 50.593 58.8276 50.098C59.1038 49.5672 59.2256 48.9696 59.1794 48.373C59.1331 47.7765 58.9205 47.2048 58.5658 46.7229Z" fill="#008776"/>
<path d="M48.7439 50.0989L48.7988 49.9891C48.8521 49.8934 48.8968 49.7932 48.9325 49.6897C49.1031 49.2213 49.1494 48.7167 49.067 48.2251C48.9719 47.6948 48.7815 47.1862 48.505 46.7239L35.5229 23.8821L33.5393 20.4155L31.5675 23.8821L18.59 46.7239C18.3381 47.1918 18.1687 47.6996 18.0893 48.2251C17.9848 48.8053 18.0507 49.4033 18.2788 49.9469C18.3126 50.0286 18.3515 50.1081 18.3951 50.1849C18.7158 50.6905 19.1717 51.0962 19.711 51.3561C20.2504 51.6161 20.8517 51.72 21.447 51.656H45.6179C46.2266 51.674 46.8304 51.5414 47.3756 51.2699C47.9208 50.9984 48.3905 50.5965 48.743 50.0998L48.7439 50.0989ZM33.5384 27.3496L45.4046 48.2242H21.6776L33.5384 27.3496Z" fill="#2D4A5D"/>
</svg>
