<svg width="70" height="34" viewBox="0 0 70 34" fill="none" xmlns="http://www.w3.org/2000/svg">
<path d="M14.0048 11.1774C16.1971 11.1774 17.6465 11.5759 18.3712 12.3912C19.0959 13.2065 19.277 14.5834 18.8966 16.5401C18.498 18.5874 17.7371 20.0368 16.5957 20.9246C15.4542 21.7942 13.7331 22.229 11.414 22.229H7.91736L10.0733 11.1774H14.0048ZM0 33.4257H5.76137L7.12019 26.3961H12.0482C14.2223 26.3961 16.0159 26.1605 17.4109 25.7076C18.8241 25.2547 20.0923 24.4937 21.2337 23.4067C22.194 22.5189 22.973 21.5406 23.5709 20.4716C24.1688 19.4027 24.5855 18.2251 24.8391 16.9387C25.4551 13.8044 24.9841 11.3766 23.4622 9.61924C21.9403 7.87996 19.5126 6.9922 16.1789 6.9922H5.12726L0 33.4257Z" fill="black"/>
<path d="M29.0813 0H34.7883L33.4295 7.0296H38.5205C41.7273 7.0296 43.9195 7.59124 45.1334 8.69641C46.3473 9.8197 46.7096 11.6133 46.2204 14.1135L43.8289 26.3972H38.0313L40.296 14.7114C40.5497 13.3888 40.4591 12.483 40.0061 11.9938C39.5532 11.5046 38.6111 11.2691 37.1436 11.2691H32.5779L29.6429 26.3972H23.9359L29.0813 0Z" fill="black"/>
<path d="M58.9031 11.1774C61.0953 11.1774 62.5447 11.5759 63.2694 12.3912C63.9941 13.2065 64.1753 14.5834 63.7948 16.5401C63.3962 18.5874 62.6353 20.0368 61.4939 20.9246C60.3525 21.7942 58.6313 22.229 56.3123 22.229H52.8156L54.9716 11.1774H58.9031ZM44.8982 33.4257H50.6596L52.0184 26.3961H56.9464C59.1205 26.3961 60.9141 26.1605 62.3092 25.7076C63.7223 25.2547 64.9906 24.4937 66.132 23.4067C67.0922 22.5189 67.8712 21.5406 68.4691 20.4716C69.067 19.4027 69.4837 18.2251 69.7373 16.9387C70.3533 13.8044 69.8823 11.3766 68.3604 9.61924C66.8385 7.87996 64.4108 6.9922 61.0772 6.9922H50.0074L44.8982 33.4257Z" fill="black"/>
</svg>
