<svg width="60" height="60" viewBox="0 0 60 60" fill="none" xmlns="http://www.w3.org/2000/svg">
<path d="M11.25 3.75H48.75C52.875 3.75 56.25 7.125 56.25 11.25V48.75C56.25 52.875 52.875 56.25 48.75 56.25H11.25C7.125 56.25 3.75 52.875 3.75 48.75V11.25C3.75 7.125 7.125 3.75 11.25 3.75Z" fill="black"/>
<path d="M51.5625 30C51.5625 27 48 24.5625 42.75 22.875C44.0625 17.4375 43.5 13.125 41.0625 11.8125C40.3125 11.4375 39.75 11.25 39 11.25C36.5625 11.25 33.5625 12.9375 30.5625 15.9375C27.375 12.9375 24.375 11.25 21.9375 11.25C21.1875 11.25 20.4375 11.4375 19.875 11.8125C17.4375 13.125 16.875 17.4375 18.1875 22.875C12.9375 24.5625 9.375 27 9.375 30C9.375 33 12.9375 35.4375 18.1875 37.125C16.875 42.5625 17.25 46.875 19.875 48.375C20.4375 48.75 21.1875 48.9375 21.9375 48.9375C24.375 48.9375 27.375 47.25 30.375 44.25C33.375 47.25 36.5625 48.9375 38.8125 48.9375C39.5625 48.9375 40.3125 48.75 40.875 48.375C43.3125 46.875 43.875 42.5625 42.5625 37.125C48 35.4375 51.5625 32.8125 51.5625 30ZM39 13.3125C39.375 13.3125 39.75 13.3125 39.9375 13.5C41.0625 14.25 41.625 16.6875 41.25 19.875C41.0625 20.625 41.0625 21.5625 40.875 22.3125C39.1875 21.9375 37.3125 21.5625 35.4375 21.375C34.3125 19.875 33.1875 18.375 32.0625 17.25C34.6875 14.625 37.3125 13.3125 39 13.3125ZM36.1875 33.375C35.625 34.5 34.875 35.4375 34.3125 36.5625C33 36.5625 31.875 36.75 30.5625 36.75C29.25 36.75 27.9375 36.75 26.8125 36.5625C26.0625 35.625 25.5 34.5 24.9375 33.375C24.375 32.25 23.8125 31.125 23.25 30C23.8125 28.875 24.375 27.75 24.9375 26.625C25.5 25.5 26.25 24.375 27 23.4375C28.125 23.4375 29.4375 23.25 30.75 23.25C32.0625 23.25 33.1875 23.25 34.5 23.4375C35.25 24.375 35.8125 25.5 36.5625 26.625C37.125 27.75 37.6875 28.875 38.25 30C37.5 31.125 36.75 32.25 36.1875 33.375ZM39 32.4375C39.375 33.5625 39.75 34.5 40.125 35.625C39 35.8125 37.875 36 36.75 36.1875C37.125 35.625 37.5 35.0625 37.875 34.3125C38.25 33.75 38.625 33 39 32.4375ZM30.375 41.25C29.625 40.5 28.875 39.5625 28.125 38.625C28.875 38.625 29.625 38.625 30.375 38.625C31.125 38.625 31.875 38.625 32.625 38.625C31.875 39.5625 31.125 40.5 30.375 41.25ZM24 36.1875C22.875 36 21.75 35.8125 20.625 35.625C21 34.5 21.375 33.5625 21.75 32.4375C22.125 33 22.5 33.75 22.875 34.3125C23.25 35.0625 23.625 35.625 24 36.1875ZM21.9375 27.5625C21.5625 26.4375 21.1875 25.3125 20.8125 24.375C21.9375 24.1875 23.0625 24 24.1875 23.8125C23.8125 24.375 23.4375 25.125 23.0625 25.6875C22.5 26.25 22.125 27 21.9375 27.5625ZM30.375 18.75C31.125 19.5 31.875 20.4375 32.625 21.375C31.875 21.375 31.125 21.375 30.375 21.375C29.625 21.375 28.875 21.375 28.125 21.375C28.875 20.4375 29.625 19.5 30.375 18.75ZM37.875 25.6875C37.5 24.9375 37.125 24.375 36.75 23.8125C37.875 24 39 24.1875 40.125 24.375C39.75 25.5 39.375 26.625 39 27.5625C38.625 27 38.25 26.25 37.875 25.6875ZM19.6875 19.875C19.3125 16.6875 19.6875 14.25 21 13.5C21.1875 13.3125 21.5625 13.3125 21.9375 13.3125C23.625 13.3125 26.25 14.625 29.0625 17.4375C27.9375 18.75 26.8125 20.0625 25.6875 21.5625C23.8125 21.75 21.9375 22.125 20.25 22.5C19.875 21.5625 19.6875 20.625 19.6875 19.875ZM16.3125 34.125C13.3125 32.8125 11.4375 31.3125 11.4375 29.8125C11.4375 28.5 13.3125 26.8125 16.3125 25.5C17.0625 25.125 17.8125 24.9375 18.75 24.75C19.3125 26.4375 19.875 28.125 20.625 29.8125C19.875 31.5 19.125 33.1875 18.75 34.875C17.8125 34.875 17.0625 34.5 16.3125 34.125ZM21 46.5C19.875 45.75 19.3125 43.3125 19.6875 40.125C19.875 39.375 19.875 38.4375 20.25 37.5C21.9375 37.875 23.625 38.25 25.5 38.4375C26.625 39.9375 27.75 41.4375 29.0625 42.75C26.25 45.375 23.625 46.875 21.9375 46.875C21.5625 46.6875 21.1875 46.6875 21 46.5ZM41.25 40.125C41.625 43.3125 41.25 45.75 39.9375 46.5C39.75 46.6875 39.375 46.6875 39 46.6875C37.3125 46.6875 34.6875 45.375 31.875 42.5625C33 41.25 34.3125 39.9375 35.4375 38.25C37.3125 38.0625 39.1875 37.875 40.6875 37.3125C40.875 38.4375 41.0625 39.375 41.25 40.125ZM44.625 34.125C43.875 34.5 43.125 34.6875 42.1875 35.0625C41.625 33.375 41.0625 31.6875 40.3125 30C41.0625 28.3125 41.8125 26.4375 42.1875 24.9375C43.125 25.125 43.875 25.5 44.625 25.6875C47.625 27 49.5 28.5 49.5 30C49.5 31.3125 47.625 33 44.625 34.125Z" fill="white"/>
<path d="M30.5625 33.9375C32.8125 33.9375 34.5 32.25 34.5 30C34.5 27.75 32.8125 26.0625 30.5625 26.0625C28.3125 26.0625 26.625 27.75 26.625 30C26.625 32.25 28.3125 33.9375 30.5625 33.9375Z" fill="white"/>
</svg>
