<svg width="60" height="60" viewBox="0 0 60 60" fill="none" xmlns="http://www.w3.org/2000/svg">
<path d="M57.6492 43.8148C54.4472 45.4838 37.86 52.3038 34.3287 54.1449C30.7973 55.9861 28.8356 55.9683 26.0459 54.6347C23.2563 53.3011 5.60461 46.1709 2.42484 44.651C0.835781 43.8917 0 43.2504 0 42.6448V36.5801C0 36.5801 22.9805 31.5774 26.6904 30.2463C30.4001 28.9153 31.6873 28.8673 34.8443 30.0237C38.0018 31.1806 56.8798 34.5865 60 35.7293L59.9986 41.7082C59.9991 42.3077 59.2791 42.9654 57.6492 43.8148Z" fill="#912626"/>
<path d="M57.648 37.786C54.4462 39.4542 37.8595 46.2745 34.3281 48.1153C30.7971 49.9568 28.8353 49.9388 26.0458 48.6052C23.256 47.2725 5.60503 40.1412 2.42549 38.6222C-0.754037 37.1023 -0.820599 36.0563 2.30268 34.8333C5.42596 33.6099 22.9802 26.7227 26.6906 25.3917C30.4003 24.0612 31.6872 24.0127 34.8442 25.1695C38.0015 26.326 54.4893 32.8887 57.6091 34.0313C60.73 35.1752 60.8498 36.1172 57.648 37.786Z" fill="#C6302B"/>
<path d="M57.6492 34.0017C54.4472 35.6709 37.86 42.4908 34.3287 44.3325C30.7973 46.173 28.8356 46.1552 26.0459 44.8216C23.2561 43.4887 5.60461 36.3579 2.42484 34.838C0.835781 34.0786 0 33.4383 0 32.8324V26.767C0 26.767 22.9805 21.7645 26.6904 20.4335C30.4001 19.1025 31.6873 19.0542 34.8443 20.2108C38.002 21.3675 56.88 24.7727 60 25.9158L59.9986 31.8954C59.9991 32.4947 59.2791 33.1523 57.6492 34.0017Z" fill="#912626"/>
<path d="M57.648 27.9729C54.4462 29.6417 37.8595 36.4615 34.3281 38.303C30.7971 40.1438 28.8353 40.1257 26.0458 38.7921C23.256 37.4595 5.60503 30.3284 2.42549 28.8092C-0.754037 27.2897 -0.820599 26.2435 2.30268 25.02C5.42596 23.7973 22.9804 16.9097 26.6906 15.5789C30.4003 14.2481 31.6872 14.1999 34.8442 15.3565C38.0015 16.5129 54.4893 23.0752 57.6091 24.2182C60.73 25.362 60.8498 26.3042 57.648 27.9729Z" fill="#C6302B"/>
<path d="M57.6492 23.8249C54.4472 25.4936 37.86 32.314 34.3287 34.1557C30.7973 35.9965 28.8356 35.9784 26.0459 34.6448C23.2561 33.3119 5.60461 26.1808 2.42484 24.6616C0.835781 23.9015 0 23.261 0 22.6558V16.5902C0 16.5902 22.9805 11.5879 26.6904 10.2572C30.4001 8.92591 31.6873 8.8781 34.8443 10.0345C38.002 11.1911 56.88 14.5964 60 15.7394L59.9986 21.7188C59.9991 22.3176 59.2791 22.9753 57.6492 23.8249Z" fill="#912626"/>
<path d="M57.6481 17.7961C54.4463 19.4649 37.8596 26.2852 34.3283 28.126C30.7972 29.9667 28.8355 29.9487 26.0459 28.6158C23.2564 27.2822 5.60515 20.1516 2.42586 18.6321C-0.75391 17.1129 -0.820238 16.0664 2.30281 14.8432C5.42609 13.6203 22.9805 6.73362 26.6907 5.40237C30.4004 4.07135 31.6873 4.02354 34.8444 5.18018C38.0016 6.33682 54.4895 12.8991 57.6092 14.0421C60.7302 15.1849 60.8499 16.1274 57.6481 17.7961Z" fill="#C6302B"/>
<path d="M37.3319 11.8961L32.1733 12.4317L31.0186 15.2104L29.1534 12.1097L23.1968 11.5743L27.6415 9.97146L26.3079 7.51099L30.4692 9.13849L34.3922 7.85411L33.3318 10.3983L37.3319 11.8961ZM30.7106 25.3769L21.0832 21.3839L34.8785 19.2663L30.7106 25.3769ZM17.3629 13.4407C21.4352 13.4407 24.7364 14.7204 24.7364 16.2986C24.7364 17.8774 21.4352 19.1568 17.3629 19.1568C13.2907 19.1568 9.9895 17.8772 9.9895 16.2986C9.9895 14.7204 13.2907 13.4407 17.3629 13.4407Z" fill="white"/>
<path d="M43.4285 12.6558L51.5932 15.8822L43.4355 19.1055L43.4285 12.6558Z" fill="#621B1C"/>
<path d="M34.3958 16.2288L43.4286 12.6558L43.4356 19.1055L42.5499 19.4519L34.3958 16.2288Z" fill="#9A2928"/>
</svg>
