<svg width="60" height="60" viewBox="0 0 60 60" fill="none" xmlns="http://www.w3.org/2000/svg">
<rect width="60" height="60" rx="12" fill="#CC0000"/>
<g clip-path="url(#clip0_3582_801)">
<path d="M9.13867 44.472H25.2973C25.2973 44.472 22.2088 30.3792 32.4358 24.6725C34.6653 23.5885 41.7628 19.5386 53.3807 28.1293C53.7489 27.8224 54.0966 27.577 54.0966 27.577C54.0966 27.577 43.4605 16.9614 31.6176 18.1477C25.6655 18.6795 18.343 24.0998 14.0476 31.2587C9.75229 38.4176 9.13867 44.472 9.13867 44.472Z" fill="white"/>
<path d="M9.13867 44.472H25.2973C25.2973 44.472 22.2088 30.3792 32.4358 24.6725C34.6653 23.5885 41.7628 19.5386 53.3807 28.1293C53.7489 27.8224 54.0966 27.577 54.0966 27.577C54.0966 27.577 43.4605 16.9614 31.6176 18.1477C25.6655 18.6795 18.343 24.0998 14.0476 31.2587C9.75229 38.4176 9.13867 44.472 9.13867 44.472Z" fill="white"/>
<path d="M9.13867 44.472H25.2973C25.2973 44.472 22.2088 30.3792 32.4358 24.6725C34.6653 23.5884 41.7628 19.5385 53.3807 28.1292C53.7489 27.8224 54.0966 27.577 54.0966 27.577C54.0966 27.577 43.4605 16.9613 31.6176 18.1477C25.6451 18.6795 18.3225 24.0998 14.0272 31.2587C9.73184 38.4176 9.13867 44.472 9.13867 44.472ZM42.806 19.2931L42.8878 17.9227C42.7037 17.8204 42.1924 17.575 40.9038 17.2068L40.822 18.5568C41.4969 18.7817 42.1515 19.0272 42.806 19.2931Z" fill="white"/>
<path d="M40.863 23.6294L40.7812 24.918C41.4562 24.9384 42.1312 25.0202 42.8061 25.1634L42.888 23.8953C42.1925 23.7521 41.5175 23.6703 40.863 23.6294ZM33.295 17.2477H33.4996L33.0905 16C32.4564 16 31.8019 16.0409 31.1269 16.1227L31.5155 17.3295C32.1087 17.2681 32.7018 17.2477 33.295 17.2477ZM34.2768 24.7748L34.7472 26.1861C35.3404 25.8997 35.9336 25.6543 36.5267 25.4702L36.0768 24.1202C35.3813 24.3248 34.7882 24.5498 34.2768 24.7748ZM24.9907 19.3954L24.0702 17.984C23.5589 18.2499 23.0271 18.5363 22.4748 18.8636L23.4157 20.2953C23.9475 19.9681 24.4589 19.6613 24.9907 19.3954ZM29.1838 28.5997L30.1656 30.0724C30.5133 29.561 30.9223 29.0906 31.3723 28.6201L30.4519 27.2293C29.9815 27.6588 29.5519 28.1292 29.1838 28.5997ZM26.2179 35.1859L27.8747 36.4949C27.9565 35.6972 28.0997 34.8995 28.3042 34.1018L26.8315 32.9359C26.5656 33.6927 26.3816 34.4495 26.2179 35.1859ZM17.2591 25.4702L15.8068 24.2021C15.275 24.7134 14.7637 25.2248 14.2932 25.7361L15.8682 27.0861C16.2977 26.5338 16.7682 25.9816 17.2591 25.4702ZM11.0819 34.6132L8.72973 33.7541C8.34111 34.6336 7.91157 35.6563 7.70703 36.2086L10.0592 37.0676C10.3251 36.3722 10.7547 35.37 11.0819 34.6132ZM25.9111 40.3812C25.952 41.4653 26.0543 42.3448 26.1566 42.9584L28.611 43.8379C28.427 43.0402 28.2429 42.1402 28.1201 41.1789L25.9111 40.3812Z" fill="white"/>
</g>
<defs>
<clipPath id="clip0_3582_801">
<rect width="48.587" height="28.472" fill="white" transform="translate(7.70654 16)"/>
</clipPath>
</defs>
</svg>
