<svg width="60" height="60" viewBox="0 0 60 60" fill="none" xmlns="http://www.w3.org/2000/svg">
<g clip-path="url(#clip0_30_868)">
<path d="M28.125 7.06877C28.125 6.8346 28.1711 6.60273 28.2607 6.38639C28.3503 6.17006 28.4817 5.97349 28.6473 5.80791C28.8128 5.64233 29.0094 5.51098 29.2258 5.42137C29.4421 5.33176 29.674 5.28564 29.9081 5.28564C30.1423 5.28564 30.3742 5.33176 30.5905 5.42137C30.8068 5.51098 31.0034 5.64233 31.169 5.80791C31.3346 5.97349 31.4659 6.17006 31.5555 6.38639C31.6451 6.60273 31.6913 6.8346 31.6913 7.06877C31.6913 7.54168 31.5034 7.99523 31.169 8.32963C30.8346 8.66403 30.381 8.85189 29.9081 8.85189C29.4352 8.85189 28.9817 8.66403 28.6473 8.32963C28.3129 7.99523 28.125 7.54168 28.125 7.06877ZM6.85125 23.2125C6.85125 22.9784 6.89738 22.7465 6.98699 22.5301C7.0766 22.3138 7.20794 22.1172 7.37352 21.9517C7.5391 21.7861 7.73567 21.6547 7.95201 21.5651C8.16834 21.4755 8.40022 21.4294 8.63438 21.4294C8.86854 21.4294 9.10041 21.4755 9.31675 21.5651C9.53309 21.6547 9.72966 21.7861 9.89524 21.9517C10.0608 22.1172 10.1922 22.3138 10.2818 22.5301C10.3714 22.7465 10.4175 22.9784 10.4175 23.2125C10.4175 23.6854 10.2296 24.139 9.89524 24.4734C9.56084 24.8078 9.10729 24.9956 8.63438 24.9956C8.16146 24.9956 7.70792 24.8078 7.37352 24.4734C7.03912 24.139 6.85125 23.6854 6.85125 23.2125ZM49.3988 23.295C49.3988 22.8221 49.5866 22.3686 49.921 22.0342C50.2554 21.6998 50.709 21.5119 51.1819 21.5119C51.6548 21.5119 52.1083 21.6998 52.4427 22.0342C52.7771 22.3686 52.965 22.8221 52.965 23.295C52.965 23.7679 52.7771 24.2215 52.4427 24.5559C52.1083 24.8903 51.6548 25.0781 51.1819 25.0781C50.709 25.0781 50.2554 24.8903 49.921 24.5559C49.5866 24.2215 49.3988 23.7679 49.3988 23.295ZM12.0113 25.7438C12.4053 25.5678 12.7135 25.2429 12.8685 24.8402C13.0234 24.4374 13.0125 23.9897 12.8381 23.595L12.0469 21.8063H15.1594V35.8313H8.88C8.10521 33.1094 7.8639 30.2635 8.16938 27.45L12.0113 25.7438ZM25.0275 26.0888V21.9544H32.4375C32.82 21.9544 35.1375 22.3969 35.1375 24.1294C35.1375 25.5694 33.3563 26.0869 31.8938 26.0869L25.0275 26.0888ZM14.91 48.3469C14.91 48.1127 14.9561 47.8809 15.0457 47.6645C15.1353 47.4482 15.2667 47.2516 15.4323 47.086C15.5978 46.9205 15.7944 46.7891 16.0108 46.6995C16.2271 46.6099 16.459 46.5638 16.6931 46.5638C16.9273 46.5638 17.1592 46.6099 17.3755 46.6995C17.5918 46.7891 17.7884 46.9205 17.954 47.086C18.1196 47.2516 18.2509 47.4482 18.3405 47.6645C18.4301 47.8809 18.4763 48.1127 18.4763 48.3469C18.4763 48.8198 18.2884 49.2734 17.954 49.6078C17.6196 49.9422 17.166 50.13 16.6931 50.13C16.2202 50.13 15.7667 49.9422 15.4323 49.6078C15.0979 49.2734 14.91 48.8198 14.91 48.3469ZM41.3344 48.4294C41.3344 47.9565 41.5222 47.5029 41.8566 47.1685C42.191 46.8341 42.6446 46.6463 43.1175 46.6463C43.5904 46.6463 44.044 46.8341 44.3784 47.1685C44.7128 47.5029 44.9006 47.9565 44.9006 48.4294C44.9006 48.9023 44.7128 49.3559 44.3784 49.6903C44.044 50.0247 43.5904 50.2125 43.1175 50.2125C42.6446 50.2125 42.191 50.0247 41.8566 49.6903C41.5222 49.3559 41.3344 48.9023 41.3344 48.4294ZM41.8856 44.385C41.0044 44.1975 40.1419 44.7563 39.9544 45.6356L39.06 49.8131C36.1815 51.1169 33.0556 51.7839 29.8957 51.7687C26.7358 51.7535 23.6164 51.0564 20.7506 49.725L19.8563 45.5475C19.6688 44.6663 18.8063 44.1075 17.925 44.2969L14.2369 45.0881C13.5516 44.3823 12.9145 43.6313 12.33 42.84H30.2738C30.4763 42.84 30.6113 42.8025 30.6113 42.6188V36.2719C30.6113 36.0844 30.4763 36.0506 30.2738 36.0506H25.0238V32.0269H30.6994C31.2169 32.0269 33.4688 32.1769 34.1906 35.0531L35.25 39.7406C35.5875 40.7719 36.9619 42.84 38.4244 42.84H47.6869C47.0652 43.6715 46.3854 44.4579 45.6525 45.1931L41.8856 44.385ZM51.8494 27.6263C51.9755 28.8931 51.9912 30.1686 51.8963 31.4381H49.6463C49.4213 31.4381 49.3275 31.5881 49.3275 31.8075V32.8425C49.3275 35.28 47.955 35.805 46.7513 35.9419C45.6075 36.0731 44.3325 35.4619 44.1788 34.7606C43.5038 30.9581 42.3788 30.1481 40.6163 28.7419C42.8231 27.3394 45.12 25.2731 45.12 22.5038C45.12 19.515 43.0706 17.6325 41.6738 16.71C39.7144 15.4163 37.545 15.1594 36.96 15.1594H13.6444C16.865 11.5608 21.1822 9.12442 25.9275 8.22752L28.6744 11.1094C29.2931 11.76 30.3244 11.7844 30.9731 11.1619L34.0481 8.22377C37.1804 8.81026 40.1475 10.0716 42.7433 11.9201C45.339 13.7685 47.5014 16.1599 49.08 18.9281L46.9763 23.6794C46.8018 24.0741 46.7909 24.5218 46.9459 24.9245C47.1009 25.3273 47.4091 25.6522 47.8031 25.8281L51.8494 27.6263ZM57.0956 27.7013L57.0244 26.9663L59.1919 24.945C59.6325 24.5325 59.4675 23.7075 58.905 23.4975L56.1356 22.4625L55.9181 21.75L57.6431 19.35C57.9956 18.8625 57.6713 18.0844 57.0806 17.9869L54.1594 17.5125L53.8088 16.8563L55.0369 14.1619C55.2881 13.6125 54.8213 12.9113 54.2175 12.9338L51.255 13.0369L50.7863 12.4688L51.4669 9.58127C51.6038 8.99439 51.0094 8.40002 50.4225 8.53689L47.535 9.21752L46.965 8.74877L47.0681 5.78627C47.0906 5.18627 46.3894 4.71752 45.8419 4.96689L43.1494 6.19502L42.4931 5.84252L42.0169 2.92127C41.9231 2.32877 41.1413 2.00627 40.6538 2.35877L38.2538 4.08377L37.5413 3.86814L36.5063 1.09877C36.2962 0.536267 35.4694 0.371267 35.0588 0.810017L33.0375 2.97752L32.3025 2.90627L30.7425 0.384392C30.4275 -0.125608 29.58 -0.125608 29.2669 0.384392L27.7069 2.90627L26.9719 2.97752L24.9469 0.806267C24.5344 0.367517 23.7094 0.530642 23.4994 1.09502L22.4644 3.86439L21.7519 4.08002L19.3519 2.35502C18.8644 2.00252 18.0844 2.32689 17.9888 2.91752L17.5125 5.83877L16.8563 6.19127L14.1638 4.96314C13.6163 4.71377 12.9131 5.18252 12.9375 5.78252L13.0406 8.74502L12.4706 9.21377L9.58313 8.53314C8.99625 8.39627 8.40188 8.99064 8.53875 9.57752L9.21938 12.465L8.75063 13.0331L5.78813 12.93C5.18813 12.9113 4.71938 13.6088 4.96875 14.1581L6.19688 16.8525L5.84438 17.5088L2.92313 17.9831C2.33063 18.0769 2.00813 18.8588 2.36063 19.3463L4.08563 21.7463L3.86813 22.4588L1.09875 23.4938C0.536254 23.7038 0.371254 24.5306 0.811879 24.9413L2.97938 26.9625L2.90813 27.6975L0.386254 29.2575C-0.123746 29.5725 -0.123746 30.42 0.386254 30.7331L2.90813 32.2931L2.97938 33.0281L0.806254 35.0569C0.367504 35.4694 0.530629 36.2944 1.09313 36.5044L3.8625 37.5394L4.08 38.2519L2.355 40.6519C2.00438 41.1394 2.32688 41.9194 2.9175 42.015L5.83688 42.4894L6.18938 43.1456L4.96125 45.8381C4.71188 46.3856 5.1825 47.0888 5.78063 47.0663L8.74313 46.9631L9.21188 47.5331L8.53125 50.4206C8.39438 51.0056 8.98875 51.6019 9.57563 51.4631L12.4631 50.7825L13.0331 51.2513L12.93 54.2138C12.9075 54.8138 13.6088 55.2825 14.1563 55.0331L16.8488 53.805L17.505 54.1575L17.9813 57.0769C18.075 57.6713 18.8569 57.9919 19.3444 57.6431L21.7444 55.9144L22.4569 56.1319L23.4919 58.9013C23.7019 59.4638 24.5288 59.6288 24.9394 59.1881L26.9606 57.0206L27.6956 57.0956L29.2556 59.6175C29.5706 60.1238 30.4144 60.1275 30.7313 59.6175L32.2913 57.0956L33.0263 57.0206L35.0475 59.1881C35.46 59.6288 36.285 59.4638 36.495 58.9013L37.53 56.1319L38.2425 55.9144L40.6425 57.6431C41.13 57.9938 41.91 57.6713 42.0056 57.0769L42.4819 54.1575L43.1381 53.805L45.8306 55.0331C46.3781 55.2825 47.0794 54.8156 47.0569 54.2138L46.9538 51.2513L47.5219 50.7825L50.4094 51.4631C50.9963 51.6 51.5906 51.0056 51.4538 50.4206L50.7731 47.5331L51.2419 46.9631L54.2044 47.0663C54.8044 47.0906 55.2731 46.3856 55.0238 45.8381L53.7956 43.1456L54.1463 42.4894L57.0675 42.015C57.6619 41.9213 57.9863 41.1413 57.63 40.6519L55.905 38.2519L56.1225 37.5394L58.8919 36.5044C59.4544 36.2925 59.6194 35.4675 59.1788 35.0569L57.0113 33.0356L57.0825 32.3006L59.6044 30.7406C60.1144 30.4256 60.1163 29.5819 59.6044 29.265L57.0956 27.7013Z" fill="black"/>
</g>
<defs>
<clipPath id="clip0_30_868">
<rect width="60" height="60" fill="white"/>
</clipPath>
</defs>
</svg>
