<svg width="60" height="64" viewBox="0 0 60 64" fill="none" xmlns="http://www.w3.org/2000/svg">
<path d="M3.99542 38.5976C2.80821 34.899 2.46574 30.9949 3.15067 26.9766C3.44747 25.31 3.9041 23.7118 4.40638 22.0908C4.40638 22.0908 7.55706 11.7483 18.2192 7.0223C18.2192 7.0223 21.895 5.08166 27.4201 4.94467C27.4201 4.94467 26.6667 4.21408 26.1872 3.89445C23.5845 2.15929 19.7032 1.58851 17.3516 4.03143C16.6438 4.76203 16.0502 5.56111 15.3881 6.29171C14.6347 7.11362 13.7214 7.79856 12.6712 8.18668C11.758 8.52915 10.8447 8.46066 9.90866 8.62047C8.94976 8.78029 7.96802 9.12276 7.19177 9.7392C6.34702 10.4241 6.00455 11.3374 5.91323 12.3876C5.8219 13.2095 5.84473 14.0543 5.79907 14.8762C5.68492 17.2963 4.90866 17.9812 3.1735 19.3282C2.44291 19.8762 1.82647 20.6068 1.36985 21.383C-1.37687e-05 23.8031 2.19177 26.3145 2.30592 28.7575C2.32875 29.2597 2.28309 29.762 2.10044 30.2415C1.91779 30.7666 1.5525 31.1091 1.25569 31.5428C0.844735 32.1136 0.570762 32.7986 0.684918 33.5063C0.799073 34.2141 1.16437 34.8762 1.50684 35.4926C2.16894 36.5885 2.99085 37.5702 3.85843 38.5063C3.9041 38.5063 3.94976 38.552 3.99542 38.5976Z" fill="#E32286"/>
<path d="M47.5571 47.3648C52.8082 45.0817 55.0456 41.1319 55.0456 41.1319C59.9543 34.4424 58.2877 27.3876 58.2877 27.3876C55.1598 34.1913 52.3059 36.0634 52.3059 36.0634C60 24.3511 52.3516 17.2735 52.3516 17.2735C55.4794 23.9401 51.3242 32.068 51.3242 32.068C47.831 39.4196 42.8767 42.0452 42.8767 42.0452C48.4018 43.0726 52.4657 39.3511 52.4657 39.3511C44.5434 47.9127 35.9589 47.5018 35.9589 47.5018C39.5662 51.5429 44.9771 51.2004 44.9771 51.2004C37.8995 52.8671 31.2557 50.5155 25.7991 45.9721C24.7717 45.1274 23.7899 44.2141 22.8767 43.2324C22.8767 43.2324 22.0548 42.3648 21.895 42.1365L21.8721 42.1137C21.758 46.3374 26.1644 50.2643 26.1644 50.2643C20.6392 47.9812 18.105 43.0269 18.105 43.0269C18.105 43.0269 14.3835 36.6799 17.0776 29.4424C19.7717 22.205 27.9224 20.6525 27.9224 20.6525C34.6575 23.9173 40.3653 24.9447 40.3653 24.9447C52.3972 26.9538 51.7123 21.0634 51.7123 21.0634C51.8265 15.9949 44.1781 10.6068 44.1781 10.6068C30.5479 0.492657 18.2192 7.02234 18.2192 7.02234C7.55706 11.7484 4.40637 22.0908 4.40637 22.0908C3.90409 23.7118 3.44747 25.31 3.15067 26.9767C1.98628 33.7575 3.74427 40.173 7.55706 45.8808C13.4931 54.7392 23.1278 57.7986 23.1278 57.7986C37.3972 62.6388 47.1461 55.5155 47.1461 55.5155C56.1187 49.3511 57.9224 42.2278 57.9224 42.2278C50.6849 47.8899 47.5571 47.3648 47.5571 47.3648ZM36.4155 14.0543C37.1004 14.0543 37.6484 14.6022 37.6484 15.2872C37.6484 15.9721 37.1004 16.5201 36.4155 16.5201C35.7306 16.5201 35.1826 15.9721 35.1826 15.2872C35.1826 14.6022 35.7306 14.0543 36.4155 14.0543Z" fill="url(#paint0_linear_654_3342)"/>
<path d="M51.6895 21.0405C51.8036 15.972 44.1552 10.5839 44.1552 10.5839C30.5251 0.492599 18.1963 7.02228 18.1963 7.02228C7.53423 11.7483 4.38354 22.0908 4.38354 22.0908C3.76711 23.8488 3.21916 26.5428 3.21916 26.5428C2.55706 29.9218 2.85386 33.0497 2.85386 33.0497C3.12784 36.0405 3.78994 38.0497 3.78994 38.0497C4.47487 40.1958 4.7945 40.8579 4.7945 40.8579C4.77167 40.7894 4.65752 40.2871 4.65752 40.2871C4.65752 40.2871 3.69861 35.6752 4.58902 31.246C4.58902 31.246 5.36528 26.6342 8.51596 23.0725C8.51596 23.0725 13.6301 15.7894 23.1507 18.6433C23.1507 18.6433 25.2055 19.3739 25.9132 19.7392C26.621 20.0816 27.8539 20.6068 27.8539 20.6068C34.589 23.8716 40.2968 24.899 40.2968 24.899C52.3744 26.931 51.6895 21.0405 51.6895 21.0405ZM36.4155 16.5428C35.7306 16.5428 35.1826 15.9949 35.1826 15.31C35.1826 14.625 35.7306 14.0771 36.4155 14.0771C37.1004 14.0771 37.6484 14.625 37.6484 15.31C37.6484 15.9949 37.1004 16.5428 36.4155 16.5428Z" fill="url(#paint1_radial_654_3342)"/>
<path d="M28.6073 11.8624L20.8219 9.44234C20.7763 9.44234 20.548 9.32818 20.137 9.44234C20.137 9.44234 15.548 10.6067 16.347 13.1181C16.347 13.1181 16.8265 14.6935 18.1279 16.2232L26.6895 15.8122L28.6073 11.8624Z" fill="url(#paint2_linear_654_3342)"/>
<defs>
<linearGradient id="paint0_linear_654_3342" x1="9.45112" y1="55.1276" x2="37.8612" y2="24.9043" gradientUnits="userSpaceOnUse">
<stop stop-color="#E01D84"/>
<stop offset="0.401" stop-color="#DF1D85"/>
<stop offset="0.77" stop-color="#932C87"/>
<stop offset="1" stop-color="#5D2F88"/>
</linearGradient>
<radialGradient id="paint1_radial_654_3342" cx="0" cy="0" r="1" gradientUnits="userSpaceOnUse" gradientTransform="translate(40.7204 16.8861) rotate(0.136937) scale(27.7585 23.2117)">
<stop stop-color="#E01D84"/>
<stop offset="0.139" stop-color="#DE1E85"/>
<stop offset="0.285" stop-color="#D62085"/>
<stop offset="0.434" stop-color="#C92386"/>
<stop offset="0.586" stop-color="#B72786"/>
<stop offset="0.739" stop-color="#9D2B87"/>
<stop offset="0.891" stop-color="#7C2E88"/>
<stop offset="1" stop-color="#5D2F88"/>
</radialGradient>
<linearGradient id="paint2_linear_654_3342" x1="16.2356" y1="12.8067" x2="28.6007" y2="12.8067" gradientUnits="userSpaceOnUse">
<stop stop-color="#E01D84"/>
<stop offset="0.238" stop-color="#DA1E85"/>
<stop offset="0.658" stop-color="#C72085"/>
<stop offset="0.999" stop-color="#B52284"/>
</linearGradient>
</defs>
</svg>
