<svg width="60" height="60" viewBox="0 0 60 60" fill="none" xmlns="http://www.w3.org/2000/svg">
<g clip-path="url(#clip0_3552_545)">
<path d="M0 0H60V60H0V0Z" fill="#34BDB2"/>
<path d="M39.4839 20.4002C36.3161 18.5622 33.5041 17.1168 29.8253 17.1806C27.7206 17.2172 25.9136 18.3611 25.5337 20.4548C25.18 22.4027 26.9116 23.4832 28.713 24.1465C31.7005 25.2466 34.3014 26.4082 37.237 27.6314C42.5734 29.8554 45.3098 33.457 44.9863 38.0782C44.5748 43.9579 41.0362 48.175 35.4123 49.5654C28.0638 51.3822 20.9277 48.6147 14.8984 44.7513C16.4202 42.4331 18.1858 40.8506 19.6984 38.5465C23.1817 40.0291 25.9183 42.0325 29.5623 42.345C32.1318 42.5653 35.0432 42.4427 35.6205 39.4247C36.1408 36.7031 33.7722 35.2441 31.462 34.4292C28.7116 33.4591 25.9663 32.2725 23.2691 31.1709C18.2833 29.1344 16.2545 25.1512 16.596 20.4588C16.596 17.7075 18.8788 12.1465 24.4759 10.4168C33.0756 7.75895 37.8138 10.4805 44.0498 14.4881C42.3934 16.6786 41.1201 18.236 39.4839 20.4002Z" fill="white"/>
</g>
<defs>
<clipPath id="clip0_3552_545">
<rect width="60" height="60" rx="12" fill="white"/>
</clipPath>
</defs>
</svg>
