<svg width="60" height="60" viewBox="0 0 60 60" fill="none" xmlns="http://www.w3.org/2000/svg">
<path d="M43.4851 6.07874H10.5432C9.47942 6.0817 8.46007 6.5056 7.70787 7.2578C6.95567 8.01 6.53178 9.02934 6.52881 10.0931V46.4231C6.53178 47.4869 6.95567 48.5062 7.70787 49.2584C8.46007 50.0106 9.47942 50.4345 10.5432 50.4375H32.2407C31.9932 39.6412 35.6813 18.69 43.4851 6.07874Z" fill="#0F80CC"/>
<path d="M42.2888 7.25061H10.5432C9.78961 7.2516 9.06719 7.5514 8.53433 8.08426C8.00147 8.61711 7.70168 9.33954 7.70068 10.0931V43.7719C15.845 40.7002 24.4421 38.9996 33.1426 38.7394C35.4437 28.0403 38.5001 17.5177 42.2888 7.25061Z" fill="url(#paint0_linear_2594_456)"/>
<path d="M51.1687 4.89C48.9187 2.87812 46.1812 3.68625 43.4812 6.07875C43.0819 6.435 42.6825 6.82875 42.285 7.25062C37.2058 13.2577 33.6937 20.4294 32.0625 28.125C32.566 29.2235 32.964 30.3674 33.2512 31.5412C33.3187 31.8037 33.3806 32.0512 33.4387 32.2612C33.555 32.7581 33.6262 33.0806 33.6262 33.0806C33.6262 33.0806 33.585 32.925 33.4144 32.4319L33.3037 32.1131C33.285 32.0625 33.2606 32.0025 33.2325 31.9369C32.9325 31.2375 32.1075 29.7619 31.7325 29.1244C31.4194 30.0487 31.1419 30.9131 30.9112 31.695C31.6897 33.3694 32.2614 35.1324 32.6137 36.945C32.6137 36.945 32.5575 36.7294 32.2931 35.9794C31.7851 34.884 31.2219 33.8151 30.6056 32.7769C30.207 33.8054 30.0381 34.9087 30.1106 36.0094C30.5236 36.8327 30.834 37.7036 31.035 38.6025C31.6612 41.0081 32.0962 43.9387 32.0962 43.9387C32.0962 43.9387 32.1112 44.1262 32.1337 44.4319C32.0514 46.4356 32.0921 48.4425 32.2556 50.4412C32.3486 52.4202 32.7171 54.3766 33.3506 56.2537L33.6881 56.0662C32.9025 53.2449 32.5995 50.3111 32.7919 47.3887C33.1448 41.1932 34.3681 35.0783 36.4256 29.2237C40.1944 19.2712 45.4256 11.2837 50.2069 7.47375C45.8456 11.4112 39.9431 24.1612 38.175 28.8825C36.3131 33.7436 34.8985 38.7644 33.9487 43.8825C35.0791 41.0261 37.2923 38.7321 40.1062 37.5C40.1062 37.5 42.4181 34.6481 45.12 30.5756C43.3744 30.9397 41.65 31.3985 39.9544 31.95C38.6419 32.5012 38.2875 32.6887 38.2875 32.6887C40.793 31.1799 43.4399 29.9195 46.1906 28.9256C51.2081 21.0225 56.6756 9.80062 51.1706 4.88062" fill="#003B57"/>
<defs>
<linearGradient id="paint0_linear_2594_456" x1="24.9546" y1="8.07458" x2="24.9546" y2="41.8219" gradientUnits="userSpaceOnUse">
<stop stop-color="#97D9F6"/>
<stop offset="0.92" stop-color="#0F80CC"/>
<stop offset="1" stop-color="#0F80CC"/>
</linearGradient>
</defs>
</svg>
