<svg width="50" height="60" viewBox="0 0 50 60" fill="none" xmlns="http://www.w3.org/2000/svg">
<path d="M44.8243 9.84874C39.7325 2.56512 29.6752 0.406199 22.4044 5.0369L9.63564 13.1722C8.77665 13.7119 7.97529 14.3395 7.24619 15.0448C6.51618 15.7501 5.8621 16.5295 5.29401 17.3702C4.72592 18.2109 4.24657 19.1083 3.86327 20.0478C3.4809 20.9878 3.19702 21.9648 3.01617 22.9633C2.86522 23.8003 2.78289 24.6493 2.77192 25.5C2.76002 26.3517 2.81948 27.2025 2.94847 28.0432C3.07746 28.8848 3.27597 29.7145 3.54126 30.5232C3.80655 31.3319 4.13862 32.1167 4.53382 32.8705C4.26195 33.2837 4.01098 33.7102 3.78185 34.1485C3.55224 34.5867 3.34549 35.0368 3.16162 35.496C2.97774 35.9552 2.81766 36.4236 2.68135 36.8993C2.54505 37.375 2.43344 37.8571 2.34562 38.3438C1.98071 40.3903 2.02892 42.4892 2.48741 44.5168C2.71611 45.5277 3.04453 46.5138 3.46899 47.4597C3.89346 48.4056 4.41032 49.3076 5.01408 50.1511C10.1058 57.4347 20.1622 59.5936 27.433 54.9629L40.2018 46.8615C41.0608 46.3208 41.8603 45.6923 42.5894 44.9861C43.3184 44.2804 43.9723 43.5011 44.5407 42.6607C45.1088 41.8209 45.5881 40.9235 45.9714 39.984C46.3547 39.0454 46.6392 38.0684 46.8213 37.0704C46.9722 36.2333 47.0536 35.3853 47.0646 34.5346C47.0756 33.6838 47.0161 32.833 46.8862 31.9923C46.7572 31.1516 46.5587 30.3228 46.2925 29.5141C46.0263 28.7064 45.6942 27.9215 45.299 27.1677C45.5707 26.7551 45.8223 26.3279 46.0519 25.8897C46.2806 25.4515 46.4883 25.0014 46.6721 24.5422C46.856 24.083 47.017 23.6146 47.1542 23.1389C47.2906 22.6641 47.404 22.182 47.4927 21.6954C47.6739 20.6745 47.7525 19.638 47.7287 18.6015C47.705 17.5651 47.5778 16.5341 47.3491 15.5223C47.1204 14.5115 46.792 13.5253 46.3675 12.5794C45.9436 11.6334 45.4266 10.7318 44.8243 9.88808" fill="#FF3E00"/>
<path d="M21.1561 50.8554C20.1567 51.115 19.1236 51.2205 18.0924 51.1683C17.0614 51.1152 16.0442 50.9066 15.0763 50.5471C14.1084 50.1882 13.2009 49.6838 12.385 49.0514C11.5698 48.4186 10.8556 47.6653 10.2672 46.8175C9.90406 46.3098 9.59303 45.7682 9.33872 45.1992C9.08366 44.6306 8.886 44.0379 8.74867 43.43C8.61237 42.8216 8.53552 42.2014 8.5218 41.5784C8.50808 40.9554 8.55656 40.3325 8.66634 39.7186C8.68372 39.6189 8.70385 39.5192 8.7258 39.4204C8.74684 39.3207 8.77063 39.2219 8.79624 39.124C8.82094 39.0252 8.84839 38.9273 8.87766 38.8295C8.90602 38.7325 8.93712 38.6355 8.96914 38.5395L9.20973 37.8049L9.86564 38.2943C10.2416 38.5687 10.6295 38.8276 11.0274 39.0691C11.4254 39.3116 11.8334 39.5366 12.2505 39.7433C12.6668 39.951 13.093 40.1413 13.5257 40.3123C13.9584 40.4843 14.3985 40.6371 14.8449 40.7716L15.3343 40.9134L15.2904 41.4028C15.2668 41.7359 15.3015 42.0705 15.3928 42.3917C15.4377 42.5527 15.4971 42.7082 15.5694 42.8582C15.6417 43.0083 15.7267 43.1519 15.8237 43.2873C16.0014 43.5426 16.217 43.7694 16.4632 43.9596C16.7083 44.1499 16.9819 44.3018 17.2737 44.4097C17.5655 44.5177 17.871 44.5799 18.1821 44.5954C18.4922 44.6119 18.8032 44.5799 19.1042 44.5012C19.1737 44.4829 19.2414 44.4619 19.3091 44.4381C19.3768 44.4143 19.4436 44.3887 19.5085 44.3594C19.5744 44.3311 19.6384 44.2999 19.7025 44.2661C19.7656 44.2332 19.8269 44.1975 19.8872 44.1591L32.6368 36.0229C32.7931 35.9249 32.9387 35.8108 33.0713 35.6826C33.204 35.5536 33.322 35.4118 33.4253 35.259C33.5287 35.1062 33.6147 34.9425 33.6842 34.7714C33.7528 34.6003 33.8041 34.4229 33.837 34.2417C33.869 34.056 33.8827 33.8685 33.8782 33.6801C33.8736 33.4925 33.8498 33.3059 33.8077 33.122C33.7666 32.9391 33.7062 32.7607 33.6284 32.5887C33.5516 32.4176 33.4564 32.2548 33.3467 32.102C33.1692 31.8468 32.9542 31.6209 32.7081 31.4306C32.4621 31.2403 32.1885 31.0884 31.8976 30.9805C31.6061 30.8725 31.2998 30.8096 30.9892 30.7939C30.6782 30.7783 30.3672 30.8103 30.0662 30.8881C29.9976 30.9064 29.929 30.9274 29.8613 30.9512C29.7936 30.975 29.7277 31.0006 29.6619 31.029C29.596 31.0583 29.532 31.0894 29.4688 31.1232C29.4057 31.1561 29.3435 31.1927 29.2831 31.2311L24.3871 34.3396C24.1877 34.4659 23.9828 34.5848 23.7742 34.6964C23.5647 34.8071 23.3525 34.9105 23.1357 35.0056C22.9189 35.1007 22.6984 35.1876 22.4752 35.2654C22.252 35.3441 22.026 35.4136 21.7973 35.4749C20.7993 35.7329 19.7683 35.8372 18.7392 35.7841C17.71 35.731 16.6955 35.5215 15.7295 35.1639C14.7635 34.8053 13.8578 34.3012 13.0436 33.67C12.2295 33.0388 11.5159 32.2877 10.9277 31.4416C10.5664 30.9338 10.2563 30.3914 10.0029 29.8224C9.74855 29.2534 9.55186 28.6606 9.41556 28.0531C9.27925 27.4448 9.20424 26.8246 9.19143 26.2016C9.17771 25.5795 9.2262 24.9566 9.33689 24.3436C9.55317 23.1369 10.0186 21.9885 10.7036 20.9717C11.389 19.9549 12.2792 19.0925 13.3172 18.4395L26.106 10.3042C26.3046 10.178 26.5076 10.0591 26.7153 9.94746C26.923 9.83677 27.1352 9.7334 27.3502 9.63826C27.5656 9.54308 27.7847 9.45642 28.007 9.37846C28.2284 9.29979 28.4534 9.22935 28.6812 9.16806C29.6802 8.90917 30.713 8.80305 31.743 8.85519C32.774 8.90825 33.7903 9.11683 34.7582 9.47634C35.7261 9.83494 36.6326 10.3399 37.4486 10.972C38.2636 11.6052 38.9774 12.3588 39.5655 13.2069C39.9277 13.7137 40.2397 14.2552 40.4949 14.8243C40.7501 15.3933 40.9477 15.9851 41.0859 16.5935C41.2231 17.2018 41.2999 17.822 41.3136 18.445C41.3283 19.068 41.2807 19.691 41.1709 20.3048C41.1517 20.4054 41.1316 20.5061 41.1087 20.6058C41.0868 20.7055 41.063 20.8052 41.0374 20.904C41.0127 21.0037 40.9852 21.1025 40.9569 21.2004C40.9285 21.2992 40.8992 21.3971 40.8672 21.494L40.623 22.2286L39.9716 21.7392C39.5947 21.462 39.2059 21.2022 38.8071 20.958C38.4082 20.7146 37.9984 20.4878 37.5804 20.2783C36.7434 19.8608 35.8728 19.5143 34.9778 19.2427L34.4874 19.1009L34.5322 18.6115C34.546 18.4441 34.5451 18.2758 34.5295 18.1093C34.5149 17.9428 34.4847 17.7772 34.4408 17.6153C34.3959 17.4543 34.3383 17.296 34.266 17.1451C34.1947 16.9932 34.1096 16.8487 34.0126 16.7115C33.8341 16.4608 33.6185 16.2387 33.3732 16.0528C33.1282 15.8661 32.8561 15.7181 32.5663 15.6137C31.9841 15.4025 31.3512 15.3741 30.7523 15.5323C30.6828 15.5506 30.6142 15.5716 30.5474 15.5945C30.4797 15.6183 30.4129 15.6448 30.347 15.6732C30.2821 15.7015 30.2171 15.7336 30.154 15.7665C30.0909 15.8003 30.0287 15.836 29.9683 15.8744L17.195 23.996C17.0395 24.0939 16.894 24.2082 16.7623 24.3363C16.6306 24.4644 16.5116 24.6062 16.4083 24.758C16.3058 24.9108 16.219 25.0735 16.1494 25.2438C16.0799 25.4149 16.0286 25.5914 15.9957 25.7726C15.9637 25.9583 15.95 26.1467 15.9545 26.3351C15.9655 26.7124 16.0504 27.0838 16.2043 27.4283C16.2819 27.5999 16.3759 27.7635 16.4851 27.9168C16.6617 28.1693 16.8757 28.3944 17.12 28.5828C17.3637 28.7721 17.6349 28.9233 17.9241 29.0311C18.5057 29.2473 19.1391 29.282 19.7409 29.1308C19.8095 29.1116 19.8781 29.0905 19.9458 29.0667C20.0126 29.043 20.0794 29.0164 20.1452 28.9881C20.2108 28.9596 20.2752 28.9284 20.3382 28.8948C20.4014 28.8618 20.4636 28.8261 20.524 28.7877L25.4199 25.6847C25.6203 25.5567 25.8243 25.4359 26.0338 25.3243C26.2423 25.2118 26.4555 25.1084 26.6732 25.0124C26.8902 24.9172 27.1109 24.8305 27.3346 24.7526C27.5587 24.6739 27.7856 24.6044 28.0152 24.544C29.0142 24.2842 30.0461 24.1781 31.0771 24.2293C32.108 24.2814 33.1244 24.49 34.0922 24.8486C35.0592 25.2072 35.9667 25.7113 36.7817 26.3443C37.5977 26.9764 38.3113 27.7293 38.8995 28.5773C39.2618 29.085 39.5728 29.6266 39.828 30.1956C40.0832 30.7643 40.2812 31.3569 40.419 31.9648C40.5562 32.5722 40.633 33.1925 40.6477 33.8155C40.6623 34.4393 40.6138 35.0623 40.505 35.6752C40.3971 36.277 40.2269 36.866 39.9972 37.4326C39.7678 37.9993 39.4795 38.5405 39.1373 39.0472C38.7961 39.554 38.4028 40.0242 37.9637 40.4496C37.5245 40.8749 37.0425 41.2537 36.5247 41.5793L23.7504 49.7146C23.5501 49.8418 23.3452 49.9616 23.1366 50.0732C22.9271 50.1848 22.714 50.2882 22.4963 50.3834C22.2794 50.4794 22.059 50.5663 21.8349 50.645C21.6116 50.7237 21.3848 50.7941 21.1561 50.8554Z" fill="white"/>
</svg>
