<svg width="60" height="36" viewBox="0 0 60 36" fill="none" xmlns="http://www.w3.org/2000/svg">
<g clip-path="url(#clip0_654_3351)">
<path d="M30 0C22.0029 0 17.005 3.99742 15.0055 11.9915C18.0047 7.99408 21.5034 6.49562 25.5016 7.49459C27.783 8.06458 29.4135 9.7198 31.2187 11.5513C34.1586 14.5347 37.5613 17.9876 44.9944 17.9876C52.9907 17.9876 57.9894 13.9902 59.9881 5.99538C56.9897 9.99279 53.491 11.492 49.4921 10.493C47.2114 9.92304 45.5809 8.26783 43.7757 6.43637C40.8357 3.45293 37.4323 0 30 0ZM15.0055 17.9876C7.0092 17.9876 2.01055 21.985 0.0118408 29.9799C3.01028 25.9825 6.50896 24.4832 10.5079 25.483C12.7886 26.0537 14.419 27.7082 16.2243 29.5389C19.1642 32.5223 22.5676 35.976 30 35.976C37.9971 35.976 42.9949 31.9786 44.9944 23.9838C41.9952 27.9812 38.4965 29.4804 34.4984 28.4807C32.2169 27.9114 30.5865 26.2555 28.7812 24.4247C25.8413 21.4413 22.4386 17.9876 15.0055 17.9876Z" fill="#06B6D4"/>
</g>
<defs>
<clipPath id="clip0_654_3351">
<rect width="60" height="35.976" fill="white"/>
</clipPath>
</defs>
</svg>
