<svg width="60" height="47" viewBox="0 0 60 47" fill="none" xmlns="http://www.w3.org/2000/svg">
<g clip-path="url(#clip0_654_3389)">
<path d="M41.2765 23.0015C41.533 23.5211 41.7872 24.0419 42.0463 24.5601C45.5078 31.4834 48.97 38.4064 52.4318 45.3296C52.4556 45.3771 52.4772 45.4258 52.5076 45.4905C52.4488 45.4942 52.4021 45.4997 52.3554 45.4997C47.9409 45.5 43.5264 45.4995 39.1119 45.5031C39.0095 45.5032 38.9677 45.4663 38.9258 45.3826C37.4629 42.4546 35.9966 39.5284 34.5332 36.6006C33.0474 33.6279 31.5642 30.6538 30.0796 27.6805C30.0586 27.6384 30.0334 27.5983 29.9992 27.538C29.9621 27.6074 29.9339 27.6572 29.9083 27.7083C29.4992 28.5243 29.09 29.3403 28.6815 30.1567C28.2425 31.0343 27.8054 31.913 27.3651 32.79C26.9775 33.5619 26.5832 34.3305 26.1977 35.1035C24.4903 38.5269 22.7846 41.9513 21.0807 45.3765C21.0359 45.4664 20.9883 45.5029 20.8824 45.5028C16.4729 45.4996 12.0634 45.5 7.65388 45.5H7.48828C7.67026 45.132 7.84024 44.7848 8.01313 44.4391C11.5762 37.3138 15.1395 30.1886 18.7028 23.0633C18.7093 23.0502 18.7149 23.0366 18.7317 23.0071C18.7747 22.9351 18.8099 22.8806 18.8388 22.8229C21.0198 18.4619 23.2002 14.1007 25.3818 9.74011C25.4144 9.67486 25.4619 9.61705 25.5025 9.55579C25.5419 9.61117 25.5894 9.6625 25.6195 9.72256C27.0499 12.5782 28.4788 15.4346 29.9077 18.291C29.9354 18.3464 29.9607 18.4029 29.9959 18.4776C30.0333 18.405 30.0649 18.345 30.0952 18.2844C31.533 15.4118 32.9708 12.5391 34.4091 9.66679C34.4279 9.62923 34.4547 9.59569 34.4978 9.56221C34.5528 9.62413 34.5913 9.68242 34.6223 9.74443C36.8013 14.1009 38.9797 18.4577 41.1591 22.8139C41.1919 22.8796 41.2371 22.9391 41.2765 23.0015Z" fill="#4FC08D"/>
<path d="M41.2791 22.9908C41.2373 22.9392 41.1922 22.8796 41.1593 22.814C38.9799 18.4577 36.8016 14.1009 34.6225 9.74448C34.5915 9.68244 34.553 9.62418 34.5085 9.55926C34.515 9.49578 34.5216 9.43251 34.5482 9.3792C36.0013 6.46929 37.4568 3.56058 38.9077 0.64959C38.9654 0.5337 39.0303 0.49701 39.1572 0.49719C42.1963 0.50088 45.2354 0.50004 48.2744 0.50004H52.5073C52.4713 0.57927 52.449 0.63279 52.4231 0.68454C48.7347 8.06229 45.0461 15.4399 41.3576 22.8177C41.3309 22.8711 41.3068 22.9259 41.2791 22.9908ZM25.5025 9.54429C25.4622 9.61707 25.4146 9.67488 25.382 9.74013C23.2004 14.1007 21.02 18.462 18.839 22.8229C18.8101 22.8806 18.7749 22.9351 18.7339 22.9963C18.4702 22.4833 18.2178 21.9638 17.9596 21.4473C14.5028 14.5317 11.0452 7.61658 7.58792 0.701281C7.55957 0.644611 7.53326 0.586981 7.49609 0.508981C7.56974 0.505321 7.62218 0.50037 7.67459 0.50037C12.0688 0.50004 16.4629 0.50064 20.8571 0.49707C20.9815 0.49698 21.0395 0.540931 21.0927 0.647551C22.5358 3.54063 23.9824 6.43197 25.4271 9.32427C25.4599 9.38991 25.4776 9.46311 25.5025 9.54429Z" fill="#35495E"/>
</g>
<defs>
<clipPath id="clip0_654_3389">
<rect width="60" height="47" fill="white"/>
</clipPath>
</defs>
</svg>
