<svg width="60" height="60" viewBox="0 0 60 60" fill="none" xmlns="http://www.w3.org/2000/svg">
<path d="M44.9544 19.443V15.0076C44.9544 13.3975 43.9823 11.9696 42.4937 11.3316L15 0V2.46076L39.5165 12.5772C40.3671 12.9114 40.3671 14.1266 39.5165 14.4608L15 24.5772V34.4506L29.7646 28.3443L39.4861 32.3544C40.3367 32.6886 40.3367 33.9038 39.4861 34.238L15 44.3544V60L42.4937 48.6684C43.9823 48.0608 44.9544 46.6025 44.9544 44.9924V34.8152C44.9544 33.2051 43.9823 31.7772 42.4937 31.1392L32.7418 27.1291L42.4937 23.119C43.9823 22.5114 44.9544 21.0532 44.9544 19.443Z" fill="black"/>
</svg>
