<?xml version="1.0" encoding="UTF-8"?> <svg xmlns="http://www.w3.org/2000/svg" xmlns:xlink="http://www.w3.org/1999/xlink" width="60pt" height="60pt" viewBox="0 0 60 60" version="1.1"><g id="surface1"><path style=" stroke:none;fill-rule:nonzero;fill:rgb(0%,0%,0%);fill-opacity:1;" d="M 58.4375 34.210938 L 58.03125 34.210938 L 58.03125 35.269531 L 57.675781 35.269531 L 57.675781 34.210938 L 57.269531 34.210938 L 57.269531 33.90625 L 58.441406 33.90625 L 58.4375 34.210938 "></path><path style=" stroke:none;fill-rule:nonzero;fill:rgb(0%,0%,0%);fill-opacity:1;" d="M 58.597656 33.90625 L 59.121094 33.90625 L 59.355469 34.816406 L 59.359375 34.816406 L 59.59375 33.90625 L 60.117188 33.90625 L 60.117188 35.273438 L 59.785156 35.273438 L 59.785156 34.238281 L 59.78125 34.238281 L 59.492188 35.273438 L 59.222656 35.273438 L 58.933594 34.238281 L 58.933594 35.273438 L 58.597656 35.273438 L 58.597656 33.90625 "></path><path style=" stroke:none;fill-rule:nonzero;fill:rgb(0%,0%,0%);fill-opacity:1;" d="M 44.363281 35.191406 C 43.867188 35.402344 43.367188 35.507812 42.859375 35.507812 C 42.0625 35.507812 41.34375 35.367188 40.707031 35.089844 C 40.070312 34.8125 39.53125 34.429688 39.09375 33.941406 C 38.65625 33.453125 38.320312 32.882812 38.089844 32.222656 C 37.855469 31.566406 37.738281 30.855469 37.738281 30.09375 C 37.738281 29.316406 37.855469 28.589844 38.089844 27.921875 C 38.320312 27.253906 38.65625 26.671875 39.09375 26.175781 C 39.53125 25.679688 40.066406 25.289062 40.703125 25.007812 C 41.339844 24.722656 42.058594 24.582031 42.855469 24.582031 C 43.390625 24.582031 43.910156 24.664062 44.410156 24.824219 C 44.910156 24.988281 45.363281 25.222656 45.765625 25.535156 C 46.167969 25.847656 46.5 26.234375 46.765625 26.691406 C 47.027344 27.148438 47.1875 27.671875 47.246094 28.265625 L 45.058594 28.265625 C 44.921875 27.683594 44.660156 27.246094 44.269531 26.953125 C 43.878906 26.660156 43.410156 26.515625 42.855469 26.515625 C 42.339844 26.515625 41.902344 26.613281 41.542969 26.816406 C 41.183594 27.015625 40.890625 27.285156 40.667969 27.621094 C 40.441406 27.957031 40.28125 28.339844 40.179688 28.769531 C 40.078125 29.195312 40.023438 29.640625 40.023438 30.097656 C 40.023438 30.535156 40.078125 30.964844 40.179688 31.378906 C 40.28125 31.792969 40.441406 32.164062 40.667969 32.496094 C 40.890625 32.828125 41.183594 33.09375 41.546875 33.292969 C 41.90625 33.492188 42.34375 33.59375 42.859375 33.59375 C 43.621094 33.59375 44.207031 33.402344 44.621094 33.019531 C 45.035156 32.636719 45.273438 32.078125 45.34375 31.351562 L 43.039062 31.351562 L 43.039062 29.636719 L 47.410156 29.636719 L 47.410156 35.269531 L 45.953125 35.269531 L 45.722656 34.089844 C 45.3125 34.617188 44.859375 34.984375 44.363281 35.191406 "></path><path style=" stroke:none;fill-rule:nonzero;fill:rgb(0%,0%,0%);fill-opacity:1;" d="M 51.125 24.851562 L 51.125 33.332031 L 56.203125 33.332031 L 56.203125 35.265625 L 48.839844 35.265625 L 48.839844 24.851562 L 51.125 24.851562 "></path><path style=" stroke:none;fill-rule:nonzero;fill:rgb(0%,0%,0%);fill-opacity:1;" d="M 40.316406 36.5625 C 36.816406 38.6875 31.578125 39.898438 25.738281 39.898438 C 15.207031 39.898438 6.671875 35.515625 6.671875 30.105469 C 6.671875 24.699219 15.207031 20.316406 25.738281 20.316406 C 31.601562 20.316406 36.859375 21.546875 40.359375 23.6875 C 36.542969 20.101562 29.695312 17.582031 21.871094 17.582031 C 9.886719 17.578125 0.171875 23.1875 0.171875 30.105469 C 0.167969 37.023438 9.882812 42.632812 21.867188 42.636719 C 29.660156 42.632812 36.488281 40.121094 40.316406 36.5625 "></path><path style=" stroke:none;fill-rule:nonzero;fill:rgb(0%,0%,0%);fill-opacity:1;" d="M 21.109375 24.039062 L 19.097656 32.734375 L 16.671875 24.039062 L 14.828125 24.039062 L 12.40625 32.734375 L 10.390625 24.039062 L 8.492188 24.039062 L 11.476562 35.375 L 13.257812 35.375 L 15.765625 26.46875 L 18.242188 35.375 L 20.03125 35.375 L 23.117188 24.039062 L 21.109375 24.039062 "></path><path style=" stroke:none;fill-rule:nonzero;fill:rgb(0%,0%,0%);fill-opacity:1;" d="M 28.136719 28.808594 C 27.859375 28.417969 27.511719 28.113281 27.101562 27.910156 C 26.679688 27.703125 26.191406 27.597656 25.648438 27.597656 C 25.039062 27.597656 24.488281 27.707031 24.015625 27.925781 C 23.566406 28.132812 23.183594 28.4375 22.875 28.828125 C 22.308594 29.554688 22.007812 30.578125 22.007812 31.792969 C 22.007812 32.332031 22.082031 32.835938 22.234375 33.296875 C 22.386719 33.757812 22.609375 34.160156 22.898438 34.5 C 23.507812 35.207031 24.375 35.582031 25.410156 35.582031 C 25.953125 35.582031 26.398438 35.523438 26.769531 35.410156 C 27.089844 35.308594 27.304688 35.171875 27.480469 35.058594 C 27.707031 34.910156 27.914062 34.726562 28.097656 34.511719 C 28.253906 34.332031 28.394531 34.132812 28.511719 33.914062 C 28.722656 33.527344 28.824219 33.164062 28.847656 32.972656 L 28.863281 32.84375 L 27.382812 32.84375 L 27.375 32.949219 C 27.339844 33.433594 26.707031 34.289062 25.582031 34.289062 C 23.972656 34.289062 23.589844 33.128906 23.566406 32.105469 L 28.949219 32.105469 L 28.949219 31.992188 C 28.949219 31.332031 28.878906 30.726562 28.75 30.199219 C 28.613281 29.65625 28.410156 29.191406 28.136719 28.808594 Z M 25.476562 28.933594 C 26.671875 28.933594 27.308594 29.574219 27.425781 30.894531 L 23.570312 30.894531 C 23.625 29.816406 24.476562 28.933594 25.476562 28.933594 "></path><path style=" stroke:none;fill-rule:nonzero;fill:rgb(0%,0%,0%);fill-opacity:1;" d="M 36.402344 29.898438 C 36.257812 29.441406 36.046875 29.039062 35.773438 28.699219 C 35.492188 28.351562 35.148438 28.078125 34.757812 27.894531 C 34.347656 27.699219 33.886719 27.601562 33.390625 27.601562 C 32.933594 27.605469 32.511719 27.707031 32.148438 27.898438 C 31.84375 28.054688 31.574219 28.273438 31.339844 28.550781 L 31.339844 25.074219 L 29.863281 25.074219 L 29.863281 35.375 L 31.265625 35.375 L 31.265625 34.671875 C 31.390625 34.835938 31.546875 35.003906 31.757812 35.15625 C 32.15625 35.441406 32.648438 35.585938 33.222656 35.585938 C 33.839844 35.585938 34.386719 35.445312 34.855469 35.175781 C 35.273438 34.933594 35.625 34.585938 35.902344 34.140625 C 36.148438 33.753906 36.332031 33.296875 36.453125 32.78125 C 36.558594 32.335938 36.617188 31.851562 36.617188 31.375 C 36.613281 30.851562 36.542969 30.351562 36.402344 29.898438 Z M 35.078125 31.574219 C 35.078125 32.382812 34.914062 33.058594 34.605469 33.535156 C 34.277344 34.039062 33.804688 34.292969 33.191406 34.292969 C 32.3125 34.292969 31.28125 33.675781 31.28125 31.9375 C 31.28125 31.105469 31.386719 30.464844 31.597656 29.980469 C 31.902344 29.277344 32.414062 28.9375 33.167969 28.9375 C 33.964844 28.9375 34.5 29.25 34.800781 29.894531 C 35.046875 30.425781 35.078125 31.070312 35.078125 31.574219 "></path></g></svg> 