<svg xmlns="http://www.w3.org/2000/svg" xmlns:xlink="http://www.w3.org/1999/xlink" viewBox="0 0 500 500" width="500" height="500" preserveAspectRatio="xMidYMid meet" style="width: 100%; height: 100%; transform: translate3d(0px, 0px, 0px); content-visibility: visible;"><defs><clipPath id="__lottie_element_482"><rect width="500" height="500" x="0" y="0"></rect></clipPath><g id="__lottie_element_488"><g transform="matrix(1,0,0,1,367,362)" opacity="1" style="display: block;"><path fill="rgb(255,0,0)" fill-opacity="1" d=" M-71.00599670410156,-94.67500305175781 C-23.66900062561035,-115.71399688720703 23.66900062561035,-115.71399688720703 71.00599670410156,-94.67500305175781 C71.00599670410156,-94.67500305175781 71.00599670410156,-46.14500045776367 71.00599670410156,-46.14500045776367 C71.00599670410156,1.1059999465942383 43.17900085449219,43.92499923706055 0,63.11600112915039 C0,63.11600112915039 0,63.117000579833984 0,63.117000579833984 C0,63.117000579833984 0,63.11600112915039 0,63.11600112915039 C-43.17900085449219,43.92499923706055 -71.00599670410156,1.1059999465942383 -71.00599670410156,-46.14500045776367 C-71.00599670410156,-46.14500045776367 -71.00599670410156,-94.67500305175781 -71.00599670410156,-94.67500305175781z"></path><g opacity="1" transform="matrix(1,0,0,1,0,0)"><path stroke-linecap="round" stroke-linejoin="round" fill-opacity="0" stroke="rgb(32,118,255)" stroke-opacity="1" stroke-width="16" d=" M-71.00599670410156,-94.67500305175781 C-23.66900062561035,-115.71399688720703 23.66900062561035,-115.71399688720703 71.00599670410156,-94.67500305175781 C71.00599670410156,-94.67500305175781 71.00599670410156,-46.14500045776367 71.00599670410156,-46.14500045776367 C71.00599670410156,1.1059999465942383 43.17900085449219,43.92499923706055 0,63.11600112915039 C0,63.11600112915039 0,63.117000579833984 0,63.117000579833984 C0,63.117000579833984 0,63.11600112915039 0,63.11600112915039 C-43.17900085449219,43.92499923706055 -71.00599670410156,1.1059999465942383 -71.00599670410156,-46.14500045776367 C-71.00599670410156,-46.14500045776367 -71.00599670410156,-94.67500305175781 -71.00599670410156,-94.67500305175781z"></path></g></g></g><filter id="__lottie_element_497" filterUnits="objectBoundingBox" x="0%" y="0%" width="100%" height="100%"><feComponentTransfer in="SourceGraphic"><feFuncA type="table" tableValues="1.0 0.0"></feFuncA></feComponentTransfer></filter><mask id="__lottie_element_488_2" mask-type="alpha"><g filter="url(#__lottie_element_497)"><rect width="500" height="500" x="0" y="0" fill="#ffffff" opacity="0"></rect><use xlink:href="#__lottie_element_488"></use></g></mask></defs><g clip-path="url(#__lottie_element_482)"><g mask="url(#__lottie_element_488_2)" style="display: block;"><g transform="matrix(1,0,0,1,250,250)" opacity="1"><g opacity="1" transform="matrix(1,0,0,1,0,0)"><path stroke-linecap="round" stroke-linejoin="round" fill-opacity="0" stroke="rgb(0,0,0)" stroke-opacity="1" stroke-width="16" d=" M-45.89699935913086,-0.777999997138977 C-45.89699935913086,-0.777999997138977 -45.89699935913086,45.89699935913086 -45.89699935913086,45.89699935913086 C-45.89699935913086,45.89699935913086 -140.802001953125,45.89699935913086 -140.802001953125,45.89699935913086 C-140.802001953125,45.89699935913086 -140.802001953125,-0.777999997138977 -140.802001953125,-0.777999997138977 C-140.802001953125,-0.777999997138977 -45.89699935913086,-0.777999997138977 -45.89699935913086,-0.777999997138977z"></path></g><g opacity="1" transform="matrix(1,0,0,1,0,0)"><path stroke-linecap="round" stroke-linejoin="round" fill-opacity="0" stroke="rgb(0,0,0)" stroke-opacity="1" stroke-width="16" d=" M-164.52099609375,-187.4770050048828 C-164.52099609375,-187.4770050048828 164.52099609375,-187.4770050048828 164.52099609375,-187.4770050048828 C177.19900512695312,-187.4770050048828 187.4770050048828,-177.19900512695312 187.4770050048828,-164.52099609375 C187.4770050048828,-164.52099609375 187.4770050048828,-70.40899658203125 187.4770050048828,-70.40899658203125 C187.4770050048828,-57.73099899291992 177.19900512695312,-47.452999114990234 164.52099609375,-47.452999114990234 C164.52099609375,-47.452999114990234 -164.52099609375,-47.452999114990234 -164.52099609375,-47.452999114990234 C-177.19900512695312,-47.452999114990234 -187.4770050048828,-57.73099899291992 -187.4770050048828,-70.40899658203125 C-187.4770050048828,-70.40899658203125 -187.4770050048828,-164.52099609375 -187.4770050048828,-164.52099609375 C-187.4770050048828,-177.19900512695312 -177.19900512695312,-187.4770050048828 -164.52099609375,-187.4770050048828z"></path></g><g opacity="1" transform="matrix(1,0,0,1,0,0)"><path stroke-linecap="round" stroke-linejoin="round" fill-opacity="0" stroke="rgb(0,0,0)" stroke-opacity="1" stroke-width="16" d=" M-45.89699935913086,-140.802001953125 C-45.89699935913086,-140.802001953125 -45.89699935913086,-94.12799835205078 -45.89699935913086,-94.12799835205078 C-45.89699935913086,-94.12799835205078 -140.802001953125,-94.12799835205078 -140.802001953125,-94.12799835205078 C-140.802001953125,-94.12799835205078 -140.802001953125,-140.802001953125 -140.802001953125,-140.802001953125 C-140.802001953125,-140.802001953125 -45.89699935913086,-140.802001953125 -45.89699935913086,-140.802001953125z"></path></g><g opacity="1" transform="matrix(1,0,0,1,0,0)"><path stroke-linecap="round" stroke-linejoin="round" fill-opacity="0" stroke="rgb(0,0,0)" stroke-opacity="1" stroke-width="16" d=" M94.12799835205078,-117.46499633789062 C94.12799835205078,-117.46499633789062 70.79000091552734,-117.46499633789062 70.79000091552734,-117.46499633789062"></path></g><g opacity="1" transform="matrix(1,0,0,1,0,0)"><path stroke-linecap="round" stroke-linejoin="round" fill-opacity="0" stroke="rgb(0,0,0)" stroke-opacity="1" stroke-width="16" d=" M16.336000442504883,22.55900001525879 C16.336000442504883,22.55900001525879 0.777999997138977,22.55900001525879 0.777999997138977,22.55900001525879"></path></g><g opacity="1" transform="matrix(1,0,0,1,0,0)"><path stroke-linecap="round" stroke-linejoin="round" fill-opacity="0" stroke="rgb(0,0,0)" stroke-opacity="1" stroke-width="16" d=" M24.114999771118164,-117.46499633789062 C24.114999771118164,-117.46499633789062 0.777999997138977,-117.46499633789062 0.777999997138977,-117.46499633789062"></path></g><g opacity="1" transform="matrix(1,0,0,1,0,0)"><path stroke-linecap="round" stroke-linejoin="round" fill-opacity="0" stroke="rgb(0,0,0)" stroke-opacity="1" stroke-width="16" d=" M140.802001953125,-140.802001953125 C140.802001953125,-140.802001953125 140.802001953125,-94.12799835205078 140.802001953125,-94.12799835205078"></path></g><g opacity="1" transform="matrix(1,0,0,1,0,0)"><path stroke-linecap="round" stroke-linejoin="round" fill-opacity="0" stroke="rgb(0,0,0)" stroke-opacity="1" stroke-width="16" d=" M187.4770050048828,31.893999099731445 C187.4770050048828,31.893999099731445 187.4770050048828,-24.114999771118164 187.4770050048828,-24.114999771118164 C187.4770050048828,-37.00400161743164 177.0290069580078,-47.452999114990234 164.13999938964844,-47.452999114990234 C164.13999938964844,-47.452999114990234 -164.13999938964844,-47.452999114990234 -164.13999938964844,-47.452999114990234 C-177.0290069580078,-47.452999114990234 -187.4770050048828,-37.00400161743164 -187.4770050048828,-24.114999771118164 C-187.4770050048828,-24.114999771118164 -187.4770050048828,69.23400115966797 -187.4770050048828,69.23400115966797 C-187.4770050048828,82.12300109863281 -177.0290069580078,92.5719985961914 -164.13999938964844,92.5719985961914 C-164.13999938964844,92.5719985961914 161.67100524902344,92.5719985961914 161.67100524902344,92.5719985961914 C174.8939971923828,92.5719985961914 185.73800659179688,82.09600067138672 186.1959991455078,68.88099670410156 C186.1959991455078,68.88099670410156 187.4770050048828,31.893999099731445 187.4770050048828,31.893999099731445z"></path></g></g></g><g transform="matrix(1,0,0,1,250,250)" opacity="1" style="display: none;"><g opacity="1" transform="matrix(1,0,0,1,0,0)"><path stroke-linecap="round" stroke-linejoin="round" fill-opacity="0" stroke="rgb(32,118,255)" stroke-opacity="1" stroke-width="16" d=" M94.12799835205078,-117.46499633789062 C94.12799835205078,-117.46499633789062 70.79000091552734,-117.46499633789062 70.79000091552734,-117.46499633789062"></path></g><g opacity="1" transform="matrix(1,0,0,1,0,0)"><path stroke-linecap="round" stroke-linejoin="round" fill-opacity="0" stroke="rgb(32,118,255)" stroke-opacity="1" stroke-width="16" d=" M16.336000442504883,22.55900001525879 C16.336000442504883,22.55900001525879 0.777999997138977,22.55900001525879 0.777999997138977,22.55900001525879"></path></g></g><g transform="matrix(1,0,0,1,367,362)" opacity="1" style="display: block;"><g opacity="1" transform="matrix(1,0,0,1,0,0)"><path stroke-linecap="round" stroke-linejoin="round" fill-opacity="0" stroke="rgb(32,118,255)" stroke-opacity="1" stroke-width="16" d=" M-71.00599670410156,-94.67500305175781 C-23.66900062561035,-115.71399688720703 23.66900062561035,-115.71399688720703 71.00599670410156,-94.67500305175781 C71.00599670410156,-94.67500305175781 71.00599670410156,-46.14500045776367 71.00599670410156,-46.14500045776367 C71.00599670410156,1.1059999465942383 43.17900085449219,43.92499923706055 0,63.11600112915039 C0,63.11600112915039 0,63.117000579833984 0,63.117000579833984 C0,63.117000579833984 0,63.11600112915039 0,63.11600112915039 C-43.17900085449219,43.92499923706055 -71.00599670410156,1.1059999465942383 -71.00599670410156,-46.14500045776367 C-71.00599670410156,-46.14500045776367 -71.00599670410156,-94.67500305175781 -71.00599670410156,-94.67500305175781z"></path></g></g><g transform="matrix(1,0,0,1,367,360)" opacity="1" style="display: block;"><g opacity="1" transform="matrix(1,0,0,1,0,0)"><path stroke-linecap="round" stroke-linejoin="round" fill-opacity="0" stroke="rgb(32,118,255)" stroke-opacity="1" stroke-width="16" d=" M-25.104000091552734,-23.66900062561035 C-25.104000091552734,-23.66900062561035 -8.368000030517578,-6.932000160217285 -8.368000030517578,-6.932000160217285 C-8.368000030517578,-6.932000160217285 25.104000091552734,-40.404998779296875 25.104000091552734,-40.404998779296875"></path></g></g></g></svg>