<svg xmlns="http://www.w3.org/2000/svg" xmlns:xlink="http://www.w3.org/1999/xlink" viewBox="0 0 500 500" width="500" height="500" preserveAspectRatio="xMidYMid meet" style="width: 100%; height: 100%; transform: translate3d(0px, 0px, 0px); content-visibility: visible;"><defs><clipPath id="__lottie_element_381"><rect width="500" height="500" x="0" y="0"></rect></clipPath></defs><g clip-path="url(#__lottie_element_381)"><g transform="matrix(0.800000011920929,0,0,0.800000011920929,250,250)" opacity="1" style="display: block;"><g opacity="1" transform="matrix(1,0,0,1,0,0)"><path stroke-linecap="round" stroke-linejoin="round" fill-opacity="0" stroke="rgb(0,0,0)" stroke-opacity="1" stroke-width="20" d=" M-150,151 C-150,151 -90,151 -90,151 C-90,151 -90,-1 -90,-1"></path></g></g><g transform="matrix(0.800000011920929,0,0,0.800000011920929,250,250)" opacity="1" style="display: block;"><g opacity="1" transform="matrix(1,0,0,1,0,0)"><path stroke-linecap="round" stroke-linejoin="round" fill-opacity="0" stroke="rgb(0,0,0)" stroke-opacity="1" stroke-width="20" d=" M0,-1 C0,-1 0,181 0,181"></path></g></g><g transform="matrix(0.800000011920929,0,0,0.800000011920929,250,250)" opacity="1" style="display: block;"><g opacity="1" transform="matrix(1,0,0,1,0,0)"><path stroke-linecap="round" stroke-linejoin="round" fill-opacity="0" stroke="rgb(0,0,0)" stroke-opacity="1" stroke-width="20" d=" M90,-1 C90,-1 90,151 90,151 C90,151 150,151 150,151"></path></g></g><g transform="matrix(0.800000011920929,0,0,0.800000011920929,250,250)" opacity="1" style="display: none;"><g opacity="1" transform="matrix(1,0,0,1,0,0)"><path stroke-linecap="round" stroke-linejoin="round" fill-opacity="0" stroke="rgb(32,118,255)" stroke-opacity="1" stroke-width="20" d="M0 0"></path></g><g opacity="1" transform="matrix(1,0,0,1,0,0)"><path stroke-linecap="round" stroke-linejoin="round" fill-opacity="0" stroke="rgb(32,118,255)" stroke-opacity="1" stroke-width="20" d="M0 0"></path></g><g opacity="1" transform="matrix(1,0,0,1,0,0)"><path stroke-linecap="round" stroke-linejoin="round" fill-opacity="0" stroke="rgb(32,118,255)" stroke-opacity="1" stroke-width="20" d="M0 0"></path></g></g><g transform="matrix(0.800000011920929,0,0,0.800000011920929,250,250)" opacity="1" style="display: block;"><g opacity="1" transform="matrix(1,0,0,1,0,0)"><path stroke-linecap="round" stroke-linejoin="round" fill-opacity="0" stroke="rgb(32,118,255)" stroke-opacity="1" stroke-width="20" d=" M0,-1 C0,-1 0,1.5820000171661377 0,6.13100004196167"></path></g><g opacity="1" transform="matrix(1,0,0,1,0,0)"><path stroke-linecap="round" stroke-linejoin="round" fill-opacity="0" stroke="rgb(32,118,255)" stroke-opacity="1" stroke-width="20" d=" M90,-1 C90,-1 90,2.059000015258789 90,7.309000015258789"></path></g><g opacity="1" transform="matrix(1,0,0,1,0,0)"><path stroke-linecap="round" stroke-linejoin="round" fill-opacity="0" stroke="rgb(32,118,255)" stroke-opacity="1" stroke-width="20" d=" M-90,-1 C-90,-1 -90,2.0409998893737793 -90,7.263999938964844"></path></g></g><g transform="matrix(0.800000011920929,0,0,0.800000011920929,250,250)" opacity="1" style="display: block;"><g opacity="1" transform="matrix(1,0,0,1,0,0)"><path stroke-linecap="round" stroke-linejoin="round" fill-opacity="0" stroke="rgb(0,0,0)" stroke-opacity="1" stroke-width="20" d=" M-135,-1 C-176.4219970703125,-1 -210,-34.577999114990234 -210,-76 C-210,-112.75700378417969 -183.5189971923828,-143.20399475097656 -148.62100219726562,-149.6269989013672 C-141.85499572753906,-201.03799438476562 -98.2249984741211,-241 -45,-241 C-15.708999633789062,-241 10.756999969482422,-228.88099670410156 29.82200050354004,-209.46600341796875 C34.78099822998047,-210.3159942626953 39.803001403808594,-211 45,-211 C84.25800323486328,-211 117.36900329589844,-185.58099365234375 129.64100646972656,-150.4600067138672 C131.44500732421875,-150.58999633789062 133.16299438476562,-151 135,-151 C176.4219970703125,-151 210,-117.4219970703125 210,-76 C210,-34.577999114990234 176.4219970703125,-1 135,-1 C135,-1 -135,-1 -135,-1z"></path></g><g opacity="1" transform="matrix(1,0,0,1,0,0)"><path stroke-linecap="round" stroke-linejoin="round" fill-opacity="0" stroke="rgb(0,0,0)" stroke-opacity="1" stroke-width="20" d=" M-148.8300018310547,-149.7239990234375 C-134.4600067138672,-152.41000366210938 -119.4540023803711,-150.8780059814453 -105.80699920654297,-145.1060028076172"></path></g><g opacity="1" transform="matrix(1,0,0,1,0,0)"><path stroke-linecap="round" stroke-linejoin="round" fill-opacity="0" stroke="rgb(0,0,0)" stroke-opacity="1" stroke-width="20" d=" M105.80699920654297,-145.1060028076172 C119.4530029296875,-150.8780059814453 134.45899963378906,-152.41000366210938 148.82899475097656,-149.7239990234375"></path></g></g><g transform="matrix(0.800000011920929,0,0,0.800000011920929,252.39999389648438,250)" opacity="1" style="display: block;"><g opacity="1" transform="matrix(1,0,0,1,0,0)"><path stroke-linecap="round" stroke-linejoin="round" fill-opacity="0" stroke="rgb(0,0,0)" stroke-opacity="1" stroke-width="20" d=" M210,151 C210,134.43099975585938 196.56900024414062,121 180,121 C163.43099975585938,121 150,134.43099975585938 150,151 C150,167.56900024414062 163.43099975585938,181 180,181 C196.56900024414062,181 210,167.56900024414062 210,151z"></path></g></g><g transform="matrix(0.800000011920929,0,0,0.800000011920929,250,253.1999969482422)" opacity="1" style="display: block;"><g opacity="1" transform="matrix(1,0,0,1,0,0)"><path stroke-linecap="round" stroke-linejoin="round" fill-opacity="0" stroke="rgb(0,0,0)" stroke-opacity="1" stroke-width="20" d=" M30,211 C30,194.43099975585938 16.569000244140625,181 0,181 C-16.569000244140625,181 -30,194.43099975585938 -30,211 C-30,227.56900024414062 -16.569000244140625,241 0,241 C16.569000244140625,241 30,227.56900024414062 30,211z"></path></g></g><g transform="matrix(0.800000011920929,0,0,0.800000011920929,247.60000610351562,250)" opacity="1" style="display: block;"><g opacity="1" transform="matrix(1,0,0,1,0,0)"><path stroke-linecap="round" stroke-linejoin="round" fill-opacity="0" stroke="rgb(0,0,0)" stroke-opacity="1" stroke-width="20" d=" M-150,151 C-150,134.43099975585938 -163.43099975585938,121 -180,121 C-196.56900024414062,121 -210,134.43099975585938 -210,151 C-210,167.56900024414062 -196.56900024414062,181 -180,181 C-163.43099975585938,181 -150,167.56900024414062 -150,151z"></path></g></g><g transform="matrix(1,0,0,1,250,222.12213134765625)" opacity="1" style="display: block;"><g opacity="1" transform="matrix(1,0,0,1,0,0)"><path stroke-linecap="round" stroke-linejoin="round" fill-opacity="0" stroke="rgb(32,118,255)" stroke-opacity="1" stroke-width="16" d=" M3.693000078201294,-8.836999893188477 C3.693000078201294,-8.836999893188477 3.693000078201294,-82.16300201416016 3.693000078201294,-82.16300201416016"></path></g><g opacity="1" transform="matrix(1,0,0,1,0,0)"><path stroke-linecap="round" stroke-linejoin="round" fill-opacity="0" stroke="rgb(32,118,255)" stroke-opacity="1" stroke-width="16" d=" M-27.64299964904785,-32.025001525878906 C-27.64299964904785,-32.025001525878906 3.693000078201294,-8.836999893188477 3.693000078201294,-8.836999893188477 C3.693000078201294,-8.836999893188477 34,-32.025001525878906 34,-32.025001525878906"></path></g></g></g></svg>