<svg xmlns="http://www.w3.org/2000/svg" xmlns:xlink="http://www.w3.org/1999/xlink" viewBox="0 0 500 500" width="500" height="500" preserveAspectRatio="xMidYMid meet" style="width: 100%; height: 100%; transform: translate3d(0px, 0px, 0px); content-visibility: visible;"><defs><clipPath id="__lottie_element_48"><rect width="500" height="500" x="0" y="0"></rect></clipPath><g id="__lottie_element_52"><g style="display: block;" transform="matrix(1,0,0,1,131.64300537109375,68.66313171386719)" opacity="1"><path fill="rgb(255,0,0)" fill-opacity="1" d=" M40,69.15 C40,69.15 40,235.28 40,235.28 C40,235.28 40,235.28 40,235.28 C40,251.33 77.42,264.35 123.58,264.35 C169.73,264.35 207.15,251.33 207.15,235.28 C207.15,235.28 207.15,235.28 207.15,235.28 C207.15,235.28 207.35,142.42 207.35,142.42 C207.35,142.42 239.85,128.17 252.03,109.64 C262.29,93.99 265.75,80.58 255.81,67.92 C219.49,21.66 132.52,40 123.58,40 C77.42,40 40,53.02 40,69.07 M40,69.15 C40,69.15 40,235.28 40,235.28 C40,235.28 40,235.28 40,235.28 C40,251.33 77.42,264.35 123.58,264.35 C169.73,264.35 207.15,251.33 207.15,235.28 C207.15,235.28 207.15,235.28 207.15,235.28 C207.15,235.28 207.35,142.42 207.35,142.42 C207.35,142.42 239.85,128.17 252.03,109.64 C262.29,93.99 265.75,80.58 255.81,67.92 C219.49,21.66 132.52,40 123.58,40 C77.42,40 40,53.02 40,69.07"></path><g opacity="1" transform="matrix(1,0,0,1,207.33799743652344,145.68299865722656)"><path stroke-linecap="round" stroke-linejoin="round" fill-opacity="0" stroke="rgb(0,0,0)" stroke-opacity="1" stroke-width="16" d=" M-167.3350067138672,-76.52799987792969 C-167.3350067138672,-76.52799987792969 -167.33799743652344,89.59539794921875 -167.33799743652344,89.59539794921875 C-167.33799743652344,89.59539794921875 -167.3350067138672,89.59539794921875 -167.3350067138672,89.59539794921875 C-167.3350067138672,105.65139770507812 -129.91799926757812,118.66739654541016 -83.76200103759766,118.66739654541016 C-37.60599899291992,118.66739654541016 -0.1899999976158142,105.65139770507812 -0.1899999976158142,89.59539794921875 C-0.1899999976158142,89.59539794921875 -0.18799999356269836,89.59539794921875 -0.18799999356269836,89.59539794921875 C-0.18799999356269836,89.59539794921875 0.01650729402899742,-3.2669761180877686 0.01650729402899742,-3.2669761180877686 C0.01650729402899742,-3.2669761180877686 32.513912200927734,-17.50992202758789 44.687740325927734,-36.04607391357422 C54.95206069946289,-51.689292907714844 58.4100227355957,-65.10537719726562 48.46702575683594,-77.76737976074219 C12.149024963378906,-124.01837921142578 -74.81800079345703,-105.68299865722656 -83.76200103759766,-105.68299865722656 C-129.91799926757812,-105.68299865722656 -167.3350067138672,-92.66699981689453 -167.3350067138672,-76.61100006103516 M-167.3350067138672,-76.52799987792969 C-167.3350067138672,-76.52799987792969 -167.33799743652344,89.59539794921875 -167.33799743652344,89.59539794921875 C-167.33799743652344,89.59539794921875 -167.3350067138672,89.59539794921875 -167.3350067138672,89.59539794921875 C-167.3350067138672,105.65139770507812 -129.91799926757812,118.66739654541016 -83.76200103759766,118.66739654541016 C-37.60599899291992,118.66739654541016 -0.1899999976158142,105.65139770507812 -0.1899999976158142,89.59539794921875 C-0.1899999976158142,89.59539794921875 -0.18799999356269836,89.59539794921875 -0.18799999356269836,89.59539794921875 C-0.18799999356269836,89.59539794921875 0.01650729402899742,-3.2669761180877686 0.01650729402899742,-3.2669761180877686 C0.01650729402899742,-3.2669761180877686 32.513912200927734,-17.50992202758789 44.687740325927734,-36.04607391357422 C54.95206069946289,-51.689292907714844 58.4100227355957,-65.10537719726562 48.46702575683594,-77.76737976074219 C12.149024963378906,-124.01837921142578 -74.81800079345703,-105.68299865722656 -83.76200103759766,-105.68299865722656 C-129.91799926757812,-105.68299865722656 -167.3350067138672,-92.66699981689453 -167.3350067138672,-76.61100006103516"></path></g></g></g><g id="__lottie_element_58"><g style="display: block;" transform="matrix(1,0,0,1,131.64300537109375,78.66313171386719)" opacity="1"><path fill="rgb(255,0,0)" fill-opacity="1" d=" M41.97,75.52 C41.97,75.52 42,223.85 42,223.85 C42,238.69 77.46,250.71 123.67,250.71 C169.88,250.71 206.34,239.69 206.34,224.85 C206.34,224.85 206.02,164.29 205.89,130.36 C181.75,124.36 170.91,120.22 171.44,119.69 C165.39,114.32 150.96,96.92 147.01,91.7 C69.35,93.37 41.97,75.52 41.97,75.52z"></path><g opacity="1" transform="matrix(1,0,0,1,123.66799926757812,211.74099731445312)"><path stroke-linecap="round" stroke-linejoin="round" fill-opacity="0" stroke="rgb(0,0,0)" stroke-opacity="1" stroke-width="16" d=" M-81.69400024414062,-136.218994140625 C-81.69400024414062,-136.218994140625 -81.66899871826172,12.11400032043457 -81.66899871826172,12.11400032043457 C-81.66899871826172,26.94499969482422 -46.20899963378906,38.96900177001953 -0.0010000000474974513,38.96900177001953 C46.20800018310547,38.96900177001953 82.66899871826172,27.94499969482422 82.66899871826172,13.11400032043457 C82.66899871826172,13.11400032043457 82.35189056396484,-47.45493698120117 82.22589111328125,-81.37693786621094 C58.08489227294922,-87.37993621826172 47.238548278808594,-91.51942443847656 47.77154541015625,-92.05242156982422 C41.718631744384766,-97.42121887207031 27.287532806396484,-114.82032012939453 23.344202041625977,-120.04185485839844 C-54.31879806518555,-118.37385559082031 -81.69400024414062,-136.218994140625 -81.69400024414062,-136.218994140625z"></path></g></g></g><g id="__lottie_element_64"><g style="display: block;" transform="matrix(1,0,0,1,131.64300537109375,78.66313171386719)" opacity="1"><path fill="rgb(255,0,0)" fill-opacity="1" d=" M41.97,75.52 C41.97,75.52 42,223.85 42,223.85 C42,238.69 77.46,250.71 123.67,250.71 C169.88,250.71 206.34,239.69 206.34,224.85 C206.34,224.85 206.02,164.29 205.89,130.36 C181.75,124.36 170.91,120.22 171.44,119.69 C165.82,113.02 150.52,96.49 147.01,91.7 C69.35,93.37 41.97,75.52 41.97,75.52z"></path><g opacity="1" transform="matrix(1,0,0,1,123.66799926757812,211.74099731445312)"><path stroke-linecap="round" stroke-linejoin="round" fill-opacity="0" stroke="rgb(0,0,0)" stroke-opacity="1" stroke-width="16" d=" M-81.69400024414062,-136.218994140625 C-81.69400024414062,-136.218994140625 -81.66899871826172,12.11400032043457 -81.66899871826172,12.11400032043457 C-81.66899871826172,26.94499969482422 -46.20899963378906,38.96900177001953 -0.0010000000474974513,38.96900177001953 C46.20800018310547,38.96900177001953 82.66899871826172,27.94499969482422 82.66899871826172,13.11400032043457 C82.66899871826172,13.11400032043457 82.35189056396484,-47.45493698120117 82.22589111328125,-81.37693786621094 C58.08489227294922,-87.37993621826172 47.238548278808594,-91.51942443847656 47.77154541015625,-92.05242156982422 C42.1518669128418,-98.72091674804688 26.854299545288086,-115.25354766845703 23.344202041625977,-120.04185485839844 C-54.31879806518555,-118.37385559082031 -81.69400024414062,-136.218994140625 -81.69400024414062,-136.218994140625z"></path></g></g></g><g id="__lottie_element_70"><g style="display: block;" transform="matrix(1,0,0,1,237.33099365234375,44.30500030517578)" opacity="1"><path fill="rgb(255,0,0)" fill-opacity="1" d=" M101.67,160.34 C69.98,160.34 44.2,134.56 44.2,102.86 C44.2,71.17 69.98,45.38 101.67,45.38 C133.37,45.38 159.15,71.17 159.15,102.86 C159.15,134.56 133.37,160.34 101.67,160.34z"></path><g opacity="1" transform="matrix(1,0,0,1,102.26799774169922,102.26799774169922)"><path stroke-linecap="round" stroke-linejoin="round" fill-opacity="0" stroke="rgb(32,118,255)" stroke-opacity="1" stroke-width="16" d=" M-0.5932474732398987,58.07241439819336 C-32.28687286376953,58.07241439819336 -58.07241439819336,32.287872314453125 -58.07241439819336,0.5932474732398987 C-58.07241439819336,-31.100378036499023 -32.28687286376953,-56.885921478271484 -0.5932474732398987,-56.885921478271484 C31.101377487182617,-56.885921478271484 56.885921478271484,-31.100378036499023 56.885921478271484,0.5932474732398987 C56.885921478271484,32.287872314453125 31.101377487182617,58.07241439819336 -0.5932474732398987,58.07241439819336z"></path></g></g></g><filter id="__lottie_element_76" filterUnits="objectBoundingBox" x="0%" y="0%" width="100%" height="100%"><feComponentTransfer in="SourceGraphic"><feFuncA type="table" tableValues="1.0 0.0"></feFuncA></feComponentTransfer></filter><mask id="__lottie_element_70_2" mask-type="alpha"><g filter="url(#__lottie_element_76)"><rect width="500" height="500" x="0" y="0" fill="#ffffff" opacity="0"></rect><use xlink:href="#__lottie_element_70"></use></g></mask><mask id="__lottie_element_64_1" mask-type="alpha"><use xlink:href="#__lottie_element_64"></use></mask><mask id="__lottie_element_58_1" mask-type="alpha"><use xlink:href="#__lottie_element_58"></use></mask><filter id="__lottie_element_77" filterUnits="objectBoundingBox" x="0%" y="0%" width="100%" height="100%"><feComponentTransfer in="SourceGraphic"><feFuncA type="table" tableValues="1.0 0.0"></feFuncA></feComponentTransfer></filter><mask id="__lottie_element_52_2" mask-type="alpha"><g filter="url(#__lottie_element_77)"><rect width="500" height="500" x="0" y="0" fill="#ffffff" opacity="0"></rect><use xlink:href="#__lottie_element_52"></use></g></mask></defs><g clip-path="url(#__lottie_element_48)"><g mask="url(#__lottie_element_52_2)" style="display: block;"><g transform="matrix(1,0,0,1,46.25201416015625,104.21484375)" opacity="1"><g opacity="0" transform="matrix(1,0,0,1,202.44500732421875,159.0449981689453)"><path fill="rgb(255,255,255)" fill-opacity="1" d=" M252.2725067138672,-252.2725067138672 C252.2725067138672,-252.2725067138672 252.2725067138672,252.2725067138672 252.2725067138672,252.2725067138672 C252.2725067138672,252.2725067138672 -252.2725067138672,252.2725067138672 -252.2725067138672,252.2725067138672 C-252.2725067138672,252.2725067138672 -252.2725067138672,-252.2725067138672 -252.2725067138672,-252.2725067138672 C-252.2725067138672,-252.2725067138672 252.2725067138672,-252.2725067138672 252.2725067138672,-252.2725067138672z"></path><path stroke-linecap="butt" stroke-linejoin="miter" fill-opacity="0" stroke-miterlimit="4" stroke="rgb(51,204,204)" stroke-opacity="1" stroke-width="16" d=" M252.2725067138672,-252.2725067138672 C252.2725067138672,-252.2725067138672 252.2725067138672,252.2725067138672 252.2725067138672,252.2725067138672 C252.2725067138672,252.2725067138672 -252.2725067138672,252.2725067138672 -252.2725067138672,252.2725067138672 C-252.2725067138672,252.2725067138672 -252.2725067138672,-252.2725067138672 -252.2725067138672,-252.2725067138672 C-252.2725067138672,-252.2725067138672 252.2725067138672,-252.2725067138672 252.2725067138672,-252.2725067138672z"></path></g><g opacity="1" transform="matrix(1,0,0,1,0,0)"><path stroke-linecap="round" stroke-linejoin="round" fill-opacity="0" stroke="rgb(0,0,0)" stroke-opacity="1" stroke-width="16" d=" M326.04400634765625,294.2770080566406 C326.04400634765625,294.2770080566406 96.9280014038086,294.2770080566406 96.9280014038086,294.2770080566406"></path></g><g opacity="1" transform="matrix(1,0,0,1,211.48599243164062,142.27200317382812)"><path stroke-linecap="round" stroke-linejoin="round" fill-opacity="0" stroke="rgb(0,0,0)" stroke-opacity="1" stroke-width="16" d=" M139.97799682617188,-102.27200317382812 C139.97799682617188,-102.27200317382812 171.48599243164062,-102.27200317382812 171.48599243164062,-102.27200317382812 C171.48599243164062,-102.27200317382812 171.48599243164062,102.27200317382812 171.48599243164062,102.27200317382812 C171.48599243164062,102.27200317382812 -171.48599243164062,102.27200317382812 -171.48599243164062,102.27200317382812 C-171.48599243164062,102.27200317382812 -171.48599243164062,-102.27200317382812 -171.48599243164062,-102.27200317382812 C-171.48599243164062,-102.27200317382812 -83.57499694824219,-102.27200317382812 -83.57499694824219,-102.27200317382812 C-83.57499694824219,-102.27200317382812 139.97799682617188,-102.27200317382812 139.97799682617188,-102.27200317382812z"></path></g><g opacity="1" transform="matrix(1,0,0,1,141.78700256347656,269.5830078125)"><path stroke-linecap="round" stroke-linejoin="round" fill-opacity="0" stroke="rgb(0,0,0)" stroke-opacity="1" stroke-width="16" d=" M-12.699000358581543,24.694000244140625 C1.3289999961853027,25.39900016784668 12.699000358581543,14.027000427246094 12.699000358581543,-0.0010000000474974513 C12.699000358581543,-14.027999877929688 1.3289999961853027,-25.399999618530273 -12.699000358581543,-25.038999557495117"></path></g><g opacity="1" transform="matrix(1,0,0,1,281.1839904785156,269.5820007324219)"><path stroke-linecap="round" stroke-linejoin="round" fill-opacity="0" stroke="rgb(0,0,0)" stroke-opacity="1" stroke-width="16" d=" M12.699000358581543,-25.038000106811523 C-1.3289999961853027,-25.39900016784668 -12.699000358581543,-14.027000427246094 -12.699000358581543,0.0010000000474974513 C-12.699000358581543,14.027999877929688 -1.3289999961853027,25.39900016784668 12.699000358581543,24.694000244140625"></path></g></g></g><g mask="url(#__lottie_element_58_1)" style="display: block;"><g transform="matrix(1,0,0,1,131.64300537109375,192.79103088378906)" opacity="1"><g opacity="0" transform="matrix(1,0,0,1,120.88400268554688,115.30999755859375)"><path fill="rgb(255,255,255)" fill-opacity="1" d=" M252.2725067138672,-252.2725067138672 C252.2725067138672,-252.2725067138672 252.2725067138672,252.2725067138672 252.2725067138672,252.2725067138672 C252.2725067138672,252.2725067138672 -252.2725067138672,252.2725067138672 -252.2725067138672,252.2725067138672 C-252.2725067138672,252.2725067138672 -252.2725067138672,-252.2725067138672 -252.2725067138672,-252.2725067138672 C-252.2725067138672,-252.2725067138672 252.2725067138672,-252.2725067138672 252.2725067138672,-252.2725067138672z"></path><path stroke-linecap="butt" stroke-linejoin="miter" fill-opacity="0" stroke-miterlimit="4" stroke="rgb(51,204,204)" stroke-opacity="1" stroke-width="16" d=" M252.2725067138672,-252.2725067138672 C252.2725067138672,-252.2725067138672 252.2725067138672,252.2725067138672 252.2725067138672,252.2725067138672 C252.2725067138672,252.2725067138672 -252.2725067138672,252.2725067138672 -252.2725067138672,252.2725067138672 C-252.2725067138672,252.2725067138672 -252.2725067138672,-252.2725067138672 -252.2725067138672,-252.2725067138672 C-252.2725067138672,-252.2725067138672 252.2725067138672,-252.2725067138672 252.2725067138672,-252.2725067138672z"></path></g><g opacity="1" transform="matrix(1,0,0,1,122.83300018310547,131.73300170898438)"><path stroke-linecap="round" stroke-linejoin="round" fill-opacity="0" stroke="rgb(32,118,255)" stroke-opacity="1" stroke-width="16" d=" M83.3290023803711,-13.154000282287598 C83.3290023803711,1.4140000343322754 41.87900161743164,13.189000129699707 -0.0010000000474974513,13.189000129699707 C-41.880001068115234,13.189000129699707 -82.51699829101562,1.4140000343322754 -82.51699829101562,-13.154000282287598"></path></g><g opacity="1" transform="matrix(1,0,0,1,122.83300018310547,185.73300170898438)"><path stroke-linecap="round" stroke-linejoin="round" fill-opacity="0" stroke="rgb(32,118,255)" stroke-opacity="1" stroke-width="16" d=" M83.3290023803711,-13.154000282287598 C83.3290023803711,1.4140000343322754 41.87900161743164,13.189000129699707 -0.0010000000474974513,13.189000129699707 C-41.880001068115234,13.189000129699707 -82.51699829101562,1.4140000343322754 -82.51699829101562,-13.154000282287598"></path></g></g></g><g mask="url(#__lottie_element_64_1)" style="display: block;"><g transform="matrix(1,0,0,1,131.64300537109375,78.66313171386719)" opacity="1"><g opacity="0" transform="matrix(1,0,0,1,123.91500091552734,156.218994140625)"><path fill="rgb(255,255,255)" fill-opacity="1" d=" M252.2725067138672,-252.2725067138672 C252.2725067138672,-252.2725067138672 252.2725067138672,252.2725067138672 252.2725067138672,252.2725067138672 C252.2725067138672,252.2725067138672 -252.2725067138672,252.2725067138672 -252.2725067138672,252.2725067138672 C-252.2725067138672,252.2725067138672 -252.2725067138672,-252.2725067138672 -252.2725067138672,-252.2725067138672 C-252.2725067138672,-252.2725067138672 252.2725067138672,-252.2725067138672 252.2725067138672,-252.2725067138672z"></path><path stroke-linecap="butt" stroke-linejoin="miter" fill-opacity="0" stroke-miterlimit="4" stroke="rgb(51,204,204)" stroke-opacity="1" stroke-width="16" d=" M252.2725067138672,-252.2725067138672 C252.2725067138672,-252.2725067138672 252.2725067138672,252.2725067138672 252.2725067138672,252.2725067138672 C252.2725067138672,252.2725067138672 -252.2725067138672,252.2725067138672 -252.2725067138672,252.2725067138672 C-252.2725067138672,252.2725067138672 -252.2725067138672,-252.2725067138672 -252.2725067138672,-252.2725067138672 C-252.2725067138672,-252.2725067138672 252.2725067138672,-252.2725067138672 252.2725067138672,-252.2725067138672z"></path></g><g opacity="1" transform="matrix(1,0,0,1,122.83300018310547,131.73300170898438)"><path stroke-linecap="round" stroke-linejoin="round" fill-opacity="0" stroke="rgb(32,118,255)" stroke-opacity="1" stroke-width="16" d=" M83.3290023803711,-13.154000282287598 C83.3290023803711,1.4140000343322754 41.87900161743164,13.189000129699707 -0.0010000000474974513,13.189000129699707 C-41.880001068115234,13.189000129699707 -82.51699829101562,1.4140000343322754 -82.51699829101562,-13.154000282287598"></path></g><g opacity="1" transform="matrix(1,0,0,1,122.83300018310547,185.73300170898438)"><path stroke-linecap="round" stroke-linejoin="round" fill-opacity="0" stroke="rgb(32,118,255)" stroke-opacity="1" stroke-width="16" d=" M83.3290023803711,-13.154000282287598 C83.3290023803711,1.4140000343322754 41.87900161743164,13.189000129699707 -0.0010000000474974513,13.189000129699707 C-41.880001068115234,13.189000129699707 -82.51699829101562,1.4140000343322754 -82.51699829101562,-13.154000282287598"></path></g></g></g><g mask="url(#__lottie_element_70_2)" style="display: block;"><g transform="matrix(1,0,0,1,131.64300537109375,68.66313171386719)" opacity="1"><g opacity="0" transform="matrix(1,0,0,1,120.88400268554688,151.6739959716797)"><path fill="rgb(255,255,255)" fill-opacity="1" d=" M252.2725067138672,-252.2725067138672 C252.2725067138672,-252.2725067138672 252.2725067138672,252.2725067138672 252.2725067138672,252.2725067138672 C252.2725067138672,252.2725067138672 -252.2725067138672,252.2725067138672 -252.2725067138672,252.2725067138672 C-252.2725067138672,252.2725067138672 -252.2725067138672,-252.2725067138672 -252.2725067138672,-252.2725067138672 C-252.2725067138672,-252.2725067138672 252.2725067138672,-252.2725067138672 252.2725067138672,-252.2725067138672z"></path><path stroke-linecap="butt" stroke-linejoin="miter" fill-opacity="0" stroke-miterlimit="4" stroke="rgb(51,204,204)" stroke-opacity="1" stroke-width="16" d=" M252.2725067138672,-252.2725067138672 C252.2725067138672,-252.2725067138672 252.2725067138672,252.2725067138672 252.2725067138672,252.2725067138672 C252.2725067138672,252.2725067138672 -252.2725067138672,252.2725067138672 -252.2725067138672,252.2725067138672 C-252.2725067138672,252.2725067138672 -252.2725067138672,-252.2725067138672 -252.2725067138672,-252.2725067138672 C-252.2725067138672,-252.2725067138672 252.2725067138672,-252.2725067138672 252.2725067138672,-252.2725067138672z"></path></g><g opacity="1" transform="matrix(1,0,0,1,39.999000549316406,120.9000015258789)"><path stroke-linecap="round" stroke-linejoin="round" fill-opacity="0" stroke="rgb(0,0,0)" stroke-opacity="1" stroke-width="16" d=" M-0.0010000000474974513,53.96799850463867 C-0.0010000000474974513,53.96799850463867 0.0010000000474974513,-53.96799850463867 0.0010000000474974513,-53.96799850463867"></path></g><g opacity="1" transform="matrix(1,0,0,1,207.33799743652344,145.68299865722656)"><path stroke-linecap="round" stroke-linejoin="round" fill-opacity="0" stroke="rgb(0,0,0)" stroke-opacity="1" stroke-width="16" d=" M-167.3350067138672,-76.52799987792969 C-167.3350067138672,-76.52799987792969 -167.33799743652344,93.97699737548828 -167.33799743652344,93.97699737548828 C-167.33799743652344,93.97699737548828 -167.3350067138672,93.97699737548828 -167.3350067138672,93.97699737548828 C-167.3350067138672,110.03299713134766 -129.91799926757812,123.04900360107422 -83.76200103759766,123.04900360107422 C-37.60599899291992,123.04900360107422 -0.1899999976158142,110.03299713134766 -0.1899999976158142,93.97699737548828 C-0.1899999976158142,93.97699737548828 -0.18799999356269836,93.97699737548828 -0.18799999356269836,93.97699737548828 C-0.18799999356269836,93.97699737548828 -0.18799999356269836,23.26099967956543 -0.18799999356269836,23.26099967956543 C-0.18799999356269836,23.26099967956543 -0.18799999356269836,-73.81600189208984 -0.18799999356269836,-73.81600189208984 C-3.444000005722046,-91.08100128173828 -29.17099952697754,-98.6240005493164 -29.17099952697754,-98.6240005493164 C-43.814998626708984,-103.02300262451172 -62.895999908447266,-105.68299865722656 -83.76200103759766,-105.68299865722656 C-129.91799926757812,-105.68299865722656 -167.3350067138672,-92.66699981689453 -167.3350067138672,-76.61100006103516 C-167.3350067138672,-60.55500030517578 -129.91799926757812,-47.540000915527344 -83.76200103759766,-47.540000915527344 C-76.31800079345703,-47.540000915527344 -11.487000465393066,-50.07099914550781 -0.18799999356269836,-72.28399658203125"></path></g></g></g><g style="display: block;" transform="matrix(1,0,0,1,237.33099365234375,44.30500030517578)" opacity="1"><g opacity="0" transform="matrix(1,0,0,1,97.24400329589844,103.48999786376953)"><path fill="rgb(255,255,255)" fill-opacity="1" d=" M252.2725067138672,-252.2725067138672 C252.2725067138672,-252.2725067138672 252.2725067138672,252.2725067138672 252.2725067138672,252.2725067138672 C252.2725067138672,252.2725067138672 -252.2725067138672,252.2725067138672 -252.2725067138672,252.2725067138672 C-252.2725067138672,252.2725067138672 -252.2725067138672,-252.2725067138672 -252.2725067138672,-252.2725067138672 C-252.2725067138672,-252.2725067138672 252.2725067138672,-252.2725067138672 252.2725067138672,-252.2725067138672z"></path><path stroke-linecap="butt" stroke-linejoin="miter" fill-opacity="0" stroke-miterlimit="4" stroke="rgb(32,118,255)" stroke-opacity="1" stroke-width="16" d=" M252.2725067138672,-252.2725067138672 C252.2725067138672,-252.2725067138672 252.2725067138672,252.2725067138672 252.2725067138672,252.2725067138672 C252.2725067138672,252.2725067138672 -252.2725067138672,252.2725067138672 -252.2725067138672,252.2725067138672 C-252.2725067138672,252.2725067138672 -252.2725067138672,-252.2725067138672 -252.2725067138672,-252.2725067138672 C-252.2725067138672,-252.2725067138672 252.2725067138672,-252.2725067138672 252.2725067138672,-252.2725067138672z"></path></g><g opacity="1" transform="matrix(1,0,0,1,102.26799774169922,102.26799774169922)"><path stroke-linecap="round" stroke-linejoin="round" fill-opacity="0" stroke="rgb(32,118,255)" stroke-opacity="1" stroke-width="16" d=" M-0.5932474732398987,58.07241439819336 C-32.28687286376953,58.07241439819336 -58.07241439819336,32.287872314453125 -58.07241439819336,0.5932474732398987 C-58.07241439819336,-31.100378036499023 -32.28687286376953,-56.885921478271484 -0.5932474732398987,-56.885921478271484 C31.101377487182617,-56.885921478271484 56.885921478271484,-31.100378036499023 56.885921478271484,0.5932474732398987 C56.885921478271484,32.287872314453125 31.101377487182617,58.07241439819336 -0.5932474732398987,58.07241439819336z"></path></g><g opacity="1" transform="matrix(1,0,0,1,0,0)"><path stroke-linecap="round" stroke-linejoin="round" fill-opacity="0" stroke="rgb(32,118,255)" stroke-opacity="1" stroke-width="16" d=" M102.26799774169922,100.04656982421875 C102.26799774169922,100.04656982421875 102.26799774169922,104.48942565917969 102.26799774169922,104.48942565917969"></path></g><g opacity="1" transform="matrix(1,0,0,1,0,0)"><path stroke-linecap="round" stroke-linejoin="round" fill-opacity="0" stroke="rgb(32,118,255)" stroke-opacity="1" stroke-width="16" d=" M100.04612731933594,102.26744842529297 C100.04612731933594,102.26744842529297 104.48887634277344,102.26744842529297 104.48887634277344,102.26744842529297"></path></g></g></g></svg>