<svg xmlns="http://www.w3.org/2000/svg" xmlns:xlink="http://www.w3.org/1999/xlink" viewBox="0 0 500 500" width="500" height="500" preserveAspectRatio="xMidYMid meet" style="width: 100%; height: 100%; transform: translate3d(0px, 0px, 0px); content-visibility: visible;"><defs><clipPath id="__lottie_element_140"><rect width="500" height="500" x="0" y="0"></rect></clipPath></defs><g clip-path="url(#__lottie_element_140)"><g style="display: block;" transform="matrix(1,0,0,1,57.38600158691406,69.10652160644531)" opacity="1"><g opacity="1" transform="matrix(1,0,0,1,339.4159851074219,45.81100082397461)"><path stroke-linecap="round" stroke-linejoin="round" fill-opacity="0" stroke="rgb(32,118,255)" stroke-opacity="1" stroke-width="16" d=" M-34.49700164794922,34.49700164794922 C-34.49700164794922,34.49700164794922 34.49700164794922,34.49700164794922 34.49700164794922,34.49700164794922 C34.49700164794922,34.49700164794922 34.49700164794922,-34.49700164794922 34.49700164794922,-34.49700164794922 C34.49700164794922,-34.49700164794922 -34.49700164794922,-34.49700164794922 -34.49700164794922,-34.49700164794922 C-34.49700164794922,-34.49700164794922 -34.49700164794922,34.49700164794922 -34.49700164794922,34.49700164794922z"></path></g><g opacity="1" transform="matrix(1,0,0,1,192.61399841308594,227.11099243164062)"><path stroke-linecap="round" stroke-linejoin="round" fill-opacity="0" stroke="rgb(0,0,0)" stroke-opacity="1" stroke-width="16" d=" M181.3000030517578,146.802001953125 C181.3000030517578,146.802001953125 -181.3000030517578,146.802001953125 -181.3000030517578,146.802001953125 C-181.3000030517578,146.802001953125 -181.3000030517578,-146.802001953125 -181.3000030517578,-146.802001953125 C-181.3000030517578,-146.802001953125 181.3000030517578,-146.802001953125 181.3000030517578,-146.802001953125 C181.3000030517578,-146.802001953125 181.3000030517578,146.802001953125 181.3000030517578,146.802001953125z"></path></g><g opacity="1" transform="matrix(1,0,0,1,192.61399841308594,45.81100082397461)"><path stroke-linecap="round" stroke-linejoin="round" fill-opacity="0" stroke="rgb(0,0,0)" stroke-opacity="1" stroke-width="16" d=" M181.3000030517578,-34.49700164794922 C181.3000030517578,-34.49700164794922 -181.3000030517578,-34.49700164794922 -181.3000030517578,-34.49700164794922 C-181.3000030517578,-34.49700164794922 -181.3000030517578,34.49700164794922 -181.3000030517578,34.49700164794922 C-181.3000030517578,34.49700164794922 181.3000030517578,34.49700164794922 181.3000030517578,34.49700164794922 C181.3000030517578,34.49700164794922 181.3000030517578,-34.49700164794922 181.3000030517578,-34.49700164794922z"></path></g></g><g style="display: block;" transform="matrix(1,0,0,1,57.38600158691406,69.10652160644531)" opacity="1"><g opacity="1" transform="matrix(1,0,0,1,100.45899963378906,215.9980010986328)"><path stroke-linecap="round" stroke-linejoin="round" fill-opacity="0" stroke="rgb(32,118,255)" stroke-opacity="1" stroke-width="16" d=" M11.279854774475098,-55.30400085449219 C11.279854774475098,-55.30400085449219 -44.5101432800293,-0.4860000014305115 -44.5101432800293,-0.4860000014305115 C-44.5101432800293,-0.4860000014305115 11.279854774475098,55.30400085449219 11.279854774475098,55.30400085449219"></path></g><g opacity="1" transform="matrix(1,0,0,1,284.7690124511719,215.9969940185547)"><path stroke-linecap="round" stroke-linejoin="round" fill-opacity="0" stroke="rgb(32,118,255)" stroke-opacity="1" stroke-width="16" d=" M-10.92634105682373,55.303001403808594 C-10.92634105682373,55.303001403808594 44.8636589050293,0.48500001430511475 44.8636589050293,0.48500001430511475 C44.8636589050293,0.48500001430511475 -10.92634105682373,-55.303001403808594 -10.92634105682373,-55.303001403808594"></path></g><g opacity="1" transform="matrix(1,0,0,1,192.61399841308594,215.9980010986328)"><path stroke-linecap="round" stroke-linejoin="round" fill-opacity="0" stroke="rgb(0,0,0)" stroke-opacity="1" stroke-width="16" d=" M19.609878540039062,-73.68671417236328 C19.609878540039062,-73.68671417236328 -19.613121032714844,36.921287536621094 -19.613121032714844,36.921287536621094"></path></g></g></g></svg>