<svg xmlns="http://www.w3.org/2000/svg" xmlns:xlink="http://www.w3.org/1999/xlink" viewBox="0 0 500 500" width="500" height="500" preserveAspectRatio="xMidYMid meet" style="width: 100%; height: 100%; transform: translate3d(0px, 0px, 0px); content-visibility: visible;"><defs><clipPath id="__lottie_element_329"><rect width="500" height="500" x="0" y="0"></rect></clipPath></defs><g clip-path="url(#__lottie_element_329)"><g transform="matrix(1,0,0,1,-1010,-1010)" opacity="1" style="display: block;"><g opacity="1" transform="matrix(1,0,0,1,0,0)"><path stroke-linecap="round" stroke-linejoin="round" fill-opacity="0" stroke="rgb(32,118,255)" stroke-opacity="1" stroke-width="16" d=" M1238.56201171875,1109.93798828125 C1238.56201171875,1109.93798828125 1195.68798828125,1109.93798828125 1195.68798828125,1109.93798828125 C1195.68798828125,1109.93798828125 1195.68798828125,1142.093994140625 1195.68798828125,1142.093994140625 C1195.68798828125,1142.093994140625 1227.843994140625,1174.25 1227.843994140625,1174.25 C1227.843994140625,1174.25 1260,1174.25 1260,1174.25 C1260,1174.25 1260,1217.125 1260,1217.125"></path></g><g opacity="1" transform="matrix(1,0,0,1,0,0)"><path stroke-linecap="round" stroke-linejoin="round" fill-opacity="0" stroke="rgb(32,118,255)" stroke-opacity="1" stroke-width="16" d=" M1420.781005859375,1241.43798828125 C1420.781005859375,1241.43798828125 1420.781005859375,1195.68798828125 1420.781005859375,1195.68798828125 C1420.781005859375,1195.68798828125 1388.625,1195.68798828125 1388.625,1195.68798828125 C1388.625,1195.68798828125 1345.75,1238.56201171875 1345.75,1238.56201171875 C1345.75,1238.56201171875 1345.75,1260 1345.75,1260 C1345.75,1260 1302.875,1260 1302.875,1260"></path></g><g opacity="1" transform="matrix(1,0,0,1,0,0)"><path stroke-linecap="round" stroke-linejoin="round" fill-opacity="0" stroke="rgb(32,118,255)" stroke-opacity="1" stroke-width="16" d=" M1281.43798828125,1410.06201171875 C1281.43798828125,1410.06201171875 1324.31201171875,1410.06201171875 1324.31201171875,1410.06201171875 C1324.31201171875,1410.06201171875 1324.31201171875,1377.906005859375 1324.31201171875,1377.906005859375 C1324.31201171875,1377.906005859375 1292.156005859375,1345.75 1292.156005859375,1345.75 C1292.156005859375,1345.75 1260,1345.75 1260,1345.75 C1260,1345.75 1260,1302.875 1260,1302.875"></path></g><g opacity="1" transform="matrix(1,0,0,1,0,0)"><path stroke-linecap="round" stroke-linejoin="round" fill-opacity="0" stroke="rgb(32,118,255)" stroke-opacity="1" stroke-width="16" d=" M1109.93798828125,1281.43798828125 C1109.93798828125,1281.43798828125 1109.93798828125,1324.31201171875 1109.93798828125,1324.31201171875 C1109.93798828125,1324.31201171875 1142.093994140625,1324.31201171875 1142.093994140625,1324.31201171875 C1142.093994140625,1324.31201171875 1174.25,1292.156005859375 1174.25,1292.156005859375 C1174.25,1292.156005859375 1174.25,1260 1174.25,1260 C1174.25,1260 1217.125,1260 1217.125,1260"></path></g><g opacity="1" transform="matrix(1,0,0,1,0,0)"><path stroke-linecap="round" stroke-linejoin="round" fill-opacity="0" stroke="rgb(32,118,255)" stroke-opacity="1" stroke-width="16" d=" M1388.625,1109.93798828125 C1388.625,1109.93798828125 1356.468994140625,1109.93798828125 1356.468994140625,1109.93798828125 C1356.468994140625,1109.93798828125 1324.31201171875,1142.093994140625 1324.31201171875,1142.093994140625 C1324.31201171875,1142.093994140625 1324.31201171875,1195.68798828125 1324.31201171875,1195.68798828125 C1324.31201171875,1195.68798828125 1302.875,1217.125 1302.875,1217.125"></path></g><g opacity="1" transform="matrix(1,0,0,1,0,0)"><path stroke-linecap="round" stroke-linejoin="round" fill-opacity="0" stroke="rgb(32,118,255)" stroke-opacity="1" stroke-width="16" d=" M1131.375,1410.06201171875 C1131.375,1410.06201171875 1163.531005859375,1410.06201171875 1163.531005859375,1410.06201171875 C1163.531005859375,1410.06201171875 1195.68798828125,1377.906005859375 1195.68798828125,1377.906005859375 C1195.68798828125,1377.906005859375 1195.68798828125,1324.31201171875 1195.68798828125,1324.31201171875 C1195.68798828125,1324.31201171875 1217.125,1302.875 1217.125,1302.875"></path></g><g opacity="1" transform="matrix(1,0,0,1,0,0)"><path stroke-linecap="round" stroke-linejoin="round" fill-opacity="0" stroke="rgb(32,118,255)" stroke-opacity="1" stroke-width="16" d=" M1109.93798828125,1131.375 C1109.93798828125,1131.375 1109.93798828125,1174.25 1109.93798828125,1174.25 C1109.93798828125,1174.25 1131.375,1195.68798828125 1131.375,1195.68798828125 C1131.375,1195.68798828125 1163.531005859375,1195.68798828125 1163.531005859375,1195.68798828125 C1163.531005859375,1195.68798828125 1184.968994140625,1217.125 1184.968994140625,1217.125 C1184.968994140625,1217.125 1217.125,1217.125 1217.125,1217.125"></path></g><g opacity="1" transform="matrix(1,0,0,1,0,0)"><path stroke-linecap="round" stroke-linejoin="round" fill-opacity="0" stroke="rgb(32,118,255)" stroke-opacity="1" stroke-width="16" d=" M1410.06201171875,1388.625 C1410.06201171875,1388.625 1410.06201171875,1345.75 1410.06201171875,1345.75 C1410.06201171875,1345.75 1388.625,1324.31201171875 1388.625,1324.31201171875 C1388.625,1324.31201171875 1356.468994140625,1324.31201171875 1356.468994140625,1324.31201171875 C1356.468994140625,1324.31201171875 1335.031005859375,1302.875 1335.031005859375,1302.875 C1335.031005859375,1302.875 1302.875,1302.875 1302.875,1302.875"></path></g></g><g transform="matrix(1,0,0,1,-1010,-1010)" opacity="1" style="display: block;"><g opacity="1" transform="matrix(1,0,0,1,0,0)"><path stroke-linecap="round" stroke-linejoin="round" fill-opacity="0" stroke="rgb(0,0,0)" stroke-opacity="1" stroke-width="16" d="M0 0"></path></g><g opacity="1" transform="matrix(1,0,0,1,0,0)"><path stroke-linecap="round" stroke-linejoin="round" fill-opacity="0" stroke="rgb(0,0,0)" stroke-opacity="1" stroke-width="16" d="M0 0"></path></g><g opacity="1" transform="matrix(1,0,0,1,0,0)"><path stroke-linecap="round" stroke-linejoin="round" fill-opacity="0" stroke="rgb(0,0,0)" stroke-opacity="1" stroke-width="16" d="M0 0"></path></g><g opacity="1" transform="matrix(1,0,0,1,0,0)"><path stroke-linecap="round" stroke-linejoin="round" fill-opacity="0" stroke="rgb(0,0,0)" stroke-opacity="1" stroke-width="16" d="M0 0"></path></g><g opacity="1" transform="matrix(1,0,0,1,0,0)"><path stroke-linecap="round" stroke-linejoin="round" fill-opacity="0" stroke="rgb(0,0,0)" stroke-opacity="1" stroke-width="16" d="M0 0"></path></g><g opacity="1" transform="matrix(1,0,0,1,0,0)"><path stroke-linecap="round" stroke-linejoin="round" fill-opacity="0" stroke="rgb(0,0,0)" stroke-opacity="1" stroke-width="16" d="M0 0"></path></g><g opacity="1" transform="matrix(1,0,0,1,0,0)"><path stroke-linecap="round" stroke-linejoin="round" fill-opacity="0" stroke="rgb(0,0,0)" stroke-opacity="1" stroke-width="16" d="M0 0"></path></g><g opacity="1" transform="matrix(1,0,0,1,0,0)"><path stroke-linecap="round" stroke-linejoin="round" fill-opacity="0" stroke="rgb(0,0,0)" stroke-opacity="1" stroke-width="16" d="M0 0"></path></g></g><g transform="matrix(1,0,0,1,-1010,-1010)" opacity="1" style="display: block;"><g opacity="1" transform="matrix(1,0,0,1,0,0)"><path stroke-linecap="round" stroke-linejoin="round" fill-opacity="0" stroke="rgb(0,0,0)" stroke-opacity="1" stroke-width="16" d=" M1302.875,1302.875 C1302.875,1302.875 1217.125,1302.875 1217.125,1302.875 C1217.125,1302.875 1217.125,1217.125 1217.125,1217.125 C1217.125,1217.125 1302.875,1217.125 1302.875,1217.125 C1302.875,1217.125 1302.875,1302.875 1302.875,1302.875z"></path></g><g opacity="1" transform="matrix(1,0,0,1,0,0)"><path stroke-linecap="round" stroke-linejoin="round" fill-opacity="0" stroke="rgb(0,0,0)" stroke-opacity="1" stroke-width="16" d=" M1260,1249.281005859375 C1260,1249.281005859375 1260,1270.718994140625 1260,1270.718994140625"></path></g></g><g transform="matrix(1,0,0,1,-1010,-1010)" opacity="1" style="display: block;"><g opacity="1" transform="matrix(1,0,0,1,0,0)"><path stroke-linecap="round" stroke-linejoin="round" fill-opacity="0" stroke="rgb(0,0,0)" stroke-opacity="1" stroke-width="16" d=" M1281.43798828125,1109.93798828125 C1281.43798828125,1121.7769775390625 1271.8389892578125,1131.375 1260,1131.375 C1248.1610107421875,1131.375 1238.56201171875,1121.7769775390625 1238.56201171875,1109.93798828125 C1238.56201171875,1098.0989990234375 1248.1610107421875,1088.5 1260,1088.5 C1271.8389892578125,1088.5 1281.43798828125,1098.0989990234375 1281.43798828125,1109.93798828125z"></path></g><g opacity="1" transform="matrix(1,0,0,1,0,0)"><path stroke-linecap="round" stroke-linejoin="round" fill-opacity="0" stroke="rgb(0,0,0)" stroke-opacity="1" stroke-width="16" d=" M1431.5,1109.93798828125 C1431.5,1121.7769775390625 1421.9010009765625,1131.375 1410.06201171875,1131.375 C1398.2230224609375,1131.375 1388.625,1121.7769775390625 1388.625,1109.93798828125 C1388.625,1098.0989990234375 1398.2230224609375,1088.5 1410.06201171875,1088.5 C1421.9010009765625,1088.5 1431.5,1098.0989990234375 1431.5,1109.93798828125z"></path></g><g opacity="1" transform="matrix(1,0,0,1,0,0)"><path stroke-linecap="round" stroke-linejoin="round" fill-opacity="0" stroke="rgb(0,0,0)" stroke-opacity="1" stroke-width="16" d=" M1410.06201171875,1281.43798828125 C1398.2230224609375,1281.43798828125 1388.625,1271.8389892578125 1388.625,1260 C1388.625,1248.1610107421875 1398.2230224609375,1238.56201171875 1410.06201171875,1238.56201171875 C1421.9010009765625,1238.56201171875 1431.5,1248.1610107421875 1431.5,1260 C1431.5,1271.8389892578125 1421.9010009765625,1281.43798828125 1410.06201171875,1281.43798828125z"></path></g><g opacity="1" transform="matrix(1,0,0,1,0,0)"><path stroke-linecap="round" stroke-linejoin="round" fill-opacity="0" stroke="rgb(0,0,0)" stroke-opacity="1" stroke-width="16" d=" M1410.06201171875,1431.5 C1398.2230224609375,1431.5 1388.625,1421.9010009765625 1388.625,1410.06201171875 C1388.625,1398.2230224609375 1398.2230224609375,1388.625 1410.06201171875,1388.625 C1421.9010009765625,1388.625 1431.5,1398.2230224609375 1431.5,1410.06201171875 C1431.5,1421.9010009765625 1421.9010009765625,1431.5 1410.06201171875,1431.5z"></path></g><g opacity="1" transform="matrix(1,0,0,1,0,0)"><path stroke-linecap="round" stroke-linejoin="round" fill-opacity="0" stroke="rgb(0,0,0)" stroke-opacity="1" stroke-width="16" d=" M1238.56201171875,1410.06201171875 C1238.56201171875,1398.2230224609375 1248.1610107421875,1388.625 1260,1388.625 C1271.8389892578125,1388.625 1281.43798828125,1398.2230224609375 1281.43798828125,1410.06201171875 C1281.43798828125,1421.9010009765625 1271.8389892578125,1431.5 1260,1431.5 C1248.1610107421875,1431.5 1238.56201171875,1421.9010009765625 1238.56201171875,1410.06201171875z"></path></g><g opacity="1" transform="matrix(1,0,0,1,0,0)"><path stroke-linecap="round" stroke-linejoin="round" fill-opacity="0" stroke="rgb(0,0,0)" stroke-opacity="1" stroke-width="16" d=" M1088.5,1410.06201171875 C1088.5,1398.2230224609375 1098.0989990234375,1388.625 1109.93798828125,1388.625 C1121.7769775390625,1388.625 1131.375,1398.2230224609375 1131.375,1410.06201171875 C1131.375,1421.9010009765625 1121.7769775390625,1431.5 1109.93798828125,1431.5 C1098.0989990234375,1431.5 1088.5,1421.9010009765625 1088.5,1410.06201171875z"></path></g><g opacity="1" transform="matrix(1,0,0,1,0,0)"><path stroke-linecap="round" stroke-linejoin="round" fill-opacity="0" stroke="rgb(0,0,0)" stroke-opacity="1" stroke-width="16" d=" M1109.93798828125,1238.56201171875 C1121.7769775390625,1238.56201171875 1131.375,1248.1610107421875 1131.375,1260 C1131.375,1271.8389892578125 1121.7769775390625,1281.43798828125 1109.93798828125,1281.43798828125 C1098.0989990234375,1281.43798828125 1088.5,1271.8389892578125 1088.5,1260 C1088.5,1248.1610107421875 1098.0989990234375,1238.56201171875 1109.93798828125,1238.56201171875z"></path></g><g opacity="1" transform="matrix(1,0,0,1,0,0)"><path stroke-linecap="round" stroke-linejoin="round" fill-opacity="0" stroke="rgb(0,0,0)" stroke-opacity="1" stroke-width="16" d=" M1131.375,1109.93798828125 C1131.375,1121.7769775390625 1121.7769775390625,1131.375 1109.93798828125,1131.375 C1098.0989990234375,1131.375 1088.5,1121.7769775390625 1088.5,1109.93798828125 C1088.5,1098.0989990234375 1098.0989990234375,1088.5 1109.93798828125,1088.5 C1121.7769775390625,1088.5 1131.375,1098.0989990234375 1131.375,1109.93798828125z"></path></g></g></g></svg>