<svg xmlns="http://www.w3.org/2000/svg" xmlns:xlink="http://www.w3.org/1999/xlink" viewBox="0 0 500 500" width="500" height="500" preserveAspectRatio="xMidYMid meet" style="width: 100%; height: 100%; transform: translate3d(0px, 0px, 0px); content-visibility: visible;"><defs><clipPath id="__lottie_element_19"><rect width="500" height="500" x="0" y="0"></rect></clipPath><clipPath id="__lottie_element_22"><path d="M0,0 L500,0 L500,500 L0,500z"></path></clipPath><g id="__lottie_element_25"><g style="display: block;" transform="matrix(1,0,0,1,256.18402099609375,142.07501220703125)" opacity="1"><path fill="rgb(255,0,0)" fill-opacity="1" d=" M70.68,266.23 C70.68,266.23 144.76,266.64 144.76,266.64 C161.6,266.64 175.26,252.96 175.26,236.08 C175.26,236.08 175.26,70.35 175.26,70.35 C175.26,53.48 161.6,39.8 144.76,39.8 C144.76,39.8 70.68,40.21 70.68,40.21 C53.83,40.21 40.18,53.84 40.18,70.65 C40.18,70.65 40.18,235.78 40.18,235.78 C40.18,252.6 53.83,266.23 70.68,266.23z"></path><g opacity="1" transform="matrix(1,0,0,1,107.70500183105469,153.218994140625)"><path stroke-linecap="round" stroke-linejoin="round" fill-opacity="0" stroke="rgb(0,0,0)" stroke-opacity="1" stroke-width="16" d=" M-37.02721405029297,113.0064926147461 C-37.02721405029297,113.0064926147461 37.052894592285156,113.41743469238281 37.052894592285156,113.41743469238281 C53.89689636230469,113.41743469238281 67.55189514160156,99.7385482788086 67.55189514160156,82.8650131225586 C67.55189514160156,82.8650131225586 67.55189514160156,-82.8650131225586 67.55189514160156,-82.8650131225586 C67.55189514160156,-99.7385482788086 53.89689636230469,-113.41743469238281 37.052894592285156,-113.41743469238281 C37.052894592285156,-113.41743469238281 -37.02721405029297,-113.0064926147461 -37.02721405029297,-113.0064926147461 C-53.87021255493164,-113.0064926147461 -67.52621459960938,-99.3771743774414 -67.52621459960938,-82.56476593017578 C-67.52621459960938,-82.56476593017578 -67.52621459960938,82.56476593017578 -67.52621459960938,82.56476593017578 C-67.52621459960938,99.3771743774414 -53.871212005615234,113.0064926147461 -37.02721405029297,113.0064926147461z"></path></g></g></g><g id="__lottie_element_29"><g style="display: block;" transform="matrix(1,0,0,1,256.18402099609375,142.07501220703125)" opacity="1"><path fill="rgb(255,0,0)" fill-opacity="1" d=" M174.8330841064453,83.6933822631836 C174.8330841064453,83.6933822631836 40.372657775878906,84.9757080078125 40.372657775878906,84.9757080078125 C40.372657775878906,84.9757080078125 40.56509780883789,220.33705139160156 40.56509780883789,220.33705139160156 C40.56509780883789,220.33705139160156 175.42283630371094,221.81036376953125 175.42283630371094,221.81036376953125 C175.42283630371094,221.81036376953125 174.8330841064453,83.6933822631836 174.8330841064453,83.6933822631836z"></path><g opacity="1" transform="matrix(1,0,0,1,0,0)"><path stroke-linecap="round" stroke-linejoin="round" fill-opacity="0" stroke="rgb(32,118,255)" stroke-opacity="1" stroke-width="16" d=" M174.8330841064453,83.6933822631836 C174.8330841064453,83.6933822631836 40.372657775878906,84.9757080078125 40.372657775878906,84.9757080078125 C40.372657775878906,84.9757080078125 40.56509780883789,220.33705139160156 40.56509780883789,220.33705139160156 C40.56509780883789,220.33705139160156 175.42283630371094,221.81036376953125 175.42283630371094,221.81036376953125 C175.42283630371094,221.81036376953125 174.8330841064453,83.6933822631836 174.8330841064453,83.6933822631836z"></path></g></g></g><mask id="__lottie_element_29_1" mask-type="alpha"><use xlink:href="#__lottie_element_29"></use></mask><filter id="__lottie_element_38" filterUnits="objectBoundingBox" x="0%" y="0%" width="100%" height="100%"><feComponentTransfer in="SourceGraphic"><feFuncA type="table" tableValues="1.0 0.0"></feFuncA></feComponentTransfer></filter><mask id="__lottie_element_25_2" mask-type="alpha"><g filter="url(#__lottie_element_38)"><rect width="500" height="500" x="0" y="0" fill="#ffffff" opacity="0"></rect><use xlink:href="#__lottie_element_25"></use></g></mask><g id="__lottie_element_42"><g style="display: block;" transform="matrix(1,0,0,1,28.699996948242188,52.02099609375)" opacity="1"><path fill="rgb(255,0,0)" fill-opacity="1" d=" M63.86,243.12 C63.86,243.12 63.86,61.75 63.86,61.75 C63.86,49.23 73.96,39.08 86.43,39.08 C86.43,39.08 332.32,42.2 332.32,42.2 C344.78,42.2 354.89,52.2 354.89,64.53 C354.89,64.53 354.89,243.94 354.89,243.94"></path><g opacity="1" transform="matrix(1,0,0,1,210.01600646972656,141.96800231933594)"><path stroke-linecap="butt" stroke-linejoin="round" fill-opacity="0" stroke="rgb(0,0,0)" stroke-opacity="1" stroke-width="16" d=" M-146.15882873535156,101.14800262451172 C-146.15882873535156,101.14800262451172 -146.15882873535156,-80.22129821777344 -146.15882873535156,-80.22129821777344 C-146.15882873535156,-92.74197387695312 -136.05484008789062,-102.89198303222656 -123.58983612060547,-102.89198303222656 C-123.58983612060547,-102.89198303222656 122.3018569946289,-99.76358032226562 122.3018569946289,-99.76358032226562 C134.76585388183594,-99.76358032226562 144.87066650390625,-89.76889038085938 144.87066650390625,-77.4395980834961 C144.87066650390625,-77.4395980834961 144.87066650390625,101.96800231933594 144.87066650390625,101.96800231933594"></path></g></g></g><mask id="__lottie_element_42_1" mask-type="alpha"><use xlink:href="#__lottie_element_42"></use></mask></defs><g clip-path="url(#__lottie_element_19)"><g mask="url(#__lottie_element_25_2)" style="display: block;"><g clip-path="url(#__lottie_element_22)" transform="matrix(1,0,0,1,0,0)" opacity="1"><g mask="url(#__lottie_element_42_1)" style="display: block;"><g transform="matrix(1,0,0,1,119,250)" opacity="1"><g opacity="1" transform="matrix(1,0,0,1,0,0)"><path stroke-linecap="round" stroke-linejoin="round" fill-opacity="0" stroke="rgb(0,0,0)" stroke-opacity="1" stroke-width="16" d=" M78,-322 C78,-322 -342,98 -342,98"></path></g></g></g><g style="display: block;" transform="matrix(1,0,0,1,28.699996948242188,52.02099609375)" opacity="1"><g opacity="1" transform="matrix(1,0,0,1,210.01499938964844,265.6839904785156)"><path stroke-linecap="round" stroke-linejoin="round" fill-opacity="0" stroke="rgb(0,0,0)" stroke-opacity="1" stroke-width="16" d=" M167.62269592285156,-22.565000534057617 C167.62269592285156,2.365000009536743 147.41268920898438,22.565000534057617 122.48269653320312,22.565000534057617 C122.48269653320312,22.565000534057617 -109.78507232666016,23.862733840942383 -109.78507232666016,23.862733840942383 C-134.71507263183594,23.862733840942383 -154.92506408691406,2.576258897781372 -154.92506408691406,-23.694904327392578 C-154.92506408691406,-23.694904327392578 167.62269592285156,-22.565000534057617 167.62269592285156,-22.565000534057617z"></path></g><g opacity="1" transform="matrix(1,0,0,1,210.01600646972656,141.96800231933594)"><path stroke-linecap="butt" stroke-linejoin="round" fill-opacity="0" stroke="rgb(0,0,0)" stroke-opacity="1" stroke-width="16" d=" M-146.15882873535156,101.14800262451172 C-146.15882873535156,101.14800262451172 -146.15882873535156,-80.22129821777344 -146.15882873535156,-80.22129821777344 C-146.15882873535156,-92.74197387695312 -136.05484008789062,-102.89198303222656 -123.58983612060547,-102.89198303222656 C-123.58983612060547,-102.89198303222656 122.3018569946289,-99.76358032226562 122.3018569946289,-99.76358032226562 C134.76585388183594,-99.76358032226562 144.87066650390625,-89.76889038085938 144.87066650390625,-77.4395980834961 C144.87066650390625,-77.4395980834961 144.87066650390625,101.96800231933594 144.87066650390625,101.96800231933594"></path></g></g><g style="display: block;" transform="matrix(1,0,0,1,250,250)" opacity="1"><g opacity="1" transform="matrix(1,0,0,1,0,0)"><path stroke-linecap="round" stroke-linejoin="round" fill-opacity="0" stroke="rgb(0,0,0)" stroke-opacity="1" stroke-width="16" d=" M-166.31805419921875,44.757843017578125 C-166.31805419921875,44.757843017578125 -176.18328857421875,45.815975189208984 -176.18328857421875,45.815975189208984 C-176.18328857421875,45.815975189208984 -175.1975555419922,89.3323974609375 -126.22604370117188,91.49215698242188 C-164.58018493652344,86.5720443725586 -166.31805419921875,44.757843017578125 -166.31805419921875,44.757843017578125z"></path></g></g></g></g><g mask="url(#__lottie_element_29_1)" style="display: block;"><g transform="matrix(1,0,0,1,393.2950134277344,325.2120056152344)" opacity="1"><g opacity="1" transform="matrix(1,0,0,1,0,0)"><path stroke-linecap="round" stroke-linejoin="round" fill-opacity="0" stroke="rgb(0,0,0)" stroke-opacity="1" stroke-width="16" d=" M78,-322 C78,-322 -342,98 -342,98"></path></g></g></g><g style="display: block;" transform="matrix(1,0,0,1,256.18402099609375,142.07501220703125)" opacity="1"><g opacity="1" transform="matrix(1,0,0,1,0,0)"><path stroke-linecap="round" stroke-linejoin="round" fill-opacity="0" stroke="rgb(32,118,255)" stroke-opacity="1" stroke-width="16" d=" M40.270965576171875,85.44715881347656 C40.270965576171875,85.44715881347656 175.25689697265625,85.01766967773438 175.25689697265625,85.01766967773438"></path></g><g opacity="1" transform="matrix(1,0,0,1,0,0)"><path stroke-linecap="round" stroke-linejoin="round" fill-opacity="0" stroke="rgb(32,118,255)" stroke-opacity="1" stroke-width="16" d=" M40.1612434387207,220.97576904296875 C40.1612434387207,220.97576904296875 175.25689697265625,221.41932678222656 175.25689697265625,221.41932678222656"></path></g><g opacity="1" transform="matrix(1,0,0,1,107.70500183105469,153.218994140625)"><path stroke-linecap="round" stroke-linejoin="round" fill-opacity="0" stroke="rgb(0,0,0)" stroke-opacity="1" stroke-width="16" d=" M-37.02721405029297,113.0064926147461 C-37.02721405029297,113.0064926147461 37.052894592285156,113.41743469238281 37.052894592285156,113.41743469238281 C53.89689636230469,113.41743469238281 67.55189514160156,99.7385482788086 67.55189514160156,82.8650131225586 C67.55189514160156,82.8650131225586 67.55189514160156,-82.8650131225586 67.55189514160156,-82.8650131225586 C67.55189514160156,-99.7385482788086 53.89689636230469,-113.41743469238281 37.052894592285156,-113.41743469238281 C37.052894592285156,-113.41743469238281 -37.02721405029297,-113.0064926147461 -37.02721405029297,-113.0064926147461 C-53.87021255493164,-113.0064926147461 -67.52621459960938,-99.3771743774414 -67.52621459960938,-82.56476593017578 C-67.52621459960938,-82.56476593017578 -67.52621459960938,82.56476593017578 -67.52621459960938,82.56476593017578 C-67.52621459960938,99.3771743774414 -53.871212005615234,113.0064926147461 -37.02721405029297,113.0064926147461z"></path></g></g></g></svg>