<svg xmlns="http://www.w3.org/2000/svg" xmlns:xlink="http://www.w3.org/1999/xlink" viewBox="0 0 500 500" width="500" height="500" preserveAspectRatio="xMidYMid meet" style="width: 100%; height: 100%; transform: translate3d(0px, 0px, 0px); content-visibility: visible;"><defs><clipPath id="__lottie_element_1546"><rect width="500" height="500" x="0" y="0"></rect></clipPath></defs><g clip-path="url(#__lottie_element_1546)"><g style="display: block;" transform="matrix(1,0,0,1,250,250)" opacity="1"><g opacity="1" transform="matrix(1,0,0,1,0,0)"><path stroke-linecap="round" stroke-linejoin="round" fill-opacity="0" stroke="rgb(0,0,0)" stroke-opacity="1" stroke-width="16" d=" M-157.54400634765625,-146.4029998779297 C-157.54400634765625,-146.4029998779297 157.57000732421875,-146.4029998779297 157.57000732421875,-146.4029998779297 C165.23899841308594,-146.4029998779297 171.51300048828125,-140.1280059814453 171.51300048828125,-132.4600067138672 C171.51300048828125,-132.4600067138672 171.51300048828125,76.68599700927734 171.51300048828125,76.68599700927734 C171.51300048828125,84.3550033569336 165.23800659179688,90.62899780273438 157.57000732421875,90.62899780273438 C157.57000732421875,90.62899780273438 -157.54400634765625,90.62899780273438 -157.54400634765625,90.62899780273438 C-165.21200561523438,90.62899780273438 -171.48699951171875,84.3550033569336 -171.48699951171875,76.68599700927734 C-171.48699951171875,76.68599700927734 -171.48699951171875,-132.4600067138672 -171.48699951171875,-132.4600067138672 C-171.48699951171875,-140.12899780273438 -165.21299743652344,-146.4029998779297 -157.54400634765625,-146.4029998779297z"></path></g><g opacity="1" transform="matrix(1,0,0,1,0,0)"><path stroke-linecap="round" stroke-linejoin="round" fill-opacity="0" stroke="rgb(0,0,0)" stroke-opacity="1" stroke-width="16" d=" M-55.75899887084961,146.4029998779297 C-55.75899887084961,146.4029998779297 55.78499984741211,146.4029998779297 55.78499984741211,146.4029998779297"></path></g><g opacity="1" transform="matrix(1,0,0,1,0,0)"><path stroke-linecap="round" stroke-linejoin="round" fill-opacity="0" stroke="rgb(0,0,0)" stroke-opacity="1" stroke-width="16" d=" M-41.762001037597656,146.20199584960938 C-41.762001037597656,146.20199584960938 -26.924999237060547,90.83000183105469 -26.924999237060547,90.83000183105469"></path></g><g opacity="1" transform="matrix(1,0,0,1,0,0)"><path stroke-linecap="round" stroke-linejoin="round" fill-opacity="0" stroke="rgb(0,0,0)" stroke-opacity="1" stroke-width="16" d=" M41.78799819946289,146.20199584960938 C41.78799819946289,146.20199584960938 26.951000213623047,90.83000183105469 26.951000213623047,90.83000183105469"></path></g><g opacity="1" transform="matrix(1,0,0,1,0,0)"><path stroke-linecap="round" stroke-linejoin="round" fill-opacity="0" stroke="rgb(0,0,0)" stroke-opacity="1" stroke-width="16" d=" M-170.74200439453125,62.74300003051758 C-170.74200439453125,62.74300003051758 171.57400512695312,62.74300003051758 171.57400512695312,62.74300003051758"></path></g><g opacity="1" transform="matrix(1,0,0,1,0,0)"><path stroke-linecap="round" stroke-linejoin="round" fill-opacity="0" stroke="rgb(0,0,0)" stroke-opacity="1" stroke-width="16" d=" M0.013000000268220901,-146.00100708007812 C0.013000000268220901,-146.00100708007812 0.013000000268220901,62.8849983215332 0.013000000268220901,62.8849983215332"></path></g></g><g style="display: block;" transform="matrix(1,0,0,1,250,250)" opacity="1"><g opacity="1" transform="matrix(1,0,0,1,0,0)"><path stroke-linecap="round" stroke-linejoin="round" fill-opacity="0" stroke="rgb(0,0,0)" stroke-opacity="1" stroke-width="16" d=" M-140.11500549316406,24.39900016784668 C-140.11500549316406,24.39900016784668 -72.53299713134766,24.39900016784668 -43.917999267578125,24.39900016784668"></path></g><g opacity="1" transform="matrix(1,0,0,1,0,0)"><path stroke-linecap="round" stroke-linejoin="round" fill-opacity="0" stroke="rgb(32,118,255)" stroke-opacity="1" stroke-width="16" d=" M-140.11500549316406,-4.88100004196167 C-140.11500549316406,-4.88100004196167 -31.358999252319336,-4.88100004196167 -31.358999252319336,-4.88100004196167"></path></g><g opacity="1" transform="matrix(1,0,0,1,0,0)"><path stroke-linecap="round" stroke-linejoin="round" fill-opacity="0" stroke="rgb(0,0,0)" stroke-opacity="1" stroke-width="16" d=" M-140.11500549316406,-34.1619987487793 C-140.11500549316406,-34.1619987487793 -31.358999252319336,-34.1619987487793 -31.358999252319336,-34.1619987487793"></path></g></g><g style="display: block;" transform="matrix(1,0,0,1,250,250)" opacity="1"><g opacity="1" transform="matrix(1,0,0,1,0,0)"><path stroke-linecap="round" stroke-linejoin="round" fill-opacity="0" stroke="rgb(0,0,0)" stroke-opacity="1" stroke-width="16" d=" M-75,-108.05999755859375 C-75,-108.05999755859375 -96.4729995727539,-70.86699676513672 -96.4729995727539,-70.86699676513672"></path></g><g opacity="1" transform="matrix(1,0,0,1,0,0)"><path stroke-linecap="round" stroke-linejoin="round" fill-opacity="0" stroke="rgb(32,118,255)" stroke-opacity="1" stroke-width="16" d=" M-121.51899719238281,-70.86699676513672 C-121.51899719238281,-70.86699676513672 -140.11500549316406,-89.46399688720703 -140.11500549316406,-89.46399688720703 C-140.11500549316406,-89.46399688720703 -121.51899719238281,-108.05999755859375 -121.51899719238281,-108.05999755859375"></path></g><g opacity="1" transform="matrix(1,0,0,1,0,0)"><path stroke-linecap="round" stroke-linejoin="round" fill-opacity="0" stroke="rgb(32,118,255)" stroke-opacity="1" stroke-width="16" d=" M-49.95500183105469,-70.86699676513672 C-49.95500183105469,-70.86699676513672 -31.358999252319336,-89.46399688720703 -31.358999252319336,-89.46399688720703 C-31.358999252319336,-89.46399688720703 -49.95500183105469,-108.05999755859375 -49.95500183105469,-108.05999755859375"></path></g></g><g style="display: block;" transform="matrix(1,0,0,1,335.25,200.50445556640625)" opacity="1"><g opacity="1" transform="matrix(1,0,0,1,0,0)"><path stroke-linecap="round" stroke-linejoin="round" fill-opacity="0" stroke="rgb(32,118,255)" stroke-opacity="1" stroke-width="16" d=" M-33.1150016784668,-27.18899917602539 C-33.1150016784668,-27.18899917602539 33.1150016784668,-27.18899917602539 33.1150016784668,-27.18899917602539 C33.1150016784668,-27.18899917602539 47.05799865722656,-13.246000289916992 47.05799865722656,-13.246000289916992 C47.05799865722656,-13.246000289916992 47.05799865722656,49.49800109863281 47.05799865722656,49.49800109863281 C47.05799865722656,49.49800109863281 -47.05799865722656,49.49800109863281 -47.05799865722656,49.49800109863281 C-47.05799865722656,49.49800109863281 -47.05799865722656,-13.246000289916992 -47.05799865722656,-13.246000289916992 C-47.05799865722656,-13.246000289916992 -33.1150016784668,-27.18899917602539 -33.1150016784668,-27.18899917602539z"></path></g><g opacity="1" transform="matrix(1,0,0,1,0,0)"><path stroke-linecap="round" stroke-linejoin="round" fill-opacity="0" stroke="rgb(0,0,0)" stroke-opacity="1" stroke-width="16" d=" M-15.685999870300293,7.668000221252441 C-15.685999870300293,7.668000221252441 -15.685999870300293,14.640000343322754 -15.685999870300293,14.640000343322754"></path></g><g opacity="1" transform="matrix(1,0,0,1,0,0)"><path stroke-linecap="round" stroke-linejoin="round" fill-opacity="0" stroke="rgb(0,0,0)" stroke-opacity="1" stroke-width="16" d=" M15.685999870300293,7.668000221252441 C15.685999870300293,7.668000221252441 15.685999870300293,14.640000343322754 15.685999870300293,14.640000343322754"></path></g><g opacity="1" transform="matrix(1,0,0,1,0,0)"><path stroke-linecap="round" stroke-linejoin="round" fill-opacity="0" stroke="rgb(32,118,255)" stroke-opacity="1" stroke-width="16" d=" M-0.003000000026077032,-51.59000015258789 C-0.003000000026077032,-51.59000015258789 0.003000000026077032,-51.59000015258789 0.003000000026077032,-51.59000015258789"></path></g><g opacity="1" transform="matrix(1,0,0,1,0,0)"><path stroke-linecap="round" stroke-linejoin="round" fill-opacity="0" stroke="rgb(32,118,255)" stroke-opacity="1" stroke-width="16" d=" M0.003000000026077032,-48.104000091552734 C0.003000000026077032,-48.104000091552734 0.003000000026077032,-27.344999313354492 0.003000000026077032,-27.344999313354492"></path></g></g></g></svg>