<svg xmlns="http://www.w3.org/2000/svg" xmlns:xlink="http://www.w3.org/1999/xlink" viewBox="0 0 500 500" width="500" height="500" preserveAspectRatio="xMidYMid meet" style="width: 100%; height: 100%; transform: translate3d(0px, 0px, 0px); content-visibility: visible;"><defs><clipPath id="__lottie_element_1589"><rect width="500" height="500" x="0" y="0"></rect></clipPath><g id="__lottie_element_1594"><g style="display: block;" transform="matrix(1,0,0,1,57.977996826171875,148.05300903320312)" opacity="1"><path fill="rgb(255,0,0)" fill-opacity="1" d=" M138.08,22.22 C138.08,22.22 11.31,22.22 11.31,22.22 C11.31,22.22 11.31,203.35 11.31,203.35 C11.31,203.35 138.08,203.35 138.08,203.35 C138.08,203.35 138.08,22.22 138.08,22.22z M373.91,197.4 C373.91,197.4 239.59,197.4 239.59,197.4 C239.59,197.4 239.59,16.07 239.59,16.07 C239.59,16.07 373.91,16.07 373.91,16.07 C373.91,16.07 373.91,197.4 373.91,197.4z"></path><g opacity="1" transform="matrix(1,0,0,1,0,10.902145385742188)"><g opacity="1" transform="matrix(1,0,0,1,74.6969985961914,101.88200378417969)"><path stroke-linecap="round" stroke-linejoin="round" fill-opacity="0" stroke="rgb(0,0,0)" stroke-opacity="1" stroke-width="0" d=" M63.382999420166016,-90.56800079345703 C63.382999420166016,-90.56800079345703 -63.382999420166016,-90.56800079345703 -63.382999420166016,-90.56800079345703 C-63.382999420166016,-90.56800079345703 -63.382999420166016,90.56800079345703 -63.382999420166016,90.56800079345703 C-63.382999420166016,90.56800079345703 63.382999420166016,90.56800079345703 63.382999420166016,90.56800079345703 C63.382999420166016,90.56800079345703 63.382999420166016,-90.56800079345703 63.382999420166016,-90.56800079345703z"></path></g></g><g opacity="1" transform="matrix(1,0,0,1,0,4.755775451660156)"><g opacity="1" transform="matrix(1,0,0,1,306.75201416015625,101.97699737548828)"><path stroke-linecap="round" stroke-linejoin="round" fill-opacity="0" stroke="rgb(0,0,0)" stroke-opacity="1" stroke-width="0" d=" M67.16200256347656,90.66300201416016 C67.16200256347656,90.66300201416016 -67.16200256347656,90.66300201416016 -67.16200256347656,90.66300201416016 C-67.16200256347656,90.66300201416016 -67.16200256347656,-90.66300201416016 -67.16200256347656,-90.66300201416016 C-67.16200256347656,-90.66300201416016 67.16200256347656,-90.66300201416016 67.16200256347656,-90.66300201416016 C67.16200256347656,-90.66300201416016 67.16200256347656,90.66300201416016 67.16200256347656,90.66300201416016z"></path></g></g></g></g><filter id="__lottie_element_1601" filterUnits="objectBoundingBox" x="0%" y="0%" width="100%" height="100%"><feComponentTransfer in="SourceGraphic"><feFuncA type="table" tableValues="1.0 0.0"></feFuncA></feComponentTransfer></filter><mask id="__lottie_element_1594_2" mask-type="alpha"><g filter="url(#__lottie_element_1601)"><rect width="500" height="500" x="0" y="0" fill="#ffffff" opacity="0"></rect><use xlink:href="#__lottie_element_1594"></use></g></mask></defs><g clip-path="url(#__lottie_element_1589)"><g mask="url(#__lottie_element_1594_2)" style="display: block;"><g transform="matrix(0.993314802646637,0.11543701589107513,-0.11543701589107513,0.993314802646637,112.14956665039062,13.91693115234375)" opacity="1"><g opacity="1" transform="matrix(1,0,0,1,0,0)"><path stroke-linecap="round" stroke-linejoin="round" fill-opacity="0" stroke="rgb(32,118,255)" stroke-opacity="1" stroke-width="16" d=" M133.6009979248047,348.4599914550781 C133.6009979248047,348.4599914550781 133.6009979248047,348.4599914550781 133.6009979248047,348.4599914550781 C133.6009979248047,348.4599914550781 195.03700256347656,348.4599914550781 195.03700256347656,348.4599914550781"></path></g><g opacity="1" transform="matrix(1,0,0,1,164.3179931640625,218.44000244140625)"><path stroke-linecap="round" stroke-linejoin="round" fill-opacity="0" stroke="rgb(32,118,255)" stroke-opacity="1" stroke-width="16" d=" M-124.31800079345703,-163.6179962158203 C-124.31800079345703,-171.8040008544922 -117.68199920654297,-178.44000244140625 -109.49600219726562,-178.44000244140625 C-109.49600219726562,-178.44000244140625 109.49600219726562,-178.44000244140625 109.49600219726562,-178.44000244140625 C117.68199920654297,-178.44000244140625 124.31800079345703,-171.8040008544922 124.31800079345703,-163.6179962158203 C124.31800079345703,-163.6179962158203 124.13400268554688,163.64100646972656 124.13400268554688,163.64100646972656 C124.13400268554688,171.81399536132812 117.50700378417969,178.44000244140625 109.33399963378906,178.44000244140625 C109.33399963378906,178.44000244140625 -109.33200073242188,178.44000244140625 -109.33200073242188,178.44000244140625 C-117.50599670410156,178.44000244140625 -124.13200378417969,171.81399536132812 -124.13200378417969,163.64100646972656 C-124.13200378417969,163.64100646972656 -124.31800079345703,-163.6179962158203 -124.31800079345703,-163.6179962158203z"></path></g></g></g><g style="display: block;" transform="matrix(1,0,0,1,57.977996826171875,148.05300903320312)" opacity="1"><g opacity="1" transform="matrix(1,0,0,1,0,10.902145385742188)"><g opacity="1" transform="matrix(1,0,0,1,74.6969985961914,103.10700225830078)"><path stroke-linecap="round" stroke-linejoin="round" fill-opacity="0" stroke="rgb(32,118,255)" stroke-opacity="1" stroke-width="16" d=" M-39.162086486816406,-25.983999252319336 C-39.162086486816406,-25.983999252319336 39.16108703613281,-25.983999252319336 39.16108703613281,-25.983999252319336 C39.16108703613281,-25.983999252319336 39.16108703613281,25.983999252319336 39.16108703613281,25.983999252319336 C39.16108703613281,25.983999252319336 -39.162086486816406,25.983999252319336 -39.162086486816406,25.983999252319336 C-39.162086486816406,25.983999252319336 -39.162086486816406,-25.983999252319336 -39.162086486816406,-25.983999252319336z"></path></g><g opacity="1" transform="matrix(1,0,0,1,0,0)"><path stroke-linecap="round" stroke-linejoin="round" fill-opacity="0" stroke="rgb(0,0,0)" stroke-opacity="1" stroke-width="16" d=" M11.314000129699707,45.33000183105469 C11.314000129699707,45.33000183105469 138.08099365234375,45.33000183105469 138.08099365234375,45.33000183105469"></path></g><g opacity="1" transform="matrix(1,0,0,1,0,0)"><path stroke-linecap="round" stroke-linejoin="round" fill-opacity="0" stroke="rgb(0,0,0)" stroke-opacity="1" stroke-width="16" d=" M102.58300018310547,45.33000183105469 C102.58300018310547,45.33000183105469 102.58300018310547,11.314000129699707 102.58300018310547,11.314000129699707"></path></g><g opacity="1" transform="matrix(1,0,0,1,0,0)"><path stroke-linecap="round" stroke-linejoin="round" fill-opacity="0" stroke="rgb(0,0,0)" stroke-opacity="1" stroke-width="16" d=" M119.83348846435547,159.88099670410156 C119.83348846435547,159.88099670410156 29.561508178710938,159.88099670410156 29.561508178710938,159.88099670410156"></path></g><g opacity="1" transform="matrix(1,0,0,1,74.6969985961914,101.88200378417969)"><path stroke-linecap="round" stroke-linejoin="round" fill-opacity="0" stroke="rgb(0,0,0)" stroke-opacity="1" stroke-width="16" d=" M63.382999420166016,-90.56800079345703 C63.382999420166016,-90.56800079345703 -63.382999420166016,-90.56800079345703 -63.382999420166016,-90.56800079345703 C-63.382999420166016,-90.56800079345703 -63.382999420166016,90.56800079345703 -63.382999420166016,90.56800079345703 C-63.382999420166016,90.56800079345703 63.382999420166016,90.56800079345703 63.382999420166016,90.56800079345703 C63.382999420166016,90.56800079345703 63.382999420166016,-90.56800079345703 63.382999420166016,-90.56800079345703z"></path></g></g><g opacity="1" transform="matrix(1,0,0,1,0,4.755775451660156)"><g opacity="1" transform="matrix(1,0,0,1,306.75201416015625,101.97699737548828)"><path stroke-linecap="round" stroke-linejoin="round" fill-opacity="0" stroke="rgb(0,0,0)" stroke-opacity="1" stroke-width="16" d=" M67.16200256347656,90.66300201416016 C67.16200256347656,90.66300201416016 -67.16200256347656,90.66300201416016 -67.16200256347656,90.66300201416016 C-67.16200256347656,90.66300201416016 -67.16200256347656,-90.66300201416016 -67.16200256347656,-90.66300201416016 C-67.16200256347656,-90.66300201416016 67.16200256347656,-90.66300201416016 67.16200256347656,-90.66300201416016 C67.16200256347656,-90.66300201416016 67.16200256347656,90.66300201416016 67.16200256347656,90.66300201416016z"></path></g><g opacity="1" transform="matrix(1,0,0,1,0,0)"><path stroke-linecap="round" stroke-linejoin="round" fill-opacity="0" stroke="rgb(32,118,255)" stroke-opacity="1" stroke-width="16" d=" M309.6099853515625,59.46699905395508 C309.6099853515625,59.46699905395508 350.4613342285156,59.40175247192383 350.4613342285156,59.40175247192383"></path></g><g opacity="1" transform="matrix(1,0,0,1,0,0)"><path stroke-linecap="round" stroke-linejoin="round" fill-opacity="0" stroke="rgb(32,118,255)" stroke-opacity="1" stroke-width="16" d=" M309.6099853515625,144.3560028076172 C309.6099853515625,144.3560028076172 340.944580078125,144.35491943359375 340.944580078125,144.35491943359375"></path></g><g opacity="1" transform="matrix(1,0,0,1,0,0)"><path stroke-linecap="round" stroke-linejoin="round" fill-opacity="0" stroke="rgb(0,0,0)" stroke-opacity="1" stroke-width="16" d=" M309.6099853515625,101.91200256347656 C309.6099853515625,101.91200256347656 344.947021484375,101.88392639160156 344.947021484375,101.88392639160156"></path></g><g opacity="1" transform="matrix(1,0,0,1,0,0)"><path stroke-linecap="round" stroke-linejoin="round" fill-opacity="0" stroke="rgb(32,118,255)" stroke-opacity="1" stroke-width="16" d=" M278.71099853515625,101.97699737548828 C278.71099853515625,101.97699737548828 278.71099853515625,101.97699737548828 278.71099853515625,101.97699737548828z"></path></g><g opacity="1" transform="matrix(1,0,0,1,0,0)"><path stroke-linecap="round" stroke-linejoin="round" fill-opacity="0" stroke="rgb(0,0,0)" stroke-opacity="1" stroke-width="16" d=" M278.71099853515625,59.46900177001953 C278.71099853515625,59.46900177001953 278.71099853515625,59.46900177001953 278.71099853515625,59.46900177001953z"></path></g><g opacity="1" transform="matrix(1,0,0,1,0,0)"><path stroke-linecap="round" stroke-linejoin="round" fill-opacity="0" stroke="rgb(0,0,0)" stroke-opacity="1" stroke-width="16" d=" M278.71099853515625,144.48500061035156 C278.71099853515625,144.48500061035156 278.71099853515625,144.48500061035156 278.71099853515625,144.48500061035156z"></path></g></g></g></g></svg>