<svg xmlns:xlink="http://www.w3.org/1999/xlink"  width="34" height="60" viewBox="0 0 34 60" fill="none" xmlns="http://www.w3.org/2000/svg">
<g clip-path="url(#clip0_1578_91)">
<path d="M25.5369 0.285526C24.5957 0.840582 23.0328 2.41348 21.166 4.69191L22.8809 7.92855C24.0847 6.2066 25.3069 4.65784 26.5405 3.33479C26.6357 3.22974 26.6853 3.18005 26.6853 3.18005C26.6371 3.23116 26.5888 3.28368 26.5405 3.33479C26.1416 3.77486 24.9307 5.18734 23.1037 7.99243C24.8626 7.90442 27.5655 7.54526 29.7701 7.16765C30.4259 3.49378 29.127 1.81158 29.127 1.81158C29.127 1.81158 27.4761 -0.860075 25.5369 0.285526Z" fill="url(#paint0_linear_1578_91)"/>
<path d="M19.7776 27.4658C19.559 27.5056 19.3333 27.5439 19.1019 27.5836C19.1005 27.5836 19.0991 27.5851 19.0977 27.5851C19.2141 27.568 19.329 27.551 19.4426 27.5311C19.5562 27.5112 19.6669 27.49 19.7776 27.4658Z" fill="#BE202E"/>
<path opacity="0.35" d="M19.7776 27.4658C19.559 27.5056 19.3333 27.5439 19.1019 27.5836C19.1005 27.5836 19.0991 27.5851 19.0977 27.5851C19.2141 27.568 19.329 27.551 19.4426 27.5311C19.5562 27.5112 19.6669 27.49 19.7776 27.4658Z" fill="#BE202E"/>
<path d="M20.3509 24.6368C20.3509 24.6368 20.3495 24.6368 20.3495 24.6382C20.3481 24.6382 20.3481 24.6396 20.3467 24.6396C20.3836 24.6354 20.4191 24.6283 20.4546 24.624C20.6008 24.6027 20.7442 24.5772 20.8833 24.5474C20.7087 24.5758 20.5312 24.607 20.3509 24.6368Z" fill="#BE202E"/>
<path opacity="0.35" d="M20.3509 24.6368C20.3509 24.6368 20.3495 24.6368 20.3495 24.6382C20.3481 24.6382 20.3481 24.6396 20.3467 24.6396C20.3836 24.6354 20.4191 24.6283 20.4546 24.624C20.6008 24.6027 20.7442 24.5772 20.8833 24.5474C20.7087 24.5758 20.5312 24.607 20.3509 24.6368Z" fill="#BE202E"/>
<path d="M17.826 16.2913C18.347 15.3175 18.8751 14.3649 19.4089 13.4379C19.9625 12.4755 20.5232 11.5414 21.0897 10.6414C21.1223 10.5888 21.1564 10.5349 21.189 10.4809C21.7483 9.59513 22.3133 8.74338 22.8826 7.92854L21.1677 4.69189C21.0385 4.84947 20.9094 5.00988 20.7773 5.17313C20.2833 5.78923 19.7694 6.45217 19.2428 7.15487C18.6494 7.94699 18.039 8.79306 17.4186 9.6803C16.8465 10.5008 16.2659 11.3597 15.6853 12.2483C15.1913 13.005 14.6944 13.7843 14.2018 14.5835L14.1465 14.673L16.3781 19.0808C16.855 18.1367 17.3377 17.2055 17.826 16.2913Z" fill="url(#paint1_linear_1578_91)"/>
<path d="M7.66127 41.1265C7.36599 41.9385 7.0693 42.7647 6.77119 43.6093C6.76693 43.6221 6.76267 43.6334 6.75841 43.6462C6.71583 43.7655 6.67466 43.8847 6.63207 44.004C6.43191 44.5732 6.2573 45.0857 5.8584 46.2511C6.51566 46.5507 7.04375 47.34 7.54344 48.2357C7.49092 47.3087 7.10621 46.4371 6.37796 45.7628C9.61887 45.909 12.4112 45.0899 13.8549 42.7206C13.9841 42.5091 14.1019 42.2877 14.2084 42.0506C13.5525 42.8825 12.7391 43.236 11.2074 43.1494C13.4617 42.14 14.5931 41.1719 15.5925 39.5663C15.8295 39.1859 16.0595 38.77 16.2952 38.3086C14.3234 40.3329 12.0393 40.9093 9.63306 40.472L7.82878 40.6694C7.77199 40.8212 7.71663 40.9731 7.66127 41.1265Z" fill="url(#paint2_linear_1578_91)"/>
<path d="M8.50331 37.0851C8.8937 36.0772 9.29544 35.058 9.70712 34.0288C10.1018 33.0436 10.5078 32.0527 10.9223 31.0562C11.3368 30.0596 11.7612 29.0617 12.1942 28.0623C12.6343 27.0459 13.0843 26.0309 13.5414 25.0215C13.9943 24.0236 14.4556 23.0299 14.9241 22.0461C15.093 21.6912 15.2634 21.3377 15.4337 20.9857C15.729 20.3767 16.0271 19.7734 16.328 19.1757C16.3437 19.1431 16.3607 19.1118 16.3777 19.0792L14.1461 14.6714C14.1092 14.731 14.0737 14.7906 14.0368 14.8503C13.5173 15.6992 12.9991 16.5679 12.4909 17.4552C11.977 18.3509 11.4731 19.2637 10.9805 20.1893C10.5645 20.9701 10.1585 21.7579 9.7639 22.5529C9.6844 22.7147 9.60633 22.8737 9.52825 23.0341C9.04133 24.0349 8.60268 25.0017 8.2052 25.9315C7.75519 26.9848 7.35913 27.9913 7.01275 28.9453C6.7842 29.5727 6.57694 30.1789 6.38672 30.7609C6.23056 31.2578 6.08151 31.756 5.94097 32.2515C5.60737 33.4198 5.32061 34.5853 5.08496 35.7465L7.3279 40.1742C7.62459 39.382 7.92838 38.58 8.24069 37.7665C8.32728 37.5408 8.4153 37.3123 8.50331 37.0851Z" fill="url(#paint3_linear_1578_91)"/>
<path d="M5.05513 35.9038C4.77405 37.3205 4.57389 38.7316 4.4731 40.1342C4.47026 40.1838 4.46458 40.2321 4.46174 40.2818C3.76189 39.1603 1.88804 38.0658 1.8923 38.0758C3.2338 40.0206 4.25164 41.9512 4.40354 43.8464C3.68523 43.994 2.70146 43.7811 1.56438 43.3623C2.74973 44.4511 3.6398 44.7521 3.98618 44.833C2.89736 44.9011 1.76312 45.6492 0.620357 46.5109C2.2912 45.8295 3.64122 45.5598 4.60796 45.7784C3.07481 50.1195 1.53741 54.912 0 59.9998C0.471301 59.8607 0.752378 59.5441 0.909951 59.1154C1.18393 58.1941 3.00241 52.1495 5.85151 44.2041C5.93243 43.9784 6.01476 43.7512 6.0971 43.5227C6.11981 43.4588 6.14395 43.3949 6.16666 43.3325C6.46761 42.4992 6.77992 41.6488 7.10216 40.7815C7.17598 40.5842 7.2498 40.3868 7.32362 40.1881C7.32504 40.1838 7.32646 40.1796 7.32788 40.1767L5.08778 35.7505C5.07784 35.8002 5.06506 35.8513 5.05513 35.9038Z" fill="url(#paint4_linear_1578_91)"/>
<path d="M16.7242 19.4525C16.6603 19.5831 16.5964 19.7151 16.5311 19.8486C16.3381 20.2475 16.1422 20.6535 15.9434 21.0694C15.7291 21.5194 15.5133 21.9794 15.2947 22.4507C15.1839 22.6877 15.0746 22.9262 14.9625 23.169C14.6289 23.8944 14.291 24.6439 13.9475 25.4176C13.5259 26.3687 13.0957 27.3567 12.6599 28.3831C12.244 29.3612 11.8224 30.3733 11.3951 31.421C10.9891 32.4147 10.5788 33.4411 10.1629 34.4986C9.79238 35.4427 9.41903 36.4108 9.04142 37.4074C9.02297 37.4556 9.00451 37.5039 8.98748 37.5522C8.61271 38.5416 8.2351 39.558 7.85465 40.6C7.84614 40.6241 7.83762 40.6483 7.8291 40.671L9.63339 40.4737C9.5979 40.4666 9.56099 40.4623 9.5255 40.4552C11.6833 40.1869 14.5508 38.5743 16.4048 36.584C17.2594 35.667 18.0345 34.5852 18.7514 33.319C19.2851 32.3764 19.7862 31.3316 20.2632 30.1746C20.6806 29.1639 21.0809 28.0694 21.467 26.8826C20.9716 27.1438 20.4037 27.3354 19.7777 27.4689C19.6684 27.4916 19.5563 27.5143 19.4427 27.5342C19.3291 27.5541 19.2141 27.5725 19.0977 27.5881C19.0992 27.5881 19.1006 27.5867 19.102 27.5867C21.1135 26.813 22.3826 25.3182 23.3054 23.4884C22.7759 23.849 21.9156 24.3217 20.885 24.5488C20.7444 24.58 20.6011 24.6042 20.4563 24.6255C20.4194 24.6311 20.3839 24.6368 20.3484 24.6411C20.3498 24.6411 20.3498 24.6397 20.3512 24.6397C20.3512 24.6397 20.3526 24.6397 20.3526 24.6382C21.0511 24.3458 21.6402 24.0193 22.1513 23.6332C22.2606 23.5508 22.367 23.4657 22.4692 23.3762C22.6254 23.2414 22.773 23.0994 22.915 22.9504C23.0058 22.8552 23.0939 22.7573 23.179 22.6551C23.3792 22.4166 23.5666 22.1597 23.7426 21.88C23.7965 21.7948 23.8491 21.7082 23.9016 21.6188C23.9683 21.4896 24.0322 21.3633 24.0947 21.2383C24.3757 20.6734 24.6 20.1694 24.7789 19.7265C24.8683 19.505 24.9464 19.3006 25.0131 19.1104C25.0401 19.0352 25.0657 18.9613 25.0898 18.8904C25.1608 18.6774 25.219 18.4886 25.2644 18.3225C25.3325 18.0741 25.3737 17.8768 25.3964 17.7334C25.3283 17.7873 25.2502 17.8413 25.1622 17.8938C24.5546 18.2572 23.5126 18.5866 22.6722 18.7413C22.6595 18.7441 22.6467 18.7456 22.6339 18.7484C22.5502 18.7626 22.465 18.7754 22.3798 18.7896C22.3954 18.7825 22.4082 18.7754 22.4238 18.7697L16.7554 19.3915C16.7455 19.4113 16.7356 19.4312 16.7242 19.4525Z" fill="url(#paint5_linear_1578_91)"/>
<path d="M23.1052 7.99377C22.6012 8.76744 22.0505 9.64616 21.4585 10.6413C21.4273 10.6924 21.396 10.7463 21.3648 10.7989C20.8537 11.6605 20.31 12.606 19.7394 13.6423C19.2454 14.5366 18.7315 15.4963 18.1977 16.5283C17.7321 17.4269 17.2509 18.3808 16.7568 19.3902L22.4252 18.7684C24.0762 18.0089 24.8144 17.3218 25.5313 16.3281C25.7215 16.0541 25.9131 15.7674 26.1034 15.4707C26.6854 14.5622 27.2561 13.5614 27.7671 12.5662C28.2597 11.6052 28.6941 10.6526 29.0277 9.7938C29.2392 9.24726 29.4096 8.73905 29.5274 8.2933C29.631 7.90007 29.7119 7.52672 29.7744 7.17041C27.5669 7.5466 24.8641 7.90717 23.1052 7.99377Z" fill="url(#paint6_linear_1578_91)"/>
<path d="M19.4426 27.5312C19.329 27.5511 19.2141 27.5696 19.0977 27.5852C19.2141 27.5696 19.329 27.5511 19.4426 27.5312Z" fill="#BE202E"/>
<path opacity="0.35" d="M19.4426 27.5312C19.329 27.5511 19.2141 27.5696 19.0977 27.5852C19.2141 27.5696 19.329 27.5511 19.4426 27.5312Z" fill="#BE202E"/>
<path d="M20.3457 24.6396C20.3826 24.6354 20.4181 24.6283 20.4536 24.624C20.4181 24.6283 20.3826 24.634 20.3457 24.6396Z" fill="#BE202E"/>
<path opacity="0.35" d="M20.3457 24.6396C20.3826 24.6354 20.4181 24.6283 20.4536 24.624C20.4181 24.6283 20.3826 24.634 20.3457 24.6396Z" fill="#BE202E"/>
<path d="M20.3457 24.6396C20.3826 24.6354 20.4181 24.6283 20.4536 24.624C20.4181 24.6283 20.3826 24.634 20.3457 24.6396Z" fill="url(#paint7_linear_1578_91)"/>
<path d="M20.3496 24.6381C20.3496 24.6381 20.351 24.6381 20.351 24.6367C20.351 24.6367 20.3496 24.6367 20.3496 24.6381Z" fill="#BE202E"/>
<path opacity="0.35" d="M20.3496 24.6381C20.3496 24.6381 20.351 24.6381 20.351 24.6367C20.351 24.6367 20.3496 24.6367 20.3496 24.6381Z" fill="#BE202E"/>
<path d="M20.3496 24.6381C20.3496 24.6381 20.351 24.6381 20.351 24.6367C20.351 24.6367 20.3496 24.6367 20.3496 24.6381Z" fill="url(#paint8_linear_1578_91)"/>
<path d="M31.4961 5.49365V5.65974H31.8851V6.7585H32.0653V5.65974H32.4571V5.49365H31.4961ZM33.7433 5.49365L33.3089 6.37663L32.8717 5.49365H32.6545V6.7585H32.8206V5.75486L33.2507 6.62506H33.3657L33.7958 5.75486V6.7585H33.9619V5.49365H33.7433Z" fill="#6D6E71"/>
</g>
<defs>
<linearGradient id="paint0_linear_1578_91" x1="22.6206" y1="5.08922" x2="35.1832" y2="1.59636" gradientUnits="userSpaceOnUse">
<stop stop-color="#F69923"/>
<stop offset="0.3123" stop-color="#F79A23"/>
<stop offset="0.8383" stop-color="#E97826"/>
</linearGradient>
<linearGradient id="paint1_linear_1578_91" x1="-4.87629" y1="61.4716" x2="20.675" y2="6.6741" gradientUnits="userSpaceOnUse">
<stop offset="0.3233" stop-color="#9E2064"/>
<stop offset="0.6302" stop-color="#C92037"/>
<stop offset="0.7514" stop-color="#CD2335"/>
<stop offset="1" stop-color="#E97826"/>
</linearGradient>
<linearGradient id="paint2_linear_1578_91" x1="3.70363" y1="57.4191" x2="18.9297" y2="24.7652" gradientUnits="userSpaceOnUse">
<stop stop-color="#282662"/>
<stop offset="0.0954839" stop-color="#662E8D"/>
<stop offset="0.7882" stop-color="#9F2064"/>
<stop offset="0.9487" stop-color="#CD2032"/>
</linearGradient>
<linearGradient id="paint3_linear_1578_91" x1="-3.95215" y1="58.1556" x2="21.5992" y2="3.35813" gradientUnits="userSpaceOnUse">
<stop offset="0.3233" stop-color="#9E2064"/>
<stop offset="0.6302" stop-color="#C92037"/>
<stop offset="0.7514" stop-color="#CD2335"/>
<stop offset="1" stop-color="#E97826"/>
</linearGradient>
<linearGradient id="paint4_linear_1578_91" x1="-1.34731" y1="54.5046" x2="12.0807" y2="25.7069" gradientUnits="userSpaceOnUse">
<stop stop-color="#282662"/>
<stop offset="0.0954839" stop-color="#662E8D"/>
<stop offset="0.7882" stop-color="#9F2064"/>
<stop offset="0.9487" stop-color="#CD2032"/>
</linearGradient>
<linearGradient id="paint5_linear_1578_91" x1="1.71928" y1="60.8" x2="27.2706" y2="6.00258" gradientUnits="userSpaceOnUse">
<stop offset="0.3233" stop-color="#9E2064"/>
<stop offset="0.6302" stop-color="#C92037"/>
<stop offset="0.7514" stop-color="#CD2335"/>
<stop offset="1" stop-color="#E97826"/>
</linearGradient>
<linearGradient id="paint6_linear_1578_91" x1="-0.147379" y1="64.0681" x2="25.4039" y2="9.27064" gradientUnits="userSpaceOnUse">
<stop offset="0.3233" stop-color="#9E2064"/>
<stop offset="0.6302" stop-color="#C92037"/>
<stop offset="0.7514" stop-color="#CD2335"/>
<stop offset="1" stop-color="#E97826"/>
</linearGradient>
<linearGradient id="paint7_linear_1578_91" x1="3.21298" y1="61.4957" x2="28.7632" y2="6.69879" gradientUnits="userSpaceOnUse">
<stop offset="0.3233" stop-color="#9E2064"/>
<stop offset="0.6302" stop-color="#C92037"/>
<stop offset="0.7514" stop-color="#CD2335"/>
<stop offset="1" stop-color="#E97826"/>
</linearGradient>
<linearGradient id="paint8_linear_1578_91" x1="17.5292" y1="30.6925" x2="23.1755" y2="18.5834" gradientUnits="userSpaceOnUse">
<stop offset="0.3233" stop-color="#9E2064"/>
<stop offset="0.6302" stop-color="#C92037"/>
<stop offset="0.7514" stop-color="#CD2335"/>
<stop offset="1" stop-color="#E97826"/>
</linearGradient>
<clipPath id="clip0_1578_91">
<rect width="33.9635" height="60" fill="white"/>
</clipPath>
</defs>
</svg>
