<svg xmlns:xlink="http://www.w3.org/1999/xlink"  width="60" height="60" viewBox="0 0 60 60" fill="none" xmlns="http://www.w3.org/2000/svg">
<g clip-path="url(#clip0_3048_15705)">
<path d="M29.9875 59.9999C46.4779 59.9999 59.8461 46.6317 59.8461 30.1413C59.8461 13.6509 46.4779 0.282715 29.9875 0.282715C13.497 0.282715 0.128906 13.6509 0.128906 30.1413C0.128906 46.6317 13.497 59.9999 29.9875 59.9999Z" fill="#F5BB60"/>
<path d="M26.9436 53.9764C41.7886 53.9764 53.8228 41.9422 53.8228 27.0972C53.8228 12.2522 41.7886 0.218018 26.9436 0.218018C12.0987 0.218018 0.0644531 12.2522 0.0644531 27.0972C0.0644531 41.9422 12.0987 53.9764 26.9436 53.9764Z" fill="#E86F32"/>
<path d="M30.5063 46.8518C43.3839 46.8518 53.8232 36.4125 53.8232 23.5349C53.8232 10.6573 43.3839 0.218018 30.5063 0.218018C17.6288 0.218018 7.18945 10.6573 7.18945 23.5349C7.18945 36.4125 17.6288 46.8518 30.5063 46.8518Z" fill="#E53D42"/>
<path d="M32.3839 46.8518C44.2241 46.8518 53.8225 37.2534 53.8225 25.4132C53.8225 13.573 44.2241 3.97461 32.3839 3.97461C20.5437 3.97461 10.9453 13.573 10.9453 25.4132C10.9453 37.2534 20.5437 46.8518 32.3839 46.8518Z" fill="#BFD141"/>
<path d="M30.8294 46.8517C41.8111 46.8517 50.7136 37.9493 50.7136 26.9676C50.7136 15.9859 41.8111 7.0835 30.8294 7.0835C19.8477 7.0835 10.9453 15.9859 10.9453 26.9676C10.9453 37.9493 19.8477 46.8517 30.8294 46.8517Z" fill="#6DB64C"/>
<path d="M27.6558 40.5693C36.8847 40.5693 44.3662 33.0878 44.3662 23.8589C44.3662 14.63 36.8847 7.14844 27.6558 7.14844C18.4268 7.14844 10.9453 14.63 10.9453 23.8589C10.9453 33.0878 18.4268 40.5693 27.6558 40.5693Z" fill="#AFDBE7"/>
<path d="M30.3769 35.0638C38.1034 35.0638 44.367 28.8002 44.367 21.0736C44.367 13.3471 38.1034 7.0835 30.3769 7.0835C22.6503 7.0835 16.3867 13.3471 16.3867 21.0736C16.3867 28.8002 22.6503 35.0638 30.3769 35.0638Z" fill="#57BADF"/>
<path d="M32.1255 35.1286C38.922 35.1286 44.4316 29.619 44.4316 22.8225C44.4316 16.026 38.922 10.5164 32.1255 10.5164C25.329 10.5164 19.8193 16.026 19.8193 22.8225C19.8193 29.619 25.329 35.1286 32.1255 35.1286Z" fill="#02B2D6"/>
<path d="M30.3119 35.0638C36.1068 35.0638 40.8045 30.3661 40.8045 24.5712C40.8045 18.7763 36.1068 14.0786 30.3119 14.0786C24.517 14.0786 19.8193 18.7763 19.8193 24.5712C19.8193 30.3661 24.517 35.0638 30.3119 35.0638Z" fill="url(#paint0_radial_3048_15705)"/>
<path d="M30.3119 35.0638C36.1068 35.0638 40.8045 30.3661 40.8045 24.5712C40.8045 18.7763 36.1068 14.0786 30.3119 14.0786C24.517 14.0786 19.8193 18.7763 19.8193 24.5712C19.8193 30.3661 24.517 35.0638 30.3119 35.0638Z" fill="#231F20"/>
<path d="M33.067 23.1964C34.1073 23.6632 35.5419 22.7239 36.2713 21.0984C37.0006 19.4729 36.7486 17.7767 35.7083 17.3099C34.6679 16.8431 33.2333 17.7824 32.5039 19.4079C31.7746 21.0334 32.0266 22.7296 33.067 23.1964Z" fill="white"/>
</g>
<defs>
<radialGradient id="paint0_radial_3048_15705" cx="0" cy="0" r="1" gradientUnits="userSpaceOnUse" gradientTransform="translate(1072.03 1063.4) scale(1051.75)">
<stop stop-color="#797979"/>
<stop offset="1" stop-color="#4C4C4C"/>
</radialGradient>
<clipPath id="clip0_3048_15705">
<rect width="60" height="60" fill="white"/>
</clipPath>
</defs>
</svg>
