<svg xmlns:xlink="http://www.w3.org/1999/xlink"  width="60" height="60" viewBox="0 0 60 60" fill="none" xmlns="http://www.w3.org/2000/svg">
<g clip-path="url(#clip0_3232_324)">
<path d="M30 60C46.5685 60 60 46.5685 60 30C60 13.4315 46.5685 0 30 0C13.4315 0 0 13.4315 0 30C0 46.5685 13.4315 60 30 60Z" fill="#142051"/>
<path d="M31.5762 44.625V44.9941H20.3496C20.3496 44.8711 20.3555 44.748 20.3613 44.625C20.4316 43.3945 20.7715 42.2988 21.375 41.3555C22.1367 40.166 23.3379 39.1875 24.9492 38.4434C25.4004 38.7539 25.9219 38.9766 26.4727 39.0879C26.707 39.1348 26.9473 39.1641 27.1816 39.1641C27.8262 39.1641 28.4121 38.9824 28.8984 38.6367C30.0176 39.4922 30.7617 40.5059 31.166 41.7246C31.5059 42.7207 31.5703 43.6934 31.5762 44.625ZM28.8105 37.8691C28.3945 38.2852 27.8438 38.5078 27.2227 38.5078C26.2969 38.5078 25.3418 38.0098 24.8789 37.5234L24.8027 37.4414V37.3242C24.8027 37.1602 24.7969 36.9961 24.7969 36.832C18.3047 37.1543 17.7246 43.6758 17.6777 44.9941H19.9863C20.0215 42.375 21.1758 39.6973 25.0078 38.0156C25.418 38.332 25.957 38.6016 26.5664 38.7246C26.7715 38.7656 26.9824 38.7891 27.1992 38.7891C27.7852 38.7891 28.4062 38.6133 28.9102 38.168C31.8457 40.2715 31.9629 42.9609 31.9629 44.9883H32.373C32.3965 43.7637 32.2324 39.4629 28.9043 37.6406L28.9219 37.7637L28.8105 37.8691ZM37.6934 25.4707V25.418C37.2305 23.2559 35.7188 20.7832 35.1562 20.7305C34.5352 20.7715 34.1484 21.0527 33.7852 21.3984C33.8262 21.4453 33.8672 21.4922 33.9023 21.5391C33.9434 21.5918 33.9844 21.6387 34.0254 21.6914C34.125 21.8145 34.2187 21.9492 34.3125 22.0898C34.3594 22.1602 34.4062 22.2305 34.4531 22.3066C34.5469 22.4531 34.6406 22.6113 34.7285 22.7754C34.7754 22.8574 34.8164 22.9395 34.8633 23.0273C34.9512 23.1973 35.0391 23.3789 35.1211 23.5664C35.2031 23.7539 35.291 23.9473 35.3672 24.1523C35.4492 24.3574 35.5254 24.5684 35.6016 24.7852C35.6777 25.002 35.748 25.2305 35.8184 25.4648C35.8887 25.6992 35.9531 25.9453 36.0176 26.1914C35.9297 25.9512 35.8418 25.7109 35.748 25.4883C35.6602 25.2598 35.5664 25.043 35.4727 24.832C35.3789 24.6211 35.2852 24.4219 35.1914 24.2227C35.0977 24.0293 35.0039 23.8418 34.9043 23.666C34.8105 23.4902 34.7109 23.3145 34.6172 23.1504C34.5234 22.9863 34.4238 22.8281 34.3301 22.6816C34.2363 22.5352 34.1367 22.3945 34.043 22.2598C33.9492 22.125 33.8555 21.9961 33.7617 21.8789C33.668 21.7617 33.5742 21.6445 33.4805 21.5391C33.3867 21.4336 33.293 21.334 33.1992 21.2461C33.1055 21.1523 33.0117 21.0703 32.918 20.9941C32.8242 20.918 32.7246 20.8477 32.6309 20.7832C32.5371 20.7188 32.4375 20.6602 32.3437 20.6133C32.2441 20.5605 32.1504 20.5195 32.0508 20.4785C31.9512 20.4375 31.8574 20.4082 31.7578 20.3848C31.6582 20.3613 31.5586 20.3379 31.459 20.3262C31.3594 20.3145 31.2598 20.3027 31.1543 20.3027C31.0547 20.3027 30.9492 20.3027 30.8496 20.3086C30.7441 20.3145 30.6445 20.332 30.5391 20.3496C30.4336 20.3672 30.3281 20.3965 30.2227 20.4258C30.1172 20.4551 30.0117 20.4902 29.9004 20.5371C29.7949 20.5781 29.6836 20.625 29.5723 20.6777C29.4609 20.7305 29.3555 20.7891 29.2441 20.8535C29.1328 20.918 29.0215 20.9824 28.9102 21.0586C28.7988 21.1348 28.6875 21.2109 28.5703 21.2988C28.4531 21.3867 28.3418 21.4746 28.2246 21.5684C28.1074 21.6621 27.9902 21.7617 27.8672 21.8672C27.75 21.9727 27.627 22.0781 27.5039 22.1895C27.3809 22.3008 27.2578 22.418 27.1348 22.5352C27.0117 22.6523 26.8887 22.7754 26.7598 22.8984C26.6367 23.0215 26.5078 23.1445 26.3789 23.2734L25.9922 23.6602C26.0273 23.6074 26.0684 23.5547 26.1035 23.502C26.1094 23.4961 26.1152 23.4844 26.1211 23.4785C26.1562 23.4258 26.1973 23.373 26.2383 23.3203C26.2441 23.3145 26.2441 23.3086 26.25 23.3027C26.2559 23.2969 26.2617 23.291 26.2617 23.2852C26.3027 23.2324 26.3437 23.1797 26.3848 23.1211C26.3906 23.1094 26.4023 23.0977 26.4082 23.0918L26.5312 22.9336C26.5371 22.9277 26.543 22.9219 26.543 22.916L26.5488 22.9102C26.5898 22.8574 26.6367 22.8047 26.6836 22.7461C26.6953 22.7285 26.707 22.7168 26.7246 22.6992C26.7715 22.6465 26.8125 22.5938 26.8594 22.541C26.8652 22.5352 26.8711 22.5234 26.8828 22.5176C26.8887 22.5059 26.9004 22.5 26.9062 22.4883L27.0469 22.3301C27.0586 22.3125 27.0762 22.3008 27.0879 22.2832C27.1289 22.2363 27.1699 22.1953 27.2109 22.1484C27.2227 22.1367 27.2285 22.125 27.2402 22.1133L27.2578 22.0957C27.3047 22.0488 27.3516 22.002 27.3926 21.9492L27.4453 21.8965L27.4629 21.8789C23.8066 22.3887 23.1738 25.6055 23.4902 26.7832C24.5449 30.5215 25.0371 33.0586 25.0723 37.3242C25.7109 37.998 27.4863 38.7598 28.582 37.6641C28.3242 35.7246 29.502 34.8398 31.5059 34.6406C30.3809 33.9434 29.0977 33.9199 27.7676 34.0313C27.4922 34.0547 27.668 33.7676 27.8262 33.7676C29.2852 33.6211 30.6973 33.6914 31.9746 34.5059L31.9453 34.5527L31.9043 34.6055C32.4199 34.5762 32.9766 34.5879 33.5742 34.6289C37.3887 34.9102 42.3164 34.0078 42.3164 30.3809C42.0938 28.5879 40.4062 27.1523 37.6934 25.4707ZM29.5195 27.9434C29.2383 27.6621 27.6211 22.6289 30.3926 21.8379C32.168 21.334 34.3008 25.2363 34.3008 26.8652C34.3008 28.4941 30.9785 29.2734 29.5195 27.9434ZM31.2773 22.1836C30.5977 22.0547 29.9121 22.7344 29.7363 23.7012C29.5664 24.668 29.9766 25.5527 30.6562 25.6816C31.3359 25.8105 32.0215 25.1309 32.1973 24.1641C32.3672 23.1973 31.9512 22.3066 31.2773 22.1836ZM31.0254 25.043C30.9199 25.0781 30.7852 25.0371 30.7207 24.9492C30.6562 24.8613 30.6973 24.7559 30.8027 24.7207C30.9082 24.6855 31.043 24.7266 31.1074 24.8145C31.166 24.9023 31.1309 25.0078 31.0254 25.043ZM31.2012 23.502C31.0488 23.8184 30.7734 24 30.5859 23.9121C30.3984 23.8242 30.3691 23.4902 30.5215 23.1797C30.6738 22.8633 30.9492 22.6816 31.1367 22.7754C31.3242 22.8574 31.3535 23.1855 31.2012 23.502ZM37.9219 14.9824C37.8457 14.9824 37.7695 15 37.7051 15.0352C36.8965 14.3906 35.6953 14.332 34.2656 14.8945C32.9121 15.4219 31.418 16.4883 30.2637 17.7422C29.1973 18.8965 28.5527 20.0625 28.4473 21.0059C28.5527 20.9238 28.6523 20.8535 28.752 20.7891L28.8047 20.7539C29.2441 18.8438 31.8398 16.1777 34.3828 15.1816C35.332 14.8125 36.5918 14.5547 37.4883 15.252C37.4531 15.3164 37.4355 15.3926 37.4355 15.4688C37.4355 15.7383 37.6523 15.9551 37.9219 15.9551C38.1914 15.9551 38.4082 15.7383 38.4082 15.4688C38.4082 15.1992 38.1914 14.9824 37.9219 14.9824ZM28.4766 9.69727C28.125 9.00586 27.6855 8.51953 27.1934 8.2793V8.23828C27.1934 7.96875 26.9766 7.75195 26.707 7.75195C26.4375 7.75195 26.2207 7.96875 26.2207 8.23828C26.2207 8.50781 26.4375 8.72461 26.707 8.72461C26.8477 8.72461 26.9766 8.66016 27.0703 8.56641C27.498 8.77734 27.8848 9.21094 28.2012 9.84375C29.3027 12.0176 29.6016 16.623 27.7031 21.668L28.0195 21.3691C28.0781 21.3164 28.1367 21.2637 28.1953 21.2168C29.9004 16.2949 29.5664 11.8477 28.4766 9.69727Z" fill="white"/>
</g>
<defs>
<clipPath id="clip0_3232_324">
<rect width="60" height="60" fill="white"/>
</clipPath>
</defs>
</svg>
