<svg xmlns:xlink="http://www.w3.org/1999/xlink"  width="60" height="60" viewBox="0 0 60 60" fill="none" xmlns="http://www.w3.org/2000/svg">
<g clip-path="url(#clip0_3048_15718)">
<path d="M59.8323 29.9641C59.8323 46.4401 46.4642 59.7961 29.9882 59.7961C13.5122 59.7961 0.15625 46.4401 0.15625 29.9641C0.15625 13.4881 13.5122 0.120117 30.0002 0.120117C46.4882 0.120117 59.8323 13.4761 59.8323 29.9641Z" fill="#DB0812"/>
<path d="M51.276 25.32C50.46 23.376 49.08 21.72 47.352 20.556C46.488 19.968 45.54 19.512 44.52 19.2C43.5 18.876 42.42 18.708 41.292 18.708C40.536 18.708 39.792 18.804 39.084 18.96C37.752 19.26 36.528 19.824 35.436 20.532C34.476 21.144 33.588 21.876 32.772 22.668C31.956 23.46 31.176 24.324 30.444 25.2C31.068 25.956 31.668 26.724 32.256 27.48L32.304 27.54C32.604 27.912 32.892 28.296 33.192 28.68C33.252 28.608 33.312 28.536 33.372 28.464C34.044 27.648 34.704 26.88 35.376 26.208C35.88 25.704 36.372 25.248 36.864 24.852C37.608 24.264 38.34 23.808 39.072 23.508C39.432 23.364 39.792 23.232 40.164 23.16C40.536 23.088 40.908 23.04 41.304 23.04C42.204 23.04 43.056 23.22 43.836 23.544C45 24.036 45.996 24.864 46.704 25.896C47.052 26.412 47.328 26.988 47.52 27.6C47.7 28.212 47.808 28.86 47.808 29.532C47.808 30.444 47.628 31.284 47.292 32.064C46.8 33.228 45.972 34.224 44.928 34.932C44.412 35.28 43.836 35.556 43.236 35.748C42.624 35.94 41.988 36.036 41.304 36.036C40.86 36.036 40.464 35.988 40.056 35.904C39.348 35.736 38.664 35.448 37.944 35.016C37.416 34.68 36.888 34.272 36.348 33.804C35.544 33.096 34.728 32.232 33.912 31.272C33.096 30.312 32.292 29.268 31.452 28.2C30.6 27.12 29.748 26.004 28.836 24.948C28.152 24.156 27.432 23.376 26.676 22.644C26.112 22.092 25.524 21.588 24.888 21.12C23.952 20.412 22.932 19.812 21.804 19.38C20.688 18.948 19.452 18.696 18.18 18.696C16.692 18.696 15.252 18.996 13.956 19.548C12 20.364 10.356 21.732 9.192 23.46C8.616 24.336 8.148 25.284 7.824 26.304C7.512 27.324 7.332 28.416 7.332 29.52C7.332 31.008 7.644 32.436 8.184 33.744C9 35.688 10.38 37.344 12.108 38.508C12.984 39.096 13.92 39.552 14.94 39.876C15.96 40.188 17.04 40.356 18.168 40.356C18.924 40.356 19.668 40.272 20.376 40.116C21.708 39.804 22.92 39.24 24.024 38.532C24.528 38.208 25.02 37.836 25.488 37.452L27.36 39.324L27.972 32.016L20.628 32.592L22.404 34.368C21.72 34.884 21.06 35.292 20.4 35.568C20.04 35.712 19.668 35.832 19.308 35.916C18.936 35.988 18.564 36.024 18.168 36.024C17.256 36.024 16.404 35.844 15.636 35.52C14.484 35.04 13.464 34.2 12.78 33.168C12.42 32.652 12.144 32.064 11.952 31.464C11.772 30.852 11.664 30.204 11.664 29.52C11.664 28.62 11.844 27.768 12.18 26.988C12.66 25.824 13.488 24.828 14.52 24.12C15.036 23.772 15.612 23.496 16.224 23.316C16.836 23.124 17.484 23.016 18.168 23.016C18.6 23.016 19.008 23.076 19.404 23.16C20.112 23.328 20.808 23.616 21.516 24.06C22.044 24.384 22.572 24.804 23.112 25.272C23.928 25.98 24.72 26.844 25.536 27.804C26.352 28.764 27.168 29.808 27.996 30.876C28.836 31.944 29.7 33.072 30.624 34.128C31.308 34.92 32.016 35.7 32.772 36.432C33.324 36.984 33.924 37.488 34.548 37.956C35.484 38.664 36.516 39.264 37.632 39.696C38.76 40.128 39.984 40.38 41.268 40.38C42.768 40.38 44.184 40.08 45.48 39.528C47.436 38.712 49.08 37.344 50.244 35.604C50.832 34.74 51.288 33.792 51.612 32.772C51.924 31.752 52.104 30.672 52.104 29.544C52.128 28.056 51.828 26.616 51.276 25.32Z" fill="white"/>
</g>
<defs>
<clipPath id="clip0_3048_15718">
<rect width="60" height="60" fill="white"/>
</clipPath>
</defs>
</svg>
