<svg xmlns:xlink="http://www.w3.org/1999/xlink"  width="53" height="60" viewBox="0 0 53 60" fill="none" xmlns="http://www.w3.org/2000/svg">
<path fill-rule="evenodd" clip-rule="evenodd" d="M39.0945 4.72431C38.6221 4.42903 38.1496 4.19282 37.6772 3.9566C37.2047 3.72038 36.6732 3.48416 36.2008 3.30699C36.0236 3.24794 35.9055 3.18888 35.7284 3.12982C35.2559 2.95266 34.8425 2.77549 34.3701 2.65738C31.8307 1.83061 29.1732 1.41722 26.5158 1.41722C12.6378 1.35817 1.35828 12.5786 1.35828 26.5157C1.35828 38.7991 10.1575 48.9566 21.7323 51.2007V58.4054C36.7913 56.1613 50.1378 44.1731 51.1417 28.4645C51.7323 19.0156 47.0079 9.38966 39.0945 4.72431Z" fill="#23D96C"/>
<path d="M20.374 60V52.3228C8.50394 49.4882 0 38.7992 0 26.5158C0 11.8701 11.9291 0 26.5157 0C29.3504 0 32.126 0.413388 34.7835 1.29922C35.1378 1.41733 35.4921 1.53543 35.8465 1.65355L36.2008 1.77165C36.378 1.83071 36.4961 1.88977 36.6732 1.94882C37.1457 2.12599 37.6181 2.3622 38.2087 2.65748C38.7402 2.8937 39.2126 3.18898 39.685 3.48425C47.9528 8.32677 53.0315 18.4252 52.3819 28.5236C51.3779 44.0551 38.563 57.2244 21.7913 59.7047L20.374 60ZM26.5748 2.71654C13.4055 2.71654 2.71653 13.4055 2.71653 26.5158C2.71653 37.8543 10.8071 47.7165 22.0276 49.9016L23.1496 50.1378V56.8701C37.7953 53.9173 48.8976 42.2244 49.7835 28.4055C50.374 19.311 45.7677 10.2165 38.3858 5.84646C37.9724 5.61024 37.5 5.37402 37.0866 5.1378C36.5551 4.90158 36.1417 4.66536 35.7283 4.48819C35.5512 4.42914 35.4331 4.37008 35.315 4.31103L34.9606 4.19292C34.6654 4.07481 34.311 3.95669 34.0157 3.83858C31.5945 3.07087 29.1142 2.71654 26.5748 2.71654Z" fill="#173647"/>
<path fill-rule="evenodd" clip-rule="evenodd" d="M21.4961 13.7597C22.2638 13.6416 23.0315 13.9369 23.563 14.5275C23.9764 14.9409 24.2126 15.4133 24.5079 15.9448C25.3347 17.7755 25.8071 20.433 24.8032 21.9094C22.9134 21.555 20.4921 19.7834 19.6654 17.9527C19.3701 17.4212 19.252 16.7716 19.1929 16.2401C19.1929 14.8818 20.315 13.8779 21.4961 13.7597ZM14.1732 24.0944C14.7047 24.5078 15.2362 24.8031 15.7677 25.0393C17.5984 25.807 20.4921 25.9251 22.0866 24.8621C21.6732 23.1495 19.6063 21.2007 17.7756 20.433C17.126 20.1968 16.5945 20.0196 15.8858 20.0196C15.7087 20.0196 15.5906 20.0196 15.4724 20.0196C13.3465 20.1377 12.4606 22.7361 14.1732 24.0944ZM22.0276 28.5235C21.0236 27.8739 18.9567 28.1101 17.7756 28.1692C17.0669 28.1692 16.2992 28.3464 15.6496 28.6416C15 28.8779 14.4685 29.1731 14.0551 29.5865C12.3425 31.0629 13.4646 33.8385 15.8858 33.6613C16.5354 33.6613 17.2441 33.4842 17.7756 33.2479C19.6063 32.4212 21.7913 30.2361 22.0276 28.5235ZM25.3937 31.1219C23.563 31.5353 21.378 33.7794 20.6102 35.6692C20.374 36.2007 20.1969 36.8503 20.1969 37.3818C20.0787 39.6259 23.1496 40.866 24.4488 39.0944C24.8622 38.5629 25.0984 38.0314 25.3347 37.4999C26.1614 35.7873 26.4567 32.7164 25.3937 31.1219ZM28.7008 21.8503C30.5315 21.4369 32.6575 19.6062 33.4843 17.7755C33.7205 17.244 33.8976 16.5944 33.8976 16.0629C33.9567 14.6456 32.8347 13.6416 31.5945 13.5235C30.8268 13.4645 30.0591 13.7597 29.5276 14.3503C29.1142 14.8818 28.878 15.4133 28.6417 15.9448C27.815 17.7755 27.5197 20.433 28.7008 21.8503ZM34.1339 37.4999C34.1339 36.9684 33.9567 36.3188 33.7205 35.7873C32.9528 33.9566 31.0039 31.9487 29.1142 31.5944C28.0512 33.0708 28.0512 35.8464 28.8189 37.6771C29.0551 38.2086 29.3504 38.7401 29.7047 39.1534C31.2402 40.6889 34.311 39.5078 34.1339 37.4999ZM39.5669 29.4094C39.0354 28.996 38.5039 28.7597 37.9725 28.5235C37.2638 28.2282 36.5551 28.0511 35.8465 28.0511C34.6063 28.0511 32.7756 28.1101 31.7126 28.7597C32.126 30.4723 34.1339 32.3621 35.9646 33.1298C36.6142 33.366 37.1457 33.5432 37.8543 33.5432C40.2756 33.6613 41.3976 30.7086 39.5669 29.4094Z" fill="#173647"/>
</svg>
