<svg xmlns:xlink="http://www.w3.org/1999/xlink"  width="100" height="40" viewBox="0 0 100 40" fill="none" xmlns="http://www.w3.org/2000/svg">
<g clip-path="url(#clip0_3048_15683)">
<path d="M1.12868 25.2991C0.657089 23.5817 0.416992 21.7978 0.416992 20.0012C0.416992 11.7994 5.56804 4.3001 13.2357 1.34277L14.241 3.94462C7.64088 6.4908 3.20795 12.9429 3.20795 20.0012C3.20795 21.5494 3.41373 23.0827 3.81887 24.5603L1.12868 25.2991Z" fill="#69D3A7"/>
<path d="M35.7923 12.0778C32.8085 6.34938 26.935 2.7903 20.4678 2.7903C18.1763 2.7903 15.9492 3.23143 13.8527 4.09872L12.7831 1.52256C15.2203 0.513943 17.8055 0 20.4678 0C27.9811 0 34.802 4.13298 38.2682 10.7886L35.7923 12.0778Z" fill="url(#paint0_linear_3048_15683)"/>
<path d="M14.4808 15.8746C16.0992 15.8746 17.4175 16.7376 18.0949 18.243L18.1485 18.3608L20.8665 17.4378L20.8087 17.2987C19.7562 14.7353 17.3318 13.1421 14.4808 13.1421C12.4765 13.1421 10.8474 13.7846 9.50125 15.1037C8.16362 16.4143 7.48627 18.0632 7.48627 20.0054C7.48627 21.9306 8.16362 23.5709 9.50125 24.8815C10.8474 26.2007 12.4765 26.8431 14.4808 26.8431C17.3318 26.8431 19.7562 25.2498 20.8087 22.6887L20.8665 22.5495L18.1442 21.6243L18.0928 21.7464C17.4861 23.2262 16.1357 24.1106 14.4808 24.1106C13.3533 24.1106 12.4015 23.7166 11.6469 22.9413C10.8838 22.1554 10.498 21.1683 10.498 20.0076C10.498 18.8383 10.8753 17.8704 11.6469 17.0481C12.3993 16.2687 13.3533 15.8746 14.4808 15.8746Z" fill="#1B1E2E"/>
<path d="M47.9743 15.1058C46.7203 13.8038 45.1555 13.1421 43.3206 13.1421C41.4985 13.1421 39.998 13.791 38.8576 15.0694V13.3948H35.9209V31.642H38.8576V24.9158C39.998 26.1943 41.4964 26.8431 43.3206 26.8431C45.1555 26.8431 46.7224 26.1813 47.9764 24.8773C49.2112 23.5667 49.8349 21.9284 49.8349 20.0054C49.8328 18.0632 49.209 16.4164 47.9743 15.1058ZM45.6721 22.9371C44.9197 23.7144 43.9658 24.1063 42.8404 24.1063C41.6979 24.1063 40.7718 23.723 40.0066 22.9371C39.2435 22.1512 38.8576 21.164 38.8576 20.0033C38.8576 18.8084 39.2327 17.8404 40.0066 17.0438C40.7697 16.2558 41.6957 15.8746 42.8404 15.8746C43.9679 15.8746 44.9197 16.2687 45.6721 17.0438C46.4287 17.8233 46.7953 18.7913 46.7953 20.0033C46.7953 21.1983 46.4267 22.1576 45.6721 22.9371Z" fill="#1B1E2E"/>
<path d="M54.6155 14.9666V13.3948H51.6787V26.5882H54.6155V19.1445C54.6155 17.9518 55.0956 17.0395 56.043 16.4335C56.9841 15.8317 58.1138 15.7204 59.4965 16.0973L59.6743 16.1465V13.3241L59.565 13.2984C57.7086 12.8551 55.8459 13.4933 54.6155 14.9666Z" fill="#1B1E2E"/>
<path d="M67.2923 13.1421C65.3566 13.1421 63.7146 13.8017 62.4113 15.1037C61.0908 16.4228 60.4221 18.0718 60.4221 20.0054C60.4221 21.9306 61.0994 23.5709 62.437 24.8815C63.7833 26.2007 65.4123 26.8431 67.4166 26.8431C70.1325 26.8431 72.4669 25.464 73.663 23.1533L73.7316 23.0206L71.2472 21.9199L71.1872 22.0377C70.4669 23.4296 69.0843 24.2605 67.4938 24.2605C65.4273 24.2605 63.8453 22.9992 63.4167 21.0312H74.0703L74.0832 20.9048C74.3147 18.7763 73.7659 16.9303 72.4562 15.4163C71.1528 13.9066 69.4144 13.1421 67.2923 13.1421ZM63.5045 18.6756C64.0254 16.8747 65.4959 15.7226 67.2923 15.7226C69.1379 15.7226 70.6084 16.8747 71.0843 18.6756H63.5045Z" fill="#1B1E2E"/>
<path d="M81.9292 18.7461C80.3279 18.4464 78.9454 18.1851 78.9454 17.0716C78.9454 16.1871 79.8864 15.5704 81.2325 15.5704C82.718 15.5704 83.5326 16.2086 83.7234 17.5212L83.7449 17.6691L86.6812 17.0545L86.6604 16.9216C86.2654 14.5896 84.1862 13.1399 81.2347 13.1399C79.7535 13.1399 78.4994 13.5232 77.5091 14.2791C76.4974 15.0308 75.985 16.0116 75.985 17.1979C75.985 18.9153 77.074 20.2045 78.9025 20.6456C79.3762 20.757 79.8778 20.8469 80.3623 20.9369C82.1821 21.2688 83.9012 21.5836 83.9012 22.8085C83.9012 23.7529 82.8038 24.4103 81.2347 24.4103C79.6377 24.4103 78.7567 23.7721 78.5402 22.4573L78.5166 22.3116L75.582 22.9263L75.6056 23.0611C76.0322 25.4275 78.135 26.8408 81.2325 26.8408C82.806 26.8408 84.1545 26.449 85.2345 25.6781C86.3154 24.9156 86.8612 23.9327 86.8612 22.7571C86.8612 19.6734 84.1287 19.1595 81.9292 18.7461Z" fill="#1B1E2E"/>
<path d="M94.6504 18.7461C93.0495 18.4464 91.667 18.1851 91.667 17.0716C91.667 16.1871 92.6079 15.5704 93.9537 15.5704C95.4396 15.5704 96.2537 16.2086 96.4445 17.5212L96.4662 17.6691L99.4029 17.0545L99.3812 16.9216C98.9871 14.5896 96.9079 13.1399 93.9562 13.1399C92.4745 13.1399 91.2204 13.5232 90.2304 14.2791C89.2187 15.0308 88.7062 16.0116 88.7062 17.1979C88.7062 18.9153 89.7954 20.2045 91.6237 20.6456C92.0979 20.757 92.5987 20.8469 93.0837 20.9369C94.9037 21.2688 96.6229 21.5836 96.6229 22.8085C96.6229 23.7529 95.5254 24.4103 93.9562 24.4103C92.3587 24.4103 91.4779 23.7721 91.2612 22.4573L91.2379 22.3116L88.3037 22.9263L88.327 23.0611C88.7537 25.4275 90.8562 26.8408 93.9537 26.8408C95.5271 26.8408 96.8754 26.449 97.9562 25.6781C99.0362 24.9156 99.5829 23.9327 99.5829 22.7571C99.5829 19.6734 96.8495 19.1595 94.6504 18.7461Z" fill="#1B1E2E"/>
<path d="M31.5051 13.3948L27.6317 23.1961L23.7325 13.3948H20.5428L26.0111 26.7724L22.1205 36.2075L24.9093 36.7622L34.519 13.3948H31.5051Z" fill="#1B1E2E"/>
<path d="M22.6198 34.9912L21.9403 36.6359C21.8052 36.9614 21.4966 37.1819 21.1493 37.1969C20.92 37.2055 20.6885 37.2119 20.4548 37.2119C12.4571 37.2076 5.3811 31.5692 3.62764 23.8L0.905273 24.4146C1.88918 28.7725 4.35861 32.7277 7.85908 35.5545C11.4003 38.4132 15.8611 39.9915 20.4248 40C20.4312 40 20.4655 40 20.4655 40C20.7335 40 20.9992 39.9936 21.2651 39.983C22.697 39.923 23.9767 39.0257 24.5233 37.6959L25.4107 35.5459L22.6198 34.9912Z" fill="url(#paint1_linear_3048_15683)"/>
</g>
<defs>
<linearGradient id="paint0_linear_3048_15683" x1="18.3814" y1="-1.29118" x2="33.6022" y2="14.9769" gradientUnits="userSpaceOnUse">
<stop offset="0.0939" stop-color="#58D09E"/>
<stop offset="0.9883" stop-color="#58D09E" stop-opacity="0"/>
</linearGradient>
<linearGradient id="paint1_linear_3048_15683" x1="0.203312" y1="29.1013" x2="29.282" y2="36.8411" gradientUnits="userSpaceOnUse">
<stop offset="0.0774" stop-color="#58D09E"/>
<stop offset="0.7617" stop-color="#1B1E2E"/>
</linearGradient>
<clipPath id="clip0_3048_15683">
<rect width="100" height="40" fill="white"/>
</clipPath>
</defs>
</svg>
