<svg xmlns:xlink="http://www.w3.org/1999/xlink"  width="60" height="60" viewBox="0 0 60 60" fill="none" xmlns="http://www.w3.org/2000/svg">
<g clip-path="url(#clip0_3232_577)">
<path d="M37.5605 3.71997H17.7199C17.0623 3.71997 16.4316 3.98119 15.9667 4.44616C15.5017 4.91114 15.2405 5.54178 15.2405 6.19935V16.74L37.5605 29.76L48.7205 34.4695L59.8805 29.76V16.74L37.5605 3.71997Z" fill="#21A366"/>
<path d="M15.2405 16.74H37.5605V29.76H15.2405V16.74Z" fill="#107C41"/>
<path d="M57.4012 3.71997H37.5605V16.74H59.8805V6.19935C59.8805 5.54178 59.6193 4.91114 59.1544 4.44616C58.6894 3.98119 58.0587 3.71997 57.4012 3.71997Z" fill="#33C481"/>
<path d="M37.5605 29.76H15.2405V53.3206C15.2405 53.9782 15.5017 54.6088 15.9667 55.0738C16.4316 55.5388 17.0623 55.8 17.7199 55.8H57.4011C58.0587 55.8 58.6893 55.5388 59.1543 55.0738C59.6193 54.6088 59.8805 53.9782 59.8805 53.3206V42.78L37.5605 29.76Z" fill="#185C37"/>
<path d="M37.5605 29.76H59.8805V42.78H37.5605V29.76Z" fill="#107C41"/>
<path opacity="0.1" d="M31.3611 13.02H15.2405V48.36H31.3611C32.0181 48.3581 32.6476 48.0962 33.1121 47.6317C33.5767 47.1671 33.8385 46.5376 33.8405 45.8806V15.4994C33.8385 14.8424 33.5767 14.2129 33.1121 13.7484C32.6476 13.2838 32.0181 13.022 31.3611 13.02Z" fill="black"/>
<path opacity="0.2" d="M29.5011 14.8799H15.2405V50.2199H29.5011C30.1581 50.2179 30.7876 49.9561 31.2521 49.4915C31.7167 49.027 31.9785 48.3975 31.9805 47.7405V17.3593C31.9785 16.7023 31.7167 16.0728 31.2521 15.6082C30.7876 15.1437 30.1581 14.8818 29.5011 14.8799Z" fill="black"/>
<path opacity="0.2" d="M29.5011 14.8799H15.2405V46.4999H29.5011C30.1581 46.4979 30.7876 46.2361 31.2521 45.7715C31.7167 45.307 31.9785 44.6775 31.9805 44.0205V17.3593C31.9785 16.7023 31.7167 16.0728 31.2521 15.6082C30.7876 15.1437 30.1581 14.8818 29.5011 14.8799Z" fill="black"/>
<path opacity="0.2" d="M27.6411 14.8799H15.2405V46.4999H27.6411C28.2981 46.4979 28.9276 46.2361 29.3921 45.7715C29.8567 45.307 30.1185 44.6775 30.1205 44.0205V17.3593C30.1185 16.7023 29.8567 16.0728 29.3921 15.6082C28.9276 15.1437 28.2981 14.8818 27.6411 14.8799Z" fill="black"/>
<path d="M2.83998 14.8799H27.6412C28.2988 14.8799 28.9294 15.1411 29.3944 15.6061C29.8594 16.0711 30.1206 16.7017 30.1206 17.3593V42.1605C30.1206 42.8181 29.8594 43.4487 29.3944 43.9137C28.9294 44.3787 28.2988 44.6399 27.6412 44.6399H2.83998C2.1824 44.6399 1.55176 44.3787 1.08679 43.9137C0.621815 43.4487 0.360596 42.8181 0.360596 42.1605L0.360596 17.3593C0.360596 16.7017 0.621815 16.0711 1.08679 15.6061C1.55176 15.1411 2.1824 14.8799 2.83998 14.8799Z" fill="#107C41"/>
<path d="M6.93188 39.06L12.9508 29.7339L7.4378 20.46H11.8739L14.8834 26.3878C15.1599 26.9495 15.3502 27.3686 15.4544 27.6451H15.4935C15.6919 27.1963 15.8996 26.7598 16.1166 26.3357L19.3325 20.46H23.404L17.7496 29.6818L23.5473 39.06H19.2135L15.7371 32.55C15.5733 32.2727 15.4345 31.9814 15.3223 31.6795H15.2703C15.1688 31.9747 15.034 32.2574 14.8685 32.5221L11.2917 39.06H6.93188Z" fill="white"/>
</g>
<defs>
<clipPath id="clip0_3232_577">
<rect width="60" height="59.52" fill="white"/>
</clipPath>
</defs>
</svg>
