<svg xmlns:xlink="http://www.w3.org/1999/xlink"  width="60" height="58" viewBox="0 0 60 58" fill="none" xmlns="http://www.w3.org/2000/svg">
<g clip-path="url(#clip0_3232_554)">
<path d="M2.15244 43.9718C1.53414 44.9789 0.83387 46.1592 0.28115 47.0937C0.159364 47.3022 0.0820771 47.534 0.0469466 47.7729C0.013599 48.0128 0.0263172 48.2568 0.0844191 48.4919C0.140628 48.7285 0.243677 48.9486 0.3842 49.1453C0.524722 49.3421 0.702716 49.5107 0.906473 49.6418L13.3263 57.298C13.5394 57.4315 13.7806 57.5204 14.0312 57.5603C14.2795 57.6001 14.5371 57.5907 14.783 57.5298C15.0289 57.4689 15.2608 57.3612 15.4646 57.2113C15.6683 57.0614 15.8393 56.8717 15.9681 56.6539C16.4693 55.8201 17.104 54.7405 17.7855 53.5882C22.7085 45.5152 27.697 46.5035 36.6084 50.7403L48.9275 56.5813C49.1582 56.6919 49.4087 56.755 49.6642 56.7666C49.9197 56.7783 50.175 56.7384 50.4147 56.6492C50.6536 56.5602 50.8738 56.4244 51.0588 56.2487C51.2462 56.0731 51.3937 55.8623 51.4968 55.6281L57.4104 42.2949C57.5111 42.07 57.5673 41.8288 57.5743 41.5829C57.5837 41.3393 57.5439 41.0934 57.4596 40.8639C57.3753 40.6344 57.2488 40.4213 57.0849 40.2386C56.9209 40.0559 56.7242 39.9083 56.5017 39.7983C53.9044 38.5757 48.7355 36.1705 44.103 33.9034C27.252 25.7742 13.0335 26.3105 2.15244 43.9718Z" fill="url(#paint0_linear_3232_554)"/>
<path d="M57.8389 13.6633C58.4642 12.6562 59.1644 11.4782 59.7101 10.5437C59.8343 10.3306 59.9162 10.0941 59.9514 9.84815C59.9865 9.60458 59.9725 9.35398 59.9116 9.11509C59.8493 8.87562 59.7411 8.65051 59.593 8.4523C59.4452 8.25348 59.2598 8.08559 59.0473 7.95813L46.6463 0.302017C46.4308 0.168521 46.1919 0.0795239 45.9413 0.0397093C45.6907 -0.000105269 45.4354 0.0116049 45.1895 0.0701558C44.9436 0.131049 44.7118 0.238782 44.508 0.388672C44.3042 0.538563 44.1333 0.728267 44.0021 0.946077C43.5126 1.77984 42.8662 2.85952 42.1847 4.0118C37.243 12.1223 32.3013 11.1339 23.3805 6.89719L11.0731 1.05381C10.8436 0.943735 10.5953 0.878158 10.3424 0.864105C10.0895 0.847711 9.83418 0.885184 9.59529 0.969497C9.3564 1.05381 9.13625 1.18496 8.94889 1.35593C8.75918 1.5269 8.60929 1.733 8.50156 1.96252L2.58792 15.3332C2.38468 15.7867 2.36537 16.3014 2.53405 16.7689C2.61837 17.0007 2.74718 17.2138 2.91112 17.3965C3.07506 17.5792 3.27414 17.7291 3.49663 17.8368C6.10331 19.0617 11.2722 21.4646 15.8954 23.7341C32.7018 31.8609 46.9648 31.3269 57.8389 13.6633Z" fill="url(#paint1_linear_3232_554)"/>
</g>
<defs>
<linearGradient id="paint0_linear_3232_554" x1="57.0123" y1="61.2626" x2="19.4926" y2="39.6997" gradientUnits="userSpaceOnUse">
<stop stop-color="#0052CC"/>
<stop offset="0.92" stop-color="#2380FB"/>
<stop offset="1" stop-color="#2684FF"/>
</linearGradient>
<linearGradient id="paint1_linear_3232_554" x1="2.9774" y1="-3.63494" x2="40.5062" y2="17.9279" gradientUnits="userSpaceOnUse">
<stop stop-color="#0052CC"/>
<stop offset="0.92" stop-color="#2380FB"/>
<stop offset="1" stop-color="#2684FF"/>
</linearGradient>
<clipPath id="clip0_3232_554">
<rect width="60" height="57.6" fill="white"/>
</clipPath>
</defs>
</svg>
