<svg xmlns:xlink="http://www.w3.org/1999/xlink"  width="57" height="60" viewBox="0 0 57 60" fill="none" xmlns="http://www.w3.org/2000/svg">
<g clip-path="url(#clip0_3231_308)">
<path d="M55.9702 28.3405L30.4585 2.82873L27.9864 0.356689L8.78179 19.5613L-4.81009e-05 28.3405C-0.438696 28.7814 -0.684937 29.3781 -0.684937 30C-0.684937 30.6219 -0.438696 31.2186 -4.81009e-05 31.6595L17.5451 49.2046L27.9864 59.6433L47.1884 40.4387L47.4875 40.1423L55.9702 31.6727C56.1901 31.4545 56.3645 31.195 56.4836 30.909C56.6026 30.6231 56.6639 30.3164 56.6639 30.0066C56.6639 29.6969 56.6026 29.3902 56.4836 29.1042C56.3645 28.8183 56.1901 28.5587 55.9702 28.3405ZM27.9864 38.766L19.2205 30L27.9864 21.2341L36.7497 30L27.9864 38.766Z" fill="#2684FF"/>
<path d="M27.9865 21.2341C25.2296 18.4779 23.6755 14.7426 23.6636 10.8443C23.6517 6.94592 25.183 3.20126 27.923 0.428223L8.74219 19.6011L19.1809 30.0398L27.9865 21.2341Z" fill="url(#paint0_linear_3231_308)"/>
<path d="M36.7736 29.9761L27.9865 38.7658C30.7538 41.5339 32.3084 45.2878 32.3084 49.2019C32.3084 53.116 30.7538 56.8698 27.9865 59.6379L47.2202 40.4148L36.7736 29.9761Z" fill="url(#paint1_linear_3231_308)"/>
</g>
<defs>
<linearGradient id="paint0_linear_3231_308" x1="26.417" y1="12.365" x2="14.1759" y2="24.6034" gradientUnits="userSpaceOnUse">
<stop offset="0.18" stop-color="#0052CC"/>
<stop offset="1" stop-color="#2684FF"/>
</linearGradient>
<linearGradient id="paint1_linear_3231_308" x1="29.6592" y1="47.5292" x2="41.8765" y2="35.3145" gradientUnits="userSpaceOnUse">
<stop offset="0.18" stop-color="#0052CC"/>
<stop offset="1" stop-color="#2684FF"/>
</linearGradient>
<clipPath id="clip0_3231_308">
<rect width="56.664" height="60" fill="white"/>
</clipPath>
</defs>
</svg>
