<svg xmlns:xlink="http://www.w3.org/1999/xlink"  width="57" height="60" viewBox="0 0 57 60" fill="none" xmlns="http://www.w3.org/2000/svg">
<g clip-path="url(#clip0_3232_548)">
<path d="M20.1446 1.88403C10.963 2.56341 3.15768 3.18821 2.7907 3.26138C1.76175 3.44487 0.825712 4.14283 0.385564 5.06145L0 5.86974L0.0371628 25.134L0.0917457 44.3983L0.679383 45.5922C1.01036 46.253 3.25059 49.3386 5.69288 52.5149C10.5229 58.7768 10.8713 59.1264 12.7074 59.3099C13.2404 59.3645 17.2435 59.181 21.5777 58.9243C25.9304 58.6491 32.9077 58.2264 37.0955 57.9883C54.9812 56.9024 54.0626 56.9942 55.0904 56.1127C56.376 55.0478 56.2843 56.7921 56.3388 33.3784C56.376 13.5264 56.3574 12.2234 56.0636 11.6172C55.7152 10.9378 55.0904 10.4605 46.9366 4.73047C41.483 0.910828 41.0974 0.708755 38.654 0.671592C37.6448 0.635591 29.3075 1.18607 20.1446 1.88403ZM40.785 4.39949C41.5562 4.74789 47.1945 8.67786 48.0202 9.43157C48.2408 9.65222 48.314 9.83571 48.2037 9.94604C47.947 10.1667 13.0546 12.242 12.0454 12.0945C11.5867 12.0214 10.9073 11.7461 10.5217 11.4883C8.92372 10.4048 4.95775 7.15418 4.95775 6.91611C4.95775 6.29131 4.82884 6.29131 20.3838 5.17178C23.3592 4.96971 28.2437 4.60272 31.2191 4.36349C37.6634 3.84901 39.5923 3.8676 40.785 4.39949ZM51.877 14.4451C52.1336 14.7017 52.3543 15.1976 52.4275 15.6749C52.482 16.1162 52.5192 24.3432 52.482 33.9288C52.4275 50.3827 52.4089 51.4116 52.0965 51.8889C51.913 52.1828 51.546 52.4952 51.2696 52.5869C50.4996 52.8993 13.9372 54.9746 13.1847 54.754C12.8363 54.6622 12.3578 54.3684 12.1011 54.1117L11.6598 53.6344L11.6053 35.895C11.5681 23.4443 11.6053 17.9349 11.7527 17.439C11.8631 17.072 12.1383 16.6307 12.3775 16.4844C12.7085 16.2637 14.8756 16.0802 22.3314 15.6401C27.5655 15.3463 35.6635 14.8504 40.3101 14.5751C51.3625 13.8946 51.3265 13.8946 51.877 14.4451Z" fill="black"/>
<path d="M42.0521 20.5234C40.0685 20.6523 38.3056 20.8358 38.1035 20.9461C37.4973 21.2585 37.1303 21.773 37.0572 22.3606C37.0026 22.9669 37.1861 23.04 39.1685 23.2793L40.0313 23.3896V31.2309C40.0313 35.8949 39.9582 38.9806 39.8664 38.8888C39.7747 38.7785 37.1675 34.8125 34.0632 30.0743C30.9601 25.3186 28.3889 21.406 28.3518 21.37C28.3146 21.3329 26.295 21.4432 23.8713 21.6093C20.896 21.8113 19.262 21.9948 18.931 22.1783C18.3979 22.4536 17.8103 23.4268 17.8103 24.0701C17.8103 24.4557 18.5083 24.6578 19.9774 24.6578H20.7485V47.2086L19.5 47.5942C18.5268 47.888 18.1959 48.0715 18.031 48.4385C17.7371 49.0633 17.7557 49.6324 18.0495 49.6324C18.1599 49.6324 20.2352 49.5034 22.6217 49.3571C27.3414 49.0819 27.8733 48.953 28.3692 47.9798C28.5167 47.6859 28.6444 47.3735 28.6444 47.2818C28.6444 47.2086 28.0022 46.988 27.2299 46.8045C26.4402 46.621 25.6505 46.4375 25.4856 46.4003C25.1732 46.3086 25.1546 45.7395 25.1546 37.8424V29.3763L30.7372 38.1363C36.5949 47.3178 37.3301 48.3653 38.2301 48.8241C39.3508 49.4117 42.1972 49.0076 43.6292 48.0715L44.0705 47.7963L44.1076 35.2724L44.1622 22.73L45.1354 22.5465C46.2921 22.3258 46.8252 21.7939 46.8252 20.8753C46.8252 20.2877 46.788 20.2505 46.2375 20.2691C45.9089 20.2842 44.0171 20.3945 42.0521 20.5234Z" fill="black"/>
</g>
<defs>
<clipPath id="clip0_3232_548">
<rect width="56.376" height="60" fill="white"/>
</clipPath>
</defs>
</svg>
