<svg xmlns:xlink="http://www.w3.org/1999/xlink"  width="60" height="60" viewBox="0 0 60 60" fill="none" xmlns="http://www.w3.org/2000/svg">
<path d="M31.278 39.8017C31.277 39.8172 31.277 39.8329 31.278 39.8485C31.278 40.9873 32.238 41.9005 33.4092 41.9005C34.5804 41.9005 35.5392 40.9933 35.5392 39.8533C35.5407 39.8361 35.5407 39.8188 35.5392 39.8017V34.6873H31.278V39.8017Z" fill="#0770B8"/>
<path d="M45.1406 6.00012H41.3085C40.0532 5.99372 38.809 6.23571 37.6473 6.71221C36.4856 7.18872 35.4293 7.89035 34.5389 8.77685C33.6486 9.66335 32.9417 10.7173 32.459 11.8781C31.9763 13.0389 31.7271 14.2838 31.7258 15.5414V27.1164H14.8627C13.6067 27.11 12.3618 27.3523 11.1996 27.8293C10.0374 28.3063 8.98068 29.0087 8.09022 29.896C7.19977 30.7834 6.49312 31.8383 6.01085 33C5.52859 34.1618 5.28023 35.4076 5.28003 36.6658V44.3452C5.28003 49.6454 9.57029 54 14.8627 54H18.6948C23.9872 54 28.2774 49.6454 28.2774 44.3452V36.6658C28.2774 36.5377 28.2774 36.3414 28.2677 36.3414H22.5285V44.3485C22.5285 46.465 20.8092 48.2409 18.6948 48.2409H14.8627C12.7483 48.2409 11.029 46.4568 11.029 44.3485V36.6658C11.0307 36.1647 11.1314 35.6688 11.3254 35.2069C11.5193 34.745 11.8027 34.3261 12.1591 33.9745C12.5156 33.6229 12.938 33.3454 13.402 33.1582C13.866 32.971 14.3625 32.8777 14.8627 32.8837H45.1374C50.4298 32.8837 54.72 28.5291 54.72 23.2273V15.5479C54.7196 14.2901 54.4712 13.0447 53.989 11.8833C53.5069 10.722 52.8005 9.66744 51.9104 8.7803C51.0203 7.89315 49.9641 7.19087 48.8023 6.71377C47.6406 6.23667 46.3962 5.99414 45.1406 6.00012ZM48.9743 23.2208C48.9743 25.3389 47.255 27.1132 45.1406 27.1132H37.4748V15.5479C37.4765 15.0467 37.5772 14.5509 37.7712 14.089C37.9652 13.6271 38.2485 13.2082 38.605 12.8566C38.9614 12.5049 39.3838 12.2275 39.8478 12.0403C40.3119 11.8531 40.8083 11.7598 41.3085 11.7658H45.1406C45.6408 11.7598 46.1373 11.8531 46.6013 12.0403C47.0653 12.2275 47.4877 12.5049 47.8441 12.8566C48.2006 13.2082 48.484 13.6271 48.6779 14.089C48.8719 14.5509 48.9726 15.0467 48.9743 15.5479V23.2208Z" fill="#0770B8"/>
</svg>
