<svg xmlns:xlink="http://www.w3.org/1999/xlink"  width="60" height="45" viewBox="0 0 60 45" fill="none" xmlns="http://www.w3.org/2000/svg">
<g clip-path="url(#clip0_3048_15655)">
<path d="M19.7766 25.3949C17.5368 26.0306 16.0674 27.1451 15.0994 28.2587C16.0266 27.4473 17.2685 26.7027 18.9437 26.2278C20.6572 25.7422 22.119 25.7457 23.3268 25.9788V25.0343C22.2964 24.9401 21.1152 25.0151 19.7766 25.3949ZM14.9971 17.455L6.67886 19.6465C6.67886 19.6465 6.83046 19.8607 7.11118 20.1464L14.164 18.288C14.164 18.288 14.064 19.5758 13.1961 20.7278C14.8378 19.4857 14.9971 17.455 14.9971 17.455ZM21.9599 37.0042C10.254 40.1571 4.0608 26.5911 2.18576 19.5499C1.31946 16.2997 0.94129 13.8381 0.840495 12.2496C0.829666 12.0847 0.834672 11.9456 0.846335 11.8182C0.239094 11.8549 -0.0516292 12.1705 0.00752009 13.0827C0.108316 14.6704 0.486485 17.1317 1.35278 20.383C3.227 27.4232 9.42104 40.9891 21.127 37.8363C23.675 37.1499 25.5892 35.8996 27.0261 34.3037C25.7016 35.4999 24.044 36.4419 21.9599 37.0042ZM24.1597 9.15259V9.98568H28.7512C28.657 9.69072 28.5621 9.42496 28.4679 9.15259H24.1597Z" fill="#2D4552"/>
<path d="M29.777 16.0137C31.842 16.6002 32.934 18.0479 33.5113 19.3291L35.8136 19.983C35.8136 19.983 35.4996 15.4991 31.4438 14.347C27.6495 13.269 25.3147 16.4552 25.0307 16.8675C26.1344 16.0812 27.7462 15.4374 29.777 16.0137ZM48.1043 19.3498C44.3066 18.2669 41.9726 21.4597 41.6928 21.8663C42.7974 21.0808 44.4083 20.4368 46.4383 21.0158C48.4999 21.6031 49.5911 23.0491 50.1701 24.3312L52.4757 24.9875C52.4757 24.9875 52.1566 20.5027 48.1043 19.3498ZM45.8169 31.1723L26.6642 25.818C26.6642 25.818 26.8715 26.8692 27.6671 28.2304L43.7928 32.7384C45.1204 31.9703 45.8169 31.1723 45.8169 31.1723ZM32.5383 42.6975C17.3731 38.6316 19.2065 19.3091 21.6604 10.1529C22.6708 6.37951 23.7095 3.57488 24.5709 1.69485C24.057 1.58904 23.6313 1.85978 23.2106 2.71525C22.296 4.57027 21.1264 7.59066 19.9945 11.8189C17.5413 20.975 15.7079 40.2968 30.8724 44.3627C38.0202 46.2776 43.5886 43.3672 47.7395 38.7966C43.7994 42.3652 38.769 44.366 32.5383 42.6975Z" fill="#2D4552"/>
<path d="M24.1597 32.476V28.5768L13.3261 31.6489C13.3261 31.6489 14.1266 26.9976 19.7766 25.3948C21.4901 24.9092 22.9521 24.9125 24.1597 25.1457V9.15247H29.5842C28.9935 7.32741 28.4222 5.92229 27.9423 4.94597C27.1485 3.33001 26.3347 4.40123 24.4872 5.94645C23.186 7.03349 19.8974 9.35253 14.9487 10.686C9.99997 12.0204 5.99916 11.6665 4.32987 11.3775C1.96336 10.9692 0.725552 10.4495 0.841348 12.2495C0.942126 13.8371 1.32031 16.2987 2.18661 19.5498C4.06081 26.5901 10.2549 40.1561 21.9608 37.0032C25.0185 36.1794 27.1768 34.5509 28.6728 32.4752H24.1597V32.476ZM6.67805 19.6464L14.9971 17.4549C14.9971 17.4549 14.7546 20.6552 11.6359 21.4774C8.51642 22.2986 6.67805 19.6464 6.67805 19.6464Z" fill="#E2574C"/>
<path d="M55.4679 9.33751C53.3054 9.7166 48.1176 10.1889 41.7062 8.47034C35.2931 6.75288 31.0381 3.74907 29.3523 2.33717C26.9625 0.335512 25.9113 -1.05557 24.8767 1.04855C23.9621 2.90443 22.7925 5.92482 21.6604 10.153C19.2074 19.3091 17.374 38.6309 32.5383 42.6968C47.6995 46.7592 55.771 29.1083 58.2242 19.9514C59.3563 15.724 59.8527 12.5228 59.9893 10.4588C60.1451 8.12063 58.539 8.79938 55.4679 9.33751ZM25 16.9127C25 16.9127 27.3897 13.1959 31.4429 14.3479C35.4987 15.5 35.8128 19.9839 35.8128 19.9839L25 16.9127ZM34.894 33.5915C27.7647 31.5031 26.6651 25.818 26.6651 25.818L45.8169 31.1725C45.8169 31.1717 41.9511 35.6538 34.894 33.5915ZM41.6654 21.908C41.6654 21.908 44.0518 18.1937 48.1043 19.3491C52.1567 20.5029 52.4758 24.9868 52.4758 24.9868L41.6654 21.908Z" fill="#2EAD33"/>
<path d="M20.3739 29.6506L13.3261 31.6481C13.3261 31.6481 14.0916 27.2867 19.2835 25.5583L15.2927 10.5813L14.9479 10.6861C9.99913 12.0207 5.99832 11.6666 4.32904 11.3775C1.96254 10.9694 0.724734 10.4495 0.840512 12.2498C0.941307 13.8374 1.31948 16.2988 2.18577 19.55C4.05999 26.5902 10.254 40.1561 21.9599 37.0033L22.3048 36.895L20.3739 29.6506ZM6.67804 19.6466L14.9971 17.455C14.9971 17.455 14.7546 20.6553 11.6359 21.4774C8.51644 22.2987 6.67804 19.6466 6.67804 19.6466Z" fill="#D65348"/>
<path d="M35.2156 33.6697L34.8932 33.5913C27.7638 31.5031 26.6642 25.818 26.6642 25.818L36.5401 28.5785L41.7686 8.48703L41.7053 8.47034C35.2923 6.75288 31.0374 3.74907 29.3514 2.33717C26.9616 0.335512 25.9104 -1.05557 24.8759 1.04855C23.9621 2.90443 22.7925 5.92482 21.6604 10.153C19.2074 19.3091 17.374 38.6309 32.5383 42.6967L32.8491 42.7667L35.2156 33.6697ZM25 16.9127C25 16.9127 27.3897 13.1959 31.4429 14.3479C35.4987 15.5 35.8128 19.9839 35.8128 19.9839L25 16.9127Z" fill="#1D8D22"/>
<path d="M20.7326 29.5483L18.8426 30.0847C19.2891 32.6019 20.0761 35.0176 21.3114 37.1517C21.5264 37.1042 21.7397 37.0634 21.9587 37.0034C22.5327 36.8485 23.0649 36.6568 23.5773 36.4477C22.197 34.3995 21.284 32.0405 20.7326 29.5483ZM19.9946 11.8192C19.0233 15.4442 18.1544 20.662 18.3936 25.8956C18.8217 25.7098 19.274 25.5367 19.7763 25.3941L20.1262 25.3159C19.6996 19.7257 20.6217 14.029 21.6605 10.1531C21.9238 9.17264 22.1878 8.26063 22.451 7.41016C22.027 7.67992 21.5706 7.95646 21.0507 8.24134C20.7001 9.32351 20.3461 10.5063 19.9946 11.8192Z" fill="#C04B41"/>
</g>
<defs>
<clipPath id="clip0_3048_15655">
<rect width="60" height="45" fill="white"/>
</clipPath>
</defs>
</svg>
