<svg xmlns:xlink="http://www.w3.org/1999/xlink"  width="60" height="60" viewBox="0 0 60 60" fill="none" xmlns="http://www.w3.org/2000/svg">
<g clip-path="url(#clip0_3232_639)">
<path d="M59.7546 33.8093C61.8543 17.3723 50.2463 2.34498 33.8393 0.245363C17.4323 -1.85426 2.34498 9.75365 0.245363 26.1607C-1.85426 42.5677 9.75365 57.625 26.1607 59.7546C42.5977 61.8543 57.625 50.2463 59.7546 33.8093Z" fill="#FF6C37"/>
<path d="M40.8281 19.2619L28.1704 31.9197L24.6011 28.3503C37.0488 15.9025 38.2786 16.9823 40.8281 19.2619Z" fill="white"/>
<path d="M28.1703 32.2197C28.0803 32.2197 28.0203 32.1897 27.9603 32.1297L24.361 28.5604C24.241 28.4404 24.241 28.2604 24.361 28.1404C37.0187 15.4827 38.3385 16.6825 41.008 19.0821C41.068 19.1421 41.098 19.2021 41.098 19.292C41.098 19.382 41.068 19.442 41.008 19.502L28.3503 32.1297C28.3203 32.1897 28.2303 32.2197 28.1703 32.2197ZM25.0209 28.3504L28.1703 31.4998L40.3781 19.292C38.1585 17.3124 36.6588 16.7125 25.0209 28.3504Z" fill="#FF6C37"/>
<path d="M31.7995 35.549L28.3501 32.0996L41.0078 19.4419C44.3972 22.8613 39.3281 28.4103 31.7995 35.549Z" fill="white"/>
<path d="M31.7999 35.8488C31.7099 35.8488 31.6499 35.8188 31.5899 35.7589L28.1406 32.3095C28.0806 32.2495 28.0806 32.1895 28.0806 32.0995C28.0806 32.0095 28.1106 31.9495 28.1706 31.8895L40.8283 19.2318C40.9482 19.1119 41.1282 19.1119 41.2482 19.2318C42.0281 19.9517 42.448 20.9715 42.418 22.0213C42.358 25.3507 38.5787 29.58 32.0399 35.7589C31.9499 35.8188 31.8599 35.8488 31.7999 35.8488ZM28.7704 32.0995C30.6901 34.0492 31.5 34.829 31.7999 35.129C36.839 30.3298 41.7281 25.4107 41.7581 22.0213C41.7881 21.2415 41.4882 20.4616 40.9782 19.8617L28.7704 32.0995Z" fill="#FF6C37"/>
<path d="M24.6611 28.4402L27.2107 30.9897C27.2707 31.0497 27.2707 31.1097 27.2107 31.1697C27.1807 31.1997 27.1807 31.1997 27.1507 31.1997L21.8716 32.3395C21.6017 32.3695 21.3617 32.1895 21.3017 31.9195C21.2718 31.7696 21.3317 31.6196 21.4217 31.5296L24.4812 28.4702C24.5412 28.4102 24.6311 28.3802 24.6611 28.4402Z" fill="white"/>
<path d="M21.7813 32.6396C21.3314 32.6396 21.0015 32.2796 21.0015 31.8297C21.0015 31.6198 21.0914 31.4098 21.2414 31.2598L24.3009 28.2004C24.4808 28.0504 24.7208 28.0504 24.9008 28.2004L27.4503 30.7499C27.6303 30.8999 27.6303 31.1698 27.4503 31.3498C27.3903 31.4098 27.3303 31.4398 27.2403 31.4698L21.9613 32.6096C21.9013 32.6096 21.8413 32.6396 21.7813 32.6396ZM24.5708 28.7703L21.6314 31.7097C21.5714 31.7697 21.5414 31.8597 21.6014 31.9497C21.6314 32.0397 21.7213 32.0697 21.8113 32.0397L26.7604 30.9599L24.5708 28.7703Z" fill="#FF6C37"/>
<path d="M47.5168 12.2433C45.5972 10.3836 42.5077 10.4436 40.648 12.3932C38.7884 14.3429 38.8484 17.4023 40.798 19.262C42.3877 20.7917 44.7873 21.0617 46.677 19.9219L43.2576 16.5025L47.5168 12.2433Z" fill="white"/>
<path d="M44.1576 20.9116C41.3081 20.9116 38.9985 18.6021 38.9985 15.7526C38.9985 12.9031 41.3081 10.5935 44.1576 10.5935C45.4774 10.5935 46.7671 11.1034 47.727 12.0332C47.787 12.0932 47.8169 12.1532 47.8169 12.2432C47.8169 12.3332 47.787 12.3932 47.727 12.4532L43.6777 16.5024L46.8571 19.6819C46.9771 19.8018 46.9771 19.9818 46.8571 20.1018C46.8271 20.1318 46.8271 20.1318 46.7971 20.1618C46.0173 20.6417 45.0874 20.9116 44.1576 20.9116ZM44.1576 11.2234C41.6381 11.2234 39.5984 13.263 39.6284 15.7826C39.6284 18.3021 41.6681 20.3417 44.1876 20.3118C44.8775 20.3118 45.5674 20.1618 46.1972 19.8318L43.0478 16.7124C42.9878 16.6524 42.9578 16.5924 42.9578 16.5024C42.9578 16.4125 42.9878 16.3525 43.0478 16.2925L47.0671 12.2732C46.2572 11.5833 45.2374 11.2234 44.1576 11.2234Z" fill="#FF6C37"/>
<path d="M47.607 12.3332L47.547 12.2732L43.2578 16.5024L46.6472 19.8918C46.9771 19.6819 47.3071 19.4419 47.577 19.1719C49.4967 17.2823 49.4967 14.2228 47.607 12.3332Z" fill="white"/>
<path d="M46.6768 20.2219C46.5869 20.2219 46.5269 20.1919 46.4669 20.1319L43.0475 16.7125C42.9875 16.6525 42.9575 16.5925 42.9575 16.5025C42.9575 16.4126 42.9875 16.3526 43.0475 16.2926L47.3067 12.0333C47.4267 11.9134 47.6067 11.9134 47.7267 12.0333L47.8166 12.0933C49.8263 14.103 49.8263 17.3424 47.8466 19.382C47.5467 19.682 47.2168 19.9519 46.8568 20.1619C46.7668 20.1919 46.7068 20.2219 46.6768 20.2219ZM43.6774 16.5025L46.7068 19.532C46.9468 19.382 47.1868 19.1721 47.3667 18.9921C49.0764 17.2824 49.1664 14.4929 47.5167 12.6932L43.6774 16.5025Z" fill="#FF6C37"/>
<path d="M41.3379 19.8019C40.618 19.082 39.4482 19.082 38.7284 19.8019L27.4204 31.1098L29.3101 32.9995L41.2779 22.5014C42.0578 21.8415 42.1178 20.6717 41.4579 19.8918C41.3979 19.8619 41.3679 19.8319 41.3379 19.8019Z" fill="white"/>
<path d="M29.2799 33.2993C29.19 33.2993 29.13 33.2693 29.07 33.2093L27.1803 31.3197C27.0603 31.1997 27.0603 31.0197 27.1803 30.8998L38.4883 19.5918C39.3281 18.752 40.6779 18.752 41.5177 19.5918C42.3576 20.4316 42.3576 21.7814 41.5177 22.6213C41.4877 22.6512 41.4577 22.6812 41.4277 22.7112L29.4599 33.2093C29.4299 33.2693 29.3699 33.2993 29.2799 33.2993ZM27.8402 31.1097L29.3099 32.5795L41.0678 22.2613C41.7277 21.7214 41.7877 20.7316 41.2478 20.0717C40.7079 19.4118 39.7181 19.3518 39.0582 19.8917C39.0282 19.9217 38.9982 19.9517 38.9382 19.9817L27.8402 31.1097Z" fill="#FF6C37"/>
<path d="M18.752 43.9775C18.632 44.0375 18.572 44.1575 18.602 44.2774L19.1119 46.4371C19.2319 46.737 19.0519 47.0969 18.722 47.1869C18.482 47.2769 18.2121 47.1869 18.0621 47.007L14.7627 43.7375L25.5308 32.9695L29.2501 33.0295L31.7696 35.549C31.1697 36.0589 27.5404 39.5683 18.752 43.9775Z" fill="white"/>
<path d="M18.5122 47.4868C18.2723 47.4868 18.0323 47.3968 17.8823 47.2168L14.6129 43.9474C14.5529 43.8874 14.5229 43.8274 14.5229 43.7374C14.5229 43.6475 14.5529 43.5875 14.6129 43.5275L25.381 32.7594C25.441 32.6994 25.531 32.6694 25.591 32.6694L29.3103 32.7294C29.4003 32.7294 29.4603 32.7594 29.5202 32.8194L32.0398 35.339C32.0998 35.3989 32.1298 35.4889 32.1298 35.5789C32.1298 35.6689 32.0998 35.7289 32.0098 35.7889L31.7998 35.9688C28.6204 38.7583 24.3012 41.5478 18.9322 44.2174L19.4421 46.347C19.532 46.7369 19.3521 47.1568 18.9921 47.3668C18.8122 47.4568 18.6622 47.4868 18.5122 47.4868ZM15.2128 43.7374L18.3023 46.7969C18.3923 46.9469 18.5722 47.0068 18.7222 46.9169C18.8722 46.8269 18.9322 46.6469 18.8422 46.4969L18.3323 44.3373C18.2723 44.0674 18.3923 43.8274 18.6322 43.7074C23.9413 41.0379 28.2305 38.2784 31.3799 35.5489L29.1603 33.3293L25.7109 33.2693L15.2128 43.7374Z" fill="#FF6C37"/>
<path d="M12.2131 46.3171L14.7926 43.7375L18.6319 47.5769L12.513 47.1569C12.2431 47.1269 12.0631 46.887 12.0931 46.617C12.0931 46.4971 12.1231 46.3771 12.2131 46.3171Z" fill="white"/>
<path d="M18.6321 47.8469L12.4832 47.427C12.0332 47.397 11.7333 47.0071 11.7633 46.5571C11.7933 46.3772 11.8533 46.1972 12.0032 46.0772L14.5828 43.4977C14.7028 43.3777 14.8827 43.3777 15.0027 43.4977L18.842 47.337C18.932 47.427 18.962 47.547 18.902 47.6669C18.842 47.7869 18.752 47.8469 18.6321 47.8469ZM14.7927 44.1576L12.4232 46.5271C12.3332 46.5871 12.3332 46.7371 12.4232 46.7971C12.4532 46.8271 12.4832 46.8571 12.5432 46.8571L17.8522 47.217L14.7927 44.1576Z" fill="#FF6C37"/>
<path d="M24.4811 34.3492C24.3011 34.3492 24.1812 34.1992 24.1812 34.0493C24.1812 33.9593 24.2111 33.8993 24.2711 33.8393L27.1806 30.9298C27.3006 30.8098 27.4806 30.8098 27.6005 30.9298L29.4902 32.8195C29.5802 32.9095 29.6102 32.9995 29.5802 33.1194C29.5502 33.2094 29.4602 33.2994 29.3402 33.3294L24.5411 34.3492C24.5111 34.3492 24.4811 34.3492 24.4811 34.3492ZM27.3906 31.5597L25.4109 33.5394L28.6503 32.8495L27.3906 31.5597Z" fill="#FF6C37"/>
<path d="M29.25 33.0293L25.9506 33.7492C25.7107 33.8092 25.4707 33.6592 25.4107 33.4193C25.3807 33.2693 25.4107 33.1193 25.5307 32.9993L27.3604 31.1697L29.25 33.0293Z" fill="white"/>
<path d="M25.891 34.0493C25.4711 34.0493 25.1411 33.7193 25.1411 33.2994C25.1411 33.0894 25.2311 32.9095 25.3511 32.7595L27.1807 30.9298C27.3007 30.8098 27.4807 30.8098 27.6007 30.9298L29.4903 32.8195C29.5803 32.9095 29.6103 32.9995 29.5803 33.1194C29.5503 33.2094 29.4603 33.2994 29.3404 33.3294L26.041 34.0493C25.981 34.0493 25.921 34.0493 25.891 34.0493ZM27.3907 31.5597L25.771 33.1794C25.711 33.2394 25.711 33.2994 25.741 33.3594C25.771 33.4194 25.831 33.4494 25.921 33.4494L28.6805 32.8495L27.3907 31.5597Z" fill="#FF6C37"/>
<path d="M47.6368 15.2126C47.5768 15.0326 47.3668 14.9426 47.1869 15.0026C47.0069 15.0626 46.9169 15.2726 46.9769 15.4526C46.9769 15.4826 47.0069 15.5125 47.0069 15.5425C47.1869 15.9025 47.1269 16.3524 46.8869 16.6823C46.7669 16.8323 46.7969 17.0423 46.9169 17.1622C47.0669 17.2822 47.2769 17.2522 47.3968 17.1023C47.8468 16.5324 47.9367 15.8125 47.6368 15.2126Z" fill="#FF6C37"/>
</g>
<defs>
<clipPath id="clip0_3232_639">
<rect width="60" height="60" fill="white"/>
</clipPath>
</defs>
</svg>
