<svg xmlns:xlink="http://www.w3.org/1999/xlink"  width="60" height="60" viewBox="0 0 60 60" fill="none" xmlns="http://www.w3.org/2000/svg">
<path d="M53.6776 0.000766968C53.8237 -0.00846636 53.9624 0.0662518 54.035 0.193382C54.1077 0.320511 54.1017 0.477899 54.0195 0.599108L39.2319 20.6863C39.1236 20.8086 38.968 20.8786 38.8045 20.8786C38.6411 20.8786 38.4855 20.8086 38.3772 20.6863L33.163 14.8738C33.0357 14.7416 32.8552 14.6744 32.6724 14.691C32.4896 14.7076 32.3242 14.8063 32.2228 14.9593L29.0601 18.9767C28.9601 19.203 28.9929 19.4659 29.1456 19.6606L38.5481 29.405C38.6565 29.5273 38.8121 29.5973 38.9755 29.5973C39.1389 29.5973 39.2945 29.5273 39.4029 29.405L57.866 8.63398C57.975 8.51682 58.1439 8.47703 58.2938 8.53322C58.4436 8.58941 58.5447 8.73047 58.5498 8.89041V59.4075C58.5569 59.5229 58.5141 59.6358 58.4324 59.7175C58.3507 59.7992 58.2378 59.842 58.1224 59.8349H1.87834C1.76297 59.842 1.6501 59.7992 1.56836 59.7175C1.48663 59.6358 1.44388 59.5229 1.45095 59.4075V0.428154C1.44388 0.31278 1.48663 0.199914 1.56836 0.118179C1.6501 0.0364449 1.76297 -0.00630672 1.87834 0.000766968H53.6776ZM39.1465 34.1062C36.6017 34.0615 34.1492 35.0586 32.3576 36.8663C30.566 38.6741 29.5909 41.1354 29.6585 43.6797C29.6585 49.5776 33.9323 53.3386 39.4884 53.3386C42.0603 53.4026 44.5824 52.622 46.6685 51.1162C46.8618 50.9406 46.8981 50.6502 46.7539 50.4324L45.2153 48.1245C45.0424 47.9262 44.748 47.8894 44.5315 48.039C43.1942 48.9523 41.6203 49.4572 40.0012 49.4921C37.0095 49.4921 35.129 47.6116 34.7871 45.3892C34.7933 45.2975 34.8663 45.2245 34.9581 45.2183H47.8651C48.1403 45.1997 48.3594 44.9806 48.378 44.7054V44.1926C48.378 38.2091 44.617 34.1062 39.1465 34.1062ZM26.4103 30.8581C23.8141 28.7359 20.5291 27.6409 17.1788 27.7809C11.3663 27.7809 7.77627 31.2 7.77627 35.3029C7.77627 44.6199 21.9655 41.6282 21.9655 45.9876C21.9655 47.3552 20.5979 48.7229 17.6916 48.7229C14.9315 48.7456 12.2685 47.7049 10.2551 45.8166C10.1349 45.7042 9.97208 45.6492 9.80835 45.6656C9.64462 45.6819 9.49591 45.7681 9.40034 45.9021L7.17793 48.9793C7.03373 49.1971 7.07003 49.4875 7.26341 49.6631C9.5713 51.8 12.8194 53.2532 17.3497 53.2532C24.017 53.2532 27.2651 49.8341 27.4361 45.3892C27.4361 36.1577 13.2468 38.8075 13.2468 34.8755C13.2468 33.4224 14.529 32.3967 16.7514 32.3967C19.2013 32.3631 21.5872 33.1786 23.5041 34.7046C23.6168 34.7969 23.762 34.8399 23.9067 34.8238C24.0515 34.8077 24.1837 34.7339 24.2734 34.6191L26.4958 31.6274C26.5881 31.5147 26.6311 31.3695 26.615 31.2247C26.5989 31.08 26.5251 30.9478 26.4103 30.8581ZM39.2319 37.8672C41.5568 37.7372 43.5638 39.4791 43.7622 41.7992C43.756 41.8909 43.683 41.9639 43.5913 41.9701H34.8726C34.7809 41.9639 34.7078 41.8909 34.7016 41.7992C34.9874 39.5247 36.9398 37.8302 39.2319 37.8672Z" fill="#2CB134"/>
</svg>
