<svg xmlns:xlink="http://www.w3.org/1999/xlink"  width="60" height="60" viewBox="0 0 60 60" fill="none" xmlns="http://www.w3.org/2000/svg">
<g clip-path="url(#clip0_3232_667)">
<path d="M29.7796 59.9993C13.7925 59.889 -0.107133 46.6213 0.000622376 29.7653C0.104332 13.5456 13.5825 -0.110348 30.2603 0.000672214C46.4688 0.108384 60.1438 13.5628 59.9989 30.0457C60.1331 46.379 46.3912 60.1147 29.7796 59.9993ZM29.7796 59.9993C13.7925 59.889 -0.107133 46.6213 0.000622376 29.7653C0.104332 13.5456 13.5825 -0.110348 30.2603 0.000672214C46.4688 0.108384 60.1438 13.5628 59.9989 30.0457C60.1331 46.379 46.3912 60.1147 29.7796 59.9993Z" fill="#49A32B"/>
<path d="M39.6861 29.9897C39.6194 31.2296 38.5362 32.2592 37.4686 32.0795C37.4635 32.0795 37.4581 32.0795 37.4527 32.0795C36.2702 32.0811 35.3106 31.1237 35.3093 29.9412C35.3495 28.7556 36.3328 27.8211 37.5187 27.8412C38.7012 27.847 39.7499 28.8462 39.6861 29.9897ZM20.6722 42.0047C21.118 42.0178 21.5642 42.0082 22.0783 42.0082V45.2393C18.8827 45.7796 16.2503 44.8723 15.6044 42.171C15.3832 41.1778 15.2473 40.1674 15.1975 39.1509C15.1289 38.0747 15.2476 36.9864 15.1656 35.9122C14.9383 32.9562 14.5553 31.9471 11.7188 31.8073V28.1284C11.922 28.0809 12.1282 28.0458 12.3357 28.0225C13.8909 27.9459 14.5464 27.4691 14.8943 25.9372C15.0526 25.0764 15.1464 24.2052 15.1742 23.3304C15.2974 21.6389 15.2536 19.9199 15.5355 18.2559C15.9427 15.8495 17.4366 14.6805 19.9043 14.5496C20.6064 14.512 21.3108 14.5439 22.1064 14.5439V17.8464C21.779 17.8697 21.479 17.9173 21.1809 17.9083C19.1699 17.8467 19.0659 18.5316 18.9191 20.1963C18.8275 21.2403 18.9539 22.3021 18.8827 23.3495C18.8083 24.3919 18.6689 25.4288 18.4652 26.4539C18.1751 27.9395 17.2617 29.0444 15.996 29.9821C18.4531 31.581 18.7327 34.0656 18.8923 36.5884C18.9781 37.9442 18.9389 39.3095 19.0764 40.6586C19.1836 41.7057 19.5909 41.9728 20.6722 42.0047ZM22.7431 27.8412H22.7811C23.9559 27.8607 24.8929 28.8287 24.8734 30.0038C24.8734 30.0424 24.8722 30.0807 24.8699 30.119C24.8039 31.2673 23.8196 32.1443 22.6713 32.0782C22.625 32.0792 22.5791 32.0782 22.5328 32.076C21.3634 32.0179 20.4625 31.0228 20.5206 29.8534C20.5786 28.6841 21.5737 27.7831 22.7431 27.8412ZM30.0641 27.8412C31.349 27.8313 32.2024 28.664 32.2091 29.9342C32.2161 31.2386 31.407 32.0731 30.1305 32.0786C28.8322 32.0843 27.9775 31.2631 27.9705 30.0006C27.9666 29.9361 27.9657 29.8716 27.9676 29.8072C28.0036 28.6854 28.9423 27.8052 30.0641 27.8412ZM45.3922 26.2321C45.734 27.5087 46.3994 27.9574 47.7433 28.0187C47.9635 28.0289 48.1828 28.0662 48.4847 28.0997V31.7776C48.3213 31.8312 48.1537 31.8714 47.9836 31.8976C46.1827 32.0096 45.3618 32.7484 45.1799 34.5542C45.0637 35.707 45.0733 36.8725 44.9935 38.0294C44.96 39.2996 44.8445 40.5663 44.6476 41.8215C44.188 44.0958 42.7681 45.2304 40.422 45.3689C39.6669 45.4136 38.9064 45.3759 38.0923 45.3759V42.0887C38.5305 42.0615 38.9173 42.0242 39.305 42.0149C40.7067 41.9814 41.2024 41.5295 41.271 40.1374C41.3469 38.608 41.3801 37.0767 41.4484 35.5471C41.5477 33.336 42.1531 31.3608 44.2129 29.9817C43.0343 29.1414 42.088 28.1237 41.8429 26.7513C41.5464 25.0879 41.4507 23.3878 41.2911 21.7011C41.2123 20.8579 41.2161 20.0074 41.1337 19.1648C41.045 18.2553 40.4201 17.9406 39.5923 17.9202C39.118 17.9087 38.6418 17.9179 38.0354 17.9179V14.7079C41.9048 14.0655 44.5777 15.3529 44.826 19.055C44.93 20.6096 44.9147 22.1715 45.0143 23.7261C45.058 24.5719 45.1844 25.4112 45.3922 26.2321Z" fill="white"/>
</g>
<defs>
<clipPath id="clip0_3232_667">
<rect width="60" height="60" fill="white"/>
</clipPath>
</defs>
</svg>
