<svg xmlns:xlink="http://www.w3.org/1999/xlink"  width="132" height="33" viewBox="0 0 132 33" fill="none" xmlns="http://www.w3.org/2000/svg">
<g clip-path="url(#clip0_3232_364)">
<path d="M111.395 28.8159L115.176 32.5972C115.364 32.785 115.669 32.785 115.857 32.5972L119.638 28.8159C119.826 28.6281 119.826 28.3236 119.638 28.1358L115.857 24.3545C115.669 24.1667 115.364 24.1667 115.176 24.3545L111.395 28.1358C111.207 28.3236 111.207 28.6281 111.395 28.8159Z" fill="#65C179"/>
<path d="M117.506 22.7051L121.287 26.4863C121.475 26.6742 121.779 26.6742 121.967 26.4863L125.748 22.7051C125.936 22.5173 125.936 22.2128 125.748 22.0249L121.967 18.2437C121.779 18.0558 121.475 18.0558 121.287 18.2437L117.506 22.0249C117.318 22.2128 117.318 22.5173 117.506 22.7051Z" fill="#65C179"/>
<path d="M123.616 16.5945L127.398 20.3758C127.586 20.5636 127.89 20.5636 128.078 20.3758L131.859 16.5945C132.047 16.4067 132.047 16.1022 131.859 15.9143L128.078 12.1331C127.89 11.9453 127.586 11.9452 127.398 12.1331L123.616 15.9143C123.429 16.1022 123.429 16.4067 123.616 16.5945Z" fill="#65C179"/>
<path d="M111.51 16.709L115.291 20.4903C115.479 20.6781 115.783 20.6781 115.971 20.4903L119.752 16.709C119.94 16.5212 119.94 16.2167 119.752 16.0288L115.971 12.2476C115.783 12.0598 115.479 12.0598 115.291 12.2476L111.51 16.0288C111.322 16.2167 111.322 16.5212 111.51 16.709Z" fill="#65C179"/>
<path d="M117.62 10.5984L121.402 14.3797C121.589 14.5675 121.894 14.5675 122.082 14.3797L125.863 10.5984C126.051 10.4106 126.051 10.1061 125.863 9.91825L122.082 6.13697C121.894 5.94916 121.589 5.94915 121.402 6.13697L117.62 9.91824C117.433 10.1061 117.433 10.4106 117.62 10.5984Z" fill="#65C179"/>
<path d="M111.624 4.60229L115.406 8.38356C115.593 8.57138 115.898 8.57138 116.086 8.38356L119.867 4.60229C120.055 4.41447 120.055 4.10997 119.867 3.92215L116.086 0.140878C115.898 -0.0469371 115.593 -0.0469357 115.406 0.14088L111.624 3.92215C111.436 4.10997 111.436 4.41448 111.624 4.60229Z" fill="#65C179"/>
<path d="M11.963 7.95494V28.1487H7.69771V7.95494H0V4.2229H19.6605V7.95494H11.963Z" fill="black"/>
<path d="M14.293 19.4183C14.293 14.2865 17.7584 10.321 22.6235 10.321C27.6888 10.321 30.3878 14.1531 30.3878 18.9518V20.2845H18.1251C18.425 23.2836 20.2242 25.1164 22.7901 25.1164C24.7562 25.1164 26.3225 24.1168 26.8556 22.3174L30.288 23.6168C29.0548 26.6825 26.289 28.5152 22.7901 28.5152C17.7919 28.5152 14.293 24.8165 14.293 19.4183ZM18.3249 17.2856H26.3558C26.3225 15.3528 25.1229 13.6866 22.5903 13.6866C20.5241 13.6866 18.9247 14.9196 18.3249 17.2856Z" fill="black"/>
<path d="M33.5403 22.4172C34.5733 24.1168 36.5727 25.2497 38.6055 25.2497C40.305 25.2497 41.8711 24.6499 41.8711 23.0838C41.8711 21.5842 40.4048 21.4176 37.639 20.8511C34.8732 20.2845 31.7075 19.5849 31.7075 15.8526C31.7075 12.6536 34.5068 10.321 38.5388 10.321C41.6044 10.321 44.3369 11.6873 45.6034 13.6201L42.9041 16.0527C41.9043 14.4863 40.2382 13.5866 38.3056 13.5866C36.6727 13.5866 35.6064 14.3197 35.6064 15.4861C35.6064 16.7523 36.8726 16.9857 39.072 17.4522C42.0377 18.0853 45.77 18.7184 45.77 22.7171C45.77 26.2495 42.5374 28.5152 38.572 28.5152C35.3398 28.5152 32.1075 27.2158 30.5414 24.8165L33.5403 22.4172Z" fill="black"/>
<path d="M48.3691 14.0531H45.9365V10.6543H48.3691V5.52246H52.3013V10.6543H55.9668V14.0531H52.3013V23.1171C52.3013 24.6832 53.201 24.8498 54.6338 24.8498C55.3004 24.8498 55.6668 24.8165 56.2667 24.75V28.1156C55.5335 28.2489 54.534 28.3487 53.5009 28.3487C50.1686 28.3487 48.3691 27.3159 48.3691 23.7502V14.0531Z" fill="black"/>
<path d="M62.1849 28.1487H57.9196V4.2229H67.4833C72.815 4.2229 76.1473 6.72201 76.1473 11.5539C76.1473 15.3195 74.0811 17.7188 70.5822 18.5517L76.7468 28.1487H71.8819L66.0502 18.8849H62.1849L62.1849 28.1487ZM67.2499 15.2194C70.3156 15.2194 71.9485 13.8864 71.9485 11.5539C71.9485 9.18813 70.3156 7.88841 67.2499 7.88841H62.1849V15.2194H67.2499Z" fill="black"/>
<path d="M76.6572 23.2836C76.6572 19.9513 79.1566 18.4853 82.5222 17.7854L87.3541 16.7856V16.4857C87.3541 14.8195 86.4876 13.7867 84.3549 13.7867C82.4557 13.7867 81.4559 14.6529 80.9894 16.3526L77.2238 15.4861C78.0903 12.587 80.6562 10.321 84.5215 10.321C88.7203 10.321 91.2527 12.3204 91.2527 16.3526V23.8835C91.2527 24.8833 91.686 25.1832 92.7856 25.0499V28.1488C89.8865 28.482 88.3536 27.9154 87.7538 26.4826C86.6542 27.7156 84.8214 28.4487 82.5555 28.4487C79.2231 28.4487 76.6572 26.4161 76.6572 23.2836ZM87.3541 19.8515L83.5885 20.6512C81.8891 21.0176 80.6229 21.5509 80.6229 23.117C80.6229 24.4833 81.6225 25.2497 83.1553 25.2497C85.288 25.2497 87.3541 24.1168 87.3541 21.9842V19.8515Z" fill="black"/>
<path d="M98.2206 28.1486H94.2219V10.6541H98.2206V28.1486Z" fill="black"/>
<path d="M104.862 28.1487H100.863V4.2229H104.862V28.1487Z" fill="black"/>
<path d="M98.2873 4.2229H94.1553V8.32164H98.2873V4.2229Z" fill="black"/>
</g>
<defs>
<clipPath id="clip0_3232_364">
<rect width="132" height="32.738" fill="white"/>
</clipPath>
</defs>
</svg>
