<svg xmlns:xlink="http://www.w3.org/1999/xlink"  width="60" height="60" viewBox="0 0 60 60" fill="none" xmlns="http://www.w3.org/2000/svg">
<g clip-path="url(#clip0_3232_316)">
<path d="M54.1406 0H5.85938C2.62333 0 0 2.62333 0 5.85938V54.1406C0 57.3767 2.62333 60 5.85938 60H54.1406C57.3767 60 60 57.3767 60 54.1406V5.85938C60 2.62333 57.3767 0 54.1406 0Z" fill="url(#paint0_linear_3232_316)"/>
<path d="M49.3875 7.80005H36.7125C35.1592 7.80005 33.9 9.05925 33.9 10.6125V31.2375C33.9 32.7908 35.1592 34.05 36.7125 34.05H49.3875C50.9408 34.05 52.2 32.7908 52.2 31.2375V10.6125C52.2 9.05925 50.9408 7.80005 49.3875 7.80005Z" fill="white"/>
<path d="M23.2875 7.80005H10.6125C9.05925 7.80005 7.80005 9.05925 7.80005 10.6125V46.2375C7.80005 47.7909 9.05925 49.05 10.6125 49.05H23.2875C24.8408 49.05 26.1 47.7909 26.1 46.2375V10.6125C26.1 9.05925 24.8408 7.80005 23.2875 7.80005Z" fill="white"/>
</g>
<defs>
<linearGradient id="paint0_linear_3232_316" x1="3000" y1="0" x2="3000" y2="6000" gradientUnits="userSpaceOnUse">
<stop stop-color="#0091E6"/>
<stop offset="1" stop-color="#0079BF"/>
</linearGradient>
<clipPath id="clip0_3232_316">
<rect width="60" height="60" fill="white"/>
</clipPath>
</defs>
</svg>
