<svg xmlns:xlink="http://www.w3.org/1999/xlink"  width="60" height="60" viewBox="0 0 60 60" fill="none" xmlns="http://www.w3.org/2000/svg">
<g clip-path="url(#clip0_3232_603)">
<path d="M57.4013 3.71997H17.7201C17.0625 3.71997 16.4319 3.98119 15.9669 4.44616C15.5019 4.91114 15.2407 5.54178 15.2407 6.19935V16.74L37.5607 23.25L59.8807 16.74V6.19935C59.8807 5.54178 59.6195 4.91114 59.1545 4.44616C58.6896 3.98119 58.0589 3.71997 57.4013 3.71997Z" fill="#41A5EE"/>
<path d="M59.8807 16.74H15.2407V29.76L37.5607 36.27L59.8807 29.76V16.74Z" fill="#2B7CD3"/>
<path d="M59.8807 29.76H15.2407V42.78L37.5607 49.29L59.8807 42.78V29.76Z" fill="#185ABD"/>
<path d="M59.8807 42.78H15.2407V53.3206C15.2407 53.9782 15.5019 54.6089 15.9669 55.0738C16.4319 55.5388 17.0625 55.8 17.7201 55.8H57.4013C58.0589 55.8 58.6896 55.5388 59.1545 55.0738C59.6195 54.6089 59.8807 53.9782 59.8807 53.3206V42.78Z" fill="#103F91"/>
<path opacity="0.1" d="M31.3613 13.02H15.2407V48.36H31.3613C32.0183 48.3581 32.6478 48.0962 33.1124 47.6317C33.5769 47.1671 33.8388 46.5376 33.8407 45.8806V15.4994C33.8388 14.8424 33.5769 14.2129 33.1124 13.7484C32.6478 13.2838 32.0183 13.022 31.3613 13.02Z" fill="black"/>
<path opacity="0.2" d="M29.5013 14.8799H15.2407V50.2199H29.5013C30.1583 50.2179 30.7878 49.9561 31.2524 49.4915C31.7169 49.027 31.9788 48.3975 31.9807 47.7405V17.3593C31.9788 16.7023 31.7169 16.0728 31.2524 15.6082C30.7878 15.1437 30.1583 14.8818 29.5013 14.8799Z" fill="black"/>
<path opacity="0.2" d="M29.5013 14.8799H15.2407V46.4999H29.5013C30.1583 46.4979 30.7878 46.2361 31.2524 45.7715C31.7169 45.307 31.9788 44.6775 31.9807 44.0205V17.3593C31.9788 16.7023 31.7169 16.0728 31.2524 15.6082C30.7878 15.1437 30.1583 14.8818 29.5013 14.8799Z" fill="black"/>
<path opacity="0.2" d="M27.6413 14.8799H15.2407V46.4999H27.6413C28.2983 46.4979 28.9278 46.2361 29.3924 45.7715C29.8569 45.307 30.1188 44.6775 30.1207 44.0205V17.3593C30.1188 16.7023 29.8569 16.0728 29.3924 15.6082C28.9278 15.1437 28.2983 14.8818 27.6413 14.8799Z" fill="black"/>
<path d="M2.84022 14.8799H27.6415C28.299 14.8799 28.9297 15.1411 29.3946 15.6061C29.8596 16.0711 30.1208 16.7017 30.1208 17.3593V42.1605C30.1208 42.8181 29.8596 43.4487 29.3946 43.9137C28.9297 44.3787 28.299 44.6399 27.6415 44.6399H2.84022C2.18265 44.6399 1.55201 44.3787 1.08703 43.9137C0.622059 43.4487 0.36084 42.8181 0.36084 42.1605L0.36084 17.3593C0.36084 16.7017 0.622059 16.0711 1.08703 15.6061C1.55201 15.1411 2.18265 14.8799 2.84022 14.8799Z" fill="#185ABD"/>
<path d="M22.5878 39.06H19.2398L15.3338 26.226L11.2418 39.06H7.89383L4.17383 20.46H7.52183L10.1258 33.48L14.0318 20.832H16.8218L20.5418 33.48L23.1458 20.46H26.3078L22.5878 39.06Z" fill="white"/>
</g>
<defs>
<clipPath id="clip0_3232_603">
<rect width="60" height="59.52" fill="white"/>
</clipPath>
</defs>
</svg>
