<svg xmlns:xlink="http://www.w3.org/1999/xlink"  width="40" height="42" viewBox="0 0 40 42" fill="none" xmlns="http://www.w3.org/2000/svg">
<g clip-path="url(#clip0_127_85509)">
<path d="M27.1651 41.1335C26.2863 40.9719 25.392 40.8689 24.5331 40.6365C22.3935 40.0565 20.5507 38.9441 19.0509 37.3082C18.6735 36.8965 18.2916 36.7482 17.7393 36.7504C13.4005 36.7725 9.06058 36.7603 4.72067 36.7637C2.92759 36.7648 1.53962 36.0387 0.609873 34.4924C0.163817 33.752 -0.00110131 32.934 5.52993e-06 32.0729C0.00443288 28.645 0.0022192 25.2171 0.0022192 21.7893C0.0022192 17.3708 -0.00331498 12.9512 0.00443288 8.53266C0.00775339 6.34444 1.37691 4.5735 3.44448 4.0555C3.68909 3.99463 3.94367 3.95921 4.19603 3.93818C4.43289 3.91826 4.67307 3.93375 4.96971 3.93375C4.88891 2.60665 5.1789 1.45222 6.27688 0.634269C6.86572 0.195961 7.53536 -0.0220857 8.26365 0.00226468C9.26534 0.0354698 10.0921 0.449427 10.7275 1.2386C11.3528 2.01671 11.4635 2.93206 11.4137 3.90387H23.1041C23.0388 2.60776 23.3277 1.4489 24.4368 0.646444C25.092 0.170504 25.8281 0.00447836 26.636 0.0664613C28.3605 0.200389 29.3135 1.45112 29.5105 3.90165C29.8614 3.91936 30.2211 3.9094 30.572 3.96142C32.9694 4.31782 34.5256 6.16071 34.5311 8.65552C34.5378 11.8963 34.5378 15.1361 34.5256 18.3769C34.5245 18.6923 34.6296 18.8738 34.8809 19.0631C38.6253 21.8955 40.394 25.651 39.927 30.3385C39.3835 35.7852 35.0657 40.1926 29.6389 40.9829C29.3235 41.0294 29.0091 41.0825 28.6937 41.1323H27.1662L27.1651 41.1335ZM17.2357 34.9905C14.887 30.1027 15.0729 25.4241 18.5318 21.2823C22.3172 16.7487 27.2171 15.84 32.727 17.7714V13.0718H1.78976C1.78201 13.1592 1.77316 13.2124 1.77316 13.2655C1.77316 19.5711 1.76762 25.8768 1.78423 32.1825C1.78533 32.5975 1.88495 33.0458 2.06204 33.4199C2.59333 34.5456 3.54963 34.996 4.76715 34.9938C8.78387 34.9872 12.8017 34.9916 16.8184 34.9916C16.9479 34.9916 17.0774 34.9916 17.2368 34.9916L17.2357 34.9905ZM38.2468 28.9782C38.2667 23.2835 33.6445 18.6492 27.8823 18.5861C22.212 18.523 17.4615 23.2669 17.4803 28.9737C17.4991 34.7005 22.1478 39.3514 27.8547 39.3526C33.5505 39.3526 38.2269 34.685 38.2468 28.9782ZM11.4181 5.71797C11.4181 6.28799 11.4204 6.82149 11.4181 7.35609C11.4148 8.11649 11.106 8.43083 10.3434 8.43305C8.91005 8.43747 7.47669 8.43747 6.04334 8.43305C5.27519 8.43083 4.97192 8.12534 4.96749 7.36163C4.96417 6.81706 4.96749 6.27139 4.96749 5.73458C3.48322 5.5442 2.09968 6.40532 1.88495 7.79551C1.71007 8.91895 1.77648 10.0811 1.73553 11.2455H32.7292C32.7292 10.2261 32.7879 9.22111 32.7159 8.22607C32.5953 6.56802 31.1807 5.49771 29.5282 5.73458C29.5183 5.75671 29.4972 5.77996 29.4972 5.80209C29.4928 6.28357 29.4884 6.76615 29.4873 7.24762C29.4851 8.15855 29.2183 8.43305 28.3262 8.43415C26.946 8.43415 25.5668 8.43526 24.1866 8.43415C23.403 8.43415 23.1163 8.15523 23.1075 7.37934C23.1008 6.83366 23.1063 6.28689 23.1063 5.71797H11.4181ZM9.63503 6.64661C9.63503 5.42245 9.67044 4.22153 9.62174 3.02504C9.59297 2.30449 8.8868 1.7887 8.12419 1.81416C7.38593 1.83851 6.79156 2.38861 6.75061 3.11691C6.72404 3.58288 6.73843 4.05218 6.73843 4.51927C6.73733 5.22322 6.73843 5.92606 6.73843 6.64661H9.63613H9.63503ZM27.713 6.64108C27.713 5.45897 27.7152 4.32336 27.7097 3.18664C27.7097 3.05492 27.6765 2.91989 27.6399 2.7926C27.4606 2.17609 26.8652 1.77653 26.1966 1.81416C25.548 1.85068 24.9492 2.31445 24.9249 2.9376C24.8773 4.16287 24.9105 5.39146 24.9105 6.64108H27.7119H27.713Z" fill="#407BFF"/>
<path d="M28.1458 28.9759C28.3495 28.9759 28.4945 28.9759 28.6384 28.9759C29.7485 28.9759 30.8598 28.9671 31.97 28.9826C32.5289 28.9903 32.8875 29.3379 32.9019 29.8293C32.9163 30.3196 32.5798 30.6716 32.0253 30.738C31.9323 30.7491 31.8382 30.7469 31.7453 30.7469C30.354 30.7469 28.9616 30.7491 27.5703 30.7469C26.7147 30.7447 26.376 30.4093 26.376 29.5604C26.3738 27.6876 26.3716 25.8148 26.3804 23.9409C26.3804 23.7185 26.4081 23.4816 26.4867 23.2757C26.6295 22.9038 27.0412 22.7201 27.4441 22.8009C27.8724 22.8861 28.1381 23.2005 28.1414 23.6963C28.1514 25.2747 28.1458 26.8541 28.1469 28.4325C28.1469 28.5919 28.1469 28.7501 28.1469 28.9759H28.1458Z" fill="#407BFF"/>
</g>
<defs>
<clipPath id="clip0_127_85509">
<rect width="40" height="41.1334" fill="white"/>
</clipPath>
</defs>
</svg>
