<svg xmlns:xlink="http://www.w3.org/1999/xlink"  width="40" height="42" viewBox="0 0 40 42" fill="none" xmlns="http://www.w3.org/2000/svg">
<path d="M32.2213 32.4388C31.6997 32.9657 31.2085 33.4622 30.6724 34.0049C31.0183 34.6084 31.3973 35.2475 31.7525 35.8985C32.2438 36.7977 32.0628 37.5029 31.186 38.0244C30.1085 38.6649 29.0218 39.2895 27.9271 39.9009C27.0067 40.4145 26.3108 40.2112 25.7642 39.2921C25.405 38.6886 25.0577 38.0773 24.6761 37.4197C23.9815 37.6019 23.2935 37.7815 22.5567 37.9743C22.5567 38.7019 22.5633 39.403 22.5554 40.1042C22.5422 41.2623 22.0496 41.7574 20.9114 41.7614C19.5473 41.7654 18.1833 41.7667 16.8179 41.7601C15.9332 41.7548 15.3799 41.22 15.3641 40.3274C15.3456 39.2538 15.3601 38.1789 15.3601 37.0552C15.1118 37.0354 14.923 37.009 14.7329 37.0077C13.7861 37.0037 12.838 37.0447 11.8951 36.9945C11.0051 36.9456 10.3568 37.0367 9.84708 37.9875C9.20929 39.1746 7.62207 39.543 6.35045 39.0769C5.04317 38.5989 4.20203 37.3153 4.29314 35.9381C4.38425 34.5542 5.38122 33.412 6.75716 33.1123C8.08688 32.8231 9.49055 33.4305 10.0953 34.6599C10.3515 35.1815 10.646 35.3188 11.1953 35.3056C12.735 35.266 14.276 35.2897 15.8157 35.2924C16.8205 35.2937 17.0728 35.5419 17.0754 36.527C17.078 37.6243 17.0754 38.7203 17.0754 39.8665H20.7094C20.7094 39.1601 20.7028 38.484 20.7107 37.8079C20.7226 36.7951 21.0712 36.395 22.0562 36.1626C22.7825 35.9909 23.5048 35.7928 24.2192 35.5763C25.1673 35.2884 25.6836 35.4772 26.2012 36.354C26.5459 36.9377 26.8852 37.5253 27.2563 38.1605C28.1846 37.6243 29.0693 37.1133 30.0029 36.5746C29.6332 35.9249 29.2846 35.3214 28.9439 34.7127C28.4764 33.8781 28.5834 33.3117 29.2714 32.658C29.8458 32.114 30.3977 31.5462 30.947 30.9757C31.5413 30.3604 32.0893 30.2508 32.8419 30.6575C33.4771 31.0021 34.0977 31.3745 34.7976 31.7759C35.3271 30.8635 35.8407 29.9788 36.3927 29.028C35.7694 28.6636 35.1673 28.3189 34.5718 27.9624C33.7029 27.4448 33.5299 26.9443 33.8164 25.9698C34.0396 25.2118 34.2377 24.4446 34.4239 23.6761C34.6272 22.8389 35.0207 22.4969 35.9041 22.4811C36.6278 22.4679 37.3514 22.4784 38.1225 22.4784V19.2789C37.4214 19.2789 36.7466 19.2815 36.0718 19.2789C35.0115 19.2736 34.6087 18.925 34.379 17.9069C34.2152 17.1793 34.0066 16.4597 33.7953 15.744C33.5339 14.854 33.72 14.3192 34.5084 13.8451C35.1105 13.4833 35.7219 13.1387 36.3901 12.7504C35.8632 11.8367 35.3535 10.9493 34.8042 9.99592C34.173 10.3551 33.5722 10.7024 32.9674 11.0417C32.084 11.5356 31.5584 11.4366 30.8665 10.7024C30.3541 10.1583 29.8246 9.62883 29.2806 9.11648C28.5662 8.44304 28.4711 7.88316 28.969 7.00768C29.303 6.41874 29.6424 5.83377 30.0069 5.19862C29.0878 4.66779 28.2163 4.16336 27.2616 3.6114C26.9077 4.21222 26.5683 4.79323 26.2263 5.3716C25.6651 6.32103 25.1884 6.48873 24.1439 6.16785C23.4309 5.94865 22.7046 5.76775 21.9783 5.5908C21.0778 5.37028 20.7239 4.95169 20.7107 4.01547C20.7001 3.31693 20.708 2.61972 20.708 1.88421H17.0741C17.0741 2.98549 17.0741 4.07753 17.0741 5.16825C17.0741 6.25368 16.8522 6.4742 15.7589 6.4742C14.1518 6.4742 12.5461 6.48345 10.9391 6.4676C10.5667 6.46364 10.3674 6.56267 10.1957 6.92713C9.54997 8.29911 8.10669 8.98576 6.7017 8.64771C5.27822 8.30439 4.29446 7.08294 4.28522 5.64626C4.27598 4.19241 5.28746 2.91815 6.71622 2.58275C8.12122 2.25263 9.52357 2.95644 10.2287 4.30861C10.3277 4.49876 10.5747 4.73645 10.7582 4.74041C12.253 4.77474 13.7478 4.76022 15.3601 4.76022C15.3601 4.3205 15.3601 3.91379 15.3601 3.50708C15.3601 2.80327 15.3442 2.09813 15.3693 1.39431C15.3997 0.546565 15.9569 0.0117707 16.8034 0.00648875C18.2123 -0.00275461 19.62 -0.00539557 21.0289 0.00648875C22.0127 0.0157321 22.5303 0.529399 22.5554 1.51712C22.5739 2.26319 22.5593 3.00926 22.5593 3.78438C23.2671 3.97849 23.9393 4.16204 24.6721 4.36275C25.0339 3.73817 25.3918 3.11226 25.7576 2.49295C26.3214 1.53957 27.008 1.34546 27.972 1.88817C29.0455 2.49163 30.1125 3.10566 31.1715 3.73553C32.0761 4.27296 32.2517 4.97942 31.7327 5.91432C31.3828 6.54551 31.0144 7.16614 30.6565 7.7894C31.19 8.30703 31.6918 8.79297 32.2398 9.32248C32.8353 8.97783 33.4731 8.59886 34.1215 8.23705C35.0102 7.74186 35.7325 7.93201 36.2461 8.80353C36.8839 9.88236 37.5151 10.9665 38.1291 12.0585C38.6428 12.971 38.4355 13.6906 37.5296 14.2281C37.0384 14.5199 36.5472 14.8157 36.0388 15.0771C35.6968 15.2528 35.6281 15.4627 35.7576 15.8206C35.9437 16.3329 35.9266 17.0605 36.2778 17.3299C36.6291 17.6006 37.3263 17.421 37.8716 17.4421C38.1569 17.4527 38.4447 17.4553 38.7286 17.4857C39.447 17.561 39.9448 17.9967 39.9659 18.7111C40.0095 20.1583 40.0095 21.6069 39.9725 23.0542C39.9527 23.791 39.3743 24.2901 38.6151 24.3165C37.9562 24.3403 37.2946 24.339 36.6343 24.3165C36.2752 24.3047 36.0547 24.4341 36.0877 24.788C36.1458 25.4231 35.1911 26.049 36.0309 26.6644C36.5419 27.0394 37.1361 27.2982 37.6789 27.6323C38.3774 28.0627 38.6138 28.7903 38.2216 29.5126C37.5508 30.7486 36.847 31.97 36.1114 33.1677C35.7008 33.8359 34.9692 33.9825 34.2575 33.6008C33.5629 33.2285 32.8881 32.8204 32.2213 32.4375V32.4388ZM7.37118 7.01164C8.12121 7.02484 8.76297 6.4095 8.78146 5.65683C8.79994 4.89887 8.19912 4.25448 7.44777 4.22807C6.66869 4.20034 6.00052 4.83945 5.99788 5.61457C5.99524 6.36328 6.61983 6.99975 7.37118 7.01296V7.01164ZM8.77881 36.1216C8.76297 35.3637 8.1265 34.7444 7.37778 34.7563C6.63171 34.7681 5.9992 35.4073 5.99656 36.152C5.99392 36.9298 6.65416 37.5636 7.43985 37.5385C8.20308 37.5134 8.79466 36.8862 8.77881 36.1203V36.1216Z" fill="#407BFF"/>
<path d="M13.2796 13.4199C13.2796 12.2843 13.2743 11.2332 13.2809 10.1808C13.2862 9.38586 13.5609 9.10328 14.3479 9.098C15.8651 9.08876 17.3836 9.09008 18.9009 9.098C19.573 9.10064 19.9454 9.40039 19.9625 9.91934C19.981 10.4594 19.5796 10.8041 18.889 10.808C17.6174 10.8159 16.3444 10.8107 14.9843 10.8107C14.9843 11.8076 14.9843 12.7452 14.9843 13.684C14.9843 14.9939 14.8325 15.1432 13.4922 15.1432C11.2262 15.1432 8.9603 15.1524 6.69436 15.1352C6.29029 15.1326 6.07901 15.2475 5.89546 15.6278C5.23787 16.9892 3.82759 17.6362 2.3777 17.3008C0.997802 16.9799 0.00612132 15.707 0.0166852 14.2624C0.0259285 12.8059 1.01101 11.5647 2.40808 11.2477C3.84872 10.9203 5.22994 11.5977 5.9364 12.938C6.04468 13.1426 6.3167 13.3962 6.51609 13.3988C8.73582 13.4318 10.9569 13.4199 13.2796 13.4199ZM1.73595 14.269C1.73199 15.0322 2.33149 15.6529 3.09208 15.6727C3.82759 15.6925 4.48783 15.0626 4.5116 14.3179C4.53669 13.5441 3.88833 12.8812 3.11057 12.8838C2.35129 12.8878 1.74123 13.5018 1.73595 14.2677V14.269Z" fill="#407BFF"/>
<path d="M13.2778 28.3651C10.9273 28.3651 8.68516 28.3519 6.4443 28.3889C6.25679 28.3915 6.01251 28.69 5.89762 28.9065C5.08553 30.4383 3.25006 31.0497 1.7183 30.2732C0.182584 29.4941 -0.447285 27.6402 0.339721 26.1045C0.910169 24.9926 1.85299 24.4063 3.10613 24.3997C4.33285 24.3931 5.29681 24.9451 5.83028 26.0411C6.08381 26.564 6.38488 26.6564 6.89195 26.6511C9.17902 26.63 11.4661 26.6393 13.7518 26.6432C14.7779 26.6445 14.9825 26.8571 14.9852 27.8884C14.9878 28.8748 14.9852 29.8612 14.9852 30.9203C15.2598 30.9374 15.4909 30.9625 15.722 30.9625C16.822 30.9678 17.9206 30.9519 19.0206 30.9731C19.6082 30.9836 20.0017 31.3613 19.9607 31.8525C19.9158 32.4005 19.5804 32.6778 19.039 32.6791C17.4333 32.6857 15.829 32.6963 14.2233 32.6765C13.5696 32.6686 13.287 32.3451 13.2791 31.6676C13.2672 30.5954 13.2765 29.5232 13.2765 28.3651H13.2778ZM3.14046 26.1124C2.37194 26.1018 1.75264 26.6947 1.73547 27.458C1.71698 28.2423 2.35477 28.9012 3.12858 28.896C3.86408 28.892 4.50848 28.2436 4.51508 27.5042C4.52168 26.7621 3.88917 26.1229 3.14046 26.1124Z" fill="#407BFF"/>
<path d="M27.2706 20.1122C27.3023 24.8805 24.2454 28.4643 20.2972 28.9502C19.6105 29.0347 19.2236 28.8195 19.1312 28.3005C19.0322 27.7472 19.3451 27.3749 20.041 27.256C22.7348 26.7952 24.5504 25.2278 25.2846 22.6528C26.3912 18.7719 23.8717 15.1697 20.1361 14.516C19.8178 14.4606 19.4428 14.2942 19.258 14.0539C19.1153 13.8677 19.118 13.4081 19.258 13.2101C19.4111 12.9896 19.7994 12.8047 20.074 12.8205C21.3047 12.8905 22.4363 13.325 23.4624 13.9944C25.9053 15.5883 27.1227 17.8833 27.2706 20.1149V20.1122Z" fill="#407BFF"/>
<path d="M17.9329 21.7507C17.0112 21.7507 16.0895 21.7758 15.1691 21.7402C14.736 21.723 14.5274 21.8485 14.332 22.2538C13.4578 24.0682 10.9555 24.5647 9.45674 23.2561C8.25906 22.2103 8.07551 20.3273 9.04475 19.0055C9.96248 17.7537 11.7993 17.3707 13.1105 18.2422C13.6004 18.5684 14.0032 19.0702 14.3452 19.5614C14.5472 19.8532 14.7109 19.9866 15.0595 19.9866C16.66 19.9905 18.2617 20.017 19.8621 20.0368C20.4035 20.0434 20.8208 20.2388 20.8881 20.833C20.9462 21.3493 20.591 21.6926 19.9083 21.7349C19.2521 21.7758 18.5918 21.7441 17.9329 21.7441C17.9329 21.7468 17.9329 21.7481 17.9329 21.7507ZM11.5352 22.2222C12.3354 22.2288 12.9032 21.6742 12.9072 20.8845C12.9098 20.1728 12.305 19.568 11.5695 19.5482C10.7733 19.5271 10.0972 20.1596 10.1117 20.9096C10.1275 21.6583 10.731 22.2156 11.5352 22.2222Z" fill="#407BFF"/>
</svg>
