<svg xmlns:xlink="http://www.w3.org/1999/xlink"  width="40" height="38" viewBox="0 0 40 38" fill="none" xmlns="http://www.w3.org/2000/svg">
<g clip-path="url(#clip0_127_85487)">
<path d="M18.3735 37.2255C14.4043 37.2255 10.4363 37.2255 6.46604 37.2223C3.44796 37.2213 0.924555 35.2745 0.188385 32.3798C0.139449 32.1862 0.0947681 31.9851 0.0511511 31.7904C0.0341298 31.7117 0.0160447 31.634 -0.000976562 31.5553V13.8957C0.0362575 13.7436 0.0713639 13.5915 0.105406 13.4383C0.187321 13.0777 0.264981 12.7372 0.377747 12.4117C1.20328 10.0436 3.45115 8.35106 5.97136 8.2C6.16711 8.18829 6.35966 8.18191 6.5437 8.18191C6.5437 8.18191 18.782 8.18085 22.382 8.18085C25.982 8.18085 29.7629 8.18085 33.4543 8.18297C36.5692 8.18404 39.0639 10.083 39.8086 13.0213C39.8597 13.2213 39.9012 13.4223 39.9458 13.6351C39.9639 13.7202 39.9809 13.8043 39.999 13.8894V31.5245C39.9756 31.583 39.9458 31.6617 39.9309 31.7532C39.6214 33.6894 38.6256 35.2053 36.9724 36.2596C35.9692 36.8989 34.8118 37.2234 33.5331 37.2234C33.5331 37.2234 21.6788 37.2255 18.3724 37.2255H18.3735ZM12.0703 10.0564C10.2246 10.0564 8.37881 10.0574 6.532 10.0617C3.78732 10.0681 1.86817 11.9851 1.86604 14.7245C1.86179 19.9883 1.86179 25.3606 1.86604 30.6925C1.86817 33.3968 3.83307 35.3606 6.53838 35.3617C11.0267 35.3638 15.515 35.3649 20.0022 35.3649C24.4894 35.3649 28.9788 35.3638 33.466 35.3606C36.1682 35.3596 38.1309 33.3936 38.1331 30.6862C38.1373 25.0064 38.1363 19.783 38.1288 14.717C38.1288 14.2787 38.0841 13.8745 37.998 13.5149C37.4948 11.4191 35.7139 10.0617 33.4607 10.0585C31.5841 10.0553 29.7065 10.0543 27.8299 10.0543C26.5278 10.0543 21.3182 10.0564 20.016 10.0564C18.7139 10.0564 17.3671 10.0564 16.0426 10.0553C14.7182 10.0553 13.3937 10.0543 12.0692 10.0543L12.0703 10.0564Z" fill="#407BFF"/>
<path d="M13.1888 6.09255C12.9228 6.09255 12.693 5.99787 12.526 5.81915C12.3537 5.63511 12.259 5.36809 12.259 5.06809V3.88404L12.2207 3.8766C12.2345 3.78723 12.2473 3.69894 12.2601 3.61064C12.3281 3.13511 12.393 2.68723 12.5537 2.29255C13.143 0.848936 14.2686 0.0702128 15.8079 0.0382979C17.0952 0.0117021 18.4228 0 19.8643 0C21.1909 0 22.6122 0.0106383 24.2079 0.0329787C26.0973 0.0595745 27.643 1.58511 27.7271 3.50638C27.7484 3.99149 27.7505 4.50319 27.7345 5.0266C27.7175 5.56915 27.3398 5.95106 26.8143 5.95532C26.2696 5.95532 25.8824 5.56809 25.8633 5.01383C25.8547 4.7766 25.8569 4.54255 25.859 4.29468C25.8601 4.08936 25.8622 3.87766 25.8569 3.66596C25.8345 2.65957 25.0813 1.89574 24.1058 1.88936C22.742 1.88085 21.3633 1.8766 20.0079 1.8766C18.6526 1.8766 17.2484 1.88085 15.8845 1.88936C14.8973 1.89574 14.1611 2.64149 14.1356 3.66277C14.1281 3.95745 14.1303 4.25319 14.1313 4.54043C14.1313 4.71489 14.1335 4.89043 14.1324 5.06489C14.1292 5.67021 13.742 6.09255 13.1909 6.09255H13.1899H13.1888Z" fill="#407BFF"/>
<path d="M20.0856 22.8573C20.042 22.8573 19.9983 22.8573 19.9558 22.8563C18.7058 22.8414 17.4983 22.568 16.2611 22.0212C14.4462 21.218 12.6292 20.4169 10.8132 19.6169C9.71535 19.1329 8.61748 18.6488 7.51961 18.1648C7.20578 18.0265 6.97706 17.8073 6.87812 17.5499C6.79301 17.3286 6.80365 17.085 6.90897 16.8467C7.06748 16.4882 7.37812 16.2839 7.76216 16.2839C7.93557 16.2839 8.11535 16.3244 8.29727 16.4052C11.0111 17.6041 13.7696 18.8286 16.4366 20.0127L16.9951 20.2605C18.0132 20.7127 19.0441 20.9414 20.0579 20.9414C21.0717 20.9414 22.0185 20.7286 22.9771 20.3084C24.3983 19.6871 25.8398 19.0478 27.2334 18.4297C28.7143 17.7733 30.2451 17.0935 31.7547 16.435C31.9526 16.3488 32.1792 16.2988 32.3771 16.2988C32.4175 16.2988 32.4568 16.301 32.4941 16.3052C32.9015 16.352 33.2026 16.6797 33.26 17.1414C33.3122 17.5584 33.092 17.9318 32.6856 18.1148C31.8749 18.4807 31.0441 18.8414 30.2409 19.1903C29.9398 19.3212 29.6377 19.452 29.3366 19.5829L27.8334 20.2393C26.4377 20.8488 24.9941 21.4797 23.5717 22.0946C22.4462 22.5807 21.1771 22.8595 20.0866 22.8595L20.0856 22.8573Z" fill="#407BFF"/>
</g>
<defs>
<clipPath id="clip0_127_85487">
<rect width="40" height="37.2255" fill="white"/>
</clipPath>
</defs>
</svg>
