<svg xmlns:xlink="http://www.w3.org/1999/xlink"  width="40" height="40" viewBox="0 0 40 40" fill="none" xmlns="http://www.w3.org/2000/svg">
<g clip-path="url(#clip0_127_85363)">
<path d="M25.7031 39.9999H23.5938C23.2875 39.9529 22.9823 39.908 22.676 39.8579C16.7594 38.8968 12.7031 35.6032 10.4375 30.0763C10.3302 29.8154 10.1938 29.6683 9.92604 29.5618C4.89063 27.5404 1.67813 23.9139 0.380208 18.6312C0.201042 17.9028 0.123958 17.1503 0 16.4083C0 15.7049 0 15.0026 0 14.2992C0.0229167 14.1876 0.0479167 14.0759 0.0677083 13.9632C0.230208 13.0563 0.31875 12.1285 0.565625 11.2457C2.66042 3.7516 10 -1.05938 17.624 0.199193C23.3844 1.15095 27.3385 4.48733 29.5448 9.88794C29.6625 10.176 29.8146 10.3356 30.1083 10.4536C35.1271 12.4802 38.3271 16.1046 39.6208 21.3738C39.8 22.1011 39.8771 22.8546 40.001 23.5956V25.7047C39.9427 26.1409 39.8948 26.5782 39.825 27.0113C38.8177 33.2468 34.225 38.1798 28.0812 39.6054C27.301 39.787 26.4969 39.8705 25.7042 39.9988L25.7031 39.9999ZM9.58021 26.8339C9.02604 21.8559 10.3802 17.4926 13.9385 13.935C17.4948 10.3784 21.8594 9.0301 26.8375 9.5853C24.9531 5.46831 19.9927 1.6884 13.75 2.44397C7.59271 3.1891 2.81042 8.22653 2.37396 14.4192C1.96354 20.2456 5.55208 25.0044 9.58125 26.8349L9.58021 26.8339ZM13.1542 30.4103C15.1948 34.7944 20.4208 38.4919 26.7646 37.4911C32.7302 36.5508 37.299 31.482 37.6365 25.378C37.799 22.4351 37.0135 19.7395 35.3198 17.3225C34.0521 15.514 32.4229 14.1208 30.4094 13.1273C31.8333 22.9997 23.3781 31.8014 13.1542 30.4103ZM25.2271 23.6571C22.2313 20.661 19.325 17.7556 16.3604 14.7908C15.8417 15.3084 15.3031 15.8469 14.8146 16.3342C17.7896 19.3106 20.701 22.2222 23.6771 25.1996C24.176 24.7039 24.7073 24.1748 25.2271 23.6571ZM13.4156 18.4673C13.3656 18.5561 13.3094 18.6427 13.2656 18.7345C13.1031 19.0737 12.9333 19.4108 12.7875 19.7572C12.3979 20.686 12.4021 20.6881 13.0948 21.3832C13.15 21.4385 13.2052 21.4938 13.2604 21.5491C15.1906 23.4797 17.1198 25.4125 19.0563 27.3379C19.15 27.4318 19.3375 27.5445 19.4292 27.5101C20.151 27.2367 20.8594 26.9299 21.5802 26.6304C18.825 23.8753 16.1333 21.1849 13.4167 18.4684L13.4156 18.4673ZM18.449 13.361C21.1979 16.1099 23.8938 18.8055 26.6427 21.5533C26.9344 20.8499 27.2365 20.1371 27.5177 19.417C27.5458 19.344 27.4771 19.1968 27.4083 19.1279C25.2333 16.9447 23.0542 14.7668 20.8708 12.5929C20.8031 12.5251 20.6552 12.4594 20.5813 12.4886C19.8615 12.7704 19.15 13.072 18.45 13.3621L18.449 13.361ZM28.1219 16.4177C28.1219 16.4177 28.1458 16.3854 28.149 16.3509C28.2885 15.0047 28.1573 13.6762 27.8542 12.3634C27.8313 12.2642 27.6698 12.1525 27.5542 12.1265C26.3687 11.8509 25.1667 11.7528 23.9521 11.8175C23.8177 11.8249 23.6833 11.8509 23.5719 11.8656C25.1 13.3944 26.6125 14.9076 28.1219 16.4177ZM11.874 23.605C11.6948 24.3814 11.8458 26.8954 12.1479 27.6583C12.1865 27.7543 12.3198 27.8503 12.426 27.8743C12.8313 27.9651 13.2406 28.0643 13.6531 28.0924C14.5813 28.1571 15.5115 28.1822 16.4937 28.225C14.9 26.6314 13.3865 25.1182 11.874 23.605Z" fill="#407BFF"/>
</g>
<defs>
<clipPath id="clip0_127_85363">
<rect width="40" height="40" fill="white"/>
</clipPath>
</defs>
</svg>
